<?xml version="1.0" encoding="utf-8"?>
<!-- Generator: Adobe Illustrator 19.0.0, SVG Export Plug-In . SVG Version: 6.00 Build 0)  -->
<!DOCTYPE svg PUBLIC "-//W3C//DTD SVG 1.1//EN" "http://www.w3.org/Graphics/SVG/1.1/DTD/svg11.dtd">
<svg version="1.1" id="Laag_1" xmlns="http://www.w3.org/2000/svg" xmlns:xlink="http://www.w3.org/1999/xlink" x="0px" y="0px"
	 width="12px" height="12px" viewBox="0 0 12 12" enable-background="new 0 0 12 12" xml:space="preserve">
<path fill="#FF7600" d="M10.498,5.368C10.498,5.373,10.498,5.373,10.498,5.368c0-0.004,0-0.007-0.001-0.01l-0.009-0.077
	c-0.138-1.184-0.78-2.262-1.717-2.988c-0.036-0.028-0.072-0.057-0.11-0.084c0.038,0.027,0.074,0.056,0.111,0.085
	C8.429,2.008,8.048,1.771,7.646,1.578C7.435,1.476,7.215,1.389,6.99,1.32C6.878,1.286,6.765,1.256,6.65,1.23
	C6.64,1.228,6.631,1.226,6.621,1.225l0,0c0.003,0,0.004-0.001,0.006-0.001C5.87,1.06,5.079,1.107,4.346,1.356
	C3.668,1.587,3.052,1.984,2.547,2.489C2.04,2.993,1.641,3.606,1.38,4.27C1.272,4.544,1.185,4.834,1.152,5.127
	C1.145,5.194,1.125,5.288,1.182,5.34c0.072,0.064,0.157-0.045,0.189-0.099C1.38,5.228,1.387,5.214,1.394,5.199
	c0.374-1.377,1.053-2.102,1.638-2.611C3.019,2.605,3.007,2.622,2.995,2.639C3.013,2.623,3.03,2.608,3.047,2.593
	C2.706,3.048,2.393,3.528,2.142,4.039l0,0H2.137v0.009C1.916,4.498,1.813,4.84,1.783,5.047C1.814,5.051,1.847,5.049,1.875,5.04
	v0.001c0.002,0.013,0.008,0.031,0.024,0.033C1.937,5.075,1.981,5.033,2.007,5.01c0.106-0.089,0.202-0.2,0.272-0.32
	c0.057-0.149,0.114-0.296,0.179-0.441C2.553,4.037,2.663,3.832,2.81,3.652c0.144-0.176,0.317-0.324,0.494-0.465
	c0.257-0.206,0.505-0.42,0.789-0.589C4.421,2.403,4.799,2.299,5.177,2.25c0.762-0.099,1.511,0.09,2.179,0.459
	c0.16,0.089,0.317,0.187,0.467,0.294h0.005c0.209,0.167,0.402,0.35,0.57,0.553c0.368,0.44,0.622,0.965,0.741,1.526
	c0.12,0.56,0.109,1.151-0.015,1.721c-0.123,0.57-0.357,1.119-0.679,1.608c-0.323,0.487-0.738,0.916-1.22,1.234
	C7.111,9.721,6.992,9.79,6.87,9.852c-0.021,0.01-0.041,0.02-0.061,0.03c-0.569,0.219-1.188,0.332-1.794,0.213
	c-0.193-0.038-0.38-0.098-0.563-0.171C4.275,9.854,4.096,9.785,3.927,9.7C3.81,9.64,3.687,9.575,3.58,9.494H3.579
	c0.016,0.01,0.033,0.021,0.05,0.032c-0.035-0.037-0.07-0.073-0.102-0.112C2.979,8.759,2.665,7.439,3.13,6.715
	c0.154-0.24,0.6-0.416,1.261-0.775C4.399,5.93,4.41,5.92,4.423,5.912c0.284-0.17,0.313-0.269,0.284-0.43
	c-0.017-0.059-0.03-0.116-0.04-0.173c-0.005-0.024-0.011-0.05-0.016-0.078l0.005,0.001C4.567,4.556,4.773,4.004,5.064,3.856
	c0.27-0.138,0.597-0.115,1.032,0.043c-0.019-0.017,0.011,0.007,0.04,0.039C6.334,4.161,6.329,4.874,6.275,5.31
	c-0.03,0.246-0.1,0.36-0.1,0.36s0.53,0.14,0.677,0.234C7.073,6.046,7.324,6.207,7.77,6.346c-0.008,0.172-0.064,0.65-0.097,0.911
	c0.003-0.024,0.006-0.049,0.009-0.076v0.004C7.516,7.231,7.35,7.281,7.183,7.323C7.064,7.352,6.944,7.38,6.822,7.401
	C6.765,7.412,6.674,7.432,6.616,7.43C6.504,7.426,6.365,7.164,6.379,6.999c0.009-0.105,0.041-0.21,0.026-0.316
	C6.397,6.627,6.376,6.578,6.351,6.529c0,0,0,0.001,0,0.002C6.348,6.519,6.347,6.51,6.345,6.505c-0.011-0.029-0.047-0.122-0.06-0.139
	L6.205,6.27c0,0,0.016,0.007-0.013-0.014c-0.199-0.139-0.474-0.23-0.675-0.181c-0.22,0.054-0.43,0.28-0.539,0.508
	C4.949,6.645,4.924,6.711,4.907,6.78C4.902,6.799,4.87,7.004,4.875,7.003c-0.06,0.002-0.121,0.006-0.181,0.011
	c-0.198,0.015-0.646,0.024-0.819,0.22C3.79,7.33,3.751,7.487,3.753,7.614c0.001,0.058,0.022,0.095,0.052,0.144
	c0.049,0.079,0.057,0.15,0.054,0.241C3.856,8.077,3.867,8.145,3.914,8.208c0.043,0.057-0.003,0.106,0.038,0.164
	c0.001,0.001,0.001,0.001,0.002,0.003c-0.01-0.014-0.02-0.028-0.032-0.042C3.893,8.517,3.843,8.811,3.915,8.918
	C3.974,9.006,4.051,8.95,4.124,9.007c0.053,0.042,0.104,0.082,0.139,0.127C4.295,9.175,4.335,9.21,4.375,9.24
	c0.004,0.001,0.007,0.004,0.01,0.006C4.428,9.269,4.467,9.292,4.49,9.312l0.007,0.007c0.006,0.003,0.011,0.006,0.017,0.01
	c0.003,0.001,0.007,0.004,0.01,0.005C4.567,9.358,4.607,9.381,4.629,9.4l0.019,0.016l0.024,0.002
	c0.62,0.053,1.117-0.077,1.133-0.085l0.017-0.008L5.833,9.31c0.033-0.044,0.06-0.09,0.082-0.134C6.01,8.983,6.11,8.982,6.113,8.973
	l0.035-0.23c0,0-0.444,0.17-0.653,0.209S5.044,9.089,4.907,9.004c-0.119-0.075-0.08-0.255-0.168-0.271
	C4.652,8.718,4.585,8.711,4.552,8.615C4.522,8.53,4.592,8.383,4.57,8.349C4.522,8.276,4.208,8.326,4.402,7.935
	c0.049-0.097-0.306-0.249-0.046-0.483c0.052-0.047,0.149-0.064,0.324-0.07c0.217-0.007,0.365,0.026,0.457,0.054L5.136,7.435
	c0.001,0.002,0.003,0.003,0.003,0.006C5.15,7.442,5.161,7.444,5.172,7.447c0.06,0.019,0.085,0.032,0.08,0.014
	C5.17,7.171,5.249,6.797,5.421,6.554c0.086-0.121,0.227-0.136,0.345-0.051c0.028,0.021,0.071,0.055,0.078,0.093
	C5.829,6.693,5.821,6.791,5.823,6.89c0.007,0.244,0.05,0.381,0.152,0.562c0.098,0.172,0.166,0.394,0.158,0.594l0,0l0,0
	C6.31,8.03,6.486,8.005,6.662,7.982l0,0L7.92,7.747L7.869,8.045c0,0-1.095,0.528-1.092,0.56c0.111,0.105,0.259,0.03,0.327-0.001
	c0.115-0.053,0.259-0.105,0.372-0.163C7.755,8.297,7.912,8.209,8.18,8.045c0.147-0.09,0.25-0.159,0.305-0.284
	c0.03-0.067,0.048-0.141,0.05-0.215C8.543,7.32,8.58,7.094,8.608,6.869c0.028-0.24,0.053-0.498,0.008-0.738
	c-0.027-0.145-0.103-0.29-0.227-0.372c-0.225-0.149-0.513-0.2-0.765-0.286C7.484,5.426,7.35,5.366,7.229,5.278
	C7.17,5.235,7.102,5.172,7.087,5.097c-0.011-0.055-0.018-0.11-0.024-0.166C7.035,4.617,7.058,4.3,7.028,3.985
	C7.005,3.732,6.943,3.38,6.682,3.26L6.678,3.258c-0.026-0.03-0.055-0.059-0.089-0.082C6.433,3.043,5.845,2.949,5.362,2.988
	C5.317,2.992,5.271,2.996,5.223,2.999C5.174,3.003,5.129,3.007,5.085,3.011C4.914,3.03,4.718,3.072,4.523,3.166L4.522,3.17
	C4.464,3.185,4.408,3.228,4.359,3.26C4.213,3.356,4.086,3.48,3.982,3.62c-0.107,0.144-0.169,0.322-0.21,0.496
	C3.751,4.201,3.737,4.289,3.728,4.377C3.726,4.396,3.727,4.408,3.726,4.414C3.714,4.59,3.767,4.765,3.817,4.931
	C3.842,5.014,3.869,5.096,3.89,5.178c0.008,0.03,0.02,0.036-0.012,0.05c-0.022,0.01-0.044,0.019-0.066,0.029
	C3.763,5.279,3.713,5.302,3.665,5.324C3.658,5.327,3.654,5.333,3.65,5.338c-0.004,0.005-0.006,0.01-0.007,0.015
	c0-0.004,0.002-0.007,0.002-0.011C3.236,5.53,2.829,5.727,2.457,5.983c-0.09,0.062-0.182,0.128-0.265,0.202
	c-0.077,0.068-0.099,0.173-0.127,0.27c-0.07,0.234-0.117,0.477-0.14,0.722C1.888,7.073,1.793,6.932,1.663,6.982
	c-0.105,0.041-0.14,0.182-0.154,0.281C1.482,7.435,1.523,7.625,1.57,7.789c0.052,0.179,0.141,0.347,0.244,0.503
	C1.555,8.291,1.71,8.603,1.777,8.724c0.072,0.129,0.156,0.25,0.249,0.365c0.121,0.149,0.242,0.3,0.367,0.446
	c0.24,0.277,0.567,0.449,0.883,0.624c0.165,0.09,0.33,0.181,0.494,0.271c0.159,0.087,0.323,0.169,0.498,0.22
	c0.335,0.096,0.701,0.107,1.048,0.122c0.176,0.007,0.352,0.013,0.528,0.018c0.09,0.002,0.18,0.005,0.269,0.009
	c0.049,0.002,0.097,0.003,0.146,0.008c0.011,0.001,0.053,0.001,0.062,0.012c0.005,0.005-0.156,0.032-0.166,0.034
	c-0.079,0.01-0.159,0.018-0.239,0.025c-0.16,0.012-0.32,0.015-0.48,0.01c-0.319-0.01-1.135-0.145-1.445-0.222
	c-0.307-0.076,1.55,0.596,2.991,0.156c1.208-0.369,2.196-1.273,2.811-2.361C10.322,7.531,10.597,6.44,10.498,5.368z M8.692,9.192
	C8.685,9.201,8.677,9.211,8.67,9.221c0,0,0.002-0.004,0.007-0.011C8.576,9.33,8.541,9.366,8.628,9.266l0.338-0.485
	c0,0,0.119-0.197,0.173-0.294l0.082-0.155c0.554-1.086,0.663-2.136,0.484-3.077C9.709,5.283,9.714,5.311,9.717,5.34
	C9.82,6.09,9.696,6.862,9.411,7.559C9.217,8.031,8.949,8.474,8.618,8.863C8.454,9.055,8.275,9.235,8.08,9.398
	C7.9,9.549,7.704,9.67,7.494,9.77C7.478,9.778,7.459,9.788,7.435,9.799C7.455,9.79,7.474,9.78,7.494,9.77
	c0.064-0.033,0.051-0.034-0.118,0.056c1.267-0.672,2.123-2.043,2.288-3.454c0.125-1.068-0.175-2.161-0.912-2.958
	C8.764,3.418,8.779,3.43,8.793,3.429c0.015,0-0.026-0.055-0.027-0.057C9.054,3.668,9.34,3.943,9.473,4.329
	C8.934,2.756,7.466,1.286,5.518,1.447c0,0,0.419-0.033,0.747-0.039C8.589,1.614,9.63,4.079,9.794,4.73
	c0.166,0.659,0.22,1.329,0.057,1.985C9.709,7.29,9.503,7.813,9.244,8.333L9.143,8.532L9.139,8.537
	C9.105,8.616,8.855,8.972,8.692,9.192L8.734,9.13 M8.67,9.221c0,0,0.001,0,0.002-0.001C8.671,9.221,8.67,9.222,8.67,9.221z
	 M6.373,1.224C6.35,1.226,6.327,1.227,6.305,1.228C6.326,1.227,6.349,1.225,6.373,1.224z M7.446,2.733
	c0.132,0.084,0.26,0.174,0.382,0.271C7.706,2.907,7.578,2.817,7.446,2.733z M3.979,4.827c0.009-0.25,0.052-0.499,0.137-0.735
	C4.157,3.981,4.208,3.869,4.275,3.77C4.29,3.747,4.306,3.723,4.327,3.704c0.016-0.015,0.05-0.011,0.07-0.01
	c0.062,0.002,0.125,0.01,0.185,0.028C4.166,4.305,4.087,5.019,4.227,5.71c-0.433,0.247-0.88,0.472-1.328,0.692
	C3.244,6.17,3.588,5.94,3.936,5.713C3.96,5.697,3.984,5.681,4.009,5.665c0.028-0.019,0.06-0.025,0.051-0.06
	C4.039,5.51,4.021,5.414,4.007,5.318C3.983,5.156,3.973,4.992,3.979,4.827z M2.901,9.569c-0.196-0.225-0.352-0.484-0.465-0.76
	C2.193,8.219,2.14,7.562,2.215,6.932c-0.004,0.174,0.009,0.347,0.03,0.519c0-0.009,0.001-0.017,0-0.026
	C2.25,7.592,2.296,7.768,2.333,7.929c0.049,0.207,0.11,0.41,0.184,0.608C2.699,9.03,2.956,9.494,3.272,9.913
	C3.189,9.847,3.088,9.772,3.014,9.698c0.004,0.004,0.008,0.008,0.012,0.011C2.981,9.662,2.94,9.614,2.901,9.569z M3.035,9.713
	C3.034,9.712,3.034,9.712,3.035,9.713C3.034,9.712,3.034,9.712,3.035,9.713C3.034,9.713,3.034,9.713,3.035,9.713z"/>
<g id="XMLID_1_">
</g>
<g id="XMLID_2_">
</g>
<g id="XMLID_3_">
</g>
<g id="XMLID_4_">
</g>
<g id="XMLID_5_">
</g>
<g id="XMLID_6_">
</g>
</svg>
