<?xml version="1.0" encoding="utf-8"?>
<!-- Generator: Adobe Illustrator 18.1.1, SVG Export Plug-In . SVG Version: 6.00 Build 0)  -->
<!DOCTYPE svg PUBLIC "-//W3C//DTD SVG 1.1//EN" "http://www.w3.org/Graphics/SVG/1.1/DTD/svg11.dtd">
<svg version="1.1" id="Laag_1" xmlns="http://www.w3.org/2000/svg" xmlns:xlink="http://www.w3.org/1999/xlink" x="0px" y="0px"
	 width="12px" height="12px" viewBox="0 0 12 12" enable-background="new 0 0 12 12" xml:space="preserve">
<g>
	<path fill="#FFFFFF" d="M3.374,8.189C2.032,8.297,2.439,9.046,1.946,9.537c-0.487,0.488-1.083,0.745-1.083,0.745
		s2.495,0.867,3.51,0c0.924-0.789,0.189-0.977-0.215-1.504C3.756,8.253,3.526,8.177,3.374,8.189z"/>
	<path fill="#FFFFFF" d="M7.085,7.551c0.297-0.271,0.598-0.556,0.9-0.855c2.451-2.412,3.482-4.192,3.059-4.624
		c-0.426-0.43-2.142,0.651-4.594,3.063C6.152,5.428,5.867,5.72,5.595,6.007c0.215,0.306,0.458,0.6,0.732,0.878
		C6.568,7.132,6.821,7.353,7.085,7.551z"/>
	<g>
		<path fill="#FFFFFF" d="M5.333,8.992c0.374-0.298,0.773-0.632,1.18-0.998c-0.256-0.2-0.505-0.419-0.741-0.658
			c-0.269-0.275-0.51-0.562-0.727-0.862C4.672,6.876,4.331,7.266,4.026,7.637C4.223,7.904,4.44,8.163,4.681,8.409
			C4.889,8.619,5.107,8.814,5.333,8.992z"/>
	</g>
</g>
<g>
</g>
<g>
</g>
<g>
</g>
<g>
</g>
<g>
</g>
<g>
</g>
</svg>
