<?xml version="1.0" encoding="utf-8"?>
<!-- Generator: Adobe Illustrator 18.1.1, SVG Export Plug-In . SVG Version: 6.00 Build 0)  -->
<!DOCTYPE svg PUBLIC "-//W3C//DTD SVG 1.1//EN" "http://www.w3.org/Graphics/SVG/1.1/DTD/svg11.dtd">
<svg version="1.1" id="Laag_1" xmlns="http://www.w3.org/2000/svg" xmlns:xlink="http://www.w3.org/1999/xlink" x="0px" y="0px"
	 width="12px" height="12px" viewBox="0 0 12 12" enable-background="new 0 0 12 12" xml:space="preserve">
<path fill="#80CE00" d="M9.5,2.4c-2-2-5.2-2-7.2,0c-0.4,0.4-0.7,0.9-1,1.4C0.4,5.7,0.8,8,2.3,9.6c2,2,5.2,2,7.2,0
	c0.1-0.1,0.1-0.1,0.2-0.2C11.5,7.4,11.4,4.4,9.5,2.4z M9.2,3.8C7.8,5.1,6.6,6.6,5.7,8.3C5.6,8.4,5.6,8.5,5.5,8.5
	C5.3,8.6,5.1,8.7,4.9,8.7c-0.2,0-0.4,0.1-0.5,0c-0.1,0-0.3-0.1-0.3-0.2C3.9,7.7,3.6,6.8,3.3,5.9C3.2,5.5,4.7,5.1,4.9,5.5
	C5,5.9,5.2,6.3,5.3,6.7c0.7-1,1.5-2,2.4-2.9c0.3-0.3,0.7-0.4,1-0.4C8.9,3.4,9.4,3.5,9.2,3.8z"/>
</svg>
