<?xml version="1.0" encoding="utf-8"?>
<!-- Generator: Adobe Illustrator 18.1.1, SVG Export Plug-In . SVG Version: 6.00 Build 0)  -->
<!DOCTYPE svg PUBLIC "-//W3C//DTD SVG 1.1//EN" "http://www.w3.org/Graphics/SVG/1.1/DTD/svg11.dtd">
<svg version="1.1" id="Laag_1" xmlns="http://www.w3.org/2000/svg" xmlns:xlink="http://www.w3.org/1999/xlink" x="0px" y="0px"
	 width="12px" height="12px" viewBox="0 0 12 12" enable-background="new 0 0 12 12" xml:space="preserve">
<g>
	<path fill="#FFFFFF" d="M5.734,3.858C4.709,3.978,3.897,4.79,3.777,5.815h1.957V3.858z"/>
	<path fill="#FFFFFF" d="M3.777,6.341c0.12,1.024,0.932,1.836,1.957,1.956V6.341H3.777z"/>
	<path fill="#FFFFFF" d="M8.217,6.341H6.26v1.956C7.285,8.177,8.097,7.365,8.217,6.341z"/>
	<path fill="#FFFFFF" d="M8.217,5.815C8.097,4.79,7.285,3.978,6.26,3.858v1.957H8.217z"/>
	<path fill="#FFFFFF" d="M10.724,5.815h-0.676C9.917,3.784,8.291,2.158,6.26,2.027V1.351H5.734v0.676
		C3.702,2.158,2.077,3.784,1.946,5.815H1.27v0.526h0.676c0.131,2.031,1.757,3.657,3.788,3.788v0.676H6.26v-0.676
		c2.031-0.131,3.657-1.757,3.788-3.788h0.676V5.815z M6.26,9.708v-1.41c-0.086,0.01-0.174,0.017-0.263,0.017S5.82,8.308,5.734,8.298
		v1.41C3.935,9.579,2.496,8.14,2.367,6.341h1.41C3.767,6.254,3.76,6.167,3.76,6.078c0-0.089,0.007-0.177,0.017-0.263h-1.41
		c0.13-1.799,1.568-3.238,3.367-3.367v1.41c0.086-0.01,0.174-0.017,0.263-0.017S6.173,3.848,6.26,3.858v-1.41
		c1.799,0.129,3.238,1.568,3.367,3.367h-1.41c0.01,0.086,0.017,0.174,0.017,0.263c0,0.089-0.007,0.177-0.017,0.263h1.41
		C9.497,8.14,8.059,9.579,6.26,9.708z"/>
</g>
<g>
</g>
<g>
</g>
<g>
</g>
<g>
</g>
<g>
</g>
<g>
</g>
</svg>
