<?xml version="1.0" encoding="utf-8"?>
<!-- Generator: Adobe Illustrator 18.1.1, SVG Export Plug-In . SVG Version: 6.00 Build 0)  -->
<!DOCTYPE svg PUBLIC "-//W3C//DTD SVG 1.1//EN" "http://www.w3.org/Graphics/SVG/1.1/DTD/svg11.dtd">
<svg version="1.1" id="Laag_1" xmlns="http://www.w3.org/2000/svg" xmlns:xlink="http://www.w3.org/1999/xlink" x="0px" y="0px"
	 width="12px" height="12px" viewBox="0 0 12 12" enable-background="new 0 0 12 12" xml:space="preserve">
<g>
	<path fill-rule="evenodd" clip-rule="evenodd" fill="#ffffff" d="M9.278,3.063c0-0.845-0.683-1.529-1.526-1.529l-5.037,0
		c-0.842,0-1.525,0.685-1.525,1.529l0,2.485c0,0.845,0.683,1.529,1.525,1.529h0.128L2.859,9.34L5.38,7.078l2.373,0
		c0.842,0,1.525-0.685,1.525-1.529L9.278,3.063z"/>
	<path fill-rule="evenodd" clip-rule="evenodd" fill="#ffffff" d="M9.905,3.238L9.89,6.089c0,0-0.048,1.545-1.7,1.545l-2.32,0
		L4.837,8.702l1.7,0.016l2.336,2.421l0.079-2.485c0,0,1.827,0.127,1.827-1.497c0-1.625,0-2.405,0-2.405S10.859,3.78,9.905,3.238z"/>
</g>
<g>
</g>
<g>
</g>
<g>
</g>
<g>
</g>
<g>
</g>
<g>
</g>
</svg>
