<?xml version="1.0" encoding="utf-8"?>
<!-- Generator: Adobe Illustrator 18.1.1, SVG Export Plug-In . SVG Version: 6.00 Build 0)  -->
<!DOCTYPE svg PUBLIC "-//W3C//DTD SVG 1.1//EN" "http://www.w3.org/Graphics/SVG/1.1/DTD/svg11.dtd">
<svg version="1.1" id="Laag_1" xmlns="http://www.w3.org/2000/svg" xmlns:xlink="http://www.w3.org/1999/xlink" x="0px" y="0px"
	 width="12px" height="12px" viewBox="0 0 12 12" enable-background="new 0 0 12 12" xml:space="preserve">
<g>
	<path fill="#FFFFFF" d="M10.3,10H1.7c-0.4,0-0.7-0.3-0.7-0.7V5.6h1.4v3.1h7.4V5.6h1.4v3.7C11.1,9.7,10.7,10,10.3,10z"/>
	<g>
		<path fill="#FFFFFF" d="M8.9,1.5c-0.4,0.1-0.8,0.2-1,0.5c-0.8,1-1.5,2.1-2.1,3.3C5.6,5,5.4,4.6,5.2,4.2C5,3.8,3.5,4.5,3.7,4.9
			c0.5,0.8,0.9,1.7,1.2,2.6c0,0.1,0.2,0.2,0.3,0.1c0.2,0,0.4-0.1,0.5-0.1c0.2-0.1,0.4-0.2,0.5-0.3C6.3,7.2,6.4,7.1,6.5,7
			c0.7-1.8,1.7-3.6,2.9-5.1C9.6,1.5,9.1,1.5,8.9,1.5z"/>
	</g>
</g>
</svg>
