<?xml version="1.0" encoding="utf-8"?>
<!-- Generator: Adobe Illustrator 18.1.1, SVG Export Plug-In . SVG Version: 6.00 Build 0)  -->
<!DOCTYPE svg PUBLIC "-//W3C//DTD SVG 1.1//EN" "http://www.w3.org/Graphics/SVG/1.1/DTD/svg11.dtd">
<svg version="1.1" id="Laag_1" xmlns="http://www.w3.org/2000/svg" xmlns:xlink="http://www.w3.org/1999/xlink" x="0px" y="0px"
	 width="12px" height="12px" viewBox="0 0 12 12" enable-background="new 0 0 12 12" xml:space="preserve">
<path fill="#292929" stroke="#DB31B7" stroke-width="0.5" stroke-miterlimit="10" d="M9.7,10.8H2.3c-0.5,0-1-0.4-1-1V2.2
	c0-0.6,0.5-1,1-1h7.4c0.6,0,1,0.4,1,1v7.7C10.7,10.4,10.2,10.8,9.7,10.8z"/>
<g id="cCsG9e_2_">
	<g>
		<path fill="#DB31B7" d="M4.4,8.5c0-1.8,0-3.5,0-5.2c-0.3,0-0.6,0-0.9,0c0,1.7,0,3.5,0,5.2C3.8,8.5,4.1,8.5,4.4,8.5z"/>
		<path fill="#DB31B7" d="M7.5,4.5c0-0.4,0-0.9,0-1.3c0.3,0,0.6,0,0.9,0c0,0.1,0,0.2,0,0.3c0,1.2,0,2.5,0,3.7c0,0.3,0,0.6,0,0.9
			c0,0.1,0,0.2-0.1,0.2C7.7,8.6,6.6,8.7,6,8.3C5.8,8.1,5.6,7.9,5.5,7.7C5.1,6.9,5.1,6,5.7,5.2c0.4-0.5,0.9-0.7,1.5-0.7
			C7.3,4.5,7.4,4.5,7.5,4.5z M7.5,5.4c-0.3-0.1-0.7,0-0.9,0.2C6.1,6,6,6.9,6.4,7.4c0.2,0.3,0.7,0.5,1.1,0.3C7.5,6.9,7.5,6.2,7.5,5.4
			z"/>
	</g>
</g>
</svg>
