<svg id="Laag_1" data-name="Laag 1" xmlns="http://www.w3.org/2000/svg" viewBox="0 0 12 12"><defs><style>.cls-1{fill:#2f6a46;}.cls-2{fill:none;}</style></defs><title>Tekengebied 1</title><path class="cls-1" d="M6.8,0C4.378,0,3.522,3.767,2.724,6.8c-.288-.292-1.175-1.176-1.176-1.175a.343.343,0,0,0-.509,0,.362.362,0,0,0,0,.5l1.616,1.61a.356.356,0,0,0,.443.079.463.463,0,0,0,.2-.291C4.712,1.185,5.978.712,6.8.712A1.478,1.478,0,0,1,8.286,2.244a1.281,1.281,0,0,1,.847,2.185c.688.333.994.742.994,1.258A1.065,1.065,0,0,1,9.061,6.733c-.628,0-.947-.4-1.437-.4a.352.352,0,0,0-.356.355V7.964H6.343V6.689a.345.345,0,0,0-.332-.358l-.077,0L4.7,6.49a.368.368,0,0,0-.287.351.362.362,0,0,0,.38.357.209.209,0,0,0,.062,0l.784-.1V8.357a.362.362,0,0,0,.344.317H7.622a.364.364,0,0,0,.357-.359V7.162a2.318,2.318,0,0,0,1.068.291,1.786,1.786,0,0,0,1.8-1.786,1.805,1.805,0,0,0-.74-1.445A1.99,1.99,0,0,0,8.931,1.649,2.193,2.193,0,0,0,6.8,0Zm0,0"/><path class="cls-1" d="M6.8,0C4.378,0,3.522,3.767,2.724,6.8c-.288-.292-1.175-1.176-1.176-1.175a.343.343,0,0,0-.509,0,.362.362,0,0,0,0,.5l1.616,1.61a.356.356,0,0,0,.443.079.463.463,0,0,0,.2-.291C4.712,1.185,5.978.712,6.8.712A1.478,1.478,0,0,1,8.286,2.244a1.281,1.281,0,0,1,.847,2.185c.688.333.994.742.994,1.258A1.065,1.065,0,0,1,9.061,6.733c-.628,0-.947-.4-1.437-.4a.352.352,0,0,0-.356.355V7.964H6.343V6.689a.345.345,0,0,0-.332-.358l-.077,0L4.7,6.49a.368.368,0,0,0-.287.351.362.362,0,0,0,.38.357.209.209,0,0,0,.062,0l.784-.1V8.357a.362.362,0,0,0,.344.317H7.622a.364.364,0,0,0,.357-.359V7.162a2.318,2.318,0,0,0,1.068.291,1.786,1.786,0,0,0,1.8-1.786,1.805,1.805,0,0,0-.74-1.445A1.99,1.99,0,0,0,8.931,1.649,2.193,2.193,0,0,0,6.8,0Zm0,0"/><path class="cls-1" d="M5.768,10.084c0,.3.333.477.88.737.435.2.685.419.685.591,0,.28-.3.379-.583.379a.787.787,0,0,1-.837-.563L5.9,11.195H5.866c-.077,0-.138,0-.173.046a.161.161,0,0,0-.008.142l.1.4c.026.1.061.114.216.144a4.689,4.689,0,0,0,.72.073c.833,0,1.206-.338,1.206-.674,0-.244-.242-.479-.765-.738l-.238-.114c-.358-.17-.572-.272-.572-.451s.223-.3.544-.3a.52.52,0,0,1,.579.436l.01.038h.04c.093,0,.151-.007.185-.046a.1.1,0,0,0,.024-.085L7.7,9.724c-.009-.111-.094-.127-.211-.151a2.875,2.875,0,0,0-.562-.055c-.724,0-1.155.212-1.155.566Zm0,0"/><path class="cls-1" d="M8.168,10.786c0,.6.524,1.214,1.525,1.214a1.973,1.973,0,0,0,1-.228l.058-.031-.094-.1.005.005a.074.074,0,0,0-.073-.037l-.049.017a1.638,1.638,0,0,1-.728.143,1.033,1.033,0,0,1-1.076-1.081.993.993,0,0,1,1.121-.958c.372,0,.57.132.606.407l.005.045h.047c.043,0,.162,0,.162-.088V9.677c0-.1-.117-.116-.166-.122l-.049-.007a3.415,3.415,0,0,0-.535-.03c-1.02,0-1.76.533-1.76,1.268Zm0,0"/><path class="cls-1" d="M4.392,9.547l-.9.008-.6-.01-.091,0a.089.089,0,0,0-.091.094.092.092,0,0,0,.1.106c.364,0,.377.03.381.169l0,.088.006.371v.8c0,.132,0,.343-.013.513,0,.049-.005.1-.326.1-.09,0-.144.018-.144.106a.081.081,0,0,0,.087.095h.021c.038,0,.14-.006.642-.006.535,0,.643.005.679.006h.019c.07,0,.131-.008.131-.095s-.082-.106-.218-.106c-.323,0-.324-.047-.327-.094-.008-.156-.014-.368-.014-.515v-.288H4c.414,0,.461.011.52.33.016.069.071.078.118.078.1,0,.108-.053.108-.077L4.738,11.1a2.589,2.589,0,0,1-.014-.27v-.49c0-.074-.088-.074-.135-.074-.078,0-.1.05-.146.282-.022.088-.193.139-.468.139H3.73v-.72c0-.2.035-.2.078-.2.158-.007.542-.021.658-.021a.518.518,0,0,1,.275.068,3.272,3.272,0,0,1,.374.266c.062.05.1.079.147.079.029,0,.117,0,.117-.075a.272.272,0,0,0-.036-.1c-.033-.074-.09-.2-.161-.382-.02-.059-.088-.059-.215-.059Zm0,0"/><path class="cls-1" d="M10.41,1.373a.637.637,0,0,1-.463-.191A.634.634,0,0,1,9.755.719.632.632,0,0,1,9.947.258.641.641,0,0,1,10.41.066h0a.632.632,0,0,1,.46.191.629.629,0,0,1,.192.462.633.633,0,0,1-.191.461A.63.63,0,0,1,10.41,1.373Zm0-1.161a.492.492,0,0,0-.36.15A.484.484,0,0,0,9.9.719a.486.486,0,0,0,.149.359.489.489,0,0,0,.36.148.482.482,0,0,0,.358-.149.485.485,0,0,0,.148-.358.482.482,0,0,0-.149-.358A.485.485,0,0,0,10.41.212Z"/><path class="cls-1" d="M10.6.919c-.059-.1-.108-.147-.145-.156v0A.186.186,0,0,0,10.591.7a.174.174,0,0,0,.046-.117.159.159,0,0,0-.032-.1A.15.15,0,0,0,10.52.431a.626.626,0,0,0-.15-.014h-.216V1.04h.1V.775h.06A.143.143,0,0,1,10.4.8a1.127,1.127,0,0,1,.152.238h.123Zm-.225-.23h-.123V.5h.115A.223.223,0,0,1,10.5.526a.082.082,0,0,1,.031.069.083.083,0,0,1-.033.07A.207.207,0,0,1,10.379.689Z"/><path class="cls-2" d="M10.408,1.2a.465.465,0,0,0,.342-.142.469.469,0,0,0,.143-.343.464.464,0,0,0-.142-.342.472.472,0,0,0-.343-.142.466.466,0,0,0-.342.141.47.47,0,0,0-.142.343.466.466,0,0,0,.142.342.468.468,0,0,0,.342.143Zm.271-.164h-.123A1.125,1.125,0,0,0,10.4.8a.143.143,0,0,0-.089-.027h-.06V1.04h-.1V.416h.216a.618.618,0,0,1,.15.014A.149.149,0,0,1,10.6.489a.159.159,0,0,1,.032.1A.174.174,0,0,1,10.591.7a.186.186,0,0,1-.132.058v0c.037.009.086.061.145.157ZM10.255.689h.123A.207.207,0,0,0,10.5.664a.084.084,0,0,0,.033-.07A.082.082,0,0,0,10.5.526.222.222,0,0,0,10.371.5h-.115Zm0,0"/></svg>