<?xml version="1.0" encoding="utf-8"?>
<!-- Generator: Adobe Illustrator 18.1.1, SVG Export Plug-In . SVG Version: 6.00 Build 0)  -->
<!DOCTYPE svg PUBLIC "-//W3C//DTD SVG 1.1//EN" "http://www.w3.org/Graphics/SVG/1.1/DTD/svg11.dtd">
<svg version="1.1" id="Laag_1" xmlns="http://www.w3.org/2000/svg" xmlns:xlink="http://www.w3.org/1999/xlink" x="0px" y="0px"
	 width="12px" height="12px" viewBox="0 0 12 12" enable-background="new 0 0 12 12" xml:space="preserve">
<g>
	<g>
		<path fill="#DC4B39" d="M2,10.7c-0.4,0-0.8-0.3-0.8-0.8V2c0-0.4,0.3-0.8,0.8-0.8h8c0.4,0,0.8,0.3,0.8,0.8v8c0,0.4-0.3,0.8-0.8,0.8
			H2V10.7z"/>
		<path fill="#BA463A" d="M10,1.5c0.3,0,0.5,0.2,0.5,0.5v8c0,0.3-0.2,0.5-0.5,0.5H2c-0.3,0-0.5-0.2-0.5-0.5V2c0-0.3,0.2-0.5,0.5-0.5
			H10 M10,1H2C1.4,1,1,1.5,1,2v8c0,0.6,0.5,1,1,1h8c0.6,0,1-0.4,1-1V2C11,1.5,10.5,1,10,1L10,1z"/>
	</g>
	<g>
		<g>
			<path fill="#FFFFFF" d="M6.2,3.2H5.6C6,3.5,6.3,3.9,6.3,4.4c0,0.3-0.1,0.5-0.2,0.7C6,5.2,5.8,5.4,5.5,5.6C5.3,5.7,5.2,5.9,5.2,6
				s0.1,0.3,0.2,0.4l0.3,0.2C6.1,6.8,6.3,7,6.4,7.1c0.2,0.2,0.2,0.5,0.2,0.7C6.6,8.3,6.4,8.7,6,9C5.5,9.3,4.9,9.5,4.1,9.5
				C3.5,9.5,3,9.4,2.6,9.1C2.3,8.9,2.1,8.6,2.1,8.3c0-0.4,0.2-0.8,0.7-1.1c0.4-0.2,1-0.3,1.8-0.4C4.4,6.6,4.4,6.4,4.4,6.2
				c0-0.1,0-0.2,0.1-0.3c-0.1,0-0.2,0-0.3,0C3.7,5.9,3.3,5.7,3,5.4C2.7,5.2,2.6,4.9,2.6,4.5c0-0.5,0.2-0.9,0.6-1.2s1-0.5,1.7-0.5
				h1.9L6.2,3.2z M6,8.2C6,8,5.9,7.8,5.7,7.6C5.6,7.5,5.4,7.3,5,7C4.9,7,4.8,7,4.7,7C4.3,7,4,7,3.7,7.1c-0.5,0.2-0.8,0.5-0.8,1
				c0,0.3,0.2,0.6,0.5,0.8C3.7,9,4.1,9.1,4.6,9.1c0.4,0,0.8-0.1,1-0.3C5.9,8.7,6,8.5,6,8.2z M4.6,5.6c0.3,0,0.5-0.1,0.6-0.2
				C5.4,5.2,5.5,5,5.5,4.7c0-0.4-0.1-0.7-0.3-1C4.9,3.3,4.6,3.1,4.3,3.1C4,3.1,3.7,3.3,3.6,3.5C3.5,3.7,3.4,3.9,3.4,4.1
				c0,0.4,0.1,0.7,0.3,1S4.2,5.6,4.6,5.6z"/>
		</g>
		<polygon fill="#FFFFFF" points="9.9,4.1 8.7,4.1 8.7,2.9 8.1,2.9 8.1,4.1 6.9,4.1 6.9,4.6 8.1,4.6 8.1,5.7 8.7,5.7 8.7,4.6 
			9.9,4.6 		"/>
	</g>
</g>
</svg>
