<?xml version="1.0" encoding="utf-8"?>
<!-- Generator: Adobe Illustrator 18.1.1, SVG Export Plug-In . SVG Version: 6.00 Build 0)  -->
<!DOCTYPE svg PUBLIC "-//W3C//DTD SVG 1.1//EN" "http://www.w3.org/Graphics/SVG/1.1/DTD/svg11.dtd">
<svg version="1.1" id="Laag_1" xmlns="http://www.w3.org/2000/svg" xmlns:xlink="http://www.w3.org/1999/xlink" x="0px" y="0px"
	 width="12px" height="12px" viewBox="-393 495 12 12" enable-background="new -393 495 12 12" xml:space="preserve">
<g>
	<path fill="#FFFFFF" stroke="#D7D7D7" stroke-width="0.4" stroke-miterlimit="10" d="M-382.301,505.023h-9.413
		c-0.549,0-0.998-0.449-0.998-0.998v-5.608c0-0.549,0.449-0.998,0.998-0.998h9.413c0.549,0,0.998,0.449,0.998,0.998v5.608
		C-381.303,504.574-381.752,505.023-382.301,505.023z"/>
	<g>
		<rect x="-389.318" y="501.676" width="1.083" height="1.797"/>
		<circle cx="-388.767" cy="500.777" r="0.613"/>
		<g>
			<g>
				<path d="M-386.116,498.36h-3.885v5.891h3.885v-0.001c0.849-0.011,1.521-0.222,1.997-0.628c0.58-0.493,0.874-1.272,0.874-2.316
					c0-0.499-0.077-0.945-0.23-1.33c-0.146-0.366-0.362-0.679-0.641-0.927c-0.492-0.438-1.183-0.674-2.001-0.687
					C-386.116,498.362-386.116,498.36-386.116,498.36z M-386.19,498.752c0.753,0,1.38,0.204,1.815,0.59
					c0.49,0.436,0.739,1.097,0.739,1.964c0,1.719-0.836,2.555-2.554,2.555c-0.133,0-3.076,0-3.419,0c0-0.351,0-4.758,0-5.109
					C-389.266,498.752-386.324,498.752-386.19,498.752z"/>
			</g>
		</g>
		<g>
			<path fill="#CD0067" d="M-385.375,500.913c-0.018-0.048-0.069-0.188-0.1-0.27c-0.03,0.083-0.081,0.221-0.098,0.27
				C-385.525,500.913-385.424,500.913-385.375,500.913z"/>
			<path fill="#CD0067" d="M-387.496,501.136c0.029-0.007,0.053-0.019,0.071-0.036c0.019-0.017,0.034-0.046,0.046-0.087
				c0.013-0.043,0.019-0.103,0.019-0.179s-0.006-0.134-0.02-0.173c-0.012-0.036-0.028-0.066-0.05-0.087
				c-0.022-0.02-0.049-0.034-0.083-0.041c-0.018-0.005-0.062-0.01-0.163-0.01c0,0-0.036,0-0.063,0v0.62c0.038,0,0.124,0,0.124,0
				C-387.559,501.145-387.52,501.143-387.496,501.136z"/>
			<path fill="#CD0067" d="M-384.811,501.374v-1.069h0.262c0,0,0,0.788,0,0.84c0.043,0,0.379,0,0.483,0
				c-0.101-1.501-1.261-1.917-2.355-1.917h-1.318v1.068h0.14c0.088,0,0.154,0.006,0.202,0.02c0.064,0.019,0.12,0.054,0.167,0.102
				c0.046,0.048,0.08,0.107,0.104,0.176c0.023,0.067,0.036,0.152,0.036,0.251c0,0.087-0.011,0.163-0.034,0.227
				c-0.026,0.078-0.066,0.143-0.117,0.191c-0.039,0.037-0.091,0.067-0.157,0.088c-0.047,0.015-0.111,0.023-0.19,0.023h-0.151v2.102
				h1.318c1.141,0,2.355-0.344,2.363-2.101L-384.811,501.374L-384.811,501.374z M-386.081,501.374h-0.832v-1.078h0.813v0.229
				c0,0-0.5,0-0.551,0c0,0.037,0,0.134,0,0.17c0.05,0,0.512,0,0.512,0v0.229c0,0-0.462,0-0.512,0c0,0.04,0,0.18,0,0.221
				c0.051,0,0.57,0,0.57,0V501.374z M-385.198,501.374c0,0-0.078-0.201-0.089-0.232c-0.033,0-0.335,0-0.37,0
				c-0.011,0.032-0.085,0.232-0.085,0.232h-0.279l0.418-1.078h0.258l0.431,1.078H-385.198z"/>
		</g>
	</g>
</g>
</svg>
