<?xml version="1.0" encoding="utf-8"?>
<!-- Generator: Adobe Illustrator 18.1.1, SVG Export Plug-In . SVG Version: 6.00 Build 0)  -->
<!DOCTYPE svg PUBLIC "-//W3C//DTD SVG 1.1//EN" "http://www.w3.org/Graphics/SVG/1.1/DTD/svg11.dtd">
<svg version="1.1" id="Laag_1" xmlns="http://www.w3.org/2000/svg" xmlns:xlink="http://www.w3.org/1999/xlink" x="0px" y="0px"
	 width="12px" height="12px" viewBox="0 0 12 12" enable-background="new 0 0 12 12" xml:space="preserve">
<g>
	<g>
		<path fill="#326189" d="M2,10.7c-0.4,0-0.8-0.3-0.8-0.8V2c0-0.4,0.3-0.8,0.8-0.8h8c0.4,0,0.8,0.3,0.8,0.8v8c0,0.4-0.3,0.8-0.8,0.8
			H2V10.7z"/>
		<path fill="#2A5570" d="M10,1.5c0.3,0,0.5,0.2,0.5,0.5v8c0,0.3-0.2,0.5-0.5,0.5H2c-0.3,0-0.5-0.2-0.5-0.5V2c0-0.3,0.2-0.5,0.5-0.5
			H10 M10,1H2C1.5,1,1,1.5,1,2v8c0,0.6,0.5,1,1,1h8c0.6,0,1-0.4,1-1V2C11,1.5,10.6,1,10,1L10,1z"/>
	</g>
	<path fill="#FFFFFF" d="M8.6,5.6H8c0,0.2,0.1,0.3,0.1,0.5c0,1.1-0.9,2-2,2s-2-0.9-2-2C4,6,4,5.8,4.1,5.6H3.5v2.8
		c0,0.1,0.1,0.3,0.3,0.3h4.6c0.1,0,0.3-0.1,0.3-0.3L8.6,5.6L8.6,5.6z M8.6,3.8c0-0.1-0.1-0.3-0.3-0.3H7.6c-0.1,0-0.3,0.1-0.3,0.3
		v0.8c0,0.1,0.1,0.3,0.3,0.3h0.8c0.1,0,0.3-0.1,0.3-0.3L8.6,3.8L8.6,3.8z M6,4.9c-0.7,0-1.3,0.6-1.3,1.3S5.3,7.5,6,7.5
		s1.3-0.6,1.3-1.3C7.3,5.4,6.7,4.9,6,4.9 M8.6,9.4H3.5c-0.4,0-0.8-0.3-0.8-0.8v-5c0-0.4,0.3-0.8,0.8-0.8h5.1c0.4,0,0.8,0.3,0.8,0.8
		v5.1C9.4,9.1,9,9.4,8.6,9.4"/>
</g>
</svg>
