<?xml version="1.0" encoding="utf-8"?>
<!-- Generator: Adobe Illustrator 18.1.1, SVG Export Plug-In . SVG Version: 6.00 Build 0)  -->
<!DOCTYPE svg PUBLIC "-//W3C//DTD SVG 1.1//EN" "http://www.w3.org/Graphics/SVG/1.1/DTD/svg11.dtd">
<svg version="1.1" id="Laag_1" xmlns="http://www.w3.org/2000/svg" xmlns:xlink="http://www.w3.org/1999/xlink" x="0px" y="0px"
	 width="12px" height="12px" viewBox="0 0 12 12" enable-background="new 0 0 12 12" xml:space="preserve">
<g>
	<path fill="#585858" d="M8.948,11.394H2.94c-0.626,0-1.136-0.509-1.136-1.136V1.741c0-0.626,0.509-1.136,1.136-1.136h6.008
		c0.626,0,1.136,0.509,1.136,1.136v8.517C10.084,10.885,9.575,11.394,8.948,11.394z M2.94,1.363c-0.208,0-0.379,0.17-0.379,0.379
		v8.517c0,0.208,0.17,0.379,0.379,0.379h6.008c0.208,0,0.379-0.17,0.379-0.379V1.741c0-0.208-0.17-0.379-0.379-0.379H2.94z"/>
	<g>
		<rect x="3.884" y="2.945" fill="#585858" width="4.121" height="0.946"/>
		<rect x="3.884" y="5.678" fill="#585858" width="4.121" height="0.946"/>
		<rect x="3.884" y="8.109" fill="#585858" width="4.121" height="0.946"/>
	</g>
</g>
</svg>
