<?xml version="1.0" encoding="utf-8"?>
<!-- Generator: Adobe Illustrator 18.1.1, SVG Export Plug-In . SVG Version: 6.00 Build 0)  -->
<!DOCTYPE svg PUBLIC "-//W3C//DTD SVG 1.1//EN" "http://www.w3.org/Graphics/SVG/1.1/DTD/svg11.dtd">
<svg version="1.1" id="Laag_1" xmlns="http://www.w3.org/2000/svg" xmlns:xlink="http://www.w3.org/1999/xlink" x="0px" y="0px"
	 width="12px" height="12px" viewBox="0 0 12 12" enable-background="new 0 0 12 12" xml:space="preserve">
<path fill="#80CE00" d="M9.6,4.3c0-0.1-0.1-0.2-0.2-0.2H8.7V3.7c0-1.6-1.3-2.9-2.9-2.9S2.9,2.1,2.9,3.7v0.4H2.2C2.1,4.2,2,4.2,2,4.3
	v2.9c0,0,0,0,0,0c0,0,0,0.1,0,0.1c0,2.1,0,3.8,3.8,3.8c3.8,0,3.8-1.7,3.8-3.8c0,0,0-0.1,0-0.1c0,0,0,0,0,0V4.3z M3.9,3.7
	c0-1.1,0.9-1.9,1.9-1.9c1.1,0,1.9,0.9,1.9,1.9v0.4H3.9V3.7z M7.7,5.7c-0.9,1.1-1.5,2.3-2,3.6c0,0.1-0.1,0.1-0.1,0.2
	C5.5,9.5,5.4,9.6,5.2,9.6C5.1,9.7,5,9.7,4.9,9.7c-0.1,0-0.2,0-0.2-0.1C4.4,9,4.1,8.4,3.8,7.8C3.7,7.5,4.7,7,4.9,7.3
	C5,7.6,5.1,7.9,5.3,8.1c0.4-0.8,0.9-1.6,1.5-2.3c0.2-0.2,0.4-0.3,0.7-0.4C7.5,5.4,7.9,5.5,7.7,5.7z"/>
</svg>
