<?xml version="1.0" encoding="utf-8"?>
<!-- Generator: Adobe Illustrator 18.1.1, SVG Export Plug-In . SVG Version: 6.00 Build 0)  -->
<!DOCTYPE svg PUBLIC "-//W3C//DTD SVG 1.1//EN" "http://www.w3.org/Graphics/SVG/1.1/DTD/svg11.dtd">
<svg version="1.1" id="Laag_1" xmlns="http://www.w3.org/2000/svg" xmlns:xlink="http://www.w3.org/1999/xlink" x="0px" y="0px"
	 width="12px" height="12px" viewBox="0 0 12 12" enable-background="new 0 0 12 12" xml:space="preserve">
<path fill="#FFFFFF" d="M10.668,5.368C10.668,5.373,10.668,5.373,10.668,5.368c0-0.004,0-0.007-0.001-0.01l-0.009-0.077
	c-0.138-1.184-0.78-2.262-1.717-2.988C8.904,2.264,8.868,2.236,8.83,2.209c0.038,0.027,0.074,0.056,0.111,0.085
	C8.598,2.008,8.217,1.77,7.815,1.577C7.604,1.475,7.384,1.388,7.159,1.319c-0.112-0.034-0.225-0.064-0.34-0.09
	C6.81,1.227,6.8,1.226,6.791,1.224l0,0c0.003,0,0.004-0.001,0.006-0.001C6.04,1.06,5.248,1.106,4.516,1.356
	c-0.678,0.23-1.294,0.628-1.799,1.133C2.21,2.993,1.811,3.605,1.549,4.27C1.441,4.543,1.354,4.833,1.321,5.127
	C1.314,5.194,1.294,5.288,1.351,5.34C1.423,5.403,1.508,5.294,1.54,5.241c0.009-0.014,0.016-0.027,0.023-0.042
	c0.374-1.377,1.053-2.102,1.638-2.611c-0.012,0.017-0.024,0.033-0.037,0.05c0.018-0.016,0.035-0.031,0.052-0.046
	C2.875,3.047,2.563,3.527,2.312,4.038l0,0H2.307v0.009c-0.221,0.45-0.324,0.792-0.354,0.999C1.984,5.05,2.017,5.048,2.045,5.039
	V5.04C2.047,5.054,2.053,5.072,2.07,5.074C2.108,5.075,2.151,5.032,2.177,5.01C2.283,4.921,2.38,4.81,2.45,4.69
	c0.057-0.149,0.114-0.296,0.179-0.441C2.723,4.037,2.833,3.832,2.98,3.652c0.144-0.176,0.317-0.324,0.494-0.465
	c0.257-0.206,0.505-0.42,0.789-0.589C4.591,2.403,4.969,2.299,5.347,2.25c0.762-0.099,1.511,0.09,2.179,0.459
	c0.16,0.089,0.317,0.187,0.467,0.294h0.005C8.207,3.17,8.4,3.353,8.568,3.556c0.368,0.44,0.622,0.965,0.741,1.526
	c0.12,0.56,0.109,1.152-0.015,1.721C9.17,7.372,8.937,7.922,8.614,8.41c-0.323,0.487-0.738,0.916-1.22,1.234
	C7.28,9.721,7.16,9.789,7.039,9.852c-0.021,0.01-0.041,0.02-0.061,0.03c-0.569,0.219-1.188,0.332-1.794,0.213
	c-0.193-0.038-0.38-0.098-0.563-0.171C4.444,9.854,4.264,9.785,4.095,9.7c-0.117-0.06-0.24-0.125-0.347-0.206H3.747
	c0.016,0.01,0.033,0.021,0.05,0.032C3.762,9.49,3.727,9.453,3.695,9.414C3.147,8.76,2.832,7.44,3.298,6.715
	c0.154-0.24,0.6-0.416,1.261-0.775c0.008-0.01,0.019-0.02,0.032-0.028c0.284-0.17,0.313-0.269,0.284-0.43
	c-0.017-0.059-0.03-0.116-0.04-0.173C4.83,5.285,4.824,5.26,4.819,5.232l0.005,0.001C4.735,4.557,4.941,4.006,5.231,3.857
	C5.502,3.719,5.829,3.743,6.264,3.9C6.244,3.882,6.22,3.865,6.196,3.849c0.042,0.028,0.079,0.057,0.108,0.089
	C6.502,4.161,6.497,4.874,6.443,5.31c-0.03,0.246-0.1,0.36-0.1,0.36s0.53,0.14,0.677,0.234c0.221,0.142,0.472,0.303,0.918,0.442
	C7.93,6.519,7.874,6.997,7.841,7.258C7.843,7.234,7.847,7.209,7.85,7.182v0.004C7.684,7.232,7.518,7.282,7.351,7.324
	C7.231,7.353,7.112,7.381,6.99,7.402c-0.056,0.01-0.148,0.031-0.206,0.029C6.671,7.427,6.533,7.165,6.547,7
	c0.009-0.105,0.041-0.21,0.026-0.316C6.565,6.628,6.544,6.578,6.519,6.53c0,0,0,0.001,0,0.002C6.517,6.521,6.515,6.511,6.513,6.506
	c-0.011-0.029-0.047-0.122-0.06-0.139l-0.08-0.096c0,0,0.016,0.007-0.013-0.014c-0.199-0.139-0.474-0.23-0.675-0.181
	c-0.22,0.054-0.43,0.28-0.539,0.508C5.118,6.646,5.094,6.713,5.077,6.782C5.072,6.801,5.039,7.005,5.045,7.005
	c-0.06,0.002-0.121,0.006-0.181,0.011C4.665,7.031,4.218,7.04,4.045,7.236C3.96,7.332,3.92,7.489,3.922,7.616
	C3.924,7.674,3.945,7.711,3.975,7.76c0.049,0.079,0.057,0.15,0.054,0.241C4.026,8.078,4.037,8.146,4.084,8.21
	c0.043,0.057-0.003,0.106,0.038,0.164c0.001,0.001,0.001,0.001,0.002,0.003c-0.01-0.014-0.02-0.028-0.032-0.042
	C4.063,8.519,4.012,8.813,4.085,8.92C4.143,9.007,4.22,8.951,4.293,9.009C4.347,9.05,4.397,9.091,4.432,9.135
	c0.032,0.041,0.072,0.076,0.112,0.106c0.004,0.001,0.007,0.004,0.01,0.006C4.597,9.27,4.636,9.293,4.66,9.312l0.007,0.007
	c0.006,0.003,0.011,0.006,0.017,0.01c0.003,0.001,0.007,0.004,0.01,0.005C4.737,9.359,4.777,9.381,4.799,9.4l0.019,0.016
	l0.024,0.002c0.62,0.053,1.117-0.077,1.133-0.085l0.017-0.008L6.003,9.31c0.033-0.044,0.06-0.09,0.082-0.134
	C6.18,8.984,6.28,8.982,6.282,8.973l0.035-0.23c0,0-0.444,0.17-0.653,0.209c-0.21,0.039-0.451,0.137-0.589,0.052
	c-0.119-0.075-0.08-0.255-0.168-0.271C4.82,8.718,4.753,8.711,4.72,8.616C4.69,8.53,4.76,8.383,4.738,8.349
	C4.69,8.276,4.376,8.326,4.57,7.936c0.049-0.097-0.306-0.249-0.046-0.483c0.052-0.047,0.149-0.064,0.324-0.07
	c0.217-0.006,0.365,0.026,0.457,0.054L5.304,7.436c0.001,0.002,0.003,0.003,0.003,0.006C5.318,7.443,5.329,7.445,5.34,7.448
	C5.4,7.467,5.425,7.48,5.42,7.462c-0.082-0.29-0.003-0.664,0.169-0.907c0.086-0.121,0.227-0.136,0.345-0.051
	c0.028,0.021,0.071,0.055,0.078,0.093C5.996,6.693,5.988,6.792,5.99,6.89c0.007,0.244,0.05,0.381,0.152,0.562
	C6.24,7.624,6.308,7.846,6.3,8.046l0,0l0,0C6.477,8.03,6.653,8.005,6.829,7.982l0,0l1.258-0.235L8.036,8.046
	c0,0-1.095,0.528-1.092,0.56c0.111,0.105,0.259,0.03,0.327-0.001C7.386,8.552,7.531,8.5,7.643,8.442
	C7.922,8.298,8.079,8.21,8.347,8.046c0.147-0.09,0.25-0.159,0.305-0.284c0.03-0.067,0.048-0.141,0.05-0.215
	C8.711,7.321,8.748,7.095,8.775,6.87c0.028-0.24,0.053-0.498,0.008-0.738C8.756,5.987,8.68,5.843,8.556,5.76
	c-0.225-0.149-0.513-0.2-0.765-0.286C7.651,5.427,7.517,5.367,7.397,5.28c-0.06-0.043-0.128-0.107-0.143-0.182
	C7.243,5.043,7.236,4.988,7.23,4.932c-0.028-0.314-0.004-0.63-0.034-0.945C7.172,3.734,7.111,3.382,6.85,3.263L6.847,3.261
	c-0.026-0.03-0.055-0.059-0.089-0.082C6.602,3.046,6.014,2.952,5.531,2.991C5.487,2.996,5.44,3,5.392,3.003
	C5.343,3.007,5.298,3.011,5.254,3.015C5.083,3.034,4.887,3.077,4.693,3.171L4.692,3.174c-0.058,0.015-0.114,0.058-0.163,0.09
	c-0.146,0.096-0.273,0.22-0.377,0.36C4.046,3.768,3.984,3.947,3.942,4.12c-0.02,0.086-0.035,0.173-0.044,0.261
	c-0.002,0.018,0,0.036,0.003,0.054C3.95,4.588,3.943,4.578,3.896,4.418C3.884,4.594,3.937,4.769,3.987,4.935
	C4.012,5.017,4.039,5.1,4.06,5.182c0.008,0.03,0.02,0.036-0.012,0.05c-0.022,0.01-0.044,0.019-0.066,0.029
	C3.933,5.283,3.884,5.306,3.835,5.328C3.828,5.332,3.824,5.337,3.82,5.342s-0.006,0.01-0.007,0.015c0-0.004,0.002-0.007,0.002-0.011
	C3.406,5.534,2.999,5.731,2.627,5.987C2.537,6.05,2.445,6.115,2.362,6.189c-0.077,0.068-0.099,0.173-0.127,0.27
	c-0.07,0.234-0.117,0.477-0.14,0.722C2.058,7.076,1.963,6.935,1.833,6.985c-0.105,0.041-0.14,0.182-0.154,0.281
	C1.652,7.438,1.693,7.628,1.74,7.792C1.792,7.971,1.881,8.14,1.983,8.295C1.725,8.294,1.88,8.607,1.947,8.727
	c0.072,0.129,0.156,0.25,0.249,0.365c0.121,0.149,0.242,0.3,0.367,0.446c0.24,0.277,0.567,0.449,0.883,0.624
	c0.165,0.09,0.33,0.181,0.494,0.271c0.159,0.087,0.323,0.169,0.498,0.22c0.335,0.096,0.701,0.107,1.048,0.122
	c0.176,0.007,0.352,0.013,0.528,0.018c0.09,0.002,0.18,0.005,0.269,0.009c0.049,0.002,0.097,0.003,0.146,0.008
	c0.011,0.001,0.053,0.001,0.062,0.012c0.005,0.005-0.156,0.032-0.166,0.034c-0.079,0.01-0.159,0.018-0.239,0.025
	c-0.16,0.012-0.32,0.015-0.481,0.01c-0.319-0.01-1.135-0.145-1.445-0.222c-0.307-0.076,1.55,0.596,2.991,0.156
	c1.208-0.369,2.196-1.273,2.811-2.361C10.491,7.531,10.767,6.44,10.668,5.368z M4.15,8.422c-0.003-0.005-0.005-0.01-0.008-0.015
	C4.146,8.413,4.148,8.417,4.15,8.422z M4.161,8.458C4.16,8.449,4.157,8.441,4.155,8.432C4.157,8.441,4.16,8.449,4.161,8.458z
	 M9.833,6.371C9.958,5.303,9.658,4.21,8.921,3.414C8.933,3.418,8.947,3.43,8.962,3.429c0.015,0-0.026-0.055-0.027-0.057
	c0.288,0.296,0.574,0.571,0.707,0.957c-0.54-1.573-2.008-3.043-3.956-2.882c0,0,0.419-0.033,0.747-0.039
	C8.757,1.614,9.798,4.079,9.962,4.73c0.166,0.659,0.22,1.329,0.057,1.985C9.876,7.288,9.67,7.812,9.411,8.332L9.31,8.531
	L9.306,8.536c-0.032,0.08-0.281,0.436-0.444,0.656L8.904,9.13C8.886,9.155,8.869,9.179,8.851,9.204
	C8.856,9.2,8.859,9.196,8.861,9.192C8.854,9.201,8.847,9.212,8.84,9.221c0,0,0.002-0.004,0.007-0.011
	C8.746,9.33,8.71,9.366,8.798,9.266l0.338-0.485c0,0,0.119-0.197,0.173-0.294l0.082-0.155c0.554-1.086,0.663-2.136,0.484-3.077
	C9.879,5.283,9.884,5.311,9.887,5.34C9.99,6.089,9.865,6.861,9.58,7.558C9.386,8.031,9.118,8.474,8.787,8.863
	C8.623,9.055,8.444,9.235,8.249,9.398C8.07,9.549,7.874,9.67,7.663,9.77C7.647,9.778,7.628,9.788,7.604,9.799
	c0.02-0.009,0.039-0.02,0.059-0.029c0.064-0.033,0.051-0.034-0.118,0.056C8.812,9.154,9.668,7.782,9.833,6.371z M8.84,9.221
	c0,0,0.001,0,0.002-0.001C8.841,9.221,8.84,9.222,8.84,9.221z M8.842,9.22c0.001-0.001,0.003-0.002,0.004-0.004
	C8.844,9.218,8.843,9.219,8.842,9.22z M8.864,9.196C8.86,9.2,8.858,9.202,8.856,9.205C8.858,9.202,8.861,9.2,8.864,9.196z
	 M8.854,9.207C8.851,9.21,8.849,9.213,8.847,9.214C8.849,9.213,8.851,9.21,8.854,9.207z M9.092,8.903
	c0-0.001,0.002-0.003,0.004-0.005C9.095,8.898,9.094,8.9,9.094,8.9C9.094,8.902,9.093,8.902,9.092,8.903z M9.072,8.93
	C9.07,8.933,9.068,8.936,9.066,8.939C9.068,8.936,9.07,8.933,9.072,8.93z M9.05,8.961c-0.002,0.003-0.005,0.006-0.007,0.01
	C9.045,8.968,9.047,8.965,9.05,8.961z M9.026,8.993C9.024,8.996,9.021,9,9.018,9.003C9.021,9,9.024,8.996,9.026,8.993z M9.002,9.023
	C9,9.027,8.998,9.03,8.995,9.033C8.998,9.03,9,9.027,9.002,9.023z M8.979,9.053C8.976,9.057,8.974,9.06,8.972,9.063
	C8.974,9.06,8.976,9.057,8.979,9.053z M8.956,9.083C8.954,9.086,8.952,9.088,8.949,9.091C8.952,9.088,8.954,9.086,8.956,9.083z
	 M8.934,9.11C8.932,9.113,8.93,9.115,8.929,9.118C8.93,9.115,8.932,9.113,8.934,9.11z M8.909,9.141
	C8.906,9.145,8.903,9.148,8.9,9.152C8.903,9.148,8.906,9.145,8.909,9.141z M8.892,9.162C8.888,9.166,8.885,9.17,8.881,9.174
	C8.885,9.17,8.888,9.166,8.892,9.162z M8.877,9.18C8.873,9.184,8.87,9.187,8.867,9.191C8.87,9.187,8.873,9.184,8.877,9.18z
	 M6.542,1.224C6.519,1.226,6.496,1.227,6.474,1.228C6.496,1.227,6.519,1.225,6.542,1.224z M7.423,2.618
	c0.063,0.035,0.124,0.072,0.185,0.11C7.547,2.69,7.486,2.653,7.423,2.618z M7.19,2.493C7.261,2.528,7.331,2.566,7.4,2.605
	C7.331,2.566,7.261,2.528,7.19,2.493z M7.615,2.733c0.132,0.084,0.26,0.174,0.382,0.271C7.875,2.907,7.748,2.817,7.615,2.733z
	 M6.539,6.925c0-0.009,0-0.018,0-0.027C6.539,6.907,6.539,6.916,6.539,6.925z M6.52,7.186C6.522,7.18,6.524,7.171,6.525,7.162
	C6.524,7.171,6.522,7.18,6.52,7.186z M6.527,7.151C6.528,7.144,6.529,7.137,6.53,7.129C6.529,7.137,6.528,7.144,6.527,7.151z
	 M6.531,7.114c0.001-0.007,0.002-0.015,0.002-0.023C6.533,7.099,6.532,7.107,6.531,7.114z M6.535,7.073
	c0.001-0.008,0.001-0.017,0.001-0.026C6.535,7.056,6.535,7.065,6.535,7.073z M6.537,7.027C6.537,7.019,6.538,7.01,6.538,7
	C6.538,7.009,6.537,7.018,6.537,7.027z M6.538,6.977c0-0.008,0-0.018,0-0.027C6.538,6.959,6.538,6.968,6.538,6.977z M6.537,6.764
	c0-0.005-0.001-0.009-0.001-0.015C6.536,6.755,6.537,6.759,6.537,6.764z M6.539,6.872c0-0.009,0-0.017,0-0.026
	C6.538,6.855,6.539,6.863,6.539,6.872z M6.538,6.817c0-0.007,0-0.014,0-0.021C6.538,6.803,6.538,6.81,6.538,6.817z M4.148,4.827
	c0.009-0.25,0.052-0.5,0.137-0.735C4.327,3.981,4.377,3.869,4.444,3.77c0.015-0.023,0.031-0.047,0.052-0.066
	c0.016-0.015,0.05-0.011,0.07-0.01c0.062,0.002,0.125,0.011,0.185,0.028C4.335,4.306,4.256,5.019,4.396,5.711
	c-0.433,0.247-0.88,0.472-1.328,0.692c0.345-0.232,0.689-0.462,1.037-0.689c0.024-0.016,0.048-0.032,0.073-0.048
	c0.028-0.018,0.06-0.025,0.051-0.06c-0.022-0.094-0.04-0.19-0.054-0.286C4.153,5.156,4.142,4.992,4.148,4.827z M4.098,4.956
	C4.094,4.935,4.089,4.914,4.083,4.894C4.089,4.914,4.094,4.935,4.098,4.956z M3.071,9.569c-0.196-0.225-0.352-0.484-0.465-0.76
	C2.363,8.219,2.31,7.562,2.384,6.932C2.38,7.106,2.393,7.278,2.414,7.451c0-0.009,0.001-0.017,0-0.026
	C2.419,7.592,2.465,7.768,2.502,7.93c0.049,0.207,0.11,0.41,0.183,0.608c0.183,0.493,0.44,0.957,0.755,1.376
	C3.358,9.849,3.257,9.773,3.182,9.699C3.186,9.703,3.19,9.707,3.194,9.71C3.151,9.662,3.11,9.614,3.071,9.569z M3.205,9.713
	C3.204,9.712,3.204,9.712,3.205,9.713C3.204,9.712,3.204,9.712,3.205,9.713C3.204,9.713,3.204,9.713,3.205,9.713z"/>
</svg>
