<?xml version="1.0" encoding="utf-8"?>
<!-- Generator: Adobe Illustrator 18.1.1, SVG Export Plug-In . SVG Version: 6.00 Build 0)  -->
<!DOCTYPE svg PUBLIC "-//W3C//DTD SVG 1.1//EN" "http://www.w3.org/Graphics/SVG/1.1/DTD/svg11.dtd">
<svg version="1.1" id="Laag_1" xmlns="http://www.w3.org/2000/svg" xmlns:xlink="http://www.w3.org/1999/xlink" x="0px" y="0px"
	 width="12px" height="12px" viewBox="0 0 12 12" enable-background="new 0 0 12 12" xml:space="preserve">
<path fill="#FF7600" d="M11.29,5.007c-0.065-0.559-0.224-1.112-0.478-1.621c-0.117-0.236-0.255-0.461-0.408-0.674
	c-0.177-0.247-0.377-0.478-0.594-0.687C9.626,1.848,9.431,1.685,9.227,1.537c0.142,0.112,0.279,0.231,0.41,0.357
	c0.217,0.209,0.417,0.439,0.595,0.687c0.153,0.213,0.291,0.439,0.408,0.675c0.253,0.509,0.413,1.062,0.478,1.621
	c0.057,0.481,0.041,0.964-0.031,1.436c0.022-0.187,0.036-0.375,0.038-0.57c-0.096-2.528-1.987-4.597-4.436-4.967
	c-0.681,0.056-1.423,0.217-1.98,0.316C4.462,1.14,4.206,1.219,3.951,1.324c0.36-0.178,0.731-0.311,1.083-0.38
	c0.345-0.062,0.761-0.147,1.191-0.216C6.118,0.721,6.011,0.717,5.902,0.717c-2.887,0-5.228,2.341-5.228,5.229
	c0,2.887,2.341,5.228,5.228,5.228c0.748,0,1.459-0.158,2.103-0.441c0.259-0.155,0.534-0.321,0.614-0.38
	c0.261-0.172,0.431-0.298,0.568-0.416c-0.179,0.169-0.366,0.33-0.567,0.475c-0.644,0.464-1.405,0.786-2.192,0.891
	c-0.787,0.11-1.583-0.001-2.284-0.258c-0.129-0.046-0.267-0.098-0.412-0.159c-0.072-0.031-0.144-0.063-0.221-0.098
	c-0.086-0.041-0.156-0.078-0.232-0.121c-0.22-0.123-0.437-0.263-0.643-0.412c0.255,0.199,0.534,0.385,0.816,0.543
	c0.077,0.042,0.146,0.079,0.232,0.121c0.076,0.035,0.148,0.067,0.221,0.098c0.144,0.061,0.283,0.114,0.412,0.159
	c0.701,0.258,1.497,0.368,2.285,0.258c0.787-0.105,1.548-0.426,2.192-0.891c0.647-0.464,1.182-1.064,1.591-1.726
	c0.409-0.664,0.694-1.394,0.84-2.141C11.329,6.131,11.356,5.567,11.29,5.007z"/>
<path fill="#FFFFFF" d="M10.115,5.492C10.115,5.497,10.115,5.497,10.115,5.492c0-0.004,0-0.006-0.001-0.008l-0.008-0.068
	C9.984,4.373,9.418,3.422,8.592,2.782C8.56,2.757,8.529,2.732,8.495,2.708C8.529,2.732,8.56,2.757,8.593,2.782
	C8.29,2.53,7.955,2.321,7.6,2.151c-0.186-0.09-0.38-0.167-0.578-0.228c-0.099-0.03-0.198-0.057-0.299-0.079
	C6.714,1.842,6.706,1.841,6.697,1.84l0,0c0.002,0,0.004,0,0.005,0C6.035,1.695,5.337,1.736,4.692,1.956
	c-0.598,0.203-1.14,0.554-1.586,0.999c-0.447,0.445-0.799,0.984-1.029,1.57C1.981,4.766,1.904,5.021,1.876,5.28
	C1.87,5.339,1.852,5.422,1.902,5.467c0.063,0.056,0.138-0.04,0.167-0.087c0.008-0.012,0.015-0.024,0.021-0.037
	C2.419,4.13,3.018,3.49,3.533,3.042C3.522,3.057,3.511,3.071,3.5,3.086c0.016-0.014,0.031-0.028,0.046-0.041
	C3.245,3.446,2.97,3.87,2.749,4.32l0,0H2.745v0.008C2.55,4.725,2.459,5.027,2.433,5.209C2.46,5.213,2.489,5.21,2.514,5.203v0.001
	c0.002,0.012,0.007,0.028,0.021,0.029C2.569,5.234,2.607,5.197,2.63,5.177C2.724,5.099,2.809,5,2.87,4.895
	c0.05-0.131,0.1-0.261,0.157-0.388c0.083-0.187,0.181-0.368,0.31-0.526c0.127-0.155,0.279-0.285,0.435-0.41
	C4,3.388,4.218,3.2,4.469,3.051c0.289-0.172,0.623-0.264,0.955-0.307c0.672-0.087,1.332,0.079,1.921,0.405
	c0.141,0.078,0.279,0.165,0.411,0.259l0.004,0c0.184,0.147,0.354,0.308,0.503,0.487c0.325,0.388,0.548,0.851,0.653,1.345
	c0.106,0.494,0.096,1.015-0.013,1.517C8.795,7.26,8.589,7.744,8.304,8.175c-0.285,0.43-0.65,0.808-1.076,1.088
	C7.128,9.33,7.023,9.39,6.916,9.445C6.897,9.454,6.88,9.463,6.862,9.471C6.36,9.665,5.814,9.764,5.28,9.66
	c-0.17-0.033-0.335-0.087-0.496-0.15C4.628,9.447,4.47,9.387,4.321,9.312C4.217,9.259,4.109,9.202,4.015,9.13h0
	c0.014,0.009,0.029,0.019,0.044,0.029C4.027,9.126,3.997,9.094,3.968,9.06c-0.483-0.577-0.76-1.741-0.35-2.379
	C3.754,6.469,4.147,6.314,4.73,5.997C4.738,5.989,4.747,5.98,4.759,5.973c0.25-0.15,0.276-0.237,0.25-0.379
	C4.994,5.542,4.982,5.491,4.973,5.442C4.968,5.42,4.963,5.397,4.959,5.373l0.004,0.001c-0.078-0.596,0.104-1.082,0.36-1.213
	c0.238-0.122,0.527-0.101,0.91,0.038c-0.017-0.015-0.038-0.03-0.06-0.044c0.037,0.025,0.069,0.05,0.095,0.078
	c0.174,0.197,0.171,0.825,0.123,1.21C6.364,5.659,6.303,5.76,6.303,5.76S6.77,5.883,6.899,5.966
	c0.195,0.125,0.416,0.267,0.809,0.389C7.701,6.507,7.652,6.928,7.623,7.159c0.002-0.021,0.005-0.043,0.008-0.067v0.003
	c-0.146,0.04-0.292,0.085-0.44,0.121C7.086,7.243,6.98,7.267,6.873,7.286c-0.05,0.009-0.131,0.027-0.182,0.025
	C6.592,7.308,6.47,7.077,6.482,6.931C6.49,6.839,6.518,6.746,6.505,6.652C6.498,6.603,6.48,6.56,6.457,6.517c0,0,0,0.001,0,0.002
	C6.455,6.509,6.454,6.5,6.452,6.496C6.443,6.47,6.411,6.388,6.399,6.373l-0.07-0.084c0,0,0.015,0.006-0.011-0.012
	C6.142,6.154,5.9,6.074,5.723,6.117C5.529,6.165,5.344,6.364,5.248,6.565C5.223,6.62,5.201,6.678,5.186,6.739
	C5.182,6.756,5.153,6.936,5.158,6.936c-0.053,0.002-0.107,0.005-0.16,0.01c-0.175,0.014-0.57,0.021-0.722,0.194
	c-0.075,0.085-0.11,0.223-0.108,0.335c0.001,0.051,0.02,0.084,0.046,0.127c0.043,0.07,0.05,0.132,0.048,0.212
	C4.26,7.882,4.27,7.942,4.311,7.998c0.038,0.051-0.003,0.093,0.033,0.145c0.001,0.001,0.001,0.001,0.002,0.003
	C4.337,8.133,4.328,8.121,4.318,8.108C4.292,8.27,4.247,8.53,4.311,8.623c0.052,0.078,0.12,0.028,0.185,0.079
	c0.047,0.037,0.092,0.072,0.122,0.112C4.646,8.85,4.681,8.88,4.717,8.907C4.72,8.908,4.723,8.91,4.725,8.912
	c0.038,0.021,0.072,0.04,0.093,0.058l0.006,0.006C4.83,8.979,4.835,8.982,4.84,8.985c0.003,0.001,0.006,0.003,0.008,0.004
	C4.886,9.011,4.922,9.03,4.941,9.047l0.017,0.014L4.98,9.063C5.526,9.11,5.964,8.995,5.978,8.988l0.015-0.007l0.01-0.013
	C6.032,8.929,6.055,8.889,6.074,8.85c0.084-0.17,0.172-0.171,0.174-0.179l0.031-0.203c0,0-0.391,0.15-0.576,0.185
	C5.519,8.687,5.306,8.773,5.185,8.698C5.08,8.632,5.114,8.473,5.037,8.459C4.96,8.446,4.901,8.44,4.872,8.356
	C4.845,8.281,4.907,8.151,4.887,8.121C4.845,8.056,4.569,8.1,4.739,7.756c0.043-0.086-0.27-0.22-0.04-0.426
	C4.745,7.289,4.83,7.274,4.984,7.269c0.192-0.006,0.322,0.023,0.403,0.047c0,0,0,0-0.001,0c0.001,0.001,0.002,0.003,0.003,0.005
	c0.01,0.001,0.019,0.003,0.029,0.005c0.053,0.017,0.075,0.028,0.071,0.012c-0.072-0.256-0.003-0.585,0.149-0.8
	c0.076-0.107,0.2-0.12,0.304-0.045C5.966,6.512,6.003,6.542,6.01,6.575C5.997,6.661,5.989,6.748,5.991,6.835
	C5.998,7.05,6.035,7.17,6.125,7.33c0.086,0.152,0.146,0.347,0.139,0.524l0,0l0,0c0.156-0.015,0.311-0.036,0.466-0.056l0,0L7.84,7.59
	L7.795,7.854c0,0-0.965,0.465-0.962,0.494C6.931,8.44,7.061,8.374,7.121,8.346C7.222,8.3,7.35,8.254,7.449,8.203
	c0.246-0.127,0.384-0.205,0.62-0.349c0.13-0.079,0.22-0.14,0.269-0.25C8.365,7.544,8.38,7.479,8.383,7.414
	c0.007-0.199,0.04-0.399,0.064-0.597c0.025-0.211,0.047-0.439,0.007-0.651c-0.024-0.128-0.091-0.255-0.2-0.328
	C8.055,5.707,7.802,5.662,7.579,5.587C7.455,5.545,7.338,5.492,7.231,5.415c-0.052-0.038-0.112-0.094-0.125-0.16
	C7.096,5.207,7.09,5.158,7.085,5.109C7.06,4.832,7.08,4.553,7.054,4.276C7.034,4.052,6.979,3.742,6.749,3.637L6.746,3.635
	C6.723,3.609,6.698,3.584,6.668,3.563c-0.137-0.117-0.656-0.2-1.081-0.165c-0.039,0.004-0.081,0.007-0.123,0.01
	C5.421,3.412,5.381,3.415,5.343,3.419C5.192,3.435,5.019,3.473,4.848,3.556L4.847,3.559c-0.051,0.013-0.1,0.051-0.143,0.079
	C4.575,3.723,4.463,3.832,4.371,3.956C4.277,4.083,4.222,4.24,4.186,4.393c-0.018,0.075-0.031,0.152-0.039,0.23
	c-0.002,0.016,0,0.032,0.002,0.047c0.043,0.135,0.037,0.127-0.004-0.015c-0.011,0.155,0.036,0.309,0.08,0.456
	C4.247,5.184,4.271,5.256,4.29,5.329c0.007,0.026,0.018,0.032-0.01,0.044C4.26,5.382,4.241,5.39,4.222,5.399
	c-0.043,0.02-0.087,0.039-0.13,0.059C4.086,5.461,4.082,5.466,4.078,5.47C4.075,5.474,4.073,5.478,4.072,5.483
	c0-0.003,0.002-0.006,0.002-0.009c-0.36,0.166-0.719,0.339-1.047,0.565c-0.08,0.055-0.16,0.113-0.233,0.178
	c-0.068,0.06-0.087,0.153-0.112,0.238c-0.062,0.207-0.103,0.42-0.123,0.636C2.525,6.999,2.441,6.874,2.327,6.918
	c-0.093,0.036-0.123,0.16-0.136,0.248C2.167,7.317,2.203,7.485,2.244,7.63c0.046,0.158,0.125,0.306,0.215,0.443
	C2.231,8.072,2.368,8.348,2.427,8.454c0.064,0.114,0.137,0.221,0.22,0.321C2.753,8.907,2.86,9.04,2.97,9.168
	c0.212,0.244,0.5,0.396,0.778,0.55c0.146,0.08,0.291,0.159,0.436,0.238c0.14,0.077,0.285,0.149,0.439,0.194
	c0.296,0.085,0.618,0.095,0.924,0.108c0.155,0.006,0.31,0.012,0.465,0.016c0.079,0.002,0.158,0.005,0.237,0.008
	c0.043,0.002,0.086,0.003,0.128,0.007c0.01,0.001,0.047,0,0.055,0.011c0.004,0.005-0.137,0.028-0.146,0.03
	c-0.07,0.009-0.14,0.016-0.211,0.022c-0.141,0.01-0.282,0.013-0.424,0.009c-0.282-0.009-1.001-0.128-1.274-0.196
	c-0.271-0.067,1.366,0.525,2.637,0.137C8.08,9.978,8.951,9.181,9.493,8.223C9.959,7.399,10.202,6.438,10.115,5.492z M4.369,8.185
	C4.367,8.181,4.365,8.177,4.362,8.172C4.365,8.177,4.367,8.181,4.369,8.185z M4.378,8.217C4.378,8.209,4.375,8.201,4.373,8.194
	C4.375,8.201,4.378,8.209,4.378,8.217z M9.379,6.377c0.11-0.942-0.154-1.905-0.804-2.607c0.011,0.004,0.024,0.014,0.036,0.014
	c0.013,0-0.023-0.049-0.024-0.05C8.841,3.994,9.092,4.237,9.21,4.577C8.734,3.19,7.44,1.895,5.723,2.036
	c0,0,0.369-0.029,0.659-0.035C8.43,2.183,9.348,4.355,9.492,4.93c0.146,0.581,0.194,1.171,0.05,1.749
	C9.417,7.186,9.235,7.647,9.007,8.106L8.918,8.281L8.915,8.285C8.886,8.356,8.666,8.67,8.523,8.864L8.56,8.809
	C8.544,8.831,8.53,8.852,8.514,8.874c0.004-0.004,0.007-0.007,0.009-0.01C8.516,8.872,8.509,8.881,8.503,8.89
	c0,0,0.002-0.004,0.006-0.01C8.42,8.986,8.389,9.017,8.466,8.929l0.298-0.428c0,0,0.105-0.174,0.153-0.259l0.072-0.137
	c0.488-0.958,0.584-1.883,0.426-2.713c0.003,0.025,0.008,0.05,0.011,0.075c0.091,0.661-0.019,1.341-0.27,1.956
	C8.985,7.84,8.749,8.231,8.457,8.574c-0.145,0.17-0.303,0.328-0.474,0.472C7.824,9.179,7.652,9.285,7.466,9.373
	C7.452,9.38,7.435,9.389,7.414,9.399c0.018-0.008,0.035-0.017,0.052-0.026c0.057-0.029,0.045-0.03-0.104,0.049
	C8.479,8.83,9.233,7.621,9.379,6.377z M8.503,8.89c0,0,0.001,0,0.002-0.001C8.504,8.89,8.503,8.89,8.503,8.89z M8.505,8.888
	c0.001-0.001,0.002-0.002,0.004-0.004C8.507,8.887,8.506,8.887,8.505,8.888z M8.525,8.867C8.521,8.87,8.519,8.873,8.517,8.875
	C8.519,8.873,8.522,8.87,8.525,8.867z M8.516,8.877C8.513,8.879,8.511,8.882,8.509,8.883C8.511,8.882,8.513,8.879,8.516,8.877z
	 M8.726,8.609c0-0.001,0.001-0.002,0.003-0.004c-0.001,0-0.001,0.001-0.001,0.001C8.727,8.608,8.726,8.608,8.726,8.609z
	 M8.708,8.633C8.707,8.636,8.704,8.638,8.703,8.641C8.704,8.638,8.707,8.636,8.708,8.633z M8.688,8.66
	C8.686,8.663,8.684,8.666,8.682,8.669C8.684,8.666,8.686,8.663,8.688,8.66z M8.667,8.688C8.666,8.691,8.663,8.695,8.661,8.697
	C8.663,8.695,8.666,8.691,8.667,8.688z M8.647,8.715C8.644,8.719,8.643,8.721,8.64,8.723C8.643,8.721,8.644,8.719,8.647,8.715z
	 M8.626,8.741C8.624,8.745,8.622,8.747,8.62,8.75C8.622,8.747,8.624,8.745,8.626,8.741z M8.606,8.768
	C8.604,8.77,8.602,8.772,8.6,8.775C8.602,8.772,8.604,8.77,8.606,8.768z M8.586,8.792C8.585,8.794,8.583,8.796,8.582,8.798
	C8.583,8.796,8.585,8.794,8.586,8.792z M8.565,8.819c-0.003,0.004-0.006,0.006-0.008,0.01C8.559,8.825,8.562,8.822,8.565,8.819z
	 M8.549,8.837C8.546,8.841,8.544,8.845,8.54,8.848C8.544,8.845,8.546,8.841,8.549,8.837z M8.536,8.853
	C8.533,8.857,8.53,8.86,8.528,8.863C8.53,8.86,8.533,8.857,8.536,8.853z M6.478,1.839c-0.021,0.002-0.041,0.003-0.06,0.003
	C6.437,1.842,6.457,1.841,6.478,1.839z M7.255,3.069C7.31,3.1,7.364,3.132,7.417,3.165C7.364,3.132,7.31,3.1,7.255,3.069z
	 M7.049,2.958c0.063,0.031,0.124,0.064,0.185,0.098C7.173,3.022,7.112,2.989,7.049,2.958z M7.424,3.17
	c0.117,0.074,0.229,0.153,0.336,0.239C7.653,3.323,7.541,3.244,7.424,3.17z M6.475,6.866c0-0.008,0-0.016,0-0.024
	C6.475,6.849,6.475,6.858,6.475,6.866z M6.459,7.095C6.46,7.09,6.462,7.082,6.463,7.074C6.462,7.082,6.46,7.09,6.459,7.095z
	 M6.465,7.064c0-0.006,0.002-0.012,0.002-0.019C6.467,7.052,6.465,7.059,6.465,7.064z M6.468,7.032
	C6.469,7.026,6.47,7.019,6.47,7.012C6.47,7.019,6.469,7.026,6.468,7.032z M6.471,6.996c0.001-0.007,0.001-0.015,0.001-0.023
	C6.472,6.981,6.472,6.988,6.471,6.996z M6.473,6.955c0-0.007,0-0.015,0-0.024C6.474,6.94,6.473,6.948,6.473,6.955z M6.474,6.911
	c0-0.007,0-0.016,0-0.024C6.474,6.895,6.474,6.903,6.474,6.911z M6.473,6.724c0-0.004-0.001-0.008-0.001-0.013
	C6.472,6.715,6.473,6.719,6.473,6.724z M6.475,6.818c0-0.007,0-0.015,0-0.022C6.474,6.803,6.475,6.811,6.475,6.818z M6.474,6.77
	c0-0.007,0-0.013,0-0.019C6.474,6.758,6.474,6.764,6.474,6.77z M4.367,5.016c0.008-0.22,0.046-0.44,0.121-0.648
	c0.036-0.098,0.081-0.196,0.14-0.284c0.013-0.02,0.028-0.042,0.046-0.058c0.014-0.013,0.044-0.01,0.062-0.009
	c0.054,0.001,0.11,0.009,0.163,0.025C4.532,4.557,4.462,5.185,4.586,5.795C4.204,6.013,3.81,6.211,3.415,6.405
	c0.304-0.204,0.607-0.407,0.914-0.607C4.35,5.784,4.371,5.77,4.393,5.756C4.418,5.74,4.446,5.734,4.438,5.703
	C4.419,5.619,4.403,5.535,4.391,5.45C4.371,5.306,4.362,5.161,4.367,5.016z M4.323,5.13C4.32,5.111,4.316,5.093,4.31,5.075
	C4.316,5.093,4.32,5.111,4.323,5.13z M3.418,9.196c-0.173-0.199-0.31-0.427-0.41-0.67c-0.214-0.52-0.261-1.099-0.195-1.655
	C2.809,7.024,2.821,7.177,2.839,7.329c0-0.008,0.001-0.015,0-0.022c0.004,0.147,0.045,0.302,0.078,0.445
	C2.96,7.933,3.013,8.112,3.078,8.287C3.239,8.722,3.465,9.131,3.744,9.5C3.671,9.443,3.582,9.376,3.516,9.311
	c0.003,0.003,0.007,0.007,0.01,0.01C3.488,9.278,3.452,9.236,3.418,9.196z M3.536,9.323C3.535,9.322,3.535,9.322,3.536,9.323
	C3.535,9.322,3.535,9.322,3.536,9.323C3.535,9.323,3.535,9.323,3.536,9.323z"/>
</svg>
