<?xml version="1.0" encoding="utf-8"?>
<!-- Generator: Adobe Illustrator 18.1.1, SVG Export Plug-In . SVG Version: 6.00 Build 0)  -->
<!DOCTYPE svg PUBLIC "-//W3C//DTD SVG 1.1//EN" "http://www.w3.org/Graphics/SVG/1.1/DTD/svg11.dtd">
<svg version="1.1" id="Laag_1" xmlns="http://www.w3.org/2000/svg" xmlns:xlink="http://www.w3.org/1999/xlink" x="0px" y="0px"
	 width="12px" height="12px" viewBox="-393 495 12 12" enable-background="new -393 495 12 12" xml:space="preserve">
<g>
	<path fill="#FFFFFF" stroke="#D7D7D7" stroke-width="0.4" stroke-miterlimit="10" d="M-382.301,505.023h-9.413
		c-0.549,0-0.998-0.449-0.998-0.998v-5.608c0-0.549,0.449-0.998,0.998-0.998h9.413c0.549,0,0.998,0.449,0.998,0.998v5.608
		C-381.303,504.574-381.752,505.023-382.301,505.023z"/>
	<g>
		<path fill="#E20613" d="M-391.903,501.278c0-1.622,1.314-2.936,2.936-2.936s2.936,1.314,2.936,2.936
			c0,1.621-1.314,2.936-2.936,2.936S-391.903,502.899-391.903,501.278L-391.903,501.278z"/>
		<path fill="#FCC200" d="M-387.92,501.278c0-1.622,1.314-2.936,2.936-2.936s2.935,1.314,2.935,2.936
			c0,1.621-1.314,2.936-2.935,2.936C-386.606,504.214-387.92,502.899-387.92,501.278L-387.92,501.278z"/>
		<path fill="#E20613" d="M-386.472,499.731h-1.615v-0.311h1.392C-386.614,499.519-386.54,499.623-386.472,499.731L-386.472,499.731
			z"/>
		<path fill="#E20613" d="M-386.18,500.354h-1.908v-0.312h1.783C-386.257,500.144-386.215,500.248-386.18,500.354L-386.18,500.354z"
			/>
		<path fill="#E20613" d="M-386.047,500.979h-2.039v-0.311h1.991C-386.075,500.768-386.058,500.873-386.047,500.979
			L-386.047,500.979z"/>
		<path fill="#E20613" d="M-386.05,501.601h-2.036v-0.311h2.055C-386.033,501.395-386.039,501.499-386.05,501.601L-386.05,501.601z"
			/>
		<path fill="#E20613" d="M-386.188,502.225h-1.899v-0.311h1.986C-386.124,502.019-386.153,502.123-386.188,502.225
			L-386.188,502.225z"/>
		<path fill="#E20613" d="M-386.487,502.848h-1.599v-0.313h1.772C-386.366,502.644-386.424,502.748-386.487,502.848
			L-386.487,502.848z"/>
		<path fill="#E20613" d="M-387.017,503.472h-1.07v-0.312h1.372C-386.808,503.271-386.908,503.375-387.017,503.472L-387.017,503.472
			z"/>
		<polygon fill="#312782" points="-390.298,500.851 -390.302,500.851 -390.799,502.074 -390.99,502.074 -391.213,500.851 
			-391.217,500.851 -391.344,502.074 -391.589,502.074 -391.435,500.606 -391.033,500.606 -390.846,501.702 -390.841,501.702 
			-390.417,500.606 -390.028,500.606 -390.182,502.074 -390.427,502.074 		"/>
		<path fill="#312782" d="M-389.402,501.605c-0.02,0.194-0.089,0.309-0.244,0.309c-0.101,0-0.159-0.068-0.149-0.166
			c0.017-0.158,0.154-0.204,0.377-0.204h0.023L-389.402,501.605L-389.402,501.605L-389.402,501.605z M-389.864,501.265
			c0.054-0.042,0.176-0.105,0.307-0.105c0.148,0,0.191,0.098,0.18,0.205l-0.004,0.04h-0.052c-0.331,0-0.578,0.074-0.609,0.368
			c-0.021,0.202,0.122,0.317,0.291,0.317c0.156,0,0.245-0.076,0.32-0.164h0.004c-0.005,0.052-0.01,0.105-0.001,0.146h0.236
			c-0.002-0.042-0.003-0.113,0.006-0.191l0.049-0.473c0.028-0.27-0.032-0.434-0.368-0.434c-0.167,0-0.274,0.046-0.351,0.079
			L-389.864,501.265L-389.864,501.265z"/>
		<path fill="#312782" d="M-389.073,501.822c0.041,0.016,0.142,0.071,0.264,0.071c0.095,0,0.171-0.023,0.179-0.107
			c0.004-0.042-0.013-0.082-0.102-0.137l-0.1-0.063c-0.103-0.066-0.215-0.135-0.198-0.305c0.016-0.149,0.177-0.307,0.406-0.307
			c0.139,0,0.242,0.036,0.267,0.044l-0.036,0.203c-0.063-0.025-0.129-0.048-0.224-0.048c-0.106,0-0.154,0.04-0.161,0.106
			c-0.006,0.059,0.038,0.09,0.109,0.139l0.119,0.081c0.126,0.087,0.186,0.147,0.173,0.274c-0.02,0.199-0.203,0.319-0.437,0.319
			c-0.135,0-0.242-0.031-0.296-0.052L-389.073,501.822L-389.073,501.822z"/>
		<path fill="#312782" d="M-388.087,500.768l0.268-0.079l-0.031,0.302h0.217l-0.02,0.191h-0.217l-0.059,0.561
			c-0.012,0.115,0.026,0.149,0.103,0.149c0.046,0,0.08-0.014,0.101-0.023l-0.019,0.185c-0.043,0.019-0.101,0.036-0.178,0.036
			c-0.193,0-0.293-0.088-0.269-0.315l0.062-0.593h-0.173l0.02-0.191h0.172L-388.087,500.768L-388.087,500.768z"/>
		<path fill="#312782" d="M-387.397,501.439c0.016-0.142,0.087-0.288,0.224-0.288c0.118,0,0.171,0.097,0.151,0.288H-387.397
			L-387.397,501.439L-387.397,501.439z M-386.876,501.815c-0.052,0.036-0.134,0.084-0.294,0.084c-0.202,0-0.264-0.111-0.244-0.297
			h0.626l0.006-0.05c0.047-0.441-0.139-0.578-0.372-0.578c-0.275,0-0.472,0.25-0.505,0.574c-0.031,0.292,0.094,0.543,0.443,0.543
			c0.156,0,0.274-0.047,0.331-0.07L-386.876,501.815L-386.876,501.815z"/>
		<path fill="#312782" d="M-386.637,501.17c0.007-0.067,0.012-0.131,0.011-0.178h0.236c-0.005,0.065-0.006,0.133-0.012,0.198h0.004
			c0.04-0.084,0.136-0.214,0.298-0.214c0.017,0,0.029,0.004,0.044,0.006l-0.026,0.244c-0.022-0.007-0.045-0.011-0.073-0.011
			c-0.107,0-0.232,0.065-0.253,0.267l-0.062,0.592h-0.261L-386.637,501.17L-386.637,501.17z"/>
		<path fill="#312782" d="M-385.131,502.042c-0.057,0.029-0.19,0.052-0.323,0.052c-0.445,0-0.64-0.326-0.595-0.754
			c0.045-0.428,0.308-0.755,0.745-0.755c0.149,0,0.267,0.04,0.32,0.061l-0.041,0.242c-0.052-0.028-0.133-0.08-0.269-0.08
			c-0.223,0-0.429,0.151-0.47,0.531c-0.04,0.38,0.136,0.531,0.358,0.531c0.131,0,0.22-0.032,0.285-0.076L-385.131,502.042
			L-385.131,502.042z"/>
		<path fill="#312782" d="M-384.427,501.605c-0.02,0.194-0.089,0.309-0.245,0.309c-0.101,0-0.159-0.068-0.149-0.166
			c0.017-0.158,0.154-0.204,0.377-0.204h0.023L-384.427,501.605L-384.427,501.605L-384.427,501.605z M-384.889,501.265
			c0.055-0.043,0.177-0.105,0.307-0.105c0.149,0,0.191,0.098,0.18,0.205l-0.004,0.04h-0.052c-0.331,0-0.578,0.074-0.609,0.368
			c-0.02,0.201,0.122,0.316,0.291,0.316c0.156,0,0.245-0.076,0.32-0.164h0.004c-0.005,0.053-0.009,0.106-0.001,0.147h0.236
			c-0.002-0.042-0.003-0.113,0.006-0.191l0.049-0.473c0.029-0.27-0.032-0.434-0.368-0.434c-0.167,0-0.274,0.046-0.351,0.079
			L-384.889,501.265L-384.889,501.265z"/>
		<path fill="#312782" d="M-383.992,501.17c0.007-0.067,0.011-0.131,0.01-0.178h0.236c-0.005,0.065-0.006,0.133-0.013,0.198h0.004
			c0.041-0.084,0.137-0.214,0.299-0.214c0.016,0,0.029,0.004,0.044,0.006l-0.026,0.244c-0.022-0.007-0.045-0.011-0.072-0.011
			c-0.108,0-0.233,0.065-0.253,0.267l-0.063,0.592h-0.261L-383.992,501.17L-383.992,501.17z"/>
		<path fill="#312782" d="M-383.193,501.523c0.022-0.217,0.087-0.358,0.233-0.358c0.143,0,0.186,0.153,0.164,0.363
			c-0.021,0.204-0.091,0.37-0.244,0.37C-383.193,501.899-383.219,501.773-383.193,501.523L-383.193,501.523L-383.193,501.523z
			 M-382.688,500.498l-0.069,0.649h-0.004c-0.029-0.084-0.106-0.173-0.262-0.173c-0.233,0-0.396,0.206-0.432,0.559
			c-0.032,0.3,0.052,0.557,0.321,0.557c0.169,0,0.256-0.092,0.308-0.184h0.007c-0.009,0.074-0.011,0.136-0.011,0.168h0.244
			c-0.002-0.04,0.003-0.107,0.012-0.184l0.146-1.392L-382.688,500.498L-382.688,500.498L-382.688,500.498z"/>
		<polygon fill="#FFFFFF" points="-390.246,500.798 -390.25,500.798 -390.746,502.022 -390.937,502.022 -391.16,500.798 
			-391.164,500.798 -391.293,502.022 -391.536,502.022 -391.383,500.554 -390.981,500.554 -390.793,501.649 -390.789,501.649 
			-390.366,500.554 -389.977,500.554 -390.131,502.022 -390.374,502.022 		"/>
		<path fill="#FFFFFF" d="M-389.35,501.552c-0.02,0.194-0.089,0.309-0.245,0.309c-0.101,0-0.159-0.068-0.148-0.166
			c0.016-0.158,0.154-0.205,0.377-0.205h0.023L-389.35,501.552L-389.35,501.552L-389.35,501.552z M-389.812,501.212
			c0.055-0.042,0.177-0.105,0.307-0.105c0.149,0,0.192,0.099,0.18,0.205l-0.004,0.04h-0.052c-0.331,0-0.578,0.074-0.609,0.368
			c-0.021,0.202,0.122,0.318,0.29,0.318c0.156,0,0.245-0.076,0.32-0.164h0.004c-0.005,0.052-0.008,0.105,0,0.146h0.236
			c-0.002-0.042-0.003-0.113,0.005-0.191l0.05-0.473c0.028-0.27-0.032-0.435-0.368-0.435c-0.166,0-0.274,0.046-0.351,0.08
			L-389.812,501.212L-389.812,501.212z"/>
		<path fill="#FFFFFF" d="M-389.021,501.77c0.04,0.016,0.142,0.072,0.264,0.072c0.094,0,0.171-0.023,0.179-0.108
			c0.004-0.042-0.013-0.081-0.101-0.137l-0.101-0.063c-0.103-0.065-0.215-0.135-0.198-0.304c0.016-0.149,0.177-0.307,0.406-0.307
			c0.14,0,0.242,0.036,0.267,0.045l-0.035,0.201c-0.062-0.025-0.129-0.048-0.224-0.048c-0.106,0-0.154,0.04-0.16,0.106
			c-0.007,0.059,0.037,0.09,0.107,0.139l0.119,0.082c0.126,0.085,0.186,0.147,0.173,0.273c-0.021,0.201-0.202,0.32-0.437,0.32
			c-0.135,0-0.242-0.032-0.295-0.052L-389.021,501.77L-389.021,501.77z"/>
		<path fill="#FFFFFF" d="M-388.034,500.717l0.269-0.08l-0.032,0.302h0.216l-0.02,0.191h-0.216l-0.059,0.562
			c-0.012,0.115,0.026,0.149,0.102,0.149c0.046,0,0.081-0.013,0.101-0.023l-0.019,0.185c-0.042,0.019-0.101,0.036-0.178,0.036
			c-0.193,0-0.293-0.088-0.269-0.315l0.062-0.592h-0.172l0.02-0.192h0.173L-388.034,500.717L-388.034,500.717z"/>
		<path fill="#FFFFFF" d="M-387.344,501.387c0.015-0.142,0.087-0.288,0.224-0.288c0.117,0,0.171,0.097,0.15,0.288H-387.344
			L-387.344,501.387L-387.344,501.387z M-386.825,501.763c-0.052,0.036-0.132,0.084-0.293,0.084c-0.202,0-0.264-0.111-0.244-0.297
			h0.626l0.005-0.049c0.047-0.442-0.139-0.579-0.372-0.579c-0.275,0-0.472,0.25-0.506,0.574c-0.029,0.293,0.095,0.543,0.445,0.543
			c0.155,0,0.273-0.047,0.331-0.07L-386.825,501.763L-386.825,501.763z"/>
		<path fill="#FFFFFF" d="M-386.584,501.118c0.007-0.068,0.012-0.131,0.01-0.178h0.236c-0.005,0.065-0.005,0.132-0.012,0.197h0.004
			c0.041-0.083,0.136-0.214,0.298-0.214c0.016,0,0.029,0.004,0.044,0.006l-0.025,0.244c-0.022-0.006-0.046-0.01-0.073-0.01
			c-0.108,0-0.232,0.065-0.253,0.268l-0.062,0.592h-0.261L-386.584,501.118L-386.584,501.118z"/>
		<path fill="#FFFFFF" d="M-385.078,501.99c-0.058,0.029-0.191,0.052-0.323,0.052c-0.446,0-0.641-0.326-0.596-0.754
			c0.045-0.428,0.308-0.754,0.745-0.754c0.149,0,0.267,0.04,0.319,0.061l-0.04,0.242c-0.051-0.028-0.132-0.08-0.268-0.08
			c-0.223,0-0.429,0.151-0.47,0.532c-0.04,0.38,0.136,0.532,0.359,0.532c0.13,0,0.22-0.032,0.285-0.076L-385.078,501.99
			L-385.078,501.99z"/>
		<path fill="#FFFFFF" d="M-384.375,501.552c-0.02,0.194-0.089,0.309-0.245,0.309c-0.101,0-0.159-0.068-0.148-0.166
			c0.016-0.158,0.153-0.205,0.377-0.205h0.023L-384.375,501.552L-384.375,501.552L-384.375,501.552z M-384.837,501.212
			c0.055-0.042,0.177-0.105,0.307-0.105c0.149,0,0.191,0.099,0.179,0.205l-0.003,0.04h-0.053c-0.331,0-0.577,0.074-0.608,0.368
			c-0.021,0.202,0.122,0.318,0.291,0.318c0.155,0,0.245-0.076,0.32-0.164h0.004c-0.005,0.052-0.009,0.105,0,0.147h0.235
			c-0.001-0.043-0.003-0.114,0.005-0.192l0.05-0.473c0.028-0.271-0.032-0.435-0.368-0.435c-0.166,0-0.273,0.046-0.351,0.08
			L-384.837,501.212L-384.837,501.212z"/>
		<path fill="#FFFFFF" d="M-383.94,501.118c0.007-0.068,0.012-0.131,0.011-0.178h0.235c-0.004,0.065-0.005,0.132-0.012,0.197h0.004
			c0.04-0.083,0.136-0.214,0.298-0.214c0.017,0,0.029,0.004,0.044,0.006l-0.025,0.244c-0.022-0.006-0.046-0.01-0.073-0.01
			c-0.108,0-0.232,0.065-0.253,0.268l-0.063,0.592h-0.261L-383.94,501.118L-383.94,501.118z"/>
		<path fill="#FFFFFF" d="M-383.141,501.471c0.022-0.217,0.088-0.358,0.233-0.358c0.142,0,0.185,0.154,0.164,0.363
			c-0.021,0.204-0.091,0.37-0.244,0.37C-383.141,501.847-383.168,501.721-383.141,501.471L-383.141,501.471L-383.141,501.471z
			 M-382.636,500.446l-0.068,0.649h-0.004c-0.029-0.084-0.106-0.173-0.261-0.173c-0.234,0-0.395,0.205-0.433,0.559
			c-0.031,0.3,0.053,0.556,0.322,0.556c0.168,0,0.256-0.092,0.308-0.185h0.006c-0.007,0.074-0.01,0.137-0.009,0.169h0.243
			c-0.001-0.04,0.003-0.108,0.011-0.185l0.146-1.392L-382.636,500.446L-382.636,500.446z"/>
	</g>
</g>
</svg>
