<?xml version="1.0" encoding="utf-8"?>
<!-- Generator: Adobe Illustrator 18.1.1, SVG Export Plug-In . SVG Version: 6.00 Build 0)  -->
<!DOCTYPE svg PUBLIC "-//W3C//DTD SVG 1.1//EN" "http://www.w3.org/Graphics/SVG/1.1/DTD/svg11.dtd">
<svg version="1.1" id="Laag_1" xmlns="http://www.w3.org/2000/svg" xmlns:xlink="http://www.w3.org/1999/xlink" x="0px" y="0px"
	 width="12px" height="12px" viewBox="0 0 12 12" enable-background="new 0 0 12 12" xml:space="preserve">
<g>
	<path fill="#00AAEE" d="M8.1,5.1L7.5,5.3c0.5,0.1,0.9,0.6,1,1.3c0.2,0.9-0.1,1.7-0.7,1.8l0,0L5.2,9.3l0,0c0.4-0.3,0.6-1,0.4-1.7
		C5.5,6.8,5.1,6.3,4.6,6.2L4.4,6.3c0,0-0.1,0-0.1,0c0,0-0.1,0-0.1,0c-0.4,0-0.8-0.4-0.9-0.9C3.2,4.8,3.4,4.3,3.8,4.2L7.4,3
		C7,2.8,6.5,2.7,6,2.7c-1.9,0-3.4,1.5-3.4,3.4c0,0.8,0.3,1.6,0.8,2.2c0-0.1,0-0.1,0-0.2C3.2,7.5,3.4,7,3.8,6.9l0.8-0.2
		c0.1,0.1,0.2,0.2,0.3,0.3L3.9,7.2C3.7,7.3,3.6,7.6,3.7,8c0.1,0.4,0.4,0.7,0.6,0.6l0.9-0.3c0,0.1,0,0.3-0.1,0.4L4.5,9
		c0,0-0.1,0-0.1,0c0,0-0.1,0-0.1,0C4.8,9.3,5.4,9.5,6,9.5c1.9,0,3.4-1.5,3.4-3.4c0-0.8-0.3-1.6-0.8-2.2C8.7,4.5,8.5,5,8.1,5.1z
		 M4.3,8.3C4.1,8.4,3.9,8.2,3.9,8c-0.1-0.2,0-0.5,0.2-0.5c0.2,0,0.4,0.1,0.4,0.4C4.6,8.1,4.5,8.3,4.3,8.3z"/>
	<path fill="#00AAEE" d="M8.2,4C8.1,3.6,7.9,3.3,7.7,3.3c0,0,0,0-0.1,0L3.9,4.5C3.6,4.6,3.5,4.9,3.6,5.3C3.7,5.7,4,6,4.2,5.9L8,4.8
		C8.2,4.7,8.3,4.4,8.2,4z M4.2,5.6c-0.2,0-0.4-0.1-0.4-0.4C3.8,5,3.8,4.8,4,4.7c0.2,0,0.4,0.1,0.4,0.4C4.5,5.4,4.4,5.6,4.2,5.6z"/>
	<path fill="#00AAEE" d="M6.7,1.5c-0.6,0-1.3,0.2-1.8,0.3C4.7,1.8,4.5,1.9,4.3,2c0.3-0.2,0.7-0.3,1-0.3c0.3-0.1,0.7-0.1,1.1-0.2
		c-0.1,0-0.2,0-0.3,0c-2.6,0-4.7,2.1-4.7,4.7c0,2.6,2.1,4.7,4.7,4.7c0.7,0,1.3-0.1,1.9-0.4c0.2-0.1,0.5-0.3,0.5-0.3
		C9,9.7,9.1,9.6,9.3,9.3C9.6,8.9,9.9,8.5,10,8.3c0.5-0.9,0.7-1.6,0.7-2.4C10.6,3.7,8.9,1.8,6.7,1.5z M6,9.8c-2.1,0-3.7-1.7-3.7-3.7
		C2.3,4,3.9,2.4,6,2.4c2.1,0,3.7,1.7,3.7,3.7C9.7,8.2,8.1,9.8,6,9.8z"/>
</g>
</svg>
