<?xml version="1.0" encoding="utf-8"?>
<!-- Generator: Adobe Illustrator 18.1.1, SVG Export Plug-In . SVG Version: 6.00 Build 0)  -->
<!DOCTYPE svg PUBLIC "-//W3C//DTD SVG 1.1//EN" "http://www.w3.org/Graphics/SVG/1.1/DTD/svg11.dtd">
<svg version="1.1" id="Laag_1" xmlns="http://www.w3.org/2000/svg" xmlns:xlink="http://www.w3.org/1999/xlink" x="0px" y="0px"
	 width="12px" height="12px" viewBox="0 0 12 12" enable-background="new 0 0 12 12" xml:space="preserve">
<g>
	<path fill="#595959" d="M11.005,5.28h-6.78c-0.329,0-0.594,0.266-0.594,0.594v4.591c0,0.327,0.266,0.594,0.594,0.594h6.78
		c0.328,0,0.594-0.266,0.594-0.594V5.875C11.599,5.547,11.333,5.28,11.005,5.28z M10.752,6.127v1.103H4.473V6.127H10.752z
		 M4.475,10.213V7.959h6.279v2.254H4.475z"/>
	<path fill="#595959" d="M3.294,5.596c0-0.329,0.266-0.594,0.595-0.594H8.17L8.582,4.59c0.068-0.066,0.068-0.175,0-0.241
		L5.336,1.102c-0.068-0.066-0.175-0.066-0.242,0L0.301,5.898C0.234,5.964,0.232,6.074,0.299,6.14l2.994,2.995V5.596L3.294,5.596z
		 M5.634,2.404l0.73,0.731L5.208,4.291L4.475,3.56L5.634,2.404z"/>
</g>
<g>
</g>
<g>
</g>
<g>
</g>
<g>
</g>
<g>
</g>
<g>
</g>
</svg>
