<?xml version="1.0" encoding="utf-8"?>
<!-- Generator: Adobe Illustrator 18.1.1, SVG Export Plug-In . SVG Version: 6.00 Build 0)  -->
<!DOCTYPE svg PUBLIC "-//W3C//DTD SVG 1.1//EN" "http://www.w3.org/Graphics/SVG/1.1/DTD/svg11.dtd">
<svg version="1.1" id="Laag_1" xmlns="http://www.w3.org/2000/svg" xmlns:xlink="http://www.w3.org/1999/xlink" x="0px" y="0px"
	 width="12px" height="12px" viewBox="-393 495 12 12" enable-background="new -393 495 12 12" xml:space="preserve">
<g>
	<path fill="#FFFFFF" stroke="#D7D7D7" stroke-width="0.4" stroke-miterlimit="10" d="M-382.301,505.023h-9.413
		c-0.549,0-0.998-0.449-0.998-0.998v-5.608c0-0.549,0.449-0.998,0.998-0.998h9.413c0.549,0,0.998,0.449,0.998,0.998v5.608
		C-381.303,504.574-381.752,505.023-382.301,505.023z"/>
	<g>
		<g>
			<g>
				<g>
					<g>
						<path fill="#009BDE" d="M-384.359,500.594h-0.597c-0.041,0-0.076,0.03-0.082,0.07l-0.243,1.534
							c-0.005,0.03,0.018,0.057,0.05,0.057h0.307c0.028,0,0.053-0.02,0.057-0.049l0.068-0.435c0.007-0.041,0.041-0.071,0.082-0.071
							h0.189c0.394,0,0.622-0.191,0.681-0.568c0.026-0.166,0.001-0.295-0.076-0.386
							C-384.007,500.646-384.158,500.594-384.359,500.594z M-384.29,501.154c-0.033,0.214-0.197,0.214-0.356,0.214h-0.09
							l0.063-0.401c0.004-0.024,0.024-0.042,0.05-0.042h0.041c0.108,0,0.21,0,0.262,0.061
							C-384.287,501.024-384.277,501.078-384.29,501.154z"/>
						<path fill="#002F87" d="M-388.624,500.594h-0.598c-0.041,0-0.076,0.03-0.082,0.07l-0.242,1.534
							c-0.005,0.03,0.019,0.057,0.049,0.057h0.286c0.041,0,0.076-0.03,0.082-0.07l0.065-0.414c0.007-0.04,0.042-0.07,0.083-0.07
							h0.189c0.394,0,0.622-0.191,0.681-0.568c0.026-0.166,0.001-0.295-0.076-0.386
							C-388.274,500.646-388.425,500.594-388.624,500.594z M-388.555,501.154c-0.033,0.214-0.197,0.214-0.356,0.214h-0.09
							l0.063-0.401c0.004-0.024,0.024-0.042,0.05-0.042h0.041c0.108,0,0.21,0,0.262,0.061
							C-388.553,501.024-388.544,501.078-388.555,501.154z"/>
						<path fill="#002F87" d="M-386.837,501.147h-0.286c-0.024,0-0.046,0.018-0.05,0.042l-0.013,0.08l-0.02-0.029
							c-0.061-0.09-0.2-0.12-0.338-0.12c-0.317,0-0.587,0.24-0.639,0.576c-0.027,0.168,0.012,0.328,0.107,0.44
							c0.088,0.103,0.212,0.145,0.361,0.145c0.255,0,0.397-0.164,0.397-0.164l-0.013,0.08c-0.005,0.03,0.019,0.057,0.049,0.057
							h0.258c0.041,0,0.076-0.03,0.082-0.07l0.155-0.98C-386.783,501.175-386.806,501.147-386.837,501.147z M-387.236,501.705
							c-0.028,0.164-0.158,0.273-0.324,0.273c-0.083,0-0.149-0.026-0.192-0.077s-0.058-0.122-0.045-0.201
							c0.025-0.163,0.158-0.276,0.321-0.276c0.081,0,0.147,0.027,0.191,0.078C-387.241,501.554-387.223,501.625-387.236,501.705z"/>
						<path fill="#009BDE" d="M-382.571,501.147h-0.287c-0.024,0-0.046,0.018-0.05,0.042l-0.013,0.08l-0.02-0.029
							c-0.062-0.09-0.2-0.12-0.338-0.12c-0.317,0-0.587,0.24-0.639,0.576c-0.026,0.168,0.013,0.328,0.107,0.44
							c0.088,0.103,0.212,0.145,0.361,0.145c0.255,0,0.397-0.164,0.397-0.164l-0.013,0.08c-0.005,0.03,0.018,0.057,0.05,0.057h0.258
							c0.041,0,0.076-0.03,0.082-0.07l0.155-0.98C-382.517,501.175-382.54,501.147-382.571,501.147z M-382.97,501.705
							c-0.027,0.164-0.158,0.274-0.324,0.274c-0.083,0-0.149-0.026-0.192-0.077c-0.042-0.052-0.058-0.123-0.045-0.202
							c0.025-0.162,0.158-0.276,0.321-0.276c0.081,0,0.147,0.027,0.191,0.078C-382.974,501.554-382.958,501.625-382.97,501.705z"/>
						<path fill="#002F87" d="M-385.311,501.147h-0.288c-0.027,0-0.054,0.014-0.069,0.036l-0.397,0.585l-0.168-0.562
							c-0.011-0.035-0.043-0.058-0.08-0.058h-0.283c-0.034,0-0.058,0.033-0.047,0.066l0.317,0.931l-0.299,0.42
							c-0.023,0.033,0,0.079,0.041,0.079h0.287c0.027,0,0.053-0.014,0.068-0.036l0.957-1.382
							C-385.248,501.192-385.271,501.147-385.311,501.147z"/>
						<path fill="#009BDE" d="M-382.234,500.636l-0.246,1.562c-0.005,0.03,0.019,0.057,0.05,0.057h0.247
							c0.041,0,0.076-0.03,0.082-0.07l0.242-1.534c0.005-0.03-0.019-0.057-0.05-0.057h-0.277
							C-382.208,500.594-382.23,500.611-382.234,500.636z"/>
					</g>
				</g>
			</g>
		</g>
		<g>
			<path fill="#009BDE" d="M-390.142,500.674c0.032-0.206,0-0.345-0.111-0.472c-0.122-0.138-0.343-0.199-0.626-0.199h-0.82
				c-0.057,0-0.107,0.042-0.116,0.099l-0.342,2.165c-0.007,0.043,0.026,0.082,0.069,0.082h0.507l-0.035,0.221
				c-0.006,0.038,0.023,0.071,0.061,0.071h0.427c0.051,0,0.094-0.037,0.101-0.087l0.004-0.021l0.081-0.51l0.005-0.028
				c0.008-0.05,0.051-0.087,0.101-0.087h0.064c0.413,0,0.738-0.168,0.832-0.654c0.04-0.203,0.02-0.372-0.086-0.491
				C-390.056,500.728-390.095,500.698-390.142,500.674L-390.142,500.674"/>
			<path fill="#022169" d="M-390.142,500.674c0.032-0.206,0-0.345-0.111-0.472c-0.122-0.138-0.343-0.199-0.626-0.199h-0.82
				c-0.057,0-0.107,0.042-0.116,0.099l-0.342,2.165c-0.007,0.043,0.026,0.082,0.069,0.082h0.507l0.128-0.807l-0.004,0.025
				c0.009-0.057,0.057-0.099,0.116-0.099h0.241c0.473,0,0.843-0.192,0.951-0.747C-390.147,500.706-390.144,500.689-390.142,500.674"
				/>
			<path fill="#002F87" d="M-391.316,500.677c0.005-0.034,0.027-0.062,0.057-0.077c0.014-0.006,0.029-0.01,0.045-0.01h0.643
				c0.076,0,0.147,0.005,0.212,0.016c0.019,0.003,0.037,0.007,0.055,0.011c0.017,0.004,0.033,0.008,0.05,0.013
				c0.009,0.002,0.017,0.005,0.024,0.008c0.032,0.011,0.061,0.023,0.089,0.038c0.032-0.206,0-0.345-0.111-0.472
				c-0.122-0.139-0.343-0.2-0.626-0.2h-0.82c-0.057,0-0.107,0.042-0.116,0.099l-0.342,2.165c-0.007,0.043,0.026,0.082,0.069,0.082
				h0.507l0.128-0.807L-391.316,500.677z"/>
		</g>
	</g>
</g>
</svg>
