<?xml version="1.0" encoding="utf-8"?>
<!-- Generator: Adobe Illustrator 18.1.1, SVG Export Plug-In . SVG Version: 6.00 Build 0)  -->
<!DOCTYPE svg PUBLIC "-//W3C//DTD SVG 1.1//EN" "http://www.w3.org/Graphics/SVG/1.1/DTD/svg11.dtd">
<svg version="1.1" id="Laag_1" xmlns="http://www.w3.org/2000/svg" xmlns:xlink="http://www.w3.org/1999/xlink" x="0px" y="0px"
	 width="12px" height="12px" viewBox="0 0 12 12" enable-background="new 0 0 12 12" xml:space="preserve">
<g>
	<polygon fill="#585858" points="3.947,7.119 3.228,6.401 7.142,2.55 7.529,3.534 	"/>
	
		<rect x="5.766" y="3.334" transform="matrix(0.7076 0.7066 -0.7066 0.7076 5.9808 -2.7163)" fill="#585858" width="1.014" height="5.069"/>
	<polygon fill="#585858" points="5.785,8.905 5.047,8.167 8.63,4.583 9.573,5.118 	"/>
	<path fill="#585858" d="M1.028,10.953l2.074-4.295l2.35,2.346L1.028,10.953z M3.143,6.89l-1.832,3.79l3.903-1.718L3.143,6.89z"/>
	<path fill="#585858" d="M0.891,11.088l2.192-4.545l2.485,2.484L0.891,11.088z M3.162,7.003l-1.711,3.542l3.647-1.606L3.162,7.003z"
		/>
	<path fill="#585858" d="M1.802,9.615c0,0,0.212-0.04,0.209,0.109C2.007,9.873,2.068,9.84,2.176,9.841
		c0.109,0.006,0.128,0.087,0.085,0.158c-0.048,0.072-0.03,0.179,0.249,0.142c0.277-0.032-1.147,0.469-1.147,0.469L1.802,9.615z"/>
	<path fill="#585858" d="M10.148,2.053C9.645,1.551,9.084,1.228,8.712,1.228c-0.123,0-0.221,0.036-0.29,0.104
		C8.41,1.346,8.414,1.371,8.403,1.386L8.388,1.371L7.456,2.304c-0.002,0.002-0.008,0-0.01,0.002c-0.002,0.002,0,0.008-0.002,0.01
		L7.442,2.318l0.001,0.001c-0.192,0.22,0.179,0.921,0.84,1.582C8.948,4.563,9.647,4.933,9.867,4.74l0.009,0.009l0.946-0.947
		L10.81,3.79c0.018-0.012,0.049-0.008,0.065-0.024C11.16,3.482,10.849,2.744,10.148,2.053z"/>
</g>
<g>
</g>
<g>
</g>
<g>
</g>
<g>
</g>
<g>
</g>
<g>
</g>
</svg>
