<?xml version="1.0" encoding="utf-8"?>
<!-- Generator: Adobe Illustrator 18.1.1, SVG Export Plug-In . SVG Version: 6.00 Build 0)  -->
<!DOCTYPE svg PUBLIC "-//W3C//DTD SVG 1.1//EN" "http://www.w3.org/Graphics/SVG/1.1/DTD/svg11.dtd">
<svg version="1.1" id="Laag_1" xmlns="http://www.w3.org/2000/svg" xmlns:xlink="http://www.w3.org/1999/xlink" x="0px" y="0px"
	 width="12px" height="12px" viewBox="0 0 12 12" enable-background="new 0 0 12 12" xml:space="preserve">
<g>
	<path fill="#FF7600" d="M7.1,7.8c0.6-0.4,1-1.1,1-1.9V5.4c0-1.2-1-2.3-2.1-2.3c-1.2,0-2.1,1-2.1,2.3v0.6c0,0.8,0.4,1.5,1,1.9
		c-1.1,0.4-2.1,1.5-2.1,2.6C2.8,10.8,3,11,3.3,11h5.3c0.3,0,0.5-0.3,0.5-0.6C9.2,9.3,8.1,8.3,7.1,7.8z"/>
	<path fill="#FF7600" d="M4.2,7.8C3.6,7.4,3.3,6.7,3.3,5.9V5.4c0-0.7,0.3-1.4,0.8-1.8C3.8,3.3,3.5,3.1,3.1,3.1
		c-0.9,0-1.7,0.8-1.7,1.8v0.4c0,0.6,0.3,1.2,0.8,1.5C1.3,7.2,0.5,8,0.5,8.9c0,0.2,0.2,0.4,0.4,0.4h1.6C2.9,8.7,3.5,8.1,4.2,7.8z"/>
	<path fill="#FF7600" d="M11.5,1.6c0-0.4-0.3-0.7-0.7-0.7H8.4C8,0.9,7.7,1.2,7.7,1.6v1.2c0,0.4,0.3,0.7,0.7,0.7h0.1l0,1.1l1.2-1.1
		h1.1c0.4,0,0.7-0.3,0.7-0.7V1.6z"/>
</g>
</svg>
