<?xml version="1.0" encoding="utf-8"?>
<!-- Generator: Adobe Illustrator 18.1.1, SVG Export Plug-In . SVG Version: 6.00 Build 0)  -->
<!DOCTYPE svg PUBLIC "-//W3C//DTD SVG 1.1//EN" "http://www.w3.org/Graphics/SVG/1.1/DTD/svg11.dtd">
<svg version="1.1" id="Laag_1" xmlns="http://www.w3.org/2000/svg" xmlns:xlink="http://www.w3.org/1999/xlink" x="0px" y="0px"
	 width="12px" height="12px" viewBox="0 0 12 12" enable-background="new 0 0 12 12" xml:space="preserve">
<g>
	<path fill="#585858" d="M3.778,7.675c0-1.783,1.068-3.312,2.598-3.993C6.16,2.461,5.151,1.534,3.936,1.534
		c-1.373,0-2.486,1.177-2.486,2.631v0.658c0,0.947,0.477,1.77,1.187,2.233c-1.227,0.486-2.43,1.713-2.43,3.029
		c0,0.365,0.28,0.658,0.622,0.658h4.207C4.258,9.953,3.778,8.871,3.778,7.675z"/>
	<path fill="#585858" d="M8.148,3.973c-2.044,0-3.701,1.657-3.701,3.702c0,2.046,1.657,3.702,3.701,3.702s3.703-1.657,3.703-3.702
		C11.852,5.63,10.193,3.973,8.148,3.973z M10.117,8.165H8.638v1.479H7.659V8.165H6.181V7.186h1.478V5.708h0.979v1.478h1.479V8.165z"
		/>
</g>
</svg>
