<?xml version="1.0" encoding="utf-8"?>
<!-- Generator: Adobe Illustrator 18.1.1, SVG Export Plug-In . SVG Version: 6.00 Build 0)  -->
<!DOCTYPE svg PUBLIC "-//W3C//DTD SVG 1.1//EN" "http://www.w3.org/Graphics/SVG/1.1/DTD/svg11.dtd">
<svg version="1.1" id="Laag_1" xmlns="http://www.w3.org/2000/svg" xmlns:xlink="http://www.w3.org/1999/xlink" x="0px" y="0px"
	 width="12px" height="12px" viewBox="0 0 12 12" enable-background="new 0 0 12 12" xml:space="preserve">
<path fill="#AAAAAA" d="M1.4,5C1.8,5.7,3.3,7.5,3.7,8C4.2,8.5,6,10.1,7,10.6c1,0.6,2.4,0.5,2.9,0.3c0.6-0.2,1.1-0.8,1.1-1.1
	c0-0.3-2.1-2.2-2.4-2.2c-0.3,0-0.8,1.1-1.3,1.1c-0.5,0-1.5-1.1-2-1.6C4.8,6.7,3.6,5.5,3.6,5.1c0-0.5,0.9-1,0.9-1.5
	C4.5,3,2.7,0.9,2.2,1C1.7,1.2,1,2.1,1,2.1C0.7,3.1,1,4.3,1.4,5z"/>
</svg>
