<?xml version="1.0" encoding="utf-8"?>
<!-- Generator: Adobe Illustrator 18.1.1, SVG Export Plug-In . SVG Version: 6.00 Build 0)  -->
<!DOCTYPE svg PUBLIC "-//W3C//DTD SVG 1.1//EN" "http://www.w3.org/Graphics/SVG/1.1/DTD/svg11.dtd">
<svg version="1.1" id="Laag_1" xmlns="http://www.w3.org/2000/svg" xmlns:xlink="http://www.w3.org/1999/xlink" x="0px" y="0px"
	 width="12px" height="12px" viewBox="0 0 12 12" enable-background="new 0 0 12 12" xml:space="preserve">
<path fill="#585858" d="M141.612,2.438c-1.981-1.981-5.192-1.981-7.173,0c-0.412,0.413-0.734,0.881-0.974,1.38
	c-0.914,1.888-0.591,4.224,0.975,5.793c1.98,1.979,5.191,1.979,7.172,0c0.059-0.059,0.11-0.121,0.166-0.183
	C143.585,7.438,143.535,4.361,141.612,2.438z M141.256,3.753c-1.382,1.324-2.531,2.866-3.45,4.541
	c-0.056,0.102-0.145,0.186-0.242,0.247c-0.157,0.1-0.337,0.164-0.515,0.207c-0.172,0.041-0.357,0.067-0.534,0.042
	c-0.113-0.014-0.259-0.057-0.289-0.183c-0.213-0.909-0.482-1.802-0.816-2.675c-0.153-0.398,1.386-0.87,1.561-0.411
	c0.148,0.387,0.283,0.78,0.406,1.176c0.717-1.048,1.528-2.024,2.447-2.906c0.271-0.259,0.668-0.383,1.039-0.393
	C141.024,3.394,141.528,3.491,141.256,3.753z"/>
<path fill="#585858" d="M141.612,2.438c-1.981-1.981-5.192-1.981-7.173,0c-0.412,0.413-0.734,0.881-0.974,1.38
	c-0.914,1.888-0.591,4.224,0.975,5.793c1.98,1.979,5.191,1.979,7.172,0c0.059-0.059,0.11-0.121,0.166-0.183
	C143.585,7.438,143.535,4.361,141.612,2.438z M141.256,3.753c-1.382,1.324-2.531,2.866-3.45,4.541
	c-0.056,0.102-0.145,0.186-0.242,0.247c-0.157,0.1-0.337,0.164-0.515,0.207c-0.172,0.041-0.357,0.067-0.534,0.042
	c-0.113-0.014-0.259-0.057-0.289-0.183c-0.213-0.909-0.482-1.802-0.816-2.675c-0.153-0.398,1.386-0.87,1.561-0.411
	c0.148,0.387,0.283,0.78,0.406,1.176c0.717-1.048,1.528-2.024,2.447-2.906c0.271-0.259,0.668-0.383,1.039-0.393
	C141.024,3.394,141.528,3.491,141.256,3.753z"/>
<path fill="#AAAAAA" d="M3.368,10.789V1.622l5.34,4.584L3.368,10.789z"/>
<g>
</g>
<g>
</g>
<g>
</g>
<g>
</g>
<g>
</g>
<g>
</g>
</svg>
