<?xml version="1.0" encoding="utf-8"?>
<!-- Generator: Adobe Illustrator 18.1.1, SVG Export Plug-In . SVG Version: 6.00 Build 0)  -->
<!DOCTYPE svg PUBLIC "-//W3C//DTD SVG 1.1//EN" "http://www.w3.org/Graphics/SVG/1.1/DTD/svg11.dtd">
<svg version="1.1" id="Laag_1" xmlns="http://www.w3.org/2000/svg" xmlns:xlink="http://www.w3.org/1999/xlink" x="0px" y="0px"
	 width="12px" height="12px" viewBox="0 0 12 12" enable-background="new 0 0 12 12" xml:space="preserve">
<g>
	<g>
		<path fill="#FF7600" d="M8.977,6.324C8.855,6.487,8.783,6.69,8.782,6.91C8.78,7.451,9.219,7.89,9.759,7.891
			c0.541,0.003,0.983-0.434,0.985-0.976c0-0.006,0-0.011,0-0.016C10.735,6.367,10.3,5.934,9.765,5.932
			c-0.166,0-0.319,0.041-0.457,0.112C9.181,6.113,9.066,6.207,8.977,6.324z M9.153,6.934c0-0.137,0.046-0.262,0.119-0.364
			c0.057-0.071,0.127-0.131,0.204-0.172c0.087-0.045,0.184-0.07,0.287-0.07c0.331,0.001,0.6,0.269,0.605,0.6c0,0.003,0,0.006,0,0.01
			c-0.002,0.334-0.276,0.604-0.609,0.604C9.422,7.541,9.149,7.269,9.153,6.934z"/>
		<path fill="#FF7600" d="M8.779,6.057c0.112-0.149,0.255-0.27,0.42-0.357c0.175-0.091,0.373-0.142,0.586-0.142
			c0.684,0.003,1.236,0.553,1.25,1.234v0.124l0.874,0.003l0.002-0.938L11.7,5.98l-0.078-0.75l-0.71-0.461L9.116,2.861
			C9.101,2.85,9.088,2.839,9.07,2.83C9.037,2.813,8.999,2.804,8.96,2.804L7.604,2.799l0.005-0.443c0-0.076-0.065-0.138-0.146-0.138
			L4.248,2.207c-0.08,0-0.147,0.062-0.147,0.138L4.099,3.037L4.095,3.899C4.293,3.982,4.434,4.175,4.434,4.4v0.05h0.977
			c0.102,0,0.207,0.023,0.289,0.065l1.973,2.024l0.411,0.265L8.53,6.805C8.532,6.523,8.628,6.264,8.779,6.057z M8.245,4.469
			L8.098,4.822l0.006-1.5l0.938,0.003L10,4.474L9.594,4.473L8.245,4.469z"/>
	</g>
	<path fill="#FF7600" d="M1.087,9.111c0,0.552,0.45,1,1.001,1c0.555,0,1.002-0.448,1.002-1s-0.447-1-1.002-1
		C1.537,8.111,1.087,8.558,1.087,9.111z M1.471,9.134c0-0.343,0.277-0.619,0.621-0.619c0.342,0,0.621,0.276,0.621,0.619
		c0,0.342-0.279,0.619-0.621,0.619C1.748,9.753,1.471,9.476,1.471,9.134z"/>
	<path fill="#FF7600" d="M5.373,8.51c-0.127,0.167-0.2,0.375-0.2,0.599c0,0.552,0.449,1,1.001,1c0.554,0,1-0.448,1-1
		c0-0.005,0-0.012,0-0.017c-0.009-0.543-0.454-0.982-1-0.982c-0.168,0-0.326,0.043-0.466,0.116C5.576,8.295,5.461,8.393,5.373,8.51z
		 M5.551,9.136c0-0.14,0.045-0.268,0.124-0.372C5.729,8.69,5.8,8.629,5.881,8.586C5.97,8.541,6.067,8.515,6.172,8.515
		c0.339,0,0.614,0.271,0.619,0.608c0,0.004,0,0.007,0,0.011c0,0.342-0.277,0.619-0.619,0.619C5.827,9.753,5.551,9.476,5.551,9.136z"
		/>
	<g>
		<path fill="#FF7600" d="M0.091,8.312h0.166v0.744h0.572V8.777c0.11-0.596,0.629-1.049,1.259-1.049
			c0.706,0,1.275,0.571,1.275,1.276h1.554c0-0.287,0.096-0.552,0.254-0.764C5.288,8.087,5.432,7.963,5.6,7.875
			c0.177-0.094,0.38-0.147,0.597-0.147c0.698,0,1.264,0.559,1.275,1.254l0,0v0.129h0.897V8.154H8.151L8.07,7.387L7.344,6.918
			L5.503,4.976c-0.016-0.011-0.03-0.021-0.048-0.03C5.422,4.929,5.383,4.92,5.341,4.92H3.96V4.467c0-0.078-0.064-0.141-0.146-0.141
			H0.532c-0.083,0-0.149,0.063-0.149,0.141v0.707l0,2.1v0.614L0.089,7.899L0.091,8.312z M4.471,6.983l0.001-1.53h0.956l0.98,1.168
			H5.996H4.617L4.471,6.983L4.471,6.983z"/>
	</g>
</g>
</svg>
