<?xml version="1.0" encoding="utf-8"?>
<!-- Generator: Adobe Illustrator 18.1.1, SVG Export Plug-In . SVG Version: 6.00 Build 0)  -->
<!DOCTYPE svg PUBLIC "-//W3C//DTD SVG 1.1//EN" "http://www.w3.org/Graphics/SVG/1.1/DTD/svg11.dtd">
<svg version="1.1" id="Laag_1" xmlns="http://www.w3.org/2000/svg" xmlns:xlink="http://www.w3.org/1999/xlink" x="0px" y="0px"
	 width="12px" height="12px" viewBox="0 0 12 12" enable-background="new 0 0 12 12" xml:space="preserve">
<g>
	<path fill="#585858" d="M1.52,8.854c0,0.647,0.525,1.172,1.173,1.172c0.649,0,1.175-0.525,1.175-1.172
		c0-0.648-0.525-1.173-1.175-1.173C2.046,7.682,1.52,8.206,1.52,8.854z M1.971,8.882c0-0.401,0.325-0.726,0.726-0.726
		c0.404,0,0.728,0.325,0.728,0.726S3.101,9.609,2.697,9.609C2.296,9.61,1.971,9.284,1.971,8.882z"/>
	<path fill="#585858" d="M8.263,8.152C8.116,8.349,8.03,8.592,8.03,8.854c0,0.647,0.524,1.172,1.173,1.172
		c0.65,0,1.176-0.525,1.176-1.172c0-0.007,0-0.014,0-0.02c-0.012-0.638-0.531-1.151-1.176-1.151c-0.197,0-0.384,0.049-0.545,0.136
		C8.502,7.899,8.368,8.014,8.263,8.152z M8.471,8.882c0-0.162,0.057-0.313,0.146-0.434C8.683,8.361,8.765,8.291,8.859,8.24
		c0.105-0.054,0.218-0.084,0.341-0.084c0.395,0,0.721,0.319,0.728,0.719c0,0,0,0.004,0,0.008c0,0.401-0.327,0.727-0.728,0.727
		C8.797,9.61,8.471,9.284,8.471,8.882z"/>
	<path fill="#585858" d="M0.305,7.931l0.238-0.013v0.873h0.676V8.464c0.126-0.7,0.736-1.23,1.473-1.23c0.828,0,1.5,0.67,1.5,1.497
		h3.54c0-0.336,0.108-0.649,0.297-0.898C8.165,7.657,8.333,7.51,8.53,7.405c0.208-0.108,0.449-0.172,0.7-0.172
		c0.821,0,1.484,0.656,1.5,1.471l0,0v0.15h1.051V7.733h-0.253l-0.101-0.898l-0.848-0.548L8.418,4.01
		C8.401,3.995,8.384,3.985,8.364,3.973c-0.04-0.019-0.087-0.031-0.138-0.031H6.355V2.926c0-0.091-0.074-0.165-0.171-0.165H0.867
		c-0.098,0-0.174,0.075-0.174,0.165v1.316v2.461v0.719l-0.39,0.013L0.305,7.931z M6.951,4.566h1.376l1.151,1.37H8.993H7.379
		L6.951,6.362V4.566z"/>
</g>
<g>
</g>
<g>
</g>
<g>
</g>
<g>
</g>
<g>
</g>
<g>
</g>
</svg>
