<?xml version="1.0" encoding="utf-8"?>
<!-- Generator: Adobe Illustrator 18.1.1, SVG Export Plug-In . SVG Version: 6.00 Build 0)  -->
<!DOCTYPE svg PUBLIC "-//W3C//DTD SVG 1.1//EN" "http://www.w3.org/Graphics/SVG/1.1/DTD/svg11.dtd">
<svg version="1.1" id="Laag_1" xmlns="http://www.w3.org/2000/svg" xmlns:xlink="http://www.w3.org/1999/xlink" x="0px" y="0px"
	 width="12px" height="12px" viewBox="-393 495 12 12" enable-background="new -393 495 12 12" xml:space="preserve">
<g>
	<path fill="#FFFFFF" stroke="#D7D7D7" stroke-width="0.4" stroke-miterlimit="10" d="M-382.301,505.023h-9.413
		c-0.549,0-0.998-0.449-0.998-0.998v-5.608c0-0.549,0.449-0.998,0.998-0.998h9.413c0.549,0,0.998,0.449,0.998,0.998v5.608
		C-381.303,504.574-381.752,505.023-382.301,505.023z"/>
	<g>
		<g>
			<g>
				<polygon fill="#005098" points="-388.547,502.823 -388.02,499.729 -387.176,499.729 -387.704,502.823 				"/>
				<path fill="#005098" d="M-384.644,499.805c-0.167-0.063-0.429-0.13-0.756-0.13c-0.833,0-1.42,0.42-1.425,1.021
					c-0.006,0.445,0.418,0.693,0.738,0.841c0.328,0.152,0.439,0.248,0.437,0.384c-0.002,0.207-0.262,0.302-0.505,0.302
					c-0.337,0-0.517-0.047-0.794-0.162l-0.108-0.049l-0.119,0.692c0.197,0.086,0.561,0.161,0.94,0.165
					c0.887,0,1.462-0.415,1.469-1.057c0.003-0.352-0.221-0.62-0.708-0.841c-0.295-0.143-0.476-0.238-0.474-0.384
					c0-0.128,0.153-0.266,0.483-0.266c0.276-0.004,0.476,0.056,0.632,0.119l0.076,0.036L-384.644,499.805L-384.644,499.805z"/>
				<path fill="#005098" d="M-382.482,499.732h-0.651c-0.202,0-0.353,0.055-0.442,0.257l-1.252,2.835h0.886
					c0,0,0.145-0.381,0.177-0.465c0.097,0,0.957,0.002,1.08,0.002c0.025,0.108,0.102,0.464,0.102,0.464h0.783L-382.482,499.732
					L-382.482,499.732z M-383.522,501.726c0.07-0.178,0.336-0.865,0.336-0.865c-0.004,0.009,0.07-0.179,0.112-0.295l0.057,0.267
					c0,0,0.162,0.739,0.195,0.894L-383.522,501.726L-383.522,501.726L-383.522,501.726z"/>
				<path fill="#005098" d="M-389.254,499.731l-0.826,2.111l-0.089-0.429c-0.153-0.494-0.633-1.03-1.168-1.298l0.755,2.707
					l0.893-0.002l1.328-3.089H-389.254L-389.254,499.731z"/>
				<path fill="#F6A500" d="M-390.846,499.729h-1.36l-0.011,0.065c1.058,0.256,1.758,0.875,2.049,1.619l-0.296-1.423
					C-390.515,499.794-390.663,499.736-390.846,499.729L-390.846,499.729z"/>
			</g>
		</g>
	</g>
</g>
</svg>
