<svg xmlns="http://www.w3.org/2000/svg" width="12" height="12" viewBox="0 0 12 12"><defs><style>.a{fill:#fff;stroke:#d7d7d7;stroke-miterlimit:10;stroke-width:0.4px;}.b{fill:#388735;}.c{fill:none;}</style></defs><title>Adyen</title><path class="a" d="M10.706,9.8H1.294a1,1,0,0,1-1-1V3.2a1,1,0,0,1,1-1h9.413a1,1,0,0,1,1,1V8.8a1,1,0,0,1-1,1h0Z"/><path class="b" d="M11.157,6.877V5.459c0-.206-0.14-0.3-0.478-0.3H9.3V6.878h0.8V5.64h0.256V6.878h0.8Z"/><path class="b" d="M6.927,7.232h0V5.162h-0.8V6.407H5.872V5.162h-0.8V6.6c0,0.19.14,0.28,0.478,0.28H6.126V7.042H5.071V7.513H6.448C6.777,7.512,6.927,7.43,6.927,7.232Z"/><path class="b" d="M4.808,6.877h0V4.543h-0.8V6.407H3.752V5.163H3.43c-0.33,0-.478.09-0.478,0.3V6.6c0,0.19.149,0.28,0.478,0.28H4.808v0Z"/><path class="b" d="M2.7,6.877V5.459c0-.206-0.149-0.3-0.478-0.3H0.839V5.64H1.9V6.407H1.639V5.8H1.317c-0.338,0-.478.087-0.478,0.293V6.6c0,0.19.14,0.28,0.478,0.28H2.7v0Z"/><path class="b" d="M7.19,5.162V6.589c0,0.2.14,0.289,0.471,0.289H9.039V6.407H7.984V5.64H8.239v0.6h0.33c0.33,0,.47-0.09.47-0.289v-0.5c0-.2-0.14-0.289-0.47-0.289H7.19Z"/><rect class="c" x="0.841" y="4.552" width="10.309" height="2.977"/></svg>