<svg xmlns="http://www.w3.org/2000/svg" xmlns:xlink="http://www.w3.org/1999/xlink" width="12" height="12" viewBox="0 0 12 12"><defs><style>.a{fill:url(#a);}.b{fill:none;stroke:#d7d7d7;stroke-miterlimit:10;stroke-width:0.4px;}.c{fill:#fff;}</style><radialGradient id="a" cx="2.441" cy="994.843" r="7.739" gradientTransform="matrix(1, 0, 0, -1, -0.088, 997.997)" gradientUnits="userSpaceOnUse"><stop offset="0" stop-color="#71c3ec"/><stop offset="1" stop-color="#005fb4"/></radialGradient></defs><title>AmericanExpress</title><path class="a" d="M1.177,2.241h9.67a0.87,0.87,0,0,1,.87.87v5.8a0.87,0.87,0,0,1-.87.87H1.177a0.87,0.87,0,0,1-.87-0.87v-5.8A0.87,0.87,0,0,1,1.177,2.241Z"/><path class="b" d="M10.707,9.8H1.294a1,1,0,0,1-1-1V3.2a1,1,0,0,1,1-1h9.414a1,1,0,0,1,1,1V8.8A1,1,0,0,1,10.707,9.8Z"/><path class="c" d="M0.48,6.166H1.007l0.119-.289H1.4L1.516,6.166H2.559V5.945L2.652,6.167H3.192l0.093-.225V6.166H5.876V5.693h0.05c0.036,0,.047.005,0.047,0.063v0.41H7.308V6.056a1.047,1.047,0,0,0,.5.11H8.372l0.12-.289H8.759L8.877,6.166H9.964V5.892l0.164,0.274H11V4.356H10.136V4.571l-0.12-.214H9.131V4.571L9.021,4.356H7.828a1.081,1.081,0,0,0-.518.105V4.356H6.487V4.461a0.521,0.521,0,0,0-.351-0.105H3.126l-0.2.467L2.718,4.356H1.769V4.571L1.664,4.356H0.855l-0.376.86v0.95h0ZM10.722,5.91H10.284L9.7,4.937V5.91H9.065L8.945,5.621H8.3L8.185,5.91H7.821a0.653,0.653,0,0,1-.449-0.143,0.649,0.649,0,0,1-.166-0.5A0.689,0.689,0,0,1,7.373,4.76a0.631,0.631,0,0,1,.471-0.151h0.3V4.891H7.85a0.3,0.3,0,0,0-.24.078,0.424,0.424,0,0,0-.089.293,0.45,0.45,0,0,0,.085.3,0.3,0.3,0,0,0,.217.067H7.962L8.4,4.613H8.862L9.388,5.839V4.613H9.86l0.545,0.9v-0.9h0.317v1.3h0v0Zm-3.67,0H6.736V4.61H7.052v1.3h0Zm-0.5-.947a0.367,0.367,0,0,1-.219.346,0.349,0.349,0,0,1,.152.109,0.368,0.368,0,0,1,.053.237V5.91H6.23V5.747A0.374,0.374,0,0,0,6.178,5.5a0.3,0.3,0,0,0-.226-0.06H5.619V5.91H5.308V4.61H6.023a0.728,0.728,0,0,1,.375.063,0.3,0.3,0,0,1,.157.29h0ZM5.091,5.91H4.059V4.61H5.094V4.884H4.369V5.117H5.078V5.383H4.37V5.641H5.1V5.91h0Zm-1.266,0H3.507V4.9L3.06,5.91H2.788L2.337,4.893V5.91H1.708L1.588,5.621H0.942L0.823,5.91H0.485L1.04,4.61H1.5L2.03,5.841V4.613H2.537L2.942,5.5l0.373-.881H3.83v1.3h0Zm5.008-.559L8.622,4.834l-0.214.517H8.833Zm-2.686-.2a0.3,0.3,0,0,1-.153.026H5.619V4.884H6a0.321,0.321,0,0,1,.148.023,0.121,0.121,0,0,1,.065.114,0.138,0.138,0,0,1-.064.125Zm-4.675.2L1.264,4.834l-0.212.517H1.472Z"/><path class="c" d="M6.49,7.274a0.439,0.439,0,0,1-.54.434H5.562V8.143h-0.6L4.58,7.714l-0.4.429H2.955v-1.3H4.2L4.584,7.27l0.395-.425H5.969A0.431,0.431,0,0,1,6.49,7.274Zm-2.465.6H3.264V7.615H3.945V7.351H3.264V7.115H4.04L4.38,7.493ZM5.255,8.026L4.778,7.5l0.476-.512V8.026Zm0.711-.582h-0.4V7.115h0.4a0.159,0.159,0,0,1,.19.159A0.166,0.166,0,0,1,6,7.446Zm2.091-.6H9.093v0.27H8.367V7.35H9.075V7.614H8.367V7.872H9.093v0.27H8.056v-1.3Zm-0.392.7a0.336,0.336,0,0,1,.152.109,0.378,0.378,0,0,1,.052.238V8.143H7.558V7.98a0.378,0.378,0,0,0-.05-0.253,0.3,0.3,0,0,0-.228-0.058H6.948V8.143H6.637v-1.3H7.352a0.761,0.761,0,0,1,.374.062,0.3,0.3,0,0,1,.159.288,0.367,0.367,0,0,1-.221.347h0Zm-0.187-.16a0.3,0.3,0,0,1-.153.027H6.948V7.115H7.33a0.3,0.3,0,0,1,.147.023,0.126,0.126,0,0,1,.065.117A0.145,0.145,0,0,1,7.477,7.379Zm2.8,0.08a0.358,0.358,0,0,1,.093.275,0.4,0.4,0,0,1-.487.41h-0.6V7.866h0.6a0.18,0.18,0,0,0,.124-0.032,0.113,0.113,0,0,0,.037-0.085,0.1,0.1,0,0,0-.039-0.085,0.161,0.161,0,0,0-.11-0.03c-0.29-.01-0.653.009-0.653-0.4a0.385,0.385,0,0,1,.443-0.386h0.622V7.122H9.737a0.208,0.208,0,0,0-.125.024,0.094,0.094,0,0,0-.046.091,0.1,0.1,0,0,0,.068.1,0.366,0.366,0,0,0,.12.015H9.921a0.513,0.513,0,0,1,.354.107h0Zm1.238,0.518a0.484,0.484,0,0,1-.421.166h-0.6V7.865h0.6a0.177,0.177,0,0,0,.125-0.032,0.112,0.112,0,0,0,.037-0.084,0.1,0.1,0,0,0-.038-0.085,0.16,0.16,0,0,0-.109-0.03c-0.291-.01-0.654.009-0.654-0.4A0.386,0.386,0,0,1,10.9,6.848h0.608V6.589h-0.57a0.653,0.653,0,0,0-.389.106V6.589H9.7A0.6,0.6,0,0,0,9.33,6.7V6.589H7.815V6.7A0.817,0.817,0,0,0,7.4,6.589h-1V6.7a0.71,0.71,0,0,0-.436-0.11H4.842l-0.255.278-0.24-.278H2.673V8.4H4.315l0.263-.28L4.825,8.4h1.01V7.974h0.1a1.058,1.058,0,0,0,.432-0.063V8.4H7.2V7.927h0.04c0.052,0,.057,0,0.057.054V8.4H9.832a0.726,0.726,0,0,0,.421-0.116V8.4h0.8a1.081,1.081,0,0,0,.455-0.082V7.977h0.008Zm0-.855H10.947a0.206,0.206,0,0,0-.125.024,0.111,0.111,0,0,0,.023.193,0.359,0.359,0,0,0,.119.015h0.167a0.512,0.512,0,0,1,.353.1,0.308,0.308,0,0,1,.029.034V7.121h0Z"/></svg>