<svg xmlns="http://www.w3.org/2000/svg" width="12" height="12" viewBox="0 0 12 12"><defs><style>.a{fill:#fff;stroke:#d7d7d7;stroke-miterlimit:10;stroke-width:0.4px;}.b{fill:#0072b9;}.c{fill:#ffe21e;}</style></defs><title>BancontactMisterCash</title><path class="a" d="M10.707,9.8H1.294a1,1,0,0,1-1-1V3.2a1,1,0,0,1,1-1h9.414a1,1,0,0,1,1,1V8.8A1,1,0,0,1,10.707,9.8Z"/><polygon class="b" points="8.436 5.425 6.531 5.425 5.47 6.569 3.559 6.569 3.99 6.086 4.046 6.023 0.84 6.023 0.84 7.228 6.819 7.228 8.436 5.425"/><polygon class="c" points="5.47 6.562 6.531 5.425 8.436 5.425 7.955 5.963 11.163 5.963 11.163 4.765 5.175 4.765 3.99 6.086 3.572 6.562 5.47 6.562"/><polygon class="c" points="5.47 6.569 6.531 5.425 5.47 6.562 3.572 6.562 3.99 6.086 3.559 6.569 5.47 6.569"/><path class="b" d="M9.077,4.347L9.089,4.381H9.436V3.667c0-.336-0.535-0.411-0.909-0.283l-0.059.29a1.157,1.157,0,0,1,.508-0.087c0.126,0.007.086,0.1-.014,0.1a0.513,0.513,0,0,0-.555.343C8.329,4.5,8.917,4.448,9.077,4.347ZM9.063,3.923V4.051c0,0.141-.274.182-0.274,0.034A0.236,0.236,0,0,1,9.063,3.923Z"/><path class="b" d="M2.764,4.347L2.771,4.381H3.125V3.667c0-.336-0.535-0.411-0.909-0.283l-0.054.29a1.1,1.1,0,0,1,.5-0.087c0.12,0.007.079,0.1-.021,0.1a0.5,0.5,0,0,0-.548.343C2,4.5,2.607,4.448,2.764,4.347ZM2.75,3.923V4.051c0,0.141-.281.182-0.281,0.034A0.24,0.24,0,0,1,2.75,3.923Z"/><path class="b" d="M5.87,4.408a0.548,0.548,0,0,0,.574-0.52V3.869a0.58,0.58,0,1,0-.62.538H5.87Zm0-.761a0.205,0.205,0,0,1,.213.222,0.21,0.21,0,0,1-.42-0.009A0.2,0.2,0,0,1,5.85,3.647H5.87Z"/><path class="b" d="M7.753,4.119a0.347,0.347,0,0,0,.588.2V4.065c-0.06.066-.2,0.073-0.2-0.007V3.62h0.2V3.337H8.136V2.886l-0.381.2v0.25H7.621v0.31H7.756V4.119h0Z"/><path class="b" d="M1.82,3.567a0.433,0.433,0,0,0-.281-0.754h-0.7V4.375H1.593A0.432,0.432,0,0,0,1.82,3.567ZM1.272,3.129a0.427,0.427,0,0,1,.167,0c0.194,0.087.127,0.3,0.007,0.3H1.272v-0.3h0ZM1.447,4.065H1.272V3.748H1.44a0.159,0.159,0,0,1,.031.316H1.447Z"/><path class="b" d="M4.922,4.4a0.571,0.571,0,0,0,.3-0.08V3.991a0.384,0.384,0,0,1-.274.074,0.228,0.228,0,0,1-.24-0.2,0.237,0.237,0,0,1,.24-0.229,0.408,0.408,0,0,1,.274.08V3.384a0.653,0.653,0,0,0-.328-0.073,0.54,0.54,0,0,0-.555.525q0,0.01,0,.02a0.56,0.56,0,0,0,.573.546h0.01Z"/><path class="b" d="M3.592,3.8a0.151,0.151,0,1,1,.3,0V4.381H4.266V3.7A0.4,0.4,0,0,0,3.6,3.425V3.338H3.218V4.381H3.592V3.8h0Z"/><path class="b" d="M6.893,3.8a0.151,0.151,0,1,1,.3,0V4.381H7.567V3.7a0.4,0.4,0,0,0-.675-0.276V3.338H6.519V4.381H6.893V3.8Z"/><path class="b" d="M10.087,4.4a0.613,0.613,0,0,0,.308-0.08V3.991a0.393,0.393,0,0,1-.281.074,0.222,0.222,0,0,1-.234-0.2,0.236,0.236,0,0,1,.234-0.229,0.418,0.418,0,0,1,.281.08V3.384a0.651,0.651,0,0,0-.328-0.074,0.541,0.541,0,0,0-.559.523q0,0.014,0,.027A0.562,0.562,0,0,0,10.087,4.4Z"/><path class="b" d="M11.174,3.621V3.338H10.962V2.887l-0.374.2V3.338H10.454v0.31h0.134V4.119a0.348,0.348,0,0,0,.588.2V4.06c-0.061.068-.194,0.074-0.194-0.007V3.619h0.193v0Z"/><path class="b" d="M4.975,8.036a0.54,0.54,0,0,0-.555.524q0,0.017,0,.035a0.557,0.557,0,0,0,.553.561l0.047,0a0.772,0.772,0,0,0,.455-0.121V8.723a0.866,0.866,0,0,1-.367.108c-0.2,0-.308-0.054-0.308-0.2H5.5A0.5,0.5,0,0,0,4.975,8.036Zm-0.193.391a0.164,0.164,0,0,1,.174-0.135,0.147,0.147,0,0,1,.166.125v0.01H4.782Z"/><polygon class="b" points="1.567 8.057 1.252 7.599 0.845 7.599 0.851 9.127 1.252 9.127 1.252 8.245 1.567 8.689 1.875 8.245 1.875 9.127 2.276 9.127 2.283 7.599 1.875 7.599 1.567 8.057"/><path class="b" d="M5.923,8.15V8.043H5.562V9.127H5.923V8.515a0.268,0.268,0,0,1,.24-0.162,0.316,0.316,0,0,1,.174.061V8.085A0.174,0.174,0,0,0,6.2,8.03,0.4,0.4,0,0,0,5.923,8.15Z"/><path class="b" d="M3.352,8.433a0.109,0.109,0,0,1-.1-0.054c0-.027.02-0.061,0.107-0.061a0.768,0.768,0,0,1,.274.061L3.619,8.1a1.2,1.2,0,0,0-.347-0.061,0.377,0.377,0,0,0-.413.337V8.385a0.314,0.314,0,0,0,.314.3,0.158,0.158,0,0,1,.154.08c0,0.054-.054.067-0.107,0.067A0.8,0.8,0,0,1,2.852,8.76v0.3a1.053,1.053,0,0,0,.381.074,0.407,0.407,0,0,0,.5-0.37A0.393,0.393,0,0,0,3.352,8.433Z"/><path class="b" d="M4.219,8.8V8.352H4.427V8.06H4.207V7.6l-0.381.2V8.06H3.692V8.371H3.826V8.86a0.354,0.354,0,0,0,.6.2V8.8C4.367,8.86,4.219,8.871,4.219,8.8Z"/><rect class="b" x="2.382" y="8.063" width="0.401" height="1.05"/><path class="b" d="M2.583,7.6a0.209,0.209,0,0,0-.207.208,0.216,0.216,0,0,0,.207.222,0.223,0.223,0,0,0,.225-0.221h0A0.215,0.215,0,0,0,2.586,7.6h0Z"/><path class="b" d="M9.671,8.433a0.109,0.109,0,0,1-.1-0.054c0-.027.02-0.061,0.113-0.061a0.8,0.8,0,0,1,.274.061L9.938,8.1a1.2,1.2,0,0,0-.347-0.061,0.377,0.377,0,0,0-.413.337V8.385a0.314,0.314,0,0,0,.314.3,0.158,0.158,0,0,1,.154.08c0,0.054-.054.067-0.107,0.067A0.8,0.8,0,0,1,9.171,8.76v0.3a1.053,1.053,0,0,0,.381.074,0.414,0.414,0,0,0,.508-0.37A0.4,0.4,0,0,0,9.671,8.433Z"/><path class="b" d="M6.725,8.36a0.811,0.811,0,0,0,.84.781h0A0.843,0.843,0,0,0,8,9.033V8.683A0.573,0.573,0,0,1,7.6,8.8a0.476,0.476,0,0,1-.481-0.424A0.43,0.43,0,0,1,7.6,7.916a0.544,0.544,0,0,1,.394.121V7.673A0.931,0.931,0,0,0,7.54,7.579a0.779,0.779,0,0,0-.814.742Q6.725,8.341,6.725,8.36Z"/><path class="b" d="M8.174,8.1l-0.053.29A1.184,1.184,0,0,1,8.636,8.3c0.127,0.006.086,0.107-.014,0.107a0.512,0.512,0,0,0-.561.343c-0.087.471,0.514,0.431,0.675,0.329L8.749,9.107H9.108V8.379C9.108,8.036,8.563,7.969,8.174,8.1ZM8.723,8.77c0,0.148-.281.182-0.281,0.034s0.207-.169.281-0.162V8.77Z"/><path class="b" d="M10.487,8.144V7.6H10.113V9.126h0.374v-0.6a0.154,0.154,0,0,1,.308,0v0.6h0.381V8.432A0.413,0.413,0,0,0,10.487,8.144Z"/></svg>