<?xml version="1.0" encoding="utf-8"?>
<!-- Generator: Adobe Illustrator 18.1.1, SVG Export Plug-In . SVG Version: 6.00 Build 0)  -->
<!DOCTYPE svg PUBLIC "-//W3C//DTD SVG 1.1//EN" "http://www.w3.org/Graphics/SVG/1.1/DTD/svg11.dtd">
<svg version="1.1" id="Laag_1" xmlns="http://www.w3.org/2000/svg" xmlns:xlink="http://www.w3.org/1999/xlink" x="0px" y="0px"
	 width="12px" height="12px" viewBox="0 0 12 12" enable-background="new 0 0 12 12" xml:space="preserve">
<path fill="#FFFFFF" d="M10.87,6.27L9.349,5.364l0.862-1.544L8.446,3.795L8.421,2.027L6.874,2.889l-0.907-1.52l-0.904,1.52
	L3.521,2.027L3.498,3.795L1.727,3.819L2.59,5.364L1.071,6.27L2.59,7.176L1.727,8.72l1.771,0.024l0.023,1.769L5.065,9.65l0.904,1.52
	l0.908-1.52l1.545,0.863l0.025-1.769l1.766-0.024L9.35,7.176L10.87,6.27z M5.729,8.909c-0.409,0-0.706-0.287-0.706-0.697
	c0-0.387,0.289-0.707,0.722-0.707c0.441,0,0.686,0.319,0.686,0.707C6.433,8.621,6.122,8.909,5.729,8.909z M6.286,7.1
	c0,0-0.106,0.034-0.434,0.034c-0.33,0-0.436-0.034-0.436-0.034l0.131-3.369c0,0,0.197-0.099,0.696-0.099
	c0.485,0,0.674,0.099,0.674,0.099L6.286,7.1z"/>
</svg>
