<?xml version="1.0" encoding="utf-8"?>
<!-- Generator: Adobe Illustrator 18.1.1, SVG Export Plug-In . SVG Version: 6.00 Build 0)  -->
<!DOCTYPE svg PUBLIC "-//W3C//DTD SVG 1.1//EN" "http://www.w3.org/Graphics/SVG/1.1/DTD/svg11.dtd">
<svg version="1.1" id="Laag_1" xmlns="http://www.w3.org/2000/svg" xmlns:xlink="http://www.w3.org/1999/xlink" x="0px" y="0px"
	 width="12px" height="12px" viewBox="0 0 12 12" enable-background="new 0 0 12 12" xml:space="preserve">
<g>
	<g>
		<path fill="#FFFFFF" d="M1.961,8.798c0.789,0.224,0.617,0.175,2.144,0.608l0.547-1.214c0,0,0,2.454,0,2.947
			c-0.081-0.017-1.759-0.478-2.538-0.7C2.051,10.42,1.97,10.377,1.97,10.345C1.96,9.87,1.961,9.3,1.961,8.798z"/>
		<path fill="#FFFFFF" d="M7.572,8.798C6.777,9.025,5.451,9.402,5.451,9.402l-0.536-1.21c0,0,0,2.454,0,2.947
			c0.079-0.017,1.733-0.478,2.508-0.7c0.066-0.018,0.146-0.061,0.146-0.094C7.576,9.87,7.572,9.3,7.572,8.798z"/>
		<path fill="#FFFFFF" d="M3.952,9.175c0,0-2.8-0.78-2.814-0.776C1.123,8.408,1.961,6.843,1.961,6.843l2.767,0.766L3.952,9.175z"/>
		<path fill="#FFFFFF" d="M3.143,5.074C3.136,5.013,3.135,4.953,3.131,4.892L0.854,5.525l1.107,1.23l1.578-0.446
			C3.328,5.933,3.192,5.515,3.143,5.074z"/>
		<path fill="#FFFFFF" d="M7.091,7.888C6.34,8.058,5.547,7.945,4.869,7.593L4.811,7.609l0.79,1.566l2.812-0.783L7.98,7.535
			C7.701,7.696,7.403,7.818,7.091,7.888z"/>
	</g>
	<g>
		<g>
			<path fill="#FFFFFF" d="M11.085,7.918L9.056,6.195C9.825,4.906,9.557,3.212,8.35,2.246C7.618,1.659,6.674,1.441,5.755,1.649
				C5.083,1.801,4.474,2.181,4.045,2.72C3.532,3.36,3.298,4.16,3.389,4.97c0.09,0.814,0.491,1.543,1.129,2.057
				c0.733,0.587,1.677,0.805,2.595,0.597C7.628,7.509,8.103,7.255,8.49,6.906l2.03,1.719c0.095,0.079,0.277,0.016,0.403-0.141
				l0.114-0.141C11.16,8.186,11.182,7.996,11.085,7.918z M8.066,5.944C7.767,6.318,7.364,6.57,6.9,6.675
				C6.271,6.816,5.63,6.668,5.128,6.268c-0.9-0.721-1.044-2.039-0.323-2.939C5.104,2.957,5.507,2.704,5.972,2.6
				c0.625-0.141,1.272,0.006,1.771,0.408C8.641,3.728,8.785,5.046,8.066,5.944z"/>
		</g>
	</g>
</g>
</svg>
