<?xml version="1.0" encoding="utf-8"?>
<!-- Generator: Adobe Illustrator 18.1.1, SVG Export Plug-In . SVG Version: 6.00 Build 0)  -->
<!DOCTYPE svg PUBLIC "-//W3C//DTD SVG 1.1//EN" "http://www.w3.org/Graphics/SVG/1.1/DTD/svg11.dtd">
<svg version="1.1" id="Laag_1" xmlns="http://www.w3.org/2000/svg" xmlns:xlink="http://www.w3.org/1999/xlink" x="0px" y="0px"
	 width="12px" height="12px" viewBox="0 0 12 12" enable-background="new 0 0 12 12" xml:space="preserve">
<path fill="#585858" d="M9.037,1.237H3.116c-0.533,0-0.969,0.436-0.969,0.969v7.659c0,0.533,0.436,0.969,0.969,0.969h5.921
	c0.533,0,0.969-0.436,0.969-0.969V2.206C10.006,1.673,9.57,1.237,9.037,1.237z M4.492,9.365c-0.29,0-0.527-0.234-0.527-0.525
	c0-0.29,0.235-0.525,0.527-0.525c0.29,0,0.524,0.235,0.524,0.525C5.016,9.131,4.781,9.365,4.492,9.365z M4.515,7.835
	C4.226,7.835,3.99,7.6,3.99,7.31c0-0.292,0.236-0.528,0.525-0.528c0.29,0,0.527,0.235,0.527,0.528C5.04,7.6,4.806,7.835,4.515,7.835
	z M4.531,6.274c-0.292,0-0.527-0.235-0.527-0.525c0-0.29,0.235-0.528,0.527-0.528c0.289,0,0.524,0.238,0.524,0.528
	C5.054,6.038,4.819,6.274,4.531,6.274z M6.038,9.365c-0.29,0-0.527-0.234-0.527-0.525c0-0.29,0.236-0.525,0.527-0.525
	S6.563,8.549,6.563,8.84C6.563,9.131,6.329,9.365,6.038,9.365z M6.062,7.835c-0.291,0-0.527-0.235-0.527-0.525
	c0-0.292,0.236-0.528,0.527-0.528c0.289,0,0.525,0.235,0.525,0.528C6.586,7.6,6.351,7.835,6.062,7.835z M6.075,6.274
	c-0.289,0-0.525-0.235-0.525-0.525c0-0.29,0.236-0.528,0.525-0.528c0.29,0,0.527,0.238,0.527,0.528
	C6.602,6.038,6.366,6.274,6.075,6.274z M7.629,9.365c-0.29,0-0.526-0.234-0.526-0.525c0-0.29,0.234-0.525,0.526-0.525
	c0.29,0,0.527,0.235,0.527,0.525C8.155,9.131,7.918,9.365,7.629,9.365z M7.652,7.835c-0.29,0-0.527-0.235-0.527-0.525
	c0-0.292,0.235-0.528,0.527-0.528c0.29,0,0.526,0.235,0.526,0.528C8.178,7.6,7.943,7.835,7.652,7.835z M7.652,6.274
	c-0.29,0-0.527-0.235-0.527-0.525c0-0.29,0.235-0.528,0.527-0.528c0.29,0,0.526,0.238,0.526,0.528
	C8.178,6.038,7.943,6.274,7.652,6.274z M8.403,3.99H3.739c-0.435,0-0.79-0.354-0.79-0.791c0-0.438,0.355-0.791,0.79-0.791h4.664
	c0.437,0,0.794,0.354,0.794,0.791C9.197,3.635,8.841,3.99,8.403,3.99z"/>
</svg>
