<svg xmlns="http://www.w3.org/2000/svg" width="12" height="12" viewBox="0 0 12 12">
  <defs>
    <style>
      .a {
        fill: #fff;
      }

      .b {
        fill: #d7d7d7;
      }

      .c {
        fill: #004589;
      }

      .d {
        fill: #acd7f3;
      }

      .e {
        fill: #52b7e8;
      }
    </style>
  </defs>
  <title>CarteBleue</title>
  <g>
    <g>
      <path class="a" d="M1.294,2.4h9.414a0.8,0.8,0,0,1,.8.8h0V8.8a0.8,0.8,0,0,1-.8.8H1.295a0.8,0.8,0,0,1-.8-0.8h0V3.2A0.8,0.8,0,0,1,1.294,2.4Z"/>
      <path class="b" d="M10.708,2H1.294a1.2,1.2,0,0,0-1.2,1.2h0V8.8a1.2,1.2,0,0,0,1.2,1.2h9.414a1.2,1.2,0,0,0,1.2-1.2V3.2A1.2,1.2,0,0,0,10.708,2Zm0.8,6.8a0.8,0.8,0,0,1-.8.8H1.294a0.8,0.8,0,0,1-.8-0.8h0V3.2a0.8,0.8,0,0,1,.8-0.8h9.414a0.8,0.8,0,0,1,.8.8h0V8.8Z"/>
    </g>
    <path class="c" d="M9.867,3.783H3.148a2.19,2.19,0,0,1,.838,1.546A2.521,2.521,0,0,1,2.413,7.644H9.867a0.678,0.678,0,0,0,.676-0.676V4.46A0.677,0.677,0,0,0,9.867,3.783Z"/>
    <path class="c" d="M3.987,5.329a2.188,2.188,0,0,0-.838-1.546H1.442a0.678,0.678,0,0,0-.676.676V6.967a0.678,0.678,0,0,0,.676.676H2.415A2.522,2.522,0,0,0,3.987,5.329Z"/>
    <path class="a" d="M2.067,4.212H2.751c0.417,0,.739.1,0.739,0.43a0.394,0.394,0,0,1-.337.374V5.027a0.417,0.417,0,0,1,.436.4v0h0a0.634,0.634,0,0,1-.731.519L2.81,5.936H2.067V4.212h0Zm0.663,0.7c0.221,0,.319-0.082.319-0.212S2.944,4.514,2.735,4.514H2.521V4.909H2.729v0Zm0.043,0.73c0.245,0,.374-0.079.374-0.236S3.021,5.185,2.773,5.185H2.521V5.638H2.773v0Z"/>
    <path class="a" d="M3.8,4.212H4.251v1.4H5.039v0.33H4.292a0.745,0.745,0,0,1-.4-0.085,0.514,0.514,0,0,1-.1-0.319V4.212H3.8Z"/>
    <path class="a" d="M6.765,4.212H7.253V5.18c0,0.34.133,0.456,0.376,0.456A0.367,0.367,0,0,0,8.016,5.18V4.212H8.488V5.14a0.742,0.742,0,0,1-.859.833A0.745,0.745,0,0,1,6.765,5.14V4.212h0Z"/>
    <path class="a" d="M5.257,4.212h1.25V4.541h-0.8V4.889h0.8V5.215h-0.8v0.4H6.541V5.942H5.771a0.7,0.7,0,0,1-.4-0.1,0.5,0.5,0,0,1-.119-0.326v-1.3h0Z"/>
    <path class="a" d="M8.719,4.212H9.975V4.541h-0.8V4.889h0.8V5.215h-0.8v0.4h0.833V5.942H9.233a0.7,0.7,0,0,1-.4-0.1,0.511,0.511,0,0,1-.119-0.326v-1.3h0Z"/>
    <path class="a" d="M1.471,4.563l0.1,0.03a0.207,0.207,0,0,1-.074.12,0.21,0.21,0,0,1-.131.039A0.214,0.214,0,0,1,1.2,4.685,0.256,0.256,0,0,1,1.137,4.5,0.264,0.264,0,0,1,1.2,4.31a0.219,0.219,0,0,1,.168-0.068,0.2,0.2,0,0,1,.147.054,0.209,0.209,0,0,1,.051.091l-0.1.023A0.123,0.123,0,0,0,1.43,4.349a0.1,0.1,0,0,0-.067-0.022,0.116,0.116,0,0,0-.089.039,0.2,0.2,0,0,0-.035.129,0.207,0.207,0,0,0,.034.134,0.11,0.11,0,0,0,.088.039,0.1,0.1,0,0,0,.068-0.025A0.158,0.158,0,0,0,1.471,4.563Z"/>
    <path class="a" d="M1.6,5.393H1.493L1.45,5.281H1.25l-0.042.112h-0.1L1.3,4.9H1.407ZM1.417,5.2L1.348,5.014,1.282,5.2H1.417Z"/>
    <path class="a" d="M1.154,6.042V5.547h0.21a0.35,0.35,0,0,1,.115.014,0.112,0.112,0,0,1,.058.048,0.151,0.151,0,0,1-.011.17,0.156,0.156,0,0,1-.1.046,0.226,0.226,0,0,1,.054.041,0.6,0.6,0,0,1,.057.08l0.06,0.1H1.481l-0.073-.11a0.653,0.653,0,0,0-.052-0.073,0.091,0.091,0,0,0-.03-0.021,0.152,0.152,0,0,0-.051-0.006H1.256V6.042h-0.1Zm0.1-.285H1.33a0.389,0.389,0,0,0,.09-0.006A0.054,0.054,0,0,0,1.448,5.73a0.062,0.062,0,0,0,.01-0.037,0.057,0.057,0,0,0-.014-0.04,0.063,0.063,0,0,0-.036-0.02,0.47,0.47,0,0,0-.073,0H1.254V5.757h0Z"/>
    <path class="a" d="M1.266,6.691V6.28H1.119V6.2H1.512V6.28H1.366V6.691h-0.1Z"/>
    <path class="a" d="M1.154,7.339V6.845H1.521V6.929H1.254V7.038H1.5V7.121H1.254V7.256H1.529V7.339H1.154Z"/>
    <path class="d" d="M10.573,6.724H10.556V6.967a0.678,0.678,0,0,1-.676.676H1.98V7.862a0.678,0.678,0,0,0,.676.676h7.919a0.678,0.678,0,0,0,.676-0.676V7.4A0.678,0.678,0,0,0,10.573,6.724Z"/>
    <path class="e" d="M10.556,6.968V6.724h-7.9a0.678,0.678,0,0,0-.678.676V7.643h7.9A0.677,0.677,0,0,0,10.556,6.968Z"/>
  </g>
</svg>
