<svg xmlns="http://www.w3.org/2000/svg" width="12" height="12" viewBox="0 0 12 12">
  <defs>
    <style>
      .a {
        fill: #fff;
      }

      .b {
        fill: #d7d7d7;
      }

      .c {
        fill: #004589;
      }

      .d {
        fill: #acd7f3;
      }

      .e {
        fill: #52b7e8;
      }
    </style>
  </defs>
  <title>ECarteBleue</title>
  <g>
    <g>
      <path class="a" d="M1.294,2.4h9.414a0.8,0.8,0,0,1,.8.8h0V8.8a0.8,0.8,0,0,1-.8.8H1.295a0.8,0.8,0,0,1-.8-0.8h0V3.2A0.8,0.8,0,0,1,1.294,2.4Z"/>
      <path class="b" d="M10.708,2H1.294a1.2,1.2,0,0,0-1.2,1.2h0V8.8a1.2,1.2,0,0,0,1.2,1.2h9.414a1.2,1.2,0,0,0,1.2-1.2V3.2A1.2,1.2,0,0,0,10.708,2Zm0.8,6.8a0.8,0.8,0,0,1-.8.8H1.294a0.8,0.8,0,0,1-.8-0.8h0V3.2a0.8,0.8,0,0,1,.8-0.8h9.414a0.8,0.8,0,0,1,.8.8h0V8.8Z"/>
    </g>
    <path class="c" d="M3.129,7.24H1.017A0.343,0.343,0,0,1,.677,6.9V4.8a0.343,0.343,0,0,1,.341-0.342H3.129A0.343,0.343,0,0,1,3.47,4.8V6.9a0.341,0.341,0,0,1-.34.342h0v0Z"/>
    <path class="c" d="M10.363,4.464H5.532a1.574,1.574,0,0,1,.6,1.112A1.812,1.812,0,0,1,5,7.24h5.361a0.487,0.487,0,0,0,.486-0.483v-1.8a0.488,0.488,0,0,0-.483-0.493h0Z"/>
    <path class="c" d="M6.132,5.576a1.578,1.578,0,0,0-.6-1.112H4.308a0.487,0.487,0,0,0-.486.486V6.757a0.487,0.487,0,0,0,.486.486h0.7A1.811,1.811,0,0,0,6.132,5.576Z"/>
    <path class="a" d="M4.752,4.772H5.244c0.3,0,.531.071,0.531,0.309a0.284,0.284,0,0,1-.243.269V5.357a0.3,0.3,0,0,1,.314.285h0V5.648a0.456,0.456,0,0,1-.526.373L5.287,6.014H4.752V4.772Zm0.477,0.5c0.158,0,.229-0.059.229-0.153s-0.075-.13-0.225-0.13H5.08V5.273H5.229ZM5.26,5.8c0.176,0,.269-0.057.269-0.169s-0.092-.157-0.27-0.157H5.08V5.8H5.26Z"/>
    <path class="a" d="M6,4.772H6.323V5.779H6.89V6.015H6.355a0.535,0.535,0,0,1-.284-0.058A0.359,0.359,0,0,1,6,5.726V4.772H6Z"/>
    <path class="a" d="M8.132,4.772H8.483v0.7a0.282,0.282,0,1,0,.549,0v-0.7h0.34V5.439a0.533,0.533,0,0,1-.617.6,0.536,0.536,0,0,1-.622-0.6V4.772h0Z"/>
    <path class="a" d="M7.047,4.772h0.9V5.008H7.372V5.257H7.948V5.492H7.372V5.779h0.6V6.015H7.415a0.493,0.493,0,0,1-.284-0.073,0.358,0.358,0,0,1-.086-0.233V4.772h0Z"/>
    <path class="a" d="M9.537,4.772h0.9V5.008H9.862V5.257h0.575V5.492H9.862V5.779h0.6V6.015H9.907a0.493,0.493,0,0,1-.284-0.073,0.362,0.362,0,0,1-.087-0.233V4.772h0Z"/>
    <path class="a" d="M4.324,5.024l0.07,0.023a0.167,0.167,0,0,1-.054.087,0.15,0.15,0,0,1-.094.028A0.152,0.152,0,0,1,4.13,5.114a0.183,0.183,0,0,1-.046-0.132A0.2,0.2,0,0,1,4.13,4.844,0.159,0.159,0,0,1,4.251,4.8a0.151,0.151,0,0,1,.106.038,0.14,0.14,0,0,1,.036.065L4.32,4.916a0.073,0.073,0,0,0-.075-0.059,0.081,0.081,0,0,0-.064.029,0.135,0.135,0,0,0-.025.092,0.144,0.144,0,0,0,.025.1,0.079,0.079,0,0,0,.063.029,0.072,0.072,0,0,0,.049-0.018A0.108,0.108,0,0,0,4.324,5.024Z"/>
    <path class="a" d="M4.417,5.621H4.339L4.308,5.54H4.166l-0.03.081H4.06L4.2,5.266H4.276Zm-0.132-.14L4.237,5.349,4.19,5.481H4.285Z"/>
    <path class="a" d="M4.1,6.088V5.733H4.25a0.24,0.24,0,0,1,.083.01,0.076,0.076,0,0,1,.041.034,0.1,0.1,0,0,1,.016.056,0.094,0.094,0,0,1-.024.066,0.118,0.118,0,0,1-.071.033,0.133,0.133,0,0,1,.038.025,0.461,0.461,0,0,1,.041.058L4.416,6.089H4.33L4.278,6.012A0.473,0.473,0,0,0,4.24,5.957a0.044,0.044,0,0,0-.022-0.015,0.111,0.111,0,0,0-.036,0H4.168V6.09H4.1v0Zm0.072-.2H4.223a0.288,0.288,0,0,0,.065,0,0.035,0.035,0,0,0,.02-0.024,0.045,0.045,0,0,0,.007-0.027,0.039,0.039,0,0,0-.007-0.029,0.038,0.038,0,0,0-.03-0.016H4.17V5.883h0V5.888h0Z"/>
    <path class="a" d="M4.178,6.557v-0.3H4.073V6.2H4.355V6.257H4.25v0.3H4.178Z"/>
    <path class="a" d="M4.1,7.022V6.666H4.362v0.06H4.17V6.8H4.348V6.86H4.17v0.1h0.2v0.06H4.1V7.022Z"/>
    <path class="d" d="M10.87,6.579H10.856V6.757a0.487,0.487,0,0,1-.486.486H4.689V7.4a0.487,0.487,0,0,0,.486.486h5.694A0.487,0.487,0,0,0,11.355,7.4V7.064a0.484,0.484,0,0,0-.483-0.485h0Z"/>
    <path class="e" d="M10.858,6.757V6.579H5.174a0.487,0.487,0,0,0-.486.486V7.24H10.37A0.487,0.487,0,0,0,10.858,6.757Z"/>
    <path class="a" d="M1.8,4.77a0.774,0.774,0,0,1,.811.856V5.849H1.445a0.455,0.455,0,0,0,.5.389H2.6v0.4H1.869A0.9,0.9,0,0,1,.9,5.7a0.9,0.9,0,0,1,.864-0.934H1.8v0ZM2.129,5.521a0.3,0.3,0,0,0-.322-0.348,0.368,0.368,0,0,0-.369.348H2.129Z"/>
    <rect class="a" x="2.849" y="6.241" width="0.389" height="0.399"/>
  </g>
</svg>
