<?xml version="1.0" encoding="utf-8"?>
<!-- Generator: Adobe Illustrator 18.1.1, SVG Export Plug-In . SVG Version: 6.00 Build 0)  -->
<!DOCTYPE svg PUBLIC "-//W3C//DTD SVG 1.1//EN" "http://www.w3.org/Graphics/SVG/1.1/DTD/svg11.dtd">
<svg version="1.1" id="Laag_1" xmlns="http://www.w3.org/2000/svg" xmlns:xlink="http://www.w3.org/1999/xlink" x="0px" y="0px"
	 width="12px" height="12px" viewBox="0 0 12 12" enable-background="new 0 0 12 12" xml:space="preserve">
<g>
	<g id="cJ2PLC_1_">
		<g>
			<path fill="#585858" d="M4.271,5.605c0.001,0,0.002,0,0.003,0c0.442-0.002,0.77-0.32,0.781-0.764
				c0.01-0.419-0.323-0.78-0.772-0.782c-0.001,0-0.002,0-0.004,0c-0.431,0-0.78,0.37-0.766,0.76
				C3.501,5.274,3.868,5.605,4.271,5.605"/>
		</g>
	</g>
	<g>
		<path fill="#585858" d="M9.064,7.959c-0.009-0.043-0.011-0.08-0.026-0.111C8.85,7.464,8.661,7.081,8.468,6.699
			c-0.345-0.681-0.693-1.361-1.041-2.04c-0.013-0.026-0.04-0.046-0.06-0.069c-0.018,0.021-0.042,0.04-0.053,0.065
			C7.068,5.161,6.822,5.666,6.58,6.173C6.542,6.252,6.511,6.26,6.439,6.207c-0.241-0.174-0.488-0.341-0.732-0.51
			C5.6,5.623,5.601,5.622,5.535,5.735C5.309,6.121,5.081,6.505,4.86,6.894C4.816,6.971,4.774,6.968,4.717,6.929
			c-0.17-0.113-0.342-0.223-0.505-0.345C4.138,6.528,4.101,6.543,4.047,6.605C3.688,7.018,3.326,7.428,2.966,7.839
			C2.939,7.87,2.92,7.907,2.885,7.959C4.956,7.959,7.004,7.959,9.064,7.959z"/>
	</g>
	<path fill="#585858" d="M9.611,9.8H2.27C1.845,9.8,1.5,9.455,1.5,9.03V2.983c0-0.425,0.345-0.77,0.77-0.77h7.341
		c0.425,0,0.77,0.345,0.77,0.77V9.03C10.382,9.455,10.036,9.8,9.611,9.8z M2.27,2.726c-0.142,0-0.257,0.115-0.257,0.257V9.03
		c0,0.141,0.115,0.257,0.257,0.257h7.341c0.141,0,0.257-0.115,0.257-0.257V2.983c0-0.142-0.115-0.257-0.257-0.257H2.27z"/>
</g>
</svg>
