<?xml version="1.0" encoding="utf-8"?>
<!-- Generator: Adobe Illustrator 18.1.1, SVG Export Plug-In . SVG Version: 6.00 Build 0)  -->
<!DOCTYPE svg PUBLIC "-//W3C//DTD SVG 1.1//EN" "http://www.w3.org/Graphics/SVG/1.1/DTD/svg11.dtd">
<svg version="1.1" id="Laag_1" xmlns="http://www.w3.org/2000/svg" xmlns:xlink="http://www.w3.org/1999/xlink" x="0px" y="0px"
	 width="12px" height="12px" viewBox="0 0 12 12" enable-background="new 0 0 12 12" xml:space="preserve">
<g>
	<path fill="#00AAEE" d="M4.665,9.97h2.67c0.456,0,0.826-0.371,0.826-0.827V1.804c0-0.456-0.371-0.827-0.826-0.827h-2.67
		c-0.456,0-0.827,0.371-0.827,0.827v7.339C3.839,9.599,4.209,9.97,4.665,9.97z M4.399,1.804c0-0.146,0.119-0.266,0.266-0.266h2.67
		c0.146,0,0.266,0.119,0.266,0.266v7.339c0,0.146-0.119,0.266-0.266,0.266h-2.67c-0.147,0-0.266-0.119-0.266-0.266V1.804z"/>
	<rect x="3.379" y="10.32" fill="#00AAEE" width="5.243" height="0.561"/>
</g>
</svg>
