<?xml version="1.0" encoding="utf-8"?>
<!-- Generator: Adobe Illustrator 18.1.1, SVG Export Plug-In . SVG Version: 6.00 Build 0)  -->
<!DOCTYPE svg PUBLIC "-//W3C//DTD SVG 1.1//EN" "http://www.w3.org/Graphics/SVG/1.1/DTD/svg11.dtd">
<svg version="1.1" id="Laag_1" xmlns="http://www.w3.org/2000/svg" xmlns:xlink="http://www.w3.org/1999/xlink" x="0px" y="0px"
	 width="12px" height="12px" viewBox="0 0 12 12" enable-background="new 0 0 12 12" xml:space="preserve">
<g id="OMkXtH_2_">
	<g>
		<path fill="#00AAEE" d="M6.003,2.874C6.091,2.659,6.155,2.44,6.265,2.247C6.396,2.015,6.541,1.78,6.724,1.59
			C7.032,1.274,7.42,1.216,7.819,1.406c0.367,0.174,0.66,0.426,0.712,0.866c0.03,0.241-0.051,0.453-0.179,0.651
			c-0.185,0.285-0.44,0.498-0.708,0.698C7.604,3.65,7.565,3.678,7.487,3.736c0.092,0,0.141,0,0.192,0c0.735,0,1.471-0.001,2.206,0
			c0.312,0.001,0.441,0.123,0.442,0.434c0.004,0.617,0.003,1.235,0.001,1.852c-0.001,0.294-0.105,0.395-0.456,0.441
			c0,0.058,0,0.12,0,0.182c0,1.352,0,2.705,0,4.058c-0.001,0.336-0.126,0.463-0.463,0.463c-2.377,0.002-4.753,0.002-7.13,0.001
			c-0.291,0-0.423-0.144-0.423-0.458c-0.001-1.328,0-2.656-0.001-3.985c0-0.087,0-0.173,0-0.267
			C1.809,6.454,1.781,6.451,1.752,6.449c-0.214-0.017-0.35-0.159-0.35-0.375c-0.003-0.647-0.003-1.295,0-1.941
			c0-0.257,0.142-0.396,0.405-0.396C2.61,3.735,3.415,3.736,4.218,3.736c0.077,0,0.153,0,0.274,0
			c-0.153-0.103-0.27-0.179-0.383-0.259C3.781,3.25,3.478,2.995,3.255,2.658c-0.338-0.512-0.289-1.059,0.14-1.501
			C3.621,0.923,3.882,0.745,4.216,0.71c0.437-0.044,0.751,0.174,1.007,0.495c0.369,0.46,0.568,1.002,0.74,1.555
			C5.976,2.797,5.988,2.833,6.003,2.874z M2.42,10.782c0.879,0,2.09,0,2.955,0c0-1.438,0-3.216,0-4.645c-0.875,0-2.09,0-2.955,0
			C2.42,7.574,2.42,9.349,2.42,10.782z M6.744,6.132c0,1.443,0,3.218,0,4.651c0.859,0,1.711,0,2.569,0c0-1.436,0-3.215,0-4.651
			C8.453,6.132,7.603,6.132,6.744,6.132z M5.376,5.682c0-0.412,0-1.157,0-1.556c-1.025,0-2.391,0-3.408,0c0,0.407,0,1.155,0,1.556
			C2.992,5.682,4.354,5.682,5.376,5.682z M9.775,4.125c-1.017,0-2.019,0-3.031,0c0,0.404,0,1.149,0,1.551c1.014,0,2.019,0,3.031,0
			C9.775,5.272,9.775,4.532,9.775,4.125z M5.501,3.376c0.01-0.013,0.019-0.025,0.03-0.038C5.528,3.32,5.53,3.3,5.526,3.281
			C5.402,2.813,5.259,2.349,5.019,1.924c-0.078-0.139-0.178-0.271-0.29-0.383c-0.061-0.06-0.175-0.103-0.261-0.098
			C4.06,1.469,3.822,1.968,4.067,2.292c0.119,0.157,0.264,0.307,0.424,0.422C4.818,2.947,5.164,3.156,5.501,3.376z M6.808,3.404
			C6.98,3.298,7.12,3.218,7.253,3.128c0.129-0.088,0.26-0.176,0.374-0.281c0.118-0.108,0.222-0.232,0.319-0.359
			C8.003,2.416,8.007,2.33,7.94,2.247C7.71,1.963,7.466,1.965,7.261,2.264C7.031,2.598,6.922,2.982,6.808,3.404z"/>
	</g>
</g>
</svg>
