<?xml version="1.0" encoding="utf-8"?>
<!-- Generator: Adobe Illustrator 18.1.1, SVG Export Plug-In . SVG Version: 6.00 Build 0)  -->
<!DOCTYPE svg PUBLIC "-//W3C//DTD SVG 1.1//EN" "http://www.w3.org/Graphics/SVG/1.1/DTD/svg11.dtd">
<svg version="1.1" id="Laag_1" xmlns="http://www.w3.org/2000/svg" xmlns:xlink="http://www.w3.org/1999/xlink" x="0px" y="0px"
	 width="12px" height="12px" viewBox="0 0 12 12" enable-background="new 0 0 12 12" xml:space="preserve">
<path fill="#00AAEE" d="M6.476,10.916H5.523c-0.339,0-0.615-0.276-0.615-0.616v-0.256H2.601c-0.19,0-0.351-0.098-0.43-0.263
	c-0.104-0.216-0.048-0.51,0.142-0.749l1.226-1.537h-0.45c-0.179,0-0.33-0.093-0.405-0.249C2.588,7.048,2.637,6.779,2.81,6.562
	l1.611-2.02H3.878c-0.161,0-0.297-0.084-0.364-0.225c-0.083-0.172-0.043-0.4,0.101-0.581l2.052-2.572
	c0.17-0.213,0.508-0.213,0.677,0l2.052,2.571C8.533,3.906,8.568,4.14,8.483,4.317C8.416,4.456,8.282,4.542,8.132,4.542H7.593
	l1.611,2.02c0.163,0.204,0.206,0.48,0.107,0.687C9.237,7.403,9.093,7.495,8.926,7.495H8.478l1.226,1.537
	c0.179,0.225,0.227,0.526,0.119,0.751c-0.079,0.164-0.231,0.261-0.407,0.261H7.092V10.3C7.092,10.64,6.815,10.916,6.476,10.916z
	 M2.703,9.477h2.773V10.3c0,0.026,0.022,0.048,0.047,0.048h0.953c0.026,0,0.048-0.022,0.048-0.048V9.477h2.782
	C9.299,9.449,9.285,9.418,9.26,9.386L7.298,6.927h1.471C8.766,6.923,8.763,6.919,8.761,6.916L6.414,3.974h1.439L6.005,1.651
	L4.152,3.974h1.449L3.254,6.916C3.251,6.919,3.248,6.923,3.245,6.927h1.474L2.757,9.386C2.731,9.419,2.714,9.45,2.703,9.477z"/>
</svg>
