<?xml version="1.0" encoding="utf-8"?>
<!-- Generator: Adobe Illustrator 18.1.1, SVG Export Plug-In . SVG Version: 6.00 Build 0)  -->
<!DOCTYPE svg PUBLIC "-//W3C//DTD SVG 1.1//EN" "http://www.w3.org/Graphics/SVG/1.1/DTD/svg11.dtd">
<svg version="1.1" id="Laag_1" xmlns="http://www.w3.org/2000/svg" xmlns:xlink="http://www.w3.org/1999/xlink" x="0px" y="0px"
	 width="12px" height="12px" viewBox="0 0 12 12" enable-background="new 0 0 12 12" xml:space="preserve">
<g>
	<path fill="#00AAEE" d="M7.547,11.245c-0.407,0-0.727-0.26-0.727-0.591v-4.8C6.775,5.721,6.607,5.43,5.984,5.09
		C5.885,5.019,5.655,4.802,5.542,4.118l0.075-2.82l0.062-0.072c0.032-0.038,0.151-0.161,0.33-0.161c0.075,0,0.218,0.024,0.328,0.183
		l0.039,0.085L6.72,2.659l0.236-1.37C7.032,1.003,7.189,0.847,7.38,0.847c0.085,0,0.208,0.031,0.316,0.179l0.046,0.102l0.337,1.587
		l0.244-1.369c0.001-0.07,0.016-0.181,0.097-0.268L8.5,0.991l0.157-0.017c0.168,0,0.304,0.122,0.415,0.242l0.056,0.06
		c0,0,0.335,2.012,0.335,2.164S9.432,4.268,9.388,4.464s-0.353,0.641-0.57,0.803C8.709,5.353,8.414,5.606,8.274,5.816v4.838
		C8.274,10.986,7.954,11.245,7.547,11.245z M6.278,4.636c0.758,0.422,1.066,1.042,1.07,1.133C7.36,6.042,7.36,10.654,7.36,10.654
		c0.008,0.005,0.078,0.052,0.188,0.052s0.18-0.047,0.191-0.066c0,0-0.018-4.671-0.003-4.905C7.75,5.5,8.436,4.882,8.49,4.84
		c0.084-0.063,0.323-0.362,0.385-0.507C8.938,4.188,8.92,3.47,8.92,3.47l-0.2-1.288L8.507,3.376l-0.062,0.06
		c-0.117,0.113-0.24,0.17-0.367,0.17c-0.222,0-0.378-0.176-0.435-0.35L7.377,2.011L7.144,3.297C7.054,3.471,6.922,3.672,6.7,3.672
		c-0.217,0-0.367-0.187-0.401-0.5L6.122,2.496L6.078,4.082C6.14,4.439,6.244,4.594,6.278,4.636z"/>
	<path fill="#00AAEE" d="M3.81,11.285c-0.375,0-0.715-0.244-0.715-0.512l0.01-4.393C3.101,5.929,3.007,5.387,2.584,5.387
		L2.413,5.386L2.331,5.303c-0.106-0.111-0.135-0.141-0.08-2.368c0.006-0.23,0.01-0.406,0.01-0.474c0-0.421,0.588-0.763,0.841-0.89
		L4.588,0.8v5.58l-0.031,4.395C4.557,11.066,4.162,11.285,3.81,11.285z M3.634,10.698c0.073,0.045,0.301,0.04,0.384-0.009
		l0.031-4.31V1.687L3.347,2.051C3.09,2.181,2.825,2.385,2.799,2.473C2.8,2.531,2.795,2.711,2.789,2.948
		c-0.012,0.48-0.037,1.504-0.022,1.923c0.377,0.074,0.867,0.381,0.877,1.507L3.634,10.698z"/>
</g>
</svg>
