<?xml version="1.0" encoding="utf-8"?>
<!-- Generator: Adobe Illustrator 18.1.1, SVG Export Plug-In . SVG Version: 6.00 Build 0)  -->
<!DOCTYPE svg PUBLIC "-//W3C//DTD SVG 1.1//EN" "http://www.w3.org/Graphics/SVG/1.1/DTD/svg11.dtd">
<svg version="1.1" id="Laag_1" xmlns="http://www.w3.org/2000/svg" xmlns:xlink="http://www.w3.org/1999/xlink" x="0px" y="0px"
	 width="12px" height="12px" viewBox="0 0 12 12" enable-background="new 0 0 12 12" xml:space="preserve">
<path fill="#585858" d="M5.849,10.5L4.058,9.643L3.549,9.34L2.719,9.689L0.723,8.95l-0.54-2.953L1.429,6.08L1.158,5.82l0.951-2.459
	l1.057,0.465L3.147,3.792V2.547l2.678-0.443L8.453,2.1v0.757L9.16,2.463l2.116,1.303l-0.697,1.189l1.067,2.357l-2.671,2.21
	L5.849,10.5z M3.591,8.736l0.722,0.43L5.89,9.92l2.872-0.898l2.221-1.861L9.97,4.923l0.572-0.974L9.146,3.089L7.912,3.777V2.641
	H5.87L3.688,3.005v0.647L4.424,4.97L2.409,4.084L1.792,5.679l1.081,1.037L0.84,6.583L1.2,8.55l1.507,0.559L3.591,8.736z"/>
<path fill="#585858" d="M4.402,8.674l-0.1-1.663l1.519,1.195l1.139-0.174l0.616-1.312l0.667,1.361L6.525,8.383L4.402,8.674z
	 M4.608,7.597l0.046,0.77l0.795-0.109L4.608,7.597z M7.582,7.346L7.286,7.976l0.557-0.098L7.582,7.346z"/>
<path fill="#585858" d="M5.726,7.289L5.112,6.146l1.7-0.174l0.372-0.059L9.042,5.68l0.092,1.402L7.855,6.101L6.278,6.298
	L5.726,7.289z M5.541,6.374l0.19,0.352L5.95,6.332L5.541,6.374z M8.237,6.054l0.588,0.451L8.79,5.985L8.237,6.054z"/>
<rect x="5.111" y="4.137" fill="#585858" width="0.541" height="0.901"/>
<rect x="7.142" y="4.137" fill="#585858" width="0.541" height="0.901"/>
</svg>
