<?xml version="1.0" encoding="utf-8"?>
<!-- Generator: Adobe Illustrator 18.1.1, SVG Export Plug-In . SVG Version: 6.00 Build 0)  -->
<!DOCTYPE svg PUBLIC "-//W3C//DTD SVG 1.1//EN" "http://www.w3.org/Graphics/SVG/1.1/DTD/svg11.dtd">
<svg version="1.1" id="Laag_1" xmlns="http://www.w3.org/2000/svg" xmlns:xlink="http://www.w3.org/1999/xlink" x="0px" y="0px"
	 width="12px" height="12px" viewBox="0 0 12 12" enable-background="new 0 0 12 12" xml:space="preserve">
<g>
	<path fill="#00AAEE" d="M6,11.055L5.065,9.488l-1.594,0.891L3.446,8.554L1.621,8.528l0.892-1.593L0.945,6l1.567-0.935L1.621,3.473
		l1.826-0.026l0.025-1.825l1.594,0.89L6,0.945l0.934,1.568l1.593-0.89l0.026,1.824l1.822,0.026L9.487,5.065L11.055,6L9.487,6.935
		l0.888,1.593L8.553,8.554l-0.026,1.825L6.934,9.488L6,11.055z M5.251,8.791L6,10.045l0.747-1.254l1.275,0.713l0.021-1.46
		l1.459-0.021L8.791,6.748L10.044,6L8.791,5.252l0.711-1.274l-1.459-0.02l-0.021-1.46L6.747,3.21L6,1.955L5.251,3.21L3.977,2.498
		l-0.019,1.46l-1.461,0.02L3.21,5.252L1.956,6L3.21,6.748L2.497,8.022l1.461,0.021l0.019,1.46L5.251,8.791z"/>
	<path fill="#00AAEE" d="M5.776,8.45c-0.381,0-0.656-0.267-0.656-0.647c0-0.359,0.268-0.655,0.671-0.655
		c0.411,0,0.64,0.297,0.64,0.655C6.431,8.183,6.141,8.45,5.776,8.45z"/>
	<path fill="#00AAEE" d="M6.293,6.77c0,0-0.098,0.031-0.403,0.031S5.487,6.77,5.487,6.77l0.122-3.129c0,0,0.183-0.092,0.647-0.092
		c0.451,0,0.626,0.092,0.626,0.092L6.293,6.77z"/>
</g>
</svg>
