<?xml version="1.0" encoding="utf-8"?>
<!-- Generator: Adobe Illustrator 18.1.1, SVG Export Plug-In . SVG Version: 6.00 Build 0)  -->
<!DOCTYPE svg PUBLIC "-//W3C//DTD SVG 1.1//EN" "http://www.w3.org/Graphics/SVG/1.1/DTD/svg11.dtd">
<svg version="1.1" id="Laag_1" xmlns="http://www.w3.org/2000/svg" xmlns:xlink="http://www.w3.org/1999/xlink" x="0px" y="0px"
	 width="12px" height="12px" viewBox="0 0 12 12" enable-background="new 0 0 12 12" xml:space="preserve">
<path fill="#00AAEE" d="M8.405,10.727l-5.017-0.015c-0.23-0.075-0.504-0.265-0.503-0.738c0.003-1.278,0.003-2.557,0.002-3.835V5.318
	L2.254,5.684C2.12,5.761,1.987,5.8,1.859,5.8c-0.167,0-0.405-0.065-0.585-0.377L0.537,4.144C0.502,4.083,0.471,4.02,0.44,3.958
	L0.37,3.819l0.012-0.296C0.46,3.263,0.65,3.131,0.787,3.054c0.233-0.132,0.465-0.266,0.696-0.4L3.349,1.59h1.915l0.03,0.2
	C5.531,1.87,5.756,1.88,5.93,1.88l0,0c0.292,0,0.485-0.027,0.66-0.088l0,0l0.031-0.203H8.53l0.124,0.063
	C8.703,1.676,8.752,1.7,8.799,1.727l0.794,0.458c0.503,0.29,1.005,0.58,1.508,0.869c0.135,0.078,0.324,0.211,0.402,0.467
	l0.013,0.086l-0.028,0.267c-0.039,0.086-0.058,0.129-0.081,0.169l-0.8,1.387c-0.186,0.323-0.445,0.37-0.582,0.37
	c-0.126,0-0.255-0.037-0.384-0.111l-0.658-0.38v4.7c0,0.322-0.118,0.521-0.39,0.654l-0.029,0.034L8.405,10.727z M3.533,10.137h4.792
	c0.048-0.023,0.058-0.033,0.058-0.035l0,0c0,0,0.009-0.021,0.009-0.093V4.31l1.543,0.867c0.053,0.031,0.082,0.033,0.089,0.033
	c0.019,0,0.05-0.038,0.071-0.075l0.797-1.384c0.012-0.02,0.021-0.043,0.032-0.066V3.663c-0.015-0.025-0.046-0.055-0.119-0.097
	C10.303,3.278,9.8,2.987,9.297,2.697L8.504,2.239C8.469,2.218,8.431,2.2,8.393,2.181L8.389,2.179H7.053
	C6.989,2.251,6.9,2.308,6.787,2.348C6.483,2.456,6.175,2.47,5.941,2.47C5.7,2.469,5.399,2.454,5.098,2.347
	c-0.113-0.04-0.202-0.096-0.265-0.169H3.505L1.78,3.164C1.546,3.299,1.312,3.435,1.078,3.567c-0.072,0.04-0.102,0.071-0.117,0.096
	L0.97,3.697c0.026,0.052,0.051,0.104,0.08,0.154l0.737,1.277C1.839,5.218,1.81,5.259,1.96,5.173l1.48-0.824l0.039,0.579v1.211
	c0,1.279,0.001,2.558-0.002,3.837C3.475,10.086,3.496,10.119,3.533,10.137z"/>
</svg>
