<?xml version="1.0" encoding="utf-8"?>
<!-- Generator: Adobe Illustrator 18.1.1, SVG Export Plug-In . SVG Version: 6.00 Build 0)  -->
<!DOCTYPE svg PUBLIC "-//W3C//DTD SVG 1.1//EN" "http://www.w3.org/Graphics/SVG/1.1/DTD/svg11.dtd">
<svg version="1.1" id="Laag_1" xmlns="http://www.w3.org/2000/svg" xmlns:xlink="http://www.w3.org/1999/xlink" x="0px" y="0px"
	 width="12px" height="12px" viewBox="0 0 12 12" enable-background="new 0 0 12 12" xml:space="preserve">
<g>
	<path fill="#585858" d="M10.093,5.552H7.484V1.839c0-0.412-0.335-0.747-0.747-0.747H1.133c-0.412,0-0.747,0.335-0.747,0.747v8.644
		c0,0.412,0.335,0.747,0.747,0.747h5.605c0.412,0,0.747-0.335,0.747-0.747v-0.121h2.608c0.412,0,0.747-0.335,0.747-0.747V6.299
		C10.839,5.887,10.504,5.552,10.093,5.552z M9.692,6.098L7.409,7.813L5.126,6.098H9.692z M6.938,10.483
		c0,0.11-0.09,0.201-0.201,0.201H1.133c-0.111,0-0.201-0.09-0.201-0.201V1.839c0-0.111,0.09-0.201,0.201-0.201h5.605
		c0.109,0,0.201,0.092,0.201,0.201v3.714H4.724c-0.412,0-0.747,0.335-0.747,0.747v3.316c0,0.412,0.335,0.747,0.747,0.747h2.214
		V10.483z M10.293,9.615c0,0.111-0.09,0.201-0.201,0.201H4.724c-0.109,0-0.201-0.092-0.201-0.201V6.329l2.885,2.167l2.884-2.166
		V9.615z"/>
	<path fill="#585858" d="M10.867,2.365H8.845c-0.412,0-0.747,0.335-0.747,0.747v0.79c0,0.412,0.335,0.747,0.747,0.747h2.022
		c0.412,0,0.747-0.335,0.747-0.747v-0.79C11.614,2.7,11.279,2.365,10.867,2.365z M11.068,3.901c0,0.111-0.09,0.201-0.201,0.201
		H8.845c-0.111,0-0.201-0.09-0.201-0.201v-0.79c0-0.111,0.09-0.201,0.201-0.201h2.022c0.111,0,0.201,0.09,0.201,0.201V3.901z"/>
</g>
</svg>
