<?xml version="1.0" encoding="utf-8"?>
<!-- Generator: Adobe Illustrator 18.1.1, SVG Export Plug-In . SVG Version: 6.00 Build 0)  -->
<!DOCTYPE svg PUBLIC "-//W3C//DTD SVG 1.1//EN" "http://www.w3.org/Graphics/SVG/1.1/DTD/svg11.dtd">
<svg version="1.1" id="Laag_1" xmlns="http://www.w3.org/2000/svg" xmlns:xlink="http://www.w3.org/1999/xlink" x="0px" y="0px"
	 width="12px" height="12px" viewBox="0 0 12 12" enable-background="new 0 0 12 12" xml:space="preserve">
<g>
	<path fill="#585858" d="M4.662,9.921H7.36c0.461,0,0.835-0.375,0.835-0.836V2.29c0-0.461-0.375-0.836-0.835-0.836H6.294V1.201
		c0-0.157-0.127-0.283-0.283-0.283S5.727,1.045,5.727,1.201v0.254H4.662c-0.461,0-0.836,0.375-0.836,0.836v6.795
		C3.826,9.546,4.201,9.921,4.662,9.921z M4.393,2.29c0-0.148,0.121-0.269,0.269-0.269H7.36c0.148,0,0.268,0.121,0.268,0.269v6.795
		c0,0.148-0.121,0.269-0.268,0.269H4.662c-0.148,0-0.269-0.121-0.269-0.269V2.29z"/>
	<path fill="#585858" d="M7.926,10.112H4.1c-0.157,0-0.283,0.127-0.283,0.283s0.127,0.283,0.283,0.283h0.236l-0.241,0.403h0.475
		l0.166-0.403h2.413l0.166,0.403h0.475l-0.241-0.403h0.377c0.157,0,0.283-0.127,0.283-0.283S8.082,10.112,7.926,10.112z"/>
</g>
</svg>
