<?xml version="1.0" encoding="utf-8"?>
<!-- Generator: Adobe Illustrator 18.1.1, SVG Export Plug-In . SVG Version: 6.00 Build 0)  -->
<!DOCTYPE svg PUBLIC "-//W3C//DTD SVG 1.1//EN" "http://www.w3.org/Graphics/SVG/1.1/DTD/svg11.dtd">
<svg version="1.1" id="Laag_1" xmlns="http://www.w3.org/2000/svg" xmlns:xlink="http://www.w3.org/1999/xlink" x="0px" y="0px"
	 width="12px" height="12px" viewBox="0 0 12 12" enable-background="new 0 0 12 12" xml:space="preserve">
<g>
	<path fill="#585858" d="M7.547,11.245c-0.407,0-0.727-0.26-0.727-0.591v-4.8C6.775,5.721,6.607,5.43,5.984,5.09
		C5.885,5.019,5.655,4.802,5.542,4.118l0.075-2.82l0.062-0.072c0.032-0.038,0.151-0.161,0.33-0.161c0.075,0,0.218,0.024,0.328,0.183
		l0.039,0.085L6.72,2.659l0.236-1.37c0.076-0.286,0.233-0.442,0.424-0.442c0.085,0,0.208,0.031,0.316,0.179l0.046,0.102l0.337,1.587
		l0.244-1.369c0.001-0.07,0.016-0.181,0.097-0.268l0.08-0.087l0.157-0.017c0.168,0,0.304,0.122,0.415,0.242l0.056,0.06
		c0,0,0.335,2.012,0.335,2.164c0,0.152-0.031,0.828-0.075,1.024c-0.044,0.196-0.353,0.641-0.57,0.803
		C8.709,5.353,8.414,5.606,8.274,5.816v4.838C8.274,10.986,7.954,11.245,7.547,11.245z M6.278,4.636
		c0.758,0.422,1.066,1.042,1.07,1.133c0.012,0.273,0.012,4.885,0.012,4.885c0.008,0.005,0.078,0.052,0.188,0.052
		s0.18-0.047,0.191-0.066c0,0-0.018-4.671-0.003-4.905C7.75,5.5,8.436,4.882,8.49,4.84c0.084-0.063,0.323-0.362,0.385-0.507
		C8.938,4.188,8.92,3.47,8.92,3.47l-0.2-1.288L8.507,3.376L8.445,3.436c-0.117,0.113-0.24,0.17-0.367,0.17
		c-0.222,0-0.378-0.176-0.435-0.35L7.377,2.011L7.144,3.297C7.054,3.471,6.922,3.672,6.7,3.672c-0.217,0-0.367-0.187-0.401-0.5
		L6.122,2.496L6.078,4.082C6.14,4.439,6.244,4.594,6.278,4.636z"/>
	<path fill="#585858" d="M3.81,11.285c-0.375,0-0.715-0.244-0.715-0.512L3.105,6.38C3.101,5.929,3.007,5.387,2.584,5.387
		L2.413,5.386L2.331,5.303C2.225,5.192,2.196,5.162,2.251,2.935c0.006-0.23,0.01-0.406,0.01-0.474c0-0.421,0.588-0.763,0.841-0.89
		L4.588,0.8V6.38l-0.031,4.395C4.557,11.066,4.162,11.285,3.81,11.285z M3.634,10.698c0.073,0.045,0.301,0.04,0.384-0.009
		l0.031-4.31V1.687L3.347,2.051c-0.257,0.13-0.522,0.334-0.548,0.422C2.8,2.531,2.795,2.711,2.789,2.948
		c-0.012,0.48-0.037,1.504-0.022,1.923c0.377,0.074,0.867,0.381,0.877,1.507L3.634,10.698z"/>
</g>
</svg>
