<?xml version="1.0" encoding="utf-8"?>
<!-- Generator: Adobe Illustrator 18.1.1, SVG Export Plug-In . SVG Version: 6.00 Build 0)  -->
<!DOCTYPE svg PUBLIC "-//W3C//DTD SVG 1.1//EN" "http://www.w3.org/Graphics/SVG/1.1/DTD/svg11.dtd">
<svg version="1.1" id="Laag_1" xmlns="http://www.w3.org/2000/svg" xmlns:xlink="http://www.w3.org/1999/xlink" x="0px" y="0px"
	 width="12px" height="12px" viewBox="0 0 12 12" enable-background="new 0 0 12 12" xml:space="preserve">
<g>
	<path fill="#EBEBEB" d="M3.6,10.6c-1.2,0-2.3-1-2.3-2.2V3.6c0-1.2,1-2.3,2.3-2.3h4.8c1.2,0,2.3,1,2.3,2.3v4.8c0,1.2-1,2.2-2.3,2.2
		H3.6z M9.5,3.3L3.1,9.7l0.3,0c0.1,0,0.1,0,0.2,0h4.8c0.7,0,1.3-0.6,1.3-1.3l0-4.8c0,0,0-0.1,0-0.1l0-0.3L9.5,3.3z M3.6,2.3
		c-0.7,0-1.3,0.6-1.3,1.3v4.8c0,0,0,0.1,0,0.1l0,0.3l0.2-0.2l6.3-6.3l-0.3,0c-0.1,0-0.1,0-0.2,0H3.6z"/>
	<path fill="#AAAAAA" d="M8.4,1.5c1.2,0,2.1,0.9,2.1,2.1v4.8c0,1.2-0.9,2.1-2.1,2.1H3.6c-1.2,0-2.1-0.9-2.1-2.1V3.6
		c0-1.2,0.9-2.1,2.1-2.1H8.4 M2.1,8.5l0.3,0L2.1,8.5l0.1,0.6l0.4-0.4l6.1-6.1l0.4-0.4L8.5,2.1c0,0-0.1,0-0.1,0H3.6
		c-0.8,0-1.5,0.7-1.5,1.5v4.8C2.1,8.4,2.1,8.5,2.1,8.5 M3.6,9.9h4.8c0.4,0,0.8-0.2,1-0.4c0.3-0.3,0.4-0.6,0.4-1V3.6
		c0-0.1,0-0.1,0-0.2L9.8,2.8L9.3,3.2L3.2,9.3L2.9,9.8l0.6,0.1C3.5,9.9,3.5,9.9,3.6,9.9 M8.4,1.2H3.6c-1.3,0-2.4,1.1-2.4,2.4v4.8
		c0,1.3,1.1,2.4,2.4,2.4h4.8c1.3,0,2.4-1.1,2.4-2.4V3.6C10.8,2.3,9.7,1.2,8.4,1.2L8.4,1.2z M2.4,8.5c0,0,0-0.1,0-0.1V3.6
		C2.4,3,3,2.4,3.6,2.4h4.8c0,0,0.1,0,0.1,0L2.4,8.5L2.4,8.5z M3.6,9.6c0,0-0.1,0-0.1,0l6.1-6.1c0,0,0,0.1,0,0.1v4.8h0
		C9.6,9,9,9.6,8.4,9.6H3.6L3.6,9.6z"/>
</g>
</svg>
