<?xml version="1.0" encoding="utf-8"?>
<!-- Generator: Adobe Illustrator 18.1.1, SVG Export Plug-In . SVG Version: 6.00 Build 0)  -->
<!DOCTYPE svg PUBLIC "-//W3C//DTD SVG 1.1//EN" "http://www.w3.org/Graphics/SVG/1.1/DTD/svg11.dtd">
<svg version="1.1" id="Laag_1" xmlns="http://www.w3.org/2000/svg" xmlns:xlink="http://www.w3.org/1999/xlink" x="0px" y="0px"
	 width="12px" height="12px" viewBox="0 0 12 12" enable-background="new 0 0 12 12" xml:space="preserve">
<g>
	<path fill="#80CE00" d="M9.892,1.079c-0.62,0.102-1.263,0.401-1.658,0.9C6.888,3.674,5.744,5.508,4.779,7.433
		C4.48,6.795,4.164,6.165,3.825,5.548C3.424,4.814,0.943,5.962,1.291,6.597c0.761,1.393,1.42,2.837,1.988,4.317
		c0.08,0.206,0.334,0.245,0.528,0.244c0.304-0.001,0.609-0.087,0.89-0.196c0.292-0.113,0.58-0.262,0.819-0.464
		c0.15-0.126,0.28-0.288,0.351-0.473c1.164-3.034,2.745-5.893,4.769-8.441C11.033,1.08,10.163,1.035,9.892,1.079z"/>
</g>
</svg>
