<?xml version="1.0" encoding="utf-8"?>
<!-- Generator: Adobe Illustrator 18.1.1, SVG Export Plug-In . SVG Version: 6.00 Build 0)  -->
<!DOCTYPE svg PUBLIC "-//W3C//DTD SVG 1.1//EN" "http://www.w3.org/Graphics/SVG/1.1/DTD/svg11.dtd">
<svg version="1.1" id="Laag_1" xmlns="http://www.w3.org/2000/svg" xmlns:xlink="http://www.w3.org/1999/xlink" x="0px" y="0px"
	 width="12px" height="12px" viewBox="0 0 12 12" enable-background="new 0 0 12 12" xml:space="preserve">
<g>
	<g>
		<path fill="#AAAAAA" d="M8.701,7.468c-0.758,0-1.365,0.61-1.365,1.363c0,0.751,0.608,1.362,1.365,1.362
			c0.753,0,1.364-0.609,1.364-1.362C10.065,8.078,9.454,7.468,8.701,7.468z M8.697,9.707c-0.469,0-0.844-0.377-0.844-0.843
			c0-0.466,0.375-0.845,0.844-0.845c0.468,0,0.847,0.378,0.847,0.845C9.544,9.33,9.162,9.707,8.697,9.707z"/>
		<path fill="#AAAAAA" d="M3.773,7.627c-0.191-0.1-0.406-0.159-0.635-0.159c-0.748,0-1.352,0.599-1.365,1.339
			c0,0.007,0,0.015,0,0.023c0,0.751,0.609,1.362,1.365,1.362c0.751,0,1.363-0.609,1.363-1.362c0-0.305-0.103-0.588-0.272-0.816
			C4.109,7.856,3.951,7.721,3.773,7.627z M3.142,9.707c-0.468,0-0.847-0.377-0.847-0.843c0-0.005,0-0.009,0-0.013
			c0.008-0.461,0.384-0.832,0.847-0.832c0.143,0,0.275,0.036,0.395,0.099c0.11,0.059,0.206,0.141,0.281,0.241
			c0.107,0.142,0.169,0.317,0.169,0.506C3.986,9.33,3.609,9.707,3.142,9.707z"/>
		<path fill="#AAAAAA" d="M11.023,7.168V6.333V3.474V2.509c0-0.107-0.088-0.193-0.2-0.193H6.349c-0.111,0-0.2,0.086-0.2,0.193v0.619
			H4.269c-0.056,0-0.108,0.012-0.154,0.035C4.092,3.174,4.07,3.189,4.051,3.203L1.542,5.848L0.556,6.485L0.444,7.528H0.15v1.304
			h1.218V8.657c0.017-0.946,0.786-1.709,1.742-1.709c0.291,0,0.569,0.071,0.81,0.2c0.23,0.12,0.426,0.29,0.582,0.495
			C4.722,7.931,4.85,8.293,4.85,8.686h2.111c0-0.96,0.78-1.738,1.741-1.738c0.858,0,1.567,0.615,1.714,1.427v0.38h0.781V7.744
			l0.652,0.012l0.001-0.573L11.023,7.168z M5.458,5.934l-0.2-0.492H3.382H2.817l1.34-1.592H5.46L5.458,5.934z M9.926,3.059
			C9.329,3.81,8.865,4.653,8.518,5.55C8.499,5.603,8.463,5.651,8.417,5.687c-0.071,0.06-0.159,0.105-0.242,0.138
			C8.092,5.857,8.001,5.882,7.911,5.883c-0.057,0-0.13-0.01-0.152-0.071C7.589,5.375,7.394,4.948,7.171,4.537
			C7.065,4.351,7.8,4.012,7.918,4.227C8.016,4.411,8.112,4.595,8.2,4.785c0.285-0.568,0.623-1.111,1.022-1.609
			C9.338,3.027,9.525,2.939,9.71,2.909C9.789,2.896,10.046,2.909,9.926,3.059z"/>
	</g>
</g>
</svg>
