<?xml version="1.0" encoding="utf-8"?>
<!-- Generator: Adobe Illustrator 18.1.1, SVG Export Plug-In . SVG Version: 6.00 Build 0)  -->
<!DOCTYPE svg PUBLIC "-//W3C//DTD SVG 1.1//EN" "http://www.w3.org/Graphics/SVG/1.1/DTD/svg11.dtd">
<svg version="1.1" id="Laag_1" xmlns="http://www.w3.org/2000/svg" xmlns:xlink="http://www.w3.org/1999/xlink" x="0px" y="0px"
	 width="12px" height="12px" viewBox="0 0 12 12" enable-background="new 0 0 12 12" xml:space="preserve">
<g>
	<path fill="#FFFFFF" d="M4.6,3.8c0.131-0.007,0.3-0.1,0.3-0.2s0-2.3,0-2.3S3.2,3,2.4,3.8C3.1,3.8,4.477,3.807,4.6,3.8z"/>
	<path fill="#FFFFFF" d="M9.2,1.2c-0.7,0-3.2,0-3.8,0c0,0.8,0,1.6,0,2.4c0,0.7,0,0.7-0.7,0.7c-0.8,0-1.5,0-2.4,0c0,2.1,0,4.2,0,6.2
		c0,0.4,0.1,0.5,0.5,0.5c1.6,0,5.9,0,6.4,0c0.2,0,0.4-0.1,0.4-0.3v-0.1V9.7V3.5c0-0.2,0-0.5,0-0.7c0-0.7,0-1.1,0-1.2
		C9.6,1.4,9.4,1.2,9.2,1.2z M7.3,6.3c0,0,0.1,0.3,0,0.6H5.1c0,0.1,0,0.2,0,0.3c0,0.1,0,0.2,0,0.3h2.2c0,0,0.1,0.3,0,0.6h-2
		C5.5,8.6,6,8.8,6.6,8.8c0.8,0,1.3-0.5,1.3-0.5s0.2,0.1,0.2,0.4c0,0.4-0.6,0.8-1.6,0.8C5.3,9.5,4.6,9,4.3,8.1L3.594,8.078
		c0,0-0.094-0.378,0.006-0.678h0.6c0-0.1,0-0.2,0-0.2c0-0.1,0-0.2,0-0.3H3.6c0,0-0.1-0.3,0-0.6h0.7c0.3-0.8,1.1-1.5,2.5-1.4
		c1.1,0,1.3,0.4,1.3,0.4C8.2,5.7,7.8,6,7.8,6S7.4,5.6,6.6,5.6c-0.6,0-1,0.2-1.3,0.7H7.3z"/>
</g>
</svg>
