<?xml version="1.0" encoding="utf-8"?>
<!-- Generator: Adobe Illustrator 18.1.1, SVG Export Plug-In . SVG Version: 6.00 Build 0)  -->
<!DOCTYPE svg PUBLIC "-//W3C//DTD SVG 1.1//EN" "http://www.w3.org/Graphics/SVG/1.1/DTD/svg11.dtd">
<svg version="1.1" id="Laag_1" xmlns="http://www.w3.org/2000/svg" xmlns:xlink="http://www.w3.org/1999/xlink" x="0px" y="0px"
	 width="12px" height="12px" viewBox="0 0 12 12" enable-background="new 0 0 12 12" xml:space="preserve">
<g>
	<path fill="#FFFFFF" d="M7.298,3.822C7.986,3.837,8.673,3.83,9.366,3.83c-0.793-0.789-1.562-1.555-2.35-2.339
		c0,0.712-0.008,1.429,0.013,2.147C7.031,3.706,7.202,3.82,7.298,3.822z"/>
	<path fill="#FFFFFF" d="M9.489,4.313c-0.784,0-1.528,0-2.275,0c-0.644,0-0.689-0.045-0.689-0.696c0-0.745,0-1.493,0-2.27
		c-0.6,0-3.018,0.004-3.668-0.003c-0.278-0.002-0.41,0.118-0.41,0.393c0.002,0.168-0.002,8.197,0.005,8.7
		c0.003,0.251,0.169,0.334,0.398,0.332c0.464-0.003,4.564,0,6.151-0.002c0.408,0,0.486-0.076,0.486-0.475
		C9.491,8.319,9.489,6.347,9.489,4.313z M7.518,7.914L6.333,7.914L6.331,9.101H5.608V7.913L4.418,7.914V7.187h1.188l0.002-1.188
		l0.725,0.001v1.186l1.186,0.001L7.518,7.914L7.518,7.914z"/>
</g>
</svg>
