<?xml version="1.0" encoding="utf-8"?>
<!-- Generator: Adobe Illustrator 18.1.1, SVG Export Plug-In . SVG Version: 6.00 Build 0)  -->
<!DOCTYPE svg PUBLIC "-//W3C//DTD SVG 1.1//EN" "http://www.w3.org/Graphics/SVG/1.1/DTD/svg11.dtd">
<svg version="1.1" id="Laag_1" xmlns="http://www.w3.org/2000/svg" xmlns:xlink="http://www.w3.org/1999/xlink" x="0px" y="0px"
	 width="12px" height="12px" viewBox="0 0 12 12" enable-background="new 0 0 12 12" xml:space="preserve">
<g>
	<g>
		<path fill-rule="evenodd" clip-rule="evenodd" fill="#AAAAAA" d="M3.422,3.853C2.781,3.867,2.138,3.861,1.49,3.861
			c0.741-0.736,1.459-1.452,2.193-2.183c0,0.663,0.007,1.334-0.01,2.004C3.671,3.743,3.511,3.85,3.422,3.853z"/>
		<path fill="#AAAAAA" d="M7.344,9.41C7.075,9.514,6.835,9.565,6.6,9.567c-0.561,0-0.755-0.341-0.813-0.49
			c-0.349-0.91-0.75-1.78-1.191-2.585C4.472,6.265,4.483,5.998,4.625,5.758c0.286-0.482,1.113-0.842,1.661-0.842
			c0.493,0,0.711,0.264,0.797,0.421C7.128,5.421,7.174,5.505,7.219,5.59C7.45,5.181,7.696,4.787,7.95,4.402c0-1.357,0-2.438,0-2.497
			c0-0.257-0.123-0.369-0.381-0.367C6.962,1.547,4.705,1.541,4.144,1.541c0,0.728,0,1.424,0,2.12c0,0.608-0.042,0.651-0.643,0.651
			c-0.697,0-1.394,0-2.125,0c0,1.897,0,3.74,0.001,5.581c0,0.372,0.074,0.444,0.455,0.444c1.482,0.002,5.309-0.002,5.741,0.002
			c0.216,0.001,0.371-0.078,0.373-0.312c0.001-0.09,0.002-0.445,0.002-0.957C7.78,9.203,7.584,9.317,7.344,9.41z"/>
	</g>
	<g>
		<g>
			<path fill="#AAAAAA" d="M10.34,2.849C9.96,2.912,9.566,3.096,9.323,3.402c-0.826,1.041-1.527,2.165-2.12,3.348
				C7.019,6.358,6.825,5.971,6.617,5.592c-0.246-0.45-1.769,0.254-1.556,0.644c0.468,0.855,0.872,1.741,1.221,2.65
				c0.049,0.126,0.205,0.151,0.324,0.15c0.186-0.001,0.373-0.053,0.546-0.12c0.179-0.07,0.356-0.16,0.503-0.285
				C7.747,8.553,7.826,8.454,7.87,8.34c0.715-1.862,1.685-3.617,2.926-5.181C11.041,2.85,10.507,2.822,10.34,2.849z"/>
		</g>
	</g>
</g>
</svg>
