<?xml version="1.0" encoding="utf-8"?>
<!-- Generator: Adobe Illustrator 18.1.1, SVG Export Plug-In . SVG Version: 6.00 Build 0)  -->
<!DOCTYPE svg PUBLIC "-//W3C//DTD SVG 1.1//EN" "http://www.w3.org/Graphics/SVG/1.1/DTD/svg11.dtd">
<svg version="1.1" id="Laag_1" xmlns="http://www.w3.org/2000/svg" xmlns:xlink="http://www.w3.org/1999/xlink" x="0px" y="0px"
	 width="12px" height="12px" viewBox="0 0 12 12" enable-background="new 0 0 12 12" xml:space="preserve">
<g>
	<path fill="#AAAAAA" d="M7.441,3.881C8.127,3.897,8.815,3.889,9.51,3.889C8.716,3.101,7.946,2.333,7.16,1.55
		c0,0.711-0.008,1.431,0.011,2.148C7.174,3.762,7.346,3.877,7.441,3.881z"/>
	<path fill="#AAAAAA" d="M9.635,4.373c-0.783,0-1.531,0-2.278,0c-0.643,0-0.689-0.046-0.689-0.698c0-0.745,0-1.491,0-2.271
		c-0.601,0-3.021,0.005-3.673-0.003C2.72,1.397,2.587,1.517,2.587,1.793c0,0.168,0,8.204,0.005,8.705
		c0.003,0.252,0.169,0.335,0.399,0.335c0.465-0.004,4.566,0,6.155-0.002c0.411,0,0.488-0.076,0.488-0.475
		C9.635,8.382,9.635,6.407,9.635,4.373z"/>
</g>
</svg>
