<svg id="Laag_1" data-name="Laag 1" xmlns="http://www.w3.org/2000/svg" viewBox="0 0 48 48"><defs><style>.cls-1{fill:#585858;}</style></defs><title>icons_step1_selector</title><path class="cls-1" d="M35.421,9v6.64a2.135,2.135,0,0,0,2.116,2.143l6.438,0.012v19.92A1.264,1.264,0,0,1,42.736,39H22.585a1.264,1.264,0,0,1-1.239-1.286V10.286A1.264,1.264,0,0,1,22.585,9H35.421m1-1H22.585a2.263,2.263,0,0,0-2.239,2.286V37.714A2.269,2.269,0,0,0,22.585,40H42.736a2.263,2.263,0,0,0,2.239-2.286V16.8l-7.436-.013a1.135,1.135,0,0,1-1.118-1.143V8h0Z"/><path class="cls-1" d="M38.283,11.593v2.281A1.131,1.131,0,0,0,39.4,15.016L45,15.029,38.283,8.172v3.421Z"/><path class="cls-1" d="M12.418,14.5v4.491a1.778,1.778,0,0,0,1.722,1.821l3.822,0.008V35.5H4.451A0.594,0.594,0,0,1,4,34.857V15.143A0.585,0.585,0,0,1,4.451,14.5h7.967m1-1H4.451A1.556,1.556,0,0,0,3,15.143V34.857A1.561,1.561,0,0,0,4.451,36.5H18.962V19.822l-4.82-.01a0.781,0.781,0,0,1-.724-0.821V13.5h0Z"/><path class="cls-1" d="M14.733,16.082v1.663a0.764,0.764,0,0,0,.664.833l3.327,0.009-3.99-5v2.494Z"/></svg>