<?xml version="1.0" encoding="utf-8"?>
<!-- Generator: Adobe Illustrator 18.1.1, SVG Export Plug-In . SVG Version: 6.00 Build 0)  -->
<!DOCTYPE svg PUBLIC "-//W3C//DTD SVG 1.1//EN" "http://www.w3.org/Graphics/SVG/1.1/DTD/svg11.dtd">
<svg version="1.1" id="Laag_1" xmlns="http://www.w3.org/2000/svg" xmlns:xlink="http://www.w3.org/1999/xlink" x="0px" y="0px"
	 width="12px" height="12px" viewBox="0 0 12 12" enable-background="new 0 0 12 12" xml:space="preserve">
<g>
	<path fill="#585858" d="M4.8,3.6c0-0.8,0-1.5,0-2.3C4,2.2,3.2,3,2.4,3.8c0.7,0,1.5,0,2.2,0C4.6,3.8,4.8,3.7,4.8,3.6z"/>
	<path fill="#585858" d="M9.1,1.2c-0.7,0-3.2,0-3.8,0c0,0.8,0,1.6,0,2.4c0,0.7,0,0.7-0.7,0.7c-0.8,0-1.5,0-2.4,0c0,2.1,0,4.2,0,6.2
		c0,0.4,0.1,0.5,0.5,0.5c1.6,0,5.9,0,6.4,0c0.2,0,0.4-0.1,0.4-0.3v-0.1V9.7V3.5c0-0.2,0-0.5,0-0.7c0-0.7,0-1.1,0-1.2
		C9.5,1.4,9.4,1.2,9.1,1.2z M5.9,9.7C5.6,9.7,5.3,9.4,5.3,9S5.6,8.4,6,8.4c0.4,0,0.6,0.3,0.6,0.6C6.6,9.4,6.3,9.7,5.9,9.7z M6.4,7.5
		v0.6c0,0-0.25-0.069-0.4-0.069S5.531,8.125,5.531,8.125S5.4,7.8,5.4,7.5c0-0.7,1-0.8,1-1.5c0-0.2-0.2-0.4-0.5-0.4
		C5.3,5.6,5,6.1,5,6.1S4.5,6,4.5,5.6S4.9,4.9,6,4.9S7.5,5.3,7.5,6C7.4,6.7,6.8,7.2,6.4,7.5z"/>
</g>
</svg>
