<?xml version="1.0" encoding="utf-8"?>
<!-- Generator: Adobe Illustrator 18.1.1, SVG Export Plug-In . SVG Version: 6.00 Build 0)  -->
<!DOCTYPE svg PUBLIC "-//W3C//DTD SVG 1.1//EN" "http://www.w3.org/Graphics/SVG/1.1/DTD/svg11.dtd">
<svg version="1.1" id="Laag_1" xmlns="http://www.w3.org/2000/svg" xmlns:xlink="http://www.w3.org/1999/xlink" x="0px" y="0px"
	 width="12px" height="12px" viewBox="0 0 12 12" enable-background="new 0 0 12 12" xml:space="preserve">
<g>
	<path fill="#585858" d="M8.3,4.8c0-0.7,0-1.4,0-2.1c0.8,0.8,1.6,1.6,2.3,2.4c-0.7,0-1.4,0-2.1,0C8.5,5.1,8.4,4.9,8.3,4.8z"/>
	<path fill="#585858" d="M7.9,2.6c0,0.8,0,1.5,0,2.3c0,0.6,0,0.7,0.7,0.7c0.7,0,1.5,0,2.3,0c0,0.6,0,3,0,3.7c0,0.3-0.1,0.4-0.4,0.4
		c-0.2,0-8.2,0-8.7,0c-0.3,0-0.3-0.2-0.3-0.4c0-0.5,0-4.6,0-6.2c0-0.4,0.1-0.5,0.5-0.5C3.8,2.6,5.8,2.6,7.9,2.6z"/>
</g>
</svg>
