<?xml version="1.0" encoding="utf-8"?>
<!-- Generator: Adobe Illustrator 18.1.1, SVG Export Plug-In . SVG Version: 6.00 Build 0)  -->
<!DOCTYPE svg PUBLIC "-//W3C//DTD SVG 1.1//EN" "http://www.w3.org/Graphics/SVG/1.1/DTD/svg11.dtd">
<svg version="1.1" id="Laag_1" xmlns="http://www.w3.org/2000/svg" xmlns:xlink="http://www.w3.org/1999/xlink" x="0px" y="0px"
	 width="12px" height="12px" viewBox="0 0 12 12" enable-background="new 0 0 12 12" xml:space="preserve">
<g>
	<path fill="#FF7600" d="M9.771,3.834c0.656,0.013,1.318,0.009,1.984,0.009c-0.762-0.758-1.5-1.495-2.256-2.247
		c0,0.682-0.006,1.373,0.012,2.062C9.516,3.721,9.678,3.831,9.771,3.834z"/>
	<path fill="#FF7600" d="M4.456,3.512C4.167,3.224,3.88,2.938,3.591,2.65c0,0.525-0.006,1.056,0.008,1.586
		C3.601,4.285,3.73,4.369,3.798,4.371c0.217,0.004,0.438,0.005,0.658,0.007C4.456,4.067,4.456,3.777,4.456,3.512z"/>
	<path fill="#FF7600" d="M4.456,4.69c-0.244,0-0.482,0-0.723,0c-0.476,0-0.507-0.034-0.507-0.515c0-0.549,0-1.102,0-1.677
		c-0.444,0-2.231,0.004-2.713-0.001c-0.201-0.002-0.301,0.086-0.301,0.29c0,0.123,0,6.054,0.004,6.425
		C0.219,9.398,0.34,9.459,0.51,9.459c0.295-0.002,2.564,0,3.945,0C4.456,8.283,4.456,6.302,4.456,4.69z"/>
	<path fill="#FF7600" d="M11.875,4.306c-0.752,0-1.471,0-2.186,0c-0.619,0-0.66-0.044-0.66-0.67c0-0.716,0-1.432,0-2.18
		c-0.578,0-2.9,0.005-3.525-0.003C5.238,1.45,5.113,1.566,5.113,1.829c0,0.162-0.002,7.873,0.004,8.354
		c0.002,0.24,0.16,0.321,0.383,0.32c0.443-0.005,4.383,0,5.906-0.002c0.391,0,0.467-0.075,0.467-0.457
		C11.875,8.153,11.875,6.257,11.875,4.306z"/>
</g>
</svg>
