<svg id="Laag_1" data-name="Laag 1" xmlns="http://www.w3.org/2000/svg" viewBox="0 0 48 48"><defs><style>.cls-1{fill:#80ce00;}.cls-2{fill:none;stroke:#80ce00;stroke-miterlimit:10;}</style></defs><title>icons_step1_selector</title><path class="cls-1" d="M25.327,34.775l0.61,4.332,0.121,0.861H31.3L31.518,41.5H13.324l0.19-1.533h5.452l0.111-.874,0.547-4.318h5.7m0.869-1H18.743l-0.658,5.192H12.631L12.192,42.5H32.673l-0.511-3.533H26.927L26.2,33.775h0Z"/><path class="cls-2" d="M40.865,15.734V29.786a1.011,1.011,0,0,1-1.024,1H5.024a1.011,1.011,0,0,1-1.024-1V9.843a1.011,1.011,0,0,1,1.024-1H32.875"/><polygon class="cls-2" points="40.888 5.5 31.951 15.667 31.862 18.834 35.063 18.261 44 8.094 40.888 5.5"/></svg>
