<?xml version="1.0" encoding="utf-8"?>
<!-- Generator: Adobe Illustrator 18.1.1, SVG Export Plug-In . SVG Version: 6.00 Build 0)  -->
<!DOCTYPE svg PUBLIC "-//W3C//DTD SVG 1.1//EN" "http://www.w3.org/Graphics/SVG/1.1/DTD/svg11.dtd">
<svg version="1.1" id="Laag_1" xmlns="http://www.w3.org/2000/svg" xmlns:xlink="http://www.w3.org/1999/xlink" x="0px" y="0px"
	 width="12px" height="12px" viewBox="0 0 12 12" enable-background="new 0 0 12 12" xml:space="preserve">
<g>
	<g>
		<polygon fill="#585858" points="0.4,5.8 0.4,10.4 3.2,8.1 		"/>
		<polygon fill="#585858" points="5.2,8.9 4.4,8.9 3.8,8.4 0.6,10.9 9,10.9 5.8,8.4 		"/>
		<path fill="#585858" d="M4.5,5.5H0.9l3.6,2.9h0.4L6,7.5C5.3,7,4.8,6.3,4.5,5.5z"/>
		<path fill="#585858" d="M8.3,8.3c-0.6,0-1.2-0.2-1.7-0.4L6.2,8.1l2.8,2.3V8.2C8.8,8.2,8.5,8.3,8.3,8.3z"/>
	</g>
	<path fill="#585858" d="M8.3,1.1c-1.9,0-3.4,1.5-3.4,3.4s1.5,3.4,3.4,3.4c1.9,0,3.4-1.5,3.4-3.4C11.6,2.6,10.1,1.1,8.3,1.1z
		 M8.1,6.3c-0.3,0-0.5-0.2-0.5-0.5c0-0.3,0.2-0.5,0.5-0.5c0.3,0,0.5,0.2,0.5,0.5C8.6,6.1,8.4,6.3,8.1,6.3z M8.5,5c0,0-0.1,0-0.3,0
		S7.9,5,7.9,5L8,2.6c0,0,0.1-0.1,0.5-0.1c0.3,0,0.5,0.1,0.5,0.1L8.5,5z"/>
</g>
</svg>
