<?xml version="1.0" encoding="utf-8"?>
<!-- Generator: Adobe Illustrator 18.1.1, SVG Export Plug-In . SVG Version: 6.00 Build 0)  -->
<!DOCTYPE svg PUBLIC "-//W3C//DTD SVG 1.1//EN" "http://www.w3.org/Graphics/SVG/1.1/DTD/svg11.dtd">
<svg version="1.1" id="Laag_1" xmlns="http://www.w3.org/2000/svg" xmlns:xlink="http://www.w3.org/1999/xlink" x="0px" y="0px"
	 width="12px" height="12px" viewBox="0 0 12 12" enable-background="new 0 0 12 12" xml:space="preserve">
<g>
	<path fill="#FF7600" d="M4.418,5.664C4.403,5.85,4.403,6.037,4.403,6.224c0,0.202,0,0.373,0.015,0.544h4.307
		c0,0,0.234,0.575,0,1.228H4.761C5.226,8.96,6.13,9.443,7.357,9.443c1.682,0,2.659-0.996,2.659-0.996s0.452,0.186,0.452,0.856
		c0,0.869-1.119,1.6-3.205,1.6c-2.347,0-3.886-1.103-4.446-2.908H1.403c0,0-0.216-0.591,0-1.228h1.182
		C2.568,6.611,2.568,6.44,2.568,6.27c0-0.202,0.017-0.404,0.031-0.607H1.403c0,0-0.217-0.59,0-1.228H2.88
		C3.518,2.74,5.087,1.433,7.761,1.433c2.098,0,2.613,0.668,2.613,0.668c0.14,1.027-0.716,1.602-0.716,1.602s-0.7-0.777-2.222-0.777
		c-1.245,0-2.178,0.543-2.658,1.508h3.946c0,0,0.234,0.574,0,1.228L4.418,5.664L4.418,5.664z"/>
</g>
</svg>
