<?xml version="1.0" encoding="utf-8"?>
<!-- Generator: Adobe Illustrator 18.1.1, SVG Export Plug-In . SVG Version: 6.00 Build 0)  -->
<!DOCTYPE svg PUBLIC "-//W3C//DTD SVG 1.1//EN" "http://www.w3.org/Graphics/SVG/1.1/DTD/svg11.dtd">
<svg version="1.1" id="Laag_1" xmlns="http://www.w3.org/2000/svg" xmlns:xlink="http://www.w3.org/1999/xlink" x="0px" y="0px"
	 width="12px" height="12px" viewBox="0 0 12 12" enable-background="new 0 0 12 12" xml:space="preserve">
<path fill="#FFFFFF" d="M5.855,1.367c-2.648,0-4.796,2.148-4.796,4.797c0,2.651,2.148,4.798,4.796,4.798
	c2.649,0,4.799-2.147,4.799-4.798C10.654,3.514,8.504,1.367,5.855,1.367z M5.37,9.325c-0.491,0-0.837-0.344-0.837-0.829
	c0-0.46,0.34-0.84,0.855-0.84c0.527,0,0.821,0.381,0.821,0.84C6.209,8.981,5.837,9.325,5.37,9.325z M6.031,7.171
	c0,0-0.127,0.038-0.516,0.038c-0.389,0-0.517-0.038-0.517-0.038l0.158-3.998c0,0,0.233-0.118,0.828-0.118
	c0.577,0,0.798,0.118,0.798,0.118L6.031,7.171z"/>
</svg>
