<?xml version="1.0" encoding="utf-8"?>
<!-- Generator: Adobe Illustrator 18.1.1, SVG Export Plug-In . SVG Version: 6.00 Build 0)  -->
<!DOCTYPE svg PUBLIC "-//W3C//DTD SVG 1.1//EN" "http://www.w3.org/Graphics/SVG/1.1/DTD/svg11.dtd">
<svg version="1.1" id="Laag_1" xmlns="http://www.w3.org/2000/svg" xmlns:xlink="http://www.w3.org/1999/xlink" x="0px" y="0px"
	 width="12px" height="12px" viewBox="0 0 12 12" enable-background="new 0 0 12 12" xml:space="preserve">
<path fill="#FF7600" d="M6,2.4c-2.8,0-5.2,1.7-5.9,3.9h1.6c0.1,1.8,2,3.2,4.3,3.2c2.4,0,4.3-1.4,4.3-3.2h1.6C11.2,4.1,8.8,2.4,6,2.4
	z M6,9C3.8,9,2.1,7.8,2.1,6.2c0-0.1,0-0.2,0-0.2C2.6,5.4,3.2,4.9,4,4.5C3.9,4.8,3.9,5,3.9,5.3c0,1.5,0.9,2.6,2.1,2.6
	s2.1-1.2,2.1-2.6c0-0.3,0-0.5-0.1-0.8C8.8,4.9,9.4,5.4,9.9,6c0,0.1,0,0.2,0,0.2C9.9,7.8,8.2,9,6,9z"/>
</svg>
