<?xml version="1.0" encoding="utf-8"?>
<!-- Generator: Adobe Illustrator 18.1.1, SVG Export Plug-In . SVG Version: 6.00 Build 0)  -->
<!DOCTYPE svg PUBLIC "-//W3C//DTD SVG 1.1//EN" "http://www.w3.org/Graphics/SVG/1.1/DTD/svg11.dtd">
<svg version="1.1" id="Laag_1" xmlns="http://www.w3.org/2000/svg" xmlns:xlink="http://www.w3.org/1999/xlink" x="0px" y="0px"
	 width="12px" height="12px" viewBox="0 0 12 12" enable-background="new 0 0 12 12" xml:space="preserve">
<path fill="#2A2949" stroke="#7FCFF8" stroke-width="0.5" stroke-miterlimit="10" d="M9.7,10.8H2.3c-0.5,0-1-0.4-1-1V2.2
	c0-0.5,0.5-1,1-1h7.4c0.5,0,1,0.5,1,1v7.7C10.7,10.4,10.2,10.8,9.7,10.8z"/>
<path fill="#7FCFF8" d="M3.9,6.5c0,0.6,0,1.4,0,2c-0.3,0-0.8,0-0.8,0l0-5.3l0.3,0c0,0,1,0,1.5,0.1c0.8,0.1,1.2,0.7,1.3,1.4
	C6.3,5.5,6,6.2,5.2,6.4C4.8,6.5,4.4,6.5,3.9,6.5z M3.9,5.8c0.2,0,0.4,0,0.6,0c0.6,0,0.9-0.4,0.9-1C5.4,4.3,5,4,4.5,4
	C4.3,4,3.9,4,3.9,4S3.9,5.2,3.9,5.8z"/>
<path fill="#7FCFF8" d="M9,5.5C8.8,5.5,8.6,5.4,8.5,5.4c-0.1,0-0.4-0.1-0.5,0c-0.1,0-0.3,0.1-0.3,0.3c0,0.2,0.1,0.3,0.2,0.4
	c0.2,0.2,0.5,0.3,0.7,0.4c0.3,0.2,0.6,0.5,0.6,0.9c0,0.6-0.3,1.1-0.9,1.2C7.8,8.6,7.4,8.6,7,8.5c-0.1,0-0.2-0.1-0.2-0.1
	s0-0.6,0-0.8c0.3,0.1,0.7,0.2,0.9,0.2s0.6,0,0.7-0.3C8.4,7.3,8.2,7.2,8,7.1C7.8,6.9,7.6,6.8,7.4,6.7C6.9,6.4,6.7,6,6.8,5.5
	C7,5,7.4,4.6,7.9,4.6c0.2,0,0.6,0,0.8,0.1C8.9,4.7,9,4.8,9,4.8C9,5,9,5.3,9,5.5z"/>
</svg>
