<?xml version="1.0" encoding="utf-8"?>
<!-- Generator: Adobe Illustrator 19.0.0, SVG Export Plug-In . SVG Version: 6.00 Build 0)  -->
<!DOCTYPE svg PUBLIC "-//W3C//DTD SVG 1.1//EN" "http://www.w3.org/Graphics/SVG/1.1/DTD/svg11.dtd">
<svg version="1.1" id="Laag_1" xmlns="http://www.w3.org/2000/svg" xmlns:xlink="http://www.w3.org/1999/xlink" x="0px" y="0px"
	 width="12px" height="12px" viewBox="0 0 12 12" enable-background="new 0 0 12 12" xml:space="preserve">
<g id="XMLID_5_">
	<path id="XMLID_8_" fill="#1950B2" d="M0.667,9.616c0,0.544,0.445,0.988,0.988,0.988h8.69c0.544,0,0.988-0.445,0.988-0.988V7.604
		H0.667V9.616z"/>
	<path id="XMLID_7_" fill="#DD2222" d="M11.333,2.593c0-0.544-0.445-0.988-0.988-0.988h-8.69c-0.544,0-0.988,0.445-0.988,0.988
		v2.011h10.667V2.593z"/>
	<rect id="XMLID_6_" x="0.667" y="4.604" fill="#FFFFFF" width="10.667" height="3"/>
</g>
<path id="XMLID_2_" fill="#EBEBEB" d="M10.333,10.754H1.667c-0.634,0-1.15-0.516-1.15-1.15v-7c0-0.634,0.517-1.15,1.15-1.15h8.667
	c0.634,0,1.15,0.516,1.15,1.15v7C11.484,10.238,10.967,10.754,10.333,10.754z M1.667,1.754c-0.469,0-0.85,0.381-0.85,0.85v7
	c0,0.469,0.381,0.85,0.85,0.85h8.667c0.469,0,0.85-0.381,0.85-0.85v-7c0-0.469-0.381-0.85-0.85-0.85H1.667z"/>
</svg>
