<?xml version="1.0" encoding="utf-8"?>
<!-- Generator: Adobe Illustrator 18.1.1, SVG Export Plug-In . SVG Version: 6.00 Build 0)  -->
<!DOCTYPE svg PUBLIC "-//W3C//DTD SVG 1.1//EN" "http://www.w3.org/Graphics/SVG/1.1/DTD/svg11.dtd">
<svg version="1.1" id="Laag_1" xmlns="http://www.w3.org/2000/svg" xmlns:xlink="http://www.w3.org/1999/xlink" x="0px" y="0px"
	 width="12px" height="12px" viewBox="0 0 12 12" enable-background="new 0 0 12 12" xml:space="preserve">
<path fill="#FFFFFF" d="M6.2,2.7H5.6c0.5,0.4,0.8,0.9,0.8,1.4c0,0.3-0.1,0.6-0.3,0.9C5.9,5.1,5.7,5.3,5.4,5.5
	C5.2,5.7,5.1,5.9,5.1,6c0,0.2,0.1,0.3,0.3,0.4l0.4,0.3c0.3,0.2,0.5,0.4,0.6,0.6c0.2,0.2,0.3,0.5,0.3,0.8c0,0.5-0.2,1-0.7,1.3
	C5.5,9.8,4.7,10,3.9,10S2.6,9.8,2.1,9.6C1.7,9.4,1.5,9,1.5,8.6c0-0.5,0.3-0.9,0.8-1.2C2.8,7.1,3.5,7,4.4,6.9
	C4.2,6.7,4.1,6.4,4.1,6.2c0-0.1,0-0.2,0.1-0.4c-0.2,0-0.3,0-0.4,0c-0.6,0-1-0.2-1.4-0.5C2.2,5.1,2,4.7,2,4.3c0-0.5,0.2-1,0.7-1.4
	s1.1-0.6,2-0.6H7L6.2,2.7z M6,8.5C6,8.3,5.9,8,5.7,7.8C5.6,7.7,5.2,7.5,4.8,7.2c-0.1,0-0.1,0-0.3,0c-0.4,0-0.8,0.1-1.1,0.2
	C2.8,7.6,2.5,8,2.5,8.4c0,0.4,0.2,0.7,0.5,0.9c0.4,0.2,0.8,0.3,1.4,0.3c0.5,0,0.9-0.1,1.2-0.3C5.8,9.1,6,8.9,6,8.5z M4.4,5.6
	c0.3,0,0.5-0.1,0.7-0.3c0.2-0.2,0.3-0.4,0.3-0.7c0-0.4-0.1-0.8-0.4-1.2C4.8,2.9,4.4,2.7,4,2.7S3.3,2.8,3.2,3.1C3,3.3,3,3.5,3,3.8
	C3,4.2,3.1,4.6,3.3,5C3.6,5.4,3.9,5.6,4.4,5.6z"/>
<polygon fill="#FFFFFF" points="10.5,3.7 9.1,3.7 9.1,2.4 8.4,2.4 8.4,3.7 7,3.7 7,4.3 8.4,4.3 8.4,5.6 9.1,5.6 9.1,4.3 10.5,4.3
"/>
</svg>
