<?xml version="1.0" encoding="utf-8"?>
<!-- Generator: Adobe Illustrator 18.1.1, SVG Export Plug-In . SVG Version: 6.00 Build 0)  -->
<!DOCTYPE svg PUBLIC "-//W3C//DTD SVG 1.1//EN" "http://www.w3.org/Graphics/SVG/1.1/DTD/svg11.dtd">
<svg version="1.1" id="Laag_1" xmlns="http://www.w3.org/2000/svg" xmlns:xlink="http://www.w3.org/1999/xlink" x="0px" y="0px"
	 width="12px" height="12px" viewBox="0 0 12 12" enable-background="new 0 0 12 12" xml:space="preserve">
<g>
	<g id="cJ2PLC_2_">
		<g>
			<path fill="#FFFFFF" d="M4.2,5.4C4.2,5.4,4.2,5.4,4.2,5.4C4.7,5.4,5,5.1,5,4.6c0-0.5-0.3-0.8-0.8-0.8c0,0,0,0,0,0
				c-0.5,0-0.8,0.4-0.8,0.8C3.3,5.1,3.7,5.4,4.2,5.4"/>
		</g>
	</g>
	<g>
		<path fill="#FFFFFF" d="M9.4,8c0,0,0-0.1,0-0.1C9.1,7.4,8.9,7,8.7,6.6C8.3,5.9,8,5.1,7.6,4.4c0,0,0,0-0.1-0.1c0,0,0,0-0.1,0.1
			C7.2,4.9,6.9,5.5,6.7,6c0,0.1-0.1,0.1-0.2,0C6.3,5.9,6,5.7,5.7,5.5c-0.1-0.1-0.1-0.1-0.2,0C5.3,6,5.1,6.4,4.8,6.8
			c0,0.1-0.1,0.1-0.2,0C4.5,6.7,4.3,6.6,4.1,6.5C4,6.4,4,6.4,3.9,6.5C3.5,6.9,3.2,7.4,2.8,7.8c0,0-0.1,0.1-0.1,0.1
			C4.9,8,7.1,8,9.4,8z"/>
	</g>
	<path fill="#FFFFFF" d="M9.9,10.6H2.1c-1,0-1.8-0.8-1.8-1.8V3.1c0-1,0.8-1.8,1.8-1.8h7.7c1,0,1.8,0.8,1.8,1.8v5.8
		C11.6,9.9,10.8,10.6,9.9,10.6z M2.1,2.6c-0.3,0-0.5,0.2-0.5,0.5v5.8c0,0.3,0.2,0.5,0.5,0.5h7.7c0.3,0,0.5-0.2,0.5-0.5V3.1
		c0-0.3-0.2-0.5-0.5-0.5H2.1z"/>
</g>
</svg>
