<?xml version="1.0" encoding="utf-8"?>
<!-- Generator: Adobe Illustrator 18.1.1, SVG Export Plug-In . SVG Version: 6.00 Build 0)  -->
<!DOCTYPE svg PUBLIC "-//W3C//DTD SVG 1.1//EN" "http://www.w3.org/Graphics/SVG/1.1/DTD/svg11.dtd">
<svg version="1.1" id="Laag_1" xmlns="http://www.w3.org/2000/svg" xmlns:xlink="http://www.w3.org/1999/xlink" x="0px" y="0px"
	 width="12px" height="12px" viewBox="0 0 12 12" enable-background="new 0 0 12 12" xml:space="preserve">
<path fill="#00AAEE" d="M5.965,1.179c-2.697,0-4.882,2.185-4.882,4.882c0,2.696,2.185,4.882,4.882,4.882
	c2.696,0,4.882-2.185,4.882-4.882C10.846,3.364,8.661,1.179,5.965,1.179z M6.055,2.822c0.457,0,0.717,0.33,0.717,0.734
	c0,0.43-0.323,0.725-0.734,0.725c-0.43,0-0.734-0.295-0.734-0.725C5.304,3.153,5.599,2.822,6.055,2.822z M5.85,9.097
	c-0.734,0-1.057-0.251-0.958-1.021l0.305-2.391c0,0-0.153,0.134-0.456,0.134c-0.349,0-0.501-0.196-0.501-0.465
	c0-0.206,0.079-0.304,0.079-0.304c0.932,0,1.988-0.233,1.988-0.233S6.521,4.926,6.629,5.15L6.334,6.331L6.101,8.337
	c0.501-0.188,0.797-0.502,0.797-0.502s0.215,0.108,0.215,0.43C7.113,8.72,6.719,9.097,5.85,9.097z"/>
</svg>
