<?xml version="1.0" encoding="utf-8"?>
<!-- Generator: Adobe Illustrator 18.1.1, SVG Export Plug-In . SVG Version: 6.00 Build 0)  -->
<!DOCTYPE svg PUBLIC "-//W3C//DTD SVG 1.1//EN" "http://www.w3.org/Graphics/SVG/1.1/DTD/svg11.dtd">
<svg version="1.1" id="Laag_1" xmlns="http://www.w3.org/2000/svg" xmlns:xlink="http://www.w3.org/1999/xlink" x="0px" y="0px"
	 width="12px" height="12px" viewBox="0 0 12 12" enable-background="new 0 0 12 12" xml:space="preserve">
<g>
	<path fill="#FFFFFF" d="M2.9,4.9h1.3v4.3H2.9V4.9z M3.5,2.8c0.4,0,0.8,0.3,0.8,0.8C4.3,4,4,4.3,3.5,4.3C3.1,4.3,2.7,4,2.7,3.6
		C2.7,3.1,3.1,2.8,3.5,2.8"/>
	<path fill="#FFFFFF" d="M5,4.9h1.3v0.6l0,0c0.2-0.3,0.6-0.7,1.3-0.7c1.4,0,1.6,0.9,1.6,2v2.4H7.9V7.1c0-0.5,0-1.1-0.7-1.1
		S6.4,6.5,6.4,7.1v2.1H5V4.9L5,4.9z"/>
</g>
</svg>
