<?xml version="1.0" encoding="utf-8"?>
<!-- Generator: Adobe Illustrator 18.1.1, SVG Export Plug-In . SVG Version: 6.00 Build 0)  -->
<!DOCTYPE svg PUBLIC "-//W3C//DTD SVG 1.1//EN" "http://www.w3.org/Graphics/SVG/1.1/DTD/svg11.dtd">
<svg version="1.1" id="Laag_1" xmlns="http://www.w3.org/2000/svg" xmlns:xlink="http://www.w3.org/1999/xlink" x="0px" y="0px"
	 width="12px" height="12px" viewBox="0 0 12 12" enable-background="new 0 0 12 12" xml:space="preserve">
<g>
	<g>
		<path fill-rule="evenodd" clip-rule="evenodd" fill="#FFFFFF" d="M11.8,3.7c0,0.1-0.1,0.2-0.2,0.2H3.1C3,3.9,3,3.8,3,3.7v-1
			C3,2.6,3,2.5,3.1,2.5h8.5c0.1,0,0.2,0.1,0.2,0.2V3.7z"/>
		<circle fill-rule="evenodd" clip-rule="evenodd" fill="#FFFFFF" cx="1" cy="3.1" r="0.8"/>
	</g>
	<g>
		<path fill-rule="evenodd" clip-rule="evenodd" fill="#FFFFFF" d="M9.1,6.8c0,0.1-0.1,0.2-0.2,0.2H3.1C3,6.9,3,6.9,3,6.8v-1
			C3,5.7,3,5.6,3.1,5.6H9c0.1,0,0.2,0.1,0.2,0.2V6.8z"/>
		<circle fill-rule="evenodd" clip-rule="evenodd" fill="#FFFFFF" cx="1" cy="6.3" r="0.8"/>
	</g>
	<g>
		<g>
			<g>
				<path fill-rule="evenodd" clip-rule="evenodd" fill="#FFFFFF" d="M9.8,9.8c0,0.1-0.1,0.2-0.2,0.2H3.1C3,10,3,9.9,3,9.8v-1
					C3,8.7,3,8.7,3.1,8.7h6.6c0.1,0,0.2,0.1,0.2,0.2V9.8z"/>
			</g>
		</g>
		<circle fill-rule="evenodd" clip-rule="evenodd" fill="#FFFFFF" cx="1" cy="9.4" r="0.8"/>
	</g>
</g>
</svg>
