<svg xmlns="http://www.w3.org/2000/svg" width="12" height="12" viewBox="0 0 12 12">
  <defs>
    <style>
      .a {
        fill: #fff;
      }

      .b {
        fill: #d7d7d7;
      }

      .c {
        fill: #e20613;
      }

      .d {
        fill: #fbc100;
      }
    </style>
  </defs>
  <title>Mastercard</title>
  <g>
    <g>
      <rect class="a" x="0.489" y="2.4" width="11.011" height="7.205" rx="0.8" ry="0.8"/>
      <path class="b" d="M10.7,2H1.289a1.2,1.2,0,0,0-1.2,1.2V8.806a1.2,1.2,0,0,0,1.2,1.2H10.7a1.2,1.2,0,0,0,1.2-1.2V3.2A1.2,1.2,0,0,0,10.7,2Zm0.8,6.808a0.8,0.8,0,0,1-.8.8H1.289a0.8,0.8,0,0,1-.8-0.8V3.2a0.8,0.8,0,0,1,.8-0.8H10.7a0.8,0.8,0,0,1,.8.8V8.808Z"/>
    </g>
    <circle class="c" cx="4.052" cy="6.024" r="2.88"/>
    <path class="d" d="M7.919,3.144a2.869,2.869,0,0,0-1.933.745,2.928,2.928,0,0,0-.291.3H6.276a2.916,2.916,0,0,1,.22.3H5.475a2.875,2.875,0,0,0-.166.3H6.662a2.889,2.889,0,0,1,.122.3h-1.6a2.846,2.846,0,0,0-.084.3H6.867a2.9,2.9,0,0,1-.084,1.525h-1.6a2.852,2.852,0,0,0,.122.3H6.662a2.888,2.888,0,0,1-.166.3H5.475a2.907,2.907,0,0,0,.22.3H6.276a2.879,2.879,0,0,1-.291.3A2.88,2.88,0,1,0,7.919,3.144Z"/>
    <path d="M3.38,6.34a0.525,0.525,0,0,0-.07,0c-0.177,0-.267.061-0.267,0.181a0.109,0.109,0,0,0,.1.12H3.155a0.263,0.263,0,0,0,.227-0.295V6.341h0ZM3.6,6.869H3.348l0.006-.123a0.392,0.392,0,0,1-.328.144,0.292,0.292,0,0,1-.288-0.3V6.561A0.465,0.465,0,0,1,3.287,6.1a1.057,1.057,0,0,1,.127.009,0.293,0.293,0,0,0,.012-0.077c0-.079-0.054-0.108-0.2-0.108a1.038,1.038,0,0,0-.331.053L2.94,5.717a1.245,1.245,0,0,1,.375-0.063A0.342,0.342,0,0,1,3.725,6a1.523,1.523,0,0,1-.025.235C3.673,6.41,3.615,6.779,3.6,6.869Z"/>
    <polygon points="2.61 6.869 2.297 6.869 2.476 5.746 2.077 6.869 1.864 6.869 1.837 5.752 1.649 6.869 1.356 6.869 1.601 5.408 2.05 5.408 2.077 6.226 2.352 5.408 2.852 5.408 2.61 6.869"/>
    <path d="M8.3,6.34a0.523,0.523,0,0,0-.07,0c-0.177,0-.267.061-0.267,0.181a0.109,0.109,0,0,0,.1.12H8.078A0.262,0.262,0,0,0,8.3,6.349V6.34ZM8.53,6.869H8.273l0.006-.123a0.392,0.392,0,0,1-.328.144,0.292,0.292,0,0,1-.288-0.3V6.561A0.465,0.465,0,0,1,8.212,6.1a1.054,1.054,0,0,1,.127.009,0.291,0.291,0,0,0,.012-0.077c0-.079-0.054-0.108-0.2-0.108a1.039,1.039,0,0,0-.331.053l0.043-.267A1.246,1.246,0,0,1,8.239,5.65,0.342,0.342,0,0,1,8.651,6a1.515,1.515,0,0,1-.025.235C8.6,6.41,8.54,6.779,8.533,6.869h0Z"/>
    <path d="M5,6.851a0.715,0.715,0,0,1-.225.038,0.229,0.229,0,0,1-.247-0.261,2.732,2.732,0,0,1,.043-0.317C4.586,6.2,4.7,5.5,4.7,5.5H5.014l-0.036.18H5.166l-0.043.285H4.935C4.9,6.192,4.847,6.474,4.847,6.511a0.085,0.085,0,0,0,.107.088,0.252,0.252,0,0,0,.084-0.011Z"/>
    <path d="M5.95,6.841a1.058,1.058,0,0,1-.319.048A0.472,0.472,0,0,1,5.1,6.359a0.621,0.621,0,0,1,.526-0.7H5.642a0.4,0.4,0,0,1,.42.43,1.279,1.279,0,0,1-.038.292H5.4C5.382,6.548,5.492,6.62,5.673,6.62A0.735,0.735,0,0,0,6,6.546Zm-0.175-.7A0.161,0.161,0,0,0,5.63,5.929a0.219,0.219,0,0,0-.2.212H5.775Z"/>
    <path d="M3.8,6.056a0.347,0.347,0,0,0,.238.332c0.127,0.06.146,0.077,0.146,0.131,0,0.074-.056.108-0.18,0.108a0.879,0.879,0,0,1-.28-0.047l-0.043.274A1.444,1.444,0,0,0,4,6.889a0.387,0.387,0,0,0,.482-0.4,0.325,0.325,0,0,0-.22-0.331C4.133,6.1,4.117,6.088,4.117,6.032a0.125,0.125,0,0,1,.145-0.1l0.008,0a1.718,1.718,0,0,1,.225.018L4.54,5.674a2.126,2.126,0,0,0-.276-0.02A0.392,0.392,0,0,0,3.8,6.056Z"/>
    <path d="M7.47,5.686a0.6,0.6,0,0,1,.279.079L7.8,5.448a0.917,0.917,0,0,0-.346-0.124,0.623,0.623,0,0,0-.51.275,0.292,0.292,0,0,0-.347.182L6.519,5.8a0.6,0.6,0,0,0,.01-0.119H6.24c-0.039.368-.109,0.74-0.163,1.108l-0.014.08H6.376c0.052-.339.081-0.556,0.1-0.7L6.594,6.1c0.018-.065.073-0.088,0.183-0.085a1.331,1.331,0,0,0-.022.244A0.55,0.55,0,0,0,7.3,6.89a0.981,0.981,0,0,0,.276-0.043L7.63,6.514a0.608,0.608,0,0,1-.266.075,0.3,0.3,0,0,1-.291-0.356,0.469,0.469,0,0,1,.379-0.544Z"/>
    <path d="M10.117,5.408l-0.069.422a0.391,0.391,0,0,0-.3-0.194,0.484,0.484,0,0,0-.4.3,2.587,2.587,0,0,1-.266-0.073h0A1.783,1.783,0,0,0,9.1,5.681H8.814c-0.039.368-.109,0.74-0.163,1.108l-0.014.08H8.95q0.063-.411.1-0.683a0.407,0.407,0,0,1,.268-0.175,1.018,1.018,0,0,0-.076.385,0.42,0.42,0,0,0,.339.488h0L9.62,6.889A0.368,0.368,0,0,0,9.9,6.758l-0.015.11h0.3l0.238-1.461H10.117ZM9.726,6.594c-0.106,0-.16-0.079-0.16-0.234a0.336,0.336,0,0,1,.242-0.4c0.107,0,.166.082,0.166,0.233A0.336,0.336,0,0,1,9.726,6.594Z"/>
    <polygon class="a" points="2.7 6.782 2.387 6.782 2.566 5.659 2.167 6.782 1.953 6.782 1.927 5.666 1.739 6.782 1.446 6.782 1.691 5.322 2.14 5.322 2.153 6.226 2.456 5.322 2.942 5.322 2.7 6.782"/>
    <path class="a" d="M3.47,6.253a0.524,0.524,0,0,0-.07,0c-0.177,0-.267.061-0.267,0.181a0.109,0.109,0,0,0,.1.12H3.245a0.263,0.263,0,0,0,.227-0.295V6.254h0ZM3.7,6.782H3.438l0.006-.123a0.393,0.393,0,0,1-.328.144,0.292,0.292,0,0,1-.287-0.3V6.471A0.465,0.465,0,0,1,3.38,6.016a1.055,1.055,0,0,1,.127.009,0.291,0.291,0,0,0,.012-0.077c0-.079-0.054-0.108-0.2-0.108a1.046,1.046,0,0,0-.331.053l0.043-.267A1.242,1.242,0,0,1,3.4,5.568a0.342,0.342,0,0,1,.41.348,1.529,1.529,0,0,1-.025.235C3.763,6.323,3.7,6.692,3.7,6.782Z"/>
    <path class="a" d="M7.891,5.361l-0.052.313A0.6,0.6,0,0,0,7.56,5.595a0.469,0.469,0,0,0-.4.527v0.02a0.3,0.3,0,0,0,.292.356,0.606,0.606,0,0,0,.266-0.075l-0.055.333a0.975,0.975,0,0,1-.276.043,0.55,0.55,0,0,1-.544-0.625A0.776,0.776,0,0,1,7.5,5.292h0l0.046-.005A1.083,1.083,0,0,1,7.891,5.361Z"/>
    <path class="a" d="M8.4,6.253a0.524,0.524,0,0,0-.07,0c-0.177,0-.267.061-0.267,0.181a0.109,0.109,0,0,0,.1.12H8.17A0.263,0.263,0,0,0,8.4,6.262V6.253ZM8.623,6.782H8.363l0.006-.123a0.393,0.393,0,0,1-.328.144,0.292,0.292,0,0,1-.287-0.3V6.471A0.465,0.465,0,0,1,8.3,6.02a1.055,1.055,0,0,1,.127.009,0.294,0.294,0,0,0,.012-0.077c0-.079-0.054-0.108-0.2-0.108a1.046,1.046,0,0,0-.331.053L7.954,5.63a1.242,1.242,0,0,1,.374-0.063,0.342,0.342,0,0,1,.41.348,1.511,1.511,0,0,1-.025.235C8.689,6.323,8.63,6.692,8.623,6.782Z"/>
    <path class="a" d="M5.087,6.764a0.716,0.716,0,0,1-.225.039,0.229,0.229,0,0,1-.247-0.261,2.747,2.747,0,0,1,.043-0.317c0.018-.111.135-0.811,0.135-0.811H5.1l-0.036.18h0.16l-0.042.285H5.025C4.989,6.1,4.937,6.386,4.937,6.424a0.085,0.085,0,0,0,.107.088A0.252,0.252,0,0,0,5.128,6.5Z"/>
    <path class="a" d="M6.04,6.755a1.062,1.062,0,0,1-.319.048,0.472,0.472,0,0,1-.53-0.529,0.621,0.621,0,0,1,.527-0.7H5.735a0.4,0.4,0,0,1,.42.43,1.278,1.278,0,0,1-.038.292H5.5c-0.026.171,0.084,0.243,0.265,0.243a0.734,0.734,0,0,0,.323-0.075Zm-0.175-.7A0.161,0.161,0,0,0,5.72,5.843a0.219,0.219,0,0,0-.2.212H5.865Z"/>
    <path class="a" d="M3.885,5.974a0.347,0.347,0,0,0,.238.332c0.127,0.06.146,0.077,0.146,0.131,0,0.074-.056.108-0.18,0.108A0.88,0.88,0,0,1,3.809,6.5l-0.043.274a1.455,1.455,0,0,0,.325.035,0.387,0.387,0,0,0,.482-0.4,0.325,0.325,0,0,0-.219-0.333C4.223,6.014,4.2,6,4.2,5.946a0.125,0.125,0,0,1,.145-0.1l0.008,0a1.723,1.723,0,0,1,.225.018l0.044-.276A2.124,2.124,0,0,0,4.35,5.565,0.392,0.392,0,0,0,3.885,5.974Z"/>
    <path class="a" d="M10.277,6.782h-0.3L10,6.674a0.368,0.368,0,0,1-.288.131,0.42,0.42,0,0,1-.386-0.451v0a0.149,0.149,0,0,1,.005-0.038A0.658,0.658,0,0,1,9.84,5.584a0.353,0.353,0,0,1,.3.162l0.06-.424h0.308ZM9.816,6.508a0.336,0.336,0,0,0,.248-0.4c0-.152-0.061-0.234-0.161-0.234a0.336,0.336,0,0,0-.243.4C9.656,6.429,9.71,6.508,9.816,6.508Z"/>
    <path class="a" d="M8.9,5.594c-0.036.368-.106,0.74-0.16,1.106l-0.014.08H9.039c0.112-.726.139-0.868,0.314-0.85a1.167,1.167,0,0,1,.12-0.345,0.286,0.286,0,0,0-.3.187,1.071,1.071,0,0,0,.019-0.18H8.9v0Z"/>
    <path class="a" d="M6.33,5.594c-0.039.368-.109,0.74-0.163,1.108l-0.014.08H6.466c0.112-.726.139-0.868,0.314-0.85A1.174,1.174,0,0,1,6.9,5.587a0.286,0.286,0,0,0-.3.187,1.087,1.087,0,0,0,.019-0.18H6.33Z"/>
  </g>
</svg>
