<?xml version="1.0" encoding="utf-8"?>
<!-- Generator: Adobe Illustrator 18.1.1, SVG Export Plug-In . SVG Version: 6.00 Build 0)  -->
<!DOCTYPE svg PUBLIC "-//W3C//DTD SVG 1.1//EN" "http://www.w3.org/Graphics/SVG/1.1/DTD/svg11.dtd">
<svg version="1.1" id="Laag_1" xmlns="http://www.w3.org/2000/svg" xmlns:xlink="http://www.w3.org/1999/xlink" x="0px" y="0px"
	 width="12px" height="12px" viewBox="0 0 12 12" enable-background="new 0 0 12 12" xml:space="preserve">
<g>
	<path fill="#00AAEE" d="M8.2,7.5V5.2c0-0.1-0.1-0.2-0.2-0.2H4.1c-0.1,0-0.2,0.1-0.2,0.2v2.3c0,0.1,0.1,0.2,0.2,0.2h0.2V7.2H4.1V6.6
		h3.9v0.6H7.7v0.5H8C8.1,7.7,8.2,7.6,8.2,7.5z M4.7,6.2C4.5,6.2,4.2,6,4.2,5.7c0-0.3,0.2-0.5,0.5-0.5c0.3,0,0.5,0.2,0.5,0.5
		C5.2,6,5,6.2,4.7,6.2z"/>
	<path fill="#00AAEE" d="M7.2,4.1H4.9c-0.1,0-0.2,0.1-0.2,0.1v0.4h2.8V4.2C7.4,4.2,7.3,4.1,7.2,4.1z"/>
	<path fill="#00AAEE" d="M6.7,1.5C6.1,1.5,5.4,1.7,5,1.8C4.7,1.8,4.5,1.9,4.3,2c0.3-0.2,0.7-0.3,1-0.3c0.3-0.1,0.7-0.1,1.1-0.2
		c-0.1,0-0.2,0-0.3,0c-2.6,0-4.7,2.1-4.7,4.7c0,2.6,2.1,4.7,4.7,4.7c0.7,0,1.3-0.1,1.9-0.4c0.2-0.1,0.5-0.3,0.5-0.3
		C9,9.7,9.1,9.5,9.3,9.3C9.6,8.9,9.9,8.5,10,8.3c0.5-0.9,0.7-1.6,0.7-2.4C10.6,3.6,8.9,1.8,6.7,1.5z M6,9.8C4,9.8,2.3,8.1,2.3,6.1
		C2.3,4,4,2.4,6,2.4c2.1,0,3.7,1.7,3.7,3.7C9.7,8.1,8.1,9.8,6,9.8z"/>
	<path fill="#00AAEE" d="M4.9,7.1c-0.1,0-0.2,0-0.2,0v1.6c0,0,0.1,0,0.2,0h2.3c0.1,0,0.2,0,0.2,0V7.1c0,0-0.1,0-0.2,0H4.9z"/>
	<path fill="#00AAEE" d="M6,2.7c-1.9,0-3.4,1.5-3.4,3.4c0,0.7,0.2,1.4,0.6,2H4C3.7,8,3.5,7.8,3.5,7.5V5.2c0-0.3,0.3-0.6,0.6-0.6h0.2
		V4.2c0-0.2,0.2-0.4,0.6-0.4h2.3c0.3,0,0.6,0.2,0.6,0.4v0.4H8c0.3,0,0.6,0.3,0.6,0.6v2.3C8.5,7.8,8.3,8,8,8.1h0.8
		c0.4-0.6,0.6-1.2,0.6-2C9.4,4.2,7.9,2.7,6,2.7z"/>
</g>
</svg>
