<?xml version="1.0" encoding="utf-8"?>
<!-- Generator: Adobe Illustrator 18.1.1, SVG Export Plug-In . SVG Version: 6.00 Build 0)  -->
<!DOCTYPE svg PUBLIC "-//W3C//DTD SVG 1.1//EN" "http://www.w3.org/Graphics/SVG/1.1/DTD/svg11.dtd">
<svg version="1.1" id="Laag_1" xmlns="http://www.w3.org/2000/svg" xmlns:xlink="http://www.w3.org/1999/xlink" x="0px" y="0px"
	 width="12px" height="12px" viewBox="0 0 12 12" enable-background="new 0 0 12 12" xml:space="preserve">
<g>
	<path fill="#585858" d="M7.3,6.1L8,6L7.3,5.7C7.3,5.9,7.3,6,7.3,6.1z"/>
	<path fill="#585858" d="M5.4,7.5c-0.1,0-0.1,0-0.2,0l0,0.4L5.4,7.5z"/>
	<path fill="#585858" d="M5.2,7.3c0.1,0,0.2,0,0.3,0h0c0.9,0,1.6-0.7,1.6-1.6c0,0,0-0.1,0-0.1H5.3L5.2,7.3z"/>
	<path fill="#585858" d="M7,6.8l0.7,0.2L7.2,6.4C7.1,6.6,7.1,6.7,7,6.8z"/>
	<path fill="#585858" d="M6.4,7.3L7,7.7L6.8,7C6.7,7.1,6.6,7.2,6.4,7.3z"/>
	<path fill="#585858" d="M6.1,8.1l0.1-0.7C6,7.4,5.9,7.4,5.7,7.5L6.1,8.1z"/>
	<path fill="#585858" d="M6.7,1.5C6.1,1.5,5.5,1.7,5,1.8C4.8,1.8,4.5,1.9,4.3,2c0.3-0.2,0.6-0.3,1-0.3c0.3-0.1,0.7-0.1,1.1-0.2
		c-0.1,0-0.2,0-0.3,0c-2.6,0-4.6,2.1-4.6,4.6c0,2.6,2.1,4.6,4.6,4.6c0.7,0,1.3-0.1,1.9-0.4C8.1,10.2,8.4,10,8.4,10
		C9,9.6,9.1,9.5,9.3,9.2C9.6,8.9,9.9,8.5,10,8.3c0.5-0.9,0.7-1.6,0.7-2.4C10.6,3.6,8.9,1.8,6.7,1.5z M6,9.8c-2,0-3.7-1.7-3.7-3.7
		C2.3,4,4,2.4,6,2.4S9.7,4,9.7,6.1C9.7,8.1,8.1,9.8,6,9.8z"/>
	<path fill="#585858" d="M6,2.7c-1.8,0-3.4,1.5-3.4,3.4c0,1.6,1.1,2.9,2.6,3.3l0-1.5L5.1,8.1L5,7.4c0.1,0,0.1,0,0.2,0.1V7.3
		C4.5,7.1,4,6.5,4,5.7c0-0.9,0.7-1.6,1.6-1.6h0c0.8,0,1.5,0.7,1.6,1.5h2.2C9.1,4,7.7,2.7,6,2.7z M4,5c0,0.1-0.1,0.2-0.1,0.4L3.3,5
		L4,5z M3.8,5.7c0,0.1,0,0.3,0,0.4L3.2,6L3.8,5.7z M4.7,7.3L4.2,7.7L4.4,7C4.5,7.1,4.6,7.2,4.7,7.3z M4.2,6.8L3.5,6.9L4,6.4
		C4,6.6,4.1,6.7,4.2,6.8z M4.1,4.7L3.8,4.1l0.6,0.3C4.3,4.5,4.2,4.6,4.1,4.7z M4.7,4.2L4.6,3.5L5,4C4.9,4.1,4.8,4.1,4.7,4.2z
		 M5.6,3.9L5.6,3.9c-0.1,0-0.1,0-0.2,0l0.2-0.6L5.8,4C5.7,4,5.6,3.9,5.6,3.9z M6.5,4.2C6.4,4.1,6.3,4.1,6.1,4l0.4-0.5L6.5,4.2z
		 M7,4.7C6.9,4.6,6.9,4.5,6.8,4.4l0.6-0.3L7,4.7z M7.3,5.4c0-0.1-0.1-0.2-0.1-0.4l0.7,0L7.3,5.4z"/>
</g>
</svg>
