<?xml version="1.0" encoding="utf-8"?>
<!-- Generator: Adobe Illustrator 18.1.1, SVG Export Plug-In . SVG Version: 6.00 Build 0)  -->
<!DOCTYPE svg PUBLIC "-//W3C//DTD SVG 1.1//EN" "http://www.w3.org/Graphics/SVG/1.1/DTD/svg11.dtd">
<svg version="1.1" id="Laag_1" xmlns="http://www.w3.org/2000/svg" xmlns:xlink="http://www.w3.org/1999/xlink" x="0px" y="0px"
	 width="12px" height="12px" viewBox="0 0 12 12" enable-background="new 0 0 12 12" xml:space="preserve">
<g>
	<rect x="5.6" y="6.7" fill="#585858" width="1" height="1.3"/>
	<path fill="#585858" d="M6,2.7c-1.9,0-3.4,1.5-3.4,3.4c0,0.7,0.2,1.4,0.6,1.9h1V5.8H3.9l2.2-2l2.2,2H8V8h0.8
		c0.4-0.6,0.6-1.2,0.6-1.9C9.4,4.2,7.9,2.7,6,2.7z"/>
	<path fill="#585858" d="M6.7,1.5C6.1,1.5,5.4,1.7,5,1.8C4.7,1.8,4.5,1.9,4.3,2c0.3-0.2,0.6-0.3,1-0.3c0.3-0.1,0.7-0.1,1.1-0.2
		c-0.1,0-0.2,0-0.3,0c-2.6,0-4.7,2.1-4.7,4.7s2.1,4.6,4.7,4.6c0.7,0,1.3-0.1,1.9-0.4c0.2-0.1,0.5-0.3,0.5-0.3
		c0.5-0.3,0.6-0.5,0.9-0.8C9.6,8.9,9.9,8.5,10,8.3c0.5-0.9,0.7-1.6,0.7-2.4C10.6,3.7,8.9,1.8,6.7,1.5z M6,9.8c-2,0-3.7-1.7-3.7-3.7
		C2.3,4,4,2.4,6,2.4S9.7,4,9.7,6.1C9.7,8.1,8.1,9.8,6,9.8z"/>
</g>
</svg>
