<?xml version="1.0" encoding="UTF-8"?>
<svg width="30px" height="30px" viewBox="0 0 30 30" version="1.1" xmlns="http://www.w3.org/2000/svg" xmlns:xlink="http://www.w3.org/1999/xlink">
    <!-- Generator: Sketch 51.2 (57519) - http://www.bohemiancoding.com/sketch -->
    <title>icon-pencil</title>
    <desc>Created with Sketch.</desc>
    <defs></defs>
    <g id="icon-pencil" stroke="none" stroke-width="1" fill="none" fill-rule="evenodd">
        <path d="M10.8956762,18.8325421 L25.7601898,3.96802848 C26.7296149,2.99860339 28.2975827,3.00296818 29.2686091,3.97399461 C30.2361515,4.94153702 30.2364823,6.52050673 29.2745752,7.48241386 L14.4100616,22.3469275 L10.8956762,18.8325421 Z M12.9543555,18.8325421 L14.4100616,20.2882482 L28.2452356,6.45307421 C28.6357269,6.06258285 28.6412516,5.40531639 28.2392694,5.00333425 C27.8344848,4.59854957 27.1882166,4.59868099 26.7895295,4.99736812 L12.9543555,18.8325421 Z" id="Rectangle-26" fill="#000000" fill-rule="nonzero"></path>
        <path d="M0.812318661,25.4088573 L0,24.5306031 L1.15337196,24.2129159 C2.96791746,23.7131136 4.27552166,23.0517758 5.08067447,22.2505218 C5.32072034,22.0116383 5.4337699,21.7320643 5.54500242,21.1661082 C5.56271436,21.0747845 5.56271436,21.0747845 5.58067045,20.9798267 C5.94406984,19.0595407 6.75933161,18.247978 9.39076624,18.10567 C13.3884387,17.8894758 15.4401897,20.1880356 15.4401897,23.315526 C15.4401897,25.944196 12.7218489,27.4709298 7.9752002,27.6451061 C4.72008929,27.7645511 2.31666973,27.0353159 0.812318661,25.4088573 Z M7.92181959,26.1903791 C11.9870764,26.0412062 13.9844836,24.9193788 13.9844836,23.315526 C13.9844836,20.9725113 12.5731448,19.3914001 9.46937599,19.559252 C7.54873286,19.6631204 7.25630072,19.9542257 7.01099006,21.2505037 C6.99280575,21.3466876 6.99280575,21.3466876 6.97338244,21.4468407 C6.8110274,22.2729106 6.60171294,22.7905496 6.10751285,23.2823566 C5.32818457,24.0579111 4.23941225,24.6948551 2.84327596,25.2032043 C4.03965534,25.9346582 5.72541893,26.2709751 7.92181959,26.1903791 Z" id="Path-8" fill="#292929" fill-rule="nonzero"></path>
    </g>
</svg>