<?xml version="1.0" encoding="utf-8"?>
<!-- Generator: Adobe Illustrator 18.1.1, SVG Export Plug-In . SVG Version: 6.00 Build 0)  -->
<!DOCTYPE svg PUBLIC "-//W3C//DTD SVG 1.1//EN" "http://www.w3.org/Graphics/SVG/1.1/DTD/svg11.dtd">
<svg version="1.1" id="Laag_1" xmlns="http://www.w3.org/2000/svg" xmlns:xlink="http://www.w3.org/1999/xlink" x="0px" y="0px"
	 width="12px" height="12px" viewBox="0 0 12 12" enable-background="new 0 0 12 12" xml:space="preserve">
<g>
	<path fill-rule="evenodd" clip-rule="evenodd" fill="#585858" d="M4.539,7.132c0-1.344,0.741-2.503,1.829-3.127
		C6.215,2.806,5.256,1.879,4.083,1.879c-1.279,0-2.317,1.098-2.317,2.451v0.613c0,0.883,0.445,1.649,1.105,2.081
		C1.729,7.476,0.609,8.62,0.609,9.845c0,0.339,0.26,0.613,0.579,0.613h5.545C5.443,9.905,4.539,8.624,4.539,7.132z"/>
	<g>
		<path fill="#585858" d="M8.157,4.033c-1.708,0-3.098,1.39-3.098,3.098c0,1.709,1.39,3.098,3.098,3.098
			c1.709,0,3.098-1.39,3.098-3.098C11.256,5.423,9.866,4.033,8.157,4.033z M8.157,9.241c-1.163,0-2.109-0.947-2.109-2.11
			s0.946-2.11,2.109-2.11c1.163,0,2.11,0.947,2.11,2.11S9.32,9.241,8.157,9.241z"/>
		<path fill="#585858" d="M8.419,7.106c0-0.003,0.002-0.006,0.002-0.009V5.548c0-0.109-0.089-0.198-0.198-0.198H8.059
			c-0.11,0-0.198,0.088-0.198,0.198v1.549c0,0.029,0.007,0.056,0.018,0.081c-0.032,0.073-0.02,0.16,0.04,0.22l0.752,0.752
			c0.077,0.077,0.202,0.077,0.28,0l0.116-0.116c0.078-0.077,0.078-0.202,0-0.28L8.419,7.106z"/>
	</g>
</g>
</svg>
