<?xml version="1.0" encoding="utf-8"?>
<!-- Generator: Adobe Illustrator 18.1.1, SVG Export Plug-In . SVG Version: 6.00 Build 0)  -->
<!DOCTYPE svg PUBLIC "-//W3C//DTD SVG 1.1//EN" "http://www.w3.org/Graphics/SVG/1.1/DTD/svg11.dtd">
<svg version="1.1" id="Laag_1" xmlns="http://www.w3.org/2000/svg" xmlns:xlink="http://www.w3.org/1999/xlink" x="0px" y="0px"
	 width="12px" height="12px" viewBox="0 0 12 12" enable-background="new 0 0 12 12" xml:space="preserve">
<g>
	<path fill="#585858" d="M9.223,11.093H2.776c-0.493,0-0.895-0.418-0.895-0.932c0-1.37,1.097-2.586,2.289-3.198
		C3.538,6.4,3.171,5.582,3.171,4.7V4.019c0-1.644,1.27-2.981,2.831-2.981c1.56,0,2.829,1.337,2.829,2.981V4.7
		c0,0.882-0.367,1.7-1,2.263c1.191,0.612,2.287,1.827,2.287,3.198C10.118,10.675,9.717,11.093,9.223,11.093z M6.002,1.537
		c-1.285,0-2.331,1.113-2.331,2.481V4.7c0,0.862,0.418,1.651,1.118,2.109l0.404,0.264L4.744,7.25
		c-1.146,0.454-2.363,1.628-2.363,2.91c0,0.238,0.177,0.432,0.395,0.432h6.447c0.218,0,0.396-0.194,0.396-0.432
		c0-1.282-1.216-2.457-2.361-2.91L6.809,7.073l0.404-0.264c0.7-0.458,1.118-1.247,1.118-2.109V4.019
		C8.331,2.65,7.286,1.537,6.002,1.537z"/>
</g>
</svg>
