<?xml version="1.0" encoding="utf-8"?>
<!-- Generator: Adobe Illustrator 18.1.1, SVG Export Plug-In . SVG Version: 6.00 Build 0)  -->
<!DOCTYPE svg PUBLIC "-//W3C//DTD SVG 1.1//EN" "http://www.w3.org/Graphics/SVG/1.1/DTD/svg11.dtd">
<svg version="1.1" id="Laag_1" xmlns="http://www.w3.org/2000/svg" xmlns:xlink="http://www.w3.org/1999/xlink" x="0px" y="0px"
	 width="12px" height="12px" viewBox="0 0 12 12" enable-background="new 0 0 12 12" xml:space="preserve">
<g>
	<path fill="#ffffff" d="M3.8,7.7c0-1.8,1.1-3.3,2.6-4C6.1,2.6,5.1,1.7,3.9,1.7c-1.4,0-2.5,1.2-2.5,2.6v0.7c0,0.9,0.5,1.8,1.2,2.2
		c-1.2,0.5-2.4,1.7-2.4,3c0,0.4,0.3,0.7,0.6,0.7H5C4.2,10,3.8,8.9,3.8,7.7z"/>
	<path fill="#ffffff" d="M8.1,4.1c-2,0-3.7,1.6-3.7,3.7c0,2,1.6,3.7,3.7,3.7c2,0,3.7-1.6,3.7-3.7C11.8,5.7,10.1,4.1,8.1,4.1z
		 M7.8,10.8c-0.5,0-0.8-0.3-0.8-0.8c0-0.4,0.3-0.8,0.8-0.8c0.5,0,0.8,0.4,0.8,0.8C8.6,10.5,8.3,10.8,7.8,10.8z M8.4,8.8
		c0,0-0.1,0-0.5,0c-0.4,0-0.5,0-0.5,0l0.1-3.7c0,0,0.2-0.1,0.8-0.1c0.5,0,0.7,0.1,0.7,0.1L8.4,8.8z"/>
</g>
</svg>
