<?xml version="1.0" encoding="utf-8"?>
<!-- Generator: Adobe Illustrator 18.1.1, SVG Export Plug-In . SVG Version: 6.00 Build 0)  -->
<!DOCTYPE svg PUBLIC "-//W3C//DTD SVG 1.1//EN" "http://www.w3.org/Graphics/SVG/1.1/DTD/svg11.dtd">
<svg version="1.1" id="Laag_1" xmlns="http://www.w3.org/2000/svg" xmlns:xlink="http://www.w3.org/1999/xlink" x="0px" y="0px"
	 width="12px" height="12px" viewBox="0 0 12 12" enable-background="new 0 0 12 12" xml:space="preserve">
<g>
	<path fill="#AAAAAA" d="M3.8,7.6c0-1.8,1.1-3.3,2.6-3.9C6.1,2.5,5.1,1.6,3.9,1.6c-1.4,0-2.5,1.2-2.5,2.6v0.6C1.5,5.8,2,6.6,2.7,7
		c-1.2,0.5-2.4,1.7-2.4,3c0,0.4,0.3,0.6,0.6,0.6H5C4.3,9.9,3.8,8.8,3.8,7.6z"/>
	<path fill="#AAAAAA" d="M8.1,4c-2,0-3.7,1.6-3.7,3.7s1.6,3.7,3.7,3.7c2,0,3.7-1.6,3.7-3.7C11.7,5.6,10.1,4,8.1,4z M8,4.8
		c0.4,0,0.6,0.3,0.6,0.7c0,0.4-0.3,0.6-0.7,0.6c-0.4,0-0.7-0.3-0.7-0.6C7.4,5.1,7.6,4.8,8,4.8z M7.9,10.4c-0.7,0-0.9-0.2-0.9-0.9
		l0.3-2.1c0,0-0.1,0.1-0.4,0.1c-0.3,0-0.4-0.2-0.4-0.4c0-0.2,0.1-0.3,0.1-0.3c0.8,0,1.8-0.2,1.8-0.2s0.2,0.1,0.3,0.3L8.3,8L8.1,9.8
		c0.4-0.2,0.7-0.4,0.7-0.4S9,9.4,9,9.7C9,10.1,8.6,10.4,7.9,10.4z"/>
</g>
</svg>
