<?xml version="1.0" encoding="utf-8"?>
<!-- Generator: Adobe Illustrator 18.1.1, SVG Export Plug-In . SVG Version: 6.00 Build 0)  -->
<!DOCTYPE svg PUBLIC "-//W3C//DTD SVG 1.1//EN" "http://www.w3.org/Graphics/SVG/1.1/DTD/svg11.dtd">
<svg version="1.1" id="Laag_1" xmlns="http://www.w3.org/2000/svg" xmlns:xlink="http://www.w3.org/1999/xlink" x="0px" y="0px"
	 width="12px" height="12px" viewBox="0 0 12 12" enable-background="new 0 0 12 12" xml:space="preserve">
<g>
	<g>
		<path fill="#FFFFFF" d="M6,7.8c0.6-0.4,1-1.1,1-2V5.3C7.1,4,6.1,3,4.9,3C3.7,3,2.7,4,2.7,5.3v0.6c0,0.8,0.4,1.5,1,2
			c-1.1,0.4-2.1,1.5-2.1,2.6c0,0.3,0.2,0.6,0.5,0.6h5.4c0.3,0,0.5-0.3,0.5-0.6C8.2,9.3,7.1,8.2,6,7.8z"/>
	</g>
	<path fill="#FFFFFF" d="M10.6,1.6c0-0.4-0.3-0.7-0.7-0.7H7.5c-0.4,0-0.7,0.3-0.7,0.7v1.2c0,0.4,0.3,0.7,0.7,0.7h0.1l0,1.1l1.2-1.1
		h1.1c0.4,0,0.7-0.3,0.7-0.7V1.6z"/>
</g>
</svg>
