<?xml version="1.0" encoding="UTF-8"?>
<svg width="30px" height="30px" viewBox="0 0 30 30" version="1.1" xmlns="http://www.w3.org/2000/svg" xmlns:xlink="http://www.w3.org/1999/xlink">
    <g id="icon-person-outline" stroke="none" stroke-width="1" fill="none" fill-rule="evenodd">
        <path d="M19.9512438,6.99973382 C19.9512438,4.23888723 17.7221985,2.00104206 14.9715589,2.00104206 C12.2209192,2.00104206 9.99187396,4.23888723 9.99187396,6.99973382 C9.99187396,9.7605804 12.2209192,11.9984256 14.9715589,11.9984256 C17.7221985,11.9984256 19.9512438,9.7605804 19.9512438,6.99973382 Z M21.9431177,6.99973382 C21.9431177,10.8660176 18.8219895,13.9994676 14.9715589,13.9994676 C11.1211282,13.9994676 8,10.8660176 8,6.99973382 C8,3.13345001 11.1211282,0 14.9715589,0 C18.8219895,0 21.9431177,3.13345001 21.9431177,6.99973382 Z" id="Stroke-103" fill="#585858" fill-rule="nonzero"></path>
        <path d="M26.8943615,27.99973 C26.8943615,22.4784545 22.4365475,18.0010421 16.9349917,18.0010421 L12.9512438,18.0010421 C7.44968788,18.0010421 2.99187396,22.4784545 2.99187396,27.99973 L26.8943615,27.99973 Z M26.8943615,30.0007721 L2.99187396,30.0007721 C1.89179235,30.0007721 1,29.1048751 1,27.99973 C1,21.3723885 6.35052327,16 12.9512438,16 L16.9349917,16 C23.5357122,16 28.8862354,21.3723885 28.8862354,27.99973 C28.8862354,29.1048751 27.9944431,30.0007721 26.8943615,30.0007721 Z" id="Stroke-104" fill="#585858" fill-rule="nonzero"></path>
    </g>
</svg>