<?xml version="1.0" encoding="utf-8"?>
<!-- Generator: Adobe Illustrator 18.1.1, SVG Export Plug-In . SVG Version: 6.00 Build 0)  -->
<!DOCTYPE svg PUBLIC "-//W3C//DTD SVG 1.1//EN" "http://www.w3.org/Graphics/SVG/1.1/DTD/svg11.dtd">
<svg version="1.1" id="Laag_1" xmlns="http://www.w3.org/2000/svg" xmlns:xlink="http://www.w3.org/1999/xlink" x="0px" y="0px"
	 width="12px" height="12px" viewBox="0 0 12 12" enable-background="new 0 0 12 12" xml:space="preserve">
<g>
	<path fill="#C9161A" d="M2,10.7c-0.4,0-0.8-0.3-0.8-0.8V2c0-0.4,0.3-0.8,0.8-0.8h8c0.4,0,0.8,0.3,0.8,0.8v8c0,0.4-0.3,0.8-0.8,0.8
		H2V10.7z"/>
	<path fill="#AF1524" d="M10,1.5c0.3,0,0.5,0.2,0.5,0.5v8c0,0.3-0.2,0.5-0.5,0.5H2c-0.3,0-0.5-0.2-0.5-0.5V2c0-0.3,0.2-0.5,0.5-0.5
		H10 M10,1H2C1.4,1,1,1.5,1,2v8c0,0.6,0.5,1,1,1h8c0.6,0,1-0.4,1-1V2C11,1.5,10.5,1,10,1L10,1z"/>
</g>
<path fill="#FFFFFF" d="M6.1,2.8c-1.9,0-2.8,1.3-2.8,2.5c0,0.7,0.3,1.3,0.8,1.5c0.1,0,0.2,0,0.2-0.1s0.1-0.2,0.1-0.3
	c0-0.1,0-0.1-0.1-0.2C4.2,6,4.1,5.7,4.1,5.4c0-1,0.7-1.9,1.9-1.9c1.1,0,1.6,0.6,1.6,1.5c0,1.1-0.5,2.1-1.2,2.1
	C6,7.1,5.7,6.7,5.8,6.3c0.1-0.5,0.3-1,0.3-1.4c0-0.3-0.2-0.6-0.5-0.6c-0.4,0-0.8,0.4-0.8,1C4.8,5.7,5,6,5,6S4.5,7.8,4.5,8.1
	c-0.2,0.6,0,1.4,0,1.5c0,0,0.1,0.1,0.1,0s0.5-0.7,0.7-1.3c0-0.2,0.3-1.1,0.3-1.1c0.1,0.3,0.5,0.5,1,0.5c1.3,0,2.1-1.1,2.1-2.7
	C8.6,3.9,7.6,2.8,6.1,2.8z"/>
</svg>
