<?xml version="1.0" encoding="utf-8"?>
<!-- Generator: Adobe Illustrator 19.0.0, SVG Export Plug-In . SVG Version: 6.00 Build 0)  -->
<!DOCTYPE svg PUBLIC "-//W3C//DTD SVG 1.1//EN" "http://www.w3.org/Graphics/SVG/1.1/DTD/svg11.dtd">
<svg version="1.1" id="Laag_1" xmlns="http://www.w3.org/2000/svg" xmlns:xlink="http://www.w3.org/1999/xlink" x="0px" y="0px"
	 width="12px" height="12px" viewBox="0 0 12 12" enable-background="new 0 0 12 12" xml:space="preserve">
<path id="XMLID_2_" fill="#585858" d="M6.042,1.282c-2.677,0-4.849,2.171-4.849,4.849c0,2.68,2.171,4.85,4.849,4.85
	s4.852-2.17,4.852-4.85C10.894,3.453,8.721,1.282,6.042,1.282z M8.704,6.87L8.672,6.977H6.658l0.104,2.024l-0.13,0.023
	c-0.017,0.003-0.281,0.05-0.619,0.05c-0.175,0-0.37-0.013-0.56-0.05L5.326,8.999l0.093-2.021H3.421L3.385,6.879
	C3.378,6.858,3.202,6.362,3.383,5.784l0.033-0.105h2.003L5.326,3.635l0.128-0.024c0.025-0.004,0.601-0.108,1.179,0l0.128,0.024
	L6.657,5.678h2.005l0.037,0.095C8.707,5.794,8.884,6.26,8.704,6.87z"/>
</svg>
