<?xml version="1.0" encoding="UTF-8"?>
<svg width="30px" height="30px" viewBox="0 0 30 30" version="1.1" xmlns="http://www.w3.org/2000/svg" xmlns:xlink="http://www.w3.org/1999/xlink">
    <g id="icon-radio" stroke="none" stroke-width="1" fill="none" fill-rule="evenodd">
        <path d="M26.8388835,9 C28.5859147,9 29.9963289,10.41656 29.9963289,12.1677032 L29.9963289,24.9527638 C29.9963289,26.6978278 28.5760279,28.120467 26.8388835,28.120467 L3.15744547,28.120467 C1.41041419,28.120467 0,26.7039069 0,24.9527638 L0,12.1677032 C0,10.4226392 1.42030098,9 3.15744547,9 L26.8388835,9 Z M26.8388835,10.5787542 L3.15744547,10.5787542 C2.29662777,10.5787542 1.57875415,11.2901509 1.57875415,12.1677032 L1.57875415,24.9527638 C1.57875415,25.8352073 2.28555833,26.5417128 3.15744547,26.5417128 L26.8388835,26.5417128 C27.6997012,26.5417128 28.4175748,25.8303161 28.4175748,24.9527638 L28.4175748,12.1677032 C28.4175748,11.2852596 27.7107706,10.5787542 26.8388835,10.5787542 Z" id="Combined-Shape" fill="#585858" fill-rule="nonzero"></path>
        <path d="M21.5,24 C18.4624339,24 16,21.5375661 16,18.5 C16,15.4624339 18.4624339,13 21.5,13 C24.5375661,13 27,15.4624339 27,18.5 C27,21.5375661 24.5375661,24 21.5,24 Z M21.5,22.4285714 C23.6696901,22.4285714 25.4285714,20.6696901 25.4285714,18.5 C25.4285714,16.3303099 23.6696901,14.5714286 21.5,14.5714286 C19.3303099,14.5714286 17.5714286,16.3303099 17.5714286,18.5 C17.5714286,20.6696901 19.3303099,22.4285714 21.5,22.4285714 Z" id="Combined-Shape" fill="#585858" fill-rule="nonzero"></path>
        <path d="M9.28252609,9.7208227 C8.94209781,9.99316533 8.44534883,9.937971 8.17300621,9.59754271 C7.90066358,9.25711442 7.95585791,8.76036545 8.29628619,8.48802282 L16.190057,2.17300621 C16.5304852,1.90066358 17.0272342,1.95585791 17.2995769,2.29628619 C17.5719195,2.63671448 17.5167252,3.13346345 17.1762969,3.40580608 L9.28252609,9.7208227 Z" id="Path-6-Copy" fill="#585858" fill-rule="nonzero"></path>
        <path d="M4.78937708,16.5787542 C4.35341616,16.5787542 4,16.225338 4,15.7893771 C4,15.3534162 4.35341616,15 4.78937708,15 L12.6831478,15 C13.1191088,15 13.4725249,15.3534162 13.4725249,15.7893771 C13.4725249,16.225338 13.1191088,16.5787542 12.6831478,16.5787542 L4.78937708,16.5787542 Z" id="hamburger-menu-line" fill="#585858" fill-rule="nonzero"></path>
        <path d="M4.78937708,19.5787542 C4.35341616,19.5787542 4,19.225338 4,18.7893771 C4,18.3534162 4.35341616,18 4.78937708,18 L12.6831478,18 C13.1191088,18 13.4725249,18.3534162 13.4725249,18.7893771 C13.4725249,19.225338 13.1191088,19.5787542 12.6831478,19.5787542 L4.78937708,19.5787542 Z" id="hamburger-menu-line" fill="#585858" fill-rule="nonzero"></path>
        <path d="M4.78937708,22.5787542 C4.35341616,22.5787542 4,22.225338 4,21.7893771 C4,21.3534162 4.35341616,21 4.78937708,21 L12.6831478,21 C13.1191088,21 13.4725249,21.3534162 13.4725249,21.7893771 C13.4725249,22.225338 13.1191088,22.5787542 12.6831478,22.5787542 L4.78937708,22.5787542 Z" id="hamburger-menu-line" fill="#585858" fill-rule="nonzero"></path>
    </g>
</svg>