<?xml version="1.0" encoding="utf-8"?>
<!-- Generator: Adobe Illustrator 18.1.1, SVG Export Plug-In . SVG Version: 6.00 Build 0)  -->
<!DOCTYPE svg PUBLIC "-//W3C//DTD SVG 1.1//EN" "http://www.w3.org/Graphics/SVG/1.1/DTD/svg11.dtd">
<svg version="1.1" id="Laag_1" xmlns="http://www.w3.org/2000/svg" xmlns:xlink="http://www.w3.org/1999/xlink" x="0px" y="0px"
	 width="12px" height="12px" viewBox="0 0 12 12" enable-background="new 0 0 12 12" xml:space="preserve">
<g>
	<path fill="#EBEBEB" d="M6,10.8c-2.4,0-4.5-1.8-4.7-4.3c0-0.2,0-0.3,0-0.5c0-2.6,2.1-4.7,4.7-4.7s4.7,2.1,4.7,4.7
		c0,2.1-1.3,3.9-3.3,4.5C6.9,10.7,6.5,10.8,6,10.8z M4,8.9L4.2,9C4.8,9.3,5.4,9.5,6,9.5c1.9,0,3.5-1.6,3.5-3.5
		c0-0.6-0.2-1.2-0.5-1.8L8.9,4.1L4,8.9z M6,2.5C4,2.5,2.5,4.1,2.5,6c0,0.6,0.2,1.3,0.5,1.8L3.1,8L8,3.1L7.8,3C7.2,2.7,6.6,2.5,6,2.5
		z"/>
	<path fill="#AAAAAA" d="M6,1.4c2.5,0,4.6,2.1,4.6,4.6c0,2-1.3,3.8-3.2,4.4c-0.4,0.1-0.9,0.2-1.4,0.2c-2.4,0-4.3-1.8-4.6-4.1
		c0-0.2,0-0.3,0-0.5C1.4,3.5,3.4,1.4,6,1.4 M3.1,8.2L3.3,8l4.6-4.6l0.3-0.3L7.9,2.9C7.3,2.5,6.6,2.4,6,2.4C4,2.4,2.3,4,2.3,6
		c0,0.7,0.2,1.3,0.6,1.9L3.1,8.2 M6,9.7C8,9.7,9.6,8,9.6,6c0-0.6-0.2-1.3-0.5-1.8L8.9,3.8L8.6,4.1L4.1,8.7L3.8,8.9l0.3,0.2
		C4.7,9.5,5.3,9.7,6,9.7 M6,1.1C3.3,1.1,1.1,3.3,1.1,6c0,0.2,0,0.3,0,0.5C1.4,9,3.4,10.9,6,10.9c0.5,0,1-0.1,1.5-0.2
		c2-0.6,3.4-2.5,3.4-4.7C10.9,3.3,8.7,1.1,6,1.1L6,1.1z M3.1,7.8C2.8,7.2,2.6,6.6,2.6,6c0-1.8,1.5-3.4,3.4-3.4
		c0.6,0,1.2,0.2,1.7,0.5L3.1,7.8L3.1,7.8z M6,9.4c-0.6,0-1.2-0.2-1.7-0.5l4.6-4.6C9.2,4.8,9.3,5.4,9.3,6C9.3,7.9,7.8,9.4,6,9.4
		L6,9.4z"/>
</g>
</svg>
