<?xml version="1.0" encoding="utf-8"?>
<!-- Generator: Adobe Illustrator 18.1.1, SVG Export Plug-In . SVG Version: 6.00 Build 0)  -->
<!DOCTYPE svg PUBLIC "-//W3C//DTD SVG 1.1//EN" "http://www.w3.org/Graphics/SVG/1.1/DTD/svg11.dtd">
<svg version="1.1" id="Laag_1" xmlns="http://www.w3.org/2000/svg" xmlns:xlink="http://www.w3.org/1999/xlink" x="0px" y="0px"
	 width="12px" height="12px" viewBox="0 0 12 12" enable-background="new 0 0 12 12" xml:space="preserve">
<g>
	<path fill="#585858" d="M7.524,4.408C7.901,5.103,8.257,5.759,8.658,6.5C8.407,6.603,5.814,7.916,4.744,8.477
		C4.357,8.679,4.278,8.653,4.064,8.261C3.836,7.84,3.608,7.417,3.377,6.998C3.263,6.796,3.289,6.636,3.502,6.523
		C4.834,5.823,6.166,5.123,7.524,4.408z"/>
	<path fill="#585858" d="M8.902,6.287C8.531,5.607,8.171,4.948,7.8,4.273c0.824-0.456,1.688-0.695,2.606-0.764
		c0.325-0.024,0.653-0.018,0.984-0.023c0.196-0.004,0.299,0.1,0.195,0.28C10.939,4.852,10.024,5.657,8.902,6.287z"/>
	<path fill="#585858" d="M6.871,7.917c-0.24,0.887-0.714,1.619-1.48,2.146c-0.16,0.107-0.303,0.084-0.401-0.096
		C4.876,9.756,4.736,9.556,4.658,9.334C4.62,9.226,4.629,9.018,4.746,8.957C4.864,8.9,6.121,8.213,6.812,7.845
		C6.831,7.869,6.851,7.892,6.871,7.917z"/>
	<path fill="#585858" d="M5.333,5.109C5.1,5.233,4.871,5.359,4.636,5.481C4.215,5.706,3.793,5.925,3.368,6.149
		C3.131,6.273,2.952,6.23,2.823,5.984c-0.084-0.169-0.18-0.332-0.268-0.5C2.418,5.22,2.457,5.12,2.744,5.016
		c0.642-0.227,1.299-0.268,1.967-0.142c0.204,0.039,0.405,0.089,0.607,0.134C5.323,5.042,5.328,5.076,5.333,5.109z"/>
	<path fill="#585858" d="M3.922,8.734C2.827,9.033,1.773,9.321,0.718,9.612c-0.009-0.02-0.016-0.039-0.023-0.057
		c0.94-0.493,1.879-0.984,2.851-1.496C3.672,8.281,3.784,8.482,3.922,8.734z"/>
	<path fill="#585858" d="M0.449,9.108c0.826-0.7,1.656-1.401,2.464-2.087c0.059,0.028,0.41,0.646,0.41,0.646
		s-2.787,1.46-2.844,1.487C0.468,9.138,0.457,9.123,0.449,9.108z"/>
</g>
</svg>
