<?xml version="1.0" encoding="utf-8"?>
<!-- Generator: Adobe Illustrator 18.1.1, SVG Export Plug-In . SVG Version: 6.00 Build 0)  -->
<!DOCTYPE svg PUBLIC "-//W3C//DTD SVG 1.1//EN" "http://www.w3.org/Graphics/SVG/1.1/DTD/svg11.dtd">
<svg version="1.1" id="Laag_1" xmlns="http://www.w3.org/2000/svg" xmlns:xlink="http://www.w3.org/1999/xlink" x="0px" y="0px"
	 width="12px" height="12px" viewBox="0 0 12 12" enable-background="new 0 0 12 12" xml:space="preserve">
<g>
	<g>
		<path fill="#FF7600" d="M2,10.7c-0.4,0-0.8-0.3-0.8-0.8V2c0-0.4,0.3-0.8,0.8-0.8h8c0.4,0,0.8,0.3,0.8,0.8v8c0,0.4-0.3,0.8-0.8,0.8
			H2V10.7z"/>
		<path fill="#F46800" d="M10,1.5c0.3,0,0.5,0.2,0.5,0.5v8c0,0.3-0.2,0.5-0.5,0.5H2c-0.3,0-0.5-0.2-0.5-0.5V2c0-0.3,0.2-0.5,0.5-0.5
			H10 M10,1H2C1.4,1,1,1.5,1,2v8c0,0.6,0.5,1,1,1h8c0.6,0,1-0.4,1-1V2C11,1.5,10.5,1,10,1L10,1z"/>
	</g>
	<g>
		<g>
			<path fill="#FFFFFF" d="M5,5.1c0.5,0,1.1,0.2,1.5,0.6s0.6,0.9,0.6,1.5h0.8c0-1.6-1.3-2.9-2.9-2.9V5.1L5,5.1z"/>
		</g>
		<g>
			<path fill="#FFFFFF" d="M5,3.6c2,0,3.6,1.6,3.6,3.6h0.8c0-2.4-2-4.4-4.4-4.4L5,3.6L5,3.6z"/>
		</g>
		<g>
			<path fill="#FFFFFF" d="M6.4,7.6c0,0.5-0.2,1-0.5,1.4C5.5,9.3,5,9.5,4.5,9.5S3.6,9.3,3.2,9C2.8,8.6,2.7,8.1,2.7,7.6V4.9
				c0-0.2,0.1-0.3,0.2-0.4C3,4.4,3.1,4.3,3.3,4.3c0.1,0,0.3,0.1,0.4,0.2c0.1,0.1,0.2,0.2,0.2,0.4v2.7C3.8,7.8,3.8,8,4,8.2
				c0.1,0.2,0.3,0.2,0.5,0.2S4.9,8.3,5,8.2C5.2,8,5.3,7.8,5.3,7.6c0-0.2-0.1-0.4-0.2-0.5C4.9,7,4.7,6.9,4.5,6.9S4.2,6.8,4.1,6.7
				C4,6.6,4,6.5,4,6.4C4,6.2,4,6.1,4.1,6s0.2-0.2,0.4-0.2c0.5,0,1,0.2,1.3,0.5C6.2,6.6,6.4,7.1,6.4,7.6z"/>
		</g>
	</g>
</g>
</svg>
