<?xml version="1.0" encoding="utf-8"?>
<!-- Generator: Adobe Illustrator 18.1.1, SVG Export Plug-In . SVG Version: 6.00 Build 0)  -->
<!DOCTYPE svg PUBLIC "-//W3C//DTD SVG 1.1//EN" "http://www.w3.org/Graphics/SVG/1.1/DTD/svg11.dtd">
<svg version="1.1" id="Laag_1" xmlns="http://www.w3.org/2000/svg" xmlns:xlink="http://www.w3.org/1999/xlink" x="0px" y="0px"
	 width="12px" height="12px" viewBox="0 0 12 12" enable-background="new 0 0 12 12" xml:space="preserve">
<g>
	<path fill="#585858" d="M10.1,9.6L7.5,7.5c1-1.6,0.6-3.8-0.9-5c-0.9-0.7-2.1-1-3.3-0.8C2.5,1.9,1.8,2.4,1.2,3.1
		C0.6,3.9,0.3,4.9,0.4,5.9C0.5,7,1,7.9,1.8,8.5c0.9,0.7,2.1,1,3.3,0.8c0.6-0.1,1.2-0.5,1.7-0.9l2.6,2.2c0.1,0.1,0.3,0,0.5-0.2
		l0.1-0.2C10.2,10,10.2,9.7,10.1,9.6z M6.3,7.2C5.9,7.6,5.4,7.9,4.8,8.1C4,8.3,3.2,8.1,2.6,7.6C1.5,6.7,1.3,5,2.2,3.9
		c0.4-0.5,0.9-0.8,1.5-0.9c0.8-0.2,1.6,0,2.2,0.5C7,4.4,7.2,6,6.3,7.2z"/>
</g>
<g>
	<g>
		<path fill-rule="evenodd" clip-rule="evenodd" fill="#585858" d="M8.3,7.5h3.3V6.4H8.7L8.3,7.5z M8.8,5.3h2.8V4.1h-3L8.8,5.3z
			 M7.1,1.9l1.1,1.1h3.4V1.9H7.1z"/>
	</g>
</g>
</svg>
