<?xml version="1.0" encoding="utf-8"?>
<!-- Generator: Adobe Illustrator 19.0.0, SVG Export Plug-In . SVG Version: 6.00 Build 0)  -->
<!DOCTYPE svg PUBLIC "-//W3C//DTD SVG 1.1//EN" "http://www.w3.org/Graphics/SVG/1.1/DTD/svg11.dtd">
<svg version="1.1" id="Laag_1" xmlns="http://www.w3.org/2000/svg" xmlns:xlink="http://www.w3.org/1999/xlink" x="0px" y="0px"
	 width="12px" height="12px" viewBox="0 0 12 12" enable-background="new 0 0 12 12" xml:space="preserve">
<g>
	<path fill="#585858" d="M5.957,3.505c-1.345,0-2.439,1.094-2.439,2.439s1.095,2.439,2.439,2.439S8.396,7.29,8.396,5.945
		S7.302,3.505,5.957,3.505z M5.957,7.631c-0.933,0-1.688-0.754-1.688-1.685c0-0.932,0.755-1.686,1.688-1.686
		c0.93,0,1.686,0.754,1.686,1.686C7.643,6.876,6.887,7.631,5.957,7.631z"/>
	<path fill="#585858" d="M10.407,5.096c-0.131-0.357-0.212-0.654-0.326-0.971C8.918,4.38,8.539,3.371,9.031,2.668
		c-0.26-0.182-0.465-0.355-0.809-0.566c-0.49,0.748-1.699,0.366-1.699-0.647c-0.377,0-0.756,0-1.135,0
		c0,1.09-1.218,1.324-1.777,0.647c-0.234,0.177-0.478,0.395-0.73,0.647c0.532,0.644,0.049,1.64-1.052,1.376
		c-0.102,0.33-0.205,0.646-0.322,0.971c0.922,0.219,0.893,1.425,0,1.699c0.087,0.342,0.199,0.664,0.322,0.971
		C2.993,7.51,3.372,8.518,2.881,9.223c0.283,0.225,0.497,0.381,0.81,0.565c0.49-0.745,1.697-0.384,1.697,0.648
		c0.378,0,0.757,0,1.135,0c0-1.091,1.218-1.323,1.78-0.648C8.561,9.571,8.739,9.405,9.031,9.14c-0.533-0.644-0.047-1.639,1.05-1.374
		c0.124-0.308,0.235-0.63,0.326-0.971C9.45,6.561,9.45,5.329,10.407,5.096z M5.957,8.884c-1.621,0-2.939-1.319-2.939-2.939
		s1.318-2.939,2.939-2.939s2.939,1.319,2.939,2.939S7.578,8.884,5.957,8.884z"/>
</g>
</svg>
