<?xml version="1.0" encoding="utf-8"?>
<!-- Generator: Adobe Illustrator 18.1.1, SVG Export Plug-In . SVG Version: 6.00 Build 0)  -->
<!DOCTYPE svg PUBLIC "-//W3C//DTD SVG 1.1//EN" "http://www.w3.org/Graphics/SVG/1.1/DTD/svg11.dtd">
<svg version="1.1" id="Laag_1" xmlns="http://www.w3.org/2000/svg" xmlns:xlink="http://www.w3.org/1999/xlink" x="0px" y="0px"
	 width="12px" height="12px" viewBox="0 0 12 12" enable-background="new 0 0 12 12" xml:space="preserve">
<g>
	<g>
		<rect x="5.727" y="3.963" fill="#585858" width="0.618" height="4.526"/>
		<rect x="3.771" y="5.918" fill="#585858" width="4.529" height="0.618"/>
	</g>
	<g>
		<path fill="#585858" d="M1.93,4.58V2.223c0-0.057,0.044-0.102,0.102-0.102h2.357V1.503H2.032c-0.399,0-0.72,0.322-0.72,0.72V4.58
			H1.93z"/>
		<path fill="#585858" d="M10.141,7.873v2.357c0,0.058-0.046,0.103-0.102,0.103H7.681v0.617h2.359c0.395,0,0.72-0.322,0.72-0.72
			V7.873H10.141z"/>
		<path fill="#585858" d="M7.681,2.121h2.359c0.056,0,0.102,0.046,0.102,0.102V4.58h0.619V2.223c0-0.398-0.325-0.72-0.72-0.72H7.682
			L7.681,2.121L7.681,2.121z"/>
		<path fill="#585858" d="M4.388,10.333H2.031c-0.058,0-0.102-0.046-0.102-0.103V7.873H1.31v2.357c0,0.398,0.323,0.72,0.722,0.72
			h2.357V10.333L4.388,10.333z"/>
	</g>
</g>
</svg>
