<?xml version="1.0" encoding="utf-8"?>
<!-- Generator: Adobe Illustrator 18.1.1, SVG Export Plug-In . SVG Version: 6.00 Build 0)  -->
<!DOCTYPE svg PUBLIC "-//W3C//DTD SVG 1.1//EN" "http://www.w3.org/Graphics/SVG/1.1/DTD/svg11.dtd">
<svg version="1.1" id="Laag_1" xmlns="http://www.w3.org/2000/svg" xmlns:xlink="http://www.w3.org/1999/xlink" x="0px" y="0px"
	 width="12px" height="12px" viewBox="0 0 12 12" enable-background="new 0 0 12 12" xml:space="preserve">
<g>
	<path fill="#FF0000" d="M10.406,7.515c-0.009,0.088-0.098,0.157-0.165,0.215c-0.278,0.236-0.301,0.507-0.127,0.81
		c0.146,0.259,0.073,0.474-0.131,0.663C9.933,9.246,9.894,9.296,9.845,9.335C9.684,9.467,9.617,9.627,9.635,9.839
		c0.008,0.122,0.003,0.271-0.059,0.368c-0.217,0.343-0.503,0.612-0.925,0.685c-0.181,0.03-0.366,0.05-0.546,0.074
		c-0.384,0-0.764,0-1.149,0c-0.075-0.011-0.153-0.023-0.23-0.031c-0.6-0.06-1.201-0.103-1.798-0.186
		c-0.502-0.069-0.998-0.182-1.493-0.276c0-1.35,0-2.68,0-4.009C3.835,6.436,3.999,6.38,4.22,6.019
		c0.3-0.495,0.566-1.012,0.807-1.538c0.147-0.319,0.323-0.594,0.609-0.799C5.962,3.45,6.185,3.14,6.271,2.754
		C6.363,2.333,6.409,1.903,6.49,1.479C6.508,1.371,6.532,1.22,6.614,1.167c0.088-0.053,0.201,0,0.3,0
		c0.747,0.356,0.935,0.684,0.899,1.536C7.796,3.127,7.605,3.487,7.437,3.862C7.298,4.174,7.186,4.503,7.091,4.833
		C7.038,5.01,7.128,5.087,7.335,5.082c0.627-0.014,1.258,0.008,1.89,0c0.592-0.007,0.921,0.323,1.131,0.829
		c0.017,0.038,0.068,0.263-0.02,0.361c-0.091,0.099-0.333,0.624,0.01,1.007C10.372,7.308,10.414,7.426,10.406,7.515z"/>
	<rect x="1.736" y="6.481" fill="#FF0000" width="1.15" height="4.003"/>
</g>
</svg>
