<?xml version="1.0" encoding="UTF-8"?>
<svg width="30px" height="30px" viewBox="0 0 30 30" version="1.1" xmlns="http://www.w3.org/2000/svg" xmlns:xlink="http://www.w3.org/1999/xlink">
    <g id="icon-thumb" stroke="none" stroke-width="1" fill="none" fill-rule="evenodd">
        <path d="M16.0553756,4.54411112 C16.0396885,4.76239998 16.0325294,4.88714899 16.0074751,5.35399146 C15.9742693,5.97272437 15.9525531,6.27559899 15.9115049,6.59355672 C15.8079769,7.4453767 11.3717425,14.1837342 9.81248,15.90092 C9.46019716,16.2888823 8.8601099,16.3178062 8.47214758,15.9655234 C8.08418527,15.6132406 8.05526134,15.0131533 8.40754418,14.625191 C9.70728185,13.1938149 13.9878753,6.69186612 14.0285193,6.35766389 C14.0622829,6.09596663 14.0818633,5.82287981 14.1124853,5.25229226 C14.1382343,4.77250349 14.1456984,4.64244091 14.1625401,4.40808481 C14.2791213,2.78583181 14.5357316,1.77967964 15.2534119,1.07449922 C15.4308543,0.900147362 15.6696705,0.802453193 15.9184362,0.802453193 C17.2510172,0.802453193 19.4628719,2.45246985 20.1476348,3.83729411 C20.4282328,4.41740623 20.6247947,5.03451919 20.7291709,5.65728651 C20.9108193,6.65635259 20.7817487,7.50023022 20.0160731,10.274511 L24.4581619,10.274511 C26.3764002,10.274511 28.0518718,10.7393927 28.8672432,11.448509 C31.7873004,13.924451 28.3933992,24.3435146 26.255387,26.97013 C25.3531166,28.3950154 24.3431952,29.0390725 22.5604451,29.2516794 L16.7952205,29.2516789 C16.6673876,29.2518809 16.6673876,29.2518809 16.5385134,29.2522436 C14.5657696,29.2577992 13.6797389,29.1735232 12.4123518,28.6365358 L8.48845733,26.0906756 C8.04884032,25.8054479 7.92368306,25.2178452 8.20891076,24.7782282 C8.49413847,24.3386112 9.0817412,24.2134539 9.52135821,24.4986816 L13.2884752,26.9624911 C14.0909687,27.2912149 14.8077587,27.3593933 16.5331691,27.3545343 C16.6626328,27.3541697 16.6626328,27.3541697 16.7943055,27.3539625 L22.4443417,27.3610926 C23.5447839,27.2254217 24.0526194,26.9015598 24.7167022,25.8649115 C24.9745173,25.5469395 26.4364172,22.2884524 27.2346127,19.8380422 C28.3952625,16.2749203 28.561078,13.6769808 27.6309749,12.8882416 C27.2048779,12.5177225 25.9596869,12.1722278 24.4581619,12.1722278 L20.0540398,12.1722278 L18.7650114,12.1722278 C18.1356209,12.1722278 17.6806405,11.5706507 17.8519966,10.9650358 C18.8073246,7.58867107 18.9904292,6.70276698 18.8598336,5.98399629 C18.7830307,5.5261403 18.6414216,5.08155354 18.4429067,4.67105831 C18.1347624,4.04792194 17.0459553,3.15761329 16.3476574,2.82867912 C16.2085298,3.19602887 16.1116411,3.7611645 16.0553756,4.54411112 Z" id="Shape" fill="#585858" fill-rule="nonzero"></path>
        <path d="M0,14.7315016 C0,13.150594 1.27189736,11.8793673 2.86435477,11.8793673 L6.62422941,11.8793673 C8.21060488,11.8793673 9.48858418,13.139446 9.48858418,14.7315016 L9.48858418,24.2089677 C9.48858418,25.7898753 8.21668682,27.061102 6.62422941,27.061102 L2.86435477,27.061102 C1.2779793,27.061102 0,25.8010233 0,24.2089677 L0,14.7315016 Z M1.89771684,14.7315016 L1.89771684,24.2089677 C1.89771684,24.7469044 2.32011405,25.1633851 2.86435477,25.1633851 L6.62422941,25.1633851 C7.16883074,25.1633851 7.59086734,24.7415711 7.59086734,24.2089677 L7.59086734,14.7315016 C7.59086734,14.1935648 7.16847013,13.7770841 6.62422941,13.7770841 L2.86435477,13.7770841 C2.31975344,13.7770841 1.89771684,14.1988982 1.89771684,14.7315016 Z" id="Rectangle-path" fill="#585858" fill-rule="nonzero"></path>
    </g>
</svg>