<?xml version="1.0" encoding="utf-8"?>
<!-- Generator: Adobe Illustrator 18.1.1, SVG Export Plug-In . SVG Version: 6.00 Build 0)  -->
<!DOCTYPE svg PUBLIC "-//W3C//DTD SVG 1.1//EN" "http://www.w3.org/Graphics/SVG/1.1/DTD/svg11.dtd">
<svg version="1.1" id="Laag_1" xmlns="http://www.w3.org/2000/svg" xmlns:xlink="http://www.w3.org/1999/xlink" x="0px" y="0px"
	 width="12px" height="12px" viewBox="0 0 12 12" enable-background="new 0 0 12 12" xml:space="preserve">
<g>
	<path fill="#585858" d="M3.242,8.172C3.113,8.104,2.967,8.066,2.813,8.066c-0.503,0-0.91,0.403-0.92,0.901c0,0.005,0,0.011,0,0.016
		c0,0.506,0.411,0.917,0.92,0.917c0.507,0,0.919-0.411,0.919-0.917c0-0.205-0.067-0.396-0.181-0.549
		C3.465,8.325,3.362,8.236,3.242,8.172z M2.815,9.573c-0.315,0-0.571-0.255-0.571-0.569c0-0.003,0-0.006,0-0.009
		c0.007-0.309,0.26-0.558,0.571-0.558c0.095,0,0.184,0.024,0.263,0.066c0.075,0.039,0.141,0.095,0.191,0.162
		C3.341,8.76,3.383,8.877,3.383,9.004C3.383,9.32,3.13,9.573,2.815,9.573z"/>
	<path fill="#585858" d="M6.081,8.172C5.952,8.104,5.808,8.066,5.653,8.066c-0.5,0-0.909,0.403-0.917,0.901
		c0,0.005-0.002,0.011-0.002,0.016c0,0.506,0.413,0.917,0.919,0.917s0.919-0.411,0.919-0.917c0-0.205-0.067-0.396-0.181-0.549
		C6.307,8.325,6.204,8.236,6.081,8.172z M5.655,9.573c-0.314,0-0.568-0.255-0.568-0.569c0-0.003,0-0.006,0-0.009
		C5.09,8.686,5.344,8.437,5.655,8.437c0.098,0,0.187,0.024,0.266,0.066c0.073,0.039,0.14,0.095,0.189,0.162
		C6.181,8.76,6.222,8.877,6.222,9.004C6.224,9.32,5.97,9.573,5.655,9.573z"/>
	<path fill="#585858" d="M8.932,8.172C8.803,8.104,8.658,8.066,8.504,8.066c-0.5,0-0.909,0.403-0.919,0.901c0,0.005,0,0.011,0,0.016
		c0,0.506,0.411,0.917,0.919,0.917c0.506,0,0.92-0.411,0.92-0.917c0-0.205-0.07-0.396-0.184-0.549
		C9.158,8.325,9.052,8.236,8.932,8.172z M8.505,9.573c-0.314,0-0.57-0.255-0.57-0.569c0-0.003,0-0.006,0-0.009
		c0.006-0.309,0.26-0.558,0.57-0.558c0.097,0,0.186,0.024,0.264,0.066c0.077,0.039,0.14,0.095,0.191,0.162
		C9.031,8.76,9.073,8.877,9.073,9.004C9.074,9.32,8.821,9.573,8.505,9.573z"/>
	<path fill="#585858" d="M11.634,6.037c-0.053-0.147-0.156-0.292-0.27-0.394c-0.087-0.076-0.124-0.135-0.122-0.247
		c0.006-0.422,0.002-0.422-0.421-0.423c-0.231-0.001-0.281-0.051-0.281-0.29c0-0.406,0.002-0.812,0-1.219
		c0-0.22-0.062-0.281-0.279-0.283c-0.203-0.001-0.409,0-0.611,0C9.45,3.182,9.39,3.247,9.388,3.448c0,0.427,0.002,0.853,0,1.28
		c0,0.177-0.074,0.243-0.253,0.245c-0.199,0.001-0.268-0.059-0.27-0.241c-0.002-0.212,0-0.426-0.002-0.64
		c0-0.185-0.064-0.25-0.245-0.253c-0.225-0.002-0.447-0.002-0.669,0C7.776,3.841,7.715,3.906,7.715,4.083
		c-0.004,0.214,0,0.426-0.002,0.64C7.711,4.904,7.647,4.97,7.464,4.97c-0.245,0.002-0.486,0.001-0.731,0
		c-0.211,0-0.269-0.062-0.269-0.274c0-0.406,0-0.812,0-1.219c0-0.214-0.059-0.273-0.27-0.273c-1.448,0-2.895,0-4.341,0
		c-0.201,0-0.263,0.063-0.263,0.263c-0.002,0.413,0,0.823-0.002,1.234c0,0.203-0.06,0.267-0.261,0.27
		c-0.246,0.003-0.295,0.05-0.295,0.295c0,0.895,0,1.788,0,2.682c0,0.059,0,0.118,0,0.179c-0.133,0-0.247,0-0.362,0
		C0.663,8.067,0.655,8.018,0.649,7.966c-0.137,0-0.263,0-0.394,0c0,0.343,0,0.676,0,1.009c0.138,0,0.266,0,0.398,0
		c0.007-0.067,0.01-0.123,0.016-0.183c0.122,0,0.238,0,0.365,0c0,0.099-0.002,0.183,0.002,0.27C1.04,9.173,1.103,9.248,1.214,9.255
		c0.16,0.012,0.321,0.003,0.482,0.003C1.613,8.44,2.04,7.852,2.739,7.807c0.329-0.021,0.622,0.074,0.866,0.3
		C3.94,8.416,4.036,8.804,3.956,9.253c0.193,0,0.373,0,0.567,0C4.455,8.889,4.505,8.556,4.728,8.264
		c0.227-0.295,0.532-0.45,0.905-0.458c0.309-0.007,0.579,0.098,0.803,0.308c0.331,0.311,0.421,0.701,0.34,1.139
		c0.21,0,0.398,0,0.589,0c-0.067-0.814,0.33-1.381,1.009-1.442C8.691,7.78,8.98,7.86,9.228,8.064
		C9.603,8.376,9.712,8.784,9.63,9.262c0.486,0,0.952,0.004,1.418-0.002c0.134-0.002,0.198-0.091,0.198-0.222
		c0.002-0.153-0.004-0.305,0.004-0.457c0.002-0.04,0.018-0.097,0.045-0.113c0.188-0.11,0.29-0.285,0.355-0.48
		C11.868,7.339,11.87,6.683,11.634,6.037z M5.651,5.936c0,0.273-0.107,0.367-0.382,0.366C4.533,6.3,3.798,6.303,3.061,6.303
		c-0.114,0-0.234,0.001-0.349-0.012c-0.143-0.02-0.238-0.123-0.238-0.27C2.468,5.443,2.468,4.863,2.47,4.286
		C2.474,4.095,2.592,3.99,2.801,3.989c0.42-0.003,0.844,0,1.263,0c0.405,0,0.812-0.001,1.218,0C5.553,3.99,5.652,4.085,5.654,4.351
		C5.653,4.88,5.653,5.407,5.651,5.936z M10.805,7.037c-1.434,0-2.862,0-4.302,0c0-0.082,0-0.161,0-0.257c1.428,0,2.855,0,4.302,0
		C10.805,6.868,10.805,6.947,10.805,7.037z M10.803,6.362c-1.431,0-2.857,0-4.3,0c0-0.089,0-0.169,0-0.264c1.428,0,2.857,0,4.296,0
		c0.004,0.042,0.01,0.086,0.012,0.131C10.809,6.268,10.805,6.308,10.803,6.362z"/>
</g>
</svg>
