<?xml version="1.0" encoding="utf-8"?>
<!-- Generator: Adobe Illustrator 19.0.0, SVG Export Plug-In . SVG Version: 6.00 Build 0)  -->
<!DOCTYPE svg PUBLIC "-//W3C//DTD SVG 1.1//EN" "http://www.w3.org/Graphics/SVG/1.1/DTD/svg11.dtd">
<svg version="1.1" id="Laag_1" xmlns="http://www.w3.org/2000/svg" xmlns:xlink="http://www.w3.org/1999/xlink" x="0px" y="0px"
	 width="12px" height="12px" viewBox="0 0 12 12" enable-background="new 0 0 12 12" xml:space="preserve">
<g id="XMLID_2_">
	<path id="XMLID_15_" fill="#FF7600" d="M9.641,5.67C9.475,5.669,9.323,5.71,9.184,5.782C9.057,5.85,8.943,5.945,8.853,6.061
		C8.731,6.224,8.66,6.428,8.659,6.647c-0.002,0.541,0.436,0.98,0.977,0.982c0.541,0.003,0.983-0.434,0.985-0.976
		c0-0.006,0-0.011,0-0.016C10.611,6.104,10.176,5.672,9.641,5.67z M10.244,6.676C10.242,7.01,9.968,7.28,9.635,7.28
		C9.298,7.279,9.026,7.007,9.03,6.671c0-0.137,0.046-0.262,0.119-0.364c0.057-0.07,0.127-0.13,0.203-0.171
		c0.087-0.045,0.184-0.07,0.287-0.07c0.331,0.001,0.601,0.269,0.605,0.6C10.244,6.669,10.244,6.672,10.244,6.676z"/>
	<path id="XMLID_12_" fill="#FF7600" d="M11.576,5.718l-0.078-0.75l-0.71-0.461L8.992,2.598C8.977,2.587,8.964,2.575,8.946,2.567
		C8.913,2.55,8.875,2.541,8.836,2.541L7.48,2.536l0.005-0.443c0-0.076-0.064-0.138-0.146-0.138L4.124,1.944
		c-0.08,0-0.147,0.062-0.147,0.138L3.975,2.775L3.971,3.636C4.169,3.719,4.31,3.912,4.31,4.137v0.05h0.978
		c0.102,0,0.207,0.024,0.289,0.066L7.55,6.276l0.411,0.265l0.446,0.001c0.002-0.281,0.098-0.541,0.249-0.747
		c0.112-0.149,0.255-0.27,0.42-0.357c0.175-0.091,0.373-0.142,0.586-0.142c0.684,0.003,1.236,0.553,1.25,1.234v0.124l0.874,0.003
		l0.002-0.938L11.576,5.718z M7.974,4.204L7.98,3.06l0.938,0.003l0.958,1.149L7.974,4.204z"/>
	<path id="XMLID_9_" fill="#FF7600" d="M1.964,7.849c-0.551,0-1.001,0.448-1.001,1s0.45,1,1.001,1c0.555,0,1.002-0.448,1.002-1
		C2.966,8.296,2.519,7.849,1.964,7.849z M1.968,9.491c-0.344,0-0.621-0.277-0.621-0.619c0-0.343,0.277-0.619,0.621-0.619
		c0.342,0,0.621,0.276,0.621,0.619C2.589,9.214,2.31,9.491,1.968,9.491z"/>
	<path id="XMLID_6_" fill="#FF7600" d="M6.05,7.848c-0.168,0-0.326,0.043-0.466,0.117C5.452,8.034,5.337,8.132,5.249,8.248
		c-0.127,0.167-0.2,0.375-0.2,0.599c0,0.552,0.449,1,1.001,1c0.554,0,1-0.448,1-1c0-0.005,0-0.012,0-0.017
		C7.041,8.287,6.596,7.848,6.05,7.848z M6.667,8.872c0,0.342-0.277,0.619-0.619,0.619c-0.345,0-0.621-0.277-0.621-0.618
		c0-0.14,0.045-0.268,0.124-0.372c0.054-0.073,0.125-0.134,0.206-0.177c0.089-0.045,0.186-0.071,0.291-0.071
		c0.339,0,0.614,0.271,0.619,0.608C6.667,8.865,6.667,8.868,6.667,8.872z"/>
	<path id="XMLID_3_" fill="#FF7600" d="M7.946,7.124L7.219,6.656L5.378,4.714c-0.016-0.011-0.12-0.056-0.162-0.056H3.835V4.204
		c0-0.078-0.064-0.141-0.146-0.141H0.408c-0.083,0-0.149,0.063-0.149,0.141v3.422L0.133,7.63v1.164h0.572V8.515
		c0.109-0.596,0.629-1.049,1.259-1.049c0.706,0,1.275,0.571,1.275,1.276h1.554c0-0.287,0.096-0.552,0.254-0.764
		c0.116-0.153,0.261-0.277,0.429-0.365c0.177-0.094,0.38-0.147,0.597-0.147c0.698,0,1.265,0.559,1.275,1.254v0.128h0.897V7.891
		H8.027L7.946,7.124z M4.347,6.358l0.001-1.167h0.956l0.98,1.168L4.347,6.358z"/>
</g>
</svg>
