<?xml version="1.0" encoding="utf-8"?>
<!-- Generator: Adobe Illustrator 18.1.1, SVG Export Plug-In . SVG Version: 6.00 Build 0)  -->
<!DOCTYPE svg PUBLIC "-//W3C//DTD SVG 1.1//EN" "http://www.w3.org/Graphics/SVG/1.1/DTD/svg11.dtd">
<svg version="1.1" id="Laag_1" xmlns="http://www.w3.org/2000/svg" xmlns:xlink="http://www.w3.org/1999/xlink" x="0px" y="0px"
	 width="12px" height="12px" viewBox="0 0 12 12" enable-background="new 0 0 12 12" xml:space="preserve">
<path fill="#00AAEE" d="M10.8,2.9C10.4,3.1,10,3.2,9.6,3.2c0.4-0.3,0.7-0.7,0.9-1.1c-0.4,0.2-0.8,0.4-1.3,0.5C8.9,2.2,8.4,2,7.8,2
	c-1.1,0-2,0.9-2,2c0,0.2,0,0.3,0.1,0.5C4.1,4.4,2.6,3.6,1.6,2.3C1.4,2.6,1.3,3,1.3,3.4c0,0.7,0.4,1.3,0.9,1.7C1.9,5,1.6,5,1.3,4.8
	l0,0c0,1,0.7,1.8,1.6,2c-0.2,0-0.4,0.1-0.5,0.1s-0.3,0-0.4,0c0.3,0.8,1,1.4,1.9,1.4C3.2,8.8,2.3,9.2,1.4,9.2c-0.2,0-0.3,0-0.5,0
	C1.8,9.7,2.9,10,4,10c3.8,0,5.8-3.1,5.8-5.8c0-0.1,0-0.2,0-0.3C10.2,3.7,10.6,3.3,10.8,2.9z"/>
</svg>
