<?xml version="1.0" encoding="utf-8"?>
<!-- Generator: Adobe Illustrator 18.1.1, SVG Export Plug-In . SVG Version: 6.00 Build 0)  -->
<!DOCTYPE svg PUBLIC "-//W3C//DTD SVG 1.1//EN" "http://www.w3.org/Graphics/SVG/1.1/DTD/svg11.dtd">
<svg version="1.1" id="Laag_1" xmlns="http://www.w3.org/2000/svg" xmlns:xlink="http://www.w3.org/1999/xlink" x="0px" y="0px"
	 width="12px" height="12px" viewBox="0 0 12 12" enable-background="new 0 0 12 12" xml:space="preserve">
<g>
	<path fill="#1AB7EA" d="M2,10.7c-0.4,0-0.8-0.3-0.8-0.8V2c0-0.4,0.3-0.8,0.8-0.8h8c0.4,0,0.8,0.3,0.8,0.8v8c0,0.4-0.3,0.8-0.8,0.8
		H2V10.7z"/>
	<path fill="#13AFD3" d="M10,1.5c0.3,0,0.5,0.2,0.5,0.5v8c0,0.3-0.2,0.5-0.5,0.5H2c-0.3,0-0.5-0.2-0.5-0.5V2c0-0.3,0.2-0.5,0.5-0.5
		H10 M10,1H2C1.4,1,1,1.5,1,2v8c0,0.6,0.5,1,1,1h8c0.6,0,1-0.4,1-1V2C11,1.5,10.5,1,10,1L10,1z"/>
</g>
<g>
	<path fill="#FFFFFF" d="M9.4,4.5c0,0.7-0.5,1.6-1.5,2.8C7,8.6,6.2,9.2,5.5,9.2c-0.4,0-0.8-0.4-1.1-1.1C4.2,7.4,4,6.7,3.9,6
		C3.6,5.2,3.4,4.8,3.2,4.8C3.1,4.8,3,4.9,2.6,5.1L2.3,4.7c0.4-0.3,0.7-0.6,1-0.9c0.5-0.4,0.8-0.6,1.1-0.6c0.6-0.1,0.9,0.3,1,1.1
		c0.1,0.9,0.2,1.4,0.3,1.6C5.8,6.7,6,7,6.2,7c0.1,0,0.4-0.2,0.7-0.7c0.3-0.5,0.5-0.8,0.5-1.1c0-0.4-0.1-0.6-0.5-0.6
		c-0.2,0-0.3,0-0.5,0.1c0.4-1.1,1-1.7,2-1.7C9.1,3.1,9.4,3.6,9.4,4.5z"/>
</g>
</svg>
