<svg xmlns="http://www.w3.org/2000/svg" width="12" height="12" viewBox="0 0 12 12"><defs><style>.a{fill:#fff;stroke:#d7d7d7;stroke-miterlimit:10;stroke-width:0.4px;}.b{fill:#005098;}.c{fill:#f6a500;}</style></defs><title>Visa</title><path class="a" d="M10.707,9.8H1.294a1,1,0,0,1-1-1V3.2a1,1,0,0,1,1-1h9.414a1,1,0,0,1,1,1V8.8A1,1,0,0,1,10.707,9.8Z"/><polygon class="b" points="4.46 7.602 4.988 4.508 5.832 4.508 5.304 7.602 4.46 7.602"/><path class="b" d="M8.363,4.584a2.171,2.171,0,0,0-.756-0.13,1.223,1.223,0,0,0-1.42.988l-0.005.033a1.029,1.029,0,0,0,.738.841,0.535,0.535,0,0,1,.437.384,0.435,0.435,0,0,1-.505.3,1.777,1.777,0,0,1-.794-0.162L5.95,6.791l-0.119.692a2.681,2.681,0,0,0,.94.165,1.235,1.235,0,0,0,1.454-.967q0.009-.045.015-0.09A0.948,0.948,0,0,0,7.532,5.75a0.645,0.645,0,0,1-.474-0.384c0-.128.153-0.266,0.483-0.266a1.559,1.559,0,0,1,.632.119l0.076,0.04,0.114-.671h0v0Z"/><path class="b" d="M10.525,4.511H9.874a0.42,0.42,0,0,0-.442.257L8.181,7.6H9.067l0.177-.465h1.08c0.025,0.108.1,0.464,0.1,0.464h0.784L10.525,4.511h0ZM9.485,6.505c0.07-.178.336-0.865,0.336-0.865s0.07-.179.112-0.3L9.99,5.612s0.162,0.739.2,0.894h-0.7Z"/><path class="b" d="M3.754,4.51L2.928,6.621,2.839,6.192a2.414,2.414,0,0,0-1.168-1.3L2.425,7.6H3.318L4.646,4.51H3.754Z"/><path class="c" d="M2.162,4.508H0.8l-0.011.065A2.792,2.792,0,0,1,2.84,6.192l-0.3-1.423a0.353,0.353,0,0,0-.382-0.261h0Z"/></svg>