<?xml version="1.0" encoding="utf-8"?>
<!-- Generator: Adobe Illustrator 18.1.1, SVG Export Plug-In . SVG Version: 6.00 Build 0)  -->
<!DOCTYPE svg PUBLIC "-//W3C//DTD SVG 1.1//EN" "http://www.w3.org/Graphics/SVG/1.1/DTD/svg11.dtd">
<svg version="1.1" id="Laag_1" xmlns="http://www.w3.org/2000/svg" xmlns:xlink="http://www.w3.org/1999/xlink" x="0px" y="0px"
	 width="12px" height="12px" viewBox="0 0 12 12" enable-background="new 0 0 12 12" xml:space="preserve">
<path fill="#585858" d="M11.2,6.9l0.4-4.5H2.7c0,0-0.3-0.8-0.5-1C2,1.2,1,1.3,0.7,1.4c-0.3,0.1-0.5,1-0.5,1h2l0.2,0.9L1,3.3L0.6,3.6
	l1.9,0l5.1,0L7.2,4.1L1,4.3L0.6,4.6H7L6.8,5L0.9,5.3L0.6,5.6l6,0L6.3,6L3,6.2l0.2,1v1.3H2.9c-0.3,0-0.5,0.2-0.5,0.5
	c0,0.1,0.1,0.3,0.2,0.4C2.4,9.6,2.4,9.8,2.4,10c0,0.5,0.4,1,1,1c0.5,0,1-0.4,1-1c0-0.1,0-0.2-0.1-0.3h4.3c0,0.1-0.1,0.2-0.1,0.3
	c0,0.5,0.4,1,1,1c0.5,0,1-0.4,1-1c0-0.2-0.1-0.4-0.2-0.5c0.1-0.1,0.2-0.2,0.2-0.4c0-0.3-0.2-0.5-0.5-0.5H4.2V7.3L11.2,6.9z"/>
</svg>
