<?xml version="1.0" encoding="utf-8"?>
<!-- Generator: Adobe Illustrator 18.1.1, SVG Export Plug-In . SVG Version: 6.00 Build 0)  -->
<!DOCTYPE svg PUBLIC "-//W3C//DTD SVG 1.1//EN" "http://www.w3.org/Graphics/SVG/1.1/DTD/svg11.dtd">
<svg version="1.1" id="Laag_1" xmlns="http://www.w3.org/2000/svg" xmlns:xlink="http://www.w3.org/1999/xlink" x="0px" y="0px"
	 width="12px" height="12px" viewBox="0 0 12 12" enable-background="new 0 0 12 12" xml:space="preserve">
<g>
	<path fill="#D32421" d="M2,10.7c-0.4,0-0.8-0.3-0.8-0.8V2c0-0.4,0.3-0.8,0.8-0.8h8c0.4,0,0.8,0.3,0.8,0.8v8c0,0.4-0.3,0.8-0.8,0.8
		H2V10.7z"/>
	<g>
		<path fill="#BF1717" d="M10,1.5c0.3,0,0.5,0.2,0.5,0.5v8c0,0.3-0.2,0.5-0.5,0.5H2c-0.3,0-0.5-0.2-0.5-0.5V2c0-0.3,0.2-0.5,0.5-0.5
			H10 M10,1H2C1.4,1,1,1.5,1,2v8c0,0.6,0.5,1,1,1h8c0.6,0,1-0.4,1-1V2C11,1.5,10.5,1,10,1L10,1z"/>
	</g>
</g>
<g>
	<path fill="#8F1616" d="M5.2,5L7,6.2L7.2,6L5.2,5z"/>
	<g>
		<g>
			<path fill="#FFFFFF" d="M9.6,4.6c0,0-0.1-0.5-0.3-0.7C9,3.6,8.7,3.6,8.6,3.5c-1.1,0-2.6,0-2.6,0l0,0c0,0-1.5,0-2.6,0.1
				c-0.1,0-0.5,0-0.7,0.3C2.5,4.1,2.4,4.6,2.4,4.6S2.3,5.2,2.3,5.8v0.6c0,0.6,0.1,1.2,0.1,1.2s0.1,0.5,0.3,0.7
				C3,8.6,3.3,8.6,3.5,8.6C4.1,8.7,6,8.7,6,8.7s1.6,0,2.6-0.1c0.1,0,0.5,0,0.7-0.3c0.2-0.2,0.3-0.7,0.3-0.7S9.7,7,9.7,6.4V5.8
				C9.7,5.2,9.6,4.6,9.6,4.6z M5.2,7.1V5l2,1L5.2,7.1z"/>
		</g>
	</g>
</g>
</svg>
