<?xml version="1.0" encoding="utf-8"?>
<!-- Generator: Adobe Illustrator 18.1.1, SVG Export Plug-In . SVG Version: 6.00 Build 0)  -->
<!DOCTYPE svg PUBLIC "-//W3C//DTD SVG 1.1//EN" "http://www.w3.org/Graphics/SVG/1.1/DTD/svg11.dtd">
<svg version="1.1" id="Laag_1" xmlns="http://www.w3.org/2000/svg" xmlns:xlink="http://www.w3.org/1999/xlink" x="0px" y="0px"
	 width="12px" height="12px" viewBox="0 0 12 12" enable-background="new 0 0 12 12" xml:space="preserve">
<g>
	<g>
		<path fill="#585858" d="M11.412,10.055L8.546,7.617C9.63,5.793,9.253,3.398,7.544,2.032C6.509,1.2,5.172,0.891,3.875,1.186
			C2.925,1.4,2.065,1.939,1.453,2.701C0.728,3.606,0.401,4.737,0.529,5.885C0.653,7.037,1.22,8.068,2.124,8.794
			c1.035,0.831,2.374,1.138,3.671,0.844c0.727-0.162,1.396-0.521,1.947-1.015l2.868,2.431c0.134,0.111,0.392,0.021,0.569-0.199
			l0.162-0.201C11.518,10.433,11.551,10.165,11.412,10.055z M7.141,7.261C6.718,7.79,6.149,8.146,5.491,8.295
			C4.604,8.494,3.695,8.286,2.985,7.72C1.711,6.7,1.508,4.834,2.526,3.562C2.951,3.035,3.52,2.679,4.178,2.53
			c0.887-0.2,1.798,0.008,2.506,0.576C7.955,4.127,8.161,5.992,7.141,7.261z"/>
	</g>
	<g>
		<g>
			<polygon fill="#EDEDED" points="3.28,5.521 6.471,5.521 6.471,5.521 			"/>
			<rect x="3.28" y="5.224" fill="#585858" width="3.192" height="0.596"/>
		</g>
	</g>
</g>
</svg>
