<?xml version="1.0" encoding="utf-8"?>
<!DOCTYPE svg PUBLIC "-//W3C//DTD SVG 1.1//EN" "http://www.w3.org/Graphics/SVG/1.1/DTD/svg11.dtd">
<svg id="CartOutline" viewBox="0 0 30 30" xmlns="http://www.w3.org/2000/svg" xmlns:xlink="http://www.w3.org/1999/xlink">
    <g>
        <path d="M10.9415312,27.8830624 C8.76468363,27.8830624 7,26.1183788 7,23.9415312 C7,21.7646836 8.76468363,20 10.9415312,20 C13.1183788,20 14.8830624,21.7646836 14.8830624,23.9415312 C14.8830624,26.1183788 13.1183788,27.8830624 10.9415312,27.8830624 Z M10.9415312,26.018496 C12.0886072,26.018496 13.018496,25.0886072 13.018496,23.9415312 C13.018496,22.7944552 12.0886072,21.8645664 10.9415312,21.8645664 C9.79445521,21.8645664 8.86456639,22.7944552 8.86456639,23.9415312 C8.86456639,25.0886072 9.79445521,26.018496 10.9415312,26.018496 Z"></path>
        <path d="M25.9415312,27.8830624 C23.7646836,27.8830624 22,26.1183788 22,23.9415312 C22,21.7646836 23.7646836,20 25.9415312,20 C28.1183788,20 29.8830624,21.7646836 29.8830624,23.9415312 C29.8830624,26.1183788 28.1183788,27.8830624 25.9415312,27.8830624 Z M25.9415312,26.018496 C27.0886072,26.018496 28.018496,25.0886072 28.018496,23.9415312 C28.018496,22.7944552 27.0886072,21.8645664 25.9415312,21.8645664 C24.7944552,21.8645664 23.8645664,22.7944552 23.8645664,23.9415312 C23.8645664,25.0886072 24.7944552,26.018496 25.9415312,26.018496 Z"></path>
        <path d="M6.53545206,3.86456639 L0.932283193,3.86456639 C0.417397403,3.86456639 0,3.44716898 0,2.93228319 C0,2.4173974 0.417397403,2 0.932283193,2 L7.26208073,2 C7.68928391,2 8.061825,2.29036139 8.16614217,2.70463241 L12.6800142,20.6304115 C12.8057422,21.1297109 12.5029029,21.6363957 12.0036035,21.7621237 C11.5043042,21.8878518 10.9976194,21.5850124 10.8718913,21.0857131 L6.53545206,3.86456639 Z"></path>
        <polygon points="14 23.8645664 14 22 23.7811054 22 23.7811054 23.8645664"></polygon>
        <path d="M10.9865535,19.1233046 L10.9865535,17.2587382 L24.0075504,17.2587382 C24.6274321,17.2587382 25.3608682,16.7180526 25.5458401,16.1281167 L27.9572511,8.43733953 C28.0761261,8.05820836 27.9329821,7.86456639 27.5370132,7.86456639 L8,7.86456639 L8,6 L27.5370132,6 C29.1887433,6 30.232727,7.41227692 29.7364119,8.99518795 L27.3250008,16.6859651 C26.8966308,18.052177 25.4436543,19.1233046 24.0075504,19.1233046 L10.9865535,19.1233046 Z"></path>
    </g>
</svg>