<?xml version="1.0" encoding="utf-8"?>
<!DOCTYPE svg PUBLIC "-//W3C//DTD SVG 1.1//EN" "http://www.w3.org/Graphics/SVG/1.1/DTD/svg11.dtd">
<svg id="CategoryStickers" viewBox="0 0 12 12" xmlns="http://www.w3.org/2000/svg" xmlns:xlink="http://www.w3.org/1999/xlink">
	<path d="M6.034,1.386c-2.567,0-4.656,2.089-4.656,4.656s2.089,4.656,4.656,4.656h0.044h0.012l0.043-0.021
		c1.422-0.532,1.831-0.993,2.396-1.629C8.636,8.927,8.75,8.798,8.88,8.66c0.748-0.799,0.764-0.823,1.775-2.491l0.014-0.022
		L10.69,6.11v0V6.041C10.69,3.474,8.601,1.386,6.034,1.386z M6.034,1.876c0.142,0,0.282,0.007,0.421,0.021
		C6.503,1.902,6.55,1.912,6.598,1.919c0.089,0.012,0.179,0.023,0.266,0.04C6.898,1.966,7.162,2.03,7.259,2.06
		c0.023,0.007,0.278,0.095,0.38,0.138c0.012,0.005,0.023,0.011,0.035,0.017C7.785,2.262,7.894,2.313,8,2.37
		c0.024,0.013,0.254,0.147,0.341,0.205C8.36,2.588,8.378,2.603,8.397,2.616C8.487,2.678,8.576,2.742,8.66,2.81
		c0.012,0.01,0.022,0.02,0.034,0.03c0.09,0.075,0.178,0.152,0.261,0.234C8.964,3.083,8.971,3.093,8.98,3.101
		c0.085,0.085,0.167,0.173,0.244,0.265c0.008,0.009,0.014,0.019,0.022,0.028c0.077,0.093,0.15,0.188,0.219,0.287
		C9.471,3.69,9.475,3.699,9.481,3.708C9.55,3.809,9.615,3.912,9.675,4.019c0.006,0.01,0.01,0.022,0.016,0.032
		c0.058,0.106,0.113,0.214,0.162,0.326c0.009,0.02,0.015,0.041,0.023,0.061c0.043,0.103,0.085,0.208,0.12,0.315
		c0.007,0.022,0.012,0.045,0.018,0.067c0.033,0.107,0.064,0.215,0.089,0.325c0.006,0.029,0.009,0.059,0.015,0.089
		c0.021,0.105,0.041,0.211,0.053,0.318c0.004,0.036,0.004,0.073,0.007,0.109c0.009,0.101,0.018,0.202,0.02,0.305
		c-0.257,0.337-0.814,0.363-1.403,0.39c-0.635,0.029-1.29,0.059-1.674,0.504c-0.043,0.05-0.08,0.102-0.115,0.155L6.92,6.509
		l0.886-0.864L6.581,5.466l-0.548-1.11l-0.547,1.11L4.262,5.644l0.886,0.864l-0.21,1.219l1.095-0.575l0.744,0.391
		c-0.087,0.323-0.11,0.67-0.13,1.011c-0.042,0.713-0.078,1.332-0.671,1.653c-0.045-0.001-0.088-0.006-0.133-0.008
		c-0.095-0.004-0.19-0.008-0.283-0.018c-0.054-0.006-0.105-0.018-0.158-0.026c-0.083-0.013-0.168-0.024-0.249-0.041
		c-0.059-0.013-0.116-0.031-0.175-0.047c-0.073-0.019-0.148-0.036-0.219-0.059c-0.064-0.021-0.125-0.047-0.187-0.07
		C4.508,9.913,4.443,9.892,4.381,9.865c-0.068-0.03-0.133-0.065-0.2-0.098c-0.053-0.027-0.108-0.05-0.16-0.079
		C3.952,9.65,3.887,9.606,3.821,9.564C3.775,9.535,3.727,9.509,3.682,9.479c-0.067-0.046-0.13-0.097-0.194-0.147
		C3.447,9.3,3.405,9.271,3.365,9.238C3.3,9.184,3.239,9.124,3.177,9.065C3.143,9.033,3.106,9.003,3.073,8.97
		c-0.062-0.063-0.12-0.131-0.178-0.198c-0.029-0.033-0.06-0.064-0.088-0.098C2.753,8.608,2.704,8.537,2.653,8.466
		C2.626,8.429,2.596,8.393,2.571,8.355c-0.048-0.071-0.09-0.147-0.134-0.221c-0.024-0.041-0.05-0.079-0.073-0.12
		C2.323,7.936,2.287,7.855,2.25,7.774C2.231,7.733,2.209,7.693,2.191,7.651c-0.035-0.084-0.064-0.17-0.093-0.256
		C2.083,7.353,2.066,7.313,2.053,7.271C2.026,7.183,2.006,7.093,1.985,7.004C1.974,6.96,1.96,6.918,1.951,6.874
		C1.932,6.779,1.92,6.682,1.908,6.585c-0.005-0.041-0.014-0.08-0.018-0.121c-0.014-0.139-0.021-0.28-0.021-0.422
		C1.868,3.745,3.737,1.876,6.034,1.876z M8.522,8.325c-0.133,0.142-0.25,0.274-0.359,0.398c-0.366,0.412-0.654,0.729-1.21,1.045
		c0.135-0.375,0.161-0.793,0.184-1.185c0.032-0.544,0.062-1.058,0.357-1.4c0.246-0.285,0.77-0.309,1.325-0.335
		c0.299-0.014,0.614-0.031,0.907-0.094C9.21,7.587,9.09,7.717,8.522,8.325z"/>
</svg>
