<?xml version="1.0" encoding="utf-8"?>
<!DOCTYPE svg PUBLIC "-//W3C//DTD SVG 1.1//EN" "http://www.w3.org/Graphics/SVG/1.1/DTD/svg11.dtd">
<svg id="CategoryPromotion" viewBox="0 0 12 12" xmlns="http://www.w3.org/2000/svg" xmlns:xlink="http://www.w3.org/1999/xlink">
	<g>
		<path d="M5.173,11.316c-0.132,0-0.238-0.056-0.315-0.104c-0.263-0.165-0.396-0.419-0.483-0.621
			c-0.076-0.179-0.154-0.356-0.231-0.534L3.979,9.679C3.916,9.535,3.854,9.392,3.795,9.247c-0.271-0.059-0.533-0.116-0.728-0.33
			L2.78,9.02C2.506,9.113,2.212,9.081,1.887,8.911C1.494,8.706,1.22,8.417,1.072,8.052C0.951,7.755,0.923,7.446,0.989,7.134
			C1.018,6.998,1.063,6.82,1.158,6.642c0.16-0.3,0.439-0.425,0.643-0.516c0.433-0.194,0.864-0.393,1.29-0.601
			c0.466-0.227,0.926-0.513,1.367-0.85c0.705-0.541,1.149-1.081,1.399-1.7c0.064-0.16,0.109-0.326,0.155-0.493l0.055-0.198
			C6.091,2.2,6.113,2.114,6.136,2.028c0.049-0.186,0.098-0.372,0.167-0.551c0.144-0.376,0.558-0.625,0.944-0.55
			c0.215,0.041,0.421,0.136,0.649,0.298c0.406,0.289,0.717,0.653,0.942,0.937c0.418,0.531,0.782,1.124,1.11,1.813
			c0.147,0.309,0.313,0.676,0.439,1.059c0.157,0.479,0.28,0.959,0.392,1.41c0.044,0.175,0.062,0.35,0.079,0.519l0.016,0.15
			c0.014,0.113,0.024,0.226,0.034,0.341l0.013,0.14c0,0.361-0.046,0.652-0.137,0.917C10.615,9,10.219,9.239,9.729,9.137
			c-0.191-0.04-0.363-0.132-0.514-0.213L9.165,8.897c-0.15-0.08-0.298-0.164-0.447-0.248C8.577,8.568,8.436,8.487,8.292,8.411
			C8.1,8.309,7.88,8.233,7.576,8.165C7.23,8.088,6.879,8.056,6.531,8.072C6.348,8.08,6.154,8.094,5.976,8.138
			c-0.187,0.047-0.17,0.137-0.162,0.18C5.821,8.36,5.846,8.414,5.873,8.471l0.179,0.405c0.087,0.198,0.174,0.395,0.257,0.594
			c0.029,0.068,0.094,0.113,0.208,0.186l0.108,0.07c0.194,0.119,0.302,0.337,0.283,0.57c-0.02,0.241-0.17,0.446-0.391,0.535
			c-0.187,0.075-0.375,0.147-0.564,0.218l-0.605,0.232C5.29,11.305,5.232,11.316,5.173,11.316z M3.114,8.362
			c0.091,0,0.223,0.03,0.331,0.172C3.516,8.627,3.635,8.66,3.83,8.69c0.277,0.041,0.403,0.215,0.461,0.353
			c0.058,0.143,0.119,0.282,0.18,0.421l0.165,0.377c0.078,0.179,0.157,0.358,0.233,0.538c0.085,0.199,0.165,0.308,0.275,0.377
			l0.025,0.019l0.593-0.227c0.184-0.07,0.369-0.14,0.552-0.214c0.046-0.019,0.056-0.059,0.058-0.082
			c0.001-0.012,0.002-0.05-0.025-0.067l-0.091-0.058c-0.172-0.112-0.348-0.225-0.442-0.45C5.731,9.482,5.646,9.287,5.56,9.092
			L5.387,8.699C5.349,8.618,5.306,8.526,5.286,8.416C5.215,8.041,5.44,7.72,5.844,7.618c0.225-0.057,0.452-0.073,0.663-0.083
			c0.396-0.016,0.793,0.018,1.185,0.106c0.353,0.079,0.616,0.17,0.852,0.296c0.148,0.079,0.294,0.162,0.44,0.245
			c0.144,0.082,0.287,0.164,0.433,0.241l0.051,0.027c0.131,0.07,0.254,0.137,0.37,0.161c0.161,0.034,0.32,0.063,0.437-0.274
			c0.072-0.209,0.108-0.444,0.109-0.719L10.372,7.5c-0.009-0.107-0.018-0.215-0.031-0.322l-0.017-0.159
			c-0.016-0.15-0.03-0.3-0.067-0.445c-0.11-0.441-0.229-0.91-0.38-1.372C9.76,4.848,9.602,4.5,9.462,4.206
			C9.152,3.554,8.81,2.994,8.416,2.495C8.115,2.114,7.859,1.857,7.584,1.662C7.422,1.547,7.283,1.481,7.147,1.455
			C7.006,1.458,6.859,1.528,6.804,1.671c-0.062,0.16-0.105,0.327-0.149,0.494C6.632,2.255,6.608,2.345,6.582,2.435L6.529,2.624
			C6.478,2.811,6.427,2.997,6.355,3.176c-0.287,0.711-0.786,1.323-1.57,1.925c-0.47,0.36-0.96,0.665-1.458,0.907
			C2.895,6.218,2.458,6.42,2.021,6.617C1.824,6.704,1.7,6.767,1.632,6.894c-0.05,0.094-0.085,0.199-0.118,0.351
			C1.47,7.453,1.488,7.651,1.569,7.849c0.101,0.248,0.286,0.44,0.567,0.587c0.19,0.099,0.334,0.123,0.473,0.075l0.293-0.102
			C2.963,8.387,3.032,8.362,3.114,8.362z"/>
		<path d="M7.171,3.024C7.164,3.025,7.158,3.025,7.152,3.026
			C7.169,3.202,7.18,3.379,7.205,3.555C7.237,3.783,7.27,4.014,7.318,4.24C7.403,4.645,7.536,5.036,7.7,5.418
			C8.01,6.143,8.421,6.8,8.984,7.353c0.15,0.147,0.33,0.265,0.503,0.388c0.067,0.048,0.124,0.022,0.147-0.057
			c0.02-0.07,0.042-0.144,0.041-0.216C9.67,7.22,9.67,6.971,9.644,6.725C9.591,6.218,9.461,5.727,9.276,5.254
			C9.134,4.89,8.97,4.532,8.789,4.186c-0.3-0.572-0.67-1.099-1.127-1.558C7.566,2.531,7.444,2.46,7.332,2.378
			C7.285,2.343,7.251,2.36,7.235,2.413C7.211,2.493,7.18,2.573,7.173,2.655C7.163,2.778,7.171,2.901,7.171,3.024z"/>
	</g>
</svg>
