<?xml version="1.0" encoding="utf-8"?>
<!DOCTYPE svg PUBLIC "-//W3C//DTD SVG 1.1//EN" "http://www.w3.org/Graphics/SVG/1.1/DTD/svg11.dtd">
<svg id="CategoryOutdoorPromotion" viewBox="0 0 12 12" xmlns="http://www.w3.org/2000/svg" xmlns:xlink="http://www.w3.org/1999/xlink">
	<path d="M1.399,10.147c-0.035,0.214,0.016,0.429,0.143,0.605c0.127,0.177,0.315,0.293,0.528,0.328
		c0.043,0.007,0.087,0.01,0.13,0.01c0.4,0,0.738-0.287,0.802-0.682l0.615-3.779l0.048-0.078C3.669,6.544,4.126,5.815,4.71,5.815
		c0.215,0,0.437,0.104,0.658,0.309c0.546,0.507,0.674,0.841,0.809,1.194C6.321,7.694,6.47,8.083,7.072,8.577
		c0.255,0.21,0.521,0.316,0.79,0.316c0.92,0,1.437-1.21,1.493-1.348l0.017-0.058l0.889-4.856L9.584,3.325
		C9.577,3.332,8.827,4.092,8.113,4.092c-0.097,0-0.19-0.015-0.276-0.044C7.479,3.926,7.247,3.507,7,3.063
		c-0.295-0.53-0.628-1.131-1.272-1.248c-0.595-0.11-1.054,0.02-1.363,0.17C4.396,1.57,4.108,1.191,3.689,1.122
		c-0.456-0.07-0.861,0.235-0.932,0.672L1.399,10.147z M3.877,5.498l0.522-2.849c0.152-0.115,0.578-0.37,1.224-0.254
		C5.991,2.463,6.231,2.894,6.484,3.35c0.276,0.497,0.59,1.062,1.164,1.257C8.216,4.798,8.9,4.552,9.363,4.253L8.796,7.349
		C8.677,7.624,8.292,8.302,7.862,8.302c-0.129,0-0.268-0.061-0.415-0.181C6.966,7.726,6.861,7.453,6.729,7.107
		C6.583,6.724,6.417,6.291,5.77,5.691c-0.334-0.31-0.69-0.467-1.06-0.467C4.391,5.224,4.11,5.343,3.877,5.498z M1.98,10.243
		l1.36-8.354c0.017-0.106,0.111-0.186,0.219-0.186C3.715,1.725,3.798,1.84,3.778,1.96l-1.36,8.354C2.401,10.42,2.307,10.5,2.199,10.5
		l-0.036-0.003c-0.058-0.009-0.108-0.041-0.143-0.089C1.985,10.359,1.971,10.301,1.98,10.243z"/>
</svg>
