<?xml version="1.0" encoding="utf-8"?>
<!DOCTYPE svg PUBLIC "-//W3C//DTD SVG 1.1//EN" "http://www.w3.org/Graphics/SVG/1.1/DTD/svg11.dtd">
<svg id="CategoryCheques" viewBox="0 0 12 12" xmlns="http://www.w3.org/2000/svg" xmlns:xlink="http://www.w3.org/1999/xlink">
	<path d="M9.657,2.075H2.343c-0.941,0-1.706,0.765-1.706,1.706v4.93c0,0.941,0.765,1.706,1.706,1.706h7.313
		c0.941,0,1.706-0.765,1.706-1.706V3.78C11.362,2.84,10.597,2.075,9.657,2.075z M10.74,3.78v1.509H6.314l0.413-0.074
		c0,0,0.302-0.696,0.302-1.439S6.727,3.333,6.727,3.333l-1.68,1.112C5.012,4.427,4.976,4.413,4.939,4.4V2.697h4.718
		C10.254,2.697,10.74,3.183,10.74,3.78z M2.343,2.697h1.682v1.708C3.999,4.415,3.973,4.424,3.947,4.436L2.129,3.333
		c0,0-0.401-0.42-0.401,0.444s0.401,1.439,0.401,1.439L2.56,5.289h-1.3V3.78C1.26,3.183,1.746,2.697,2.343,2.697z M1.26,8.711V6.203
		h1.843L1.929,7.548L3.08,7.29l0.218,0.978l0.728-1.994v3.52H2.343C1.746,9.794,1.26,9.308,1.26,8.711z M9.657,9.794H4.939V6.521
		l0.638,1.747L5.794,7.29l1.151,0.259L5.771,6.203h4.969v2.508C10.74,9.308,10.254,9.794,9.657,9.794z"/>
</svg>
