<?xml version="1.0" encoding="utf-8"?>
<!DOCTYPE svg PUBLIC "-//W3C//DTD SVG 1.1//EN" "http://www.w3.org/Graphics/SVG/1.1/DTD/svg11.dtd">
<svg id="CategoryPackaging" viewBox="0 0 12 12" xmlns="http://www.w3.org/2000/svg" xmlns:xlink="http://www.w3.org/1999/xlink">
	<path d="M11.234,6.024c0-0.061-0.026-0.115-0.061-0.162c-0.005-0.007-0.01-0.012-0.015-0.018
		c-0.012-0.014-0.021-0.031-0.036-0.043c-0.017-0.013-0.039-0.017-0.058-0.025c-0.013-0.006-0.02-0.02-0.033-0.024L7.283,4.541
		C7.226,4.522,7.166,4.522,7.109,4.542L6.614,4.709c-0.1-0.512-0.194-0.99-0.267-1.358L6.33,3.05c0-0.394-0.276-0.724-0.644-0.811
		c-0.092-0.776-0.74-1.381-1.537-1.393C4,0.803,3.846,0.773,3.683,0.773c-0.853,0-1.557,0.626-1.691,1.441H1.873
		c-0.461,0-0.836,0.375-0.835,0.82L0.759,8.003c0,0.461,0.375,0.836,0.836,0.836h2.09v0.871c0,0.119,0.075,0.224,0.187,0.263
		l3.56,1.239c0.03,0.01,0.06,0.015,0.091,0.015c0.012,0,0.022-0.009,0.034-0.011c0.012,0.001,0.022,0.011,0.034,0.011
		c0.03,0,0.061-0.005,0.091-0.015l3.373-1.162c0.113-0.039,0.188-0.145,0.188-0.264L11.234,6.024z M7.2,5.099l2.824,0.913
		L9.337,6.216L7.82,6.764l0,0l-2.832-0.92L7.2,5.099z M4.789,2.144H3.139C3.258,1.726,3.638,1.42,4.091,1.405
		C4.423,1.53,4.681,1.804,4.789,2.144z M2.569,2.171C2.567,2.185,2.567,2.2,2.565,2.214h-0.01C2.558,2.199,2.565,2.185,2.569,2.171z
		 M1.594,8.281c-0.154,0-0.279-0.125-0.279-0.263L1.594,3.05c0-0.154,0.125-0.279,0.279-0.279h0.091h3.439h0.091
		c0.071,0,0.134,0.029,0.184,0.074c0.02,0.102,0.062,0.308,0.115,0.578l0.086,1.532L4.011,5.585C3.969,5.599,3.939,5.63,3.909,5.661
		c-0.038,0.008-0.075,0.02-0.108,0.044C3.728,5.757,3.684,5.841,3.684,5.931v2.35H1.594z M7.244,10.557L4.241,9.511V6.323
		l3.003,1.046V10.557z M7.867,10.559L7.861,7.34l0.051-0.019L10.677,6.4l0.007,3.189L7.867,10.559z"/>
</svg>
