<?xml version="1.0" encoding="utf-8"?>
<!DOCTYPE svg PUBLIC "-//W3C//DTD SVG 1.1//EN" "http://www.w3.org/Graphics/SVG/1.1/DTD/svg11.dtd">
<svg id="Clock" viewBox="0 0 12 12" xmlns="http://www.w3.org/2000/svg" xmlns:xlink="http://www.w3.org/1999/xlink">
	<g>
		<path d="M6,1.1c-2.8,0-5,2.2-5,5c0,2.8,2.2,5,5,5c2.8,0,5-2.2,5-5C11,3.3,8.8,1.1,6,1.1z M6,9.5
			c-1.9,0-3.4-1.5-3.4-3.4S4.1,2.7,6,2.7c1.9,0,3.4,1.5,3.4,3.4C9.4,7.9,7.9,9.5,6,9.5z"/>
		<path d="M6.4,6C6.4,6,6.4,6,6.4,6l0-2.5c0-0.2-0.1-0.3-0.3-0.3H5.8c-0.2,0-0.3,0.1-0.3,0.3V6c0,0,0,0.1,0,0.1
			c-0.1,0.1,0,0.3,0.1,0.4l1.2,1.2c0.1,0.1,0.3,0.1,0.5,0l0.2-0.2c0.1-0.1,0.1-0.3,0-0.5L6.4,6z"/>
	</g>
</svg>
