<?xml version="1.0" encoding="utf-8"?>
<!DOCTYPE svg PUBLIC "-//W3C//DTD SVG 1.1//EN" "http://www.w3.org/Graphics/SVG/1.1/DTD/svg11.dtd">
<svg id="Coin" viewBox="0 0 12 12" xmlns="http://www.w3.org/2000/svg" xmlns:xlink="http://www.w3.org/1999/xlink">
	<g>
		<path d="M5.3,4.5C3.5,4.5,2,6,2,7.8s1.5,3.3,3.3,3.3s3.3-1.5,3.3-3.3C8.7,6,7.2,4.5,5.3,4.5z M5.5,10.2
			c-1.1,0-1.9-0.5-2.2-1.4H2.7c0,0-0.1-0.3,0-0.6h0.6c0-0.1,0-0.2,0-0.2c0-0.1,0-0.2,0-0.3H2.7c0,0-0.1-0.3,0-0.6h0.7
			c0.3-0.8,1.1-1.4,2.4-1.4c1,0,1.3,0.3,1.3,0.3c0.1,0.5-0.3,0.8-0.3,0.8S6.3,6.3,5.6,6.3C5,6.3,4.5,6.6,4.3,7.1h1.9
			c0,0,0.1,0.3,0,0.6H4.1c0,0.1,0,0.2,0,0.3c0,0.1,0,0.2,0,0.3h2.1c0,0,0.1,0.3,0,0.6H4.3C4.5,9.2,5,9.5,5.6,9.5
			C6.4,9.5,6.9,9,6.9,9s0.2,0.1,0.2,0.4C7.1,9.8,6.5,10.2,5.5,10.2z"/>
		<path d="M10.3,3.9c0.1-0.3-2.5-2.8-2.5-2.8L8,2.3c-0.9-0.4-2.1-0.4-3.4,0C1.6,3.2,1.3,6,1.3,6s0.9-2.1,4-2.6
		c0.9-0.2,1.5-0.1,2.1,0.1L6.7,4.1C6.7,4.1,10.2,4.2,10.3,3.9z"/>
	</g>
</svg>
