<?xml version="1.0" encoding="utf-8"?>
<!DOCTYPE svg PUBLIC "-//W3C//DTD SVG 1.1//EN" "http://www.w3.org/Graphics/SVG/1.1/DTD/svg11.dtd">
<svg id="DocumentRefresh" viewBox="0 0 12 12" xmlns="http://www.w3.org/2000/svg" xmlns:xlink="http://www.w3.org/1999/xlink">
	<g>
		<path d="M4.9,3.7c0-0.7,0-1.5,0-2.2C4.1,2.3,3.3,3.1,2.5,3.9c0.7,0,1.4,0,2.2,0C4.7,3.9,4.9,3.7,4.9,3.7z"/>
		<path d="M9.6,1.7c0-0.3-0.1-0.4-0.4-0.4c-0.7,0-3.2,0-3.8,0c0,0.8,0,1.6,0,2.3c0,0.7,0,0.7-0.7,0.7
			c-0.8,0-1.5,0-2.3,0c0,2.1,0,4.1,0,6.2c0,0.4,0.1,0.5,0.5,0.5c1.6,0,5.9,0,6.3,0c0.2,0,0.4-0.1,0.4-0.3c0,0,0-0.1,0-0.1l0-0.9
			l0-6.2c0-0.2,0-0.5,0-0.7C9.6,2.2,9.6,1.7,9.6,1.7z M5.9,10c-0.6,0-1-0.3-1.3-0.6l-0.2,1.4c0,0-1.9-3.2-1.7-3.4
			C2.9,7.1,6.8,8,6.8,8L5.2,8.6c0.2,0.2,0.5,0.4,1,0.5c1.2,0.2,2.1,0,2.6-0.2c0.1,0,0.2,0,0.3,0C8.5,9.4,7.5,10.1,5.9,10z M9.2,7.5
			C9,7.7,5,6.8,5,6.8l1.7-0.6C6.4,6,6.2,5.8,5.7,5.7C4.5,5.5,3.5,5.8,3,5.9c-0.1,0-0.2,0-0.3,0C3.3,5.4,4.4,4.7,6,4.9
			c0.6,0,1,0.3,1.3,0.6l0.2-1.4C7.4,4.1,9.3,7.3,9.2,7.5z"/>
	</g>
</svg>
