<svg xmlns="http://www.w3.org/2000/svg" data-name="Laag 1" viewBox="0 0 48 48">
    <defs>
        <style> .cls-1{fill:#585858;}.cls-2{fill:none;stroke:#585858;stroke-miterlimit:10;}</style>
    </defs>
    <path class="cls-1" d="M25.3 34.8l0.6 4.3 0.1 0.9H31.3L31.5 41.5H13.3l0.2-1.5h5.5l0.1-0.9 0.5-4.3h5.7m0.9-1H18.7l-0.7 5.2H12.6L12.2 42.5H32.7l-0.5-3.5H26.9L26.2 33.8h0Z"/>
    <path class="cls-2" d="M40.9 15.7V29.8a1 1 0 0 1-1 1H5a1 1 0 0 1-1-1V9.8a1 1 0 0 1 1-1H32.9"/>
    <polygon class="cls-2" points="40.9 5.5 32 15.7 31.9 18.8 35.1 18.3 44 8.1 40.9 5.5"/>
</svg>