<?xml version="1.0" encoding="utf-8"?>
<!DOCTYPE svg PUBLIC "-//W3C//DTD SVG 1.1//EN" "http://www.w3.org/Graphics/SVG/1.1/DTD/svg11.dtd">
<svg id="Enlarge" viewBox="0 0 12 12" xmlns="http://www.w3.org/2000/svg" xmlns:xlink="http://www.w3.org/1999/xlink">
	<path d="M5.948,1.357c-2.646,0-4.792,2.103-4.792,4.698c0,2.595,2.146,4.698,4.792,4.698
		c2.645,0,4.791-2.103,4.791-4.698C10.739,3.46,8.593,1.357,5.948,1.357z M8.343,7.93L8.271,8.018
		C8.192,8.115,8.076,8.154,8.016,8.106L6.729,7.037C6.483,7.254,6.182,7.412,5.856,7.483C5.274,7.612,4.675,7.477,4.211,7.112
		C3.806,6.793,3.552,6.339,3.495,5.833C3.437,5.329,3.585,4.832,3.91,4.434c0.272-0.335,0.658-0.572,1.085-0.666
		c0.582-0.13,1.181,0.006,1.645,0.371C7.405,4.74,7.575,5.793,7.088,6.595l1.286,1.071C8.436,7.714,8.422,7.832,8.343,7.93z"/>
</svg>
