<?xml version="1.0" encoding="utf-8"?>
<!DOCTYPE svg PUBLIC "-//W3C//DTD SVG 1.1//EN" "http://www.w3.org/Graphics/SVG/1.1/DTD/svg11.dtd">
<svg id="ExternalLink" viewBox="0 0 12 12" xmlns="http://www.w3.org/2000/svg" xmlns:xlink="http://www.w3.org/1999/xlink">
	<g>
		<polygon points="10.2,4.8 9.2,3.8 5.5,6.9 4.9,6 8.4,3.1 7.4,2.2 11,1.3"/>
		<path d="M8.3,7.6v0.9c0,0.8-0.6,1.4-1.4,1.4H3.3c-0.8,0-1.4-0.6-1.4-1.4V5c0-0.8,0.6-1.4,1.4-1.4h1.1l1.2-1H3.3
			C2,2.5,0.9,3.6,0.9,5v3.5c0,1.4,1.1,2.5,2.5,2.5h3.5c1.4,0,2.5-1.1,2.5-2.5V6.7L8.3,7.6z"/>
	</g>
</svg>
