<?xml version="1.0" encoding="utf-8"?>
<!DOCTYPE svg PUBLIC "-//W3C//DTD SVG 1.1//EN" "http://www.w3.org/Graphics/SVG/1.1/DTD/svg11.dtd">
<svg id="FilePhotoshop" viewBox="0 0 12 12" xmlns="http://www.w3.org/2000/svg" xmlns:xlink="http://www.w3.org/1999/xlink">
    <rect class="a" fill="#3a3a3a" x="1.346" y="1.19" width="9.307" height="9.619" rx="1" ry="1"/>
    <path class="b" fill="#d7d7d7" d="M9.653,11.059H2.346A1.251,1.251,0,0,1,1.1,9.809V2.19A1.251,1.251,0,0,1,2.346.94H9.653A1.251,1.251,0,0,1,10.9,2.19V9.809A1.251,1.251,0,0,1,9.653,11.059ZM2.346,1.44a0.751,0.751,0,0,0-.75.75V9.809a0.751,0.751,0,0,0,.75.75H9.653a0.751,0.751,0,0,0,.75-0.75V2.19a0.751,0.751,0,0,0-.75-0.75H2.346Z"/>
    <path class="b" fill="#d7d7d7" d="M5.065,7.767H2.721V7.334L4.232,5.17H2.762V4.619H5.024V5.05L3.516,7.217H5.065v0.55Z"/>
    <path class="b" fill="#d7d7d7" d="M6.744,7.767H5.313V7.389L5.7,7.212V5.175l-0.383-.18V4.619H6.744V4.995l-0.384.18V7.212L6.744,7.389V7.767Z"/>
    <path class="b" fill="#d7d7d7" d="M9.458,5.6a0.964,0.964,0,0,1-.317.777,1.36,1.36,0,0,1-.9.27H7.95v1.12H7.282V4.619H8.288a1.336,1.336,0,0,1,.871.247A0.9,0.9,0,0,1,9.458,5.6ZM7.95,6.1H8.17a0.734,0.734,0,0,0,.461-0.122,0.427,0.427,0,0,0,.152-0.354,0.434,0.434,0,0,0-.128-0.347,0.6,0.6,0,0,0-.4-0.112h-0.3V6.1h0Z"/>
</svg>