<?xml version="1.0" encoding="utf-8"?>
<!DOCTYPE svg PUBLIC "-//W3C//DTD SVG 1.1//EN" "http://www.w3.org/Graphics/SVG/1.1/DTD/svg11.dtd">
<svg id="FileIllustrator" viewBox="0 0 12 12" xmlns="http://www.w3.org/2000/svg" xmlns:xlink="http://www.w3.org/1999/xlink">
	<g>
		<path fill="#3B2B21" stroke="#E69330" stroke-width="0.5" stroke-miterlimit="10" d="M9.7,10.8H2.3c-0.5,0-1-0.4-1-1V2.2
			c0-0.6,0.5-1,1-1h7.4c0.5,0,1,0.4,1,1v7.7C10.7,10.4,10.2,10.8,9.7,10.8z"/>
		<rect x="8" y="4.7" fill="#E69330" width="0.9" height="4.1"/>
		<path fill="#E69330" d="M4,7.2L3.6,8.7l-0.8,0c0,0,1-3.5,1.4-5c0-0.1,0-0.1,0-0.2c0-0.2,0-0.4,0-0.4l1.2,0c0,0,0,0.1,0,0.1
			C5.4,3.4,7,8.8,7,8.8l-0.9,0L5.7,7.2H4z M4.8,4c0,0-0.6,2.4-0.6,2.4h1.2C5.5,6.4,5,4.7,4.8,4z"/>
		<path fill="#E69330" d="M8.9,3.6c0,0.3-0.2,0.5-0.5,0.5C8.1,4,7.9,3.8,7.9,3.5C7.9,3.2,8.1,3,8.4,3C8.7,3.1,8.9,3.3,8.9,3.6z"/>
	</g>
</svg>
