<?xml version="1.0" encoding="utf-8"?>
<!DOCTYPE svg PUBLIC "-//W3C//DTD SVG 1.1//EN" "http://www.w3.org/Graphics/SVG/1.1/DTD/svg11.dtd">
<svg id="FilePDF" viewBox="0 0 12 12" xmlns="http://www.w3.org/2000/svg" xmlns:xlink="http://www.w3.org/1999/xlink">
	<g>
		<path fill="#FFFFFF" stroke="#AAAAAA" stroke-width="0.4" stroke-miterlimit="10" d="M9.7,10.8H2.3c-0.6,0-1-0.4-1-1V2.2
		c0-0.6,0.4-1,1-1h7.3c0.6,0,1,0.4,1,1v7.7C10.7,10.4,10.2,10.8,9.7,10.8z"/>
		<path fill="#FF0000" d="M9.6,7.5C9.9,7,8.9,6.9,7.5,7C7.3,6.9,7.1,6.7,6.9,6.6C6.4,6.2,6,5.4,5.7,4.7c0.1-0.6,0.1-1.1,0.1-1.6
			C5.8,3.3,5.8,3.8,5.6,4.4C5.4,3.7,5.4,3,5.5,2.7c0-0.1,0.1-0.2,0.1-0.2C5.7,2.6,5.8,2.7,5.9,3C6,2.5,5.7,2.5,5.7,2.5l-0.1,0
			c-0.1,0-0.2,0.1-0.2,0.2C5.2,3.1,5.3,4,5.5,4.8C5.4,5.3,5.1,6,4.7,6.8c-1,1.9-1.7,2.9-2.2,2.9C2.5,9.4,3,8.7,3.7,8.2
			C2.5,8.8,2.3,9.5,2.4,9.6l0.2,0.1c0.3,0.2,0.9-0.3,1.8-1.9c0.9-0.3,2-0.5,3-0.6C8.4,7.8,9.5,7.9,9.6,7.5c-0.3,0.2-1,0-1.8-0.3
			C8.9,7.1,9.6,7.2,9.6,7.5z M4.4,7.9c0.2-0.3,0.3-0.6,0.5-0.9c0.4-0.7,0.6-1.3,0.7-1.8c0.2,0.6,0.6,1.2,1,1.6C6.8,6.9,7,7,7.2,7.1
			C6.3,7.2,5.3,7.5,4.4,7.9z"/>
	</g>
</svg>
