<?xml version="1.0" encoding="utf-8"?>
<!DOCTYPE svg PUBLIC "-//W3C//DTD SVG 1.1//EN" "http://www.w3.org/Graphics/SVG/1.1/DTD/svg11.dtd">
<svg id="FlagNL" viewBox="0 0 12 12" xmlns="http://www.w3.org/2000/svg" xmlns:xlink="http://www.w3.org/1999/xlink">
	<g id="XMLID_1">
		<g id="XMLID_12">
			<path id="XMLID_15" fill="#1950B2" d="M1.709,1.604c-0.55,0-1,0.45-1,1v7c0,0.55,0.45,1,1,1h2.556v-9H1.709z"/>
			<path id="XMLID_14" fill="#DD2222" d="M10.376,1.604H7.82v9h2.556c0.55,0,1-0.45,1-1v-7C11.376,2.054,10.926,1.604,10.376,1.604z
				"/>
			<rect id="XMLID_13" x="4.265" y="1.604" fill="#FFFFFF" width="3.555" height="9"/>
		</g>
		<path id="XMLID_9_" fill="#EBEBEB" d="M10.376,10.754H1.709c-0.634,0-1.15-0.516-1.15-1.15v-7c0-0.634,0.517-1.15,1.15-1.15h8.667
			c0.634,0,1.15,0.516,1.15,1.15v7C11.527,10.239,11.01,10.754,10.376,10.754z M1.709,1.754c-0.469,0-0.85,0.381-0.85,0.85v7
			c0,0.469,0.381,0.85,0.85,0.85h8.667c0.469,0,0.85-0.381,0.85-0.85v-7c0-0.469-0.381-0.85-0.85-0.85H1.709z"/>
	</g>
</svg>
