<?xml version="1.0" encoding="utf-8"?>
<!DOCTYPE svg PUBLIC "-//W3C//DTD SVG 1.1//EN" "http://www.w3.org/Graphics/SVG/1.1/DTD/svg11.dtd">
<svg id="Ideal" viewBox="0 0 12 12" xmlns="http://www.w3.org/2000/svg" xmlns:xlink="http://www.w3.org/1999/xlink">
    <defs><style>.a{fill:#fff;stroke:#d7d7d7;stroke-miterlimit:10;stroke-width:0.4px;}.b{fill:#cd0067;}</style></defs>
    <title>Ideal</title>
    <path class="a" d="M10.707,9.8H1.294a1,1,0,0,1-1-1V3.2a1,1,0,0,1,1-1h9.414a1,1,0,0,1,1,1V8.8A1,1,0,0,1,10.707,9.8Z"/>
    <rect x="3.69" y="6.455" width="1.083" height="1.797"/>
    <circle cx="4.24" cy="5.556" r="0.613"/>
    <path d="M6.891,3.139H3.007V9.03H6.891a3.06,3.06,0,0,0,2-.628,2.887,2.887,0,0,0,.874-2.316,3.592,3.592,0,0,0-.23-1.33,2.432,2.432,0,0,0-.641-0.927,3.023,3.023,0,0,0-2-.687h0Zm-0.074.392a2.683,2.683,0,0,1,1.815.59,2.5,2.5,0,0,1,.739,1.964A2.246,2.246,0,0,1,6.817,8.64H3.4V3.531H6.817Z"/>
    <path class="b" d="M7.632,5.692c-0.018-.048-0.069-0.188-0.1-0.27-0.03.083-.081,0.221-0.1,0.27h0.2Z"/>
    <path class="b" d="M5.507,5.915a0.154,0.154,0,0,0,.071-0.036,0.185,0.185,0,0,0,.05-0.087,0.65,0.65,0,0,0,.019-0.179,0.548,0.548,0,0,0-.02-0.173,0.21,0.21,0,0,0-.05-0.087,0.171,0.171,0,0,0-.083-0.041A0.758,0.758,0,0,0,5.331,5.3H5.269v0.62H5.393A0.42,0.42,0,0,0,5.507,5.915Z"/>
    <path class="b" d="M8.2,6.153V5.084H8.459v0.84H8.942A2.05,2.05,0,0,0,6.785,3.987q-0.1.005-.2,0.02H5.269V5.072H5.408a0.757,0.757,0,0,1,.2.02,0.386,0.386,0,0,1,.167.1,0.476,0.476,0,0,1,.1.176,0.784,0.784,0,0,1,.036.251,0.673,0.673,0,0,1-.034.227,0.458,0.458,0,0,1-.117.191,0.4,0.4,0,0,1-.157.088,0.646,0.646,0,0,1-.19.023H5.269v2.1H6.586c1.141,0,2.355-.344,2.363-2.1H8.2V6.153Zm-1.27,0H6.094V5.072H6.908V5.3H6.356V5.472H6.869V5.7H6.356V5.924h0.57V6.153Zm0.883,0s-0.078-.2-0.089-0.232H7.35c-0.011.032-.085,0.232-0.085,0.232H6.987L7.408,5.072H7.663L8.094,6.153H7.81Z"/>
</svg>