<?xml version="1.0" encoding="utf-8"?>
<!DOCTYPE svg PUBLIC "-//W3C//DTD SVG 1.1//EN" "http://www.w3.org/Graphics/SVG/1.1/DTD/svg11.dtd">
<svg id="Info" viewBox="0 0 48 48" xmlns="http://www.w3.org/2000/svg" xmlns:xlink="http://www.w3.org/1999/xlink">
    <path stroke="#585858" fill="none" d="M24,3A21,21,0,1,0,45,24,21,21,0,0,0,24,3Zm0.081,6.5A3.3,3.3,0,0,1,27.5,13.02,3.387,3.387,0,0,1,24,16.5a3.336,3.336,0,0,1-3.5-3.48A3.438,3.438,0,0,1,24.081,9.5Zm-0.293,28c-3.32,0-4.781-1.115-4.335-4.532l1.378-10.616a3.29,3.29,0,0,1-2.063.6A1.967,1.967,0,0,1,16.5,20.883a2.215,2.215,0,0,1,.359-1.349A49.975,49.975,0,0,0,25.853,18.5a3.55,3.55,0,0,1,1.458,1.47l-1.332,5.246-1.055,8.909A10.406,10.406,0,0,0,28.528,31.9a2.067,2.067,0,0,1,.972,1.909C29.5,35.825,27.719,37.5,23.788,37.5Z"/>
</svg>
