<?xml version="1.0" encoding="utf-8"?>
<!DOCTYPE svg PUBLIC "-//W3C//DTD SVG 1.1//EN" "http://www.w3.org/Graphics/SVG/1.1/DTD/svg11.dtd">
<svg id="MapMarkerHouse" viewBox="0 0 12 12" xmlns="http://www.w3.org/2000/svg" xmlns:xlink="http://www.w3.org/1999/xlink">
	<path d="M5.997,1.139c-2.055,0-3.719,1.223-3.719,3.672c0,2.449,3.719,6.242,3.719,6.242s3.719-3.625,3.719-6.242
		C9.716,2.196,8.051,1.139,5.997,1.139z M7.911,6.436c0,0-0.008,0.072-0.039,0.105C7.841,6.574,7.756,6.58,7.756,6.58L6.444,6.578
		V5.013L5.483,5.01v1.568L4.192,6.58c0,0-0.091-0.006-0.118-0.035C4.049,6.518,4.041,6.444,4.041,6.444V4.337l1.912-1.4l1.957,1.445
		V6.436L7.911,6.436z M8.436,4.245C8.388,4.33,8.286,4.358,8.204,4.309L5.942,2.643l-2.24,1.649C3.622,4.348,3.517,4.328,3.465,4.247
		c-0.056-0.08-0.035-0.191,0.041-0.249l2.326-1.71c0.038-0.027,0.081-0.036,0.121-0.03c0.024,0.001,0.051,0.009,0.076,0.023
		l2.349,1.718C8.456,4.05,8.484,4.16,8.436,4.245z"/>
</svg>
