<?xml version="1.0" encoding="utf-8"?>
<!DOCTYPE svg PUBLIC "-//W3C//DTD SVG 1.1//EN" "http://www.w3.org/Graphics/SVG/1.1/DTD/svg11.dtd">
<svg id="MboxWrite" viewBox="0 0 12 12" xmlns="http://www.w3.org/2000/svg" xmlns:xlink="http://www.w3.org/1999/xlink">
	<g>
		<path d="M7.8,3.2L7,4.8L5.7,4.1l0.7-1.3c-0.1,0-0.2,0-0.4,0C4.2,2.7,2.7,4.2,2.7,6c0,0,0,0.1,0,0.1H5
			c0,0.2,0.1,0.3,0.2,0.3c0,0,0,0,0,0c-0.1,0-0.1,0-0.1,0.1c0,0.1,0,0.1,0.1,0.1c0,0,0.1,0,0.3,0c0.1,0,0.2,0,0.4,0.1
			c0.1,0,0.1,0,0.2,0c0.1,0,0.1,0,0.1,0c0,0,0,0-0.1,0C6,6.9,6,7,5.9,7C5.7,7.1,5.5,7.1,5.3,7.2C5.2,7.2,5,7.2,4.9,7.3
			c-0.1,0-0.1,0-0.2,0.1c0,0-0.1,0-0.1,0c0,0-0.1,0-0.1,0.1c0,0,0,0,0,0.1c0,0,0,0,0,0c0,0,0,0,0,0c0,0.1,0.1,0.1,0.3,0.2
			c0,0,0.1,0,0.1,0c0.1,0,0.2,0.1,0.4,0.1C5.7,8,6.2,8,6.6,8c0.4,0,0.8,0.1,1.2,0.1c0.1,0,0.2,0,0.2,0.1c0,0,0,0,0.1,0c0,0,0,0,0,0
			C8,8.3,7.9,8.3,7.8,8.4c0,0-0.1,0-0.1,0s0,0,0,0c-0.1,0-0.1,0.1-0.1,0.2c0,0.1,0.1,0.1,0.2,0.1c0,0,0,0,0.1,0c0.1,0,0.1,0,0.2-0.1
			c0.1,0,0.1,0,0.2-0.1c0,0,0.1-0.1,0.1-0.1c0,0,0-0.1,0-0.2c0-0.1-0.1-0.1-0.1-0.1C8.3,8,8.2,8,8.1,7.9c-0.1,0-0.2,0-0.3-0.1
			C7.5,7.8,7.1,7.8,6.7,7.8c-0.4,0-0.9-0.1-1.3-0.1c-0.1,0-0.2,0-0.3-0.1c0,0,0,0-0.1,0c0,0,0.1,0,0.1,0c0.1,0,0.2-0.1,0.3-0.1
			c0.2-0.1,0.4-0.1,0.6-0.2c0.1,0,0.2-0.1,0.3-0.1c0,0,0.1,0,0.2-0.1c0,0,0.1,0,0.1-0.1c0,0,0-0.1,0-0.1c0,0,0,0,0-0.1c0,0,0,0,0,0
			C6.4,6.7,6.3,6.7,6.3,6.7c0,0-0.1,0-0.1,0c-0.1,0-0.2,0-0.2-0.1c-0.1,0-0.3,0-0.4-0.1c0,0-0.1,0-0.1,0c0.2,0,0.4-0.2,0.5-0.4h3.4
			c0,0,0,0,0-0.1C9.4,4.9,8.7,3.8,7.8,3.2z M5.6,6.2C5.5,6.2,5.5,6.2,5.6,6.2C5.5,6.2,5.5,6.2,5.6,6.2C5.5,6.2,5.5,6.2,5.6,6.2
			C5.4,6.2,5.4,6.2,5.4,6.2c0,0,0,0-0.1,0c0,0,0,0,0,0c0,0,0,0,0,0l0,0C5.2,6,5.4,5.7,5.4,5.7l0.5,0.2C5.8,5.9,5.7,6.1,5.6,6.2z
			 M6,5.8L5.3,5.5l0.3-1.2l1.2,0.6L6,5.8z"/>
		<path d="M6.7,1.5C6.1,1.5,5.5,1.7,5,1.8C4.8,1.8,4.5,1.9,4.3,2c0.3-0.2,0.6-0.3,1-0.3c0.3-0.1,0.7-0.1,1.1-0.2
			c-0.1,0-0.2,0-0.3,0C3.5,1.4,1.4,3.5,1.4,6c0,2.6,2.1,4.6,4.6,4.6c0.7,0,1.3-0.1,1.9-0.4c0.2-0.1,0.5-0.3,0.5-0.3
			c0.5-0.3,0.6-0.5,0.9-0.8C9.6,8.8,9.9,8.4,10,8.3c0.5-0.9,0.7-1.6,0.7-2.4C10.6,3.6,8.9,1.8,6.7,1.5z M6,9.7C4,9.7,2.3,8.1,2.3,6
			S4,2.4,6,2.4S9.7,4,9.7,6S8.1,9.7,6,9.7z"/>
	</g>
</svg>
