<?xml version="1.0" encoding="utf-8"?>
<!DOCTYPE svg PUBLIC "-//W3C//DTD SVG 1.1//EN" "http://www.w3.org/Graphics/SVG/1.1/DTD/svg11.dtd">
<svg id="MboxUv" viewBox="0 0 12 12" xmlns="http://www.w3.org/2000/svg" xmlns:xlink="http://www.w3.org/1999/xlink">
	<path d="M6.7,1.5C6.1,1.5,5.5,1.7,5,1.8C4.8,1.8,4.5,1.9,4.3,2c0.3-0.2,0.6-0.3,1-0.3c0.3-0.1,0.7-0.1,1.1-0.2
		c-0.1,0-0.2,0-0.3,0c-2.6,0-4.6,2.1-4.6,4.6c0,2.6,2.1,4.6,4.6,4.6c0.7,0,1.3-0.1,1.9-0.4C8.1,10.2,8.4,10,8.4,10
		C9,9.6,9.1,9.5,9.3,9.2C9.6,8.9,9.9,8.5,10,8.3c0.5-0.9,0.7-1.6,0.7-2.4C10.6,3.6,8.9,1.8,6.7,1.5z M9,4.9c0,0,0.1-0.1,0.1-0.1
		c0,0,0-0.1,0.1-0.1L9.5,5L9.2,5L9,4.9z M9,5.6L8.6,5.3c0.1,0,0.2-0.1,0.2-0.2L9,5.6z M9.3,3L9,3.4C9,3.3,8.9,3.2,8.9,3.2L9.3,3z
		 M9.7,3.6L9.3,3.9c0-0.1,0-0.2-0.1-0.3L9.7,3.6z M8.7,2.5L8.6,3C8.6,3,8.5,2.9,8.4,2.9L8.7,2.5z M8,2.4l0.1,0.5c0,0-0.1,0-0.1,0h0
		c0,0-0.1,0-0.1,0L8,2.4z M7.6,3c0,0,0.1,0,0.1,0c0,0,0,0,0,0c0,0,0.1,0,0.1,0c0,0,0,0,0,0c0,0,0.1,0,0.1,0h0c0.6,0,1.2,0.5,1.2,1.2
		v0c0,0,0,0,0,0c0,0,0,0.1,0,0.1c0,0,0,0,0,0c0,0,0,0.1,0,0.1c0,0,0,0,0,0c0,0,0,0.1,0,0.1c0,0,0,0,0,0C8.9,5,8.5,5.3,8,5.3h0
		c-0.6,0-1.2-0.5-1.2-1.2C6.8,3.6,7.1,3.2,7.6,3C7.6,3,7.6,3,7.6,3z M8.4,5.4l0,0.5L8.1,5.4C8.2,5.4,8.3,5.4,8.4,5.4z M7.9,5.4
		L7.6,5.9l0-0.5C7.7,5.4,7.8,5.4,7.9,5.4z M5.8,6.9c0,0,0.1-0.1,0.1-0.1c0,0,0.1,0,0.1,0c0.1,0.1,0.1,0.2,0,0.3c0,0-0.1,0.1-0.1,0.1
		c0,0-0.1,0-0.1,0C5.7,7.1,5.7,7,5.8,6.9z M5.8,7.4c0,0.1,0,0.1,0,0.1c0,0-0.1,0.1-0.1,0.1c0,0-0.1,0-0.1,0c0,0-0.1-0.1-0.1-0.1
		c0-0.1,0-0.1,0-0.1c0,0,0.1-0.1,0.1-0.1c0,0,0.1,0,0.1,0C5.7,7.3,5.8,7.4,5.8,7.4z M6.1,6.5c0,0,0.1-0.1,0.1-0.1c0,0,0.1,0,0.1,0
		c0.1,0.1,0.1,0.2,0,0.3c0,0-0.1,0.1-0.1,0.1c0,0-0.1,0-0.1,0C6,6.7,6,6.6,6.1,6.5z M6.8,3.6c0,0.1-0.1,0.2-0.1,0.3L6.3,3.6L6.8,3.6z
		 M6.7,3l0.4,0.2C7,3.2,7,3.3,6.9,3.4L6.7,3z M6.8,4.7c0,0.1,0.1,0.2,0.2,0.3L6.4,5L6.8,4.7z M6.7,4.1c0,0.1,0,0.2,0,0.3L6.2,4.3
		L6.7,4.1z M6.4,6.3c0-0.1,0-0.1,0-0.1c0,0,0.1-0.1,0.1-0.1c0,0,0.1,0,0.1,0c0,0,0.1,0.1,0.1,0.1c0,0.1,0,0.1,0,0.1
		c0,0-0.1,0.1-0.1,0.1c0,0-0.1,0-0.1,0C6.4,6.4,6.4,6.3,6.4,6.3z M6.8,5.7c0,0,0.1-0.1,0.1-0.1c0,0,0.1,0,0.1,0c0,0,0.1,0.1,0.1,0.1
		c0,0.1,0,0.1,0,0.1C7,6,7,6,6.9,6c0,0-0.1,0-0.1,0C6.7,5.9,6.7,5.8,6.8,5.7z M6.9,5.6l0.2-0.5c0.1,0.1,0.2,0.1,0.2,0.2L6.9,5.6z
		 M7.6,2.9c0,0-0.1,0-0.1,0c0,0-0.1,0-0.1,0.1c0,0,0,0,0,0l0-0.1l0-0.3l0-0.1L7.6,2.9z M6,9.8c-2,0-3.7-1.7-3.7-3.7
		C2.3,4,4,2.4,6,2.4c0.4,0,0.7,0.1,1.1,0.2c0,0,0,0,0,0l0,0.4C6.8,2.8,6.4,2.7,6,2.7c-1.5,0-2.7,1-3.2,2.3c0,0,0,0,0.1,0
		c0,0,0.1,0.1,0.1,0.1c0,0.1,0,0.1,0,0.1c0,0-0.1,0.1-0.1,0.1c0,0,0,0,0,0c0,0.2-0.1,0.5-0.1,0.7c0,0.6,0.2,1.2,0.4,1.6h5.8
		c0.3-0.5,0.4-1,0.4-1.6c0-0.3,0-0.6-0.1-0.9l0.4,0.1c0.1,0.3,0.1,0.5,0.1,0.8C9.7,8.1,8.1,9.8,6,9.8z M3.4,5.8c0,0,0.1-0.1,0.1-0.1
		c0,0,0.1,0,0.1,0.1c0,0,0.1,0.1,0.1,0.1c0,0.1,0,0.1-0.1,0.1c0,0-0.1,0.1-0.1,0.1c0,0-0.1,0-0.1,0C3.3,6,3.3,5.8,3.4,5.8z M3.3,5.7
		c0,0-0.1,0.1-0.1,0.1c0,0-0.1,0-0.1-0.1C3,5.6,3,5.6,3,5.5C3,5.5,3,5.4,3,5.4c0,0,0.1-0.1,0.1-0.1c0,0,0.1,0,0.1,0.1
		c0,0,0.1,0.1,0.1,0.1C3.3,5.6,3.3,5.6,3.3,5.7z M3.8,6.1c0,0,0.1-0.1,0.1-0.1c0,0,0.1,0,0.1,0.1c0.1,0.1,0.1,0.2,0,0.3
		c0,0-0.1,0.1-0.1,0.1c-0.1,0-0.1,0-0.1-0.1C3.7,6.3,3.7,6.2,3.8,6.1z M4.2,6.5c0,0,0.1-0.1,0.1-0.1c0,0,0.1,0,0.1,0.1
		c0,0,0.1,0.1,0.1,0.1c0,0.1,0,0.1-0.1,0.1c0,0-0.1,0.1-0.1,0.1c-0.1,0-0.1,0-0.1-0.1C4.1,6.7,4.1,6.6,4.2,6.5z M4.5,6.8
		c0,0,0.1-0.1,0.1-0.1c0,0,0.1,0,0.1,0.1c0.1,0.1,0.1,0.2,0,0.3c0,0-0.1,0.1-0.1,0.1c-0.1,0-0.1,0-0.1-0.1c0,0-0.1-0.1-0.1-0.1
		C4.5,6.9,4.5,6.9,4.5,6.8z M4.9,7.2c0,0,0.1-0.1,0.1-0.1c0,0,0.1,0,0.1,0.1c0,0,0.1,0.1,0.1,0.1c0,0.1,0,0.1-0.1,0.1
		c0,0-0.1,0.1-0.1,0.1c0,0-0.1,0-0.1,0C4.9,7.4,4.9,7.3,4.9,7.2z M9.2,4.4c0,0,0-0.1,0-0.1c0-0.1,0-0.1,0-0.2l0.5,0.2L9.2,4.4z"/>
</svg>
