<?xml version="1.0" encoding="utf-8"?>
<!DOCTYPE svg PUBLIC "-//W3C//DTD SVG 1.1//EN" "http://www.w3.org/Graphics/SVG/1.1/DTD/svg11.dtd">
<svg id="MboxStamp" viewBox="0 0 12 12" xmlns="http://www.w3.org/2000/svg" xmlns:xlink="http://www.w3.org/1999/xlink">
	<g>
		<ellipse cx="5.8" cy="7.8" rx="1.9" ry="0.6"/>
		<path d="M6.7,1.5C6.1,1.5,5.5,1.7,5,1.8C4.8,1.8,4.5,1.9,4.3,2c0.3-0.2,0.6-0.3,1-0.3C5.6,1.6,6,1.5,6.3,1.4
			c-0.1,0-0.2,0-0.3,0c-2.6,0-4.6,2.1-4.6,4.6s2.1,4.6,4.6,4.6c0.7,0,1.3-0.1,1.9-0.4C8.1,10.2,8.4,10,8.5,10C9,9.6,9.1,9.5,9.4,9.2
			C9.6,8.9,9.9,8.5,10,8.3c0.5-0.9,0.7-1.6,0.7-2.4C10.6,3.6,8.9,1.8,6.7,1.5z M7.2,2.8C7.2,2.8,7.3,2.8,7.2,2.8c0.1,0,0.1,0,0.2,0
			c0.1,0,0.2,0,0.3,0.1c0,0,0.1,0,0.1,0.1c0,0,0,0,0,0C7.9,3,8,3,8,3c0,0,0,0,0,0c0,0,0,0,0.1,0.1c0,0,0,0,0,0.1c0,0,0,0,0,0
			c0,0.1,0.1,0.2,0.1,0.3l0,0c0,0.1,0,0.3-0.1,0.4C7.9,4.3,7.3,5.2,6.8,5.6L8,6.1l0.1,0L7.6,7.1L4.5,5.6l0.4-0.9l1.3,0.6
			c0-0.6,0.3-1.7,0.5-2.1C6.8,3.1,6.9,2.9,7,2.9c0,0,0,0,0,0c0,0,0.1,0,0.1,0c0,0,0,0,0,0C7.1,2.8,7.2,2.8,7.2,2.8
			C7.2,2.8,7.2,2.8,7.2,2.8z M6,9.8c-2,0-3.7-1.7-3.7-3.7C2.3,4,4,2.4,6,2.4c0.4,0,0.7,0.1,1.1,0.2C7,2.6,6.8,2.7,6.7,2.8
			C6.5,2.7,6.3,2.7,6,2.7c-1.8,0-3.4,1.5-3.4,3.4c0,0,0,0.1,0,0.1h2.4l2.7,1.3l0.6-1.3h1c0,0,0-0.1,0-0.1c0-0.9-0.4-1.7-0.9-2.3
			c0-0.2,0-0.3,0-0.5c0.8,0.7,1.3,1.7,1.3,2.8C9.7,8.1,8.1,9.8,6,9.8z"/>
	</g>
</svg>
