<?xml version="1.0" encoding="utf-8"?>
<!DOCTYPE svg PUBLIC "-//W3C//DTD SVG 1.1//EN" "http://www.w3.org/Graphics/SVG/1.1/DTD/svg11.dtd">
<svg id="MboxWaterproof" viewBox="0 0 12 12" xmlns="http://www.w3.org/2000/svg" xmlns:xlink="http://www.w3.org/1999/xlink">
	<path d="M6.7,1.5C6.1,1.5,5.5,1.7,5,1.8C4.7,1.8,4.5,1.9,4.3,2c0.3-0.2,0.6-0.3,1-0.3c0.3-0.1,0.7-0.1,1.1-0.2
		c-0.1,0-0.2,0-0.3,0c-2.6,0-4.6,2.1-4.6,4.6s2.1,4.6,4.6,4.6c0.7,0,1.3-0.1,1.9-0.4C8.1,10.2,8.4,10,8.4,10c0.5-0.3,0.6-0.5,0.9-0.8
		C9.6,8.9,9.9,8.5,10,8.3c0.5-0.9,0.7-1.6,0.7-2.4C10.6,3.6,8.9,1.8,6.7,1.5z M8,3.7C8.1,4,8.2,4.1,8.2,4.6c0,0.2,0,0.4-0.2,0.5
		C8,5.2,7.8,5.3,7.7,5.3c-0.2,0-0.3-0.1-0.4-0.2C7.1,5,7.1,4.8,7.1,4.6c0-0.4,0.1-0.6,0.3-0.8c0.1-0.2,0.2-0.4,0.3-0.7
		C7.8,3.3,7.9,3.5,8,3.7z M6,9.8c-2,0-3.7-1.7-3.7-3.7C2.3,4,4,2.4,6,2.4c0.5,0,1,0.1,1.4,0.3c0,0.1-0.1,0.2-0.1,0.3
		C6.9,2.8,6.5,2.7,6,2.7c-1.8,0-3.4,1.5-3.4,3.4c0,0,0,0.1,0,0.1h1.5C4.1,6.3,4.1,6.5,4.1,6.8c0,0.5,0.1,0.8,0.3,1
		C4.6,8,4.9,8.2,5.2,8.2C5.5,8.2,5.8,8,6,7.8c0.2-0.2,0.3-0.5,0.3-1c0-0.3-0.1-0.5-0.1-0.7h3.1c0,0,0-0.1,0-0.1c0-0.9-0.4-1.8-1-2.4
		c0,0,0-0.1-0.1-0.1C8.2,3.4,8.1,3.2,8,2.9c1,0.7,1.7,1.8,1.7,3.1C9.7,8.1,8.1,9.8,6,9.8z M6,6.8c0,0.3-0.1,0.5-0.2,0.7
		C5.6,7.7,5.4,7.8,5.2,7.8C5,7.8,4.8,7.7,4.6,7.6C4.5,7.4,4.4,7.1,4.4,6.8c0-0.1,0-0.1,0-0.2c0,0,0,0,0-0.1c0,0,0-0.1,0-0.1
		c0,0,0,0,0,0c0,0,0-0.1,0-0.1c0,0,0,0,0,0c0,0,0-0.1,0-0.1v0C4.6,6,4.7,5.9,4.8,5.8c0.1-0.2,0.3-0.5,0.5-1c0.1,0.4,0.3,0.7,0.4,1
		c0.1,0.2,0.2,0.3,0.3,0.5c0,0,0,0,0,0c0,0,0,0.1,0,0.1c0,0,0,0,0,0c0,0,0,0.1,0,0.1c0,0,0,0,0,0C6,6.7,6,6.8,6,6.8z"/>
</svg>
