<?xml version="1.0" encoding="utf-8"?>
<!DOCTYPE svg PUBLIC "-//W3C//DTD SVG 1.1//EN" "http://www.w3.org/Graphics/SVG/1.1/DTD/svg11.dtd">
<svg id="MboxScratch" viewBox="0 0 12 12" xmlns="http://www.w3.org/2000/svg" xmlns:xlink="http://www.w3.org/1999/xlink">
	<g>
		<path d="M5.4,3.9c0.4-0.2,0.8-0.3,1.1-0.3c1.1,0,1.8,1,1.8,1l0.5-0.3C8.3,3.4,7.2,2.7,6,2.7c-1.8,0-3.3,1.5-3.3,3.3
			c0,0,0,0.1,0,0.1h1.6C4.5,7,5.2,7.7,5.9,7.7c0,0,0,0,0,0c0.1,0,0.3-0.1,0.3-0.2c0.1-0.1,0-0.3-0.1-0.4C6,7,5.9,6.7,5.8,6.5
			c0,0,0,0,0,0c0,0,0,0,0,0l0,0l0-0.1c0,0,0,0,0,0c0,0,0,0,0,0c0,0,0-0.1,0-0.2h3.7c0,0,0-0.1,0-0.1c0-0.3,0-0.6-0.1-0.9L8.5,5.5
			L8.2,5.7L8,5.4L7.9,5.3L7.8,5.1C7.7,5.1,7.6,5,7.5,4.9C7.5,4.8,7.4,4.8,7.3,4.7C7.2,4.7,7.1,4.6,7,4.6c-0.1,0-0.2,0-0.3,0
			c0,0,0,0,0,0h0c-0.1,0-0.2,0-0.3,0c0,0-0.1,0-0.2,0l-0.1,0c0,0,0,0-0.1,0c0,0-0.1,0.1-0.1,0.1c0,0-0.1,0.1-0.1,0.1
			C5.7,5,5.6,5.1,5.6,5.2C5.5,5.2,5.4,5.3,5.4,5.4c0,0.1-0.1,0.2-0.1,0.3c0,0.1,0,0.1,0,0.2c0,0.1,0,0.1,0,0.2c0,0,0,0,0,0.1
			c0,0,0,0.1,0,0.1c0,0.1,0,0.1,0,0.1c0,0,0,0.1,0,0.1l0.1,0.1c0,0,0,0,0,0s0,0,0,0l0,0c0,0,0.3,0.5,0.5,0.7c0,0-0.1,0-0.1,0
			c0,0,0,0,0,0c0,0,0,0-0.1,0c0,0,0,0,0,0c0,0,0,0-0.1,0c0,0,0,0,0,0c0,0,0,0-0.1,0c0,0,0,0,0,0c0,0,0,0-0.1,0c0,0,0,0,0,0
			c0,0,0,0,0,0c0,0,0,0,0,0c0,0,0,0,0,0c0,0,0,0,0,0c0,0,0,0,0,0c0,0,0,0,0-0.1c0,0,0,0,0,0c0,0,0,0,0-0.1c0,0,0,0,0,0
			c0,0,0,0-0.1-0.1c0,0,0,0,0,0C4.8,6.5,4.7,6.3,4.6,6.2c0,0,0,0,0,0C4.4,5.4,4.5,4.5,5.4,3.9z"/>
		<path d="M4.3,7.2L2.9,7.4C3,7.5,3.1,7.6,3.1,7.8l0.7-0.2l0,0.5l1.5-0.4H4.3L4.3,7.2z"/>
		<path d="M6.7,1.5C6.1,1.5,5.4,1.7,5,1.8C4.7,1.8,4.5,1.9,4.3,2c0.3-0.2,0.6-0.3,1-0.3c0.3-0.1,0.7-0.1,1.1-0.2
			c-0.1,0-0.2,0-0.3,0c-2.6,0-4.6,2.1-4.6,4.6c0,2.6,2.1,4.6,4.6,4.6c0.7,0,1.3-0.1,1.9-0.4C8.1,10.2,8.3,10,8.4,10
			c0.5-0.3,0.6-0.5,0.9-0.8C9.6,8.9,9.9,8.5,10,8.3c0.5-0.9,0.7-1.6,0.7-2.4C10.6,3.7,8.9,1.8,6.7,1.5z M6,9.8c-2,0-3.7-1.7-3.7-3.7
			C2.3,4,4,2.4,6,2.4c2,0,3.7,1.7,3.7,3.7C9.7,8.1,8.1,9.8,6,9.8z"/>
	</g>
</svg>
