<?xml version="1.0" encoding="utf-8"?>
<!DOCTYPE svg PUBLIC "-//W3C//DTD SVG 1.1//EN" "http://www.w3.org/Graphics/SVG/1.1/DTD/svg11.dtd">
<svg id="Paypal" viewBox="0 0 12 12" xmlns="http://www.w3.org/2000/svg" xmlns:xlink="http://www.w3.org/1999/xlink">
    <defs><style>.a{fill:#fff;stroke:#d7d7d7;stroke-miterlimit:10;stroke-width:0.4px;}.b{fill:#009bde;}.c{fill:#002f87;}.d{fill:#022169;}</style></defs>
    <title>Paypal</title>
    <path class="a" d="M10.707,9.8H1.294a1,1,0,0,1-1-1V3.2a1,1,0,0,1,1-1h9.414a1,1,0,0,1,1,1V8.8A1,1,0,0,1,10.707,9.8Z"/>
    <path class="b" d="M8.648,5.373h-0.6a0.083,0.083,0,0,0-.082.07L7.726,6.977a0.049,0.049,0,0,0,.04.056H8.084a0.057,0.057,0,0,0,.057-0.049L8.207,6.55A0.084,0.084,0,0,1,8.29,6.479H8.48a0.614,0.614,0,0,0,.679-0.542l0-.026a0.464,0.464,0,0,0-.076-0.386A0.552,0.552,0,0,0,8.648,5.373Zm0.069,0.56a0.279,0.279,0,0,1-.356.214H8.271l0.063-.4a0.05,0.05,0,0,1,.05-0.042H8.426a0.344,0.344,0,0,1,.262.061A0.194,0.194,0,0,1,8.718,5.933Z"/>
    <path class="c" d="M4.383,5.373h-0.6a0.083,0.083,0,0,0-.082.07L3.461,6.977a0.05,0.05,0,0,0,.043.057H3.8a0.083,0.083,0,0,0,.082-0.075l0.065-.414a0.085,0.085,0,0,1,.083-0.07H4.216a0.614,0.614,0,0,0,.679-0.542l0-.026A0.464,0.464,0,0,0,4.82,5.521,0.558,0.558,0,0,0,4.383,5.373Zm0.069,0.56a0.279,0.279,0,0,1-.356.214H4.007l0.063-.4a0.05,0.05,0,0,1,.05-0.042H4.16a0.344,0.344,0,0,1,.262.061A0.2,0.2,0,0,1,4.452,5.933Z"/>
    <path class="c" d="M6.171,5.926H5.884a0.051,0.051,0,0,0-.05.042l-0.013.08L5.8,6.019A0.406,0.406,0,0,0,5.464,5.9a0.658,0.658,0,0,0-.639.576,0.543,0.543,0,0,0,.107.44,0.448,0.448,0,0,0,.361.145,0.55,0.55,0,0,0,.4-0.164l-0.013.08a0.05,0.05,0,0,0,.043.057H5.983a0.083,0.083,0,0,0,.082-0.074l0.155-.98a0.051,0.051,0,0,0-.049-0.053h0Zm-0.4.558a0.319,0.319,0,0,1-.323.275,0.24,0.24,0,0,1-.192-0.077,0.243,0.243,0,0,1-.048-0.2A0.32,0.32,0,0,1,5.528,6.2a0.243,0.243,0,0,1,.191.078,0.246,0.246,0,0,1,.052.2h0Z"/>
    <path class="b" d="M10.436,5.926H10.15a0.051,0.051,0,0,0-.05.042l-0.013.08-0.02-.029A0.407,0.407,0,0,0,9.728,5.9a0.658,0.658,0,0,0-.639.576,0.55,0.55,0,0,0,.107.44,0.448,0.448,0,0,0,.361.144,0.55,0.55,0,0,0,.4-0.164l-0.013.08a0.049,0.049,0,0,0,.04.056h0.268a0.083,0.083,0,0,0,.079-0.073l0.155-.98a0.051,0.051,0,0,0-.049-0.053h0Zm-0.4.558a0.319,0.319,0,0,1-.324.274A0.24,0.24,0,0,1,9.52,6.681a0.25,0.25,0,0,1-.045-0.2A0.321,0.321,0,0,1,9.8,6.2a0.243,0.243,0,0,1,.191.078,0.246,0.246,0,0,1,.049.2h0Z"/>
    <path class="c" d="M7.7,5.926H7.408a0.085,0.085,0,0,0-.068.033l-0.4.585L6.775,5.985a0.083,0.083,0,0,0-.08-0.058H6.408a0.05,0.05,0,0,0-.05.05l0,0.016L6.681,6.924l-0.3.42a0.05,0.05,0,0,0,.041.079H6.707a0.083,0.083,0,0,0,.068-0.036l0.96-1.382A0.049,0.049,0,0,0,7.7,5.926Z"/>
    <path class="b" d="M10.773,5.415L10.528,6.977a0.05,0.05,0,0,0,.043.057h0.254a0.083,0.083,0,0,0,.083-0.075l0.242-1.534a0.05,0.05,0,0,0-.043-0.057H10.822A0.05,0.05,0,0,0,10.773,5.415Z"/>
    <path class="b" d="M2.866,5.453a0.526,0.526,0,0,0-.111-0.472,0.82,0.82,0,0,0-.626-0.2H1.307a0.118,0.118,0,0,0-.116.1L0.85,7.046a0.07,0.07,0,0,0,.057.081H1.427l-0.035.221a0.061,0.061,0,0,0,.05.07H1.879a0.1,0.1,0,0,0,.1-0.087V7.312L2.06,6.8l0.005-.028a0.1,0.1,0,0,1,.1-0.087h0.07a0.753,0.753,0,0,0,.832-0.654,0.549,0.549,0,0,0-.086-0.491,0.376,0.376,0,0,0-.116-0.089h0"/>
    <path class="d" d="M2.866,5.453a0.526,0.526,0,0,0-.111-0.472,0.82,0.82,0,0,0-.626-0.2H1.307a0.118,0.118,0,0,0-.116.1L0.85,7.046a0.07,0.07,0,0,0,.057.081H1.427l0.128-.807V6.346a0.116,0.116,0,0,1,.116-0.1H1.907A0.86,0.86,0,0,0,2.858,5.5l0.007-.047"/>
    <path class="c" d="M1.692,5.459a0.1,0.1,0,0,1,.057-0.08,0.114,0.114,0,0,1,.045-0.01H2.436a1.279,1.279,0,0,1,.212.016L2.708,5.4,2.754,5.409,2.777,5.417a0.594,0.594,0,0,1,.089.038,0.526,0.526,0,0,0-.111-0.472,0.816,0.816,0,0,0-.626-0.2H1.307a0.118,0.118,0,0,0-.116.1L0.851,7.047a0.07,0.07,0,0,0,.057.081H1.427l0.128-.807Z"/>
</svg>