<?xml version="1.0" encoding="utf-8"?>
<!DOCTYPE svg PUBLIC "-//W3C//DTD SVG 1.1//EN" "http://www.w3.org/Graphics/SVG/1.1/DTD/svg11.dtd">
<svg id="PersonOutline" viewBox="0 0 12 12" xmlns="http://www.w3.org/2000/svg" xmlns:xlink="http://www.w3.org/1999/xlink">
    <g id="icon_user">
        <path d="M6.23,5.89a2.37,2.37,0,0,1-2.3-2.44A2.38,2.38,0,0,1,6.23,1a2.38,2.38,0,0,1,2.3,2.45A2.37,2.37,0,0,1,6.23,5.89Zm0-4.35A1.86,1.86,0,0,0,4.44,3.45a1.85,1.85,0,0,0,1.79,1.9A1.85,1.85,0,0,0,8,3.45,1.86,1.86,0,0,0,6.23,1.54Z"/>
        <path d="M10.35,11H1.65a.26.26,0,0,1-.25-.27v-.27A3.93,3.93,0,0,1,5.32,6.53H6.68a3.93,3.93,0,0,1,3.92,3.93v.27A.26.26,0,0,1,10.35,11Zm-8.44-.54h8.18A3.4,3.4,0,0,0,6.68,7.07H5.32A3.4,3.4,0,0,0,1.91,10.46Z"/>
    </g>
</svg>