<?xml version="1.0" encoding="utf-8"?>
<!DOCTYPE svg PUBLIC "-//W3C//DTD SVG 1.1//EN" "http://www.w3.org/Graphics/SVG/1.1/DTD/svg11.dtd">
<svg id="RadioChecked" viewBox="0 0 12 12" xmlns="http://www.w3.org/2000/svg" xmlns:xlink="http://www.w3.org/1999/xlink">
	<g>
		<path d="M3.538,7.491c0.182,0.281,0.416,0.5,0.669,0.689L3.995,9.174
			C3.509,8.892,3.078,8.5,2.753,7.998c-1.1-1.706-0.608-3.991,1.097-5.091c0.425-0.275,0.887-0.44,1.359-0.521V0.857L7.15,2.802
			L5.208,4.748V3.337C4.913,3.407,4.626,3.519,4.358,3.692C3.085,4.515,2.718,6.219,3.538,7.491z"/>
		<path d="M8.243,9.094C7.801,9.381,7.318,9.547,6.828,9.623v1.356
			L4.884,9.032l1.944-1.945v1.593c0.315-0.068,0.623-0.186,0.909-0.37C9.01,7.488,9.377,5.783,8.555,4.51
			C8.362,4.213,8.113,3.985,7.84,3.789l0.212-0.986c0.504,0.283,0.954,0.681,1.289,1.2C10.443,5.71,9.951,7.993,8.243,9.094z"/>
	</g>
</svg>
