<?xml version="1.0" encoding="utf-8"?>
<!DOCTYPE svg PUBLIC "-//W3C//DTD SVG 1.1//EN" "http://www.w3.org/Graphics/SVG/1.1/DTD/svg11.dtd">
<svg id="ScreenPaint" viewBox="0 0 12 12" xmlns="http://www.w3.org/2000/svg" xmlns:xlink="http://www.w3.org/1999/xlink">
	<g>
		<path d="M6.638,4.047l-0.55,0.514c0,0-2.406-0.011-3.823-0.011
			c-0.346,0-0.347,0.001-0.347,0.356c0,1.306,0,2.612,0.001,3.918c0,0.109,0.011,0.218,0.018,0.34c2.696,0,5.372,0,8.069,0
			c0.006-0.095,0.015-0.177,0.016-0.26c0.001-1.357-0.005-2.714,0.006-4.071c0.002-0.232-0.19-0.286-0.291-0.286
			c-0.101,0-0.138,0.004-0.138,0.004l0.429-0.506c0,0,0.518,0.17,0.519,0.521c0.003,0.742,0.001,1.485,0.001,2.228
			c0,0.768,0.001,1.536,0,2.305c-0.001,0.413-0.145,0.56-0.549,0.56c-2.68,0.001-5.36,0.001-8.041,0
			c-0.405,0-0.551-0.147-0.551-0.557c-0.001-1.494-0.001-2.988,0-4.481c0-0.422,0.15-0.572,0.569-0.572
			C3.715,4.047,6.638,4.047,6.638,4.047z"/>
		<path d="M7.752,10.429H6.796L6.663,9.857c0,0-1.307,0-1.361,0l-0.12,0.572
			H4.186l-0.08,0.279h3.739L7.752,10.429z"/>
		<path d="M4.492,6.68C3.431,6.766,3.753,7.358,3.363,7.746C2.978,8.132,2.506,8.336,2.506,8.336
			s1.973,0.686,2.776,0c0.731-0.624,0.149-0.773-0.17-1.19C4.795,6.73,4.613,6.671,4.492,6.68z"/>
		<path d="M7.428,6.176C7.663,5.961,7.9,5.735,8.139,5.5c1.939-1.907,2.754-3.315,2.42-3.657
			c-0.337-0.34-1.694,0.515-3.633,2.423C6.69,4.496,6.464,4.727,6.249,4.954c0.17,0.242,0.362,0.475,0.579,0.695
			C7.018,5.844,7.219,6.018,7.428,6.176z"/>
		<path d="M6.041,7.315c0.296-0.236,0.611-0.5,0.933-0.789c-0.202-0.158-0.4-0.331-0.586-0.52
			C6.176,5.788,5.985,5.561,5.814,5.324C5.519,5.642,5.25,5.95,5.008,6.243c0.156,0.211,0.328,0.416,0.519,0.61
			C5.691,7.02,5.863,7.174,6.041,7.315z"/>
	</g>
</svg>
