<?xml version="1.0" encoding="utf-8"?>
<!DOCTYPE svg PUBLIC "-//W3C//DTD SVG 1.1//EN" "http://www.w3.org/Graphics/SVG/1.1/DTD/svg11.dtd">
<svg id="Search" viewBox="0 0 12 12" xmlns="http://www.w3.org/2000/svg" xmlns:xlink="http://www.w3.org/1999/xlink">
	<g>
		<path d="M11.478,10.103L8.574,7.637c1.1-1.845,0.717-4.269-1.01-5.652c-1.049-0.84-2.4-1.152-3.715-0.854
			C2.887,1.347,2.016,1.891,1.401,2.663c-0.735,0.916-1.069,2.06-0.939,3.221c0.129,1.166,0.703,2.209,1.617,2.944
			c1.049,0.84,2.4,1.152,3.714,0.854C6.529,9.518,7.21,9.154,7.764,8.654l2.905,2.461c0.136,0.112,0.397,0.022,0.576-0.201
			l0.163-0.202C11.586,10.487,11.617,10.214,11.478,10.103z M7.157,7.277C6.729,7.813,6.152,8.174,5.488,8.324
			c-0.9,0.202-1.818-0.01-2.536-0.583C1.664,6.71,1.457,4.822,2.489,3.535C2.917,3.002,3.494,2.64,4.16,2.49
			C5.054,2.288,5.98,2.499,6.694,3.074C7.98,4.106,8.186,5.992,7.157,7.277z"/>
	</g>
</svg>
