<?xml version="1.0" encoding="utf-8"?>
<!DOCTYPE svg PUBLIC "-//W3C//DTD SVG 1.1//EN" "http://www.w3.org/Graphics/SVG/1.1/DTD/svg11.dtd">
<svg id="Trash" viewBox="0 0 12 12" xmlns="http://www.w3.org/2000/svg" xmlns:xlink="http://www.w3.org/1999/xlink">
	<g>
		<polygon points="8.2,2.2 7.5,1.6 5,1.6 4.4,2.2 3.2,2.2 3.2,2.7 9.3,2.7 9.3,2.2 		"/>
		<path d="M3.6,3.6V9c0,0.7,0.5,1.3,1.2,1.3h3c0.7,0,1.2-0.6,1.2-1.3V3.6H3.6z M5,8.5c0,0.1-0.2,0.2-0.3,0.2
		c-0.1,0-0.3-0.1-0.3-0.2V5.3c0-0.1,0.2-0.2,0.3-0.2C4.8,5.1,5,5.1,5,5.3V8.5z M6.5,8.5c0,0.1-0.2,0.2-0.3,0.2C6.1,8.7,6,8.6,6,8.5
		V5.3c0-0.1,0.2-0.2,0.3-0.2c0.1,0,0.3,0.1,0.3,0.2V8.5z M8.1,8.5c0,0.1-0.2,0.2-0.3,0.2c-0.1,0-0.3-0.1-0.3-0.2V5.3
		c0-0.1,0.2-0.2,0.3-0.2c0.1,0,0.3,0.1,0.3,0.2V8.5z"/>
	</g>
</svg>
