<?xml version="1.0" encoding="utf-8"?>
<!DOCTYPE svg PUBLIC "-//W3C//DTD SVG 1.1//EN" "http://www.w3.org/Graphics/SVG/1.1/DTD/svg11.dtd">
<svg id="Truck" viewBox="0 0 12 12" xmlns="http://www.w3.org/2000/svg" xmlns:xlink="http://www.w3.org/1999/xlink">
	<g>
		<path d="M2.819,7.488c-0.771,0-1.401,0.627-1.401,1.399s0.63,1.399,1.401,1.399c0.776,0,1.402-0.627,1.402-1.399
			C4.221,8.114,3.595,7.488,2.819,7.488z M2.825,9.786c-0.481,0-0.869-0.387-0.869-0.866c0-0.48,0.388-0.867,0.869-0.867
			c0.478,0,0.869,0.386,0.869,0.867C3.694,9.399,3.303,9.786,2.825,9.786z"/>
		<path d="M8.537,7.486c-0.235,0-0.456,0.06-0.652,0.163C7.701,7.746,7.54,7.883,7.417,8.046
			c-0.178,0.234-0.28,0.525-0.28,0.838c0,0.773,0.629,1.399,1.401,1.399c0.775,0,1.399-0.627,1.399-1.399c0-0.007,0-0.016,0-0.023
			C9.924,8.101,9.301,7.486,8.537,7.486z M9.401,8.92c0,0.478-0.388,0.866-0.866,0.866c-0.483,0-0.869-0.387-0.869-0.864
			c0-0.196,0.063-0.375,0.174-0.521c0.075-0.103,0.175-0.188,0.288-0.248c0.124-0.063,0.26-0.099,0.407-0.099
			c0.474,0,0.86,0.379,0.866,0.851C9.401,8.91,9.401,8.914,9.401,8.92z"/>
		<path d="M11.305,7.548l-0.113-1.074l-1.017-0.655L7.598,3.101C7.576,3.085,7.43,3.023,7.371,3.023H5.439V2.388
			c0-0.109-0.09-0.197-0.205-0.197H0.642c-0.116,0-0.209,0.088-0.209,0.197v4.789L0.257,7.182v1.629h0.801v-0.39
			c0.153-0.834,0.88-1.468,1.762-1.468c0.988,0,1.785,0.799,1.785,1.786h2.174c0-0.401,0.134-0.772,0.355-1.069
			c0.163-0.215,0.365-0.388,0.6-0.511c0.247-0.131,0.532-0.206,0.835-0.206c0.977,0,1.77,0.782,1.785,1.755v0.18h1.256v-1.34H11.305z
			 M6.154,5.402l0.001-1.633h1.338l1.372,1.635L6.154,5.402z"/>
	</g>
</svg>
