<?xml version="1.0" encoding="utf-8"?>
<!DOCTYPE svg PUBLIC "-//W3C//DTD SVG 1.1//EN" "http://www.w3.org/Graphics/SVG/1.1/DTD/svg11.dtd">
<svg id="Twitter" viewBox="0 0 12 12" xmlns="http://www.w3.org/2000/svg" xmlns:xlink="http://www.w3.org/1999/xlink">
	<g>
		<path fill="#37AAE1" d="M2,10.7c-0.4,0-0.8-0.3-0.8-0.8V2c0-0.4,0.3-0.8,0.8-0.8h8c0.4,0,0.8,0.3,0.8,0.8v8c0,0.4-0.3,0.8-0.8,0.8
			H2V10.7z"/>
		<path fill="#389ED4" d="M10,1.5c0.3,0,0.5,0.2,0.5,0.5v8c0,0.3-0.2,0.5-0.5,0.5H2c-0.3,0-0.5-0.2-0.5-0.5V2c0-0.3,0.2-0.5,0.5-0.5
			H10 M10,1H2C1.4,1,1,1.5,1,2v8c0,0.6,0.5,1,1,1h8c0.6,0,1-0.4,1-1V2C11,1.5,10.5,1,10,1L10,1z"/>
		<path fill="#FFFFFF" d="M9.4,4C9.2,4.1,8.9,4.2,8.6,4.2C8.9,4,9.1,3.7,9.2,3.4C9,3.6,8.7,3.7,8.3,3.8C8,3.5,7.7,3.3,7.3,3.3
			C6.5,3.3,5.9,4,5.9,4.8c0,0.1,0,0.2,0,0.3C4.7,5,3.7,4.5,3,3.6C2.8,3.8,2.8,4.1,2.8,4.3c0,0.5,0.3,0.9,0.6,1.2
			C3.2,5.5,3,5.4,2.8,5.3l0,0c0,0.7,0.5,1.3,1.1,1.4c-0.1,0-0.2,0-0.4,0c-0.1,0-0.2,0-0.3,0c0.2,0.6,0.7,1,1.3,1
			c-0.4,0.5-1,0.7-1.7,0.7c-0.1,0-0.2,0-0.3,0C3.1,8.8,3.9,9,4.7,9c2.6,0,4.1-2.2,4.1-4.1c0-0.1,0-0.1,0-0.2C9,4.6,9.3,4.3,9.4,4z"/>
	</g>
</svg>
