<?xml version="1.0" encoding="utf-8"?>
<!DOCTYPE svg PUBLIC "-//W3C//DTD SVG 1.1//EN" "http://www.w3.org/Graphics/SVG/1.1/DTD/svg11.dtd">
<svg id="WhatsAp" viewBox="0 0 12 12" xmlns="http://www.w3.org/2000/svg" xmlns:xlink="http://www.w3.org/1999/xlink">
    <path d="M6.131,1.15A4.7,4.7,0,0,0,1.408,5.833h0a4.635,4.635,0,0,0,.678,2.418l-.853,2.514,2.614-.83a4.732,4.732,0,0,0,7-4.1A4.7,4.7,0,0,0,6.131,1.15Zm0,8.623a3.967,3.967,0,0,1-2.184-.652l-1.525.485.495-1.462a3.9,3.9,0,0,1-.756-2.309,3.969,3.969,0,1,1,4,3.938ZM8.515,6.916a.957.957,0,0,1-.068.546,1.17,1.17,0,0,1-.781.545c-.212.02-.212.172-1.389-.287A4.732,4.732,0,0,1,4.3,5.985,2.221,2.221,0,0,1,3.827,4.8a1.284,1.284,0,0,1,.4-.958A.427.427,0,0,1,4.54,3.7c.077,0,.154.01.221.01s.164-.038.261.191.328.795.357.853a.209.209,0,0,1,.01.2.769.769,0,0,1-.116.192c-.058.067-.121.15-.173.2a.17.17,0,0,0-.051.234,3.463,3.463,0,0,0,.644.8,3.168,3.168,0,0,0,.93.568c.116.057.183.048.251-.029s.289-.335.367-.446.154-.1.261-.057.675.316.791.373.192.084.221.132Z"/>
</svg>