<?xml version="1.0" encoding="utf-8"?>
<!DOCTYPE svg PUBLIC "-//W3C//DTD SVG 1.1//EN" "http://www.w3.org/Graphics/SVG/1.1/DTD/svg11.dtd">
<svg id="ZoomIn" viewBox="0 0 12 12" xmlns="http://www.w3.org/2000/svg" xmlns:xlink="http://www.w3.org/1999/xlink">
	<g>
		<path d="M11.646,10.201L8.689,7.69c1.12-1.879,0.73-4.347-1.028-5.755C6.594,1.079,5.218,0.762,3.879,1.066
			c-0.98,0.22-1.867,0.774-2.493,1.56C0.639,3.559,0.299,4.723,0.431,5.905c0.131,1.187,0.715,2.249,1.646,2.997
			c1.067,0.856,2.443,1.173,3.782,0.87c0.749-0.167,1.442-0.537,2.006-1.047l2.957,2.506c0.139,0.115,0.404,0.023,0.587-0.205
			l0.166-0.206C11.756,10.591,11.787,10.314,11.646,10.201z M7.247,7.324C6.811,7.869,6.224,8.236,5.548,8.39
			c-0.917,0.205-1.851-0.01-2.582-0.593c-1.311-1.05-1.522-2.972-0.471-4.282C2.93,2.971,3.517,2.603,4.195,2.45
			c0.911-0.206,1.854,0.009,2.58,0.594C8.085,4.095,8.294,6.015,7.247,7.324z"/>
		<polygon points="3.134,5.531 6.543,5.531 6.543,5.531"/>
		<rect x="3.134" y="5.224" width="3.409" height="0.614"/>
		<rect x="4.839" y="3.829" width="0" height="3.407"/>
		<rect x="4.531" y="3.829" width="0.617" height="3.407"/>
	</g>
</svg>
