<?xml version="1.0" encoding="UTF-8" standalone="no"?>
<svg
   xmlns:dc="http://purl.org/dc/elements/1.1/"
   xmlns:cc="http://creativecommons.org/ns#"
   xmlns:rdf="http://www.w3.org/1999/02/22-rdf-syntax-ns#"
   xmlns:svg="http://www.w3.org/2000/svg"
   xmlns="http://www.w3.org/2000/svg"
   xmlns:sodipodi="http://sodipodi.sourceforge.net/DTD/sodipodi-0.dtd"
   xmlns:inkscape="http://www.inkscape.org/namespaces/inkscape"
   width="12"
   height="12"
   viewBox="0 0 12 12"
   version="1.1"
   id="svg3813"
   sodipodi:docname="icon-kiyoh-50.svg"
   inkscape:version="0.92.3 (unknown)">
  <metadata
     id="metadata3819">
    <rdf:RDF>
      <cc:Work
         rdf:about="">
        <dc:format>image/svg+xml</dc:format>
        <dc:type
           rdf:resource="http://purl.org/dc/dcmitype/StillImage" />
      </cc:Work>
    </rdf:RDF>
  </metadata>
  <defs
     id="defs3817" />
  <sodipodi:namedview
     pagecolor="#ffffff"
     bordercolor="#666666"
     borderopacity="1"
     objecttolerance="10"
     gridtolerance="10"
     guidetolerance="10"
     inkscape:pageopacity="0"
     inkscape:pageshadow="2"
     inkscape:window-width="1855"
     inkscape:window-height="1056"
     id="namedview3815"
     showgrid="false"
     inkscape:zoom="64"
     inkscape:cx="3.3055264"
     inkscape:cy="5.9489484"
     inkscape:window-x="65"
     inkscape:window-y="24"
     inkscape:window-maximized="1"
     inkscape:current-layer="svg3813" />
  <title
     id="title3807">KiyohStar</title>
  <path
     d="M 10.688,5 7.4,4.522 5.933,1.544 4.465,4.522 1.178,5 3.557,7.318 3,10.588 5.933,9.046 c 0.9782935,0.5153238 1.9578874,1.028222 2.937,1.542 L 8.311,7.318 Z"
     style="fill:#f1f1f1"
     id="path3809"
     inkscape:connector-curvature="0"
     sodipodi:nodetypes="ccccccccccc" />
  <path
     d="M11.332,4.792,7.6,4.248,5.933.866,4.266,4.248.534,4.793l2.7,2.631L2.6,11.137,5.933,9.385l3.336,1.752L8.633,7.424ZM6,9.082l-.07-.036L3,10.588l.561-3.27L1.178,5l3.287-.479L5.933,1.544,7.4,4.522,10.688,5,8.311,7.318l.56,3.27Z"
     style="fill:#d7d8d8"
     id="path3811" />
  <path
     inkscape:connector-curvature="0"
     d="m 5.929,1.5439997 -1.468,2.978 L 1.174,5 3.553,7.318 2.996,10.588 5.929,9.046 H 5.926 c 0.007,-7.502 0,0 0.003,-7.5020003 z"
     style="fill:#fddb08"
     id="path3851"
     sodipodi:nodetypes="cccccccc" />
  <path
     inkscape:connector-curvature="0"
     d="m 5.929,0.8659997 -1.667,3.382 -3.732,0.545 L 3.23,7.424 2.596,11.137 5.929,9.385 C 5.926,9.046 5.933,1.544 5.929,0.8659997 Z M 5.93,9.046 H 5.926 L 2.996,10.588 3.557,7.318 1.174,5 4.461,4.5209997 l 1.468,-2.977 c 0,-0.678 0,7.8410003 10e-4,7.5020003 z"
     style="fill:#e5bf05"
     id="path3853"
     sodipodi:nodetypes="ccccccccccccccc" />
</svg>
