<svg xmlns="http://www.w3.org/2000/svg" width="12" height="12" viewBox="0 0 12 12">
    <circle cx="5.5" cy="5.7" r="1.3" opacity="0.7"/>
    <path opacity="0.7" d="M5.997,1.357c-2.619,0-4.743,2.123-4.743,4.742c0,2.619,2.124,4.742,4.743,4.742
    	c2.618,0,4.742-2.123,4.742-4.742C10.739,3.48,8.614,1.357,5.997,1.357z M8.368,7.992L8.296,8.081
    	C8.218,8.179,8.103,8.219,8.044,8.169L6.77,7.09C6.527,7.31,6.228,7.469,5.906,7.541C5.329,7.671,4.737,7.535,4.277,7.166
    	c-0.401-0.322-0.652-0.78-0.709-1.291C3.511,5.367,3.658,4.865,3.98,4.463c0.27-0.338,0.651-0.577,1.073-0.672
    	C5.63,3.661,6.222,3.797,6.682,4.166c0.757,0.606,0.925,1.669,0.443,2.478l1.273,1.082C8.459,7.774,8.445,7.894,8.368,7.992z"/>
</svg>
