<?xml version="1.0" encoding="UTF-8" standalone="no"?>
<svg
   xmlns:dc="http://purl.org/dc/elements/1.1/"
   xmlns:cc="http://creativecommons.org/ns#"
   xmlns:rdf="http://www.w3.org/1999/02/22-rdf-syntax-ns#"
   xmlns:svg="http://www.w3.org/2000/svg"
   xmlns="http://www.w3.org/2000/svg"
   xmlns:sodipodi="http://sodipodi.sourceforge.net/DTD/sodipodi-0.dtd"
   xmlns:inkscape="http://www.inkscape.org/namespaces/inkscape"
   width="12"
   height="12"
   viewBox="0 0 12 12"
   version="1.1"
   id="svg3827"
   sodipodi:docname="icon-kiyoh-75.svg"
   inkscape:version="0.92.3 (unknown)">
  <metadata
     id="metadata3833">
    <rdf:RDF>
      <cc:Work
         rdf:about="">
        <dc:format>image/svg+xml</dc:format>
        <dc:type
           rdf:resource="http://purl.org/dc/dcmitype/StillImage" />
      </cc:Work>
    </rdf:RDF>
  </metadata>
  <defs
     id="defs3831" />
  <sodipodi:namedview
     pagecolor="#ffffff"
     bordercolor="#666666"
     borderopacity="1"
     objecttolerance="10"
     gridtolerance="10"
     guidetolerance="10"
     inkscape:pageopacity="0"
     inkscape:pageshadow="2"
     inkscape:window-width="1855"
     inkscape:window-height="1056"
     id="namedview3829"
     showgrid="false"
     inkscape:zoom="64"
     inkscape:cx="-0.38440405"
     inkscape:cy="3.4054859"
     inkscape:window-x="65"
     inkscape:window-y="24"
     inkscape:window-maximized="1"
     inkscape:current-layer="svg3827" />
  <title
     id="title3821">KiyohStar</title>
  <path
     d="M10.688,5,7.4,4.522,5.933,1.544,4.465,4.522,1.178,5,3.557,7.318,3,10.588,5.933,9.046,6,9.082,8.87,10.588l-.559-3.27Z"
     style="fill:#f1f1f1"
     id="path3823" />
  <path
     d="M11.332,4.792,7.6,4.248,5.933.866,4.266,4.248.534,4.793l2.7,2.631L2.6,11.137,5.933,9.385l3.336,1.752L8.633,7.424ZM6,9.082l-.07-.036L3,10.588l.561-3.27L1.178,5l3.287-.479L5.933,1.544,7.4,4.522,10.688,5,8.311,7.318l.56,3.27Z"
     style="fill:#d7d8d8"
     id="path3825" />
  <path
     inkscape:connector-curvature="0"
     d="M 8.3119407,4.6507547 7.4,4.522 5.933,1.544 4.465,4.522 1.178,5 3.557,7.318 3,10.588 5.933,9.046 6,9.082 8.3075,10.330187 8.311,7.318 Z"
     style="fill:#fddb08"
     id="path3851"
     sodipodi:nodetypes="cccccccccccc" />
  <path
     inkscape:connector-curvature="0"
     d="M 8.3070937,4.34925 7.6,4.248 5.933,0.866 4.266,4.248 0.534,4.793 3.234,7.424 2.6,11.137 5.933,9.385 8.3236875,10.644812 8.3087812,7.408375 Z M 6,9.082 5.93,9.046 3,10.588 3.561,7.318 1.178,5 4.465,4.521 5.933,1.544 7.4,4.522 8.3119407,4.6507547 8.3087812,7.408375 8.3085,10.291125 Z"
     style="fill:#e5bf05"
     id="path3853"
     sodipodi:nodetypes="ccccccccccccccccccccccc" />
</svg>
