<svg xmlns="http://www.w3.org/2000/svg" width="12" height="12" viewBox="0 0 12 12"><title>KiyohStar--Yellow</title><path d="M10.688,5,7.4,4.522,5.933,1.544,4.465,4.522,1.178,5,3.557,7.318,3,10.588,5.933,9.046,6,9.082,8.87,10.588l-.559-3.27Z" style="fill:#fddb08"/><path d="M11.332,4.792,7.6,4.248,5.933.866,4.266,4.248.534,4.793l2.7,2.631L2.6,11.137,5.933,9.385l3.336,1.752L8.633,7.424ZM6,9.082l-.07-.036L3,10.588l.561-3.27L1.178,5l3.287-.479L5.933,1.544,7.4,4.522,10.688,5,8.311,7.318l.56,3.27Z" style="fill:#e5bf05"/></svg>