<svg xmlns="http://www.w3.org/2000/svg" width="196.467" height="40.555" viewBox="0 0 196.467 40.555"><defs><style>.a{fill:#e74e0f;}.b{fill:#ffec00;}.c{fill:#e5007e;}.d{fill:#292929;}.e{fill:#0ae;}.f{fill:#fff;}</style></defs><title>pd-beta-logo-FR</title><path class="a" d="M15.757,27.269h0l-0.127-.022C15.674,27.253,15.717,27.263,15.757,27.269Z" transform="translate(-0.475 -0.448)"/><path class="a" d="M12.8,21.4a0.422,0.422,0,0,1,.124-0.111c1.077-.662,1.186-1.048,1.071-1.672-0.062-.226-0.109-0.451-0.149-0.669-0.02-.1-0.043-0.2-0.062-0.305H13.8c-0.336-2.634.447-4.781,1.549-5.356,1.019-.538,2.262-0.447,3.912.166-0.789-.709-2.506-1.042-4.442-0.961a9.131,9.131,0,0,0-.848,1.357,7.5,7.5,0,0,0-.823,3.157A7.227,7.227,0,0,0,13.379,19a9.624,9.624,0,0,0,.308.943c0.025,0.062.072,0.111,0.01,0.149l-0.231.138c-1.829,1.1-3.648,2.221-5.451,3.371-0.326.207-.652,0.417-0.981,0.624-0.122.079-.245,0.156-0.368,0.232a0.445,0.445,0,0,0-.137.372c-0.045.32-.08,0.639-0.1,0.961a13.574,13.574,0,0,0,.3,3.942,12.07,12.07,0,0,0,1.388,3.533,9.875,9.875,0,0,0,1.13,1.54c0.394,0.437.774,0.667,0.475,0.435l0.19,0.125c-0.132-.141-0.264-0.283-0.388-0.435-2.077-2.549-3.271-7.684-1.505-10.5C8.6,23.485,10.294,22.8,12.8,21.4Z" transform="translate(-0.475 -0.448)"/><path class="a" d="M15.621,27.225a0.091,0.091,0,0,1,.011.02l0-.02h-0.01Z" transform="translate(-0.475 -0.448)"/><path class="a" d="M35.959,19.173V19.131l-0.035-.3A17.512,17.512,0,0,0,29.41,7.2C29.274,7.091,29.135,6.978,29,6.873a17.164,17.164,0,0,1,2.171,2.095,16.937,16.937,0,0,1,3.721,7.288,16.741,16.741,0,0,1-.342,8.575,28.407,28.407,0,0,1-1.6,4.045,23.033,23.033,0,0,1-2.125,3.885,20.154,20.154,0,0,1-3,3.193c-0.545.477-1.114,0.92-1.693,1.346a5.82,5.82,0,0,1-1.845,1.007,18.967,18.967,0,0,0,4.595-3.96l1.283-1.889s0.452-.767.655-1.146l0.313-.6a18.787,18.787,0,0,0,1.83-11.982c0.017,0.111.037,0.221,0.051,0.332A17.324,17.324,0,0,1,31.841,27.7a19.039,19.039,0,0,1-3.006,5.078A17.413,17.413,0,0,1,26.8,34.857a18.108,18.108,0,0,1-2.672,1.668A17.775,17.775,0,0,0,32.8,23.074a14.675,14.675,0,0,0-3.456-11.513,0.468,0.468,0,0,0,.153.06,0.363,0.363,0,0,0-.1-0.222,10.365,10.365,0,0,1,2.679,3.723C30.023,9,24.455,3.275,17.068,3.9c0,0,1.588-.128,2.834-0.151,8.814,0.8,12.761,10.4,13.383,12.933a16.214,16.214,0,0,1,.215,7.726,30.9,30.9,0,0,1-2.3,6.3l-0.387.773L30.8,31.5a26.411,26.411,0,0,1-1.683,2.552l0.158-.241c-0.067.1-.128,0.2-0.2,0.287l0.04-.047c-0.027.04-.056,0.079-0.086,0.115A14.6,14.6,0,0,0,30,32.917l-0.01.013L30,32.911v0.006c0.4-.575.68-1.207,1.03-1.81,0.372-.645.72-1.3,1.045-1.968A24.881,24.881,0,0,0,33.535,25.4a19.838,19.838,0,0,0,.831-6.649,17.967,17.967,0,0,0-3.292-9.432,14.159,14.159,0,0,0-2.2-2.475,5.655,5.655,0,0,0-.809-0.611A19.678,19.678,0,0,0,24.92,4.8a19.841,19.841,0,0,0-2.869-.854c-0.368-.077-0.743-0.118-1.1-0.228a6.069,6.069,0,0,0-1.891-.153,23.472,23.472,0,0,0-4.252.571,15.879,15.879,0,0,0-3.955,1.309C11.6,5.065,12.322,4.629,13.092,4.3a13.207,13.207,0,0,1,2.158-.684,23.724,23.724,0,0,1,4.811-.571c-0.4.012,0.016,0,0,0a6.918,6.918,0,0,1,1.2-.015h0.024a15.8,15.8,0,0,0-8.653.513A17.864,17.864,0,0,0,5.81,7.954a20.444,20.444,0,0,0-4.426,6.938A13.32,13.32,0,0,0,.52,18.229a0.967,0.967,0,0,0,.115.823c0.27,0.253.594-.174,0.718-0.382,0.031-.051.058-0.105,0.086-0.16A19.374,19.374,0,0,1,7.647,8.343c-0.048.066-.1,0.13-0.141,0.2,0.067-.06.132-0.123,0.2-0.182a35.931,35.931,0,0,0-3.432,5.629H4.257v0.036q0.332-.515.7-1.007c0.048-.066.1-0.13,0.157-0.2h0A15.066,15.066,0,0,1,7.574,10.3,15.4,15.4,0,0,1,8.788,9.278a15.091,15.091,0,0,1,1.306-.886,14.1,14.1,0,0,1,1.7-.878,0.88,0.88,0,0,0,.1-0.042c-0.235.126-.469,0.259-0.7,0.4a14.291,14.291,0,0,0-1.306.886A15.653,15.653,0,0,0,8.677,9.775a17.388,17.388,0,0,0-5.4,8.105,0.019,0.019,0,0,1-.013,0v0.006a0.131,0.131,0,0,0,.1.126,0.756,0.756,0,0,0,.408-0.246A4.855,4.855,0,0,0,4.8,16.521c0.213-.577.432-1.15,0.678-1.711A10.218,10.218,0,0,1,6.8,12.486a12.217,12.217,0,0,1,1.874-1.813,27.209,27.209,0,0,1,2.994-2.291,10.532,10.532,0,0,1,4.11-1.357,13.194,13.194,0,0,1,8.259,1.786,17.679,17.679,0,0,1,1.77,1.15h0.021a17.459,17.459,0,0,0-3.059-1.988,12.881,12.881,0,0,0-6.34-1.506,12.712,12.712,0,0,0-4.53,1,12.561,12.561,0,0,1,11.958-.006,16.111,16.111,0,0,1,5.227,4.14,13.852,13.852,0,0,1,2.808,5.94,16.386,16.386,0,0,1-.056,6.7,18.7,18.7,0,0,1-2.315,5.831c-0.19.36-.392,0.716-0.609,1.062-0.121.2-.244,0.39-0.374,0.585q-0.475.707-1.006,1.359a20.967,20.967,0,0,1-4.626,3.944c-0.077.036-.154,0.064-0.231,0.1a13.971,13.971,0,0,1-3.822.983,0.247,0.247,0,0,1-.239.032,1.884,1.884,0,0,0-.623.1c-0.319.053-.639,0.1-0.961,0.13-0.008-.126.04-0.263-0.1-0.255-0.258.013-.515,0.019-0.773,0.017a12.518,12.518,0,0,1-1.547-.111,14.357,14.357,0,0,1-3.128-.793A13.064,13.064,0,0,1,9.3,36.177a1.3,1.3,0,0,1-.129-0.093,8.187,8.187,0,0,0,1.54,1.44,9.929,9.929,0,0,0,6.333,1.484c0.416-.017.6-0.024,0.639-0.022a27.15,27.15,0,0,0,6.591-.71,2.431,2.431,0,0,1-1.023.6,20.617,20.617,0,0,1-4.1.944,31.751,31.751,0,0,1-4.4-.059,16.872,16.872,0,0,1-2.075-.319,17.407,17.407,0,0,1-2.049-.764,5.584,5.584,0,0,1-1.68-1.163,15.447,15.447,0,0,1-1.37-1.485c0.014,0.017.034,0.032,0.049,0.047-0.163-.19-0.325-0.378-0.47-0.55a10.859,10.859,0,0,1-1.763-2.959,15.1,15.1,0,0,1-.839-7.309,13.7,13.7,0,0,0,.115,2.021V27.154a8.171,8.171,0,0,1,.257-2.277A4.351,4.351,0,0,1,5.6,23.283a4.6,4.6,0,0,1,1.245-.976c0.482-.3.963-0.611,1.441-0.92A4.54,4.54,0,0,0,9.4,20.445a2.913,2.913,0,0,0,.37-0.619A2.537,2.537,0,0,0,9.908,19.4a2.333,2.333,0,0,1,.058-0.279h0a0.4,0.4,0,0,1,.008-0.042,29.541,29.541,0,0,0-4.5,2.494,10.638,10.638,0,0,0-1,.786,2.15,2.15,0,0,0-.484,1.048,15.093,15.093,0,0,0-.531,2.813,0.88,0.88,0,0,0-.99-0.76,1.332,1.332,0,0,0-.585,1.1A5.1,5.1,0,0,0,2.11,28.6a7.3,7.3,0,0,0,.92,1.96c-0.979,0-.393,1.218-0.134,1.689a9.688,9.688,0,0,0,.941,1.423c0.46,0.577.917,1.165,1.394,1.735a11.573,11.573,0,0,0,3.346,2.427q0.935,0.529,1.875,1.056a9.167,9.167,0,0,0,1.889.854,16.672,16.672,0,0,0,3.974.479c0.665,0.024,1.33.051,2,.07,0.338,0.01.679,0.02,1.02,0.034,0.182,0.008.367,0.016,0.549,0.032a0.465,0.465,0,0,1,.238.049,4.844,4.844,0,0,1-.63.132c-0.3.042-.6,0.071-0.9,0.1a16.838,16.838,0,0,1-1.824.042,39.052,39.052,0,0,1-5.478-.865c-1.17-.3,5.874,2.319,11.339.607a19.1,19.1,0,0,0,10.662-9.19A21.241,21.241,0,0,0,35.959,19.173Z" transform="translate(-0.475 -0.448)"/><path class="a" d="M13.957,33.136a15.353,15.353,0,0,1-1.487-2.4,5.771,5.771,0,0,1-.562-2.281,2.081,2.081,0,0,1,2.155-1.907,4.854,4.854,0,0,1,.6-0.01h0.053c0.161,0.01.106,0.182,0.3,0.208,0.7,0.083.475,0.439,0.485,0.439l0.119,0.028a0.08,0.08,0,0,0,.007.022c0.048,0.017.1,0.028,0.13,0.042a0.518,0.518,0,0,0,.055.01l0.25,0.041A4.566,4.566,0,0,1,16.7,23.8a0.865,0.865,0,0,1,1.217-.262,0.881,0.881,0,0,1,.087.067,0.7,0.7,0,0,1,.3.358,6.58,6.58,0,0,0-.078,1.144,4.191,4.191,0,0,0,.576,2.188,4.663,4.663,0,0,1,.6,2.313h0L19.4,29.59c0.031-.059.115-0.322,0.15-0.424,0.01-.019.016-0.04,0.027-0.06a0.148,0.148,0,0,1,.013-0.024,1.5,1.5,0,0,1,.145-0.237,1.051,1.051,0,0,1,.836-0.366c0.147-.019.292-0.042,0.438-0.06a0.723,0.723,0,0,0,.1-0.015l0.254-.04c0.3-.047.6-0.093,0.906-0.143a0.616,0.616,0,0,0,.084-0.012c1.578-.257,3.155-0.507,4.719-0.841,0.241-.053.482-0.1,0.721-0.154a0.113,0.113,0,0,1,.026-0.006c0,0.091.021,0.368,0.012,0.573a0.66,0.66,0,0,0-.012.123v0.006a0.2,0.2,0,0,1-.035.087l-0.029.017c-2,.372-1.9.01-6.511,0.714,0.015,0.053.037,0.149,0.061,0.253H21.3c0.018,0.062.036,0.125,0.052,0.186,0.019,0.081.035,0.153,0.046,0.2h0l4.769-.914-0.19,1.161s-4.154,2.055-4.143,2.181a1.061,1.061,0,0,0,1.242,0c0.435-.2.985-0.407,1.409-0.635,1.058-.56,1.654-0.9,2.669-1.542a2.57,2.57,0,0,0,1.158-1.1,2.3,2.3,0,0,0,.19-0.835c0.03-.878.173-1.756,0.276-2.634a9.814,9.814,0,0,0,.03-2.879,2.228,2.228,0,0,0-.861-1.448,11.89,11.89,0,0,0-2.9-1.11,5.456,5.456,0,0,1-1.495-.76,1.311,1.311,0,0,1-.541-0.7,5.854,5.854,0,0,1-.088-0.645c-0.11-1.225-.022-2.458-0.135-3.681-0.089-.984-0.321-2.352-1.31-2.822l-0.013-.006-0.04-.015c1.22,1.412.656,4.715,0.983,6.6-1.361-2.383-.15-5.637-2.253-6.615a12.575,12.575,0,0,0-3.421-.348H16.709c-0.077,0-.153-0.006-0.231-0.006H16.457c-1.312-.028-2.6.022-3.157,0.038v0.014a2.269,2.269,0,0,0-.619.348,5.737,5.737,0,0,0-1.425,1.4,5.474,5.474,0,0,0-.8,1.929,7.215,7.215,0,0,0-.163,1.014,0.854,0.854,0,0,0,.01.209,9.917,9.917,0,0,1,.8,2.447,3.569,3.569,0,0,1-.7,2.167,7.821,7.821,0,0,1-2.48,1.96c-0.31.172-.641,0.3-0.937,0.5a1.861,1.861,0,0,0-.665.823c-0.392.862-.448,1.337-0.333,1.268,0.182-.117.362-0.234,0.543-0.345q0.411-.265.823-0.524c0.788-.506,1.588-1,2.384-1.5q0.821-.5,1.645-1l0.993-.6c0.078-.045.156-0.093,0.231-0.138s0.014-.085-0.01-0.149a7.486,7.486,0,0,1-.481-3.68,7.835,7.835,0,0,1,.967-2.818,9.142,9.142,0,0,1,.594-0.926c0.083-.115.168-0.228,0.256-0.338,0.04-.051.08-0.1,0.118-0.153,0.086,0,.175-0.016.262-0.02,0.161-.01.32-0.019,0.482-0.026H14.723c0.1-.13.19-0.239,0.258-0.336,0.046-.055.086-0.105,0.119-0.147a8.861,8.861,0,0,1,5.4,1.08,20.69,20.69,0,0,1,.548,3.733L20.9,19.1l-0.05.224L21.066,19.4a7.436,7.436,0,0,1,.95.422c0.072,0.04.143,0.079,0.214,0.121,0.037,0.019.074,0.041,0.109,0.06l0.167,0.1,0.111,0.068,0.17,0.109,0.1,0.062,0.251,0.166a13.048,13.048,0,0,0,3.054,1.576c0.1,0.059.19,0.121,0.285,0.188,0.352,0.354-.184,2.914-0.27,3.519a3.64,3.64,0,0,1-.95.724H25.241c0.012-.089.024-0.2,0.037-0.293V26.24c-0.629.18-1.255,0.374-1.89,0.538-0.452.115-.908,0.221-1.366,0.305a4.465,4.465,0,0,1-.786.111,1.791,1.791,0,0,1-.9-1.676,5.664,5.664,0,0,0,.1-1.233,1.857,1.857,0,0,0-.205-0.6,11.271,11.271,0,0,1,0,2.554c-0.209.728-.167-0.041-0.737,0.724a8.671,8.671,0,0,1-.206-3.291,3.358,3.358,0,0,1,.57-0.528,0.891,0.891,0,0,0-.182-0.467s0.063,0.026-.046-0.053a3.449,3.449,0,0,0-2.559-.705A3.575,3.575,0,0,0,15.027,23.9a4.16,4.16,0,0,0-.269.767c-0.015.073-.142,0.871-0.121,0.871-0.229.006-.458,0.02-0.686,0.04-0.752.06-2.45,0.1-3.1,0.86a2.343,2.343,0,0,0-.464,1.478,1.052,1.052,0,0,0,.2.562,1.575,1.575,0,0,1,.205.937,1.247,1.247,0,0,0,.208.817c0.163,0.222-.012.413,0.144,0.639a0.03,0.03,0,0,1,.007.014,0.714,0.714,0,0,1,.141.317,2.4,2.4,0,0,0,.118,1.293,3.2,3.2,0,0,0,1.118.736,2.67,2.67,0,0,0,2.433,1.284,1.37,1.37,0,0,1,.163.119l0.019,0.017,0.052,0.047,0.1,0.006c0.1,0.01.2,0.012,0.3,0.012h0.054a2.019,2.019,0,0,0,.218-0.008,8.033,8.033,0,0,0,1.671-.32,0.436,0.436,0,0,0,.056-0.017h0.006l0.1-.026A8.1,8.1,0,0,0,18.74,33.02,0.033,0.033,0,0,1,18.75,33a0.446,0.446,0,0,0,.036-0.081l-0.074.02c-0.695.174-1.622,0.415-2.315,0.546a4.282,4.282,0,0,1-1.184.136,6.237,6.237,0,0,1-1.255-.494M26.5,21.519a0.747,0.747,0,0,1,.11.424,12.811,12.811,0,0,1-3.445-1.706c0.839,0.561,1.986.353,3.332,1.289Zm-15.428-.994,0.277-.186c0.1-.068.225-0.1,0.19-0.23q-0.125-.557-0.2-1.118a11.664,11.664,0,0,1-.1-1.919,9.472,9.472,0,0,1,.522-2.858,6.025,6.025,0,0,1,.6-1.258,1.423,1.423,0,0,1,.2-0.253,0.409,0.409,0,0,1,.269-0.042,2.682,2.682,0,0,1,.7.111,9.973,9.973,0,0,0-1.348,7.74c-1.642.961-3.338,1.834-5.037,2.692C8.452,22.3,9.76,21.407,11.074,20.525Z" transform="translate(-0.475 -0.448)"/><polygon class="a" points="18.773 37.462 18.763 37.468 18.761 37.468 18.773 37.462"/><path class="b" d="M34.887,16.255a17.03,17.03,0,0,0-5.892-9.381c0.14,0.1.278,0.217,0.418,0.326a20.582,20.582,0,0,0-4.266-2.787,17.473,17.473,0,0,0-2.484-1c-0.429-.134-0.855-0.254-1.293-0.352a5.349,5.349,0,0,0-1.311-.006,23.608,23.608,0,0,0-4.808.566,13.589,13.589,0,0,0-2.158.683c-0.771.326-1.492,0.764-2.238,1.141A15.79,15.79,0,0,1,14.8,4.136a23.811,23.811,0,0,1,4.247-.568,6.014,6.014,0,0,1,1.891.153c0.36,0.107.736,0.151,1.1,0.23a20.018,20.018,0,0,1,2.869.854,19.526,19.526,0,0,1,3.147,1.43,5.5,5.5,0,0,1,.809.609,14.223,14.223,0,0,1,2.192,2.473,17.976,17.976,0,0,1,3.288,9.431,19.832,19.832,0,0,1-.831,6.649,24.878,24.878,0,0,1-1.45,3.744c-0.322.669-.67,1.323-1.045,1.968-0.35.6-.633,1.236-1.03,1.81a9.493,9.493,0,0,1-.938,1.208,19.09,19.09,0,0,1-4.783,4.182A5.9,5.9,0,0,0,26.122,37.3c0.58-.428,1.149-0.871,1.693-1.348a20.023,20.023,0,0,0,3-3.191,23.062,23.062,0,0,0,2.125-3.887,28.387,28.387,0,0,0,1.6-4.042A16.747,16.747,0,0,0,34.887,16.255Z" transform="translate(-0.475 -0.448)"/><path class="b" d="M21.307,28.967h0.01c-0.026-.105-0.047-0.2-0.061-0.253,4.613-.705,4.514-0.343,6.512-0.714l0.029-.017a0.213,0.213,0,0,0,.036-0.087V27.89a0.638,0.638,0,0,1,.012-0.123c0.009-.206-0.014-0.483-0.012-0.573a0.1,0.1,0,0,0-.026.006c-0.24.055-.481,0.1-0.721,0.154-1.564.334-3.142,0.585-4.719,0.841-0.028,0-.056.01-0.084,0.012-0.3.051-.6,0.1-0.906,0.143-0.086.014-.169,0.024-0.254,0.04a0.764,0.764,0,0,0-.1.015c-0.147.019-.293,0.044-0.438,0.06a1.058,1.058,0,0,0-.837.366,1.42,1.42,0,0,0-.144.237l-0.013.024c-0.01.02-.016,0.042-0.027,0.06-0.035.1-.119,0.366-0.15,0.424l-0.009.015c0.665-.062,1.337-0.156,2-0.249-0.011-.043-0.028-0.115-0.047-0.2C21.343,29.091,21.325,29.029,21.307,28.967Z" transform="translate(-0.475 -0.448)"/><path class="b" d="M20.233,26.255a10.79,10.79,0,0,0-.025-2.647,4.313,4.313,0,0,0-.228-0.542l-0.3-.374a0.891,0.891,0,0,1,.182.467,3.224,3.224,0,0,0-.57.526,8.708,8.708,0,0,0,.206,3.293C20.065,26.211,20.023,26.98,20.233,26.255Z" transform="translate(-0.475 -0.448)"/><path class="b" d="M23.161,20.241a12.864,12.864,0,0,0,3.445,1.707,0.73,0.73,0,0,0-.11-0.424C25.15,20.587,24,20.791,23.161,20.241Z" transform="translate(-0.475 -0.448)"/><path class="b" d="M22.419,17.555c-0.326-1.887.238-5.188-.983-6.6a0.169,0.169,0,0,1,.037.017,1.981,1.981,0,0,0-.338-0.318c-0.59-.514-2.822-0.884-4.657-0.73l-0.526.045-0.524.045a6.494,6.494,0,0,0-2.128.607c0.556-.016,1.844-0.064,3.157-0.038h0.028l0.23,0.006h0.028a12.574,12.574,0,0,1,3.421.348C22.269,11.917,21.058,15.171,22.419,17.555Z" transform="translate(-0.475 -0.448)"/><path class="c" d="M31.895,17.551a13.834,13.834,0,0,0-2.808-5.939,16.121,16.121,0,0,0-5.227-4.14A12.561,12.561,0,0,0,11.9,7.478a12.487,12.487,0,0,1,10.87.5A16.141,16.141,0,0,1,28,12.119a13.792,13.792,0,0,1,2.806,5.94,16.356,16.356,0,0,1-.055,6.7,18.715,18.715,0,0,1-2.575,6.259,16.737,16.737,0,0,1-4.626,4.807,13.915,13.915,0,0,1-1.344.8c-0.077.042-.156,0.077-0.232,0.117h0a12.087,12.087,0,0,1-6.8.831,12.033,12.033,0,0,1-2.137-.667c-0.665-.269-1.351-0.54-2-0.869A6.212,6.212,0,0,1,9.243,34.8a9.805,9.805,0,0,1-1.13-1.535A12.08,12.08,0,0,1,6.726,29.73a13.573,13.573,0,0,1-.3-3.942c0.023-.322.057-0.641,0.1-0.961a0.445,0.445,0,0,1,.137-0.372c0.123-.075.246-0.154,0.368-0.232L8.016,23.6q2.7-1.719,5.451-3.369c0.077-.045.154-0.1,0.231-0.14,0.062-.038.014-0.085-0.01-0.147A9.38,9.38,0,0,1,13.38,19a7.246,7.246,0,0,1-.231-1.988,7.483,7.483,0,0,1,.823-3.157,9.123,9.123,0,0,1,.849-1.359c2.069-.085,3.89.3,4.592,1.112,0.75,0.869.736,3.644,0.531,5.345a3.8,3.8,0,0,1-.38,1.4,14.853,14.853,0,0,1,2.566.912,12.861,12.861,0,0,0,3.482,1.717c-0.032.669-.243,2.528-0.371,3.546h0.012a3.582,3.582,0,0,0,.95-0.722c0.086-.607.621-3.165,0.27-3.519-0.1-.068-0.19-0.13-0.285-0.2a12.8,12.8,0,0,1-3.051-1.575c-0.085-.055-0.168-0.111-0.251-0.164l-0.1-.062c-0.056-.038-0.113-0.075-0.17-0.109-0.038-.02-0.075-0.045-0.112-0.068-0.055-.032-0.11-0.066-0.167-0.1l-0.109-.062c-0.069-.04-0.14-0.079-0.214-0.119a6.961,6.961,0,0,0-.95-0.424l-0.218-.083L20.9,19.1l0.145-2.268A20.9,20.9,0,0,0,20.5,13.1a8.863,8.863,0,0,0-5.4-1.079c-0.034.041-.072,0.093-0.119,0.149-0.072.1-.162,0.2-0.258,0.334h0.071c-0.162.008-.321,0.017-0.481,0.028l-0.262.02c-0.038.051-.077,0.1-0.118,0.153-0.087.109-.173,0.222-0.256,0.338a9.329,9.329,0,0,0-.594.924,7.816,7.816,0,0,0-.969,2.81,7.474,7.474,0,0,0,.48,3.678c0.025,0.064.072,0.113,0.01,0.151l-0.231.138-0.993.6c-0.549.336-1.1,0.669-1.645,1.007-0.794.491-1.594,0.99-2.385,1.5q-0.411.258-.823,0.524c-0.181.111-.361,0.228-0.543,0.343-0.028.017-.068,0-0.055-0.056a5.952,5.952,0,0,1,.388-1.208,1.887,1.887,0,0,1,.665-0.823c0.3-.2.628-0.328,0.937-0.5a7.836,7.836,0,0,0,2.488-1.972,3.575,3.575,0,0,0,.7-2.168,10.856,10.856,0,0,0-.824-2.509,5.762,5.762,0,0,0,.348,2.01c0.1,0.32.19,0.641,0.276,0.965,0.029,0.117.074,0.141-.047,0.2l-0.248.113c-0.19.087-.373,0.174-0.557,0.261a0.518,0.518,0,0,0-.144.39,2.454,2.454,0,0,1-.141.424,2.915,2.915,0,0,1-.371.621A4.646,4.646,0,0,1,8.29,21.4c-0.475.307-.959,0.619-1.44,0.92a4.562,4.562,0,0,0-1.245.976,4.393,4.393,0,0,0-.682,1.593,8.2,8.2,0,0,0-.257,2.277A10.11,10.11,0,0,0,5,29.158a19.99,19.99,0,0,0,.692,2.366,21.151,21.151,0,0,0,2.863,5.358,11.588,11.588,0,0,1-.982-0.835A15.594,15.594,0,0,0,8.95,37.524a5.631,5.631,0,0,0,1.681,1.165,18.448,18.448,0,0,0,2.048.764,17.638,17.638,0,0,0,2.075.318,32.048,32.048,0,0,0,4.4.057,20.733,20.733,0,0,0,4.1-.946,2.455,2.455,0,0,0,1.024-.6,27.251,27.251,0,0,1-6.591.709c-0.037,0-.221.006-0.639,0.022a9.929,9.929,0,0,1-6.333-1.484,8.219,8.219,0,0,1-1.54-1.44,1.15,1.15,0,0,0,.121.087,12.766,12.766,0,0,0,2.186,1.043,14.26,14.26,0,0,0,3.128.793,12.524,12.524,0,0,0,1.547.111c0.258,0,.514,0,0.773-0.017,0.142-.01.1,0.128,0.1,0.257,0.322-.036.641-0.079,0.961-0.132a1.831,1.831,0,0,1,.622-0.1,0.248,0.248,0,0,0,.239-0.032,13.9,13.9,0,0,0,3.822-.983c0.077-.032.154-0.06,0.231-0.1a21,21,0,0,0,4.628-3.939q0.533-.653,1.006-1.359c0.13-.2.254-0.382,0.374-0.585,0.216-.343.418-0.7,0.609-1.06a18.708,18.708,0,0,0,2.316-5.833A16.442,16.442,0,0,0,31.895,17.551ZM19.241,37.916l0.01-.006-0.012.006h0Z" transform="translate(-0.475 -0.448)"/><path class="c" d="M14.083,26.538s0.38-.017.532-0.013h0.1c0.161,0.008.106,0.182,0.305,0.206,0.7,0.085.475,0.439,0.484,0.439l0.119,0.03,0.012,0.03a5.139,5.139,0,0,0-1.733-.209,1.953,1.953,0,0,0-1.226.269c-0.989.91,0.356,1.5,0.174,1.879-0.735,1.521.452,1.329,0.634,1.61a8.233,8.233,0,0,0-.07,1.036,0.706,0.706,0,0,0,.709.459c0.335,0.062.19,0.764,0.638,1.054,0.52,0.334,1.44-.049,2.231-0.2a20.387,20.387,0,0,0,2.476-.817l-0.132.9a1.276,1.276,0,0,0-.747.788,3.433,3.433,0,0,1-.31.522l-0.042.06-0.066.03a12.726,12.726,0,0,1-4.295.334l-0.1-.01-0.069-.062a3.364,3.364,0,0,0-.4-0.257,0.218,0.218,0,0,1-.038-0.019l0.07,0.006a15.651,15.651,0,0,0,1.8.051l0.052,0.047,0.1,0.006c0.1,0.01.2,0.012,0.3,0.012H15.63a2.037,2.037,0,0,0,.219-0.008,8.038,8.038,0,0,0,1.671-.32,0.453,0.453,0,0,0,.056-0.017h0.006c0.029-.008.063-0.019,0.1-0.026a8.211,8.211,0,0,0,1.061-1.321,0.04,0.04,0,0,1,.013-0.02,0.435,0.435,0,0,0,.036-0.079l-0.074.02c-0.695.172-1.622,0.413-2.315,0.548,0,0-.643.11-0.76,0.122a3.554,3.554,0,0,1-.408.023c-0.024-.009-0.117-0.027-0.19-0.049a6.067,6.067,0,0,1-1.093-.454A14.3,14.3,0,0,1,12.6,31.08a5.3,5.3,0,0,1-.7-2.65S11.815,26.723,14.083,26.538Z" transform="translate(-0.475 -0.448)"/><path class="c" d="M15.756,27.269l-0.125-.038v0.016Z" transform="translate(-0.475 -0.448)"/><path class="c" d="M16.063,27.321c-0.081-.014-0.165-0.03-0.252-0.043l-0.055-.01C15.986,27.346,16.082,27.395,16.063,27.321Z" transform="translate(-0.475 -0.448)"/><ellipse class="a" cx="154.883" cy="24.31" rx="2.027" ry="2.081"/><path class="d" d="M44.441,28.916l0.138-1.959V16.817L42.726,16.7a3.6,3.6,0,0,1-.083-2.1s2.822-.142,7.525-0.142c5.145,0,6.611,2.784,6.611,5.171,0,3.209-2.628,5.964-8.409,6.107v3.181l2.656-.113a2.156,2.156,0,0,1,.166.937A1.422,1.422,0,0,1,49.5,31.219H42.726a4.721,4.721,0,0,1-.083-2.1Zm3.929-5.254c3.126-.142,4.482-1.789,4.482-3.863,0-1.789-.913-3.039-3.126-3.039-0.415,0-.855.028-1.217,0.057l-0.138,2.049v4.8Z" transform="translate(-0.475 -0.448)"/><path class="d" d="M70.219,28.916l0.138-1.988v-6.3a3.046,3.046,0,0,1-.747.085,1.411,1.411,0,0,1-1.526-1.3,1.476,1.476,0,0,1,.006-0.322,1.663,1.663,0,0,1,.138-0.8,57.567,57.567,0,0,0,5.754-.341,1.25,1.25,0,0,1,.5.568L74.12,21.532v7.384l1.632-.113a2.156,2.156,0,0,1,.166.937,1.422,1.422,0,0,1-1.688,1.477H68.78a4.717,4.717,0,0,1-.083-2.1Zm1.937-17.04a2.157,2.157,0,0,1,2.216,2.1,2.248,2.248,0,0,1,0,.227,2.219,2.219,0,0,1-2.128,2.3q-0.07,0-.14,0a2.178,2.178,0,0,1-2.267-2.094q-0.005-.1,0-0.207a2.257,2.257,0,0,1,2.176-2.331Q72.082,11.872,72.156,11.875Z" transform="translate(-0.475 -0.448)"/><path class="d" d="M86.757,28.916L86.9,26.927V23.492c0-1.477-.388-2.3-1.964-2.3a4.716,4.716,0,0,0-2.268.653v7.072l1.355-.113a2.007,2.007,0,0,1,.166.937,1.375,1.375,0,0,1-1.247,1.485,1.316,1.316,0,0,1-.273-0.008h-5.34a4.717,4.717,0,0,1-.083-2.1l1.521-.2L78.9,26.931V20.708a2.693,2.693,0,0,1-.608.057,1.411,1.411,0,0,1-1.526-1.3,1.476,1.476,0,0,1,.006-0.322,2.109,2.109,0,0,1,.139-0.852,53.065,53.065,0,0,0,5.615-.341,1.26,1.26,0,0,1,.5.6l-0.747,2.386a5.689,5.689,0,0,1,4.62-2.982c2.683,0,3.762,1.7,3.762,4.4v6.561l1.633-.113a2.007,2.007,0,0,1,.166.937,1.447,1.447,0,0,1-1.387,1.5,1.389,1.389,0,0,1-.3-0.025H85.486a4.952,4.952,0,0,1-.083-2.1Z" transform="translate(-0.475 -0.448)"/><path class="d" d="M94.282,18.009l0.225-2.726a5.877,5.877,0,0,1,3.679-.142l-0.359,3.152,3.347-.256A1.552,1.552,0,0,1,101.4,19c0,1.222-.719,1.874-2.573,1.756L97.909,20.7v6.362c0,1.278.388,1.59,1.466,1.59a9.286,9.286,0,0,0,2.407-.369,1.6,1.6,0,0,1,.221.937c0,1.278-.775,2.158-3.817,2.158-2.851,0-3.928-1.107-3.928-3.805V20.509l-1.882-.114a3.779,3.779,0,0,1,.083-1.96A14.532,14.532,0,0,0,94.282,18.009Z" transform="translate(-0.475 -0.448)"/><path class="d" d="M58.049,31.186h5.976A1.408,1.408,0,0,0,65.7,29.759a2.155,2.155,0,0,0-.146-0.886l-2.163-.009H63.327V22.413h0.19c1.2,0,3.694-1.041,3.8-2.406a1.981,1.981,0,0,0-.372-1.518,1.677,1.677,0,0,0-1.3-.477c-0.134.137-2.686,2.817-2.709,2.8s0.83-2.352.555-2.776a0.208,0.208,0,0,0-.235-0.085,54.765,54.765,0,0,1-5.628.342,2.345,2.345,0,0,0-.119.8,1.386,1.386,0,0,0,1.163,1.566,1.321,1.321,0,0,0,.31.006,2.474,2.474,0,0,0,.6-0.057,0.461,0.461,0,0,0,.07-0.022V26.93l-0.139,2.049a0.421,0.421,0,0,1-.05.01l-1.492.2a4.8,4.8,0,0,0,.078,2.006" transform="translate(-0.475 -0.448)"/><path class="d" d="M143.077,28.615l-1.694.057v-5.72c0-3.694-1.261-5-4.818-5-4.126,0-5.6,1.493-5.6,2.887a1.686,1.686,0,0,0,1.016,1.588,5.7,5.7,0,0,1,3.636-1.762c1.919,0,2.311.915,2.311,2.289V23.87h-0.058c-0.285-.014-0.57-0.02-0.839-0.02-5.5,0-6.652,2.342-6.652,4.306,0,2.171,1.318,3.317,3.816,3.317a5.14,5.14,0,0,0,4.161-2.279,1.728,1.728,0,0,0,.023,1.561,2.058,2.058,0,0,0,1.806.628c2.068,0,3.118-.616,3.118-1.828a2.048,2.048,0,0,0-.227-0.943m-5.26.1a7,7,0,0,1-1.92.331c-1.149,0-1.806-.5-1.806-1.366,0-.744.3-1.6,2.616-1.6,0.324,0,.688.018,1.112,0.052v2.589Z" transform="translate(-0.475 -0.448)"/><path class="d" d="M144.153,31.186h5.582a1.381,1.381,0,0,0,1.643-1.427,2.3,2.3,0,0,0-.146-0.886s-1.584.051-1.664,0.051V14.973l0.363-3.038a0.271,0.271,0,0,0-.055-0.2,0.491,0.491,0,0,0-.391-0.129c-0.029,0-2.946.012-5.756,0.1a2.29,2.29,0,0,0-.119.8,1.385,1.385,0,0,0,1.161,1.566,1.32,1.32,0,0,0,.313.006,3.494,3.494,0,0,0,.665-0.067V26.922l-0.139,2.049c-0.124.027-1.54,0.207-1.54,0.207a4.78,4.78,0,0,0,.078,2.006" transform="translate(-0.475 -0.448)"/><path class="d" d="M116.7,28.758s-1.568.056-1.587,0.055V14.973l0.362-2.951a0.351,0.351,0,0,0-.048-0.273,0.468,0.468,0,0,0-.4-0.142c-0.007,0-.636-0.018-1.574-0.018-1.057,0-2.635.022-4.181,0.125a2.282,2.282,0,0,0-.123.8,1.388,1.388,0,0,0,1.167,1.566,1.323,1.323,0,0,0,.309.006,3.022,3.022,0,0,0,.71-0.083c0.016,0,.055-0.013.07-0.02v4.174c-0.116-.013-0.619-0.038-0.946-0.038-4.907,0-8.078,2.91-8.078,7.405,0,3.648,2.08,5.92,5.429,5.92a5.47,5.47,0,0,0,4.217-2.112,1.706,1.706,0,0,0,.1,1.483,2.241,2.241,0,0,0,1.871.572c1.886,0,2.924-.609,2.924-1.715a1.9,1.9,0,0,0-.222-0.913m-5.4-.467a3.92,3.92,0,0,1-1.56.264c-2.264,0-3.313-1.144-3.313-3.6,0-2.927,1.278-4.233,4.147-4.233a6.876,6.876,0,0,1,.726.024V28.29Z" transform="translate(-0.475 -0.448)"/><path class="d" d="M128.333,27.222a8,8,0,0,1-4.211,1.536c-2.129,0-3.178-.9-3.4-2.91a0.055,0.055,0,0,1,.011-0.046,0.053,0.053,0,0,1,.043-0.02h8.19c0.182-2.915-.324-5.046-1.5-6.342a5.042,5.042,0,0,0-3.909-1.495c-3.864,0-6.265,2.88-6.265,7.519,0,3.909,2.263,6.061,6.379,6.061,3.918,0,5.316-1.491,5.316-2.886a1.55,1.55,0,0,0-.665-1.42m-4.961-6.732a1.687,1.687,0,0,1,1.284.512,3.711,3.711,0,0,1,.665,2.661h-4.448c0.226-2.075,1.092-3.173,2.5-3.173" transform="translate(-0.475 -0.448)"/><path class="d" d="M161.962,14.268a2.673,2.673,0,0,1-.6.057,1.4,1.4,0,0,1-1.517-1.285,1.466,1.466,0,0,1,.006-0.323,2.1,2.1,0,0,1,.137-0.846c2.8,0,5.714-.282,5.714-0.282a1.243,1.243,0,0,1,.494.564l-0.356,2.99V19.88a4.191,4.191,0,0,1,3.682-1.862c3.186,0,5.219,2.257,5.219,5.894,0,4.488-3.186,7.53-8.458,7.53a16.1,16.1,0,0,1-4.587-.677l0.275-3.864V14.268h0Zm3.874,7.164v7.53a5.507,5.507,0,0,0,1.017.057c2.2,0,3.9-1.325,3.9-4.513,0-2.537-1.154-3.638-3.1-3.638A2.7,2.7,0,0,0,165.836,21.431Z" transform="translate(-0.475 -0.448)"/><path class="d" d="M186.689,27.156a1.553,1.553,0,0,1,.715,1.464c0,1.3-1.264,2.9-5.3,2.9-4.01,0-6.345-2.087-6.345-6.036,0-4.371,2.252-7.474,6.236-7.474,3.626,0,5.741,2.312,5.384,7.841h-8.131c0.22,2,1.264,2.821,3.3,2.821A7.826,7.826,0,0,0,186.689,27.156Zm-7.413-3.385h4.505c0.083-2.172-.632-3.243-1.978-3.243-1.41,0-2.316,1.1-2.536,3.243h0.009Z" transform="translate(-0.475 -0.448)"/><polygon class="e" points="185.911 1.367 183.878 1.672 184.013 1.735 185.911 1.367"/><path class="e" d="M196.1,4.228l-0.342.088c0.127,0.4.068,0.766,0.2,1.171Z" transform="translate(-0.475 -0.448)"/><path class="e" d="M196.89,11.885a5.188,5.188,0,0,0-.156-0.721,9.607,9.607,0,0,1-.374-1.538c0.1-2.543-1-3.949-1.207-6.7a30.556,30.556,0,0,0,.028,3.4l-0.32-1.113v0.01l-0.245-2.308a1.527,1.527,0,0,0-.108-0.41,4.137,4.137,0,0,1,.311.967,3.116,3.116,0,0,0,.08-0.906,2.1,2.1,0,0,0-.43-1.033c-0.205-.277-0.428-0.45-0.484-0.572s0.052-.207.475-0.105a2.219,2.219,0,0,0-1.25-.4,2.143,2.143,0,0,0-.677.105c-0.31.091-.57,0.2-0.992,0.32a3.574,3.574,0,0,1-1.323.012,3.464,3.464,0,0,1-1.949.24c-0.832.135-1.616,0.4-1.033,0.457l2.324-.275c0.9,0.17-.249.5-0.6,0.7l-5.111.573,0.911-.276-1.645.174c0.27-.293,1.082-0.744-0.241-0.734A18.83,18.83,0,0,1,176.6,2.792c-1.492.14-3.006,0.293-4.545,0.495-0.792.105-1.495,0.2-2.376,0.344a1.966,1.966,0,0,0-1.244.96,2,2,0,0,0-.24.763,2.414,2.414,0,0,0,.051.732c0.153-.579.19,0.721,0.25-0.34,0.065,0.176.12,0.343,0.168,0.519L168.8,7.507c-0.623-1.134-.034,1.534-0.528,1.3,0.231,1.549-.392,1.588-0.222,3.277,0.38,0.976.365-1.065,0.423-1.659a3.571,3.571,0,0,1,.036.61,2.49,2.49,0,0,1,.527-1.314l0.335,3.148a0.394,0.394,0,0,0-.39.4A0.408,0.408,0,0,0,169,13.4a2.632,2.632,0,0,0,.048,1.311c0.05,0.293.081,0.522,0.119,0.826a6.378,6.378,0,0,1,.125.694,2.394,2.394,0,0,0,1.4,1.008,2.509,2.509,0,0,0,.753.056l0.535-.018a2.6,2.6,0,0,0,1.658-.449L175,17.159A7.7,7.7,0,0,0,177.5,16.7c0.317-.233-0.844-0.2.029-0.553a3.252,3.252,0,0,1,1.2-.13c0.1,0.106-.317.233-0.409,0.278a14.417,14.417,0,0,1,4.306.22c1.75-.279,4.218-0.31,5.2-0.794l-1.032.056c1.5-.2-0.03-0.6,1.659-0.663,1.272,0.027.673,0.293,0.778,0.5a17.3,17.3,0,0,1,2.408-.287c-0.794.139,0.643,0.163,0.269,0.211a6.285,6.285,0,0,0,2.363-.64,0.44,0.44,0,0,0,.3.1A2.636,2.636,0,0,0,196,14.629a2.731,2.731,0,0,1-.285.114,7.3,7.3,0,0,0,.777-1.283c0.168-.4.163-0.293,0.17-0.122s-0.035.372,0.118,0.077a2.611,2.611,0,0,0,.163-1.025A4.894,4.894,0,0,0,196.89,11.885Zm-1.764-4.516c-0.009.02-.025,0-0.043-0.027l-0.1-.939A2.266,2.266,0,0,1,195.127,7.369ZM191.9,1.353c0.432,0,1.33-.012,1.227.157,0.044,0.012.08,0.037,0.123,0.051a1.428,1.428,0,0,0-.273,0l-1.306.146a0.347,0.347,0,0,1,.233-0.355h0Zm-9.242,1.23c-0.57.085-1.059,0.2-1.5,0.3l-4.1.46c1.8-.33,3.686-0.6,5.6-0.765h0Zm-11.5,14.295c-0.225-.069-0.279-0.137-0.267-0.2a1.42,1.42,0,0,0,.368.012l0.577-.064a3.511,3.511,0,0,0-.67.254h-0.008Zm24.574-3.249a1.66,1.66,0,0,1-1.375.949,0.46,0.46,0,0,0-.108.117,2.054,2.054,0,0,0-1.685-.1,0.706,0.706,0,0,1,.39-0.22,4.856,4.856,0,0,1-1.445.04l2.8-.314a1.519,1.519,0,0,0,1.314-1.68l-0.459-4.315,0.224,0.967c0.19,0.033.085-1.115,0.308-.472a0.309,0.309,0,0,1-.06.366l0.19,0.94-0.34.317a4.439,4.439,0,0,0,.305,2.1,1.706,1.706,0,0,1-.05,1.3Z" transform="translate(-0.475 -0.448)"/><path class="f" d="M174.372,7.341a2.134,2.134,0,0,1,1.884.622,3.7,3.7,0,0,1,.877,2.228,3.7,3.7,0,0,1-.4,2.387,2.17,2.17,0,0,1-1.7,1.018,2.471,2.471,0,0,1-1.085-.1,1.877,1.877,0,0,1-.832-0.57l-0.075.009c-0.065.453-.1,0.714-0.118,0.787l-0.692.078-0.91-8.569,0.966-.108,0.221,2.081c0.044,0.416.071,0.832,0.079,1.252l0.053-.006A2.059,2.059,0,0,1,174.372,7.341ZM174.3,8.18a1.51,1.51,0,0,0-1.221.661,3.038,3.038,0,0,0-.2,1.794v0.044a3.046,3.046,0,0,0,.583,1.726,1.5,1.5,0,0,0,1.347.39,1.328,1.328,0,0,0,1.119-.73,3.2,3.2,0,0,0,.205-1.769,3.077,3.077,0,0,0-.57-1.674A1.356,1.356,0,0,0,174.3,8.18Z" transform="translate(-0.475 -0.448)"/><path class="f" d="M181.506,12.87a2.675,2.675,0,0,1-2.166-.585,3.232,3.232,0,0,1-.994-2.182,3.584,3.584,0,0,1,.456-2.393,2.35,2.35,0,0,1,1.806-1.073,2.264,2.264,0,0,1,1.848.538,2.874,2.874,0,0,1,.871,1.916l0.064,0.6-4.033.452a2.36,2.36,0,0,0,.677,1.506,1.747,1.747,0,0,0,1.425.381,4.544,4.544,0,0,0,.888-0.185A5.074,5.074,0,0,0,183.3,11.4l0.1,0.871a4.729,4.729,0,0,1-.885.4A5.216,5.216,0,0,1,181.506,12.87Zm-0.821-5.429a1.4,1.4,0,0,0-1.045.579,2.2,2.2,0,0,0-.341,1.325l3-.336a2,2,0,0,0-.517-1.245,1.291,1.291,0,0,0-1.089-.323h0Z" transform="translate(-0.475 -0.448)"/><path class="f" d="M187.082,11.427a3,3,0,0,0,.436-0.089,1.893,1.893,0,0,0,.372-0.13l0.078,0.757a2.1,2.1,0,0,1-.4.166,2.909,2.909,0,0,1-.565.121,1.576,1.576,0,0,1-1.888-1.218,1.661,1.661,0,0,1-.037-0.454L184.7,7.061l-0.832.1-0.05-.473,0.8-.488,0.249-1.332,0.57-.064,0.147,1.387,1.7-.2,0.082,0.771-1.7.2,0.372,3.491a1.186,1.186,0,0,0,.33.776A0.85,0.85,0,0,0,187.082,11.427Z" transform="translate(-0.475 -0.448)"/><path class="f" d="M192.787,11.495l-0.279-.838h-0.043a2.511,2.511,0,0,1-.8.866,2.644,2.644,0,0,1-1.081.325,1.9,1.9,0,0,1-1.411-.315,1.732,1.732,0,0,1-.634-1.268q-0.2-1.838,2.621-2.244l0.993-.149-0.038-.358a1.506,1.506,0,0,0-.4-0.983,1.18,1.18,0,0,0-.963-0.223,2.719,2.719,0,0,0-.868.242,7.479,7.479,0,0,0-.746.407l-0.374-.71a4.408,4.408,0,0,1,.93-0.488,4.157,4.157,0,0,1,1.026-.254,2.264,2.264,0,0,1,1.639.306,2.021,2.021,0,0,1,.684,1.484l0.438,4.118Zm-2.062-.466a1.772,1.772,0,0,0,1.226-.59,1.711,1.711,0,0,0,.329-1.327l-0.058-.545-0.866.136a3.123,3.123,0,0,0-1.443.5,1.019,1.019,0,0,0-.366.976,0.926,0.926,0,0,0,.358.7,1.144,1.144,0,0,0,.818.161h0Z" transform="translate(-0.475 -0.448)"/></svg>