<?xml version="1.0" encoding="utf-8"?>
<!-- Generator: Adobe Illustrator 19.2.1, SVG Export Plug-In . SVG Version: 6.00 Build 0)  -->
<svg version="1.1" id="Layer_1" xmlns="http://www.w3.org/2000/svg" xmlns:xlink="http://www.w3.org/1999/xlink" x="0px" y="0px"
	 viewBox="-25.501 2.33 192.334 43.441" width="221" height="49" enable-background="new -25.501 2.33 192.334 43.441" xml:space="preserve">
<g id="Layer_2" display="none">
</g>
<g id="XMLID_249_" display="none">
	<g id="XMLID_2_" display="inline">
		<path fill="#E74E0F" d="M-8.967,27.836C-8.968,27.836-8.968,27.836-8.967,27.836c-0.044-0.008-0.088-0.015-0.132-0.023
			C-9.055,27.82-9.01,27.83-8.967,27.836z"/>
		<path fill="#E74E0F" d="M-12.081,21.825c0.032-0.042,0.074-0.081,0.13-0.114c1.133-0.678,1.248-1.074,1.127-1.714
			c-0.065-0.232-0.115-0.462-0.157-0.686c-0.021-0.1-0.045-0.203-0.065-0.313l0.019,0.004c-0.354-2.695,0.47-4.896,1.63-5.489
			c1.072-0.551,2.38-0.458,4.116,0.17c-0.83-0.727-2.637-1.068-4.674-0.985c-0.337,0.437-0.639,0.904-0.892,1.391
			c-0.518,1.003-0.835,2.108-0.866,3.236c-0.018,0.686,0.067,1.376,0.243,2.038c0.089,0.328,0.201,0.649,0.324,0.966
			c0.026,0.064,0.076,0.114,0.011,0.153c-0.081,0.046-0.162,0.095-0.243,0.141c-1.925,1.13-3.839,2.276-5.736,3.455
			c-0.343,0.212-0.686,0.427-1.032,0.64c-0.128,0.081-0.258,0.16-0.387,0.238c-0.136,0.081-0.12,0.228-0.144,0.381
			c-0.047,0.328-0.084,0.655-0.108,0.985c-0.098,1.351,0.006,2.72,0.313,4.04c0.295,1.273,0.778,2.506,1.461,3.621
			c0.345,0.558,0.74,1.092,1.189,1.575c0.415,0.448,0.814,0.684,0.498,0.446c0.067,0.042,0.132,0.085,0.2,0.128
			c-0.139-0.145-0.278-0.29-0.408-0.446c-2.186-2.612-3.442-7.875-1.584-10.766C-16.497,23.958-14.715,23.259-12.081,21.825z"/>
		<path fill="#E74E0F" d="M-9.111,27.791c0.004,0.008,0.01,0.014,0.012,0.021c-0.001-0.006-0.004-0.016-0.006-0.021
			C-9.107,27.793-9.109,27.791-9.111,27.791z"/>
		<path fill="#E74E0F" d="M12.291,19.539c0.003,0.021,0.003,0.019,0-0.006c-0.001-0.012-0.001-0.023-0.003-0.037l-0.037-0.307
			c-0.552-4.722-3.112-9.027-6.852-11.921C5.256,7.156,5.111,7.04,4.963,6.932c0.821,0.645,1.589,1.366,2.285,2.147
			c1.892,2.118,3.262,4.703,3.915,7.47c0.688,2.918,0.52,5.932-0.36,8.789c-0.439,1.428-1.029,2.806-1.684,4.146
			c-0.662,1.358-1.318,2.775-2.236,3.982c-0.922,1.213-1.999,2.288-3.161,3.273c-0.574,0.489-1.172,0.943-1.782,1.38
			c-0.59,0.427-1.24,0.842-1.944,1.032c1.822-1.076,3.446-2.465,4.835-4.059l1.35-1.936c0,0,0.476-0.786,0.689-1.175l0.329-0.618
			c2.21-4.332,2.646-8.519,1.926-12.281c0.018,0.114,0.039,0.226,0.054,0.34c0.407,2.993-0.084,6.071-1.225,8.853
			c-0.772,1.886-1.843,3.652-3.163,5.205c-0.655,0.767-1.371,1.486-2.146,2.133c-0.718,0.605-1.5,1.088-2.339,1.488
			c-0.062,0.033-0.141,0.072-0.233,0.114c0.078-0.037,0.154-0.075,0.233-0.114c0.256-0.133,0.202-0.135-0.473,0.222
			c5.057-2.682,8.474-8.152,9.13-13.786c0.498-4.26-0.698-8.623-3.637-11.8c0.048,0.017,0.107,0.064,0.161,0.062
			c0.061-0.002-0.103-0.22-0.11-0.228c1.15,1.177,2.292,2.276,2.821,3.816C6.045,9.113,0.185,3.245-7.588,3.887
			c0,0,1.671-0.131,2.982-0.155C4.669,4.554,8.823,14.388,9.477,16.987c0.66,2.626,0.878,5.298,0.226,7.918
			c-0.571,2.294-1.39,4.38-2.423,6.455l-0.407,0.792l-0.014,0.023c-0.125,0.315-1.122,1.739-1.771,2.616l0.166-0.247
			c-0.07,0.099-0.135,0.197-0.207,0.294c0.014-0.017,0.027-0.031,0.042-0.048c-0.028,0.041-0.059,0.081-0.09,0.118
			c0.005,0.019,0.593-0.688,1.018-1.283c-0.004,0.006-0.008,0.01-0.011,0.013c0.005-0.006,0.008-0.01,0.015-0.019
			c-0.002,0.004-0.003,0.004-0.003,0.006c0.419-0.589,0.716-1.237,1.084-1.855c0.391-0.661,0.758-1.331,1.096-2.017
			c0.612-1.235,1.133-2.518,1.535-3.837c0.67-2.203,0.998-4.514,0.874-6.815c-0.188-3.478-1.412-6.861-3.464-9.667
			C6.468,8.511,5.708,7.639,4.838,6.899C4.57,6.671,4.292,6.451,3.987,6.273C2.956,5.672,1.794,5.22,0.675,4.809
			c-0.985-0.361-1.991-0.663-3.019-0.875C-2.731,3.852-3.127,3.81-3.505,3.698c-0.627-0.185-1.341-0.174-1.99-0.157
			C-6.996,3.585-8.502,3.815-9.97,4.126c-1.408,0.301-2.869,0.684-4.157,1.341c0.785-0.388,1.545-0.835,2.355-1.169
			c0.732-0.303,1.501-0.525,2.272-0.701c1.656-0.385,3.363-0.537,5.061-0.585c-0.416,0.012,0.017,0,0,0
			C-4.042,3-3.574,2.936-3.173,2.996c0.008,0,0.016,0,0.025,0c-3.022-0.659-6.178-0.47-9.105,0.526
			c-2.704,0.92-5.161,2.506-7.18,4.517c-2.02,2.015-3.61,4.457-4.656,7.112c-0.43,1.09-0.781,2.247-0.909,3.42
			c-0.03,0.263-0.107,0.64,0.121,0.844c0.284,0.259,0.625-0.178,0.756-0.392c0.033-0.052,0.061-0.108,0.09-0.164
			c1.492-5.501,4.204-8.391,6.535-10.42c-0.05,0.068-0.098,0.133-0.148,0.201c0.07-0.062,0.139-0.126,0.208-0.187
			c-1.362,1.816-2.607,3.731-3.611,5.769l0,0h-0.02v0.037c0.232-0.352,0.478-0.696,0.736-1.032c0.051-0.068,0.11-0.133,0.165-0.201
			c0,0,0.002,0,0.003-0.002c0-0.002,0-0.002,0-0.004c0.769-0.96,1.63-1.832,2.586-2.576c0.304-0.282,0.783-0.682,1.282-1.051
			c0.497-0.369,1.02-0.701,1.374-0.908c0.579-0.342,1.18-0.638,1.794-0.897c0.036-0.014,0.07-0.027,0.103-0.043
			c-0.247,0.129-0.493,0.265-0.735,0.406c-0.354,0.205-0.877,0.537-1.374,0.908c-0.499,0.365-0.975,0.767-1.283,1.047
			c-2.612,2.038-4.604,5.076-5.685,8.306c-0.005,0.004-0.01,0.004-0.014,0.004c0.001,0.002,0.001,0.002,0.001,0.006
			c0.01,0.054,0.035,0.126,0.098,0.129c0.153,0.006,0.327-0.16,0.432-0.251c0.424-0.356,0.806-0.804,1.085-1.281
			c0.224-0.591,0.455-1.179,0.713-1.754c0.377-0.846,0.816-1.666,1.403-2.382c0.572-0.703,1.264-1.293,1.969-1.857
			c1.028-0.821,2.017-1.673,3.15-2.348c1.309-0.779,2.819-1.196,4.325-1.391c3.04-0.392,6.032,0.359,8.691,1.83
			c0.643,0.355,1.268,0.748,1.862,1.175l0.022,0.004C0.648,9.314-0.432,8.634-1.584,8.058c-2.081-1.057-4.365-1.611-6.671-1.544
			c-1.622,0.046-3.237,0.406-4.767,1.03c1.855-0.949,3.882-1.495,5.914-1.55c2.307-0.07,4.588,0.485,6.669,1.544
			c2.128,1.063,4.031,2.477,5.497,4.243c1.468,1.756,2.481,3.853,2.955,6.088c0.479,2.234,0.432,4.591-0.059,6.863
			c-0.455,2.106-1.292,4.141-2.436,5.976c-0.202,0.369-0.413,0.734-0.641,1.088c-0.127,0.203-0.257,0.4-0.394,0.597
			c-0.331,0.483-0.685,0.947-1.059,1.393c-0.655,0.784-3.511,3.468-4.868,4.042c-0.081,0.037-0.162,0.066-0.243,0.1
			c-1.317,0.672-2.898,0.777-4.022,1.007c-0.118,0.048-0.225,0.075-0.251,0.033c-0.044-0.068-0.584,0.087-0.656,0.097
			c-0.336,0.054-0.672,0.099-1.011,0.133c-0.008-0.129,0.042-0.27-0.107-0.261c-0.272,0.013-0.542,0.019-0.813,0.017
			c-0.544-0.004-1.087-0.044-1.628-0.114c-1.124-0.147-2.229-0.425-3.292-0.813c-0.798-0.292-1.57-0.638-2.3-1.068
			c-0.044-0.027-0.085-0.056-0.127-0.089c0.475,0.555,1.01,1.053,1.621,1.476c1.945,1.343,4.357,1.633,6.664,1.521
			c0.438-0.017,0.634-0.025,0.672-0.023c2.327-0.075,4.678-0.102,6.935-0.728c-0.143,0.193-0.667,0.497-1.076,0.612
			C-2.491,40.121-3.943,40.6-5.397,40.7c-1.55,0.106-3.083,0.043-4.631-0.06c-0.701-0.046-1.492-0.191-2.183-0.327
			c-0.737-0.222-1.45-0.471-2.156-0.783c-0.619-0.272-1.299-0.707-1.768-1.192c-0.494-0.508-1.023-0.96-1.445-1.526
			c0.015,0.017,0.036,0.033,0.052,0.048c-0.174-0.195-0.342-0.387-0.495-0.564c-0.782-0.902-1.402-1.934-1.855-3.033
			c-0.969-2.355-1.18-4.975-0.883-7.491c-0.019,0.694,0.035,1.383,0.121,2.071c-0.002-0.035,0.001-0.071,0-0.104
			c0-0.008,0-0.014,0-0.021c-0.016-0.786,0.061-1.577,0.27-2.334c0.157-0.576,0.341-1.161,0.718-1.633
			c0.35-0.437,0.841-0.707,1.31-0.997c0.507-0.309,1.013-0.626,1.516-0.943c0.427-0.269,0.845-0.574,1.167-0.966
			c0.16-0.195,0.283-0.406,0.389-0.634c0.065-0.139,0.11-0.288,0.149-0.437c0.023-0.089,0.027-0.199,0.061-0.286l0,0
			c0.001-0.014,0.006-0.027,0.008-0.043c-1.63,0.748-3.258,1.538-4.739,2.556c-0.365,0.251-0.725,0.514-1.056,0.806
			c-0.309,0.272-0.392,0.692-0.509,1.074c-0.281,0.939-0.466,1.909-0.559,2.883c-0.144-0.415-0.524-0.978-1.042-0.779
			c-0.421,0.162-0.555,0.725-0.616,1.123c-0.103,0.682,0.057,1.441,0.246,2.094c0.206,0.719,0.56,1.389,0.968,2.009
			c-1.03-0.008-0.414,1.242-0.144,1.725c0.286,0.516,0.621,0.999,0.994,1.457c0.484,0.591,0.965,1.194,1.467,1.778
			c0.955,1.105,2.257,1.791,3.521,2.487c0.656,0.361,1.315,0.723,1.973,1.082c0.636,0.348,1.29,0.676,1.988,0.875
			c1.338,0.385,2.799,0.433,4.182,0.491c0.702,0.025,1.404,0.052,2.106,0.072c0.356,0.01,0.715,0.021,1.073,0.035
			c0.192,0.008,0.386,0.016,0.578,0.033c0.047,0.004,0.214,0.004,0.25,0.05c0.019,0.021-0.621,0.131-0.663,0.135
			c-0.315,0.043-0.635,0.073-0.952,0.101c-0.639,0.048-1.279,0.062-1.919,0.043c-1.273-0.041-4.53-0.58-5.764-0.887
			c-1.231-0.307,6.181,2.377,11.932,0.622c4.822-1.47,8.763-5.085,11.219-9.419C11.59,28.17,12.689,23.817,12.291,19.539z"/>
		<path fill="#E74E0F" d="M-10.862,33.85c0,0-0.967-1.225-1.565-2.46c-0.47-0.972-0.603-1.953-0.591-2.338
			c0.044-1.459,1.397-1.891,2.268-1.959c0.339-0.026,0.622-0.011,0.627-0.01c0.019,0.001,0.037,0.001,0.056,0.001
			c0.169,0.01,0.112,0.187,0.32,0.213c0.736,0.085,0.503,0.45,0.51,0.45l0.125,0.029c0.001,0.01,0.004,0.015,0.007,0.023
			c0.051,0.017,0.095,0.029,0.137,0.043c0.02,0.004,0.038,0.008,0.058,0.01c0.091,0.016,0.18,0.031,0.264,0.046
			c-0.328-1.157-0.012-2.645,0.674-3.621c0.342-0.483,0.904-0.541,1.372-0.199c0.115,0.081,0.284,0.218,0.313,0.367
			c-0.059,0.388-0.093,0.781-0.082,1.173c0.029,0.978,0.196,1.524,0.606,2.243c0.39,0.69,0.66,1.575,0.627,2.371
			c0.002,0,0.002,0,0.003,0c0.001-0.002,0.004-0.006,0.008-0.015c0.033-0.06,0.121-0.33,0.158-0.435
			c0.011-0.019,0.017-0.041,0.028-0.062c0.004-0.01,0.009-0.017,0.014-0.025c0.044-0.087,0.094-0.168,0.153-0.243
			c0.234-0.309,0.528-0.327,0.88-0.375c0.155-0.019,0.307-0.043,0.461-0.062c0.037-0.004,0.072-0.01,0.108-0.015
			c0.089-0.014,0.177-0.027,0.267-0.041c0.317-0.048,0.635-0.095,0.953-0.147c0.029-0.002,0.059-0.008,0.088-0.012
			c1.66-0.263,3.32-0.52,4.966-0.862c0.254-0.054,0.507-0.102,0.759-0.158c0.009-0.002,0.017-0.006,0.027-0.006
			c-0.002,0.093,0.022,0.377,0.013,0.587c-0.008,0.041-0.013,0.081-0.013,0.126c0,0.004,0,0.004,0,0.006
			c-0.01,0.042-0.022,0.071-0.037,0.089c-0.007,0.004-0.017,0.01-0.031,0.017c-2.102,0.381-1.998,0.01-6.851,0.732
			c0.016,0.054,0.039,0.153,0.064,0.259c-0.003,0-0.006,0-0.01,0c0.019,0.064,0.038,0.128,0.055,0.191
			c0.02,0.083,0.037,0.156,0.048,0.201l0,0l5.018-0.937l-0.198,1.19c0,0-4.371,2.106-4.36,2.235c0.446,0.419,1.035,0.12,1.307-0.004
			c0.458-0.209,1.037-0.417,1.483-0.651c1.113-0.574,1.74-0.927,2.808-1.58c0.588-0.357,0.997-0.636,1.219-1.132
			c0.119-0.269,0.191-0.564,0.2-0.856c0.032-0.904,0.182-1.805,0.29-2.701c0.116-0.958,0.213-1.99,0.032-2.947
			c-0.108-0.576-0.41-1.155-0.906-1.484c-0.897-0.597-2.045-0.798-3.053-1.138c-0.562-0.189-1.092-0.431-1.573-0.779
			c-0.236-0.172-0.508-0.425-0.569-0.721c-0.044-0.22-0.074-0.441-0.093-0.661c-0.116-1.256-0.023-2.519-0.142-3.773
			c-0.094-1.009-0.338-2.411-1.378-2.892l-0.014-0.006c-0.014-0.006-0.025-0.012-0.039-0.017c1.284,1.447,0.69,4.832,1.034,6.764
			c-1.432-2.442-0.158-5.777-2.371-6.78c-0.579-0.245-2.085-0.332-3.602-0.357c-0.009,0-0.018,0-0.028-0.002
			c-0.081-0.002-0.161-0.006-0.243-0.006H-8.23c-1.381-0.029-2.737,0.023-3.322,0.039l-0.003,0.014
			c-0.234,0.06-0.457,0.232-0.651,0.357c-0.583,0.385-1.088,0.877-1.504,1.439c-0.424,0.576-0.672,1.285-0.84,1.977
			c-0.082,0.342-0.141,0.69-0.172,1.039c-0.006,0.074-0.001,0.145,0.011,0.214c0.268,0.852,0.802,1.588,0.844,2.508
			c0.003,0.808-0.244,1.58-0.736,2.222c-0.655,0.854-1.664,1.493-2.61,2.009c-0.326,0.176-0.675,0.309-0.986,0.512
			c-0.319,0.205-0.543,0.498-0.701,0.844c-0.412,0.883-0.471,1.37-0.35,1.297c0.191-0.12,0.381-0.24,0.571-0.354
			c0.289-0.182,0.577-0.361,0.866-0.537c0.833-0.516,1.675-1.026,2.515-1.534c0.576-0.344,1.153-0.688,1.731-1.03
			c0.349-0.207,0.697-0.412,1.045-0.616c0.082-0.046,0.164-0.095,0.243-0.141c0.065-0.039,0.015-0.087-0.011-0.153
			c-0.474-1.202-0.682-2.485-0.506-3.772c0.14-1.018,0.501-1.996,1.015-2.881c0.189-0.329,0.398-0.645,0.625-0.949
			c0.087-0.118,0.177-0.234,0.269-0.346c0.042-0.052,0.084-0.102,0.124-0.157c0.091-0.004,0.184-0.016,0.276-0.021
			c0.169-0.01,0.337-0.019,0.507-0.027c-0.025,0.002-0.049,0.002-0.075,0.002c0.102-0.133,0.196-0.245,0.272-0.344
			c0.048-0.056,0.09-0.108,0.125-0.151c2.623-0.222,4.522,0.423,5.683,1.107c0.204,0.64,0.474,2.282,0.577,3.826l-0.155,2.33
			l-0.053,0.23l0.225,0.079c0.371,0.129,0.696,0.278,0.999,0.433c0.076,0.041,0.15,0.081,0.225,0.124
			c0.039,0.019,0.078,0.042,0.115,0.062c0.06,0.035,0.118,0.07,0.176,0.104c0.039,0.023,0.078,0.046,0.117,0.07
			c0.059,0.037,0.12,0.075,0.179,0.112c0.034,0.021,0.068,0.043,0.104,0.064c0.087,0.056,0.175,0.112,0.264,0.17
			c0.807,0.516,1.711,1.094,3.214,1.615c0.099,0.06,0.2,0.124,0.301,0.193c0.37,0.363-0.194,2.987-0.284,3.607
			c-0.14,0.377-0.986,0.622-1.003,0.742c-0.003,0-0.008,0.002-0.013,0.002c0.013-0.091,0.025-0.195,0.039-0.301l-0.003,0.016
			c-0.662,0.184-1.321,0.383-1.989,0.551c-0.476,0.118-0.955,0.226-1.437,0.313c-0.23,0.041-0.594,0.122-0.827,0.114
			c-0.449-0.017-1-1.061-0.944-1.718c0.036-0.421,0.163-0.84,0.104-1.264c-0.03-0.22-0.114-0.417-0.216-0.613
			c0.082,0.469,0.127,2.201,0.005,2.618c-0.22,0.746-0.176-0.042-0.775,0.742c-0.199-0.342-0.444-2.747-0.217-3.373
			c0.132-0.365,0.566-0.348,0.598-0.541c0.008-0.033-0.054-0.34-0.191-0.479c0,0,0.066,0.027-0.048-0.054
			c-0.798-0.554-1.894-0.918-2.693-0.723c-0.879,0.214-1.716,1.113-2.15,2.027c-0.12,0.247-0.213,0.514-0.283,0.786
			c-0.016,0.075-0.149,0.893-0.127,0.893c-0.241,0.006-0.482,0.021-0.722,0.041c-0.791,0.062-2.578,0.099-3.267,0.881
			c-0.34,0.386-0.498,1.011-0.488,1.515c0.004,0.232,0.09,0.383,0.208,0.576c0.194,0.315,0.227,0.599,0.216,0.96
			c-0.01,0.313,0.033,0.585,0.219,0.837c0.171,0.228-0.013,0.423,0.152,0.655c0.005,0.004,0.005,0.01,0.007,0.014
			c0.078,0.108,0.136,0.218,0.148,0.325c0.01,0.075-0.16,0.889,0.124,1.325c0.33,0.508,1.127,0.643,1.176,0.754
			c0.596,1.241,2.165,1.316,2.56,1.316c0.068,0.043,0.128,0.083,0.172,0.122l0.02,0.017l0.055,0.048l0.098,0.006
			c0.105,0.01,0.209,0.012,0.312,0.012c0.02,0,0.038,0,0.057,0c0.077-0.002,0.153-0.004,0.229-0.008
			c0.637-0.041,1.284-0.193,1.758-0.328c0.034-0.008,0.054-0.015,0.059-0.017l0.006-0.002c0.03-0.008,0.066-0.019,0.097-0.027
			c0.09-0.027,0.903-0.989,1.116-1.354c0.004-0.006,0.006-0.014,0.011-0.019c0.017-0.031,0.032-0.062,0.038-0.083
			c-0.026,0.008-0.054,0.015-0.078,0.021c-0.731,0.178-1.707,0.425-2.436,0.56c-0.746,0.143-1.238,0.17-1.246,0.139
			C-9.843,34.308-10.806,33.91-10.862,33.85 M2.336,21.95c0.065,0.066,0.103,0.222,0.116,0.435C0.7,21.832-0.293,21.2-1.172,20.636
			C-0.287,21.204,0.92,20.991,2.336,21.95z M-13.895,20.924c0.099-0.066,0.195-0.128,0.292-0.191c0.11-0.07,0.237-0.099,0.205-0.236
			c-0.088-0.381-0.159-0.763-0.213-1.146c-0.09-0.651-0.128-1.31-0.107-1.967c0.034-0.995,0.206-1.992,0.549-2.929
			c0.165-0.448,0.365-0.891,0.631-1.289c0.061-0.089,0.127-0.185,0.208-0.259c0.065-0.062,0.2-0.043,0.283-0.043
			c0.247,0.008,0.498,0.043,0.737,0.114c-1.661,2.328-1.977,5.174-1.418,7.933c-1.728,0.985-3.512,1.88-5.297,2.759
			C-16.654,22.748-15.278,21.828-13.895,20.924z"/>
		<polygon fill="#E74E0F" points="-5.294,38.743 -5.304,38.749 -5.306,38.749 		"/>
		<path fill="#E74E0F" d="M-15.031,19.437c0.015-0.021,0.035-0.044,0.062-0.054C-14.996,19.392-15.014,19.416-15.031,19.437z"/>
	</g>
	<g id="XMLID_3_" display="inline">
		<path fill="#FFEC00" d="M-13.024,7.556c-0.034,0.014-0.068,0.029-0.103,0.043c-0.613,0.259-1.215,0.554-1.792,0.896
			c-0.354,0.205-0.876,0.539-1.374,0.908c-0.499,0.367-0.978,0.767-1.282,1.049c-1.025,0.8-1.947,1.741-2.754,2.784
			c-0.258,0.336-0.503,0.678-0.736,1.032c-0.879,1.793-1.292,3.159-1.412,3.984c0.129,0.021,0.267,0.01,0.38-0.029
			c1.082-3.233,3.073-6.266,5.685-8.308c0.308-0.278,0.783-0.68,1.283-1.045c0.497-0.371,1.019-0.703,1.374-0.908
			C-13.518,7.819-13.273,7.686-13.024,7.556z"/>
		<path fill="#FFEC00" d="M11.162,16.548c-0.652-2.767-2.023-5.352-3.915-7.468C6.552,8.298,5.784,7.579,4.962,6.934
			C5.11,7.04,5.255,7.156,5.402,7.268C4.034,6.13,2.515,5.183,0.912,4.412C0.068,4.007-0.808,3.659-1.705,3.384
			c-0.446-0.137-0.899-0.261-1.356-0.361c-0.425-0.097-0.945-0.019-1.38-0.006c-1.697,0.046-3.404,0.199-5.061,0.584
			c-0.77,0.178-1.539,0.4-2.271,0.701c-0.811,0.334-1.57,0.783-2.355,1.169c1.288-0.657,2.749-1.04,4.157-1.339
			c1.468-0.309,2.974-0.541,4.474-0.587c0.649-0.019,1.363-0.029,1.99,0.157c0.379,0.11,0.774,0.155,1.161,0.236
			c1.029,0.212,2.035,0.516,3.019,0.875c1.119,0.412,2.281,0.864,3.312,1.466c0.305,0.176,0.584,0.396,0.851,0.624
			c0.87,0.74,1.63,1.613,2.305,2.535c2.051,2.805,3.276,6.191,3.464,9.666c0.124,2.303-0.205,4.612-0.874,6.815
			c-0.402,1.32-0.922,2.603-1.535,3.837c-0.339,0.686-0.705,1.356-1.096,2.017c-0.368,0.618-0.666,1.267-1.084,1.855
			c-0.481,0.676-1.17,1.492-0.987,1.238c-1.434,1.689-3.125,3.159-5.033,4.286c0.703-0.191,1.354-0.607,1.944-1.032
			c0.61-0.439,1.209-0.893,1.782-1.382c1.161-0.982,2.24-2.058,3.161-3.271c0.918-1.21,1.574-2.624,2.236-3.984
			c0.655-1.341,1.245-2.717,1.684-4.144C11.682,22.48,11.85,19.468,11.162,16.548z"/>
		<path fill="#FFEC00" d="M-4.441,3.019C-4.425,3.017-4.858,3.029-4.441,3.019L-4.441,3.019z"/>
		<path fill="#FFEC00" d="M-3.127,29.577c0.003,0,0.006,0,0.01,0c-0.027-0.108-0.049-0.205-0.064-0.259
			c4.854-0.723,4.75-0.352,6.852-0.732c0.014-0.008,0.023-0.012,0.03-0.017c0.015-0.017,0.028-0.046,0.038-0.089
			c0-0.004,0-0.004,0-0.006c0-0.042,0.005-0.085,0.013-0.126c0.009-0.211-0.015-0.495-0.013-0.587c-0.01,0-0.018,0.004-0.027,0.006
			c-0.253,0.056-0.506,0.104-0.759,0.158c-1.646,0.342-3.306,0.597-4.966,0.862c-0.029,0.004-0.059,0.01-0.088,0.012
			c-0.318,0.052-0.635,0.099-0.953,0.147c-0.09,0.014-0.178,0.025-0.267,0.041c-0.036,0.004-0.071,0.01-0.108,0.015
			c-0.155,0.019-0.308,0.045-0.461,0.062c-0.352,0.048-0.646,0.068-0.881,0.375c-0.058,0.073-0.108,0.157-0.152,0.243
			c-0.005,0.01-0.01,0.017-0.014,0.025c-0.011,0.021-0.017,0.043-0.028,0.062C-5,29.872-5.088,30.143-5.122,30.203
			c-0.005,0.01-0.008,0.015-0.009,0.015c0.704-0.064,1.407-0.16,2.109-0.255c-0.012-0.044-0.029-0.118-0.049-0.201
			C-3.089,29.704-3.108,29.641-3.127,29.577z"/>
		<path fill="#FFEC00" d="M-4.258,26.794c0.132-0.454,0.068-2.465-0.026-2.713c-0.045-0.116-0.185-0.489-0.24-0.556l-0.32-0.383
			c0.138,0.139,0.199,0.446,0.191,0.479c-0.032,0.191-0.466,0.174-0.598,0.539c-0.227,0.626,0.02,3.031,0.217,3.375
			C-4.434,26.752-4.477,27.54-4.258,26.794z"/>
		<path fill="#FFEC00" d="M-9.811,35.263c-0.395,0-1.965-0.075-2.56-1.316c-0.05-0.106-0.846-0.245-1.176-0.752
			c-0.284-0.435-0.113-1.252-0.124-1.327c-0.019-0.156-0.134-0.325-0.277-0.491c-0.116,0.73-0.317,1.905-0.031,2.332
			c0.239,0.35,0.547,0.126,0.837,0.354c0.213,0.168,0.414,0.327,0.554,0.508c0.129,0.164,0.284,0.299,0.446,0.421
			c0.014,0.006,0.029,0.015,0.042,0.021c0.169,0.095,0.328,0.183,0.419,0.263l0.03,0.027c0.024,0.012,0.046,0.027,0.069,0.039
			l0.074,0.006c0.681,0.058,1.319,0.068,1.891,0.052l-0.02-0.015C-9.682,35.346-9.743,35.307-9.811,35.263z"/>
		<path fill="#FFEC00" d="M-1.175,20.633c0.88,0.564,1.872,1.196,3.625,1.75c-0.013-0.214-0.05-0.371-0.116-0.435
			C0.917,20.988-0.29,21.201-1.175,20.633z"/>
		<path fill="#FFEC00" d="M-1.956,17.88c-0.343-1.934,0.25-5.317-1.034-6.764c0.014,0.004,0.024,0.01,0.039,0.017
			c-0.106-0.122-0.224-0.232-0.356-0.326c-0.621-0.527-2.969-0.906-4.895-0.748c-0.178,0.015-0.366,0.031-0.554,0.046
			c-0.192,0.017-0.377,0.031-0.551,0.046c-0.681,0.079-1.462,0.247-2.239,0.622c0.585-0.016,1.94-0.066,3.322-0.039h0.024
			c0.081,0.002,0.162,0.004,0.242,0.006c0.011,0.002,0.02,0.002,0.029,0.002c1.516,0.025,3.023,0.112,3.602,0.357
			C-2.115,12.102-3.389,15.437-1.956,17.88z"/>
	</g>
	<g id="XMLID_7_" display="inline">
		<polygon fill="#E5007E" points="-17.49,36.871 -17.487,36.873 -17.487,36.873 		"/>
		<path fill="#E5007E" d="M8.014,17.876c-0.474-2.235-1.487-4.332-2.955-6.086c-1.464-1.764-3.368-3.18-5.496-4.243
			C-2.519,6.489-4.8,5.931-7.106,6.003c-2.032,0.056-4.059,0.601-5.914,1.55c1.529-0.622,3.145-0.983,4.767-1.028
			c2.306-0.071,4.589,0.485,6.671,1.542c2.128,1.063,4.032,2.479,5.497,4.243c1.469,1.754,2.481,3.851,2.953,6.088
			c0.481,2.236,0.433,4.593-0.058,6.863c-0.493,2.276-1.422,4.469-2.711,6.415c-1.289,1.948-2.942,3.657-4.868,4.927
			c-0.456,0.303-0.931,0.576-1.414,0.825c-0.081,0.043-0.164,0.079-0.244,0.12c0.003,0,0.001,0-0.003,0.002
			c0-0.002,0.001-0.002,0.003-0.002c-2.272,0.875-4.744,1.326-7.16,0.852c-0.77-0.153-1.518-0.394-2.249-0.684
			c-0.704-0.276-1.422-0.553-2.097-0.891c-0.667-0.336-1.377-0.721-1.886-1.271c-0.449-0.483-0.845-1.014-1.189-1.573
			c-0.683-1.115-1.166-2.348-1.461-3.621c-0.307-1.322-0.411-2.69-0.313-4.04c0.024-0.33,0.06-0.657,0.108-0.985
			c0.024-0.153,0.008-0.298,0.144-0.381c0.129-0.077,0.259-0.158,0.387-0.238c0.345-0.214,0.688-0.427,1.032-0.641
			c1.896-1.175,3.812-2.322,5.736-3.453c0.081-0.046,0.162-0.097,0.243-0.143c0.065-0.039,0.015-0.087-0.011-0.151
			c-0.124-0.315-0.235-0.64-0.324-0.966c-0.176-0.665-0.261-1.353-0.243-2.038c0.031-1.13,0.347-2.236,0.866-3.236
			c0.254-0.489,0.556-0.956,0.893-1.393c2.177-0.087,4.093,0.309,4.832,1.14c0.789,0.891,0.774,3.735,0.559,5.478
			c-0.121,0.984-0.403,1.437-0.403,1.437s2.118,0.556,2.704,0.935c0.885,0.564,1.884,1.206,3.664,1.76
			c-0.034,0.686-0.256,2.591-0.39,3.634c0.005,0,0.009-0.002,0.013-0.004c0.017-0.118,0.864-0.363,1.003-0.74
			c0.09-0.622,0.653-3.244,0.284-3.607c-0.101-0.07-0.202-0.133-0.301-0.195c-1.502-0.518-2.406-1.096-3.214-1.615
			c-0.089-0.056-0.177-0.114-0.264-0.168c-0.035-0.021-0.07-0.042-0.104-0.064c-0.059-0.039-0.119-0.077-0.179-0.112
			c-0.04-0.021-0.079-0.046-0.118-0.07c-0.058-0.033-0.116-0.068-0.176-0.104c-0.039-0.021-0.076-0.042-0.115-0.064
			c-0.073-0.041-0.147-0.081-0.225-0.122c-0.304-0.156-0.628-0.307-0.999-0.435l-0.225-0.077l0.053-0.232l0.156-2.328
			c-0.104-1.546-0.374-3.188-0.577-3.828c-1.162-0.684-3.06-1.329-5.683-1.107c-0.036,0.042-0.076,0.095-0.125,0.153
			c-0.076,0.097-0.17,0.209-0.272,0.342c0.026,0,0.05,0,0.075-0.002c-0.17,0.008-0.338,0.017-0.506,0.029
			c-0.092,0.006-0.185,0.015-0.276,0.021c-0.04,0.052-0.081,0.102-0.124,0.157c-0.092,0.112-0.182,0.228-0.269,0.346
			c-0.228,0.303-0.436,0.62-0.625,0.947c-0.514,0.887-0.877,1.863-1.015,2.883c-0.176,1.287,0.031,2.568,0.505,3.77
			c0.026,0.066,0.076,0.116,0.011,0.155c-0.079,0.046-0.16,0.093-0.243,0.141c-0.348,0.205-0.696,0.41-1.045,0.614
			c-0.578,0.344-1.155,0.686-1.731,1.032c-0.841,0.508-1.681,1.016-2.515,1.534c-0.289,0.176-0.577,0.356-0.866,0.537
			c-0.19,0.114-0.38,0.234-0.571,0.352c-0.029,0.017-0.072,0.005-0.058-0.057c0.094-0.428,0.226-0.845,0.409-1.237
			c0.158-0.344,0.383-0.638,0.701-0.844c0.312-0.201,0.661-0.336,0.986-0.51c0.946-0.518,1.955-1.155,2.618-2.021
			c0.492-0.642,0.739-1.414,0.736-2.222c-0.044-0.945-0.607-1.693-0.867-2.572c-0.049,0.701,0.163,1.397,0.366,2.06
			c0.099,0.328,0.204,0.657,0.29,0.989c0.03,0.12,0.078,0.145-0.049,0.199c-0.087,0.039-0.174,0.077-0.261,0.116
			c-0.197,0.089-0.392,0.178-0.586,0.268c-0.134,0.06-0.115,0.257-0.152,0.396c-0.039,0.149-0.084,0.3-0.148,0.435
			c-0.107,0.228-0.229,0.439-0.39,0.636c-0.322,0.392-0.741,0.694-1.167,0.966c-0.501,0.315-1.009,0.634-1.515,0.943
			c-0.47,0.29-0.961,0.558-1.31,0.995c-0.377,0.473-0.561,1.059-0.718,1.633c-0.209,0.761-0.285,1.548-0.27,2.334
			c0.012,0.674,0.2,1.387,0.352,2.04c0.19,0.823,0.436,1.633,0.728,2.425c0.727,1.967,1.751,3.82,3.013,5.491
			c-0.329-0.259-0.735-0.558-1.033-0.856c0.421,0.564,0.951,1.016,1.444,1.524c0.47,0.485,1.15,0.92,1.769,1.194
			c0.705,0.307,1.419,0.558,2.155,0.783c0.692,0.133,1.482,0.278,2.183,0.326c1.548,0.101,3.082,0.164,4.631,0.058
			c1.455-0.1,2.906-0.58,4.315-0.97c0.41-0.116,0.933-0.421,1.077-0.613c-2.257,0.624-4.608,0.651-6.935,0.727
			c-0.039-0.002-0.233,0.006-0.672,0.023c-2.308,0.112-4.72-0.178-6.664-1.521c-0.61-0.421-1.146-0.924-1.621-1.476
			c0.042,0.033,0.082,0.062,0.127,0.089c0.73,0.435,1.502,0.777,2.3,1.069c1.064,0.39,2.168,0.667,3.292,0.813
			c0.54,0.07,1.084,0.11,1.628,0.114c0.271,0.002,0.541-0.002,0.813-0.017c0.149-0.01,0.099,0.131,0.107,0.263
			c0.339-0.037,0.674-0.081,1.011-0.135c0.071-0.01,0.611-0.166,0.655-0.097c0.028,0.043,0.134,0.016,0.252-0.033
			C-4.582,38.716-3,38.61-1.683,37.937c0.081-0.033,0.162-0.062,0.243-0.1c1.357-0.574,4.214-3.26,4.868-4.042
			c0.374-0.446,0.728-0.91,1.059-1.393c0.137-0.195,0.267-0.392,0.394-0.597c0.227-0.352,0.44-0.719,0.641-1.086
			c1.146-1.838,1.982-3.872,2.437-5.978C8.446,22.468,8.494,20.111,8.014,17.876z M-5.304,38.749
			c0.003-0.004,0.006-0.004,0.01-0.006c-0.005,0.002-0.008,0.006-0.013,0.006C-5.305,38.749-5.304,38.749-5.304,38.749z"/>
		<path fill="#E5007E" d="M-10.729,27.087c0.005,0,0.397-0.017,0.56-0.013c0.034,0,0.068,0.002,0.103,0.004
			c0.169,0.008,0.112,0.187,0.321,0.211c0.736,0.087,0.502,0.45,0.509,0.45l0.125,0.031c0.001,0.006,0.004,0.014,0.007,0.023
			c-0.365-0.112-0.959-0.241-1.824-0.214c-0.698,0.019-1.082,0.091-1.29,0.276c-1.041,0.933,0.375,1.538,0.183,1.926
			c-0.773,1.559,0.476,1.362,0.667,1.65c0.088,0.135-0.19,0.721-0.071,1.063c0.134,0.381,0.398,0.41,0.746,0.47
			c0.352,0.064,0.196,0.783,0.671,1.08c0.547,0.342,1.515-0.05,2.348-0.205c0.835-0.155,2.605-0.837,2.605-0.837l-0.139,0.92
			c-0.007,0.033-0.408,0.039-0.786,0.808c-0.089,0.182-0.197,0.361-0.326,0.535l-0.044,0.062l-0.069,0.031
			c-0.066,0.033-2.047,0.553-4.519,0.342l-0.098-0.01l-0.073-0.064c-0.092-0.075-0.252-0.166-0.422-0.263
			c-0.012-0.004-0.024-0.014-0.04-0.019l0.074,0.006c0.682,0.058,1.32,0.068,1.891,0.052l0.055,0.048l0.098,0.006
			c0.105,0.01,0.209,0.012,0.312,0.012c0.019,0,0.038,0,0.057,0c0.077-0.002,0.154-0.004,0.23-0.008
			c0.637-0.041,1.284-0.193,1.758-0.328c0.033-0.008,0.053-0.015,0.059-0.017l0.006-0.002c0.031-0.008,0.066-0.019,0.097-0.027
			c0.09-0.027,0.903-0.991,1.116-1.354c0.005-0.006,0.007-0.014,0.014-0.021c0.017-0.031,0.032-0.06,0.038-0.081
			c-0.026,0.008-0.055,0.015-0.078,0.021c-0.731,0.176-1.707,0.423-2.436,0.562c0,0-0.677,0.113-0.797,0.125
			c-0.12,0.012-0.403,0.033-0.429,0.024c-0.025-0.009-0.123-0.028-0.196-0.05s-1.061-0.35-1.15-0.465c0,0-1.03-1.292-1.415-2.115
			c-0.385-0.823-0.81-1.641-0.74-2.716C-13.021,29.016-13.116,27.277-10.729,27.087z"/>
		<path fill="#E5007E" d="M-8.969,27.836c-0.042-0.014-0.086-0.027-0.136-0.043c0.001,0.006,0.004,0.014,0.006,0.019
			C-9.055,27.82-9.012,27.828-8.969,27.836z"/>
		<path fill="#E5007E" d="M-8.645,27.89c-0.085-0.014-0.174-0.031-0.265-0.044c-0.021-0.004-0.039-0.006-0.058-0.01
			C-8.727,27.915-8.625,27.965-8.645,27.89z"/>
	</g>
	<circle id="XMLID_8_" display="inline" fill="#E74E0F" cx="137.932" cy="22.263" r="2.133"/>
	<path id="XMLID_11_" display="inline" fill="#E5007E" d="M-9.551,34.337"/>
	<path display="inline" fill="#E74E0F" d="M-10.865,33.847"/>
	<g id="XMLID_12_" display="inline">
		<g id="XMLID_77_">
			<path id="XMLID_125_" fill="#292929" d="M24.621,42.47c0,0-0.865,0.639-2.465,0.639c-2.145,0-3.022-1.102-3.022-2.821
				c0-2.429,1.683-4.397,4.231-4.397c1.233,0,1.967,0.296,1.967,0.296l-0.119,1.718c-0.545,0.083-0.818-0.035-0.818-0.461
				c0-0.214,0.059-0.45,0.13-0.664c-0.308-0.071-0.711-0.154-1.161-0.154c-2.098,0-3.247,1.446-3.247,3.354
				c0,1.777,0.688,2.381,2.287,2.381c0.652,0,1.114-0.13,1.41-0.273l0.178-1.871l-1.398,0.07c0,0-0.071-0.331,0.095-0.829h2.276
				L24.621,42.47z"/>
			<path id="XMLID_122_" fill="#292929" d="M26.897,41.119c0.024,0.959,0.462,1.209,0.96,1.209c1.031,0,2.097-0.889,2.097-0.889
				s0.225,0.119,0.225,0.439c0,0.592-1.067,1.161-2.276,1.161c-1.126,0-1.825-0.474-1.825-1.825c0-2.061,1.245-3.721,2.75-3.721
				c0.687,0,1.469,0.831,1.469,2.015C30.298,40.727,27.36,41.071,26.897,41.119z M26.921,40.538
				c0.687-0.095,2.429-0.415,2.429-0.996c0-1.031-0.687-1.434-0.687-1.434C27.869,38.251,27.075,39.152,26.921,40.538z"/>
			<path id="XMLID_120_" fill="#292929" d="M37.931,37.492c0,0,0.45,0.273,0.45,1.174c0,2.358-1.813,4.373-3.022,4.373
				c-0.426,0-0.616-0.154-0.616-0.616c0-0.344,0.13-0.936,0.26-1.423c-0.711,1.186-1.825,2.039-2.666,2.039
				c-0.439,0-0.64-0.19-0.64-0.616c0-0.605,0.438-2.631,0.367-4.065c0,0-0.391,0.142-0.817,0.142c-0.427,0-0.628-0.154-0.628-0.474
				c0-0.202,0.071-0.297,0.071-0.297c0.96,0,2.002-0.237,2.002-0.237s0.189,0.131,0.296,0.356c0,0-0.047,1.955-0.45,4.504
				c1.825-0.663,2.24-2.631,2.24-2.631l-0.296-2.05c0,0,0.296-0.142,0.759-0.142c0,0,0.45,0.272,0.45,1.173
				c0,0.522-0.118,1.019-0.296,1.505c0,0.036,0,0.972,0.13,2.11c1.718-0.7,1.944-2.632,1.944-2.632l-0.296-2.05
				C37.172,37.634,37.469,37.492,37.931,37.492z"/>
			<path id="XMLID_117_" fill="#292929" d="M39.069,41.083c0-2.181,1.078-3.591,2.643-3.591c0.735,0,1.683,0.415,1.683,2.027
				c0,2.181-1.042,3.591-2.607,3.591C39.757,43.11,39.069,42.387,39.069,41.083z M39.982,40.846c0,0.972,0.427,1.588,1.055,1.588
				c0.758,0,1.458-0.818,1.458-2.725c0-1.126-0.486-1.589-1.031-1.589C40.728,38.12,39.982,38.867,39.982,40.846z"/>
			<path id="XMLID_114_" fill="#292929" d="M44.308,41.083c0-2.181,1.078-3.591,2.643-3.591c0.735,0,1.683,0.415,1.683,2.027
				c0,2.181-1.043,3.591-2.607,3.591C44.995,43.11,44.308,42.387,44.308,41.083z M45.22,40.846c0,0.972,0.427,1.588,1.055,1.588
				c0.758,0,1.458-0.818,1.458-2.725c0-1.126-0.486-1.589-1.031-1.589C45.967,38.12,45.22,38.867,45.22,40.846z"/>
			<path id="XMLID_112_" fill="#292929" d="M50.269,43.015c0,0-0.237-0.189-0.237-0.698c0-0.534,0.237-1.695,0.237-1.695
				l0.308-2.382c0,0-0.367,0.26-0.818,0.26c-0.427,0-0.652-0.13-0.652-0.474c0-0.202,0.071-0.297,0.071-0.297
				c0.984,0,2.027-0.237,2.027-0.237s0.202,0.119,0.32,0.356L50.98,39.21c0.379-0.403,1.695-1.719,2.844-1.719
				c0.462,0,0.664,0.285,0.533,1.043l-0.651,3.769c0.664-0.178,1.268-0.758,1.268-0.758s0.249,0.106,0.249,0.462
				c0,0.474-0.581,0.984-1.541,0.984c-0.687,0-0.889-0.261-0.747-1.091l0.616-3.673c0,0-1.197,0.438-2.347,1.268l-0.355,3.378
				C50.85,42.873,50.589,42.98,50.269,43.015z"/>
			<path id="XMLID_109_" fill="#292929" d="M59.514,38.357c0,0-0.344,0.142-0.794,0.142c-0.427,0-0.652-0.13-0.652-0.474
				c0-0.202,0.071-0.297,0.071-0.297c0.984,0,2.05-0.237,2.05-0.237s0.225,0.203,0.32,0.474l-0.273,1.186l-0.486,3.152
				c0.664-0.178,1.268-0.758,1.268-0.758s0.249,0.106,0.249,0.462c0,0.474-0.581,0.984-1.54,0.984c-0.652,0-0.865-0.238-0.758-0.984
				L59.514,38.357z M60.26,34.814c0.403,0,0.723,0.32,0.723,0.723c0,0.403-0.32,0.723-0.723,0.723s-0.723-0.32-0.723-0.723
				C59.538,35.134,59.857,34.814,60.26,34.814z"/>
			<path id="XMLID_107_" fill="#292929" d="M62.654,43.015c0,0-0.237-0.189-0.237-0.698c0-0.534,0.237-1.695,0.237-1.695
				l0.308-2.382c0,0-0.367,0.26-0.817,0.26c-0.427,0-0.652-0.13-0.652-0.474c0-0.202,0.071-0.297,0.071-0.297
				c0.983,0,2.027-0.237,2.027-0.237s0.201,0.119,0.32,0.356l-0.545,1.363c0.379-0.403,1.695-1.719,2.844-1.719
				c0.462,0,0.664,0.285,0.533,1.043l-0.652,3.769c0.664-0.178,1.268-0.758,1.268-0.758s0.249,0.106,0.249,0.462
				c0,0.474-0.58,0.984-1.54,0.984c-0.687,0-0.889-0.261-0.747-1.091l0.616-3.673c0,0-1.197,0.438-2.346,1.268l-0.356,3.378
				C63.235,42.873,62.974,42.98,62.654,43.015z"/>
			<path id="XMLID_104_" fill="#292929" d="M71.105,35.679c-0.427,0-0.652-0.13-0.652-0.474c0-0.202,0.071-0.296,0.071-0.296
				c0.984,0,2.074-0.237,2.074-0.237s0.225,0.201,0.32,0.474l-0.273,1.185l-0.687,5.973c0.687-0.189,1.268-0.758,1.268-0.758
				s0.249,0.106,0.249,0.462c0,0.427-0.486,0.984-1.636,0.984c-0.699,0-0.901-0.416-0.45-1.316
				c-0.545,0.652-1.564,1.363-2.275,1.363c-0.557,0-1.007-0.414-1.007-1.86c0-1.955,1.256-3.686,2.607-3.686
				c0.486,0,0.758,0.225,0.901,0.427l0.285-2.382C71.899,35.537,71.555,35.679,71.105,35.679z M71.211,41.355l0.344-2.938
				c-0.154-0.071-0.462-0.178-0.841-0.178c-1.019,0-1.718,0.877-1.718,2.749c0,1.102,0.189,1.209,0.415,1.209
				C69.825,42.197,70.773,41.628,71.211,41.355z"/>
			<path id="XMLID_102_" fill="#292929" d="M74.672,43.015c0,0-0.237-0.189-0.237-0.698c0-0.534,0.237-1.695,0.237-1.695
				l0.296-2.382c0,0-0.355,0.26-0.806,0.26c-0.426,0-0.652-0.13-0.652-0.474c0-0.202,0.071-0.297,0.071-0.297
				c0.984,0,2.027-0.237,2.027-0.237s0.225,0.203,0.32,0.474l-0.474,1.257c1.09-0.735,1.801-1.731,1.801-1.731s0.509,0,0.509,0.498
				c0,0.558-0.711,1.197-2.169,1.565l-0.344,3.319C75.253,42.873,74.992,42.98,74.672,43.015z"/>
			<path id="XMLID_100_" fill="#292929" d="M82.138,42.304c0.664-0.178,1.269-0.758,1.269-0.758s0.248,0.106,0.248,0.462
				c0,0.498-0.604,0.984-1.587,0.984c-0.593,0-0.747-0.178-0.747-0.498c0-0.296,0.178-0.652,0.273-0.818
				c-0.403,0.403-1.446,1.363-2.406,1.363c-0.533,0-0.758-0.273-0.758-0.77c0-1.079,0.486-3.911,0.486-3.911
				s-0.391,0.142-0.841,0.142c-0.392,0-0.605-0.154-0.605-0.474c0-0.202,0.071-0.297,0.071-0.297c0.984,0,2.027-0.237,2.027-0.237
				s0.213,0.19,0.32,0.474c0,0-0.522,2.347-0.64,4.303c0.972-0.19,1.812-0.711,2.168-0.949l0.451-3.686c0,0,0.308-0.106,0.628-0.142
				c0,0,0.249,0.178,0.249,0.699c0,0.593-0.261,1.695-0.261,1.695L82.138,42.304z"/>
			<path id="XMLID_98_" fill="#292929" d="M84.651,43.015c0,0-0.237-0.189-0.237-0.698c0-0.534,0.237-1.695,0.237-1.695l0.593-5.084
				c0,0-0.343,0.143-0.795,0.143c-0.426,0-0.651-0.13-0.651-0.474c0-0.202,0.07-0.296,0.07-0.296c0.984,0,2.074-0.237,2.074-0.237
				s0.225,0.201,0.32,0.474l-0.272,1.185l-0.202,1.706c0.628-0.201,1.635-0.486,2.311-0.486c0.521,0,0.71,0.285,0.71,0.676
				c0,0.876-1.588,2.251-1.588,2.251l0.581,1.825c0.664-0.178,1.268-0.758,1.268-0.758s0.249,0.106,0.249,0.462
				c0,0.498-0.64,0.984-1.434,0.984c-0.64,0-0.889-0.215-1.067-0.855l-0.486-1.729c0,0,1.517-1.256,1.517-1.861
				c0-0.178-0.083-0.261-0.083-0.261l-2.05,0.367l-0.497,4.219C85.221,42.873,84.971,42.98,84.651,43.015z"/>
			<path id="XMLID_96_" fill="#292929" d="M96.656,37.492c0,0,0.451,0.273,0.451,1.174c0,2.358-1.813,4.373-3.022,4.373
				c-0.426,0-0.616-0.154-0.616-0.616c0-0.344,0.13-0.936,0.261-1.423c-0.712,1.186-1.826,2.039-2.667,2.039
				c-0.439,0-0.64-0.19-0.64-0.616c0-0.605,0.439-2.631,0.368-4.065c0,0-0.391,0.142-0.818,0.142c-0.426,0-0.628-0.154-0.628-0.474
				c0-0.202,0.072-0.297,0.072-0.297c0.959,0,2.002-0.237,2.002-0.237s0.19,0.131,0.296,0.356c0,0-0.047,1.955-0.451,4.504
				c1.825-0.663,2.24-2.631,2.24-2.631l-0.296-2.05c0,0,0.296-0.142,0.758-0.142c0,0,0.451,0.272,0.451,1.173
				c0,0.522-0.119,1.019-0.297,1.505c0,0.036,0,0.972,0.13,2.11c1.719-0.7,1.944-2.632,1.944-2.632l-0.297-2.05
				C95.898,37.634,96.195,37.492,96.656,37.492z"/>
			<path id="XMLID_93_" fill="#292929" d="M98.601,41.119c0.023,0.959,0.461,1.209,0.959,1.209c1.031,0,2.098-0.889,2.098-0.889
				s0.225,0.119,0.225,0.439c0,0.592-1.066,1.161-2.276,1.161c-1.125,0-1.825-0.474-1.825-1.825c0-2.061,1.244-3.721,2.749-3.721
				c0.688,0,1.469,0.831,1.469,2.015C102.002,40.727,99.063,41.071,98.601,41.119z M98.625,40.538
				c0.687-0.095,2.429-0.415,2.429-0.996c0-1.031-0.688-1.434-0.688-1.434C99.573,38.251,98.779,39.152,98.625,40.538z"/>
			<path id="XMLID_91_" fill="#292929" d="M103.282,43.015c0,0-0.237-0.189-0.237-0.698c0-0.534,0.237-1.695,0.237-1.695
				l0.593-5.084c0,0-0.343,0.143-0.794,0.143c-0.427,0-0.652-0.13-0.652-0.474c0-0.202,0.071-0.296,0.071-0.296
				c0.983,0,2.074-0.237,2.074-0.237s0.225,0.201,0.32,0.474l-0.273,1.185l-0.201,1.706c0.628-0.201,1.636-0.486,2.311-0.486
				c0.522,0,0.712,0.285,0.712,0.676c0,0.876-1.588,2.251-1.588,2.251l0.581,1.825c0.663-0.178,1.268-0.758,1.268-0.758
				s0.25,0.106,0.25,0.462c0,0.498-0.64,0.984-1.435,0.984c-0.64,0-0.889-0.215-1.066-0.855l-0.486-1.729
				c0,0,1.517-1.256,1.517-1.861c0-0.178-0.083-0.261-0.083-0.261l-2.051,0.367l-0.498,4.219
				C103.851,42.873,103.603,42.98,103.282,43.015z"/>
			<path id="XMLID_89_" fill="#292929" d="M108.948,43.015c0,0-0.237-0.189-0.237-0.698c0-0.534,0.237-1.695,0.237-1.695
				l0.593-5.084c0,0-0.344,0.143-0.793,0.143c-0.428,0-0.653-0.13-0.653-0.474c0-0.202,0.071-0.296,0.071-0.296
				c0.984,0,2.075-0.237,2.075-0.237s0.225,0.201,0.32,0.474l-0.273,1.185l-0.202,1.706c0.628-0.201,1.636-0.486,2.311-0.486
				c0.522,0,0.711,0.285,0.711,0.676c0,0.876-1.588,2.251-1.588,2.251l0.581,1.825c0.664-0.178,1.268-0.758,1.268-0.758
				s0.249,0.106,0.249,0.462c0,0.498-0.64,0.984-1.434,0.984c-0.64,0-0.889-0.215-1.066-0.855l-0.486-1.729
				c0,0,1.517-1.256,1.517-1.861c0-0.178-0.083-0.261-0.083-0.261l-2.05,0.367l-0.498,4.219
				C109.516,42.873,109.267,42.98,108.948,43.015z"/>
			<path id="XMLID_86_" fill="#292929" d="M114.885,41.119c0.024,0.959,0.462,1.209,0.96,1.209c1.031,0,2.097-0.889,2.097-0.889
				s0.225,0.119,0.225,0.439c0,0.592-1.066,1.161-2.275,1.161c-1.126,0-1.825-0.474-1.825-1.825c0-2.061,1.244-3.721,2.749-3.721
				c0.687,0,1.469,0.831,1.469,2.015C118.287,40.727,115.348,41.071,114.885,41.119z M114.909,40.538
				c0.687-0.095,2.429-0.415,2.429-0.996c0-1.031-0.687-1.434-0.687-1.434C115.858,38.251,115.064,39.152,114.909,40.538z"/>
			<path id="XMLID_84_" fill="#292929" d="M119.757,43.015c0,0-0.237-0.189-0.237-0.698c0-0.534,0.237-1.695,0.237-1.695
				l0.309-2.382c0,0-0.368,0.26-0.818,0.26c-0.426,0-0.652-0.13-0.652-0.474c0-0.202,0.072-0.297,0.072-0.297
				c0.984,0,2.027-0.237,2.027-0.237s0.201,0.119,0.32,0.356l-0.545,1.363c0.378-0.403,1.694-1.719,2.844-1.719
				c0.462,0,0.664,0.285,0.533,1.043l-0.652,3.769c0.664-0.178,1.268-0.758,1.268-0.758s0.249,0.106,0.249,0.462
				c0,0.474-0.581,0.984-1.541,0.984c-0.687,0-0.889-0.261-0.747-1.091l0.617-3.673c0,0-1.197,0.438-2.346,1.268l-0.357,3.378
				C120.337,42.873,120.077,42.98,119.757,43.015z"/>
			<path id="XMLID_81_" fill="#292929" d="M128.207,35.679c-0.427,0-0.652-0.13-0.652-0.474c0-0.202,0.071-0.296,0.071-0.296
				c0.984,0,2.074-0.237,2.074-0.237s0.226,0.201,0.32,0.474l-0.273,1.185l-0.686,5.973c0.686-0.189,1.267-0.758,1.267-0.758
				s0.249,0.106,0.249,0.462c0,0.427-0.486,0.984-1.635,0.984c-0.699,0-0.901-0.416-0.45-1.316
				c-0.546,0.652-1.564,1.363-2.275,1.363c-0.558,0-1.007-0.414-1.007-1.86c0-1.955,1.256-3.686,2.607-3.686
				c0.486,0,0.758,0.225,0.901,0.427l0.285-2.382C129.001,35.537,128.657,35.679,128.207,35.679z M128.314,41.355l0.343-2.938
				c-0.154-0.071-0.463-0.178-0.841-0.178c-1.019,0-1.718,0.877-1.718,2.749c0,1.102,0.19,1.209,0.415,1.209
				C126.928,42.197,127.876,41.628,128.314,41.355z"/>
			<path id="XMLID_78_" fill="#292929" d="M132.414,41.522c0.427,0,0.759,0.331,0.759,0.759c0,0.426-0.332,0.758-0.759,0.758
				c-0.426,0-0.758-0.332-0.758-0.758C131.656,41.853,131.988,41.522,132.414,41.522z M132.983,40.657c0,0-0.107,0.047-0.403,0.047
				c-0.296,0-0.38-0.047-0.38-0.047l0.451-5.179c0,0,0.166-0.059,0.533-0.059c0.344,0,0.498,0.059,0.498,0.059L132.983,40.657z"/>
		</g>
		<path id="XMLID_74_" fill="#292929" d="M21.209,26.394l0.145-2.008V13.993l-1.95-0.116c0,0-0.407-0.961-0.087-2.154
			c0,0,2.969-0.146,7.918-0.146c5.415,0,6.957,2.853,6.957,5.298c0,3.29-2.765,6.113-8.849,6.259v3.26l2.795-0.116
			c0,0,0.175,0.32,0.175,0.96c0,0.874-0.495,1.514-1.776,1.514h-7.132c0,0-0.32-0.989-0.087-2.154L21.209,26.394z M25.342,21.008
			c3.289-0.146,4.716-1.834,4.716-3.959c0-1.834-0.961-3.115-3.29-3.115c-0.437,0-0.902,0.029-1.281,0.058l-0.145,2.096V21.008z"/>
		<path id="XMLID_71_" fill="#292929" d="M48.336,26.394l0.145-2.038v-6.462c0,0-0.32,0.087-0.786,0.087
			c-1.048,0-1.601-0.611-1.601-1.659c0-0.582,0.145-0.815,0.145-0.815c2.969,0,6.055-0.349,6.055-0.349
			c0.349,0.175,0.524,0.582,0.524,0.582l-0.378,3.086v7.569l1.717-0.116c0,0,0.175,0.32,0.175,0.96c0,0.874-0.495,1.514-1.776,1.514
			h-5.735c0,0-0.32-0.989-0.087-2.154L48.336,26.394z M50.373,8.927c1.485,0,2.329,1.077,2.329,2.387
			c0,1.397-1.048,2.358-2.387,2.358c-1.397,0-2.387-0.961-2.387-2.358C47.928,10.004,48.889,8.927,50.373,8.927z"/>
		<path id="XMLID_69_" fill="#292929" d="M65.739,26.394l0.146-2.038v-3.522c0-1.514-0.408-2.358-2.067-2.358
			c-0.99,0-1.863,0.378-2.387,0.669v7.248l1.426-0.116c0,0,0.175,0.291,0.175,0.96s-0.32,1.514-1.601,1.514h-5.618
			c0,0-0.32-0.989-0.087-2.154l1.601-0.204l0.145-2.038v-6.375c0,0-0.233,0.058-0.64,0.058c-1.048,0-1.601-0.611-1.601-1.659
			c0-0.582,0.146-0.873,0.146-0.873c2.969,0,5.909-0.349,5.909-0.349c0.349,0.175,0.524,0.611,0.524,0.611l-0.786,2.445
			c0.786-1.223,2.387-3.057,4.862-3.057c2.824,0,3.959,1.747,3.959,4.512v6.724l1.718-0.116c0,0,0.175,0.291,0.175,0.96
			s-0.349,1.514-1.776,1.514H64.4c0,0-0.291-0.873-0.087-2.154L65.739,26.394z"/>
		<path id="XMLID_67_" fill="#292929" d="M73.657,15.215l0.233-2.795c0,0,1.485-0.699,3.872-0.146l-0.378,3.231l3.523-0.262
			c0,0,0.233,0.262,0.233,0.99c0,1.252-0.757,1.921-2.707,1.805l-0.961-0.058v6.521c0,1.31,0.408,1.63,1.543,1.63
			c1.281,0,2.533-0.378,2.533-0.378s0.233,0.291,0.233,0.96c0,1.31-0.815,2.212-4.017,2.212c-2.998,0-4.134-1.135-4.134-3.901
			v-7.248l-1.98-0.117c0,0-0.262-0.902,0.087-2.009C72.435,15.535,73.075,15.39,73.657,15.215z"/>
		<path id="XMLID_13_" fill="#292929" d="M35.529,28.721h6.288c1.134,0,1.758-0.519,1.758-1.463c0-0.533-0.111-0.821-0.154-0.908
			l-2.276-0.009c-0.035,0-0.037,0.003-0.062,0.003v-6.616c0.049,0,0.154-0.005,0.201-0.005c1.267,0,3.887-1.067,3.999-2.466
			c0.054-0.691-0.076-1.216-0.391-1.556c-0.296-0.322-0.756-0.487-1.371-0.489c-0.141,0.14-2.826,2.888-2.851,2.872
			c-0.022-0.014,0.873-2.411,0.584-2.845c-0.049-0.078-0.134-0.106-0.247-0.087c-0.032,0.002-2.975,0.348-5.922,0.351
			c-0.035,0.092-0.125,0.366-0.125,0.82c0,1.039,0.553,1.611,1.55,1.611c0.399,0,0.63-0.054,0.633-0.058
			c0.018-0.001,0.057-0.017,0.074-0.023v6.501l-0.146,2.103c-0.023,0.006-0.023,0.005-0.053,0.01l-1.57,0.197
			C35.26,27.659,35.473,28.524,35.529,28.721"/>
		<path id="XMLID_63_" fill="#292929" d="M125.006,26.085c0,0-1.763,0.058-1.783,0.058V20.28c0-3.786-1.327-5.127-5.07-5.127
			c-4.342,0-5.89,1.53-5.89,2.96c0,1.132,0.883,1.553,1.069,1.628c0.231-0.232,1.862-1.806,3.826-1.806
			c2.019,0,2.432,0.938,2.432,2.346v0.942h-0.061c-0.301-0.014-0.598-0.021-0.883-0.021c-5.785,0-6.998,2.401-6.998,4.414
			c0,2.225,1.387,3.4,4.016,3.4c2.932,0,4.391-2.366,4.38-2.336c-0.262,0.67-0.225,1.237,0.024,1.604
			c0.29,0.425,0.93,0.644,1.897,0.644c2.176,0,3.281-0.632,3.281-1.874C125.245,26.553,125.064,26.19,125.006,26.085
			 M119.471,26.183c-0.412,0.118-1.208,0.339-2.02,0.339c-1.209,0-1.903-0.512-1.903-1.404c0-0.764,0.311-1.642,2.753-1.642
			c0.341,0,0.724,0.018,1.17,0.053V26.183z"/>
		<path id="XMLID_49_" fill="#292929" d="M126.138,28.721h5.875c1.132,0,1.729-0.507,1.729-1.463c0-0.507-0.111-0.814-0.154-0.908
			c0,0-1.667,0.052-1.751,0.052V12.103l0.382-3.114c0-0.006,0.016-0.112-0.058-0.201c-0.075-0.087-0.212-0.132-0.411-0.132
			c-0.031,0-3.104,0.012-6.057,0.105c-0.036,0.09-0.125,0.363-0.125,0.82c0,1.04,0.549,1.612,1.551,1.612
			c0.399,0,0.703-0.072,0.703-0.069c0,0.016,0.002,13.232,0.002,13.232l-0.146,2.098c-0.131,0.028-1.621,0.212-1.621,0.212
			C125.869,27.659,126.082,28.524,126.138,28.721"/>
		<path id="XMLID_59_" fill="#292929" d="M97.251,26.231c0,0-1.65,0.057-1.67,0.056l-0.001-14.184l0.381-3.026
			c0.003-0.009,0.04-0.165-0.05-0.28c-0.074-0.099-0.214-0.145-0.42-0.145c-0.007,0-0.669-0.018-1.656-0.018
			c-1.112,0-2.773,0.023-4.397,0.128c-0.034,0.089-0.129,0.363-0.129,0.82c0,1.04,0.554,1.611,1.553,1.611
			c0.426,0,0.744-0.085,0.747-0.085c0.017-0.005,0.058-0.013,0.074-0.02v4.278c-0.122-0.013-0.651-0.039-0.995-0.039
			c-5.163,0-8.499,2.982-8.499,7.591c0,3.74,2.189,6.067,5.713,6.067c2.855,0,4.216-2.008,4.437-2.165
			c-0.206,0.67-0.141,1.194,0.099,1.52c0.294,0.393,0.937,0.586,1.969,0.586c1.985,0,3.077-0.624,3.077-1.759
			C97.485,26.668,97.306,26.326,97.251,26.231 M91.567,25.752c-0.407,0.178-0.974,0.271-1.642,0.271
			c-2.382,0-3.487-1.173-3.487-3.691c0-3,1.345-4.338,4.364-4.338c0.278,0,0.52,0,0.764,0.025V25.752z"/>
		<path id="XMLID_52_" fill="#292929" d="M109.491,24.657c-0.27,0.193-2.273,1.574-4.431,1.574c-2.24,0-3.344-0.921-3.575-2.983
			c-0.002-0.017,0.002-0.035,0.015-0.047c0.011-0.014,0.027-0.021,0.045-0.021h8.618c0.192-2.989-0.341-5.173-1.576-6.495
			c-0.951-1.016-2.335-1.532-4.113-1.532c-4.066,0-6.593,2.953-6.593,7.707c0,4.006,2.382,6.212,6.712,6.212
			c4.124,0,5.594-1.529,5.594-2.958C110.188,25.114,109.631,24.739,109.491,24.657 M104.27,17.76c0.561,0,1.015,0.176,1.351,0.525
			c0.506,0.526,0.742,1.445,0.7,2.728h-4.681C101.878,18.885,102.79,17.76,104.27,17.76"/>
		<g id="XMLID_57_">
			<path id="XMLID_58_" fill="#292929" d="M144.879,11.38c0,0-0.231,0.058-0.636,0.058c-1.041,0-1.59-0.607-1.59-1.648
				c0-0.578,0.144-0.867,0.144-0.867c2.949,0,6.013-0.289,6.013-0.289c0.347,0.173,0.52,0.578,0.52,0.578l-0.376,3.064v4.856
				c0.752-1.156,2.11-1.908,3.874-1.908c3.353,0,5.492,2.313,5.492,6.042c0,4.596-3.353,7.718-8.904,7.718
				c-2.688,0-4.828-0.694-4.828-0.694l0.289-3.96V11.38z M148.955,18.722v7.718c0.318,0.058,0.636,0.058,1.07,0.058
				c2.313,0,4.105-1.359,4.105-4.625c0-2.602-1.214-3.729-3.267-3.729C149.794,18.144,149.186,18.52,148.955,18.722z"/>
			<path id="XMLID_62_" fill="#292929" d="M170.895,24.59c0,0,0.752,0.347,0.752,1.503c0,1.33-1.33,2.977-5.579,2.977
				c-4.22,0-6.678-2.139-6.678-6.186c0-4.481,2.37-7.661,6.562-7.661c3.816,0,6.042,2.371,5.666,8.036h-8.557
				c0.231,2.052,1.33,2.891,3.469,2.891C168.814,26.151,170.895,24.59,170.895,24.59z M163.09,21.121h4.741
				c0.087-2.226-0.665-3.324-2.081-3.324C164.275,17.797,163.322,18.924,163.09,21.121z"/>
		</g>
	</g>
</g>
<path fill="#E74E0F" d="M-9.743,29.599L-9.743,29.599l-0.127-0.022C-9.827,29.583-9.784,29.593-9.743,29.599z"/>
<path fill="#E74E0F" d="M-12.703,23.734c0.034-0.045,0.076-0.083,0.124-0.111c1.077-0.662,1.186-1.048,1.071-1.672
	c-0.062-0.226-0.109-0.451-0.149-0.669c-0.02-0.098-0.043-0.195-0.062-0.305h0.018c-0.336-2.634,0.447-4.781,1.549-5.356
	c1.019-0.538,2.262-0.447,3.912,0.166c-0.789-0.709-2.506-1.042-4.442-0.961c-0.321,0.426-0.605,0.88-0.848,1.357
	c-0.502,0.976-0.783,2.055-0.823,3.157c-0.016,0.671,0.062,1.34,0.231,1.988c0.086,0.32,0.189,0.634,0.308,0.943
	c0.025,0.062,0.072,0.111,0.01,0.149l-0.231,0.138c-1.829,1.103-3.648,2.221-5.451,3.371c-0.326,0.207-0.652,0.417-0.981,0.624
	c-0.122,0.079-0.245,0.156-0.368,0.232c-0.101,0.094-0.152,0.232-0.137,0.372c-0.045,0.32-0.08,0.639-0.103,0.961
	c-0.094,1.322,0.007,2.651,0.297,3.942c0.275,1.247,0.744,2.44,1.388,3.533c0.327,0.55,0.705,1.065,1.13,1.54
	c0.394,0.437,0.774,0.667,0.475,0.435l0.19,0.125c-0.132-0.141-0.264-0.283-0.388-0.435c-2.077-2.549-3.271-7.684-1.505-10.504
	C-16.903,25.815-15.207,25.133-12.703,23.734z"/>
<path fill="#E74E0F" d="M-9.88,29.555c0.005,0.006,0.008,0.013,0.011,0.02l-0.002-0.02H-9.88z"/>
<path fill="#E74E0F" d="M10.459,21.504c0,0.021,0,0.019,0-0.006c0-0.012,0-0.022,0-0.036l-0.035-0.3
	c-0.57-4.615-2.916-8.804-6.514-11.631C3.773,9.422,3.635,9.309,3.495,9.203c0.782,0.632,1.509,1.333,2.171,2.095
	c1.81,2.075,3.089,4.58,3.721,7.288c0.633,2.839,0.515,5.799-0.342,8.575c-0.43,1.389-0.965,2.742-1.6,4.045
	c-0.583,1.363-1.295,2.664-2.125,3.885c-0.885,1.174-1.892,2.244-3.004,3.193c-0.545,0.477-1.114,0.92-1.693,1.346
	c-0.551,0.446-1.176,0.787-1.845,1.007c1.728-1.06,3.279-2.397,4.595-3.96l1.283-1.889c0,0,0.452-0.767,0.655-1.146l0.313-0.603
	c1.915-3.666,2.56-7.891,1.83-11.982c0.017,0.111,0.037,0.221,0.051,0.332c0.354,2.934-0.047,5.913-1.164,8.638
	c-0.735,1.845-1.75,3.559-3.006,5.078c-0.622,0.751-1.304,1.447-2.039,2.081c-0.842,0.634-1.737,1.192-2.672,1.668
	c4.825-2.797,8.051-7.799,8.676-13.451c0.54-4.172-0.723-8.377-3.456-11.513c0.047,0.029,0.099,0.05,0.153,0.06
	c-0.008-0.085-0.045-0.163-0.105-0.222c1.155,1.018,2.07,2.291,2.679,3.723C4.522,11.331-1.046,5.606-8.433,6.232
	c0,0,1.588-0.128,2.834-0.151C3.215,6.882,7.162,16.478,7.785,19.014c0.693,2.517,0.767,5.172,0.215,7.726
	c-0.538,2.18-1.31,4.293-2.303,6.298L5.31,33.81l-0.013,0.022c-0.512,0.884-1.074,1.736-1.683,2.552l0.158-0.241
	c-0.067,0.098-0.128,0.195-0.197,0.287l0.04-0.047c-0.027,0.04-0.056,0.079-0.086,0.115c0.344-0.399,0.667-0.817,0.967-1.252
	l-0.01,0.013L4.5,35.241v0.006c0.398-0.575,0.68-1.207,1.03-1.81c0.372-0.645,0.72-1.299,1.045-1.968
	c0.586-1.205,1.074-2.457,1.459-3.744c0.651-2.15,0.933-4.4,0.831-6.649c-0.188-3.404-1.331-6.68-3.292-9.432
	C4.938,10.734,4.2,9.903,3.375,9.169C3.124,8.941,2.853,8.737,2.566,8.558C1.559,7.99,0.506,7.511-0.581,7.129
	C-1.516,6.772-2.475,6.487-3.45,6.275c-0.368-0.077-0.743-0.118-1.099-0.228c-0.619-0.15-1.257-0.202-1.891-0.153
	c-1.431,0.06-2.854,0.251-4.252,0.571c-1.368,0.26-2.697,0.7-3.955,1.309c0.746-0.379,1.468-0.815,2.238-1.141
	c0.699-0.29,1.421-0.518,2.158-0.684C-8.67,5.595-7.058,5.404-5.44,5.378c-0.395,0.012,0.016,0,0,0
	c0.4-0.04,0.802-0.045,1.202-0.015h0.024c-2.876-0.639-5.867-0.462-8.653,0.513c-2.571,0.918-4.904,2.425-6.823,4.407
	c-1.923,1.977-3.429,4.339-4.426,6.938c-0.431,1.068-0.722,2.19-0.865,3.337c-0.088,0.278-0.045,0.582,0.115,0.823
	c0.27,0.253,0.594-0.174,0.718-0.382c0.031-0.051,0.058-0.105,0.086-0.16c0.965-3.98,3.139-7.541,6.208-10.167
	c-0.048,0.066-0.095,0.13-0.141,0.195c0.067-0.06,0.132-0.123,0.198-0.182c-1.311,1.763-2.46,3.647-3.432,5.629h-0.016v0.036
	c0.221-0.343,0.454-0.679,0.699-1.007c0.048-0.066,0.105-0.13,0.157-0.195l0,0l0,0c0.722-0.935,1.548-1.781,2.461-2.518
	c0.387-0.362,0.792-0.703,1.214-1.023c0.42-0.318,0.856-0.614,1.306-0.886c0.549-0.331,1.118-0.625,1.705-0.878
	c0.034-0.014,0.067-0.026,0.095-0.042c-0.235,0.126-0.469,0.259-0.698,0.396c-0.451,0.271-0.887,0.566-1.306,0.886
	c-0.421,0.319-0.825,0.66-1.213,1.022c-2.522,2.112-4.397,4.926-5.401,8.105c-0.004,0.002-0.009,0.002-0.013,0v0.006
	c0.001,0.059,0.039,0.111,0.095,0.126c0.158-0.035,0.301-0.122,0.408-0.246c0.409-0.353,0.758-0.774,1.031-1.245
	c0.213-0.577,0.432-1.15,0.678-1.711c0.341-0.832,0.788-1.614,1.33-2.324c0.56-0.671,1.188-1.279,1.874-1.813
	c0.945-0.833,1.946-1.599,2.994-2.291c1.266-0.734,2.665-1.195,4.11-1.357c2.868-0.328,5.763,0.298,8.259,1.786
	c0.611,0.347,1.202,0.731,1.77,1.15h0.021c-0.95-0.77-1.975-1.436-3.059-1.988c-1.957-1.039-4.137-1.557-6.34-1.506
	c-1.557,0.054-3.091,0.394-4.53,1.005C-9.855,7.78-5.384,7.778-1.64,9.795c2.003,0.993,3.783,2.403,5.227,4.14
	c1.394,1.715,2.358,3.755,2.808,5.94c0.442,2.211,0.423,4.493-0.056,6.696c-0.44,2.066-1.223,4.038-2.315,5.831
	c-0.19,0.36-0.392,0.716-0.609,1.062c-0.121,0.195-0.244,0.39-0.374,0.585c-0.317,0.472-0.652,0.925-1.006,1.359
	c-1.348,1.537-2.906,2.866-4.626,3.944c-0.077,0.036-0.154,0.064-0.231,0.098c-1.224,0.507-2.51,0.838-3.822,0.983
	c-0.069,0.051-0.159,0.063-0.239,0.032c-0.212-0.003-0.422,0.03-0.623,0.098c-0.319,0.053-0.639,0.098-0.961,0.13
	c-0.008-0.126,0.04-0.263-0.102-0.255c-0.258,0.013-0.515,0.019-0.773,0.017c-0.517-0.005-1.034-0.042-1.547-0.111
	c-1.068-0.146-2.117-0.412-3.128-0.793c-0.758-0.278-1.49-0.627-2.186-1.042c-0.045-0.028-0.088-0.059-0.129-0.093
	c0.451,0.546,0.969,1.03,1.54,1.44c1.895,1.194,4.121,1.716,6.333,1.484c0.416-0.017,0.603-0.024,0.639-0.022
	c2.217,0.033,4.429-0.205,6.591-0.71c-0.288,0.281-0.639,0.486-1.023,0.597c-1.333,0.454-2.707,0.771-4.102,0.944
	c-1.467,0.082-2.937,0.063-4.401-0.059c-0.697-0.063-1.39-0.17-2.075-0.319c-0.698-0.211-1.382-0.466-2.049-0.764
	c-0.624-0.279-1.194-0.673-1.68-1.163c-0.488-0.464-0.946-0.96-1.37-1.485c0.014,0.017,0.034,0.032,0.049,0.047
	c-0.163-0.19-0.325-0.378-0.47-0.55c-0.739-0.883-1.334-1.882-1.763-2.959c-0.877-2.324-1.166-4.839-0.839-7.309
	c-0.012,0.676,0.027,1.351,0.115,2.021c0-0.034,0-0.069,0-0.098v-0.025c-0.022-0.768,0.065-1.535,0.257-2.277
	c0.119-0.573,0.351-1.116,0.682-1.593c0.357-0.396,0.779-0.726,1.245-0.976c0.482-0.301,0.963-0.611,1.441-0.92
	c0.416-0.251,0.791-0.569,1.109-0.943c0.148-0.189,0.272-0.397,0.37-0.619c0.06-0.137,0.107-0.28,0.142-0.426
	c0.014-0.094,0.033-0.187,0.058-0.279l0,0c0-0.014,0.006-0.026,0.008-0.042c-1.568,0.697-3.075,1.531-4.504,2.494
	c-0.349,0.241-0.685,0.504-1.004,0.786c-0.253,0.297-0.42,0.659-0.484,1.048c-0.266,0.918-0.444,1.86-0.531,2.813
	c-0.07-0.49-0.513-0.83-0.99-0.76c-0.361,0.242-0.581,0.653-0.585,1.096c-0.062,0.69,0.018,1.386,0.234,2.043
	c0.208,0.697,0.519,1.358,0.92,1.96c-0.979-0.002-0.393,1.218-0.134,1.689c0.272,0.502,0.587,0.978,0.941,1.423
	c0.46,0.577,0.917,1.165,1.394,1.735c0.966,1.007,2.099,1.829,3.346,2.427c0.623,0.353,1.248,0.704,1.875,1.056
	c0.597,0.356,1.231,0.642,1.889,0.854c1.302,0.319,2.636,0.48,3.974,0.479c0.665,0.024,1.33,0.051,2.001,0.07
	c0.338,0.01,0.679,0.02,1.02,0.034c0.182,0.008,0.367,0.016,0.549,0.032c0.082-0.005,0.164,0.012,0.238,0.049
	c-0.207,0.058-0.417,0.102-0.63,0.132c-0.299,0.042-0.603,0.071-0.905,0.098c-0.607,0.047-1.215,0.061-1.824,0.042
	c-1.843-0.158-3.673-0.447-5.478-0.865c-1.17-0.3,5.874,2.319,11.339,0.607c4.56-1.565,8.371-4.85,10.662-9.19
	C9.848,29.911,10.78,25.707,10.459,21.504z"/>
<path fill="#E74E0F" d="M-11.544,35.467c-0.567-0.751-1.065-1.554-1.487-2.4c-0.341-0.712-0.532-1.489-0.562-2.281
	c0.108-1.124,1.056-1.963,2.155-1.907c0.198-0.015,0.397-0.019,0.596-0.01h0.053c0.161,0.01,0.106,0.182,0.304,0.208
	c0.699,0.083,0.475,0.439,0.485,0.439l0.119,0.028c0.001,0.008,0.003,0.015,0.007,0.022c0.048,0.017,0.095,0.028,0.13,0.042
	c0.018,0.004,0.037,0.008,0.055,0.01l0.25,0.041c-0.278-1.218-0.045-2.499,0.641-3.533c0.266-0.417,0.81-0.534,1.217-0.262
	c0.03,0.02,0.059,0.043,0.087,0.067c0.136,0.081,0.241,0.207,0.297,0.358c-0.059,0.378-0.085,0.761-0.078,1.144
	c-0.012,0.771,0.188,1.529,0.576,2.188c0.395,0.703,0.601,1.502,0.596,2.313l0,0l0.008-0.015c0.031-0.059,0.115-0.322,0.15-0.424
	c0.01-0.019,0.016-0.04,0.027-0.06c0.004-0.009,0.008-0.017,0.013-0.024c0.041-0.084,0.09-0.163,0.145-0.237
	c0.211-0.244,0.518-0.379,0.836-0.366c0.147-0.019,0.292-0.042,0.438-0.06c0.035,0,0.068-0.01,0.103-0.015l0.254-0.04
	c0.301-0.047,0.603-0.093,0.906-0.143c0.028,0,0.056-0.008,0.084-0.012c1.578-0.257,3.155-0.507,4.719-0.841
	c0.241-0.053,0.482-0.098,0.721-0.154c0.008-0.003,0.017-0.005,0.026-0.006c0,0.091,0.021,0.368,0.012,0.573
	c-0.008,0.04-0.012,0.082-0.012,0.123v0.006c-0.005,0.031-0.017,0.061-0.035,0.087l-0.029,0.017
	c-1.996,0.372-1.901,0.01-6.511,0.714c0.015,0.053,0.037,0.149,0.061,0.253h-0.009c0.018,0.062,0.036,0.125,0.052,0.186
	c0.019,0.081,0.035,0.153,0.046,0.195l0,0l4.769-0.914l-0.19,1.161c0,0-4.154,2.055-4.143,2.181c0.373,0.268,0.869,0.268,1.242,0
	c0.435-0.204,0.985-0.407,1.409-0.635c1.058-0.56,1.654-0.904,2.669-1.542c0.491-0.232,0.896-0.619,1.158-1.104
	c0.115-0.263,0.179-0.547,0.19-0.835c0.03-0.878,0.173-1.756,0.276-2.634c0.152-0.953,0.162-1.923,0.03-2.879
	c-0.089-0.581-0.399-1.101-0.861-1.448c-0.917-0.496-1.892-0.869-2.901-1.11c-0.533-0.174-1.037-0.43-1.495-0.76
	c-0.255-0.162-0.446-0.411-0.541-0.703c-0.041-0.213-0.071-0.428-0.088-0.645c-0.11-1.225-0.022-2.458-0.135-3.681
	c-0.089-0.984-0.321-2.352-1.31-2.822l-0.013-0.006l-0.04-0.015c1.22,1.412,0.656,4.715,0.983,6.6
	c-1.361-2.383-0.15-5.637-2.253-6.615c-1.12-0.272-2.271-0.389-3.421-0.348c-0.009,0.001-0.018,0.001-0.027,0
	c-0.077,0-0.153-0.006-0.231-0.006h-0.021c-1.312-0.028-2.601,0.022-3.157,0.038v0.014c-0.223,0.083-0.431,0.2-0.619,0.348
	c-0.552,0.379-1.034,0.854-1.425,1.404c-0.386,0.583-0.658,1.239-0.798,1.929c-0.078,0.333-0.133,0.672-0.163,1.014
	c-0.005,0.07-0.002,0.14,0.01,0.209c0.372,0.776,0.642,1.598,0.802,2.447c0.008,0.783-0.24,1.545-0.703,2.167
	c-0.689,0.819-1.533,1.486-2.48,1.96c-0.31,0.172-0.641,0.301-0.937,0.5c-0.295,0.202-0.526,0.488-0.665,0.823
	c-0.392,0.862-0.448,1.337-0.333,1.268c0.182-0.117,0.362-0.234,0.543-0.345c0.274-0.177,0.549-0.352,0.823-0.524
	c0.788-0.506,1.588-1.004,2.384-1.497c0.547-0.336,1.096-0.671,1.645-1.005l0.993-0.601c0.078-0.045,0.156-0.093,0.231-0.138
	s0.014-0.085-0.01-0.149c-0.466-1.164-0.632-2.431-0.481-3.68c0.14-0.995,0.469-1.952,0.967-2.818
	c0.18-0.321,0.378-0.63,0.594-0.926c0.083-0.115,0.168-0.228,0.256-0.338c0.04-0.051,0.08-0.098,0.118-0.153
	c0.086,0,0.175-0.016,0.262-0.02c0.161-0.01,0.32-0.019,0.482-0.026c-0.024,0-0.047,0-0.071,0c0.095-0.13,0.19-0.239,0.258-0.336
	c0.046-0.055,0.086-0.105,0.119-0.147c1.866-0.223,3.753,0.154,5.401,1.08c0.296,1.224,0.48,2.474,0.548,3.733l-0.147,2.273
	l-0.05,0.224l0.214,0.077c0.326,0.118,0.643,0.259,0.95,0.422c0.072,0.04,0.143,0.079,0.214,0.121
	c0.037,0.019,0.074,0.041,0.109,0.06l0.167,0.098l0.111,0.068l0.17,0.109l0.095,0.062l0.251,0.166
	c0.947,0.659,1.974,1.189,3.054,1.576c0.095,0.059,0.19,0.121,0.285,0.188c0.352,0.354-0.184,2.914-0.27,3.519
	c-0.276,0.293-0.597,0.538-0.95,0.724H-0.26c0.012-0.089,0.024-0.195,0.037-0.293v0.016c-0.629,0.18-1.255,0.374-1.89,0.538
	c-0.452,0.115-0.908,0.221-1.366,0.305c-0.258,0.06-0.521,0.098-0.786,0.111c-0.591-0.332-0.941-0.986-0.897-1.676
	c0.077-0.406,0.108-0.82,0.095-1.233c-0.034-0.21-0.103-0.413-0.205-0.598c0.097,0.849,0.097,1.706,0,2.554
	c-0.209,0.728-0.167-0.041-0.737,0.724c-0.279-1.072-0.349-2.191-0.206-3.291c0.17-0.198,0.361-0.375,0.57-0.528
	c-0.015-0.171-0.078-0.333-0.182-0.467c0,0,0.063,0.026-0.046-0.053c-0.731-0.569-1.649-0.822-2.559-0.705
	c-0.918,0.341-1.657,1.057-2.043,1.978c-0.114,0.246-0.204,0.503-0.269,0.767c-0.015,0.073-0.142,0.871-0.121,0.871
	c-0.229,0.006-0.458,0.02-0.686,0.04c-0.752,0.06-2.45,0.098-3.105,0.86c-0.317,0.423-0.481,0.945-0.464,1.478
	c0.011,0.203,0.079,0.399,0.198,0.562c0.164,0.282,0.236,0.61,0.205,0.937c-0.027,0.289,0.047,0.578,0.208,0.817
	c0.163,0.222-0.012,0.413,0.144,0.639c0.003,0.004,0.006,0.009,0.007,0.014c0.072,0.092,0.12,0.201,0.141,0.317
	c-0.08,0.434-0.039,0.882,0.118,1.293c0.318,0.323,0.699,0.573,1.118,0.736c0.523,0.851,1.455,1.343,2.433,1.284
	c0.057,0.036,0.112,0.075,0.163,0.119l0.019,0.017l0.052,0.047l0.095,0.006c0.095,0.01,0.199,0.012,0.297,0.012h0.054
	c0.073,0,0.145,0,0.218-0.008c0.566-0.047,1.126-0.154,1.671-0.32c0.019-0.004,0.038-0.01,0.056-0.017h0.006l0.095-0.026
	c0.398-0.401,0.753-0.844,1.061-1.321c0-0.006,0.006-0.014,0.01-0.019c0.015-0.026,0.027-0.053,0.036-0.081l-0.074,0.02
	c-0.695,0.174-1.622,0.415-2.315,0.546c-0.387,0.1-0.785,0.146-1.184,0.136c-0.434-0.118-0.855-0.284-1.255-0.494 M1.001,23.849
	c0.078,0.127,0.117,0.275,0.11,0.424c-1.224-0.391-2.385-0.966-3.445-1.706c0.839,0.561,1.986,0.353,3.332,1.289L1.001,23.849z
	 M-14.426,22.855l0.277-0.186c0.105-0.068,0.225-0.098,0.19-0.23c-0.084-0.371-0.151-0.744-0.202-1.118
	c-0.087-0.636-0.121-1.278-0.102-1.919c0.026-0.975,0.202-1.939,0.522-2.858c0.151-0.442,0.352-0.864,0.6-1.258
	c0.056-0.092,0.123-0.176,0.198-0.253c0.083-0.044,0.177-0.059,0.269-0.042c0.237,0.006,0.473,0.043,0.7,0.111
	c-1.487,2.272-1.976,5.08-1.348,7.74c-1.642,0.961-3.338,1.834-5.037,2.692C-17.048,24.635-15.741,23.737-14.426,22.855z"/>
<polygon fill="#E74E0F" points="-6.253,40.241 -6.262,40.247 -6.264,40.247 "/>
<path fill="#FFEC00" d="M9.386,18.585c-0.632-2.708-1.91-5.213-3.721-7.286c-0.662-0.763-1.388-1.464-2.171-2.095
	c0.14,0.103,0.278,0.217,0.418,0.326C2.607,8.425,1.174,7.489-0.354,6.743c-0.802-0.398-1.633-0.733-2.484-1.002
	c-0.429-0.134-0.855-0.254-1.293-0.352c-0.435-0.056-0.876-0.058-1.311-0.006c-1.617,0.023-3.228,0.213-4.808,0.566
	c-0.736,0.167-1.458,0.395-2.158,0.683c-0.771,0.326-1.492,0.764-2.238,1.141c1.256-0.609,2.584-1.048,3.951-1.306
	C-9.3,6.15-7.879,5.96-6.449,5.898c0.634-0.049,1.272,0.002,1.891,0.153c0.36,0.107,0.736,0.151,1.103,0.23
	C-2.48,6.494-1.521,6.78-0.586,7.136c1.088,0.382,2.141,0.861,3.147,1.43C2.849,8.743,3.119,8.947,3.37,9.175
	c0.822,0.734,1.558,1.564,2.192,2.473c1.959,2.752,3.101,6.028,3.288,9.431c0.102,2.249-0.179,4.499-0.831,6.649
	c-0.382,1.287-0.867,2.539-1.45,3.744c-0.322,0.669-0.67,1.323-1.045,1.968c-0.35,0.603-0.633,1.236-1.03,1.81
	c-0.28,0.428-0.594,0.832-0.938,1.208C2.2,38.116,0.583,39.529-1.226,40.64c0.669-0.221,1.294-0.562,1.847-1.007
	c0.58-0.428,1.149-0.871,1.693-1.348c1.112-0.948,2.12-2.018,3.004-3.191c0.83-1.222,1.542-2.524,2.125-3.887
	c0.634-1.303,1.168-2.654,1.597-4.042C9.899,24.387,10.018,21.425,9.386,18.585z"/>
<path fill="#FFEC00" d="M-4.193,31.298h0.01c-0.026-0.105-0.047-0.195-0.061-0.253c4.613-0.705,4.514-0.343,6.512-0.714
	c0.01-0.005,0.019-0.011,0.029-0.017c0.018-0.026,0.031-0.055,0.036-0.087v-0.007c0-0.041,0.004-0.082,0.012-0.123
	c0.009-0.206-0.014-0.483-0.012-0.573c-0.009,0.001-0.017,0.003-0.026,0.006c-0.24,0.055-0.481,0.098-0.721,0.154
	c-1.564,0.334-3.142,0.585-4.719,0.841c-0.028,0-0.056,0.01-0.084,0.012c-0.302,0.051-0.603,0.098-0.906,0.143
	c-0.086,0.014-0.169,0.024-0.254,0.04c-0.034,0-0.067,0.01-0.103,0.015c-0.147,0.019-0.293,0.044-0.438,0.06
	c-0.318-0.012-0.625,0.122-0.837,0.366c-0.056,0.074-0.104,0.153-0.144,0.237l-0.013,0.024c-0.01,0.02-0.016,0.042-0.027,0.06
	c-0.035,0.098-0.119,0.366-0.15,0.424l-0.009,0.015c0.665-0.062,1.337-0.156,2.004-0.249c-0.011-0.043-0.028-0.115-0.047-0.195
	C-4.157,31.422-4.175,31.359-4.193,31.298z"/>
<path fill="#FFEC00" d="M-5.268,28.585c0.1-0.88,0.092-1.769-0.025-2.647c-0.064-0.186-0.14-0.367-0.228-0.542l-0.304-0.374
	c0.104,0.134,0.167,0.297,0.182,0.467c-0.21,0.151-0.401,0.328-0.57,0.526c-0.142,1.101-0.072,2.22,0.206,3.293
	C-5.435,28.541-5.477,29.31-5.268,28.585z"/>
<path fill="#FFEC00" d="M-2.339,22.571c1.06,0.74,2.221,1.316,3.445,1.707c0.008-0.15-0.031-0.298-0.11-0.424
	C-0.35,22.917-1.497,23.121-2.339,22.571z"/>
<path fill="#FFEC00" d="M-3.081,19.885c-0.326-1.887,0.238-5.188-0.983-6.6c0.013,0.004,0.025,0.01,0.037,0.017
	c-0.1-0.119-0.214-0.226-0.338-0.318c-0.59-0.514-2.822-0.884-4.657-0.73l-0.526,0.045c-0.182,0.017-0.358,0.03-0.524,0.045
	c-0.737,0.079-1.457,0.284-2.128,0.607c0.556-0.016,1.844-0.064,3.157-0.038h0.028l0.23,0.006c0.009,0.001,0.018,0.001,0.028,0
	c1.15-0.041,2.301,0.076,3.421,0.348C-3.232,14.247-4.442,17.501-3.081,19.885z"/>
<path fill="#E5007E" d="M6.394,19.881c-0.45-2.185-1.414-4.224-2.808-5.939c-1.444-1.737-3.224-3.146-5.227-4.14
	c-3.744-2.017-8.215-2.015-11.958,0.006c3.515-1.503,7.5-1.319,10.87,0.502c2.002,0.994,3.782,2.404,5.227,4.14
	c1.395,1.714,2.359,3.754,2.806,5.94c0.444,2.211,0.425,4.493-0.055,6.696c-0.474,2.232-1.347,4.354-2.575,6.259
	c-1.212,1.905-2.785,3.54-4.626,4.807c-0.433,0.294-0.882,0.562-1.344,0.805c-0.077,0.042-0.156,0.077-0.232,0.117l0,0l0,0
	c-2.147,0.929-4.505,1.217-6.804,0.831c-0.731-0.155-1.446-0.379-2.137-0.667c-0.665-0.269-1.351-0.54-1.996-0.869
	c-0.663-0.303-1.27-0.723-1.792-1.24c-0.425-0.472-0.803-0.986-1.13-1.535c-0.644-1.093-1.113-2.286-1.387-3.533
	c-0.291-1.291-0.391-2.62-0.297-3.942c0.023-0.322,0.057-0.641,0.103-0.961c-0.015-0.139,0.036-0.277,0.137-0.372
	c0.123-0.075,0.246-0.154,0.368-0.232l0.981-0.625c1.802-1.146,3.619-2.269,5.451-3.369c0.077-0.045,0.154-0.098,0.231-0.14
	c0.062-0.038,0.014-0.085-0.01-0.147c-0.119-0.308-0.222-0.623-0.308-0.943c-0.169-0.648-0.246-1.318-0.231-1.988
	c0.039-1.103,0.321-2.182,0.823-3.157c0.243-0.478,0.527-0.933,0.849-1.359c2.069-0.085,3.89,0.301,4.592,1.112
	c0.75,0.869,0.736,3.644,0.531,5.345c-0.036,0.488-0.165,0.965-0.38,1.402c0.88,0.224,1.739,0.53,2.566,0.912
	c1.071,0.747,2.245,1.326,3.482,1.717c-0.032,0.669-0.243,2.528-0.371,3.546h0.012c0.354-0.185,0.675-0.429,0.95-0.722
	c0.086-0.607,0.621-3.165,0.27-3.519c-0.095-0.068-0.19-0.13-0.285-0.195c-1.08-0.384-2.106-0.914-3.051-1.575
	c-0.085-0.055-0.168-0.111-0.251-0.164l-0.095-0.062c-0.056-0.038-0.113-0.075-0.17-0.109c-0.038-0.02-0.075-0.045-0.112-0.068
	c-0.055-0.032-0.11-0.066-0.167-0.098l-0.109-0.062c-0.069-0.04-0.14-0.079-0.214-0.119c-0.306-0.165-0.624-0.307-0.95-0.424
	l-0.218-0.083l0.05-0.226l0.145-2.268c-0.07-1.26-0.253-2.51-0.548-3.735c-1.647-0.925-3.534-1.302-5.399-1.079
	c-0.034,0.041-0.072,0.093-0.119,0.149c-0.072,0.098-0.162,0.204-0.258,0.334c0.025,0,0.048,0,0.071,0
	c-0.162,0.008-0.321,0.017-0.481,0.028c-0.087,0.006-0.176,0.015-0.262,0.02c-0.038,0.051-0.077,0.098-0.118,0.153
	c-0.087,0.109-0.173,0.222-0.256,0.338c-0.216,0.296-0.414,0.604-0.594,0.924c-0.499,0.863-0.828,1.817-0.969,2.81
	c-0.152,1.248,0.014,2.515,0.48,3.678c0.025,0.064,0.072,0.113,0.01,0.151l-0.231,0.138l-0.993,0.599
	c-0.549,0.336-1.098,0.669-1.645,1.007c-0.794,0.491-1.594,0.99-2.385,1.496c-0.274,0.172-0.549,0.346-0.823,0.524
	c-0.181,0.111-0.361,0.228-0.543,0.343c-0.028,0.017-0.068,0.005-0.055-0.056c0.086-0.416,0.216-0.821,0.388-1.208
	c0.14-0.334,0.371-0.62,0.665-0.823c0.297-0.195,0.628-0.328,0.937-0.498c0.951-0.477,1.797-1.148,2.488-1.972
	c0.462-0.622,0.708-1.386,0.699-2.168c-0.172-0.868-0.449-1.711-0.824-2.509c-0.004,0.686,0.114,1.367,0.348,2.01
	c0.095,0.32,0.19,0.641,0.276,0.965c0.029,0.117,0.074,0.141-0.047,0.195l-0.248,0.113c-0.19,0.087-0.373,0.174-0.557,0.261
	c-0.1,0.103-0.153,0.245-0.144,0.39c-0.034,0.146-0.081,0.288-0.141,0.424c-0.098,0.222-0.222,0.43-0.371,0.621
	c-0.319,0.372-0.694,0.69-1.109,0.943c-0.475,0.307-0.959,0.619-1.44,0.92c-0.467,0.249-0.888,0.579-1.245,0.976
	c-0.33,0.478-0.562,1.02-0.682,1.593c-0.192,0.743-0.278,1.509-0.257,2.277c0.045,0.673,0.157,1.34,0.335,1.99
	c0.182,0.803,0.413,1.593,0.692,2.366c0.695,1.92,1.659,3.725,2.863,5.358c-0.342-0.26-0.67-0.538-0.982-0.835
	c0.427,0.523,0.887,1.017,1.376,1.478c0.487,0.489,1.057,0.884,1.681,1.165c0.668,0.295,1.351,0.55,2.048,0.764
	c0.685,0.147,1.378,0.253,2.075,0.318c1.464,0.12,2.934,0.139,4.401,0.057c1.394-0.175,2.768-0.492,4.101-0.946
	c0.383-0.112,0.734-0.317,1.024-0.598c-2.162,0.504-4.374,0.742-6.591,0.709c-0.037,0-0.221,0.006-0.639,0.022
	c-2.212,0.232-4.438-0.29-6.333-1.484c-0.571-0.41-1.089-0.894-1.54-1.44c0.038,0.032,0.079,0.061,0.121,0.087
	c0.695,0.417,1.427,0.766,2.186,1.043c1.011,0.382,2.06,0.648,3.128,0.793c0.513,0.069,1.03,0.106,1.547,0.111
	c0.258,0,0.514,0,0.773-0.017c0.142-0.01,0.095,0.128,0.102,0.257c0.322-0.036,0.641-0.079,0.961-0.132
	c0.201-0.068,0.411-0.101,0.622-0.098c0.08,0.031,0.17,0.019,0.239-0.032c1.312-0.144,2.599-0.474,3.822-0.983
	c0.077-0.032,0.154-0.06,0.231-0.098c1.72-1.077,3.279-2.403,4.628-3.939c0.355-0.435,0.691-0.888,1.006-1.359
	c0.13-0.195,0.254-0.382,0.374-0.585c0.216-0.343,0.418-0.702,0.609-1.06c1.092-1.793,1.876-3.766,2.316-5.833
	C6.819,24.375,6.837,22.092,6.394,19.881z M-6.259,40.247l0.01-0.006c-0.004,0.003-0.008,0.005-0.012,0.006l0,0H-6.259z"/>
<path fill="#E5007E" d="M-11.418,28.868c0.005,0,0.38-0.017,0.532-0.013c0.032,0,0.065,0,0.095,0
	c0.161,0.008,0.106,0.182,0.305,0.206c0.699,0.085,0.475,0.439,0.484,0.439l0.119,0.03l0.012,0.03
	c-0.562-0.168-1.148-0.239-1.733-0.209c-0.426-0.048-0.856,0.047-1.226,0.269c-0.989,0.91,0.356,1.501,0.174,1.879
	c-0.735,1.521,0.452,1.329,0.634,1.61c-0.045,0.343-0.069,0.69-0.07,1.036c0.113,0.296,0.4,0.481,0.709,0.459
	c0.335,0.062,0.19,0.764,0.638,1.054c0.52,0.334,1.44-0.049,2.231-0.195c0.841-0.219,1.668-0.492,2.476-0.817l-0.132,0.898
	c-0.351,0.135-0.625,0.424-0.747,0.788c-0.088,0.183-0.192,0.358-0.31,0.522l-0.042,0.06l-0.066,0.03
	c-1.404,0.355-2.855,0.467-4.295,0.334l-0.095-0.01l-0.069-0.062c-0.128-0.095-0.262-0.181-0.401-0.257
	c-0.011,0-0.023-0.014-0.038-0.019l0.07,0.006c0.598,0.051,1.198,0.068,1.797,0.051l0.052,0.047l0.095,0.006
	c0.095,0.01,0.199,0.012,0.297,0.012h0.051c0.073,0,0.146,0,0.219-0.008c0.566-0.047,1.126-0.154,1.671-0.32
	c0.019-0.004,0.038-0.01,0.056-0.017h0.006c0.029-0.008,0.063-0.019,0.095-0.026c0.397-0.401,0.753-0.844,1.061-1.321
	c0-0.006,0.007-0.014,0.013-0.02c0.015-0.025,0.027-0.051,0.036-0.079l-0.074,0.02c-0.695,0.172-1.622,0.413-2.315,0.548
	c0,0-0.643,0.11-0.76,0.122c-0.135,0.016-0.271,0.023-0.408,0.023c-0.024-0.009-0.117-0.027-0.19-0.049
	c-0.378-0.115-0.744-0.267-1.093-0.454c-0.506-0.646-0.956-1.337-1.345-2.064c-0.462-0.802-0.705-1.718-0.703-2.65
	C-13.602,30.76-13.686,29.054-11.418,28.868z"/>
<path fill="#E5007E" d="M-9.745,29.599l-0.125-0.038v0.016L-9.745,29.599z"/>
<path fill="#E5007E" d="M-9.437,29.652c-0.081-0.014-0.165-0.03-0.252-0.043l-0.055-0.01C-9.515,29.676-9.419,29.725-9.437,29.652z"
	/>
<ellipse fill="#E74E0F" cx="129.858" cy="27.089" rx="2.027" ry="2.081"/>
<path fill="#292929" d="M18.941,31.246l0.138-1.959V19.147l-1.853-0.113c-0.236-0.675-0.265-1.409-0.083-2.102
	c0,0,2.822-0.142,7.525-0.142c5.145,0,6.611,2.784,6.611,5.171c0,3.209-2.628,5.964-8.409,6.107v3.181l2.656-0.113
	c0.124,0.295,0.181,0.616,0.166,0.937c0,0.853-0.47,1.477-1.688,1.477h-6.779c-0.185-0.685-0.213-1.404-0.083-2.102L18.941,31.246z
	 M22.869,25.992c3.126-0.142,4.482-1.789,4.482-3.863c0-1.789-0.913-3.039-3.126-3.039c-0.415,0-0.855,0.028-1.217,0.057
	l-0.138,2.049v4.799L22.869,25.992z"/>
<path fill="#292929" d="M44.718,31.246l0.138-1.988v-6.305c-0.245,0.059-0.496,0.088-0.747,0.085
	c-0.77,0.075-1.454-0.506-1.526-1.297c-0.01-0.107-0.008-0.215,0.006-0.322c-0.02-0.273,0.027-0.546,0.138-0.795
	c2.822,0,5.754-0.341,5.754-0.341c0.219,0.132,0.393,0.33,0.498,0.568l-0.359,3.011v7.384l1.632-0.113
	c0.124,0.295,0.181,0.616,0.166,0.937c0,0.853-0.47,1.477-1.688,1.477h-5.45c-0.185-0.685-0.214-1.404-0.083-2.102L44.718,31.246z
	 M46.655,14.206c1.177-0.048,2.17,0.893,2.216,2.102c0.003,0.076,0.002,0.151-0.003,0.227c0.031,1.239-0.922,2.269-2.128,2.302
	c-0.047,0.001-0.093,0.001-0.14-0.001c-1.189,0.065-2.204-0.873-2.267-2.094c-0.004-0.069-0.004-0.138-0.001-0.207
	c-0.026-1.261,0.948-2.304,2.176-2.331C46.557,14.203,46.606,14.203,46.655,14.206z"/>
<path fill="#292929" d="M61.257,31.246l0.139-1.988v-3.435c0-1.477-0.388-2.301-1.964-2.301c-0.797,0.021-1.577,0.245-2.268,0.653
	v7.072l1.355-0.113c0.13,0.293,0.187,0.615,0.166,0.937c0.055,0.764-0.503,1.428-1.247,1.485c-0.091,0.007-0.183,0.004-0.273-0.008
	h-5.34c-0.185-0.685-0.214-1.404-0.083-2.102l1.521-0.195l0.138-1.988v-6.223c-0.2,0.042-0.404,0.061-0.608,0.057
	c-0.77,0.075-1.454-0.506-1.526-1.297c-0.01-0.107-0.008-0.215,0.006-0.322c-0.013-0.291,0.034-0.581,0.139-0.852
	c1.876-0.014,3.751-0.128,5.615-0.341c0.223,0.14,0.398,0.348,0.498,0.596l-0.747,2.386c0.947-1.735,2.686-2.858,4.62-2.982
	c2.683,0,3.762,1.705,3.762,4.402v6.561l1.633-0.113c0.13,0.293,0.187,0.615,0.166,0.937c0.021,0.808-0.6,1.48-1.387,1.502
	c-0.101,0.003-0.201-0.006-0.301-0.025h-5.284c-0.178-0.686-0.206-1.403-0.083-2.102L61.257,31.246z"/>
<path fill="#292929" d="M68.781,20.34l0.225-2.726c1.182-0.44,2.468-0.49,3.679-0.142l-0.359,3.152l3.347-0.256
	c0.177,0.287,0.255,0.628,0.221,0.966c0,1.222-0.719,1.874-2.573,1.756l-0.913-0.057v6.362c0,1.278,0.388,1.59,1.466,1.59
	c0.814-0.017,1.623-0.141,2.407-0.369c0.168,0.281,0.245,0.608,0.221,0.937c0,1.278-0.775,2.158-3.817,2.158
	c-2.851,0-3.928-1.107-3.928-3.805v-7.068l-1.882-0.114c-0.146-0.649-0.117-1.326,0.083-1.96
	C67.575,20.663,68.183,20.521,68.781,20.34z"/>
<path fill="#292929" d="M32.548,33.516h5.976c1.078,0,1.671-0.506,1.671-1.427c0.014-0.303-0.036-0.605-0.146-0.886l-2.163-0.009
	c-0.033,0-0.035,0-0.059,0v-6.451c0.047,0,0.146,0,0.19,0c1.204,0,3.694-1.041,3.801-2.406c0.089-0.537-0.046-1.088-0.372-1.518
	c-0.349-0.341-0.822-0.514-1.303-0.477c-0.134,0.137-2.686,2.817-2.709,2.802c-0.024-0.015,0.83-2.352,0.555-2.776
	c-0.052-0.078-0.147-0.112-0.235-0.085c-1.869,0.211-3.747,0.325-5.628,0.342c-0.086,0.257-0.126,0.528-0.119,0.8
	c-0.1,0.762,0.421,1.463,1.163,1.566c0.103,0.014,0.207,0.016,0.31,0.006c0.202,0.006,0.404-0.013,0.602-0.057
	c0.024-0.006,0.047-0.013,0.07-0.022v6.342l-0.139,2.049c-0.017,0.004-0.033,0.008-0.05,0.01l-1.492,0.195
	c-0.116,0.667-0.089,1.351,0.078,2.006"/>
<path fill="#292929" d="M117.577,30.945l-1.694,0.057v-5.72c0-3.694-1.261-5.002-4.818-5.002c-4.126,0-5.597,1.493-5.597,2.887
	c-0.012,0.694,0.391,1.324,1.016,1.588c0.966-1.017,2.257-1.643,3.636-1.762c1.919,0,2.311,0.915,2.311,2.289v0.919h-0.058
	c-0.285-0.014-0.57-0.02-0.839-0.02c-5.497,0-6.652,2.342-6.652,4.306c0,2.171,1.318,3.317,3.816,3.317
	c1.663-0.029,3.212-0.877,4.161-2.279c-0.241,0.493-0.233,1.076,0.023,1.561c0.468,0.495,1.14,0.729,1.806,0.628
	c2.068,0,3.118-0.616,3.118-1.828c0.001-0.329-0.077-0.652-0.227-0.943 M112.317,31.04c-0.622,0.199-1.268,0.311-1.92,0.331
	c-1.149,0-1.806-0.5-1.806-1.366c0-0.744,0.296-1.602,2.616-1.602c0.324,0,0.688,0.018,1.112,0.052v2.589L112.317,31.04z"/>
<path fill="#292929" d="M118.653,33.516h5.582c1.076,0,1.643-0.495,1.643-1.427c0.01-0.302-0.04-0.604-0.146-0.886
	c0,0-1.584,0.051-1.664,0.051v-13.95l0.363-3.038c0.007-0.07-0.012-0.14-0.055-0.195c-0.106-0.098-0.248-0.145-0.391-0.129
	c-0.029,0-2.946,0.012-5.756,0.098c-0.087,0.257-0.127,0.528-0.119,0.8c-0.101,0.761,0.419,1.462,1.161,1.566
	c0.104,0.014,0.209,0.017,0.313,0.006c0.223-0.001,0.446-0.024,0.665-0.067c0,0.016,0,12.909,0,12.909l-0.139,2.049
	c-0.124,0.027-1.54,0.207-1.54,0.207c-0.116,0.667-0.09,1.351,0.078,2.006"/>
<path fill="#292929" d="M91.202,31.088c0,0-1.568,0.056-1.587,0.055V17.303l0.362-2.951c0.022-0.094,0.005-0.193-0.048-0.273
	c-0.103-0.108-0.25-0.161-0.396-0.142c-0.007,0-0.636-0.018-1.574-0.018c-1.057,0-2.635,0.022-4.181,0.125
	c-0.088,0.257-0.13,0.528-0.123,0.8c-0.099,0.763,0.424,1.464,1.167,1.566c0.102,0.014,0.206,0.016,0.309,0.006
	c0.239,0.001,0.477-0.027,0.71-0.083c0.016-0.005,0.055-0.013,0.07-0.02v4.174c-0.116-0.013-0.619-0.038-0.946-0.038
	c-4.907,0-8.078,2.91-8.078,7.406c0,3.648,2.08,5.92,5.429,5.92c1.642-0.026,3.187-0.8,4.217-2.112
	c-0.197,0.482-0.161,1.031,0.095,1.483c0.509,0.469,1.196,0.679,1.871,0.572c1.886,0,2.924-0.609,2.924-1.715
	C91.428,31.682,91.352,31.368,91.202,31.088 M85.801,30.621c-0.498,0.194-1.028,0.283-1.56,0.264c-2.264,0-3.313-1.144-3.313-3.601
	c0-2.927,1.278-4.233,4.147-4.233c0.242-0.005,0.485,0.003,0.726,0.024V30.621z"/>
<path fill="#292929" d="M102.832,29.552c-1.236,0.906-2.695,1.438-4.211,1.536c-2.129,0-3.178-0.899-3.397-2.91
	c-0.003-0.016,0.001-0.033,0.011-0.046c0.01-0.013,0.026-0.021,0.043-0.02h8.19c0.182-2.915-0.324-5.046-1.498-6.342
	c-1.037-1.046-2.458-1.589-3.909-1.495c-3.864,0-6.265,2.88-6.265,7.519c0,3.909,2.263,6.061,6.379,6.061
	c3.918,0,5.316-1.491,5.316-2.886c0.05-0.563-0.206-1.108-0.665-1.42 M97.866,22.816c0.479-0.022,0.945,0.164,1.284,0.512
	c0.552,0.764,0.791,1.719,0.665,2.661h-4.448C95.594,23.914,96.46,22.816,97.866,22.816"/>
<path fill="#292929" d="M136.462,16.598c-0.199,0.042-0.402,0.061-0.604,0.057c-0.764,0.075-1.443-0.5-1.517-1.285
	c-0.01-0.108-0.008-0.216,0.006-0.323c-0.013-0.289,0.034-0.577,0.137-0.846c2.803,0,5.714-0.282,5.714-0.282
	c0.217,0.131,0.39,0.328,0.494,0.564l-0.356,2.99v4.738c0.832-1.232,2.224-1.935,3.682-1.862c3.186,0,5.219,2.257,5.219,5.894
	c0,4.488-3.186,7.53-8.458,7.53c-1.552-0.003-3.097-0.231-4.587-0.677l0.275-3.864V16.598H136.462z M140.335,23.761v7.53
	c0.337,0.05,0.677,0.069,1.017,0.057c2.198,0,3.896-1.325,3.896-4.513c0-2.537-1.154-3.638-3.104-3.638
	C141.495,23.16,140.854,23.36,140.335,23.761z"/>
<path fill="#292929" d="M161.188,29.487c0.492,0.307,0.77,0.875,0.715,1.464c0,1.297-1.264,2.905-5.302,2.905
	c-4.01,0-6.345-2.087-6.345-6.036c0-4.371,2.252-7.474,6.236-7.474c3.626,0,5.741,2.312,5.384,7.841h-8.131
	c0.22,2.002,1.264,2.821,3.297,2.821C158.535,30.911,159.973,30.384,161.188,29.487z M153.776,26.102h4.505
	c0.083-2.172-0.632-3.243-1.978-3.243c-1.41,0-2.316,1.1-2.536,3.243L153.776,26.102z"/>
</svg>
