<?xml version="1.0" encoding="utf-8"?>
<!-- Generator: Adobe Illustrator 19.0.0, SVG Export Plug-In . SVG Version: 6.00 Build 0)  -->
<!DOCTYPE svg PUBLIC "-//W3C//DTD SVG 1.1//EN" "http://www.w3.org/Graphics/SVG/1.1/DTD/svg11.dtd">
<svg version="1.1" id="Layer_1" xmlns="http://www.w3.org/2000/svg" xmlns:xlink="http://www.w3.org/1999/xlink" x="0px" y="0px"
	 width="252.001px" height="48px" viewBox="-25.501 2.33 252.001 48" enable-background="new -25.501 2.33 252.001 48"
	 xml:space="preserve">
<g id="Layer_2">
</g>
<g>
	<path fill="#292929" d="M27.074,48.964c0,0-1.287,0.949-3.664,0.949c-3.186,0-4.49-1.635-4.49-4.189c0-3.611,2.5-6.534,6.286-6.534
		c1.831,0,2.924,0.441,2.924,0.441l-0.177,2.552c-0.811,0.124-1.214-0.052-1.214-0.688c0-0.317,0.087-0.667,0.193-0.985
		c-0.458-0.102-1.056-0.226-1.725-0.226c-3.117,0-4.826,2.147-4.826,4.983c0,2.641,1.022,3.538,3.399,3.538
		c0.968,0,1.656-0.191,2.095-0.406l0.264-2.782l-2.078,0.106c0,0-0.105-0.495,0.142-1.233h3.38L27.074,48.964z"/>
	<path fill="#292929" d="M30.455,46.956c0.036,1.426,0.686,1.795,1.425,1.795c1.534,0,3.116-1.32,3.116-1.32
		s0.335,0.176,0.335,0.651c0,0.881-1.585,1.725-3.381,1.725c-1.673,0-2.712-0.703-2.712-2.711c0-3.064,1.849-5.532,4.086-5.532
		c1.021,0,2.183,1.235,2.183,2.995C35.509,46.375,31.143,46.885,30.455,46.956z M30.491,46.095c1.021-0.145,3.609-0.618,3.609-1.482
		c0-1.532-1.02-2.131-1.02-2.131C31.9,42.696,30.72,44.033,30.491,46.095z"/>
	<path fill="#292929" d="M46.851,41.566c0,0,0.669,0.408,0.669,1.743c0,3.505-2.694,6.5-4.49,6.5c-0.634,0-0.916-0.23-0.916-0.916
		c0-0.512,0.195-1.391,0.388-2.114c-1.057,1.762-2.712,3.03-3.962,3.03c-0.652,0-0.951-0.284-0.951-0.916
		c0-0.9,0.65-3.909,0.545-6.04c0,0-0.581,0.212-1.215,0.212c-0.635,0-0.934-0.228-0.934-0.705c0-0.299,0.107-0.442,0.107-0.442
		c1.425,0,2.974-0.35,2.974-0.35s0.282,0.195,0.441,0.527c0,0-0.07,2.906-0.669,6.695c2.711-0.987,3.328-3.909,3.328-3.909
		l-0.439-3.047c0,0,0.439-0.212,1.127-0.212c0,0,0.669,0.406,0.669,1.745c0,0.775-0.176,1.515-0.44,2.236
		c0,0.052,0,1.445,0.194,3.136c2.553-1.04,2.889-3.913,2.889-3.913l-0.441-3.045C45.724,41.778,46.165,41.566,46.851,41.566z"/>
	<path fill="#292929" d="M48.542,46.902c0-3.24,1.603-5.337,3.928-5.337c1.092,0,2.499,0.616,2.499,3.014
		c0,3.238-1.548,5.333-3.874,5.333C49.564,49.913,48.542,48.84,48.542,46.902z M49.899,46.551c0,1.441,0.632,2.361,1.566,2.361
		c1.126,0,2.166-1.215,2.166-4.052c0-1.673-0.722-2.361-1.532-2.361C51.007,42.501,49.899,43.608,49.899,46.551z"/>
	<path fill="#292929" d="M56.326,46.902c0-3.24,1.603-5.337,3.927-5.337c1.093,0,2.5,0.616,2.5,3.014
		c0,3.238-1.549,5.333-3.873,5.333C57.348,49.913,56.326,48.84,56.326,46.902z M57.681,46.551c0,1.441,0.635,2.361,1.568,2.361
		c1.127,0,2.166-1.215,2.166-4.052c0-1.673-0.723-2.361-1.532-2.361C58.792,42.501,57.681,43.608,57.681,46.551z"/>
	<path fill="#292929" d="M65.185,49.774c0,0-0.352-0.28-0.352-1.038c0-0.794,0.352-2.52,0.352-2.52l0.458-3.538
		c0,0-0.547,0.388-1.217,0.388c-0.634,0-0.968-0.193-0.968-0.705c0-0.299,0.105-0.441,0.105-0.441c1.463,0,3.012-0.352,3.012-0.352
		s0.3,0.178,0.475,0.527l-0.808,2.029c0.563-0.601,2.517-2.556,4.225-2.556c0.687,0,0.986,0.425,0.792,1.55l-0.968,5.599
		c0.987-0.265,1.885-1.126,1.885-1.126s0.369,0.158,0.369,0.686c0,0.703-0.862,1.463-2.288,1.463c-1.022,0-1.32-0.388-1.11-1.621
		l0.916-5.458c0,0-1.778,0.649-3.487,1.884l-0.527,5.02C66.048,49.563,65.659,49.721,65.185,49.774z"/>
	<path fill="#292929" d="M78.921,42.853c0,0-0.511,0.212-1.178,0.212c-0.633,0-0.969-0.191-0.969-0.705
		c0-0.297,0.107-0.441,0.107-0.441c1.461,0,3.045-0.35,3.045-0.35s0.334,0.301,0.473,0.703l-0.404,1.762l-0.722,4.682
		c0.986-0.265,1.883-1.126,1.883-1.126s0.37,0.158,0.37,0.686c0,0.703-0.863,1.463-2.288,1.463c-0.968,0-1.285-0.352-1.127-1.463
		L78.921,42.853z M80.03,37.587c0.6,0,1.075,0.477,1.075,1.074c0,0.599-0.475,1.072-1.075,1.072c-0.599,0-1.074-0.473-1.074-1.072
		C78.956,38.065,79.431,37.587,80.03,37.587z"/>
	<path fill="#292929" d="M83.589,49.774c0,0-0.352-0.28-0.352-1.038c0-0.794,0.352-2.52,0.352-2.52l0.456-3.538
		c0,0-0.545,0.388-1.214,0.388c-0.635,0-0.968-0.193-0.968-0.705c0-0.299,0.105-0.441,0.105-0.441c1.461,0,3.012-0.352,3.012-0.352
		s0.299,0.178,0.475,0.527l-0.809,2.029c0.563-0.601,2.517-2.556,4.225-2.556c0.686,0,0.986,0.425,0.792,1.55l-0.968,5.599
		c0.985-0.265,1.883-1.126,1.883-1.126s0.37,0.158,0.37,0.686c0,0.703-0.861,1.463-2.288,1.463c-1.021,0-1.322-0.388-1.11-1.621
		l0.916-5.458c0,0-1.779,0.649-3.486,1.884l-0.528,5.02C84.45,49.563,84.063,49.721,83.589,49.774z"/>
	<path fill="#292929" d="M96.144,38.872c-0.635,0-0.969-0.191-0.969-0.703c0-0.301,0.106-0.441,0.106-0.441
		c1.461,0,3.08-0.352,3.08-0.352s0.334,0.3,0.476,0.703l-0.404,1.76l-1.021,8.876c1.021-0.28,1.883-1.126,1.883-1.126
		s0.37,0.158,0.37,0.686c0,0.636-0.722,1.463-2.428,1.463c-1.04,0-1.34-0.618-0.671-1.955c-0.81,0.968-2.325,2.025-3.381,2.025
		c-0.827,0-1.496-0.616-1.496-2.765c0-2.906,1.868-5.478,3.875-5.478c0.721,0,1.127,0.336,1.339,0.636l0.422-3.54
		C97.324,38.662,96.812,38.872,96.144,38.872z M96.302,47.306l0.511-4.367c-0.228-0.102-0.684-0.263-1.249-0.263
		c-1.516,0-2.554,1.304-2.554,4.086c0,1.637,0.283,1.795,0.617,1.795C94.241,48.558,95.651,47.712,96.302,47.306z"/>
	<path fill="#292929" d="M101.445,49.774c0,0-0.352-0.28-0.352-1.038c0-0.794,0.352-2.52,0.352-2.52l0.44-3.538
		c0,0-0.528,0.388-1.198,0.388c-0.632,0-0.968-0.193-0.968-0.705c0-0.299,0.107-0.441,0.107-0.441c1.461,0,3.01-0.352,3.01-0.352
		s0.334,0.301,0.476,0.705l-0.705,1.866c1.621-1.092,2.678-2.572,2.678-2.572s0.758,0,0.758,0.742c0,0.829-1.059,1.778-3.224,2.324
		l-0.51,4.931C102.308,49.563,101.92,49.721,101.445,49.774z"/>
	<path fill="#292929" d="M112.54,48.717c0.986-0.265,1.883-1.126,1.883-1.126s0.37,0.157,0.37,0.686
		c0,0.738-0.897,1.463-2.358,1.463c-0.881,0-1.11-0.267-1.11-0.742c0-0.439,0.265-0.968,0.405-1.215
		c-0.599,0.599-2.148,2.025-3.574,2.025c-0.792,0-1.129-0.404-1.129-1.142c0-1.604,0.723-5.812,0.723-5.812s-0.58,0.212-1.249,0.212
		c-0.582,0-0.899-0.228-0.899-0.705c0-0.297,0.105-0.441,0.105-0.441c1.464,0,3.012-0.352,3.012-0.352s0.317,0.284,0.475,0.703
		c0,0-0.776,3.488-0.951,6.395c1.443-0.284,2.694-1.059,3.222-1.41l0.67-5.476c0,0,0.456-0.16,0.933-0.212
		c0,0,0.37,0.265,0.37,1.039c0,0.881-0.388,2.518-0.388,2.518L112.54,48.717z"/>
	<path fill="#292929" d="M116.272,49.774c0,0-0.351-0.28-0.351-1.038c0-0.794,0.351-2.52,0.351-2.52l0.882-7.553
		c0,0-0.511,0.211-1.179,0.211c-0.635,0-0.968-0.191-0.968-0.705c0-0.299,0.103-0.441,0.103-0.441c1.463,0,3.082-0.35,3.082-0.35
		s0.337,0.298,0.475,0.703l-0.404,1.76l-0.299,2.533c0.932-0.3,2.431-0.721,3.433-0.721c0.775,0,1.056,0.423,1.056,1.005
		c0,1.302-2.36,3.346-2.36,3.346l0.864,2.711c0.986-0.263,1.884-1.126,1.884-1.126s0.371,0.158,0.371,0.686
		c0,0.74-0.953,1.463-2.131,1.463c-0.953,0-1.322-0.319-1.587-1.271l-0.721-2.57c0,0,2.254-1.866,2.254-2.763
		c0-0.265-0.124-0.388-0.124-0.388l-3.046,0.547l-0.739,6.27C117.118,49.563,116.748,49.721,116.272,49.774z"/>
	<path fill="#292929" d="M134.111,41.566c0,0,0.671,0.408,0.671,1.743c0,3.505-2.695,6.5-4.493,6.5c-0.632,0-0.914-0.23-0.914-0.916
		c0-0.512,0.194-1.391,0.388-2.114c-1.057,1.762-2.712,3.03-3.963,3.03c-0.65,0-0.951-0.284-0.951-0.916
		c0-0.9,0.651-3.909,0.546-6.04c0,0-0.581,0.212-1.216,0.212c-0.633,0-0.933-0.228-0.933-0.705c0-0.299,0.108-0.442,0.108-0.442
		c1.424,0,2.975-0.35,2.975-0.35s0.281,0.195,0.439,0.527c0,0-0.07,2.906-0.669,6.695c2.712-0.987,3.328-3.909,3.328-3.909
		l-0.441-3.047c0,0,0.441-0.212,1.129-0.212c0,0,0.669,0.406,0.669,1.745c0,0.775-0.175,1.515-0.441,2.236
		c0,0.052,0,1.445,0.194,3.136c2.554-1.04,2.889-3.913,2.889-3.913l-0.44-3.045C132.985,41.778,133.425,41.566,134.111,41.566z"/>
	<path fill="#292929" d="M137.002,46.956c0.034,1.426,0.685,1.795,1.425,1.795c1.531,0,3.117-1.32,3.117-1.32
		s0.335,0.176,0.335,0.651c0,0.881-1.587,1.725-3.381,1.725c-1.674,0-2.712-0.703-2.712-2.711c0-3.064,1.849-5.532,4.084-5.532
		c1.021,0,2.184,1.235,2.184,2.995C142.054,46.375,137.688,46.885,137.002,46.956z M137.036,46.095
		c1.023-0.145,3.61-0.618,3.61-1.482c0-1.532-1.021-2.131-1.021-2.131C138.444,42.696,137.264,44.033,137.036,46.095z"/>
	<path fill="#292929" d="M143.956,49.774c0,0-0.352-0.28-0.352-1.038c0-0.794,0.352-2.52,0.352-2.52l0.881-7.553
		c0,0-0.51,0.211-1.177,0.211c-0.637,0-0.969-0.191-0.969-0.705c0-0.299,0.105-0.441,0.105-0.441c1.461,0,3.081-0.35,3.081-0.35
		s0.336,0.298,0.477,0.703l-0.407,1.76l-0.299,2.533c0.935-0.3,2.432-0.721,3.435-0.721c0.776,0,1.056,0.423,1.056,1.005
		c0,1.302-2.36,3.346-2.36,3.346l0.863,2.711c0.986-0.263,1.883-1.126,1.883-1.126s0.372,0.158,0.372,0.686
		c0,0.74-0.952,1.463-2.133,1.463c-0.952,0-1.321-0.319-1.585-1.271l-0.722-2.57c0,0,2.253-1.866,2.253-2.763
		c0-0.265-0.122-0.388-0.122-0.388l-3.047,0.545l-0.739,6.27C144.804,49.563,144.431,49.721,143.956,49.774z"/>
	<path fill="#292929" d="M152.375,49.774c0,0-0.352-0.28-0.352-1.038c0-0.794,0.352-2.52,0.352-2.52l0.882-7.553
		c0,0-0.512,0.211-1.179,0.211c-0.637,0-0.968-0.191-0.968-0.705c0-0.299,0.105-0.441,0.105-0.441c1.463,0,3.082-0.35,3.082-0.35
		s0.334,0.298,0.476,0.703l-0.405,1.76l-0.3,2.533c0.933-0.3,2.431-0.721,3.432-0.721c0.777,0,1.057,0.423,1.057,1.005
		c0,1.302-2.359,3.346-2.359,3.346l0.863,2.711c0.986-0.263,1.884-1.126,1.884-1.126s0.37,0.158,0.37,0.686
		c0,0.74-0.951,1.463-2.132,1.463c-0.95,0-1.32-0.319-1.583-1.271l-0.722-2.57c0,0,2.252-1.866,2.252-2.763
		c0-0.265-0.123-0.388-0.123-0.388l-3.047,0.545l-0.739,6.27C153.221,49.563,152.85,49.721,152.375,49.774z"/>
	<path fill="#292929" d="M161.198,46.956c0.035,1.426,0.686,1.795,1.425,1.795c1.532,0,3.117-1.32,3.117-1.32
		s0.335,0.176,0.335,0.651c0,0.881-1.585,1.725-3.381,1.725c-1.674,0-2.712-0.703-2.712-2.711c0-3.064,1.849-5.532,4.085-5.532
		c1.022,0,2.183,1.235,2.183,2.995C166.251,46.375,161.886,46.885,161.198,46.956z M161.234,46.095
		c1.022-0.145,3.611-0.618,3.611-1.482c0-1.532-1.021-2.131-1.021-2.131C162.643,42.696,161.464,44.033,161.234,46.095z"/>
	<path fill="#292929" d="M168.436,49.774c0,0-0.351-0.28-0.351-1.038c0-0.794,0.351-2.52,0.351-2.52l0.458-3.538
		c0,0-0.546,0.388-1.216,0.388c-0.633,0-0.968-0.193-0.968-0.705c0-0.299,0.107-0.441,0.107-0.441c1.461,0,3.012-0.352,3.012-0.352
		s0.298,0.178,0.475,0.527l-0.809,2.029c0.562-0.601,2.518-2.556,4.226-2.556c0.686,0,0.985,0.425,0.792,1.55l-0.969,5.599
		c0.987-0.265,1.886-1.126,1.886-1.126s0.369,0.158,0.369,0.686c0,0.703-0.864,1.463-2.29,1.463c-1.021,0-1.32-0.388-1.11-1.621
		l0.916-5.458c0,0-1.778,0.649-3.484,1.884l-0.53,5.02C169.299,49.563,168.913,49.721,168.436,49.774z"/>
	<path fill="#292929" d="M180.994,38.872c-0.634,0-0.969-0.191-0.969-0.703c0-0.301,0.105-0.441,0.105-0.441
		c1.461,0,3.082-0.352,3.082-0.352s0.334,0.3,0.474,0.703l-0.405,1.76l-1.022,8.876c1.022-0.28,1.884-1.126,1.884-1.126
		s0.37,0.158,0.37,0.686c0,0.636-0.722,1.463-2.431,1.463c-1.038,0-1.339-0.618-0.669-1.955c-0.811,0.968-2.324,2.025-3.38,2.025
		c-0.828,0-1.498-0.616-1.498-2.765c0-2.906,1.866-5.478,3.874-5.478c0.722,0,1.129,0.336,1.339,0.636l0.423-3.54
		C182.173,38.662,181.661,38.872,180.994,38.872z M181.152,47.306l0.51-4.367c-0.228-0.102-0.687-0.263-1.251-0.263
		c-1.513,0-2.553,1.304-2.553,4.086c0,1.637,0.282,1.795,0.617,1.795C179.092,48.558,180.502,47.712,181.152,47.306z"/>
	<path fill="#292929" d="M187.245,47.555c0.635,0,1.128,0.493,1.128,1.126c0,0.636-0.493,1.128-1.128,1.128
		c-0.633,0-1.127-0.493-1.127-1.128C186.118,48.048,186.611,47.555,187.245,47.555z M188.091,46.271c0,0-0.159,0.07-0.599,0.07
		c-0.441,0-0.563-0.07-0.563-0.07l0.668-7.696c0,0,0.247-0.089,0.791-0.089c0.511,0,0.741,0.089,0.741,0.089L188.091,46.271z"/>
</g>
<path fill="#292929" d="M207.048,28.814h5.483c1.542,0,1.706-1.009,1.706-1.445c0-0.522-0.108-0.808-0.151-0.897
	c0,0-1.689,0.035-1.731,0.035v-6.668c0-2.939-1.303-4.428-3.877-4.428c-2.476,0-4.168,1.847-4.891,2.974
	c0.02-0.108,0.776-2.419,0.776-2.419c-0.036-0.083-0.198-0.406-0.472-0.551c-0.247,0.027-3.036,0.342-5.825,0.346
	c-0.037,0.089-0.125,0.359-0.125,0.808c0,1.026,0.545,1.59,1.534,1.59c0.394,0,0.678-0.066,0.696-0.073v6.415l-0.147,2.073
	c-0.011,0.006-1.601,0.207-1.601,0.207c-0.183,0.984,0.028,1.838,0.082,2.033h5.543c1.385,0,1.533-1.009,1.533-1.445
	c0-0.522-0.11-0.808-0.147-0.897c0,0-1.423,0.033-1.444,0.033v-7.186c0-0.021,0.012-0.043,0.032-0.052
	c0.553-0.309,1.419-0.676,2.401-0.676c1.756,0,2.115,0.964,2.115,2.406v3.505l-0.144,2.079c-0.023,0-1.427,0.203-1.427,0.203
	C206.806,27.851,206.994,28.632,207.048,28.814"/>
<path fill="#292929" d="M58.305,26.982c-0.223,0.62-0.181,1.078,0.059,1.42c0.289,0.406,0.915,0.616,1.861,0.616
	c1.96,0,3.04-0.63,3.04-1.764c0-0.446-0.181-0.8-0.235-0.896l-1.616,0.031c-0.015,0-0.041,0.002-0.061,0.002v-7.36l0.379-3.062
	c-0.032-0.07-0.194-0.404-0.474-0.553c-0.261,0.027-3.317,0.342-6.116,0.346c-0.037,0.089-0.125,0.359-0.125,0.808
	c0,1.026,0.544,1.59,1.532,1.59c0.537,0,0.907-0.11,0.911-0.112c0.016-0.006,0.056-0.019,0.075-0.025v7.935
	c-0.014,0.01-0.042,0.019-0.042,0.019c-0.454,0.133-1.167,0.294-2.012,0.294c-1.607,0-2.203-0.669-2.203-2.465v-4.774l0.374-3.062
	c-0.031-0.07-0.191-0.404-0.472-0.553c-0.24,0.029-2.759,0.342-5.54,0.346c-0.035,0.089-0.123,0.359-0.123,0.808
	c0,1.026,0.545,1.59,1.534,1.59c0.192,0,0.335-0.027,0.335-0.027c0.028-0.008,0.053-0.015,0.071-0.021v6.276
	c0,3.287,1.231,4.631,4.255,4.631c2.586,0,4.042-1.339,4.624-2.131C58.326,26.926,58.316,26.949,58.305,26.982"/>
<path fill="#292929" d="M91.726,29.022c0.348,0.039,0.703,0.06,1.051,0.06c1.195,0,2.002-0.236,2.157-0.284l3.726-10.629
	c0.006-0.019,0.028-0.037,0.051-0.039c1.143-0.081,1.796-0.723,1.796-1.76c0-0.34-0.046-0.531-0.068-0.609h-6.104
	c-0.161,0.887,0.037,1.778,0.084,1.973l1.638,0.168c0.017,0.002,0.036,0.014,0.044,0.023c0.01,0.017,0.01,0.033,0.006,0.054
	c0,0-2.201,7.361-2.228,7.361c-0.025,0-2.827-9.587-2.827-9.587c-0.134-0.021-0.649-0.106-1.341-0.106
	c-0.461,0-0.916,0.035-1.346,0.108c0,0-2.941,9.039-2.968,9.039c-0.024,0-2.256-6.73-2.256-6.73
	c-0.006-0.017-0.001-0.037,0.008-0.054c0.014-0.014,0.028-0.019,0.049-0.019c1.103-0.031,1.766-0.638,1.766-1.621
	c0-0.338-0.05-0.531-0.07-0.607H71.679c-0.209,0.933,0.028,1.787,0.084,1.969l1.511,0.141c-0.015,0.029-0.051,0.075-0.061,0.095
	l-3.189,4.369l4.104,6.287c0.142,0.043,1.019,0.278,2.192,0.278c1.591,0,2.43-0.568,2.43-1.646c0-0.495-0.198-0.792-0.259-0.868
	l-1.316,0.044c-0.017,0-0.04-0.013-0.048-0.027l-3.317-4.763c-0.016-0.021-0.014-0.048,0.001-0.07l2.627-3.41h0.03
	c0.469,0.027,0.966,0.042,1.472,0.042c0.778,0,1.312-0.037,1.316-0.037c0.027,0,0.032,0,0.046,0l3.876,10.77
	c0.351,0.039,0.708,0.06,1.057,0.06c1.189,0,1.996-0.234,2.153-0.286c0,0,2.743-8.376,2.769-8.378
	C89.185,20.331,91.726,29.022,91.726,29.022"/>
<path fill="#292929" d="M133.234,28.62c0.143,0.042,1.02,0.28,2.192,0.28c1.591,0,2.432-0.57,2.432-1.648
	c0-0.493-0.2-0.79-0.258-0.866l-1.345,0.048c-0.007-0.01-3.357-4.825-3.357-4.825c0.005-0.015,2.647-3.445,2.647-3.445
	c0.027,0,0.131-0.002,0.18-0.002c1.299,0,2.077-0.638,2.077-1.71c0-0.326-0.054-0.593-0.076-0.692h-6.942
	c-0.208,0.937,0.028,1.787,0.084,1.969l1.525,0.147l-3.263,4.456L133.234,28.62z"/>
<path fill="#292929" d="M180.51,26.211c0,0-1.74,0.06-1.76,0.06v-5.793c0-3.741-1.311-5.066-5.008-5.066
	c-4.288,0-5.819,1.511-5.819,2.925c0,1.119,0.872,1.534,1.056,1.606c0.227-0.228,1.838-1.783,3.779-1.783
	c1.995,0,2.401,0.927,2.401,2.319v0.929h-0.06c-0.297-0.014-0.59-0.019-0.871-0.019c-5.713,0-6.913,2.371-6.913,4.361
	c0,2.195,1.369,3.356,3.966,3.356c2.898,0,4.337-2.338,4.327-2.307c-0.259,0.659-0.223,1.221,0.025,1.582
	c0.286,0.421,0.917,0.638,1.873,0.638c2.15,0,3.24-0.624,3.24-1.853C180.745,26.673,180.568,26.313,180.51,26.211 M175.043,26.309
	c-0.406,0.116-1.193,0.332-1.995,0.332c-1.195,0-1.88-0.504-1.88-1.387c0-0.754,0.307-1.621,2.72-1.621
	c0.336,0,0.714,0.019,1.155,0.052V26.309z"/>
<path fill="#292929" d="M181.629,28.814h5.803c1.117,0,1.707-0.5,1.707-1.445c0-0.5-0.11-0.804-0.152-0.897
	c0,0-1.647,0.05-1.729,0.05v-14.12l0.377-3.076c0-0.008,0.015-0.11-0.058-0.199c-0.074-0.085-0.209-0.129-0.405-0.129
	c-0.029,0-3.067,0.012-5.984,0.102c-0.034,0.089-0.123,0.357-0.123,0.81c0,1.026,0.54,1.59,1.531,1.59
	c0.394,0,0.695-0.07,0.695-0.068c0,0.015,0.001,13.069,0.001,13.069l-0.144,2.073c-0.128,0.027-1.6,0.207-1.6,0.207
	C181.362,27.766,181.573,28.62,181.629,28.814"/>
<path fill="#292929" d="M26.886,11.851c-4.347,0-7.459,0.126-7.859,0.143c-0.256,1.013,0.019,1.853,0.082,2.033l1.901,0.108
	c0.033,0.004,0.056,0.029,0.056,0.062v10.337l-0.144,2.164c-0.02,0.006-1.892,0.118-1.892,0.118c-0.185,0.933,0.03,1.808,0.084,2
	c0.38,0.016,3.276,0.112,6.728,0.112c6.454,0,10.626-3.522,10.626-8.971C36.468,16.216,33.957,11.851,26.886,11.851 M26.191,26.7
	H25.15v-9.837l0.14-2.552c0.332-0.027,0.721-0.056,1.131-0.056c3.7,0,5.819,2.183,5.819,5.995C32.239,24.287,29.98,26.7,26.191,26.7
	"/>
<path fill="#292929" d="M37.435,28.814h6.203c1.121,0,1.736-0.512,1.736-1.445c0-0.526-0.11-0.808-0.15-0.897l-2.251-0.01
	c-0.032,0-0.033,0.004-0.058,0.004V19.93c0.047,0,0.149-0.002,0.197-0.002c1.253,0,3.84-1.053,3.951-2.436
	c0.054-0.68-0.076-1.2-0.386-1.536c-0.294-0.317-0.749-0.483-1.356-0.483c-0.137,0.137-2.791,2.852-2.813,2.838
	c-0.026-0.015,0.86-2.384,0.579-2.813c-0.051-0.075-0.132-0.102-0.247-0.085c-0.031,0.002-2.934,0.346-5.843,0.35
	c-0.033,0.089-0.125,0.359-0.125,0.808c0,1.026,0.545,1.59,1.535,1.59c0.391,0,0.618-0.054,0.619-0.058
	c0.022,0,0.056-0.017,0.074-0.021v6.421l-0.142,2.077c-0.024,0.004-0.024,0.004-0.053,0.01l-1.55,0.193
	C37.168,27.766,37.378,28.62,37.435,28.814"/>
<path fill="#292929" d="M64.003,28.814h5.255c1.231,0,1.882-0.5,1.882-1.445c0-0.504-0.115-0.804-0.152-0.897
	c0,0-1.327,0.044-1.442,0.044V12.4l0.369-3.032c0,0,0.082-0.307-0.448-0.307c-0.011,0-0.997-0.023-2.377-0.023
	c-1.274,0-2.459,0.019-3.524,0.062c-0.036,0.087-0.126,0.357-0.126,0.81c0,1.024,0.544,1.586,1.533,1.588
	c0.531,0.004,0.671-0.068,0.697-0.083v13.086l-0.143,2.073c-0.141,0.021-1.602,0.207-1.602,0.207
	C63.739,27.766,63.952,28.62,64.003,28.814"/>
<path fill="#292929" d="M113.528,28.814h6.211c1.119,0,1.736-0.512,1.736-1.445c0-0.526-0.11-0.808-0.153-0.897l-2.248-0.01
	c-0.036,0-0.037,0.004-0.062,0.004V19.93c0.048,0,0.152-0.002,0.199-0.002c1.251,0,3.839-1.053,3.951-2.436
	c0.054-0.68-0.075-1.2-0.387-1.536c-0.293-0.317-0.746-0.483-1.354-0.483c-0.14,0.137-2.791,2.852-2.816,2.838
	c-0.021-0.015,0.861-2.384,0.577-2.813c-0.048-0.075-0.13-0.102-0.244-0.085c-0.032,0.002-2.939,0.346-5.851,0.35
	c-0.033,0.089-0.124,0.359-0.124,0.808c0,1.026,0.546,1.59,1.532,1.59c0.394,0,0.622-0.054,0.625-0.058
	c0.017,0,0.056-0.017,0.072-0.021v6.421l-0.143,2.077c-0.023,0.004-0.023,0.004-0.053,0.01l-1.551,0.193
	C113.261,27.766,113.471,28.62,113.528,28.814"/>
<path fill="#292929" d="M123.169,28.814h5.251c1.231,0,1.881-0.5,1.881-1.445c0-0.504-0.11-0.804-0.152-0.897
	c0,0-1.326,0.044-1.441,0.044V12.4l0.368-3.032c0,0,0.083-0.307-0.447-0.307c-0.013,0-0.998-0.023-2.376-0.023
	c-1.273,0-2.461,0.019-3.527,0.062c-0.033,0.087-0.124,0.357-0.124,0.81c0,1.024,0.542,1.586,1.533,1.588
	c0.53,0.004,0.67-0.068,0.697-0.083v13.086l-0.145,2.073c-0.137,0.021-1.6,0.207-1.6,0.207
	C122.902,27.766,123.116,28.62,123.169,28.814"/>
<path fill="#292929" d="M111.517,24.8c-0.268,0.191-2.244,1.555-4.375,1.555c-2.215,0-3.305-0.91-3.532-2.949
	c-0.005-0.015-0.006-0.048-0.006-0.066h8.578c0.186-2.95-0.336-5.109-1.556-6.413c-0.94-1.005-2.308-1.515-4.063-1.515
	c-4.018,0-6.512,2.916-6.512,7.611c0,3.957,2.352,6.138,6.628,6.138c4.079,0,5.527-1.513,5.527-2.923
	C112.203,25.253,111.653,24.88,111.517,24.8 M106.358,17.99c0.555,0,1.003,0.174,1.332,0.518c0.505,0.52,0.737,1.426,0.694,2.693
	h-4.622C103.997,19.101,104.894,17.99,106.358,17.99"/>
<path fill="#292929" d="M153.097,26.356c0,0-1.628,0.056-1.649,0.054l-0.002-14.008l0.377-2.987c0.003-0.01,0.041-0.164-0.05-0.278
	c-0.072-0.097-0.21-0.143-0.415-0.143c-0.005,0-0.66-0.021-1.635-0.021c-1.098,0-2.74,0.023-4.344,0.129
	c-0.033,0.087-0.129,0.356-0.129,0.81c0,1.024,0.548,1.588,1.535,1.588c0.421,0,0.736-0.083,0.739-0.083
	c0.016-0.004,0.056-0.012,0.073-0.019v4.224c-0.121-0.014-0.645-0.039-0.984-0.039c-5.098,0-8.395,2.947-8.395,7.497
	c0,3.694,2.162,5.996,5.643,5.996c2.82,0,4.164-1.984,4.383-2.141c-0.203,0.663-0.139,1.179,0.099,1.503
	c0.29,0.388,0.925,0.58,1.945,0.58c1.96,0,3.04-0.616,3.04-1.737C153.329,26.787,153.151,26.451,153.097,26.356 M147.484,25.881
	c-0.403,0.178-0.964,0.271-1.622,0.271c-2.352,0-3.443-1.159-3.443-3.65c0-2.962,1.328-4.285,4.309-4.285
	c0.275,0,0.515,0,0.756,0.025V25.881z"/>
<path fill="#292929" d="M165.186,24.8c-0.267,0.191-2.245,1.555-4.376,1.555c-2.212,0-3.303-0.91-3.531-2.949
	c-0.001-0.015,0.003-0.033,0.016-0.044c0.011-0.015,0.026-0.021,0.045-0.021h8.512c0.189-2.95-0.338-5.109-1.557-6.413
	c-0.939-1.005-2.307-1.515-4.062-1.515c-4.016,0-6.511,2.916-6.511,7.611c0,3.957,2.352,6.138,6.628,6.138
	c4.072,0,5.526-1.513,5.526-2.923C165.875,25.253,165.324,24.88,165.186,24.8 M160.029,17.99c0.554,0,1.003,0.174,1.335,0.518
	c0.499,0.52,0.733,1.426,0.692,2.693h-4.622C157.667,19.101,158.567,17.99,160.029,17.99"/>
<path fill="#292929" d="M214.914,28.814h5.801c1.118,0,1.708-0.5,1.708-1.445c0-0.5-0.109-0.804-0.152-0.897
	c0,0-1.644,0.05-1.73,0.05v-14.12l0.377-3.076c0-0.008,0.018-0.11-0.057-0.199c-0.072-0.085-0.209-0.129-0.405-0.129
	c-0.033,0-3.069,0.012-5.983,0.102c-0.037,0.089-0.127,0.357-0.127,0.81c0,1.026,0.547,1.59,1.534,1.59
	c0.393,0,0.694-0.07,0.694-0.068c0,0.015,0.003,13.069,0.003,13.069l-0.143,2.073c-0.129,0.027-1.603,0.207-1.603,0.207
	C214.647,27.766,214.86,28.62,214.914,28.814"/>
<g>
	<path fill="#E74E0F" d="M-8.967,27.836C-8.968,27.836-8.968,27.836-8.967,27.836c-0.044-0.008-0.088-0.015-0.132-0.023
		C-9.055,27.82-9.01,27.83-8.967,27.836z"/>
	<path fill="#E74E0F" d="M-12.081,21.825c0.032-0.042,0.074-0.081,0.13-0.114c1.133-0.678,1.248-1.074,1.127-1.714
		c-0.065-0.232-0.115-0.462-0.157-0.686c-0.021-0.1-0.045-0.203-0.065-0.313l0.019,0.004c-0.354-2.695,0.47-4.896,1.63-5.489
		c1.072-0.551,2.38-0.458,4.116,0.17c-0.83-0.727-2.637-1.068-4.674-0.985c-0.337,0.437-0.639,0.904-0.892,1.391
		c-0.518,1.003-0.835,2.108-0.866,3.236c-0.018,0.686,0.067,1.376,0.243,2.038c0.089,0.328,0.201,0.649,0.324,0.966
		c0.026,0.064,0.076,0.114,0.011,0.153c-0.081,0.046-0.162,0.095-0.243,0.141c-1.925,1.13-3.839,2.276-5.736,3.455
		c-0.343,0.212-0.686,0.427-1.032,0.64c-0.128,0.081-0.258,0.16-0.387,0.238c-0.136,0.081-0.12,0.228-0.144,0.381
		c-0.047,0.328-0.084,0.655-0.108,0.985c-0.098,1.351,0.006,2.72,0.313,4.04c0.295,1.273,0.778,2.506,1.461,3.621
		c0.345,0.558,0.74,1.092,1.189,1.575c0.415,0.448,0.814,0.684,0.498,0.446c0.067,0.042,0.132,0.085,0.2,0.128
		c-0.139-0.145-0.278-0.29-0.408-0.446c-2.186-2.612-3.442-7.875-1.584-10.766C-16.497,23.958-14.715,23.259-12.081,21.825z"/>
	<path fill="#E74E0F" d="M-9.111,27.791c0.004,0.008,0.01,0.014,0.012,0.021c-0.001-0.006-0.004-0.016-0.006-0.021
		C-9.107,27.793-9.109,27.791-9.111,27.791z"/>
	<path fill="#E74E0F" d="M12.291,19.539c0.003,0.021,0.003,0.019,0-0.006c-0.001-0.012-0.001-0.023-0.003-0.037l-0.037-0.307
		c-0.552-4.722-3.112-9.027-6.852-11.921C5.256,7.156,5.111,7.04,4.963,6.932c0.821,0.645,1.589,1.366,2.285,2.147
		c1.892,2.118,3.262,4.703,3.915,7.47c0.688,2.918,0.52,5.932-0.36,8.789c-0.439,1.428-1.029,2.806-1.684,4.146
		c-0.662,1.358-1.318,2.775-2.236,3.982c-0.922,1.213-1.999,2.288-3.161,3.273c-0.574,0.489-1.172,0.943-1.782,1.38
		c-0.59,0.427-1.24,0.842-1.944,1.032c1.822-1.076,3.446-2.465,4.835-4.059l1.35-1.936c0,0,0.476-0.786,0.689-1.175l0.329-0.618
		c2.21-4.332,2.646-8.519,1.926-12.281c0.018,0.114,0.039,0.226,0.054,0.34c0.407,2.993-0.084,6.071-1.225,8.853
		c-0.772,1.886-1.843,3.652-3.163,5.205c-0.655,0.767-1.371,1.486-2.146,2.133c-0.718,0.605-1.5,1.088-2.339,1.488
		c-0.062,0.033-0.141,0.072-0.233,0.114c0.078-0.037,0.154-0.075,0.233-0.114c0.256-0.133,0.202-0.135-0.473,0.222
		c5.057-2.682,8.474-8.152,9.13-13.786c0.498-4.26-0.698-8.623-3.637-11.8c0.048,0.017,0.107,0.064,0.161,0.062
		c0.061-0.002-0.103-0.22-0.11-0.228c1.15,1.177,2.292,2.276,2.821,3.816C6.045,9.113,0.185,3.245-7.588,3.887
		c0,0,1.671-0.131,2.982-0.155C4.669,4.554,8.823,14.388,9.477,16.987c0.66,2.626,0.878,5.298,0.226,7.918
		c-0.571,2.294-1.39,4.38-2.423,6.455l-0.407,0.792l-0.014,0.023c-0.125,0.315-1.122,1.739-1.771,2.616l0.166-0.247
		c-0.07,0.099-0.135,0.197-0.207,0.294c0.014-0.017,0.027-0.031,0.042-0.048c-0.028,0.041-0.059,0.081-0.09,0.118
		c0.005,0.019,0.593-0.688,1.018-1.283c-0.004,0.006-0.008,0.01-0.011,0.013c0.005-0.006,0.008-0.01,0.015-0.019
		c-0.002,0.004-0.003,0.004-0.003,0.006c0.419-0.589,0.716-1.237,1.084-1.855c0.391-0.661,0.758-1.331,1.096-2.017
		c0.612-1.235,1.133-2.518,1.535-3.837c0.67-2.203,0.998-4.514,0.874-6.815c-0.188-3.478-1.412-6.861-3.464-9.667
		C6.468,8.511,5.708,7.639,4.838,6.899C4.57,6.671,4.292,6.451,3.987,6.273C2.956,5.672,1.794,5.22,0.675,4.809
		c-0.985-0.361-1.991-0.663-3.019-0.875C-2.731,3.852-3.127,3.81-3.505,3.698c-0.627-0.185-1.341-0.174-1.99-0.157
		C-6.996,3.585-8.502,3.815-9.97,4.126c-1.408,0.301-2.869,0.684-4.157,1.341c0.785-0.388,1.545-0.835,2.355-1.169
		c0.732-0.303,1.501-0.525,2.272-0.701c1.656-0.385,3.363-0.537,5.061-0.585c-0.416,0.012,0.017,0,0,0
		C-4.042,3-3.574,2.936-3.173,2.996c0.008,0,0.016,0,0.025,0c-3.022-0.659-6.178-0.47-9.105,0.526
		c-2.704,0.92-5.161,2.506-7.18,4.517c-2.02,2.015-3.61,4.457-4.656,7.112c-0.43,1.09-0.781,2.247-0.909,3.42
		c-0.03,0.263-0.107,0.64,0.121,0.844c0.284,0.259,0.625-0.178,0.756-0.392c0.033-0.052,0.061-0.108,0.09-0.164
		c1.492-5.501,4.204-8.391,6.535-10.42c-0.05,0.068-0.098,0.133-0.148,0.201c0.07-0.062,0.139-0.126,0.208-0.187
		c-1.362,1.816-2.607,3.731-3.611,5.769l0,0h-0.02v0.037c0.232-0.352,0.478-0.696,0.736-1.032c0.051-0.068,0.11-0.133,0.165-0.201
		c0,0,0.002,0,0.003-0.002c0-0.002,0-0.002,0-0.004c0.769-0.96,1.63-1.832,2.586-2.576c0.304-0.282,0.783-0.682,1.282-1.051
		c0.497-0.369,1.02-0.701,1.374-0.908c0.579-0.342,1.18-0.638,1.794-0.897c0.036-0.014,0.07-0.027,0.103-0.043
		c-0.247,0.129-0.493,0.265-0.735,0.406c-0.354,0.205-0.877,0.537-1.374,0.908c-0.499,0.365-0.975,0.767-1.283,1.047
		c-2.612,2.038-4.604,5.076-5.685,8.306c-0.005,0.004-0.01,0.004-0.014,0.004c0.001,0.002,0.001,0.002,0.001,0.006
		c0.01,0.054,0.035,0.126,0.098,0.129c0.153,0.006,0.327-0.16,0.432-0.251c0.424-0.356,0.806-0.804,1.085-1.281
		c0.224-0.591,0.455-1.179,0.713-1.754c0.377-0.846,0.816-1.666,1.403-2.382c0.572-0.703,1.264-1.293,1.969-1.857
		c1.028-0.821,2.017-1.673,3.15-2.348c1.309-0.779,2.819-1.196,4.325-1.391c3.04-0.392,6.032,0.359,8.691,1.83
		c0.643,0.355,1.268,0.748,1.862,1.175l0.022,0.004C0.648,9.314-0.432,8.634-1.584,8.058c-2.081-1.057-4.365-1.611-6.671-1.544
		c-1.622,0.046-3.237,0.406-4.767,1.03c1.855-0.949,3.882-1.495,5.914-1.55c2.307-0.07,4.588,0.485,6.669,1.544
		c2.128,1.063,4.031,2.477,5.497,4.243c1.468,1.756,2.481,3.853,2.955,6.088c0.479,2.234,0.432,4.591-0.059,6.863
		c-0.455,2.106-1.292,4.141-2.436,5.976c-0.202,0.369-0.413,0.734-0.641,1.088c-0.127,0.203-0.257,0.4-0.394,0.597
		c-0.331,0.483-0.685,0.947-1.059,1.393c-0.655,0.784-3.511,3.468-4.868,4.042c-0.081,0.037-0.162,0.066-0.243,0.1
		c-1.317,0.672-2.898,0.777-4.022,1.007c-0.118,0.048-0.225,0.075-0.251,0.033c-0.044-0.068-0.584,0.087-0.656,0.097
		c-0.336,0.054-0.672,0.099-1.011,0.133c-0.008-0.129,0.042-0.27-0.107-0.261c-0.272,0.013-0.542,0.019-0.813,0.017
		c-0.544-0.004-1.087-0.044-1.628-0.114c-1.124-0.147-2.229-0.425-3.292-0.813c-0.798-0.292-1.57-0.638-2.3-1.068
		c-0.044-0.027-0.085-0.056-0.127-0.089c0.475,0.555,1.01,1.053,1.621,1.476c1.945,1.343,4.357,1.633,6.664,1.521
		c0.438-0.017,0.634-0.025,0.672-0.023c2.327-0.075,4.678-0.102,6.935-0.728c-0.143,0.193-0.667,0.497-1.076,0.612
		C-2.491,40.121-3.943,40.6-5.397,40.7c-1.55,0.106-3.083,0.043-4.631-0.06c-0.701-0.046-1.492-0.191-2.183-0.327
		c-0.737-0.222-1.45-0.471-2.156-0.783c-0.619-0.272-1.299-0.707-1.768-1.192c-0.494-0.508-1.023-0.96-1.445-1.526
		c0.015,0.017,0.036,0.033,0.052,0.048c-0.174-0.195-0.342-0.387-0.495-0.564c-0.782-0.902-1.402-1.934-1.855-3.033
		c-0.969-2.355-1.18-4.975-0.883-7.491c-0.019,0.694,0.035,1.383,0.121,2.071c-0.002-0.035,0.001-0.071,0-0.104
		c0-0.008,0-0.014,0-0.021c-0.016-0.786,0.061-1.577,0.27-2.334c0.157-0.576,0.341-1.161,0.718-1.633
		c0.35-0.437,0.841-0.707,1.31-0.997c0.507-0.309,1.013-0.626,1.516-0.943c0.427-0.269,0.845-0.574,1.167-0.966
		c0.16-0.195,0.283-0.406,0.389-0.634c0.065-0.139,0.11-0.288,0.149-0.437c0.023-0.089,0.027-0.199,0.061-0.286l0,0
		c0.001-0.014,0.006-0.027,0.008-0.043c-1.63,0.748-3.258,1.538-4.739,2.556c-0.365,0.251-0.725,0.514-1.056,0.806
		c-0.309,0.272-0.392,0.692-0.509,1.074c-0.281,0.939-0.466,1.909-0.559,2.883c-0.144-0.415-0.524-0.978-1.042-0.779
		c-0.421,0.162-0.555,0.725-0.616,1.123c-0.103,0.682,0.057,1.441,0.246,2.094c0.206,0.719,0.56,1.389,0.968,2.009
		c-1.03-0.008-0.414,1.242-0.144,1.725c0.286,0.516,0.621,0.999,0.994,1.457c0.484,0.591,0.965,1.194,1.467,1.778
		c0.955,1.105,2.257,1.791,3.521,2.487c0.656,0.361,1.315,0.723,1.973,1.082c0.636,0.348,1.29,0.676,1.988,0.875
		c1.338,0.385,2.799,0.433,4.182,0.491c0.702,0.025,1.404,0.052,2.106,0.072c0.356,0.01,0.715,0.021,1.073,0.035
		c0.192,0.008,0.386,0.016,0.578,0.033c0.047,0.004,0.214,0.004,0.25,0.05c0.019,0.021-0.621,0.131-0.663,0.135
		c-0.315,0.043-0.635,0.073-0.952,0.101c-0.639,0.048-1.279,0.062-1.919,0.043c-1.273-0.041-4.53-0.58-5.764-0.887
		c-1.231-0.307,6.181,2.377,11.932,0.622c4.822-1.47,8.763-5.085,11.219-9.419C11.59,28.17,12.689,23.817,12.291,19.539z"/>
	<path fill="#E74E0F" d="M-10.862,33.85c0,0-0.967-1.225-1.565-2.46c-0.47-0.972-0.603-1.953-0.591-2.338
		c0.044-1.459,1.397-1.891,2.268-1.959c0.339-0.026,0.622-0.011,0.627-0.01c0.019,0.001,0.037,0.001,0.056,0.001
		c0.169,0.01,0.112,0.187,0.32,0.213c0.736,0.085,0.503,0.45,0.51,0.45l0.125,0.029c0.001,0.01,0.004,0.015,0.007,0.023
		c0.051,0.017,0.095,0.029,0.137,0.043c0.02,0.004,0.038,0.008,0.058,0.01c0.091,0.016,0.18,0.031,0.264,0.046
		c-0.328-1.157-0.012-2.645,0.674-3.621c0.342-0.483,0.904-0.541,1.372-0.199c0.115,0.081,0.284,0.218,0.313,0.367
		c-0.059,0.388-0.093,0.781-0.082,1.173c0.029,0.978,0.196,1.524,0.606,2.243c0.39,0.69,0.66,1.575,0.627,2.371
		c0.002,0,0.002,0,0.003,0c0.001-0.002,0.004-0.006,0.008-0.015c0.033-0.06,0.121-0.33,0.158-0.435
		c0.011-0.019,0.017-0.041,0.028-0.062c0.004-0.01,0.009-0.017,0.014-0.025c0.044-0.087,0.094-0.168,0.153-0.243
		c0.234-0.309,0.528-0.327,0.88-0.375c0.155-0.019,0.307-0.043,0.461-0.062c0.037-0.004,0.072-0.01,0.108-0.015
		c0.089-0.014,0.177-0.027,0.267-0.041c0.317-0.048,0.635-0.095,0.953-0.147c0.029-0.002,0.059-0.008,0.088-0.012
		c1.66-0.263,3.32-0.52,4.966-0.862c0.254-0.054,0.507-0.102,0.759-0.158c0.009-0.002,0.017-0.006,0.027-0.006
		c-0.002,0.093,0.022,0.377,0.013,0.587c-0.008,0.041-0.013,0.081-0.013,0.126c0,0.004,0,0.004,0,0.006
		c-0.01,0.042-0.022,0.071-0.037,0.089c-0.007,0.004-0.017,0.01-0.031,0.017c-2.102,0.381-1.998,0.01-6.851,0.732
		c0.016,0.054,0.039,0.153,0.064,0.259c-0.003,0-0.006,0-0.01,0c0.019,0.064,0.038,0.128,0.055,0.191
		c0.02,0.083,0.037,0.156,0.048,0.201l0,0l5.018-0.937l-0.198,1.19c0,0-4.371,2.106-4.36,2.235c0.446,0.419,1.035,0.12,1.307-0.004
		c0.458-0.209,1.037-0.417,1.483-0.651c1.113-0.574,1.74-0.927,2.808-1.58c0.588-0.357,0.997-0.636,1.219-1.132
		c0.119-0.269,0.191-0.564,0.2-0.856c0.032-0.904,0.182-1.805,0.29-2.701c0.116-0.958,0.213-1.99,0.032-2.947
		c-0.108-0.576-0.41-1.155-0.906-1.484c-0.897-0.597-2.045-0.798-3.053-1.138c-0.562-0.189-1.092-0.431-1.573-0.779
		c-0.236-0.172-0.508-0.425-0.569-0.721c-0.044-0.22-0.074-0.441-0.093-0.661c-0.116-1.256-0.023-2.519-0.142-3.773
		c-0.094-1.009-0.338-2.411-1.378-2.892l-0.014-0.006c-0.014-0.006-0.025-0.012-0.039-0.017c1.284,1.447,0.69,4.832,1.034,6.764
		c-1.432-2.442-0.158-5.777-2.371-6.78c-0.579-0.245-2.085-0.332-3.602-0.357c-0.009,0-0.018,0-0.028-0.002
		c-0.081-0.002-0.161-0.006-0.243-0.006H-8.23c-1.381-0.029-2.737,0.023-3.322,0.039l-0.003,0.014
		c-0.234,0.06-0.457,0.232-0.651,0.357c-0.583,0.385-1.088,0.877-1.504,1.439c-0.424,0.576-0.672,1.285-0.84,1.977
		c-0.082,0.342-0.141,0.69-0.172,1.039c-0.006,0.074-0.001,0.145,0.011,0.214c0.268,0.852,0.802,1.588,0.844,2.508
		c0.003,0.808-0.244,1.58-0.736,2.222c-0.655,0.854-1.664,1.493-2.61,2.009c-0.326,0.176-0.675,0.309-0.986,0.512
		c-0.319,0.205-0.543,0.498-0.701,0.844c-0.412,0.883-0.471,1.37-0.35,1.297c0.191-0.12,0.381-0.24,0.571-0.354
		c0.289-0.182,0.577-0.361,0.866-0.537c0.833-0.516,1.675-1.026,2.515-1.534c0.576-0.344,1.153-0.688,1.731-1.03
		c0.349-0.207,0.697-0.412,1.045-0.616c0.082-0.046,0.164-0.095,0.243-0.141c0.065-0.039,0.015-0.087-0.011-0.153
		c-0.474-1.202-0.682-2.485-0.506-3.772c0.14-1.018,0.501-1.996,1.015-2.881c0.189-0.329,0.398-0.645,0.625-0.949
		c0.087-0.118,0.177-0.234,0.269-0.346c0.042-0.052,0.084-0.102,0.124-0.157c0.091-0.004,0.184-0.016,0.276-0.021
		c0.169-0.01,0.337-0.019,0.507-0.027c-0.025,0.002-0.049,0.002-0.075,0.002c0.102-0.133,0.196-0.245,0.272-0.344
		c0.048-0.056,0.09-0.108,0.125-0.151c2.623-0.222,4.522,0.423,5.683,1.107c0.204,0.64,0.474,2.282,0.577,3.826l-0.155,2.33
		l-0.053,0.23l0.225,0.079c0.371,0.129,0.696,0.278,0.999,0.433c0.076,0.041,0.15,0.081,0.225,0.124
		c0.039,0.019,0.078,0.042,0.115,0.062c0.06,0.035,0.118,0.07,0.176,0.104c0.039,0.023,0.078,0.046,0.117,0.07
		c0.059,0.037,0.12,0.075,0.179,0.112c0.034,0.021,0.068,0.043,0.104,0.064c0.087,0.056,0.175,0.112,0.264,0.17
		c0.807,0.516,1.711,1.094,3.214,1.615c0.099,0.06,0.2,0.124,0.301,0.193c0.37,0.363-0.194,2.987-0.284,3.607
		c-0.14,0.377-0.986,0.622-1.003,0.742c-0.003,0-0.008,0.002-0.013,0.002c0.013-0.091,0.025-0.195,0.039-0.301l-0.003,0.016
		c-0.662,0.184-1.321,0.383-1.989,0.551c-0.476,0.118-0.955,0.226-1.437,0.313c-0.23,0.041-0.594,0.122-0.827,0.114
		c-0.449-0.017-1-1.061-0.944-1.718c0.036-0.421,0.163-0.84,0.104-1.264c-0.03-0.22-0.114-0.417-0.216-0.613
		c0.082,0.469,0.127,2.201,0.005,2.618c-0.22,0.746-0.176-0.042-0.775,0.742c-0.199-0.342-0.444-2.747-0.217-3.373
		c0.132-0.365,0.566-0.348,0.598-0.541c0.008-0.033-0.054-0.34-0.191-0.479c0,0,0.066,0.027-0.048-0.054
		c-0.798-0.554-1.894-0.918-2.693-0.723c-0.879,0.214-1.716,1.113-2.15,2.027c-0.12,0.247-0.213,0.514-0.283,0.786
		c-0.016,0.075-0.149,0.893-0.127,0.893c-0.241,0.006-0.482,0.021-0.722,0.041c-0.791,0.062-2.578,0.099-3.267,0.881
		c-0.34,0.386-0.498,1.011-0.488,1.515c0.004,0.232,0.09,0.383,0.208,0.576c0.194,0.315,0.227,0.599,0.216,0.96
		c-0.01,0.313,0.033,0.585,0.219,0.837c0.171,0.228-0.013,0.423,0.152,0.655c0.005,0.004,0.005,0.01,0.007,0.014
		c0.078,0.108,0.136,0.218,0.148,0.325c0.01,0.075-0.16,0.889,0.124,1.325c0.33,0.508,1.127,0.643,1.176,0.754
		c0.596,1.241,2.165,1.316,2.56,1.316c0.068,0.043,0.128,0.083,0.172,0.122l0.02,0.017l0.055,0.048l0.098,0.006
		c0.105,0.01,0.209,0.012,0.312,0.012c0.02,0,0.038,0,0.057,0c0.077-0.002,0.153-0.004,0.229-0.008
		c0.637-0.041,1.284-0.193,1.758-0.328c0.034-0.008,0.054-0.015,0.059-0.017l0.006-0.002c0.03-0.008,0.066-0.019,0.097-0.027
		c0.09-0.027,0.903-0.989,1.116-1.354c0.004-0.006,0.006-0.014,0.011-0.019c0.017-0.031,0.032-0.062,0.038-0.083
		c-0.026,0.008-0.054,0.015-0.078,0.021c-0.731,0.178-1.707,0.425-2.436,0.56c-0.746,0.143-1.238,0.17-1.246,0.139
		C-9.843,34.308-10.806,33.91-10.862,33.85 M2.336,21.95c0.065,0.066,0.103,0.222,0.116,0.435C0.7,21.832-0.293,21.2-1.172,20.636
		C-0.287,21.204,0.92,20.991,2.336,21.95z M-13.895,20.924c0.099-0.066,0.195-0.128,0.292-0.191c0.11-0.07,0.237-0.099,0.205-0.236
		c-0.088-0.381-0.159-0.763-0.213-1.146c-0.09-0.651-0.128-1.31-0.107-1.967c0.034-0.995,0.206-1.992,0.549-2.929
		c0.165-0.448,0.365-0.891,0.631-1.289c0.061-0.089,0.127-0.185,0.208-0.259c0.065-0.062,0.2-0.043,0.283-0.043
		c0.247,0.008,0.498,0.043,0.737,0.114c-1.661,2.328-1.977,5.174-1.418,7.933c-1.728,0.985-3.512,1.88-5.297,2.759
		C-16.654,22.748-15.278,21.828-13.895,20.924z"/>
	<polygon fill="#E74E0F" points="-5.294,38.743 -5.304,38.749 -5.306,38.749 	"/>
	<path fill="#E74E0F" d="M-15.031,19.437c0.015-0.021,0.035-0.044,0.062-0.054C-14.996,19.392-15.014,19.416-15.031,19.437z"/>
</g>
<g>
	<path fill="#FFEC00" d="M-13.024,7.556c-0.034,0.014-0.068,0.029-0.103,0.043c-0.613,0.259-1.215,0.554-1.792,0.896
		c-0.354,0.205-0.876,0.539-1.374,0.908c-0.499,0.367-0.978,0.767-1.282,1.049c-1.025,0.8-1.947,1.741-2.754,2.784
		c-0.258,0.336-0.503,0.678-0.736,1.032c-0.879,1.793-1.292,3.159-1.412,3.984c0.129,0.021,0.267,0.01,0.38-0.029
		c1.082-3.233,3.073-6.266,5.685-8.308c0.308-0.278,0.783-0.68,1.283-1.045c0.497-0.371,1.019-0.703,1.374-0.908
		C-13.518,7.819-13.273,7.686-13.024,7.556z"/>
	<path fill="#FFEC00" d="M11.162,16.548c-0.652-2.767-2.023-5.352-3.915-7.468C6.552,8.298,5.784,7.579,4.962,6.934
		C5.11,7.04,5.255,7.156,5.402,7.268C4.034,6.13,2.515,5.183,0.912,4.412C0.068,4.007-0.808,3.659-1.705,3.384
		c-0.446-0.137-0.899-0.261-1.356-0.361c-0.425-0.097-0.945-0.019-1.38-0.006c-1.697,0.046-3.404,0.199-5.061,0.584
		c-0.77,0.178-1.539,0.4-2.271,0.701c-0.811,0.334-1.57,0.783-2.355,1.169c1.288-0.657,2.749-1.04,4.157-1.339
		c1.468-0.309,2.974-0.541,4.474-0.587c0.649-0.019,1.363-0.029,1.99,0.157c0.379,0.11,0.774,0.155,1.161,0.236
		c1.029,0.212,2.035,0.516,3.019,0.875c1.119,0.412,2.281,0.864,3.312,1.466c0.305,0.176,0.584,0.396,0.851,0.624
		c0.87,0.74,1.63,1.613,2.305,2.535c2.051,2.805,3.276,6.191,3.464,9.666c0.124,2.303-0.205,4.612-0.874,6.815
		c-0.402,1.32-0.922,2.603-1.535,3.837c-0.339,0.686-0.705,1.356-1.096,2.017c-0.368,0.618-0.666,1.267-1.084,1.855
		c-0.481,0.676-1.17,1.492-0.987,1.238c-1.434,1.689-3.125,3.159-5.033,4.286c0.703-0.191,1.354-0.607,1.944-1.032
		c0.61-0.439,1.209-0.893,1.782-1.382c1.161-0.982,2.24-2.058,3.161-3.271c0.918-1.21,1.574-2.624,2.236-3.984
		c0.655-1.341,1.245-2.717,1.684-4.144C11.682,22.48,11.85,19.468,11.162,16.548z"/>
	<path fill="#FFEC00" d="M-4.441,3.019C-4.425,3.017-4.858,3.029-4.441,3.019L-4.441,3.019z"/>
	<path fill="#FFEC00" d="M-3.127,29.577c0.003,0,0.006,0,0.01,0c-0.027-0.108-0.049-0.205-0.064-0.259
		c4.854-0.723,4.75-0.352,6.852-0.732c0.014-0.008,0.023-0.012,0.03-0.017c0.015-0.017,0.028-0.046,0.038-0.089
		c0-0.004,0-0.004,0-0.006c0-0.042,0.005-0.085,0.013-0.126c0.009-0.211-0.015-0.495-0.013-0.587c-0.01,0-0.018,0.004-0.027,0.006
		c-0.253,0.056-0.506,0.104-0.759,0.158c-1.646,0.342-3.306,0.597-4.966,0.862c-0.029,0.004-0.059,0.01-0.088,0.012
		c-0.318,0.052-0.635,0.099-0.953,0.147c-0.09,0.014-0.178,0.025-0.267,0.041c-0.036,0.004-0.071,0.01-0.108,0.015
		c-0.155,0.019-0.308,0.045-0.461,0.062c-0.352,0.048-0.646,0.068-0.881,0.375c-0.058,0.073-0.108,0.157-0.152,0.243
		c-0.005,0.01-0.01,0.017-0.014,0.025c-0.011,0.021-0.017,0.043-0.028,0.062C-5,29.872-5.088,30.143-5.122,30.203
		c-0.005,0.01-0.008,0.015-0.009,0.015c0.704-0.064,1.407-0.16,2.109-0.255c-0.012-0.044-0.029-0.118-0.049-0.201
		C-3.089,29.704-3.108,29.641-3.127,29.577z"/>
	<path fill="#FFEC00" d="M-4.258,26.794c0.132-0.454,0.068-2.465-0.026-2.713c-0.045-0.116-0.185-0.489-0.24-0.556l-0.32-0.383
		c0.138,0.139,0.199,0.446,0.191,0.479c-0.032,0.191-0.466,0.174-0.598,0.539c-0.227,0.626,0.02,3.031,0.217,3.375
		C-4.434,26.752-4.477,27.54-4.258,26.794z"/>
	<path fill="#FFEC00" d="M-9.811,35.263c-0.395,0-1.965-0.075-2.56-1.316c-0.05-0.106-0.846-0.245-1.176-0.752
		c-0.284-0.435-0.113-1.252-0.124-1.327c-0.019-0.156-0.134-0.325-0.277-0.491c-0.116,0.73-0.317,1.905-0.031,2.332
		c0.239,0.35,0.547,0.126,0.837,0.354c0.213,0.168,0.414,0.327,0.554,0.508c0.129,0.164,0.284,0.299,0.446,0.421
		c0.014,0.006,0.029,0.015,0.042,0.021c0.169,0.095,0.328,0.183,0.419,0.263l0.03,0.027c0.024,0.012,0.046,0.027,0.069,0.039
		l0.074,0.006c0.681,0.058,1.319,0.068,1.891,0.052l-0.02-0.015C-9.682,35.346-9.743,35.307-9.811,35.263z"/>
	<path fill="#FFEC00" d="M-1.175,20.633c0.88,0.564,1.872,1.196,3.625,1.75c-0.013-0.214-0.05-0.371-0.116-0.435
		C0.917,20.988-0.29,21.201-1.175,20.633z"/>
	<path fill="#FFEC00" d="M-1.956,17.88c-0.343-1.934,0.25-5.317-1.034-6.764c0.014,0.004,0.024,0.01,0.039,0.017
		c-0.106-0.122-0.224-0.232-0.356-0.326c-0.621-0.527-2.969-0.906-4.895-0.748c-0.178,0.015-0.366,0.031-0.554,0.046
		c-0.192,0.017-0.377,0.031-0.551,0.046c-0.681,0.079-1.462,0.247-2.239,0.622c0.585-0.016,1.94-0.066,3.322-0.039h0.024
		c0.081,0.002,0.162,0.004,0.242,0.006c0.011,0.002,0.02,0.002,0.029,0.002c1.516,0.025,3.023,0.112,3.602,0.357
		C-2.115,12.102-3.389,15.437-1.956,17.88z"/>
</g>
<g>
	<polygon fill="#E5007E" points="-17.49,36.871 -17.487,36.873 -17.487,36.873 	"/>
	<path fill="#E5007E" d="M8.014,17.876c-0.474-2.235-1.487-4.332-2.955-6.086c-1.464-1.764-3.368-3.18-5.496-4.243
		C-2.519,6.489-4.8,5.931-7.106,6.003c-2.032,0.056-4.059,0.601-5.914,1.55c1.529-0.622,3.145-0.983,4.767-1.028
		c2.306-0.071,4.589,0.485,6.671,1.542c2.128,1.063,4.032,2.479,5.497,4.243c1.469,1.754,2.481,3.851,2.953,6.088
		c0.481,2.236,0.433,4.593-0.058,6.863c-0.493,2.276-1.422,4.469-2.711,6.415c-1.289,1.948-2.942,3.657-4.868,4.927
		c-0.456,0.303-0.931,0.576-1.414,0.825c-0.081,0.043-0.164,0.079-0.244,0.12c0.003,0,0.001,0-0.003,0.002
		c0-0.002,0.001-0.002,0.003-0.002c-2.272,0.875-4.744,1.326-7.16,0.852c-0.77-0.153-1.518-0.394-2.249-0.684
		c-0.704-0.276-1.422-0.553-2.097-0.891c-0.667-0.336-1.377-0.721-1.886-1.271c-0.449-0.483-0.845-1.014-1.189-1.573
		c-0.683-1.115-1.166-2.348-1.461-3.621c-0.307-1.322-0.411-2.69-0.313-4.04c0.024-0.33,0.06-0.657,0.108-0.985
		c0.024-0.153,0.008-0.298,0.144-0.381c0.129-0.077,0.259-0.158,0.387-0.238c0.345-0.214,0.688-0.427,1.032-0.641
		c1.896-1.175,3.812-2.322,5.736-3.453c0.081-0.046,0.162-0.097,0.243-0.143c0.065-0.039,0.015-0.087-0.011-0.151
		c-0.124-0.315-0.235-0.64-0.324-0.966c-0.176-0.665-0.261-1.353-0.243-2.038c0.031-1.13,0.347-2.236,0.866-3.236
		c0.254-0.489,0.556-0.956,0.893-1.393c2.177-0.087,4.093,0.309,4.832,1.14c0.789,0.891,0.774,3.735,0.559,5.478
		c-0.121,0.984-0.403,1.437-0.403,1.437s2.118,0.556,2.704,0.935c0.885,0.564,1.884,1.206,3.664,1.76
		c-0.034,0.686-0.256,2.591-0.39,3.634c0.005,0,0.009-0.002,0.013-0.004c0.017-0.118,0.864-0.363,1.003-0.74
		c0.09-0.622,0.653-3.244,0.284-3.607c-0.101-0.07-0.202-0.133-0.301-0.195c-1.502-0.518-2.406-1.096-3.214-1.615
		c-0.089-0.056-0.177-0.114-0.264-0.168c-0.035-0.021-0.07-0.042-0.104-0.064c-0.059-0.039-0.119-0.077-0.179-0.112
		c-0.04-0.021-0.079-0.046-0.118-0.07c-0.058-0.033-0.116-0.068-0.176-0.104c-0.039-0.021-0.076-0.042-0.115-0.064
		c-0.073-0.041-0.147-0.081-0.225-0.122c-0.304-0.156-0.628-0.307-0.999-0.435l-0.225-0.077l0.053-0.232l0.156-2.328
		c-0.104-1.546-0.374-3.188-0.577-3.828c-1.162-0.684-3.06-1.329-5.683-1.107c-0.036,0.042-0.076,0.095-0.125,0.153
		c-0.076,0.097-0.17,0.209-0.272,0.342c0.026,0,0.05,0,0.075-0.002c-0.17,0.008-0.338,0.017-0.506,0.029
		c-0.092,0.006-0.185,0.015-0.276,0.021c-0.04,0.052-0.081,0.102-0.124,0.157c-0.092,0.112-0.182,0.228-0.269,0.346
		c-0.228,0.303-0.436,0.62-0.625,0.947c-0.514,0.887-0.877,1.863-1.015,2.883c-0.176,1.287,0.031,2.568,0.505,3.77
		c0.026,0.066,0.076,0.116,0.011,0.155c-0.079,0.046-0.16,0.093-0.243,0.141c-0.348,0.205-0.696,0.41-1.045,0.614
		c-0.578,0.344-1.155,0.686-1.731,1.032c-0.841,0.508-1.681,1.016-2.515,1.534c-0.289,0.176-0.577,0.356-0.866,0.537
		c-0.19,0.114-0.38,0.234-0.571,0.352c-0.029,0.017-0.072,0.005-0.058-0.057c0.094-0.428,0.226-0.845,0.409-1.237
		c0.158-0.344,0.383-0.638,0.701-0.844c0.312-0.201,0.661-0.336,0.986-0.51c0.946-0.518,1.955-1.155,2.618-2.021
		c0.492-0.642,0.739-1.414,0.736-2.222c-0.044-0.945-0.607-1.693-0.867-2.572c-0.049,0.701,0.163,1.397,0.366,2.06
		c0.099,0.328,0.204,0.657,0.29,0.989c0.03,0.12,0.078,0.145-0.049,0.199c-0.087,0.039-0.174,0.077-0.261,0.116
		c-0.197,0.089-0.392,0.178-0.586,0.268c-0.134,0.06-0.115,0.257-0.152,0.396c-0.039,0.149-0.084,0.3-0.148,0.435
		c-0.107,0.228-0.229,0.439-0.39,0.636c-0.322,0.392-0.741,0.694-1.167,0.966c-0.501,0.315-1.009,0.634-1.515,0.943
		c-0.47,0.29-0.961,0.558-1.31,0.995c-0.377,0.473-0.561,1.059-0.718,1.633c-0.209,0.761-0.285,1.548-0.27,2.334
		c0.012,0.674,0.2,1.387,0.352,2.04c0.19,0.823,0.436,1.633,0.728,2.425c0.727,1.967,1.751,3.82,3.013,5.491
		c-0.329-0.259-0.735-0.558-1.033-0.856c0.421,0.564,0.951,1.016,1.444,1.524c0.47,0.485,1.15,0.92,1.769,1.194
		c0.705,0.307,1.419,0.558,2.155,0.783c0.692,0.133,1.482,0.278,2.183,0.326c1.548,0.101,3.082,0.164,4.631,0.058
		c1.455-0.1,2.906-0.58,4.315-0.97c0.41-0.116,0.933-0.421,1.077-0.613c-2.257,0.624-4.608,0.651-6.935,0.727
		c-0.039-0.002-0.233,0.006-0.672,0.023c-2.308,0.112-4.72-0.178-6.664-1.521c-0.61-0.421-1.146-0.924-1.621-1.476
		c0.042,0.033,0.082,0.062,0.127,0.089c0.73,0.435,1.502,0.777,2.3,1.069c1.064,0.39,2.168,0.667,3.292,0.813
		c0.54,0.07,1.084,0.11,1.628,0.114c0.271,0.002,0.541-0.002,0.813-0.017c0.149-0.01,0.099,0.131,0.107,0.263
		c0.339-0.037,0.674-0.081,1.011-0.135c0.071-0.01,0.611-0.166,0.655-0.097c0.028,0.043,0.134,0.016,0.252-0.033
		C-4.582,38.716-3,38.61-1.683,37.937c0.081-0.033,0.162-0.062,0.243-0.1c1.357-0.574,4.214-3.26,4.868-4.042
		c0.374-0.446,0.728-0.91,1.059-1.393c0.137-0.195,0.267-0.392,0.394-0.597c0.227-0.352,0.44-0.719,0.641-1.086
		c1.146-1.838,1.982-3.872,2.437-5.978C8.446,22.468,8.494,20.111,8.014,17.876z M-5.304,38.749c0.003-0.004,0.006-0.004,0.01-0.006
		c-0.005,0.002-0.008,0.006-0.013,0.006C-5.305,38.749-5.304,38.749-5.304,38.749z"/>
	<path fill="#E5007E" d="M-10.729,27.087c0.005,0,0.397-0.017,0.56-0.013c0.034,0,0.068,0.002,0.103,0.004
		c0.169,0.008,0.112,0.187,0.321,0.211c0.736,0.087,0.502,0.45,0.509,0.45l0.125,0.031c0.001,0.006,0.004,0.014,0.007,0.023
		c-0.365-0.112-0.959-0.241-1.824-0.214c-0.698,0.019-1.082,0.091-1.29,0.276c-1.041,0.933,0.375,1.538,0.183,1.926
		c-0.773,1.559,0.476,1.362,0.667,1.65c0.088,0.135-0.19,0.721-0.071,1.063c0.134,0.381,0.398,0.41,0.746,0.47
		c0.352,0.064,0.196,0.783,0.671,1.08c0.547,0.342,1.515-0.05,2.348-0.205c0.835-0.155,2.605-0.837,2.605-0.837l-0.139,0.92
		c-0.007,0.033-0.408,0.039-0.786,0.808c-0.089,0.182-0.197,0.361-0.326,0.535l-0.044,0.062l-0.069,0.031
		c-0.066,0.033-2.047,0.553-4.519,0.342l-0.098-0.01l-0.073-0.064c-0.092-0.075-0.252-0.166-0.422-0.263
		c-0.012-0.004-0.024-0.014-0.04-0.019l0.074,0.006c0.682,0.058,1.32,0.068,1.891,0.052l0.055,0.048l0.098,0.006
		c0.105,0.01,0.209,0.012,0.312,0.012c0.019,0,0.038,0,0.057,0c0.077-0.002,0.154-0.004,0.23-0.008
		c0.637-0.041,1.284-0.193,1.758-0.328c0.033-0.008,0.053-0.015,0.059-0.017l0.006-0.002c0.031-0.008,0.066-0.019,0.097-0.027
		c0.09-0.027,0.903-0.991,1.116-1.354c0.005-0.006,0.007-0.014,0.014-0.021c0.017-0.031,0.032-0.06,0.038-0.081
		c-0.026,0.008-0.055,0.015-0.078,0.021c-0.731,0.176-1.707,0.423-2.436,0.562c0,0-0.677,0.113-0.797,0.125
		c-0.12,0.012-0.403,0.033-0.429,0.024c-0.025-0.009-0.123-0.028-0.196-0.05s-1.061-0.35-1.15-0.465c0,0-1.03-1.292-1.415-2.115
		c-0.385-0.823-0.81-1.641-0.74-2.716C-13.021,29.016-13.116,27.277-10.729,27.087z"/>
	<path fill="#E5007E" d="M-8.969,27.836c-0.042-0.014-0.086-0.027-0.136-0.043c0.001,0.006,0.004,0.014,0.006,0.019
		C-9.055,27.82-9.012,27.828-8.969,27.836z"/>
	<path fill="#E5007E" d="M-8.645,27.89c-0.085-0.014-0.174-0.031-0.265-0.044c-0.021-0.004-0.039-0.006-0.058-0.01
		C-8.727,27.915-8.625,27.965-8.645,27.89z"/>
</g>
<circle fill="#E74E0F" cx="193.32" cy="22.263" r="2.133"/>
<path fill="#E5007E" d="M-9.551,34.337"/>
<path fill="#E74E0F" d="M-10.865,33.847"/>
</svg>
