<svg xmlns="http://www.w3.org/2000/svg" width="158.974" height="39.765" viewBox="0 0 158.974 39.765"><defs><style>.a{fill:#292929;}.b{fill:#e74e0f;}.c{fill:#fff;}.d{fill:#ffec00;}.e{fill:#e5007e;}</style></defs><title>printdeal-logo</title><path class="a" d="M47,24.332l0.145-2.007V11.937l-1.949-.116A3.6,3.6,0,0,1,45.1,9.668s2.968-.145,7.914-0.145c5.412,0,6.954,2.851,6.954,5.3,0,3.288-2.764,6.11-8.845,6.256v3.258l2.793-.116a2.155,2.155,0,0,1,.175.96c0,0.873-.495,1.513-1.775,1.513H45.191a4.711,4.711,0,0,1-.087-2.153Zm4.132-5.383c3.288-.145,4.714-1.833,4.714-3.957,0-1.833-.96-3.113-3.288-3.113-0.436,0-.9.029-1.28,0.058l-0.145,2.1V18.95Z" transform="translate(-0.5 -0.15)"/><path class="a" d="M74.109,24.332L74.254,22.3V15.836a3.292,3.292,0,0,1-.786.087,1.473,1.473,0,0,1-1.6-1.659,1.663,1.663,0,0,1,.145-0.815c2.968,0,6.052-.349,6.052-0.349a1.29,1.29,0,0,1,.523.582l-0.378,3.084v7.566l1.716-.116a2.155,2.155,0,0,1,.175.96c0,0.873-.495,1.513-1.775,1.513H72.595a4.711,4.711,0,0,1-.087-2.153ZM76.146,6.875A2.244,2.244,0,0,1,78.474,9.26a2.3,2.3,0,0,1-2.386,2.357A2.268,2.268,0,0,1,73.7,9.26,2.339,2.339,0,0,1,76.146,6.875Z" transform="translate(-0.5 -0.15)"/><path class="a" d="M91.5,24.332L91.65,22.3V18.775c0-1.513-.408-2.357-2.066-2.357a5.058,5.058,0,0,0-2.386.669v7.245l1.426-.116a2.007,2.007,0,0,1,.175.96,1.421,1.421,0,0,1-1.6,1.513H81.582a4.711,4.711,0,0,1-.087-2.153l1.6-.2L83.241,22.3V15.923a2.907,2.907,0,0,1-.64.058A1.473,1.473,0,0,1,81,14.323a2.105,2.105,0,0,1,.146-0.873,57.242,57.242,0,0,0,5.906-.349,1.3,1.3,0,0,1,.523.611l-0.785,2.444A5.991,5.991,0,0,1,91.65,13.1c2.822,0,3.957,1.746,3.957,4.51v6.722l1.717-.116a2.007,2.007,0,0,1,.175.96,1.5,1.5,0,0,1-1.775,1.513H90.166a4.94,4.94,0,0,1-.087-2.153Z" transform="translate(-0.5 -0.15)"/><path class="a" d="M99.419,13.159l0.233-2.793a6.337,6.337,0,0,1,3.87-.145l-0.378,3.23,3.521-.262a1.555,1.555,0,0,1,.233.989c0,1.251-.756,1.92-2.706,1.8l-0.96-.058v6.517c0,1.31.408,1.629,1.542,1.629a10,10,0,0,0,2.531-.378,1.606,1.606,0,0,1,.233.96c0,1.31-.815,2.211-4.015,2.211-3,0-4.132-1.135-4.132-3.9V15.72L97.411,15.6A3.775,3.775,0,0,1,97.5,13.6,15.631,15.631,0,0,0,99.419,13.159Z" transform="translate(-0.5 -0.15)"/><path class="a" d="M61.308,26.658h6.285c1.134,0,1.757-.519,1.757-1.463a2.153,2.153,0,0,0-.154-0.908l-2.275-.009c-0.035,0-.036,0-0.062,0V17.67c0.049,0,.154,0,0.2,0,1.267,0,3.885-1.067,4-2.465a1.989,1.989,0,0,0-.391-1.555,1.792,1.792,0,0,0-1.371-.489c-0.141.139-2.825,2.886-2.85,2.871s0.872-2.41.584-2.843a0.221,0.221,0,0,0-.247-0.087,59.084,59.084,0,0,1-5.919.35,2.336,2.336,0,0,0-.125.819,1.426,1.426,0,0,0,1.55,1.61,2.7,2.7,0,0,0,.632-0.058,0.491,0.491,0,0,0,.074-0.022v6.5l-0.146,2.1a0.446,0.446,0,0,1-.053.01l-1.569.2a4.789,4.789,0,0,0,.082,2.056" transform="translate(-0.5 -0.15)"/><path class="a" d="M150.742,24.024l-1.782.058v-5.86c0-3.784-1.326-5.125-5.068-5.125-4.34,0-5.888,1.529-5.888,2.958a1.725,1.725,0,0,0,1.068,1.627,6.053,6.053,0,0,1,3.824-1.806c2.019,0,2.43.937,2.43,2.344v0.941h-0.061c-0.3-.014-0.6-0.021-0.882-0.021-5.782,0-6.994,2.4-6.994,4.412,0,2.224,1.386,3.4,4.014,3.4a5.444,5.444,0,0,0,4.378-2.335,1.728,1.728,0,0,0,.025,1.6,2.2,2.2,0,0,0,1.9.643c2.175,0,3.279-.631,3.279-1.873a2.051,2.051,0,0,0-.238-0.965m-5.532.1a7.543,7.543,0,0,1-2.02.339c-1.209,0-1.9-.511-1.9-1.4,0-.763.31-1.642,2.752-1.642,0.34,0,.724.018,1.169,0.053v2.653h0Z" transform="translate(-0.5 -0.15)"/><path class="a" d="M151.874,26.658h5.872c1.131,0,1.728-.507,1.728-1.463a2.289,2.289,0,0,0-.154-0.908s-1.666.052-1.75,0.052V10.049l0.382-3.112a0.275,0.275,0,0,0-.058-0.2,0.525,0.525,0,0,0-.41-0.132c-0.031,0-3.1.012-6.054,0.1a2.282,2.282,0,0,0-.126.819,1.425,1.425,0,0,0,1.55,1.611,3.756,3.756,0,0,0,.7-0.069c0,0.017,0,13.226,0,13.226l-0.146,2.1c-0.131.028-1.62,0.212-1.62,0.212a4.764,4.764,0,0,0,.082,2.055" transform="translate(-0.5 -0.15)"/><path class="a" d="M123,24.17s-1.649.057-1.669,0.056V10.048l0.381-3.024a0.351,0.351,0,0,0-.05-0.28,0.5,0.5,0,0,0-.42-0.145c-0.007,0-.668-0.018-1.655-0.018-1.111,0-2.772.022-4.395,0.128a2.277,2.277,0,0,0-.129.819,1.428,1.428,0,0,0,1.553,1.611,3.251,3.251,0,0,0,.746-0.085c0.017-.005.058-0.013,0.074-0.02V13.31c-0.122-.013-0.651-0.039-0.995-0.039-5.16,0-8.495,2.98-8.495,7.587,0,3.738,2.188,6.064,5.71,6.064a5.809,5.809,0,0,0,4.435-2.164,1.707,1.707,0,0,0,.1,1.519,2.4,2.4,0,0,0,1.968.586c1.984,0,3.076-.623,3.076-1.757A1.9,1.9,0,0,0,123,24.17m-5.681-.479a4.227,4.227,0,0,1-1.641.271c-2.381,0-3.485-1.172-3.485-3.689,0-3,1.344-4.336,4.362-4.336a7.424,7.424,0,0,1,.764.025v7.73h0Z" transform="translate(-0.5 -0.15)"/><path class="a" d="M135.234,22.6a8.554,8.554,0,0,1-4.429,1.573c-2.239,0-3.343-.92-3.573-2.982a0.054,0.054,0,0,1,.015-0.047,0.055,0.055,0,0,1,.045-0.021h8.614c0.192-2.987-.341-5.17-1.575-6.492a5.382,5.382,0,0,0-4.111-1.531c-4.065,0-6.59,2.951-6.59,7.7,0,4,2.38,6.209,6.709,6.209,4.122,0,5.592-1.528,5.592-2.957a1.575,1.575,0,0,0-.7-1.455M130.016,15.7a1.8,1.8,0,0,1,1.351.525,3.727,3.727,0,0,1,.7,2.726h-4.678c0.237-2.127,1.148-3.251,2.628-3.251" transform="translate(-0.5 -0.15)"/><path class="b" d="M16.761,25.668h0l-0.131-.022Z" transform="translate(-0.5 -0.15)"/><path class="b" d="M13.61,19.584a0.477,0.477,0,0,1,.132-0.115c1.145-.687,1.263-1.087,1.142-1.735-0.067-.236-0.119-0.468-0.159-0.7-0.022-.1-0.045-0.2-0.067-0.316l0.02,0.005c-0.358-2.728.475-4.957,1.648-5.555,1.087-.557,2.409-0.463,4.167.171-0.84-.735-2.67-1.08-4.73-1a9.318,9.318,0,0,0-.905,1.41,7.6,7.6,0,0,0-.875,3.274,7.281,7.281,0,0,0,.246,2.062,9.184,9.184,0,0,0,.327.976c0.026,0.066.079,0.116,0.012,0.154l-0.246.144q-2.921,1.715-5.8,3.494l-1.044.65c-0.13.081-.261,0.162-0.392,0.241a0.449,0.449,0,0,0-.145.385q-0.073.5-.11,1a13.727,13.727,0,0,0,.315,4.09,12.319,12.319,0,0,0,1.48,3.664,10.1,10.1,0,0,0,1.2,1.594c0.42,0.452.824,0.693,0.506,0.451l0.2,0.13c-0.141-.146-0.28-0.294-0.413-0.452-2.211-2.642-3.481-7.971-1.6-10.9C9.141,21.743,10.944,21.036,13.61,19.584Z" transform="translate(-0.5 -0.15)"/><path class="b" d="M16.615,25.623a0.1,0.1,0,0,1,.012.022l-0.006-.02Z" transform="translate(-0.5 -0.15)"/><path class="b" d="M38.273,17.272c0,0.021,0,.018,0-0.006s0-.024,0-0.036l-0.038-.312A18.047,18.047,0,0,0,31.3,4.855c-0.147-.114-0.293-0.23-0.443-0.34a18.239,18.239,0,0,1,2.315,2.171,17.419,17.419,0,0,1,3.96,7.558,16.949,16.949,0,0,1-.364,8.9,29.3,29.3,0,0,1-1.7,4.2A23.794,23.794,0,0,1,32.8,31.368a21.193,21.193,0,0,1-3.2,3.311c-0.581.493-1.186,0.953-1.8,1.4a6.392,6.392,0,0,1-1.967,1.045,20.077,20.077,0,0,0,4.894-4.109l1.365-1.959s0.482-.8.7-1.188l0.332-.627a19.035,19.035,0,0,0,1.95-12.427c0.018,0.114.038,0.229,0.054,0.345a17.544,17.544,0,0,1-1.239,8.959,19.6,19.6,0,0,1-3.2,5.267,18.3,18.3,0,0,1-2.171,2.16,19.411,19.411,0,0,1-2.847,1.729A18.412,18.412,0,0,0,34.9,21.32,14.952,14.952,0,0,0,31.223,9.38a0.492,0.492,0,0,0,.162.062,0.375,0.375,0,0,0-.11-0.23,10.774,10.774,0,0,1,2.855,3.863C31.952,6.728,26.022.791,18.157,1.438c0,0,1.692-.131,3.016-0.159C30.56,2.112,34.763,12.064,35.424,14.695a16.39,16.39,0,0,1,.23,8.012A31.553,31.553,0,0,1,33.2,29.239l-0.41.8-0.014.021a27.219,27.219,0,0,1-1.793,2.649l0.169-.25c-0.071.1-.137,0.2-0.209,0.3l0.041-.047c-0.029.04-.061,0.079-0.09,0.119a15.5,15.5,0,0,0,1.029-1.3l-0.011.014,0.014-.02,0,0.006c0.424-.6.726-1.252,1.1-1.88q0.593-1,1.11-2.04a25.473,25.473,0,0,0,1.552-3.882,20.048,20.048,0,0,0,.885-6.9,18.315,18.315,0,0,0-3.505-9.781,14.849,14.849,0,0,0-2.333-2.565,6.065,6.065,0,0,0-.86-0.632,21.236,21.236,0,0,0-3.352-1.482,21.453,21.453,0,0,0-3.054-.887C23.07,1.406,22.67,1.36,22.287,1.248a6.569,6.569,0,0,0-2.014-.157,25.477,25.477,0,0,0-4.528.593A17.179,17.179,0,0,0,11.538,3.04c0.8-.393,1.563-0.846,2.385-1.185a14.688,14.688,0,0,1,2.3-.71A25.92,25.92,0,0,1,21.342.554c-0.423.011,0.017,0,0,0a7.531,7.531,0,0,1,1.28-.013h0.024a17.259,17.259,0,0,0-9.213.531A19.065,19.065,0,0,0,6.169,5.645a21.108,21.108,0,0,0-4.711,7.194A13.592,13.592,0,0,0,.536,16.3a1,1,0,0,0,.122.856c0.289,0.261.632-.179,0.765-0.4,0.034-.054.061-0.111,0.091-0.167A20,20,0,0,1,8.128,6.047c-0.051.068-.1,0.135-0.149,0.2,0.07-.062.139-0.125,0.21-0.187A36.97,36.97,0,0,0,4.535,11.9H4.516v0.038q0.353-.537.744-1.045c0.054-.069.113-0.135,0.168-0.2l0,0,0,0a15.967,15.967,0,0,1,2.615-2.61,16.752,16.752,0,0,1,1.3-1.061,16.122,16.122,0,0,1,1.39-.918,14.97,14.97,0,0,1,1.815-.906c0.035-.014.069-0.03,0.1-0.044q-0.376.194-.744,0.41a15.852,15.852,0,0,0-1.39.919c-0.5.373-.987,0.778-1.3,1.061a18.022,18.022,0,0,0-5.752,8.408l-0.013,0v0a0.134,0.134,0,0,0,.1.131,0.811,0.811,0,0,0,.437-0.253,5.1,5.1,0,0,0,1.1-1.3c0.225-.6.46-1.194,0.721-1.779a10.608,10.608,0,0,1,1.42-2.409A12.975,12.975,0,0,1,9.228,8.464a28.577,28.577,0,0,1,3.187-2.375A11.406,11.406,0,0,1,16.79,4.681a14.353,14.353,0,0,1,8.8,1.853,18.751,18.751,0,0,1,1.885,1.191h0.022a18.7,18.7,0,0,0-3.257-2.062A13.977,13.977,0,0,0,17.484,4.1,13.805,13.805,0,0,0,12.66,5.144a13.689,13.689,0,0,1,12.735-.009,17.124,17.124,0,0,1,5.562,4.292,14.207,14.207,0,0,1,2.99,6.161,16.551,16.551,0,0,1-.06,6.947,19.111,19.111,0,0,1-2.466,6.048c-0.2.373-.42,0.741-0.648,1.1-0.129.2-.261,0.4-0.4,0.6q-0.5.732-1.072,1.411a22.348,22.348,0,0,1-4.927,4.091c-0.082.035-.165,0.065-0.247,0.1a15.162,15.162,0,0,1-4.07,1.019,0.275,0.275,0,0,1-.255.033,1.987,1.987,0,0,0-.664.1q-0.509.083-1.022,0.136c-0.009-.131.041-0.272-0.109-0.265q-0.411.022-.823,0.017a13.923,13.923,0,0,1-1.647-.115,15.471,15.471,0,0,1-3.333-.824,13.889,13.889,0,0,1-2.326-1.081,1.166,1.166,0,0,1-.129-0.09,8.621,8.621,0,0,0,1.639,1.493,10.794,10.794,0,0,0,6.745,1.539c0.443-.017.642-0.024,0.68-0.024a29.724,29.724,0,0,0,7.019-.736,2.591,2.591,0,0,1-1.089.619,22.4,22.4,0,0,1-4.367.983,34.548,34.548,0,0,1-4.685-.059,18.867,18.867,0,0,1-2.209-.329,19.365,19.365,0,0,1-2.181-.793A6,6,0,0,1,9.509,36.3a16.322,16.322,0,0,1-1.46-1.544c0.016,0.016.035,0.032,0.052,0.048-0.176-.2-0.345-0.391-0.5-0.572a11.162,11.162,0,0,1-1.876-3.069,15.272,15.272,0,0,1-.9-7.579,14.1,14.1,0,0,0,.122,2.094c0-.035,0-0.071,0-0.106V25.552a8.355,8.355,0,0,1,.273-2.363,4.462,4.462,0,0,1,.727-1.652A4.836,4.836,0,0,1,7.275,20.53q0.769-.474,1.534-0.956A4.865,4.865,0,0,0,9.989,18.6a2.955,2.955,0,0,0,.393-0.641,2.558,2.558,0,0,0,.151-0.441,2.585,2.585,0,0,1,.061-0.29h0c0-.014.006-0.028,0.009-0.043a31.783,31.783,0,0,0-4.8,2.588,11.085,11.085,0,0,0-1.069.815,2.2,2.2,0,0,0-.514,1.088,15.169,15.169,0,0,0-.566,2.917A0.934,0.934,0,0,0,2.6,23.8a1.366,1.366,0,0,0-.623,1.136,5.192,5.192,0,0,0,.248,2.121,7.432,7.432,0,0,0,.981,2.031c-1.043-.007-0.419,1.258-0.147,1.747A10.081,10.081,0,0,0,4.067,32.31c0.49,0.6.978,1.211,1.484,1.8a12.336,12.336,0,0,0,3.562,2.517q1,0.549,2,1.094a10.009,10.009,0,0,0,2.012.887,18.228,18.228,0,0,0,4.232.5c0.71,0.03,1.42.052,2.13,0.074,0.362,0.011.724,0.022,1.087,0.036,0.195,0.007.391,0.014,0.586,0.031a0.525,0.525,0,0,1,.253.05,5.207,5.207,0,0,1-.67.137c-0.321.042-.643,0.076-0.965,0.1a17.719,17.719,0,0,1-1.942.043,42.793,42.793,0,0,1-5.831-.9c-1.245-.308,6.256,2.4,12.074.629a20.188,20.188,0,0,0,11.353-9.532A21.584,21.584,0,0,0,38.273,17.272Z" transform="translate(-0.5 -0.15)"/><path class="b" d="M8.414,20.331c-0.329.178-.682,0.314-1,0.518a1.967,1.967,0,0,0-.711.853c-0.415.894-.475,1.388-0.354,1.312l0.578-.36q0.437-.273.876-0.543,1.268-.783,2.545-1.549,0.875-.525,1.753-1.043,0.527-.312,1.057-0.622l0.246-.145c0.066-.039.014-0.088-0.012-0.154a7.593,7.593,0,0,1-.512-3.816,8.015,8.015,0,0,1,1.027-2.916,9.7,9.7,0,0,1,.634-0.959c0.089-.118.179-0.235,0.272-0.35,0.043-.052.085-0.1,0.126-0.158l0.279-.022c0.171-.012.342-0.021,0.513-0.03l-0.075,0c0.1-.133.2-0.249,0.275-0.345,0.049-.059.091-0.112,0.126-0.158a9.659,9.659,0,0,1,5.753,1.124,20.925,20.925,0,0,1,.583,3.872L22.239,17.2l-0.051.234,0.225,0.079a7.606,7.606,0,0,1,1.011.441q0.115,0.06.227,0.122l0.116,0.066,0.179,0.1,0.119,0.071,0.181,0.113,0.1,0.066,0.268,0.17A13.87,13.87,0,0,0,27.87,20.3c0.1,0.063.2,0.128,0.306,0.2,0.373,0.369-.2,3.022-0.288,3.651a3.816,3.816,0,0,1-1.014.75l-0.013,0c0.012-.1.025-0.2,0.039-0.306l0,0.015c-0.671.185-1.338,0.387-2.014,0.556-0.482.12-.966,0.23-1.455,0.317a4.83,4.83,0,0,1-.835.116c-0.455-.015-1.013-1.074-0.956-1.739a5.77,5.77,0,0,0,.106-1.279,1.918,1.918,0,0,0-.22-0.619,11.335,11.335,0,0,1,0,2.65c-0.223.755-.178-0.042-0.784,0.753a8.787,8.787,0,0,1-.22-3.417,3.5,3.5,0,0,1,.605-0.545,0.924,0.924,0,0,0-.194-0.485s0.067,0.026-.05-0.056a3.759,3.759,0,0,0-2.725-.732,3.765,3.765,0,0,0-2.175,2.052,4.231,4.231,0,0,0-.284.795,8.809,8.809,0,0,0-.129.9c-0.244.007-.488,0.022-0.731,0.042-0.8.064-2.609,0.1-3.307,0.89a2.378,2.378,0,0,0-.494,1.535,1.072,1.072,0,0,0,.21.581,1.6,1.6,0,0,1,.218.973,1.263,1.263,0,0,0,.223.842c0.172,0.232-.014.428,0.154,0.663l0.007,0.013a0.77,0.77,0,0,1,.15.327,2.437,2.437,0,0,0,.125,1.343,3.4,3.4,0,0,0,1.191.762,2.869,2.869,0,0,0,2.59,1.331,1.808,1.808,0,0,1,.175.122L16.1,33.323l0.056,0.048,0.1,0.007c0.107,0.009.212,0.012,0.315,0.012H16.63c0.08,0,.157,0,0.234-0.01a8.6,8.6,0,0,0,1.778-.331,0.527,0.527,0,0,0,.06-0.017l0.006,0,0.1-.028a8.387,8.387,0,0,0,1.13-1.372l0.011-.018a0.455,0.455,0,0,0,.039-0.084l-0.079.02c-0.739.179-1.726,0.429-2.465,0.568a4.709,4.709,0,0,1-1.261.14,6.606,6.606,0,0,1-1.335-.513q-0.175-.219-0.335-0.432c-0.034-.045-0.066-0.091-0.1-0.136-0.072-.1-0.143-0.2-0.21-0.292l-0.1-.152c-0.061-.091-0.121-0.18-0.178-0.269l-0.1-.15c-0.057-.091-0.112-0.182-0.165-0.271-0.026-.044-0.053-0.088-0.078-0.131-0.062-.11-0.122-0.218-0.178-0.325-0.011-.021-0.024-0.043-0.035-0.065q-0.1-.194-0.186-0.382c-0.013-.028-0.024-0.056-0.036-0.084-0.042-.1-0.083-0.19-0.12-0.284-0.015-.04-0.029-0.079-0.044-0.117-0.03-.081-0.059-0.161-0.085-0.24-0.014-.041-0.026-0.08-0.038-0.12-0.024-.078-0.045-0.155-0.065-0.23-0.01-.036-0.02-0.073-0.028-0.109-0.02-.084-0.036-0.167-0.051-0.249,0-.025-0.01-0.05-0.014-0.073-0.017-.106-0.03-0.211-0.037-0.313V27.3c-0.006-.093-0.009-0.183-0.007-0.272,0-.027,0-0.053,0-0.08,0-.067.008-0.133,0.015-0.2,0-.029.009-0.058,0.013-0.087,0.009-.06.021-0.119,0.035-0.176,0.006-.027.013-0.055,0.02-0.082,0.017-.059.036-0.116,0.058-0.173,0.008-.021.015-0.044,0.024-0.065a1.971,1.971,0,0,1,.108-0.218l0.01-.015a1.724,1.724,0,0,1,.193-0.26c0.01-.012.02-0.024,0.031-0.035a1.819,1.819,0,0,1,.239-0.216l0.041-.028a2.082,2.082,0,0,1,.284-0.175l0.016-.009a2.833,2.833,0,0,1,.34-0.137l0.069-.022a3.422,3.422,0,0,1,.386-0.095l0.049-.007c0.129-.021.263-0.037,0.4-0.047l0.075-.006c0.151-.009.309-0.01,0.473-0.005l0.105,0c0.173,0.007.113,0.189,0.326,0.214,0.744,0.087.507,0.454,0.514,0.456L16.616,25.6l0.008,0.026,0.138,0.043,0.059,0.01,0.268,0.047a4.628,4.628,0,0,1,.683-3.664,0.935,0.935,0,0,1,1.388-.2,0.748,0.748,0,0,1,.317.373,6.63,6.63,0,0,0-.083,1.185,4.279,4.279,0,0,0,.612,2.271,4.734,4.734,0,0,1,.637,2.4l0,0a0.033,0.033,0,0,0,.009-0.013c0.033-.063.123-0.335,0.161-0.441,0.01-.02.017-0.042,0.027-0.062l0.014-.027a1.54,1.54,0,0,1,.154-0.247A1.138,1.138,0,0,1,21.9,26.91c0.155-.02.311-0.045,0.466-0.066l0.11-.013,0.27-.042c0.322-.047.644-0.1,0.965-0.147l0.089-.014c1.679-.265,3.361-0.526,5.025-0.872,0.256-.052.513-0.1,0.768-0.161l0.026-.006c0,0.1.024,0.383,0.014,0.595a0.857,0.857,0,0,0-.014.127v0.006a0.189,0.189,0,0,1-.036.091,0.219,0.219,0,0,0-.03.016c-2.128.385-2.023,0.009-6.933,0.74,0.015,0.055.038,0.154,0.064,0.262H22.675c0.018,0.064.036,0.129,0.054,0.193,0.02,0.083.037,0.158,0.049,0.2h0l5.078-.947-0.2,1.205s-4.422,2.131-4.41,2.261a1.15,1.15,0,0,0,1.321,0c0.464-.212,1.049-0.424,1.5-0.658,1.125-.581,1.76-0.94,2.842-1.6a2.709,2.709,0,0,0,1.233-1.146,2.357,2.357,0,0,0,.2-0.868c0.032-.913.183-1.826,0.293-2.733a9.93,9.93,0,0,0,.033-2.982,2.307,2.307,0,0,0-.916-1.5A12.986,12.986,0,0,0,26.663,17.7a5.876,5.876,0,0,1-1.591-.788,1.359,1.359,0,0,1-.577-0.73,6.293,6.293,0,0,1-.094-0.669c-0.116-1.27-.023-2.548-0.142-3.818-0.1-1.022-.343-2.443-1.395-2.927L22.85,8.762c-0.013-.006-0.024-0.012-0.038-0.018,1.3,1.465.7,4.891,1.046,6.845-1.451-2.472-.16-5.847-2.4-6.861a13.693,13.693,0,0,0-3.643-.363H17.785l-0.247-.006H17.514c-1.4-.028-2.769.022-3.361,0.038l0,0.016a2.33,2.33,0,0,0-.658.362,6,6,0,0,0-1.521,1.455,5.549,5.549,0,0,0-.85,2,7.4,7.4,0,0,0-.175,1.053,0.806,0.806,0,0,0,.01.216,10.092,10.092,0,0,1,.855,2.537,3.639,3.639,0,0,1-.745,2.249A8.309,8.309,0,0,1,8.414,20.331Zm19.78-.624a0.76,0.76,0,0,1,.119.442,13.778,13.778,0,0,1-3.668-1.771C25.542,18.954,26.763,18.737,28.195,19.708ZM11.772,18.67l0.295-.192c0.112-.073.24-0.1,0.207-0.241q-0.133-.575-0.215-1.159a11.652,11.652,0,0,1-.108-1.991,9.582,9.582,0,0,1,.556-2.965,6.07,6.07,0,0,1,.638-1.3,1.452,1.452,0,0,1,.21-0.264,0.428,0.428,0,0,1,.285-0.041,2.9,2.9,0,0,1,.747.115,10.11,10.11,0,0,0-1.435,8.025c-1.749,1-3.555,1.9-5.362,2.794Q9.674,20.049,11.772,18.67Z" transform="translate(-0.5 -0.15)"/><path class="b" d="M20.477,36.706l-0.009,0,0,0Z" transform="translate(-0.5 -0.15)"/><path class="b" d="M10.624,17.17a0.154,0.154,0,0,1,.063-0.058A0.165,0.165,0,0,0,10.624,17.17Z" transform="translate(-0.5 -0.15)"/><path class="c" d="M31.922,31.533l0-.006-0.014.02Z" transform="translate(-0.5 -0.15)"/><path class="c" d="M35.425,14.695C34.763,12.064,30.561,2.112,21.174,1.28c-1.325.027-3.016,0.159-3.016,0.159,7.866-.647,13.8,5.29,15.973,11.638a10.781,10.781,0,0,0-2.855-3.863,0.378,0.378,0,0,1,.11.23,0.492,0.492,0,0,1-.162-0.062A14.954,14.954,0,0,1,34.9,21.321c-0.666,5.7-7.121,12.832-6.394,12.221a18.339,18.339,0,0,0,2.171-2.16,19.591,19.591,0,0,0,3.2-5.267,17.538,17.538,0,0,0,1.239-8.959c-0.015-.116-0.036-0.23-0.054-0.345a19.035,19.035,0,0,1-1.95,12.427l-0.332.627c-0.214.39-.7,1.188-0.7,1.188L30.357,33.54q0.324-.414.627-0.826c-0.013.016-.027,0.031-0.041,0.047,0.072-.1.139-0.2,0.209-0.3l-0.169.25a27.386,27.386,0,0,0,1.793-2.649l0.014-.021,0.41-.8a31.523,31.523,0,0,0,2.455-6.532A16.4,16.4,0,0,0,35.425,14.695Z" transform="translate(-0.5 -0.15)"/><path class="c" d="M13.639,10.515a0.431,0.431,0,0,0-.285.041,1.475,1.475,0,0,0-.21.264,6.045,6.045,0,0,0-.638,1.3,9.594,9.594,0,0,0-.556,2.965,11.652,11.652,0,0,0,.108,1.991q0.082,0.584.215,1.159c0.033,0.14-.1.168-0.207,0.241l-0.295.192c-1.4.916-2.793,1.847-4.183,2.78,1.806-.89,3.613-1.8,5.362-2.794a10.11,10.11,0,0,1,1.435-8.025A2.9,2.9,0,0,0,13.639,10.515Z" transform="translate(-0.5 -0.15)"/><path class="c" d="M5.306,27.616a10.385,10.385,0,0,1-.356-2.044c0,0.036,0,.072,0,0.108a14.1,14.1,0,0,1-.122-2.094,15.283,15.283,0,0,0,.894,7.579A11.162,11.162,0,0,0,7.6,34.235c0.157,0.181.326,0.374,0.5,0.572,0.3,0.284.677,0.572,0.994,0.82a21.771,21.771,0,0,1-3.05-5.556A20.566,20.566,0,0,1,5.306,27.616Zm2.833,7.2h0l0,0Z" transform="translate(-0.5 -0.15)"/><path class="d" d="M12.655,5.145l-0.1.044a15.01,15.01,0,0,0-1.815.906,16.04,16.04,0,0,0-1.39.918c-0.505.372-.988,0.778-1.3,1.061A16.041,16.041,0,0,0,5.26,10.893q-0.389.507-.744,1.045a14.919,14.919,0,0,0-1.431,4.033,0.853,0.853,0,0,0,.385-0.028A18.026,18.026,0,0,1,9.222,7.535c0.312-.283.794-0.688,1.3-1.061a16.057,16.057,0,0,1,1.39-.919C12.156,5.411,12.4,5.275,12.655,5.145Z" transform="translate(-0.5 -0.15)"/><path class="d" d="M37.131,14.244a17.419,17.419,0,0,0-3.96-7.558,18.165,18.165,0,0,0-2.315-2.171c0.151,0.11.3,0.226,0.445,0.341a21.832,21.832,0,0,0-4.543-2.89A19.18,19.18,0,0,0,24.11.924Q23.431,0.715,22.737.56a5.982,5.982,0,0,0-1.4-.006,25.921,25.921,0,0,0-5.122.591,14.745,14.745,0,0,0-2.3.71c-0.822.339-1.589,0.792-2.385,1.185a17.156,17.156,0,0,1,4.207-1.356,25.477,25.477,0,0,1,4.528-.593,6.569,6.569,0,0,1,2.014.157c0.383,0.113.783,0.158,1.175,0.239a21.453,21.453,0,0,1,3.054.887,21.236,21.236,0,0,1,3.352,1.482,6.024,6.024,0,0,1,.86.632,14.912,14.912,0,0,1,2.333,2.565,18.315,18.315,0,0,1,3.505,9.781,20.048,20.048,0,0,1-.885,6.9,25.473,25.473,0,0,1-1.552,3.882q-0.515,1.041-1.11,2.04c-0.372.628-.674,1.284-1.1,1.88a10.4,10.4,0,0,1-1,1.254,20.129,20.129,0,0,1-5.093,4.335A6.392,6.392,0,0,0,27.8,36.077c0.618-.445,1.223-0.905,1.8-1.4a21.17,21.17,0,0,0,3.2-3.311,23.814,23.814,0,0,0,2.262-4.031,29.334,29.334,0,0,0,1.7-4.2A16.945,16.945,0,0,0,37.131,14.244Z" transform="translate(-0.5 -0.15)"/><path class="d" d="M21.341,0.554h0Z" transform="translate(-0.5 -0.15)"/><path class="d" d="M22.672,27.43H22.68c-0.026-.108-0.049-0.207-0.064-0.262,4.91-.732,4.805-0.356,6.933-0.74a0.219,0.219,0,0,1,.03-0.016,0.189,0.189,0,0,0,.036-0.091V26.314a0.841,0.841,0,0,1,.014-0.127c0.01-.212-0.014-0.5-0.014-0.595l-0.026.006c-0.255.058-.512,0.108-0.768,0.161-1.664.347-3.346,0.607-5.025,0.872l-0.089.014c-0.321.052-.643,0.1-0.965,0.147l-0.27.042-0.11.013c-0.155.021-.31,0.046-0.466,0.066a1.137,1.137,0,0,0-.892.378,1.54,1.54,0,0,0-.154.247l-0.014.027c-0.011.02-.018,0.042-0.027,0.062-0.038.106-.128,0.378-0.161,0.441a0.033,0.033,0,0,1-.01.015c0.713-.066,1.425-0.163,2.135-0.259-0.011-.045-0.029-0.119-0.049-0.2Z" transform="translate(-0.5 -0.15)"/><path class="d" d="M21.526,24.613a10.767,10.767,0,0,0-.026-2.747,4.291,4.291,0,0,0-.243-0.562l-0.323-.385a0.922,0.922,0,0,1,.194.485,3.463,3.463,0,0,0-.605.545,8.787,8.787,0,0,0,.22,3.417C21.348,24.571,21.3,25.369,21.526,24.613Z" transform="translate(-0.5 -0.15)"/><path class="d" d="M15.908,33.186a2.869,2.869,0,0,1-2.59-1.331,3.4,3.4,0,0,1-1.191-.762A2.437,2.437,0,0,1,12,29.749a1.079,1.079,0,0,0-.28-0.5,4.636,4.636,0,0,0-.03,2.361,2.108,2.108,0,0,0,.845.359,3.185,3.185,0,0,1,.561.513,2.274,2.274,0,0,0,.452.426l0.04,0.022a2.913,2.913,0,0,1,.425.267l0.03,0.026,0.069,0.04,0.075,0.006a16.763,16.763,0,0,0,1.912.053l-0.019-.017A1.775,1.775,0,0,0,15.908,33.186Z" transform="translate(-0.5 -0.15)"/><path class="d" d="M24.645,18.379a13.778,13.778,0,0,0,3.668,1.771,0.756,0.756,0,0,0-.119-0.442C26.763,18.737,25.542,18.954,24.645,18.379Z" transform="translate(-0.5 -0.15)"/><path class="d" d="M23.855,15.592c-0.346-1.955.252-5.381-1.046-6.845l0.038,0.018a1.96,1.96,0,0,0-.359-0.332c-0.629-.535-3-0.916-4.953-0.757-0.18.017-.371,0.033-0.561,0.047l-0.558.048a6.951,6.951,0,0,0-2.267.629c0.592-.017,1.964-0.066,3.361-0.038h0.025l0.247,0.006h0.029a13.693,13.693,0,0,1,3.643.363C23.7,9.745,22.4,13.12,23.855,15.592Z" transform="translate(-0.5 -0.15)"/><polygon class="e" points="7.635 34.66 7.638 34.664 7.639 34.664 7.635 34.66"/><path class="e" d="M33.945,15.589a14.2,14.2,0,0,0-2.99-6.161,17.124,17.124,0,0,0-5.562-4.292,13.689,13.689,0,0,0-12.735.009A13.793,13.793,0,0,1,17.483,4.1a13.977,13.977,0,0,1,6.751,1.561A17.122,17.122,0,0,1,29.8,9.956a14.184,14.184,0,0,1,2.989,6.161,16.549,16.549,0,0,1-.06,6.947,19.18,19.18,0,0,1-2.743,6.491,17.6,17.6,0,0,1-4.927,4.985,15.208,15.208,0,0,1-1.433.837c-0.082.042-.165,0.081-0.247,0.121h0a13.185,13.185,0,0,1-7.243.861,12.977,12.977,0,0,1-2.277-.69c-0.714-.282-1.437-0.559-2.123-0.9a6.625,6.625,0,0,1-1.91-1.284,10.1,10.1,0,0,1-1.2-1.594,12.3,12.3,0,0,1-1.48-3.664,13.727,13.727,0,0,1-.315-4.09q0.037-.5.11-1a0.451,0.451,0,0,1,.145-0.385c0.131-.079.262-0.16,0.392-0.241l1.044-.65q2.878-1.787,5.8-3.494l0.246-.144c0.066-.039.014-0.088-0.012-0.154a9.185,9.185,0,0,1-.327-0.976,7.279,7.279,0,0,1-.246-2.062,7.587,7.587,0,0,1,.875-3.274,9.318,9.318,0,0,1,.905-1.41c2.2-.089,4.141.311,4.889,1.154,0.8,0.9.783,3.776,0.566,5.54A3.894,3.894,0,0,1,20.81,18.5a16.294,16.294,0,0,1,2.734.945,13.8,13.8,0,0,0,3.708,1.783c-0.034.694-.257,2.622-0.394,3.678l0.013,0a3.84,3.84,0,0,0,1.014-.75c0.091-.629.661-3.283,0.288-3.651-0.1-.069-0.2-0.135-0.306-0.2a13.913,13.913,0,0,1-3.252-1.634l-0.268-.17-0.1-.066-0.181-.113-0.119-.071-0.179-.1-0.116-.066c-0.074-.042-0.15-0.083-0.227-0.122a7.606,7.606,0,0,0-1.011-.441l-0.225-.079,0.051-.234L22.4,14.844a20.925,20.925,0,0,0-.583-3.872A9.659,9.659,0,0,0,16.06,9.848c-0.035.045-.077,0.1-0.126,0.158-0.077.1-.171,0.213-0.275,0.345l0.075,0c-0.171.009-.342,0.018-0.513,0.03l-0.279.022c-0.041.053-.083,0.105-0.126,0.158-0.092.115-.183,0.232-0.272,0.35a9.7,9.7,0,0,0-.634.959,8.015,8.015,0,0,0-1.027,2.916A7.593,7.593,0,0,0,13.4,18.6c0.026,0.067.078,0.115,0.012,0.154l-0.246.145L12.1,19.52q-0.878.519-1.753,1.043-1.277.767-2.545,1.549l-0.876.543-0.578.36a0.751,0.751,0,0,0-.143.477q-0.049.311-.075,0.624c-0.013.165-.02,0.33-0.025,0.5a7.258,7.258,0,0,1,.6-2.909,1.974,1.974,0,0,1,.711-0.853c0.315-.2.669-0.339,1-0.518a8.284,8.284,0,0,0,2.648-2.044,3.639,3.639,0,0,0,.745-2.249,11.083,11.083,0,0,0-.877-2.6,5.857,5.857,0,0,0,.37,2.085c0.1,0.333.207,0.665,0.295,1,0.032,0.122.08,0.145-.05,0.2l-0.264.118q-0.3.134-.593,0.271a0.532,0.532,0,0,0-.154.4,2.529,2.529,0,0,1-.151.441,2.963,2.963,0,0,1-.393.641,4.853,4.853,0,0,1-1.181.976q-0.764.483-1.534,0.956a4.847,4.847,0,0,0-1.326,1.007,4.469,4.469,0,0,0-.727,1.652,8.353,8.353,0,0,0-.273,2.363,10.24,10.24,0,0,0,.357,2.064,20.631,20.631,0,0,0,.738,2.456,21.778,21.778,0,0,0,3.05,5.556,12.527,12.527,0,0,1-1.046-.869A16.322,16.322,0,0,0,9.507,36.3,5.984,5.984,0,0,0,11.3,37.51a19.328,19.328,0,0,0,2.181.793,18.867,18.867,0,0,0,2.209.329,34.55,34.55,0,0,0,4.685.059,22.387,22.387,0,0,0,4.367-.983,2.593,2.593,0,0,0,1.089-.619,29.724,29.724,0,0,1-7.019.736c-0.038,0-.237.006-0.68,0.024a10.793,10.793,0,0,1-6.745-1.539,8.622,8.622,0,0,1-1.639-1.493,1.242,1.242,0,0,0,.129.09A13.909,13.909,0,0,0,12.2,35.986a15.471,15.471,0,0,0,3.333.824,13.915,13.915,0,0,0,1.647.115q0.412,0,.823-0.017c0.15-.007.1,0.133,0.109,0.265q0.513-.053,1.022-0.136a1.987,1.987,0,0,1,.664-0.1,0.275,0.275,0,0,0,.255-0.033,15.178,15.178,0,0,0,4.07-1.019c0.082-.034.165-0.064,0.247-0.1A22.348,22.348,0,0,0,29.3,31.7q0.567-.679,1.072-1.411c0.137-.2.269-0.4,0.4-0.6,0.229-.359.446-0.728,0.648-1.1a19.111,19.111,0,0,0,2.466-6.048A16.532,16.532,0,0,0,33.945,15.589ZM20.469,36.71l0.009,0-0.012.005Z" transform="translate(-0.5 -0.15)"/><path class="e" d="M19.935,31.632A8.387,8.387,0,0,1,18.805,33l-0.1.028-0.006,0a0.527,0.527,0,0,1-.06.017,8.592,8.592,0,0,1-1.778.331c-0.077.005-.154,0.009-0.234,0.01H16.571c-0.1,0-.208,0-0.315-0.012l-0.1-.007L16.1,33.325a16.884,16.884,0,0,1-1.912-.053l-0.075-.006a0.4,0.4,0,0,1,.04.023,2.9,2.9,0,0,1,.425.266l0.075,0.065,0.1,0.008a13.977,13.977,0,0,0,4.573-.345l0.07-.031,0.044-.062a3.678,3.678,0,0,0,.329-0.542,1.361,1.361,0,0,1,.8-0.82l0.14-.93a22.329,22.329,0,0,1-2.636.847c-0.845.158-1.824,0.552-2.377,0.207-0.482-.3-0.323-1.029-0.679-1.092a0.753,0.753,0,0,1-.755-0.476,8.628,8.628,0,0,1,.071-1.075c-0.192-.293-1.457-0.092-0.676-1.671,0.195-.393-1.238-1.005-0.185-1.949a2.143,2.143,0,0,1,1.306-.281,5.709,5.709,0,0,1,1.846.216L16.613,25.6l-0.127-.029c-0.006,0,.23-0.369-0.514-0.456-0.212-.025-0.153-0.207-0.326-0.214l-0.105,0c-0.165,0-.323,0-0.473.005l-0.075.006c-0.141.01-.276,0.026-0.4,0.047l-0.049.007a3.284,3.284,0,0,0-.386.095l-0.069.022a2.747,2.747,0,0,0-.34.137l-0.016.009a2.082,2.082,0,0,0-.284.175l-0.041.028a1.819,1.819,0,0,0-.239.216l-0.031.035a1.7,1.7,0,0,0-.193.26l-0.01.015a1.925,1.925,0,0,0-.108.218c-0.009.021-.016,0.043-0.024,0.065-0.022.056-.041,0.114-0.058,0.173-0.007.027-.014,0.055-0.02,0.082-0.014.057-.026,0.116-0.035,0.176,0,0.029-.009.058-0.013,0.087-0.007.065-.012,0.131-0.015,0.2,0,0.026,0,.052,0,0.08,0,0.089,0,.179.007,0.272v0.018c0.007,0.1.02,0.207,0.037,0.313,0,0.024.01,0.049,0.014,0.073,0.015,0.082.031,0.165,0.051,0.249,0.008,0.036.018,0.073,0.028,0.109,0.02,0.075.041,0.152,0.065,0.23,0.012,0.04.025,0.08,0.038,0.12,0.026,0.079.055,0.159,0.085,0.24,0.014,0.038.028,0.077,0.044,0.117,0.037,0.093.077,0.187,0.12,0.284,0.012,0.028.024,0.056,0.036,0.084,0.058,0.126.119,0.253,0.186,0.382,0.011,0.021.024,0.043,0.035,0.065q0.084,0.161.178,0.325l0.078,0.131c0.053,0.089.107,0.179,0.165,0.271,0.031,0.05.064,0.1,0.1,0.15,0.058,0.089.117,0.178,0.178,0.269l0.1,0.152c0.067,0.1.138,0.193,0.21,0.292,0.033,0.045.065,0.09,0.1,0.136,0.107,0.143.218,0.286,0.335,0.432a6.618,6.618,0,0,0,1.335.513,4.709,4.709,0,0,0,1.261-.14c0.738-.138,1.726-0.388,2.465-0.568l0.079-.02a0.489,0.489,0,0,1-.039.084Z" transform="translate(-0.5 -0.15)"/><path class="e" d="M16.759,25.667l-0.138-.043,0.006,0.02Z" transform="translate(-0.5 -0.15)"/><path class="e" d="M17.086,25.725l-0.268-.047-0.059-.01C17,25.747,17.107,25.8,17.086,25.725Z" transform="translate(-0.5 -0.15)"/></svg>