<svg xmlns="http://www.w3.org/2000/svg" width="104.229mm" height="22.343mm" viewBox="0 0 295.454 63.333"><defs><style>.a{fill:#292929;}.b{fill:#e74e0f;}.c{fill:#fff;}.d{fill:#ffec00;}.e{fill:#e5007e;}</style></defs><title>logo-drukwerkdeal</title><path class="a" d="M269.853,42.593h6.282c1.765,0,1.955-1.158,1.955-1.655a2.455,2.455,0,0,0-.173-1.028l-1.983.039V32.313c0-3.368-1.493-5.072-4.441-5.072a7,7,0,0,0-5.6,3.407c0.023-.127.89-2.777,0.89-2.777a1.427,1.427,0,0,0-.539-0.629,66.309,66.309,0,0,1-6.674.4,2.563,2.563,0,0,0-.144.928,1.615,1.615,0,0,0,1.759,1.822,3.422,3.422,0,0,0,.8-0.085v7.35l-0.17,2.375c-0.013.005-1.832,0.239-1.832,0.239a5.4,5.4,0,0,0,.094,2.326h6.349a1.556,1.556,0,0,0,1.756-1.655A2.569,2.569,0,0,0,268,39.91l-1.654.037v-8.23a0.066,0.066,0,0,1,.037-0.06,5.8,5.8,0,0,1,2.75-.772c2.011,0,2.423,1.1,2.423,2.752v4.015l-0.165,2.38c-0.027,0-1.636.232-1.636,0.232a5.706,5.706,0,0,0,.092,2.328"/><path class="a" d="M99.468,40.494a1.7,1.7,0,0,0,.067,1.624,2.517,2.517,0,0,0,2.133.706c2.245,0,3.482-.719,3.482-2.021a2.181,2.181,0,0,0-.271-1.028l-1.85.034c-0.019,0-.047,0-0.071,0V31.385l0.433-3.507a1.422,1.422,0,0,0-.543-0.634c-0.3.03-3.8,0.391-7,.394a2.563,2.563,0,0,0-.144.928,1.614,1.614,0,0,0,1.756,1.823,3.817,3.817,0,0,0,1.042-.13l0.087-.029v9.093a0.181,0.181,0,0,1-.048.019,8.265,8.265,0,0,1-2.3.336c-1.841,0-2.525-.763-2.525-2.821V31.385l0.429-3.507a1.411,1.411,0,0,0-.541-0.634,56.163,56.163,0,0,1-6.346.394,2.694,2.694,0,0,0-.141.928,1.615,1.615,0,0,0,1.756,1.823,2.214,2.214,0,0,0,.384-0.032c0.033-.01.061-0.016,0.082-0.025V37.52c0,3.768,1.41,5.3,4.876,5.3a6.42,6.42,0,0,0,5.3-2.441c-0.013.046-.024,0.073-0.037,0.11"/><path class="a" d="M137.751,42.831a10.679,10.679,0,0,0,1.2.068,8.58,8.58,0,0,0,2.471-.327L145.693,30.4a0.068,0.068,0,0,1,.06-0.046,1.947,1.947,0,0,0,2.059-2.021,2.557,2.557,0,0,0-.08-0.7H140.74a5.876,5.876,0,0,0,.1,2.259l1.876,0.194a0.079,0.079,0,0,1,.051.027,0.079,0.079,0,0,1,.006.061s-2.521,8.436-2.552,8.436-3.236-10.986-3.236-10.986a9.675,9.675,0,0,0-1.538-.122,9.154,9.154,0,0,0-1.542.124s-3.369,10.353-3.4,10.353-2.584-7.707-2.584-7.707a0.072,0.072,0,0,1,.01-0.06,0.07,0.07,0,0,1,.054-0.028A1.821,1.821,0,0,0,130,28.334a2.7,2.7,0,0,0-.079-0.7H114.788a4.686,4.686,0,0,0,.1,2.256l1.733,0.162c-0.019.034-.058,0.086-0.071,0.108l-3.654,5,4.7,7.2a9.558,9.558,0,0,0,2.509.32c1.822,0,2.784-.653,2.784-1.888a1.652,1.652,0,0,0-.295-0.994l-1.507.052a0.068,0.068,0,0,1-.057-0.032l-3.8-5.456a0.068,0.068,0,0,1,0-.08l3.009-3.906h0.034c0.538,0.03,1.107.048,1.688,0.048,0.889,0,1.5-.041,1.508-0.041h0.051l4.441,12.337a11.091,11.091,0,0,0,1.209.067,8.569,8.569,0,0,0,2.469-.327s3.141-9.594,3.172-9.6,2.937,9.955,2.937,9.955"/><path class="a" d="M185.3,42.371a9.586,9.586,0,0,0,2.512.32c1.821,0,2.784-.653,2.784-1.886a1.659,1.659,0,0,0-.3-0.994l-1.54.057c-0.009-.011-3.846-5.528-3.846-5.528,0.005-.016,3.031-3.945,3.031-3.945,0.032,0,.151,0,0.208,0,1.488,0,2.376-.732,2.376-1.959a3.791,3.791,0,0,0-.086-0.794h-7.951a4.641,4.641,0,0,0,.1,2.256l1.745,0.17-3.739,5.1Z"/><path class="a" d="M233.192,39.722a8.508,8.508,0,0,1-2.285.384c-1.369,0-2.154-.58-2.154-1.589,0-.863.352-1.857,3.116-1.857,0.385,0,.819.02,1.323,0.06v3Zm6.263-.111-2.017.066V33.042c0-4.283-1.5-5.8-5.737-5.8-4.914,0-6.665,1.731-6.665,3.349a1.952,1.952,0,0,0,1.21,1.842,6.848,6.848,0,0,1,4.329-2.043c2.285,0,2.751,1.061,2.751,2.654v1.066h-0.07c-0.341-.016-0.676-0.024-1-0.024-6.544,0-7.918,2.717-7.918,4.993,0,2.518,1.57,3.848,4.544,3.848a6.165,6.165,0,0,0,4.955-2.644,1.955,1.955,0,0,0,.027,1.814,2.493,2.493,0,0,0,2.146.728c2.463,0,3.712-.714,3.712-2.121a2.32,2.32,0,0,0-.27-1.093"/><path class="a" d="M240.736,42.593h6.647c1.28,0,1.956-.574,1.956-1.655a2.582,2.582,0,0,0-.175-1.028s-1.885.058-1.98,0.058V23.791l0.432-3.524a0.308,0.308,0,0,0-.066-0.228,0.6,0.6,0,0,0-.465-0.149c-0.034,0-3.512.014-6.853,0.119a2.591,2.591,0,0,0-.142.928,1.613,1.613,0,0,0,1.755,1.823,4.332,4.332,0,0,0,.8-0.078c0,0.019,0,14.97,0,14.97l-0.165,2.374c-0.149.032-1.835,0.241-1.835,0.241a5.41,5.41,0,0,0,.092,2.326"/><path class="a" d="M62.68,40.171H61.488V28.9l0.162-2.925c0.38-.03.824-0.062,1.3-0.062,4.236,0,6.665,2.5,6.665,6.865,0,4.626-2.589,7.391-6.929,7.391m0.8-17.01c-4.978,0-8.545.146-9,.165a4.139,4.139,0,0,0,.095,2.325l2.179,0.128a0.07,0.07,0,0,1,.063.068v11.84l-0.167,2.482c-0.023.005-2.166,0.135-2.166,0.135a5.369,5.369,0,0,0,.095,2.292c0.437,0.015,3.753.129,7.708,0.129,7.393,0,12.171-4.036,12.171-10.278,0-4.284-2.877-9.285-10.976-9.285"/><path class="a" d="M75.56,42.593h7.105c1.284,0,1.989-.587,1.989-1.655a2.506,2.506,0,0,0-.172-1.028L81.9,39.9c-0.037,0-.038,0-0.066,0V32.419c0.053,0,.172-0.005.225-0.005,1.436,0,4.4-1.208,4.525-2.79a2.248,2.248,0,0,0-.443-1.76,2.027,2.027,0,0,0-1.551-.555c-0.158.158-3.2,3.268-3.223,3.25s0.985-2.728.662-3.22a0.258,0.258,0,0,0-.282-0.1,67.007,67.007,0,0,1-6.693.4,2.636,2.636,0,0,0-.143.928,1.614,1.614,0,0,0,1.756,1.822,3.038,3.038,0,0,0,.712-0.065,0.635,0.635,0,0,0,.084-0.025v7.355L77.3,40.033c-0.028.006-.028,0.005-0.06,0.01l-1.776.224a5.423,5.423,0,0,0,.094,2.326"/><path class="a" d="M106,42.593h6.018c1.41,0,2.156-.574,2.156-1.655A2.64,2.64,0,0,0,114,39.91s-1.521.051-1.652,0.051V23.791l0.423-3.473s0.095-.351-0.514-0.351c-0.011,0-1.142-.029-2.722-0.029-1.459,0-2.816.023-4.035,0.071a2.531,2.531,0,0,0-.144.928,1.617,1.617,0,0,0,1.756,1.823,1.8,1.8,0,0,0,.8-0.1V37.653l-0.165,2.375c-0.162.024-1.835,0.239-1.835,0.239A5.439,5.439,0,0,0,106,42.593"/><path class="a" d="M162.725,42.593h7.115c1.283,0,1.989-.587,1.989-1.655a2.441,2.441,0,0,0-.175-1.028l-2.575-.01c-0.039,0-.042,0-0.07,0V32.419c0.054,0,.173-0.005.227-0.005,1.433,0,4.4-1.208,4.525-2.79a2.253,2.253,0,0,0-.443-1.76,2.027,2.027,0,0,0-1.551-.555c-0.161.158-3.2,3.268-3.226,3.25s0.988-2.728.661-3.22a0.253,0.253,0,0,0-.28-0.1c-0.037,0-3.367.394-6.7,0.4a2.649,2.649,0,0,0-.142.928,1.614,1.614,0,0,0,1.754,1.822,3.086,3.086,0,0,0,.717-0.065,0.635,0.635,0,0,0,.084-0.025v7.355l-0.166,2.38a0.523,0.523,0,0,1-.06.01l-1.776.224a5.431,5.431,0,0,0,.092,2.326"/><path class="a" d="M173.77,42.593h6.015c1.409,0,2.155-.574,2.155-1.655a2.6,2.6,0,0,0-.173-1.028s-1.521.051-1.65,0.051V23.791l0.42-3.473s0.1-.351-0.513-0.351c-0.013,0-1.145-.029-2.721-0.029-1.459,0-2.82.023-4.039,0.071a2.584,2.584,0,0,0-.142.928,1.616,1.616,0,0,0,1.756,1.823,1.833,1.833,0,0,0,.8-0.1V37.653l-0.168,2.375c-0.157.024-1.833,0.239-1.833,0.239a5.4,5.4,0,0,0,.094,2.326"/><path class="a" d="M154.513,30.191a2.017,2.017,0,0,1,1.526.6,4.183,4.183,0,0,1,.8,3.085h-5.3c0.27-2.407,1.3-3.681,2.975-3.681m5.909,7.8a9.684,9.684,0,0,1-5.012,1.78c-2.537,0-3.786-1.042-4.048-3.374a0.53,0.53,0,0,1-.006-0.077h9.827c0.214-3.382-.385-5.853-1.784-7.35a6.1,6.1,0,0,0-4.654-1.733c-4.6,0-7.459,3.34-7.459,8.72,0,4.533,2.694,7.028,7.59,7.028,4.672,0,6.333-1.729,6.333-3.346A1.785,1.785,0,0,0,160.422,38"/><path class="a" d="M201.621,39.234a4.781,4.781,0,0,1-1.857.306c-2.694,0-3.945-1.327-3.945-4.176,0-3.394,1.522-4.909,4.939-4.909a8.557,8.557,0,0,1,.863.028v8.75Zm6.432,0.542s-1.866.065-1.889,0.063V23.791l0.432-3.422a0.4,0.4,0,0,0-.057-0.318,0.559,0.559,0,0,0-.475-0.165c-0.009,0-.757-0.02-1.875-0.02-1.257,0-3.137.025-4.974,0.144a2.6,2.6,0,0,0-.147.928,1.616,1.616,0,0,0,1.759,1.822,3.737,3.737,0,0,0,.844-0.095c0.019-.006.066-0.015,0.084-0.023v4.84c-0.138-.015-0.737-0.044-1.126-0.044-5.842,0-9.616,3.374-9.616,8.588,0,4.231,2.476,6.865,6.463,6.865a6.571,6.571,0,0,0,5.02-2.45,1.939,1.939,0,0,0,.113,1.721,2.722,2.722,0,0,0,2.228.663c2.246,0,3.482-.706,3.482-1.99a2.157,2.157,0,0,0-.265-1.058"/><path class="a" d="M215.994,30.191a2.03,2.03,0,0,1,1.528.6,4.218,4.218,0,0,1,.793,3.085h-5.3c0.268-2.407,1.3-3.681,2.975-3.681M221.9,38a9.685,9.685,0,0,1-5.014,1.78c-2.533,0-3.783-1.042-4.044-3.374a0.07,0.07,0,0,1,.067-0.077h9.751c0.218-3.382-.386-5.853-1.784-7.35a6.087,6.087,0,0,0-4.653-1.733c-4.6,0-7.459,3.34-7.459,8.72,0,4.533,2.694,7.028,7.594,7.028,4.666,0,6.329-1.729,6.329-3.346A1.783,1.783,0,0,0,221.9,38"/><path class="a" d="M278.864,42.593h6.646c1.28,0,1.955-.574,1.955-1.655a2.627,2.627,0,0,0-.172-1.028s-1.885.058-1.981,0.058V23.791l0.432-3.524a0.3,0.3,0,0,0-.066-0.228,0.591,0.591,0,0,0-.463-0.149c-0.037,0-3.513.014-6.852,0.119a2.5,2.5,0,0,0-.146.928,1.616,1.616,0,0,0,1.757,1.823,4.332,4.332,0,0,0,.8-0.078c0,0.019,0,14.97,0,14.97L280.6,40.026c-0.146.032-1.833,0.241-1.833,0.241a5.409,5.409,0,0,0,.092,2.326"/><path class="b" d="M22.408,39.326h0L22.256,39.3l0.152,0.027"/><path class="b" d="M18.841,32.439a0.565,0.565,0,0,1,.149-0.13c1.3-.777,1.429-1.229,1.293-1.964-0.076-.267-0.134-0.53-0.181-0.789-0.025-.113-0.051-0.23-0.075-0.357L20.049,29.2c-0.405-3.087.538-5.61,1.866-6.289,1.231-.629,2.726-0.524,4.716.195-0.951-.832-3.022-1.222-5.353-1.128a10.4,10.4,0,0,0-1.026,1.6,8.6,8.6,0,0,0-.99,3.706,8.208,8.208,0,0,0,.279,2.335,10.29,10.29,0,0,0,.37,1.105c0.03,0.075.089,0.132,0.014,0.175-0.094.054-.186,0.108-0.279,0.163Q16.338,33,13.075,35.017c-0.394.244-.786,0.49-1.181,0.734q-0.222.139-.444,0.273a0.511,0.511,0,0,0-.165.436c-0.054.375-.1,0.75-0.124,1.127a15.555,15.555,0,0,0,.357,4.63,13.969,13.969,0,0,0,1.675,4.148,11.5,11.5,0,0,0,1.361,1.8c0.476,0.512.933,0.784,0.574,0.51l0.228,0.147c-0.16-.165-0.317-0.333-0.467-0.512-2.5-2.991-3.941-9.023-1.813-12.333,0.706-1.1,2.747-1.9,5.766-3.543"/><path class="b" d="M22.243,39.275a0.082,0.082,0,0,1,.014.025l-0.008-.024H22.243"/><path class="b" d="M46.759,29.822c0,0.024,0,.02,0-0.006s0-.027,0-0.041l-0.043-.353a20.425,20.425,0,0,0-7.847-13.656c-0.166-.129-0.33-0.261-0.5-0.385a20.565,20.565,0,0,1,2.62,2.459,19.717,19.717,0,0,1,4.483,8.555,19.171,19.171,0,0,1-.413,10.07,33.131,33.131,0,0,1-1.928,4.749,26.994,26.994,0,0,1-2.56,4.563,23.978,23.978,0,0,1-3.622,3.748c-0.657.558-1.342,1.079-2.042,1.583a7.246,7.246,0,0,1-2.227,1.184,22.737,22.737,0,0,0,5.539-4.652l1.546-2.218s0.546-.9.788-1.345l0.376-.709A21.548,21.548,0,0,0,43.13,29.3c0.02,0.13.043,0.26,0.061,0.391a19.853,19.853,0,0,1-1.4,10.14,22.187,22.187,0,0,1-3.624,5.962,20.749,20.749,0,0,1-2.457,2.445,12.494,12.494,0,0,1-2.68,1.7c-0.071.035-.161,0.081-0.268,0.13,0.091-.042.179-0.089,0.268-0.13a2.625,2.625,0,1,0-.542.253A20.842,20.842,0,0,0,42.944,34.405a16.925,16.925,0,0,0-4.167-13.517,0.553,0.553,0,0,0,.184.071,0.421,0.421,0,0,0-.124-0.26,12.194,12.194,0,0,1,3.231,4.372C39.6,17.887,32.891,11.165,23.988,11.9c0,0,1.914-.149,3.415-0.18C38.029,12.66,42.786,23.926,43.534,26.9a18.549,18.549,0,0,1,.261,9.069,35.63,35.63,0,0,1-2.779,7.394l-0.463.91-0.016.024a30.948,30.948,0,0,1-2.028,3l0.19-.284c-0.078.113-.154,0.225-0.237,0.337,0.015-.018.032-0.034,0.046-0.053l-0.1.134a17.494,17.494,0,0,0,1.165-1.47l-0.011.015,0.015-.023,0,0.008c0.48-.675.822-1.418,1.243-2.128q0.67-1.13,1.256-2.309a28.863,28.863,0,0,0,1.756-4.395,22.683,22.683,0,0,0,1-7.808,20.715,20.715,0,0,0-3.968-11.072,16.763,16.763,0,0,0-2.64-2.9,6.965,6.965,0,0,0-.974-0.714,24.06,24.06,0,0,0-3.8-1.679,24.269,24.269,0,0,0-3.458-1c-0.444-.092-0.9-0.143-1.329-0.271a7.452,7.452,0,0,0-2.28-.179,28.906,28.906,0,0,0-5.125.672,19.425,19.425,0,0,0-4.763,1.536c0.9-.446,1.769-0.957,2.7-1.342a16.652,16.652,0,0,1,2.6-.8,29.365,29.365,0,0,1,5.8-.668c-0.479.013,0.019,0,0,0a8.507,8.507,0,0,1,1.448-.015h0.028a19.54,19.54,0,0,0-10.429.6,21.594,21.594,0,0,0-8.225,5.177A23.907,23.907,0,0,0,5.083,24.8a15.351,15.351,0,0,0-1.042,3.917,1.129,1.129,0,0,0,.138.97c0.327,0.295.715-.2,0.866-0.449,0.038-.061.07-0.125,0.1-0.189a22.655,22.655,0,0,1,7.486-11.935c-0.057.077-.111,0.152-0.168,0.228,0.08-.07.158-0.142,0.239-0.211a41.673,41.673,0,0,0-4.136,6.609H8.547v0.043q0.4-.608.842-1.183c0.061-.078.127-0.153,0.189-0.23l0,0,0,0a18.053,18.053,0,0,1,2.961-2.954,18.935,18.935,0,0,1,1.469-1.2,18.711,18.711,0,0,1,1.574-1.039,17.172,17.172,0,0,1,2.055-1.026c0.039-.015.078-0.033,0.118-0.049q-0.425.218-.842,0.463A17.811,17.811,0,0,0,15.343,17.6c-0.571.422-1.117,0.881-1.47,1.2a20.4,20.4,0,0,0-6.511,9.517l-0.014,0v0.006a0.152,0.152,0,0,0,.113.148,0.918,0.918,0,0,0,.5-0.287A5.785,5.785,0,0,0,9.2,26.719c0.254-.677.52-1.352,0.817-2.013a12.031,12.031,0,0,1,1.607-2.727,14.659,14.659,0,0,1,2.257-2.127,32.3,32.3,0,0,1,3.607-2.689,12.9,12.9,0,0,1,4.953-1.594,16.247,16.247,0,0,1,9.957,2.1,21.309,21.309,0,0,1,2.133,1.348h0.024a21.148,21.148,0,0,0-3.687-2.335,15.832,15.832,0,0,0-7.642-1.767,15.638,15.638,0,0,0-5.461,1.18,15.5,15.5,0,0,1,14.416-.01,19.392,19.392,0,0,1,6.295,4.859,16.078,16.078,0,0,1,3.386,6.974,18.765,18.765,0,0,1-.068,7.865A21.622,21.622,0,0,1,39,42.626q-0.344.634-.734,1.247c-0.146.229-.295,0.458-0.449,0.681-0.38.552-.786,1.085-1.214,1.6-0.751.9-4.022,3.97-5.577,4.631-0.092.039-.186,0.073-0.279,0.111a17.123,17.123,0,0,1-4.609,1.153,0.307,0.307,0,0,1-.287.037,2.285,2.285,0,0,0-.752.11q-0.575.095-1.157,0.154c-0.01-.148.046-0.308-0.124-0.3-0.309.015-.62,0.022-0.931,0.019a15.841,15.841,0,0,1-1.865-.13A17.506,17.506,0,0,1,17.25,51a15.689,15.689,0,0,1-2.633-1.223,1.6,1.6,0,0,1-.147-0.1,9.828,9.828,0,0,0,1.856,1.69,12.221,12.221,0,0,0,7.636,1.742c0.5-.019.727-0.027,0.77-0.027a33.589,33.589,0,0,0,7.945-.833,2.942,2.942,0,0,1-1.233.7A25.429,25.429,0,0,1,26.5,54.068,39.233,39.233,0,0,1,21.2,54a21.481,21.481,0,0,1-2.5-.372,21.944,21.944,0,0,1-2.469-.9A6.775,6.775,0,0,1,14.2,51.364a18.557,18.557,0,0,1-1.654-1.747c0.019,0.018.041,0.035,0.06,0.054-0.2-.224-0.391-0.443-0.568-0.648a12.674,12.674,0,0,1-2.123-3.474A17.306,17.306,0,0,1,8.9,36.969a15.8,15.8,0,0,0,.138,2.371c0-.039,0-0.08,0-0.12V39.195a9.481,9.481,0,0,1,.309-2.675,5.068,5.068,0,0,1,.824-1.87,5.5,5.5,0,0,1,1.5-1.141q0.87-.536,1.736-1.081a5.506,5.506,0,0,0,1.337-1.105,3.33,3.33,0,0,0,.444-0.725,2.774,2.774,0,0,0,.171-0.5,2.846,2.846,0,0,1,.07-0.328h0c0-.016.008-0.032,0.01-0.048a35.88,35.88,0,0,0-5.429,2.928,12.772,12.772,0,0,0-1.21.923A2.494,2.494,0,0,0,8.217,34.8a17.125,17.125,0,0,0-.641,3.3,1.058,1.058,0,0,0-1.2-.894A1.547,1.547,0,0,0,5.676,38.5a5.872,5.872,0,0,0,.281,2.4,8.427,8.427,0,0,0,1.11,2.3c-1.18-.008-0.474,1.424-0.166,1.978a11.37,11.37,0,0,0,1.138,1.667c0.555,0.68,1.105,1.37,1.68,2.035a13.938,13.938,0,0,0,4.032,2.85q1.128,0.621,2.26,1.238a11.34,11.34,0,0,0,2.278,1,20.711,20.711,0,0,0,4.791.561c0.8,0.033,1.607.058,2.411,0.084q0.615,0.017,1.231.041c0.22,0.009.442,0.016,0.662,0.035a0.6,0.6,0,0,1,.287.057,5.978,5.978,0,0,1-.758.156q-0.545.072-1.093,0.114a20.234,20.234,0,0,1-2.2.048,48.263,48.263,0,0,1-6.6-1.013c-1.41-.349,7.081,2.722,13.667.713A22.85,22.85,0,0,0,43.539,43.976a24.424,24.424,0,0,0,3.22-14.154"/><path class="b" d="M16.76,31.4l0.333-.218c0.127-.082.272-0.114,0.235-0.273q-0.15-.65-0.244-1.312a13.279,13.279,0,0,1-.122-2.254,10.825,10.825,0,0,1,.628-3.355,6.833,6.833,0,0,1,.723-1.474,1.646,1.646,0,0,1,.238-0.3,0.481,0.481,0,0,1,.322-0.047,3.3,3.3,0,0,1,.846.13,11.445,11.445,0,0,0-1.624,9.085c-1.98,1.129-4.025,2.155-6.07,3.163q2.361-1.586,4.735-3.147m18.59,1.175a0.866,0.866,0,0,1,.134.5,15.6,15.6,0,0,1-4.152-2.005c1.014,0.651,2.4.406,4.017,1.5m-22.391.706c-0.372.2-.772,0.356-1.128,0.586a2.227,2.227,0,0,0-.805.966c-0.47,1.012-.538,1.57-0.4,1.485l0.655-.408c0.33-.206.661-0.41,0.991-0.615q1.434-.887,2.882-1.754,0.991-.594,1.984-1.181c0.4-.235.8-0.47,1.2-0.7,0.094-.056.186-0.109,0.279-0.165,0.075-.043.016-0.1-0.013-0.173a8.6,8.6,0,0,1-.58-4.32,9.09,9.09,0,0,1,1.162-3.3,11.032,11.032,0,0,1,.718-1.086c0.1-.133.2-0.266,0.308-0.4,0.048-.06.1-0.119,0.143-0.179l0.315-.024q0.291-.021.581-0.034l-0.085,0c0.116-.151.223-0.282,0.31-0.391,0.054-.066.1-0.127,0.143-0.177a10.931,10.931,0,0,1,6.511,1.272,23.777,23.777,0,0,1,.66,4.382L28.608,29.74,28.55,30l0.254,0.09a8.606,8.606,0,0,1,1.145.5c0.087,0.046.173,0.092,0.257,0.139,0.044,0.024.089,0.049,0.132,0.075l0.2,0.118c0.044,0.028.09,0.054,0.134,0.081l0.205,0.128L31,31.207,31.3,31.4a15.737,15.737,0,0,0,3.682,1.848c0.114,0.072.229,0.146,0.346,0.224,0.422,0.418-.224,3.421-0.327,4.134a4.3,4.3,0,0,1-1.148.848l-0.014,0c0.014-.108.028-0.224,0.043-0.347V38.13c-0.761.21-1.514,0.438-2.28,0.631-0.546.135-1.094,0.26-1.647,0.358a5.465,5.465,0,0,1-.946.13c-0.514-.016-1.146-1.214-1.081-1.968a6.573,6.573,0,0,0,.12-1.448,2.162,2.162,0,0,0-.249-0.7,12.86,12.86,0,0,1,.005,3c-0.253.855-.2-0.048-0.888,0.851a9.928,9.928,0,0,1-.248-3.867,3.928,3.928,0,0,1,.685-0.618,1.055,1.055,0,0,0-.219-0.548s0.076,0.029-.057-0.063a4.253,4.253,0,0,0-3.084-.828,4.265,4.265,0,0,0-2.463,2.322,4.693,4.693,0,0,0-.322.9,9.988,9.988,0,0,0-.146,1.023c-0.276.008-.553,0.024-0.828,0.047-0.908.072-2.954,0.111-3.743,1.007a2.692,2.692,0,0,0-.56,1.738,1.208,1.208,0,0,0,.238.657,1.817,1.817,0,0,1,.247,1.1,1.425,1.425,0,0,0,.252.953c0.195,0.262-.016.485,0.173,0.751l0.009,0.014a0.88,0.88,0,0,1,.17.371,2.758,2.758,0,0,0,.142,1.521,3.845,3.845,0,0,0,1.348.863c0.681,1.419,2.478,1.5,2.932,1.507a2.067,2.067,0,0,1,.2.138l0.022,0.019,0.063,0.054,0.111,0.009c0.122,0.01.241,0.013,0.357,0.013h0.066q0.135,0,.266-0.011a9.713,9.713,0,0,0,2.012-.375l0.068-.018,0.006,0c0.037-.01.076-0.02,0.11-0.032A9.414,9.414,0,0,0,26,46.077a0.163,0.163,0,0,0,.011-0.02,0.458,0.458,0,0,0,.044-0.095c-0.029.006-.061,0.015-0.09,0.023-0.836.2-1.954,0.486-2.789,0.642a5.327,5.327,0,0,1-1.428.16,7.53,7.53,0,0,1-1.512-.581q-0.2-.247-0.379-0.489c-0.039-.052-0.075-0.1-0.113-0.153-0.081-.111-0.161-0.222-0.238-0.33L19.39,45.06c-0.07-.1-0.137-0.2-0.2-0.3-0.037-.057-0.073-0.114-0.108-0.17-0.066-.1-0.127-0.206-0.187-0.308-0.029-.049-0.06-0.1-0.087-0.148q-0.106-.186-0.2-0.368c-0.014-.025-0.028-0.049-0.041-0.073-0.076-.147-0.146-0.29-0.21-0.433-0.015-.032-0.028-0.062-0.042-0.095-0.048-.108-0.094-0.215-0.135-0.32-0.018-.044-0.033-0.089-0.049-0.133-0.035-.091-0.067-0.182-0.1-0.272C18.014,42.39,18,42.346,17.986,42.3c-0.027-.089-0.051-0.175-0.073-0.261C17.9,42,17.89,41.957,17.881,41.917c-0.023-.095-0.041-0.189-0.057-0.281-0.005-.028-0.011-0.057-0.016-0.084-0.019-.12-0.033-0.239-0.042-0.355v-0.02c-0.008-.105-0.01-0.208-0.009-0.308,0-.03,0-0.061.005-0.09,0-.076.009-0.151,0.018-0.224,0-.033.009-0.066,0.014-0.1,0.011-.067.024-0.134,0.039-0.2,0.008-.032.015-0.062,0.024-0.094,0.019-.066.041-0.13,0.065-0.195,0.01-.024.018-0.049,0.028-0.073a2.117,2.117,0,0,1,.123-0.246,0.139,0.139,0,0,1,.011-0.018,1.9,1.9,0,0,1,.218-0.294c0.013-.014.023-0.028,0.035-0.041a2,2,0,0,1,.271-0.244l0.046-.033a2.4,2.4,0,0,1,.322-0.2l0.019-.01a3.188,3.188,0,0,1,.384-0.154l0.08-.025a3.865,3.865,0,0,1,.437-0.108c0.018,0,.037,0,0.056-0.008,0.146-.024.3-0.042,0.457-0.053l0.085-.008c0.171-.009.349-0.01,0.537-0.005,0.038,0,.078,0,0.119,0,0.195,0.009.128,0.214,0.368,0.242,0.842,0.1.575,0.514,0.581,0.517l0.143,0.033a0.255,0.255,0,0,1,.009.029l0.157,0.048,0.066,0.011,0.3,0.053a5.234,5.234,0,0,1,.772-4.148,1.058,1.058,0,0,1,1.571-.229,0.841,0.841,0,0,1,.358.423,7.549,7.549,0,0,0-.094,1.341,4.849,4.849,0,0,0,.693,2.571,5.348,5.348,0,0,1,.72,2.713l0,0a0.027,0.027,0,0,0,.01-0.014c0.037-.072.139-0.38,0.182-0.5,0.01-.023.018-0.048,0.03-0.071s0.01-.02.016-0.03a1.666,1.666,0,0,1,.173-0.28,1.29,1.29,0,0,1,1.009-.428c0.176-.023.352-0.051,0.528-0.075,0.042-.005.084-0.009,0.125-0.015l0.305-.048c0.365-.053.728-0.108,1.093-0.166l0.1-.015c1.9-.3,3.8-0.6,5.689-0.988,0.291-.06.581-0.116,0.87-0.182l0.029-.006c0,0.108.028,0.433,0.016,0.672a0.933,0.933,0,0,0-.016.144v0.006a0.2,0.2,0,0,1-.042.1,0.2,0.2,0,0,0-.034.019c-2.409.436-2.29,0.01-7.848,0.838,0.016,0.062.043,0.175,0.072,0.3H29.1c0.019,0.072.041,0.146,0.061,0.219,0.023,0.095.042,0.179,0.056,0.229L34.963,40.7l-0.228,1.364s-5.006,2.413-4.992,2.559a1.3,1.3,0,0,0,1.5,0c0.525-.239,1.188-0.481,1.7-0.746,1.274-.657,1.992-1.064,3.217-1.811a3.065,3.065,0,0,0,1.4-1.3,2.666,2.666,0,0,0,.229-0.982c0.037-1.034.208-2.068,0.332-3.094a11.258,11.258,0,0,0,.038-3.375,2.614,2.614,0,0,0-1.037-1.7,14.693,14.693,0,0,0-3.5-1.307,6.638,6.638,0,0,1-1.8-.891,1.538,1.538,0,0,1-.653-0.827,7.308,7.308,0,0,1-.106-0.757c-0.132-1.437-.027-2.884-0.161-4.322-0.108-1.157-.389-2.765-1.579-3.312L29.3,20.192l-0.042-.022c1.469,1.659.793,5.537,1.184,7.75-1.642-2.8-.181-6.619-2.717-7.767a15.487,15.487,0,0,0-4.124-.41H23.563l-0.279-.006H23.257c-1.583-.032-3.135.025-3.8,0.043l-0.005.018a2.632,2.632,0,0,0-.743.41,6.779,6.779,0,0,0-1.722,1.646,6.27,6.27,0,0,0-.962,2.265,8.235,8.235,0,0,0-.2,1.191,0.922,0.922,0,0,0,.01.244,11.418,11.418,0,0,1,.967,2.873,4.113,4.113,0,0,1-.843,2.546,9.381,9.381,0,0,1-3,2.313"/><path class="b" d="M15.461,29.706a0.167,0.167,0,0,1,.071-0.065,0.184,0.184,0,0,0-.071.065"/><path class="c" d="M39.57,48.111l0-.006-0.015.022,0.011-.015"/><path class="c" d="M43.535,26.9c-0.75-2.978-5.506-14.243-16.132-15.185-1.5.03-3.415,0.179-3.415,0.179,8.9-.732,15.616,5.989,18.081,13.175A12.187,12.187,0,0,0,38.836,20.7a0.43,0.43,0,0,1,.125.261,0.582,0.582,0,0,1-.184-0.071A16.93,16.93,0,0,1,42.945,34.4,20.841,20.841,0,0,1,32.484,50.2a2.648,2.648,0,1,1,.543-0.253,12.511,12.511,0,0,0,2.679-1.7,20.749,20.749,0,0,0,2.457-2.445,22.174,22.174,0,0,0,3.624-5.962,19.846,19.846,0,0,0,1.4-10.141c-0.016-.13-0.039-0.261-0.061-0.39a21.544,21.544,0,0,1-2.207,14.066l-0.376.709c-0.242.442-.789,1.345-0.789,1.345L37.8,48.235q0.367-.469.71-0.934l-0.046.053c0.081-.113.157-0.224,0.237-0.337l-0.191.284a30.841,30.841,0,0,0,2.03-3l0.016-.024,0.463-.91A35.747,35.747,0,0,0,43.8,35.973a18.549,18.549,0,0,0-.261-9.069"/><path class="c" d="M18.874,22.172a0.492,0.492,0,0,0-.323.046,1.648,1.648,0,0,0-.237.3,6.794,6.794,0,0,0-.723,1.472,10.841,10.841,0,0,0-.629,3.356,13.15,13.15,0,0,0,.123,2.254q0.093,0.661.244,1.312c0.037,0.16-.109.19-0.235,0.273l-0.333.218c-1.586,1.037-3.163,2.09-4.735,3.146,2.045-1.007,4.089-2.032,6.07-3.161A11.44,11.44,0,0,1,19.72,22.3a3.245,3.245,0,0,0-.846-0.13"/><path class="c" d="M12.647,49.678h0l0-.005,0,0.005M9.441,41.531a11.677,11.677,0,0,1-.4-2.313c0,0.041,0,.082,0,0.123A15.8,15.8,0,0,1,8.9,36.969a17.307,17.307,0,0,0,1.012,8.58,12.674,12.674,0,0,0,2.123,3.474c0.177,0.205.368,0.424,0.568,0.648,0.336,0.322.767,0.647,1.124,0.928a24.67,24.67,0,0,1-3.451-6.29,23.381,23.381,0,0,1-.836-2.779"/><path class="d" d="M17.76,16.095l-0.119.051a16.877,16.877,0,0,0-2.054,1.026,17.91,17.91,0,0,0-1.574,1.039c-0.572.42-1.119,0.88-1.47,1.2A18.183,18.183,0,0,0,9.388,22.6q-0.441.575-.842,1.183a16.885,16.885,0,0,0-1.619,4.566,0.976,0.976,0,0,0,.436-0.033A20.4,20.4,0,0,1,13.874,18.8c0.353-.32.9-0.779,1.47-1.2a18.4,18.4,0,0,1,1.574-1.039c0.277-.163.558-0.317,0.842-0.463"/><path class="d" d="M45.466,26.394a19.73,19.73,0,0,0-4.483-8.555,20.555,20.555,0,0,0-2.62-2.457c0.171,0.124.337,0.256,0.5,0.386A24.706,24.706,0,0,0,33.725,12.5a21.763,21.763,0,0,0-3-1.179c-0.511-.157-1.031-0.3-1.553-0.413a6.8,6.8,0,0,0-1.58-.008,29.366,29.366,0,0,0-5.8.67,16.518,16.518,0,0,0-2.6.8c-0.931.384-1.8,0.9-2.7,1.341a19.433,19.433,0,0,1,4.762-1.536,28.933,28.933,0,0,1,5.126-.671,7.452,7.452,0,0,1,2.28.177c0.433,0.128.885,0.18,1.329,0.271a24.11,24.11,0,0,1,3.458,1,23.939,23.939,0,0,1,3.8,1.678,6.873,6.873,0,0,1,.974.715,16.9,16.9,0,0,1,2.64,2.9,20.726,20.726,0,0,1,3.968,11.072,22.694,22.694,0,0,1-1,7.809,28.863,28.863,0,0,1-1.756,4.395q-0.583,1.177-1.256,2.308c-0.422.712-.763,1.453-1.243,2.128a11.7,11.7,0,0,1-1.132,1.419,22.807,22.807,0,0,1-5.764,4.907A7.27,7.27,0,0,0,34.9,51.108c0.7-.5,1.385-1.026,2.042-1.583a23.968,23.968,0,0,0,3.621-3.748,26.924,26.924,0,0,0,2.561-4.564,33.071,33.071,0,0,0,1.928-4.749,19.184,19.184,0,0,0,.413-10.07"/><path class="d" d="M29.1,41.32h0.01c-0.029-.122-0.056-0.234-0.073-0.3,5.558-.828,5.44-0.4,7.848-0.838a0.256,0.256,0,0,1,.035-0.019,0.218,0.218,0,0,0,.041-0.1V40.057a0.931,0.931,0,0,1,.015-0.144c0.011-.239-0.016-0.565-0.015-0.672l-0.03.006c-0.289.066-.579,0.123-0.869,0.182-1.884.392-3.788,0.687-5.689,0.988l-0.1.015c-0.363.058-.728,0.113-1.093,0.166l-0.305.048c-0.041.006-.084,0.01-0.125,0.015-0.175.024-.351,0.052-0.527,0.075a1.287,1.287,0,0,0-1.009.428,1.672,1.672,0,0,0-.175.28l-0.016.03c-0.011.023-.02,0.048-0.03,0.071-0.043.12-.146,0.428-0.182,0.5a0.032,0.032,0,0,1-.011.016c0.808-.075,1.613-0.184,2.417-0.292-0.013-.051-0.033-0.134-0.056-0.229L29.1,41.32"/><path class="d" d="M27.8,38.132a12.208,12.208,0,0,0-.029-3.11,4.9,4.9,0,0,0-.275-0.636l-0.366-.437a1.033,1.033,0,0,1,.219.549,4,4,0,0,0-.685.617,9.961,9.961,0,0,0,.248,3.868c0.686-.9.636,0,0.888-0.852"/><path class="d" d="M21.442,47.835c-0.455,0-2.251-.087-2.932-1.507a3.845,3.845,0,0,1-1.348-.863,2.758,2.758,0,0,1-.142-1.521,1.213,1.213,0,0,0-.318-0.563c-0.133.839-.362,2.185-0.033,2.673,0.271,0.4.624,0.146,0.956,0.406a3.617,3.617,0,0,1,.636.581,2.6,2.6,0,0,0,.512.482c0.015,0.008.032,0.018,0.046,0.024a3.311,3.311,0,0,1,.481.3l0.034,0.029,0.078,0.046L19.5,47.932a18.929,18.929,0,0,0,2.165.061l-0.022-.019a1.917,1.917,0,0,0-.2-0.138"/><path class="d" d="M31.333,33.221a15.586,15.586,0,0,0,4.152,2,0.855,0.855,0,0,0-.134-0.5c-1.619-1.1-3-.853-4.017-1.5"/><path class="d" d="M30.438,27.92c-0.391-2.213.285-6.091-1.184-7.748,0.015,0.006.027,0.013,0.042,0.02a2.205,2.205,0,0,0-.406-0.376c-0.712-.605-3.4-1.037-5.606-0.857-0.2.019-.419,0.037-0.634,0.053l-0.632.054a7.89,7.89,0,0,0-2.565.712c0.67-.018,2.222-0.075,3.8-0.043h0.028l0.279,0.006H23.6a15.542,15.542,0,0,1,4.124.41c2.536,1.148,1.075,4.969,2.717,7.767"/><polyline class="e" points="12.643 49.673 12.647 49.679 12.643 49.673"/><path class="e" d="M26.6,51.825l0.01,0-0.014.006,0,0M41.86,27.916a16.081,16.081,0,0,0-3.384-6.975,19.393,19.393,0,0,0-6.3-4.858,15.492,15.492,0,0,0-14.416.01,15.61,15.61,0,0,1,5.462-1.18,15.813,15.813,0,0,1,7.641,1.767,19.38,19.38,0,0,1,6.3,4.859,16.058,16.058,0,0,1,3.383,6.975,18.738,18.738,0,0,1-.067,7.864,21.7,21.7,0,0,1-3.106,7.347A19.927,19.927,0,0,1,31.8,49.368a17.212,17.212,0,0,1-1.623.947c-0.092.047-.186,0.091-0.28,0.137h0a14.929,14.929,0,0,1-8.2.974,14.679,14.679,0,0,1-2.578-.78c-0.806-.319-1.627-0.633-2.4-1.024a7.489,7.489,0,0,1-2.162-1.453,11.385,11.385,0,0,1-1.361-1.8,13.942,13.942,0,0,1-1.675-4.148,15.551,15.551,0,0,1-.357-4.63c0.028-.377.07-0.752,0.124-1.127a0.513,0.513,0,0,1,.165-0.436c0.148-.089.3-0.18,0.444-0.272,0.4-.244.788-0.49,1.183-0.736q3.257-2.023,6.57-3.955c0.092-.054.185-0.109,0.279-0.162,0.075-.044.016-0.1-0.014-0.175a10.29,10.29,0,0,1-.37-1.105,8.208,8.208,0,0,1-.279-2.335,8.6,8.6,0,0,1,.99-3.706,10.47,10.47,0,0,1,1.026-1.6c2.492-.1,4.687.352,5.534,1.307,0.9,1.019.886,4.274,0.641,6.272a4.392,4.392,0,0,1-.462,1.646,18.406,18.406,0,0,1,3.1,1.071,15.653,15.653,0,0,0,4.2,2.018c-0.039.786-.292,2.968-0.447,4.164l0.015,0A4.378,4.378,0,0,0,35,37.606c0.1-.712.748-3.716,0.325-4.133q-0.175-.118-0.346-0.224A15.72,15.72,0,0,1,31.3,31.4L31,31.208l-0.119-.075c-0.067-.042-0.135-0.085-0.205-0.127l-0.133-.081c-0.067-.041-0.134-0.08-0.2-0.119l-0.132-.073c-0.085-.048-0.17-0.094-0.257-0.139a8.752,8.752,0,0,0-1.145-.5L28.55,30l0.058-.266,0.179-2.666a23.753,23.753,0,0,0-.661-4.383,10.938,10.938,0,0,0-6.511-1.272c-0.039.051-.087,0.111-0.142,0.179-0.089.109-.194,0.241-0.311,0.39l0.085,0c-0.192.01-.387,0.022-0.58,0.034l-0.317.024c-0.047.061-.094,0.12-0.142,0.179-0.105.13-.208,0.262-0.308,0.4a10.81,10.81,0,0,0-.718,1.086A9.035,9.035,0,0,0,18.02,27a8.585,8.585,0,0,0,.579,4.319c0.029,0.076.089,0.13,0.014,0.175l-0.28.163q-0.6.351-1.2,0.7-1,.589-1.984,1.181-1.447.868-2.882,1.755-0.5.306-.991,0.614l-0.655.408a0.85,0.85,0,0,0-.162.541q-0.055.351-.084,0.706c-0.016.187-.024,0.373-0.029,0.561a8.209,8.209,0,0,1,.675-3.293,2.233,2.233,0,0,1,.805-0.965c0.357-.23.757-0.385,1.129-0.586a9.4,9.4,0,0,0,3-2.314,4.117,4.117,0,0,0,.843-2.545,12.486,12.486,0,0,0-.993-2.946,6.668,6.668,0,0,0,.418,2.36c0.115,0.377.235,0.752,0.334,1.133,0.035,0.137.09,0.163-.056,0.228l-0.3.133-0.672.306a0.606,0.606,0,0,0-.173.457,2.9,2.9,0,0,1-.17.5,3.394,3.394,0,0,1-.446.727,5.51,5.51,0,0,1-1.337,1.105q-0.864.547-1.736,1.081a5.477,5.477,0,0,0-1.5,1.141,5.036,5.036,0,0,0-.823,1.87A9.435,9.435,0,0,0,9.038,39.2a11.555,11.555,0,0,0,.4,2.336,23.375,23.375,0,0,0,.834,2.779,24.635,24.635,0,0,0,3.453,6.29,13.969,13.969,0,0,1-1.184-.984A18.394,18.394,0,0,0,14.2,51.365a6.8,6.8,0,0,0,2.028,1.366,22.012,22.012,0,0,0,2.469.9,21.417,21.417,0,0,0,2.5.371,39.029,39.029,0,0,0,5.3.067,25.3,25.3,0,0,0,4.944-1.113,2.933,2.933,0,0,0,1.233-.7,33.721,33.721,0,0,1-7.945.833c-0.043,0-.267.006-0.77,0.025a12.215,12.215,0,0,1-7.635-1.741,9.751,9.751,0,0,1-1.856-1.69,1.425,1.425,0,0,0,.146.1,15.735,15.735,0,0,0,2.633,1.223,17.514,17.514,0,0,0,3.773.932,15.554,15.554,0,0,0,1.864.132c0.31,0,.622,0,0.932-0.02,0.168-.009.113,0.151,0.123,0.3,0.387-.041.774-0.091,1.157-0.154a2.257,2.257,0,0,1,.752-0.11,0.314,0.314,0,0,0,.289-0.037,17.222,17.222,0,0,0,4.607-1.153c0.092-.039.186-0.073,0.279-0.113,1.555-.66,4.828-3.735,5.577-4.63,0.428-.513.834-1.045,1.214-1.6,0.154-.223.3-0.451,0.451-0.681,0.26-.406.5-0.823,0.734-1.246a21.613,21.613,0,0,0,2.79-6.847,18.738,18.738,0,0,0,.068-7.864"/><path class="e" d="M26,46.077a9.479,9.479,0,0,1-1.279,1.552l-0.11.032-0.006,0a0.415,0.415,0,0,1-.068.019,9.71,9.71,0,0,1-2.013.375c-0.087.006-.175,0.01-0.265,0.011H22.193c-0.116,0-.235,0-0.357-0.014l-0.111-.008-0.063-.054a19.224,19.224,0,0,1-2.165-.061l-0.085-.006a0.388,0.388,0,0,1,.046.025,3.25,3.25,0,0,1,.481.3l0.085,0.073,0.113,0.009a15.769,15.769,0,0,0,5.176-.39l0.078-.035,0.051-.07a4.085,4.085,0,0,0,.372-0.613,1.538,1.538,0,0,1,.9-0.928l0.16-1.053a25.3,25.3,0,0,1-2.984.96c-0.956.177-2.064,0.624-2.689,0.234-0.546-.341-0.366-1.165-0.77-1.236a0.854,0.854,0,0,1-.855-0.539,9.813,9.813,0,0,1,.08-1.217c-0.218-.332-1.65-0.105-0.765-1.892,0.22-.444-1.4-1.138-0.209-2.206a2.417,2.417,0,0,1,1.478-.319,6.481,6.481,0,0,1,2.089.244l-0.009-.029L22.1,39.215c-0.008,0,.261-0.418-0.581-0.517-0.241-.028-0.173-0.233-0.37-0.242l-0.118-.005c-0.187-.005-0.366,0-0.537.006l-0.085.008a4.6,4.6,0,0,0-.458.053c-0.018,0-.037.005-0.054,0.008a3.865,3.865,0,0,0-.437.108l-0.08.025a3.088,3.088,0,0,0-.385.154l-0.018.01a2.4,2.4,0,0,0-.322.2l-0.046.032a2.1,2.1,0,0,0-.271.246c-0.013.013-.023,0.027-0.035,0.041a1.99,1.99,0,0,0-.219.294l-0.01.018a2.117,2.117,0,0,0-.123.246c-0.01.024-.019,0.049-0.028,0.073-0.024.063-.046,0.129-0.065,0.195-0.009.032-.016,0.062-0.024,0.094-0.015.065-.029,0.13-0.039,0.2-0.005.033-.01,0.066-0.014,0.1-0.009.073-.015,0.148-0.018,0.223,0,0.03,0,.06-0.005.09,0,0.1,0,.2.008,0.309V41.2c0.009,0.115.023,0.234,0.042,0.355,0.005,0.027.011,0.056,0.015,0.082,0.018,0.094.035,0.187,0.058,0.282,0.009,0.041.02,0.082,0.032,0.123,0.022,0.086.047,0.172,0.073,0.261,0.014,0.046.028,0.09,0.043,0.135,0.029,0.09.062,0.18,0.1,0.272,0.016,0.044.032,0.087,0.049,0.133,0.042,0.105.087,0.211,0.135,0.32l0.041,0.095c0.066,0.142.135,0.286,0.211,0.433,0.013,0.024.027,0.048,0.041,0.073,0.063,0.12.13,0.244,0.2,0.368l0.087,0.148c0.061,0.1.122,0.2,0.186,0.308l0.109,0.17c0.066,0.1.133,0.2,0.2,0.3,0.039,0.057.077,0.114,0.118,0.172,0.077,0.109.157,0.219,0.238,0.33,0.038,0.051.073,0.1,0.111,0.153q0.182,0.241.38,0.489a7.5,7.5,0,0,0,1.512.581,5.327,5.327,0,0,0,1.428-.16c0.836-.157,1.954-0.439,2.789-0.643l0.09-.022a0.489,0.489,0,0,1-.044.095,0.163,0.163,0,0,1-.011.02"/><path class="e" d="M22.405,39.325c-0.047-.015-0.1-0.032-0.156-0.048L22.256,39.3l0.149,0.025"/><path class="e" d="M22.775,39.39l-0.3-.053-0.067-.011c0.276,0.09.394,0.147,0.37,0.065"/><circle class="b" cx="254.007" cy="35.039" r="2.464"/></svg>