<svg xmlns="http://www.w3.org/2000/svg" width="196.695" height="40.5" viewBox="0 0 196.695 40.5"><defs><style>.a{fill:#e74e0f;}.b{fill:#ffec00;}.c{fill:#e5007e;}.d{fill:#292929;}</style></defs><title>pd-logo-NL</title><path class="a" d="M16.534,25.506h0L16.4,25.482C16.446,25.49,16.491,25.5,16.534,25.506Z" transform="translate(-0.465 -0.279)"/><path class="a" d="M13.42,19.495a0.44,0.44,0,0,1,.13-0.114c1.133-.678,1.248-1.074,1.127-1.714-0.065-.232-0.115-0.462-0.157-0.686-0.021-.1-0.045-0.2-0.065-0.313l0.019,0c-0.354-2.7.47-4.9,1.63-5.489,1.072-.551,2.38-0.458,4.116.17-0.83-.727-2.637-1.068-4.674-0.985a9.324,9.324,0,0,0-.892,1.391,7.529,7.529,0,0,0-.866,3.236,7.224,7.224,0,0,0,.243,2.038,9.683,9.683,0,0,0,.324.966c0.026,0.064.076,0.114,0.011,0.153l-0.243.141c-1.925,1.13-3.839,2.276-5.736,3.455-0.343.212-.686,0.427-1.032,0.64-0.128.081-.258,0.16-0.387,0.238a0.449,0.449,0,0,0-.144.381c-0.047.328-.084,0.655-0.108,0.985a13.561,13.561,0,0,0,.313,4.04,12.183,12.183,0,0,0,1.461,3.621,10.14,10.14,0,0,0,1.189,1.575c0.415,0.448.814,0.684,0.5,0.446l0.2,0.128c-0.139-.145-0.278-0.29-0.408-0.446-2.186-2.612-3.442-7.875-1.584-10.766C9,21.628,10.785,20.928,13.42,19.495Z" transform="translate(-0.465 -0.279)"/><path class="a" d="M16.39,25.461a0.093,0.093,0,0,1,.012.021L16.4,25.461H16.39Z" transform="translate(-0.465 -0.279)"/><path class="a" d="M37.792,17.209q0,0.032,0-.006c0-.012,0-0.023,0-0.037l-0.037-.307A17.84,17.84,0,0,0,30.9,4.938C30.757,4.826,30.611,4.71,30.464,4.6a17.859,17.859,0,0,1,2.285,2.147,17.2,17.2,0,0,1,3.915,7.47,16.729,16.729,0,0,1-.36,8.789,28.671,28.671,0,0,1-1.684,4.146,23.426,23.426,0,0,1-2.236,3.982,20.891,20.891,0,0,1-3.161,3.273c-0.574.489-1.172,0.943-1.782,1.38A6.175,6.175,0,0,1,25.5,36.82a19.821,19.821,0,0,0,4.835-4.059l1.35-1.936s0.476-.786.689-1.175l0.329-.618a18.815,18.815,0,0,0,1.926-12.281c0.018,0.114.039,0.226,0.054,0.34a17.334,17.334,0,0,1-1.225,8.853,19.411,19.411,0,0,1-3.163,5.205,18.078,18.078,0,0,1-2.146,2.133,19.141,19.141,0,0,1-2.812,1.71,18.19,18.19,0,0,0,9.13-13.786,14.777,14.777,0,0,0-3.637-11.8,0.5,0.5,0,0,0,.161.062,0.368,0.368,0,0,0-.11-0.228A10.637,10.637,0,0,1,33.7,13.057C31.545,6.783,25.686.915,17.913,1.556c0,0,1.671-.131,2.982-0.155C30.17,2.223,34.323,12.058,34.978,14.656a16.2,16.2,0,0,1,.226,7.918A31.146,31.146,0,0,1,32.78,29.03l-0.407.792-0.014.023a27.016,27.016,0,0,1-1.771,2.616l0.166-.247c-0.07.1-.135,0.2-0.207,0.294l0.042-.048c-0.028.041-.059,0.081-0.09,0.118a15.022,15.022,0,0,0,1.018-1.283l-0.011.013,0.015-.019,0,0.006c0.419-.589.716-1.237,1.084-1.855,0.391-.661.758-1.331,1.1-2.017a25.106,25.106,0,0,0,1.535-3.837,19.836,19.836,0,0,0,.874-6.815A18.109,18.109,0,0,0,32.643,7.1a14.643,14.643,0,0,0-2.305-2.535,5.939,5.939,0,0,0-.851-0.626,20.979,20.979,0,0,0-3.312-1.465A21.3,21.3,0,0,0,23.156,1.6C22.769,1.522,22.374,1.479,22,1.367a6.551,6.551,0,0,0-1.99-.157,25.321,25.321,0,0,0-4.474.585,17.022,17.022,0,0,0-4.157,1.341c0.785-.388,1.545-0.835,2.355-1.169A14.167,14.167,0,0,1,16,1.267,25.6,25.6,0,0,1,21.062.681c-0.416.012,0.017,0,0,0A7.473,7.473,0,0,1,22.327.666h0.025a17.047,17.047,0,0,0-9.105.526,18.859,18.859,0,0,0-7.18,4.517A20.894,20.894,0,0,0,1.41,12.821,13.368,13.368,0,0,0,.5,16.241a0.969,0.969,0,0,0,.121.844c0.284,0.259.625-.178,0.756-0.392,0.033-.052.061-0.108,0.09-0.164A19.78,19.78,0,0,1,8,6.109c-0.05.068-.1,0.133-0.148,0.2,0.07-.062.139-0.126,0.208-0.187a36.662,36.662,0,0,0-3.611,5.769H4.432v0.037q0.349-.528.736-1.032c0.051-.068.11-0.133,0.165-0.2l0,0v0A15.64,15.64,0,0,1,7.923,8.114,16.106,16.106,0,0,1,9.2,7.063a15.909,15.909,0,0,1,1.374-.908,14.991,14.991,0,0,1,1.794-.9c0.036-.014.07-0.027,0.1-0.043-0.247.129-.493,0.265-0.735,0.406a15.066,15.066,0,0,0-1.374.908A16.373,16.373,0,0,0,9.083,7.577,17.8,17.8,0,0,0,3.4,15.883a0.02,0.02,0,0,1-.014,0v0.006a0.135,0.135,0,0,0,.1.129,0.8,0.8,0,0,0,.432-0.251A5.008,5.008,0,0,0,5,14.49c0.224-.591.455-1.179,0.713-1.754a10.406,10.406,0,0,1,1.4-2.382A12.711,12.711,0,0,1,9.085,8.5a28.563,28.563,0,0,1,3.15-2.348A11.287,11.287,0,0,1,16.56,4.758a14.188,14.188,0,0,1,8.691,1.83,18.664,18.664,0,0,1,1.862,1.175l0.022,0a18.431,18.431,0,0,0-3.219-2.038,13.849,13.849,0,0,0-6.671-1.544,13.679,13.679,0,0,0-4.767,1.03,13.528,13.528,0,0,1,12.583-.006,16.89,16.89,0,0,1,5.5,4.243,14.04,14.04,0,0,1,2.955,6.088,16.367,16.367,0,0,1-.059,6.863,18.876,18.876,0,0,1-2.436,5.976c-0.2.369-.413,0.734-0.641,1.088-0.127.2-.257,0.4-0.394,0.6q-0.5.725-1.059,1.393A21.921,21.921,0,0,1,24.054,35.5c-0.081.037-.162,0.066-0.243,0.1a15.018,15.018,0,0,1-4.022,1.007,0.266,0.266,0,0,1-.251.033,2.031,2.031,0,0,0-.656.1c-0.336.054-.672,0.1-1.011,0.133-0.008-.129.042-0.27-0.107-0.261-0.272.013-.542,0.019-0.813,0.017a13.518,13.518,0,0,1-1.628-.114A15.436,15.436,0,0,1,12.03,35.7a13.912,13.912,0,0,1-2.3-1.068A1.369,1.369,0,0,1,9.6,34.54a8.529,8.529,0,0,0,1.621,1.476,10.67,10.67,0,0,0,6.664,1.521c0.438-.017.634-0.025,0.672-0.023a29.3,29.3,0,0,0,6.935-.728,2.574,2.574,0,0,1-1.076.612,22.185,22.185,0,0,1-4.315.972,34.3,34.3,0,0,1-4.631-.06,18.194,18.194,0,0,1-2.183-.327,18.629,18.629,0,0,1-2.156-.783,5.882,5.882,0,0,1-1.768-1.192A16,16,0,0,1,7.92,34.482c0.015,0.017.036,0.033,0.052,0.048-0.174-.2-0.342-0.387-0.495-0.564a11.073,11.073,0,0,1-1.855-3.033,15.1,15.1,0,0,1-.883-7.491,13.682,13.682,0,0,0,.121,2.071c0-.035,0-0.071,0-0.1V25.388a8.167,8.167,0,0,1,.27-2.334,4.4,4.4,0,0,1,.718-1.633,4.826,4.826,0,0,1,1.31-1c0.507-.309,1.013-0.626,1.516-0.943a4.747,4.747,0,0,0,1.167-.966,2.971,2.971,0,0,0,.389-0.634,2.553,2.553,0,0,0,.149-0.437,2.337,2.337,0,0,1,.061-0.286h0c0-.014.006-0.027,0.008-0.043a31.338,31.338,0,0,0-4.739,2.556,11.158,11.158,0,0,0-1.056.806,2.178,2.178,0,0,0-.509,1.074,15.111,15.111,0,0,0-.559,2.883,0.922,0.922,0,0,0-1.042-.779,1.356,1.356,0,0,0-.616,1.123,5.1,5.1,0,0,0,.246,2.094,7.4,7.4,0,0,0,.968,2.009C2.111,28.875,2.727,30.125,3,30.608a9.911,9.911,0,0,0,.994,1.457c0.484,0.591.965,1.194,1.467,1.778a12.171,12.171,0,0,0,3.521,2.487q0.984,0.542,1.973,1.082a9.774,9.774,0,0,0,1.988.875,17.989,17.989,0,0,0,4.182.491c0.7,0.025,1.4.052,2.106,0.072,0.356,0.01.715,0.021,1.073,0.035,0.192,0.008.386,0.016,0.578,0.033a0.5,0.5,0,0,1,.25.05,5.216,5.216,0,0,1-.663.135c-0.315.043-.635,0.073-0.952,0.1a18.19,18.19,0,0,1-1.919.043,42.108,42.108,0,0,1-5.764-.887c-1.231-.307,6.181,2.377,11.932.622a19.953,19.953,0,0,0,11.219-9.419A21.307,21.307,0,0,0,37.792,17.209Z" transform="translate(-0.465 -0.279)"/><path class="a" d="M14.639,31.519a15.674,15.674,0,0,1-1.565-2.46,5.791,5.791,0,0,1-.591-2.338,2.171,2.171,0,0,1,2.268-1.959,5.244,5.244,0,0,1,.627-0.01h0.056c0.169,0.01.112,0.187,0.32,0.213,0.736,0.085.5,0.45,0.51,0.45l0.125,0.029a0.08,0.08,0,0,0,.007.023c0.051,0.017.1,0.029,0.137,0.043a0.558,0.558,0,0,0,.058.01l0.264,0.046a4.579,4.579,0,0,1,.674-3.621,0.925,0.925,0,0,1,1.372-.2,0.727,0.727,0,0,1,.313.367,6.572,6.572,0,0,0-.082,1.173,4.209,4.209,0,0,0,.606,2.243,4.682,4.682,0,0,1,.627,2.371h0l0.008-.015c0.033-.06.121-0.33,0.158-0.435,0.011-.019.017-0.041,0.028-0.062a0.151,0.151,0,0,1,.014-0.025,1.528,1.528,0,0,1,.153-0.243,1.119,1.119,0,0,1,.88-0.375c0.155-.019.307-0.043,0.461-0.062,0.037,0,.072-0.01.108-0.015l0.267-.041c0.317-.048.635-0.095,0.953-0.147,0.029,0,.059-0.008.088-0.012,1.66-.263,3.32-0.52,4.966-0.862,0.254-.054.507-0.1,0.759-0.158a0.122,0.122,0,0,1,.027-0.006c0,0.093.022,0.377,0.013,0.587a0.659,0.659,0,0,0-.013.126v0.006a0.2,0.2,0,0,1-.037.089l-0.031.017c-2.1.381-2,.01-6.851,0.732,0.016,0.054.039,0.153,0.064,0.259H22.37c0.019,0.064.038,0.128,0.055,0.191,0.02,0.083.037,0.157,0.048,0.2h0l5.018-.937-0.2,1.19s-4.371,2.106-4.36,2.235a1.141,1.141,0,0,0,1.307,0c0.458-.209,1.037-0.417,1.483-0.651,1.113-.574,1.74-0.927,2.808-1.58a2.675,2.675,0,0,0,1.219-1.132,2.311,2.311,0,0,0,.2-0.856c0.032-.9.182-1.8,0.29-2.7a9.8,9.8,0,0,0,.032-2.947,2.274,2.274,0,0,0-.906-1.484,12.717,12.717,0,0,0-3.053-1.138,5.8,5.8,0,0,1-1.573-.779,1.349,1.349,0,0,1-.569-0.721,5.853,5.853,0,0,1-.093-0.661c-0.116-1.256-.023-2.519-0.142-3.773C23.841,10.7,23.6,9.3,22.557,8.821l-0.014-.006L22.5,8.8c1.284,1.447.69,4.832,1.034,6.764-1.432-2.442-.158-5.777-2.371-6.78a13.572,13.572,0,0,0-3.6-.357,0.147,0.147,0,0,1-.028,0c-0.081,0-.161-0.006-0.243-0.006H17.27c-1.381-.029-2.737.023-3.322,0.039l0,0.014a2.406,2.406,0,0,0-.651.357,5.964,5.964,0,0,0-1.5,1.439,5.531,5.531,0,0,0-.84,1.977,7.218,7.218,0,0,0-.172,1.039,0.853,0.853,0,0,0,.011.214A9.98,9.98,0,0,1,11.634,16a3.594,3.594,0,0,1-.736,2.222,8.2,8.2,0,0,1-2.61,2.009c-0.326.176-.675,0.309-0.986,0.512a1.918,1.918,0,0,0-.7.844c-0.412.883-.471,1.37-0.35,1.3,0.191-.12.381-0.24,0.571-0.354q0.433-.272.866-0.537c0.833-.516,1.675-1.026,2.515-1.534q0.864-.516,1.731-1.03l1.045-.616c0.082-.046.164-0.095,0.243-0.141s0.015-.087-0.011-0.153a7.489,7.489,0,0,1-.506-3.772,7.892,7.892,0,0,1,1.015-2.881,9.343,9.343,0,0,1,.625-0.949c0.087-.118.177-0.234,0.269-0.346,0.042-.052.084-0.1,0.124-0.157,0.091,0,.184-0.016.276-0.021,0.169-.01.337-0.019,0.507-0.027-0.025,0-.049,0-0.075,0,0.1-.133.2-0.245,0.272-0.344,0.048-.056.09-0.108,0.125-0.151a9.534,9.534,0,0,1,5.683,1.107,20.692,20.692,0,0,1,.577,3.826l-0.155,2.33-0.053.23,0.225,0.079a7.931,7.931,0,0,1,1,.433c0.076,0.041.15,0.081,0.225,0.124,0.039,0.019.078,0.042,0.115,0.062l0.176,0.1,0.117,0.07,0.179,0.112,0.1,0.064,0.264,0.17A13.867,13.867,0,0,0,27.513,20.2c0.1,0.06.2,0.124,0.3,0.193,0.37,0.363-.194,2.987-0.284,3.607a3.822,3.822,0,0,1-1,.742l-0.013,0c0.013-.091.025-0.2,0.039-0.3l0,0.016c-0.662.184-1.321,0.383-1.989,0.551-0.476.118-.955,0.226-1.437,0.313a4.816,4.816,0,0,1-.827.114,1.824,1.824,0,0,1-.944-1.718,5.658,5.658,0,0,0,.1-1.264,1.87,1.87,0,0,0-.216-0.613,11.253,11.253,0,0,1,0,2.618c-0.22.746-.176-0.042-0.775,0.742a8.663,8.663,0,0,1-.217-3.373,3.5,3.5,0,0,1,.6-0.541,0.9,0.9,0,0,0-.191-0.479s0.066,0.027-.048-0.054a3.7,3.7,0,0,0-2.693-.723,3.719,3.719,0,0,0-2.15,2.027,4.19,4.19,0,0,0-.283.786c-0.016.075-.149,0.893-0.127,0.893-0.241.006-.482,0.021-0.722,0.041-0.791.062-2.578,0.1-3.267,0.881a2.359,2.359,0,0,0-.488,1.515,1.06,1.06,0,0,0,.208.576,1.58,1.58,0,0,1,.216.96,1.253,1.253,0,0,0,.219.837c0.171,0.228-.013.423,0.152,0.655a0.03,0.03,0,0,1,.007.014,0.723,0.723,0,0,1,.148.325,2.4,2.4,0,0,0,.124,1.325,3.374,3.374,0,0,0,1.176.754,2.83,2.83,0,0,0,2.56,1.316,1.441,1.441,0,0,1,.172.122l0.02,0.017,0.055,0.048,0.1,0.006c0.1,0.01.209,0.012,0.312,0.012h0.057c0.077,0,.153,0,0.229-0.008a8.654,8.654,0,0,0,1.758-.328,0.468,0.468,0,0,0,.059-0.017l0.006,0,0.1-.027a8.349,8.349,0,0,0,1.116-1.354c0-.006.006-0.014,0.011-0.019A0.451,0.451,0,0,0,19.72,31.3l-0.078.021c-0.731.178-1.707,0.425-2.436,0.56a4.62,4.62,0,0,1-1.246.139,6.668,6.668,0,0,1-1.321-.506m13.2-11.9a0.75,0.75,0,0,1,.116.435,13.629,13.629,0,0,1-3.625-1.749C25.214,18.873,26.421,18.661,27.837,19.619ZM11.606,18.593L11.9,18.4c0.11-.07.237-0.1,0.2-0.236Q11.97,17.6,11.889,17.02a11.647,11.647,0,0,1-.107-1.967,9.483,9.483,0,0,1,.549-2.929,6.106,6.106,0,0,1,.631-1.289,1.465,1.465,0,0,1,.208-0.259,0.44,0.44,0,0,1,.283-0.043,2.891,2.891,0,0,1,.737.114,10,10,0,0,0-1.418,7.933c-1.728.985-3.512,1.88-5.3,2.759C8.847,20.417,10.223,19.5,11.606,18.593Z" transform="translate(-0.465 -0.279)"/><polygon class="a" points="19.742 36.133 19.732 36.139 19.73 36.139 19.742 36.133"/><path class="a" d="M10.47,17.107a0.137,0.137,0,0,1,.062-0.054A0.148,0.148,0,0,0,10.47,17.107Z" transform="translate(-0.465 -0.279)"/><path class="b" d="M12.476,5.226c-0.034.014-.068,0.029-0.1,0.043a14.8,14.8,0,0,0-1.792.9A16.224,16.224,0,0,0,7.925,8.122,15.737,15.737,0,0,0,5.17,10.906c-0.258.336-.5,0.678-0.736,1.032a14.651,14.651,0,0,0-1.412,3.984,0.8,0.8,0,0,0,.38-0.029A17.813,17.813,0,0,1,9.087,7.585C9.395,7.307,9.87,6.9,10.37,6.54a14.794,14.794,0,0,1,1.374-.908C11.983,5.488,12.228,5.355,12.476,5.226Z" transform="translate(-0.465 -0.279)"/><path class="b" d="M36.663,14.218A17.187,17.187,0,0,0,32.748,6.75,17.591,17.591,0,0,0,30.463,4.6c0.147,0.106.293,0.222,0.44,0.334a21.724,21.724,0,0,0-4.489-2.856A18.673,18.673,0,0,0,23.8,1.054c-0.446-.137-0.9-0.261-1.356-0.361a5.778,5.778,0,0,0-1.38-.006A25.475,25.475,0,0,0,16,1.271a14.577,14.577,0,0,0-2.271.7c-0.811.334-1.57,0.783-2.355,1.169A16.927,16.927,0,0,1,15.528,1.8,25.687,25.687,0,0,1,20,1.215a6.492,6.492,0,0,1,1.99.157c0.379,0.11.774,0.155,1.161,0.236a21.49,21.49,0,0,1,3.019.875,20.816,20.816,0,0,1,3.312,1.466,5.772,5.772,0,0,1,.851.624A14.709,14.709,0,0,1,32.64,7.108,18.118,18.118,0,0,1,36.1,16.774a19.83,19.83,0,0,1-.874,6.815A25.1,25.1,0,0,1,33.7,27.426c-0.339.686-.705,1.356-1.1,2.017-0.368.618-.666,1.267-1.084,1.855a9.768,9.768,0,0,1-.987,1.238,19.939,19.939,0,0,1-5.033,4.286,6.266,6.266,0,0,0,1.944-1.032c0.61-.439,1.209-0.893,1.782-1.382a20.755,20.755,0,0,0,3.161-3.271,23.455,23.455,0,0,0,2.236-3.984A28.651,28.651,0,0,0,36.3,23.009,16.735,16.735,0,0,0,36.663,14.218Z" transform="translate(-0.465 -0.279)"/><path class="b" d="M21.06,0.689c0.016,0-.417.01,0,0h0Z" transform="translate(-0.465 -0.279)"/><path class="b" d="M22.374,27.246h0.01c-0.027-.108-0.049-0.2-0.064-0.259,4.854-.723,4.75-0.352,6.852-0.732a0.32,0.32,0,0,0,.03-0.017,0.215,0.215,0,0,0,.038-0.089V26.143a0.637,0.637,0,0,1,.013-0.126c0.009-.211-0.015-0.495-0.013-0.587a0.11,0.11,0,0,0-.027.006c-0.253.056-.506,0.1-0.759,0.158-1.646.342-3.306,0.6-4.966,0.862-0.029,0-.059.01-0.088,0.012-0.318.052-.635,0.1-0.953,0.147-0.09.014-.178,0.025-0.267,0.041-0.036,0-.071.01-0.108,0.015-0.155.019-.308,0.045-0.461,0.062a1.127,1.127,0,0,0-.881.375,1.449,1.449,0,0,0-.152.243l-0.014.025c-0.011.021-.017,0.043-0.028,0.062-0.037.1-.125,0.375-0.158,0.435l-0.009.015c0.7-.064,1.407-0.16,2.109-0.255-0.012-.044-0.029-0.118-0.049-0.2C22.412,27.374,22.393,27.31,22.374,27.246Z" transform="translate(-0.465 -0.279)"/><path class="b" d="M21.243,24.464a10.774,10.774,0,0,0-.026-2.713,4.358,4.358,0,0,0-.24-0.556l-0.32-.383a0.9,0.9,0,0,1,.191.479,3.361,3.361,0,0,0-.6.539,8.7,8.7,0,0,0,.217,3.375C21.067,24.422,21.023,25.21,21.243,24.464Z" transform="translate(-0.465 -0.279)"/><path class="b" d="M15.69,32.933a2.831,2.831,0,0,1-2.56-1.316,3.322,3.322,0,0,1-1.176-.752,2.41,2.41,0,0,1-.124-1.327,1.038,1.038,0,0,0-.277-0.491,4.588,4.588,0,0,0-.031,2.332,2.108,2.108,0,0,0,.837.354,3.151,3.151,0,0,1,.554.508,2.331,2.331,0,0,0,.446.421c0.014,0.006.029,0.015,0.042,0.021a2.832,2.832,0,0,1,.419.263l0.03,0.027c0.024,0.012.046,0.027,0.069,0.039l0.074,0.006a16.924,16.924,0,0,0,1.891.052l-0.02-.015A1.741,1.741,0,0,0,15.69,32.933Z" transform="translate(-0.465 -0.279)"/><path class="b" d="M24.325,18.3a13.685,13.685,0,0,0,3.625,1.75,0.733,0.733,0,0,0-.116-0.435C26.418,18.658,25.211,18.871,24.325,18.3Z" transform="translate(-0.465 -0.279)"/><path class="b" d="M23.544,15.549c-0.343-1.934.25-5.317-1.034-6.764a0.18,0.18,0,0,1,.039.017,2.063,2.063,0,0,0-.356-0.326c-0.621-.527-2.969-0.906-4.9-0.748l-0.554.046c-0.192.017-.377,0.031-0.551,0.046a6.973,6.973,0,0,0-2.239.622c0.585-.016,1.94-0.066,3.322-0.039H17.3L17.542,8.41a0.161,0.161,0,0,0,.029,0,13.57,13.57,0,0,1,3.6.357C23.386,9.772,22.112,13.107,23.544,15.549Z" transform="translate(-0.465 -0.279)"/><polygon class="c" points="7.546 34.261 7.549 34.263 7.549 34.263 7.546 34.261"/><path class="c" d="M33.515,15.545A14.022,14.022,0,0,0,30.56,9.459a16.9,16.9,0,0,0-5.5-4.243,13.528,13.528,0,0,0-12.583.006,13.454,13.454,0,0,1,11.438.514,16.921,16.921,0,0,1,5.5,4.243,13.979,13.979,0,0,1,2.953,6.088,16.337,16.337,0,0,1-.058,6.863A18.908,18.908,0,0,1,29.6,29.345a17.364,17.364,0,0,1-4.868,4.927,14.728,14.728,0,0,1-1.414.825c-0.081.043-.164,0.079-0.244,0.12,0,0,0,0,0,0l0,0a13.03,13.03,0,0,1-7.16.852,12.91,12.91,0,0,1-2.249-.684c-0.7-.276-1.422-0.553-2.1-0.891a6.544,6.544,0,0,1-1.886-1.271A10.069,10.069,0,0,1,8.491,31.65,12.193,12.193,0,0,1,7.03,28.029a13.56,13.56,0,0,1-.313-4.04c0.024-.33.06-0.657,0.108-0.985a0.449,0.449,0,0,1,.144-0.381c0.129-.077.259-0.158,0.387-0.238l1.032-.641q2.845-1.762,5.736-3.453c0.081-.046.162-0.1,0.243-0.143,0.065-.039.015-0.087-0.011-0.151a9.437,9.437,0,0,1-.324-0.966,7.243,7.243,0,0,1-.243-2.038,7.513,7.513,0,0,1,.866-3.236,9.316,9.316,0,0,1,.893-1.393c2.177-.087,4.093.309,4.832,1.14,0.789,0.891.774,3.735,0.559,5.478a3.813,3.813,0,0,1-.4,1.437,15.907,15.907,0,0,1,2.7.935,13.683,13.683,0,0,0,3.664,1.76c-0.034.686-.256,2.591-0.39,3.634l0.013,0a3.761,3.761,0,0,0,1-.74c0.09-.622.653-3.244,0.284-3.607-0.1-.07-0.2-0.133-0.3-0.2A13.606,13.606,0,0,1,24.3,18.587c-0.089-.056-0.177-0.114-0.264-0.168l-0.1-.064c-0.059-.039-0.119-0.077-0.179-0.112-0.04-.021-0.079-0.046-0.118-0.07-0.058-.033-0.116-0.068-0.176-0.1L23.342,18c-0.073-.041-0.147-0.081-0.225-0.122a7.424,7.424,0,0,0-1-.435l-0.225-.077,0.053-.232L22.1,14.811a20.906,20.906,0,0,0-.577-3.828,9.536,9.536,0,0,0-5.683-1.107c-0.036.042-.076,0.095-0.125,0.153-0.076.1-.17,0.209-0.272,0.342,0.026,0,.05,0,0.075,0-0.17.008-.338,0.017-0.506,0.029-0.092.006-.185,0.015-0.276,0.021-0.04.052-.081,0.1-0.124,0.157-0.092.112-.182,0.228-0.269,0.346a9.535,9.535,0,0,0-.625.947A7.873,7.873,0,0,0,12.7,14.751a7.477,7.477,0,0,0,.505,3.77c0.026,0.066.076,0.116,0.011,0.155l-0.243.141-1.045.614c-0.578.344-1.155,0.686-1.731,1.032C9.361,20.971,8.52,21.479,7.687,22q-0.433.264-.866,0.537c-0.19.114-.38,0.234-0.571,0.352-0.029.017-.072,0.005-0.058-0.057A5.988,5.988,0,0,1,6.6,21.591a1.945,1.945,0,0,1,.7-0.844c0.312-.2.661-0.336,0.986-0.51a8.215,8.215,0,0,0,2.618-2.021,3.6,3.6,0,0,0,.736-2.222,10.925,10.925,0,0,0-.867-2.572,5.768,5.768,0,0,0,.366,2.06c0.1,0.328.2,0.657,0.29,0.989,0.03,0.12.078,0.145-.049,0.2l-0.261.116c-0.2.089-.392,0.178-0.586,0.268a0.523,0.523,0,0,0-.152.4,2.47,2.47,0,0,1-.148.435,2.973,2.973,0,0,1-.39.636,4.858,4.858,0,0,1-1.167.966c-0.5.315-1.009,0.634-1.515,0.943a4.784,4.784,0,0,0-1.31,1,4.442,4.442,0,0,0-.718,1.633,8.2,8.2,0,0,0-.27,2.334,10.116,10.116,0,0,0,.352,2.04,20.084,20.084,0,0,0,.728,2.425,21.5,21.5,0,0,0,3.013,5.491,12.116,12.116,0,0,1-1.033-.856,16.157,16.157,0,0,0,1.444,1.524A5.931,5.931,0,0,0,11.14,37.21a19.743,19.743,0,0,0,2.155.783,19.021,19.021,0,0,0,2.183.326,34.62,34.62,0,0,0,4.631.058,22.309,22.309,0,0,0,4.315-.97A2.6,2.6,0,0,0,25.5,36.8a29.409,29.409,0,0,1-6.935.727c-0.039,0-.233.006-0.672,0.023a10.67,10.67,0,0,1-6.664-1.521,8.562,8.562,0,0,1-1.621-1.476,1.21,1.21,0,0,0,.127.089,13.594,13.594,0,0,0,2.3,1.069,15.332,15.332,0,0,0,3.292.813,13.524,13.524,0,0,0,1.628.114c0.271,0,.541,0,0.813-0.017,0.149-.01.1,0.131,0.107,0.263,0.339-.037.674-0.081,1.011-0.135a1.974,1.974,0,0,1,.655-0.1,0.267,0.267,0,0,0,.252-0.033,14.943,14.943,0,0,0,4.022-1.007c0.081-.033.162-0.062,0.243-0.1a21.956,21.956,0,0,0,4.868-4.042q0.561-.669,1.059-1.393c0.137-.2.267-0.392,0.394-0.6,0.227-.352.44-0.719,0.641-1.086A18.888,18.888,0,0,0,33.46,22.41,16.423,16.423,0,0,0,33.515,15.545ZM20.2,36.418l0.01-.006a0.043,0.043,0,0,1-.013.006h0Z" transform="translate(-0.465 -0.279)"/><path class="c" d="M14.772,24.757c0.005,0,.4-0.017.56-0.013,0.034,0,.068,0,0.1,0,0.169,0.008.112,0.187,0.321,0.211,0.736,0.087.5,0.45,0.509,0.45L16.39,25.44,16.4,25.463a5.544,5.544,0,0,0-1.824-.214,2.1,2.1,0,0,0-1.29.276c-1.041.933,0.375,1.538,0.183,1.926-0.773,1.559.476,1.362,0.667,1.65a8.222,8.222,0,0,0-.071,1.063,0.744,0.744,0,0,0,.746.47c0.352,0.064.2,0.783,0.671,1.08,0.547,0.342,1.515-.05,2.348-0.2a21.858,21.858,0,0,0,2.605-.837l-0.139.92a1.323,1.323,0,0,0-.786.808,3.5,3.5,0,0,1-.326.535L19.137,33l-0.069.031a13.737,13.737,0,0,1-4.519.342l-0.1-.01L14.379,33.3a3.553,3.553,0,0,0-.422-0.263c-0.012,0-.024-0.014-0.04-0.019l0.074,0.006a16.907,16.907,0,0,0,1.891.052l0.055,0.048,0.1,0.006c0.1,0.01.209,0.012,0.312,0.012H16.4c0.077,0,.154,0,0.23-0.008a8.659,8.659,0,0,0,1.758-.328,0.486,0.486,0,0,0,.059-0.017l0.006,0c0.031-.008.066-0.019,0.1-0.027A8.459,8.459,0,0,0,19.67,31.4c0-.006.007-0.014,0.014-0.021a0.44,0.44,0,0,0,.038-0.081l-0.078.021c-0.731.176-1.707,0.423-2.436,0.562,0,0-.677.113-0.8,0.125a3.838,3.838,0,0,1-.429.024c-0.025-.009-0.123-0.028-0.2-0.05a6.48,6.48,0,0,1-1.15-.465A14.623,14.623,0,0,1,13.221,29.4a5.32,5.32,0,0,1-.74-2.716S12.385,24.946,14.772,24.757Z" transform="translate(-0.465 -0.279)"/><path class="c" d="M16.532,25.506L16.4,25.463,16.4,25.482Z" transform="translate(-0.465 -0.279)"/><path class="c" d="M16.856,25.56c-0.085-.014-0.174-0.031-0.265-0.044l-0.058-.01C16.774,25.585,16.875,25.635,16.856,25.56Z" transform="translate(-0.465 -0.279)"/><circle class="a" cx="162.967" cy="19.653" r="2.133"/><path class="c" d="M15.95,32.007" transform="translate(-0.465 -0.279)"/><path class="a" d="M14.636,31.517" transform="translate(-0.465 -0.279)"/><path class="d" d="M50.122,40.14a4.377,4.377,0,0,1-2.465.639c-2.145,0-3.022-1.1-3.022-2.821a4.185,4.185,0,0,1,4.231-4.4,5.724,5.724,0,0,1,1.967.3l-0.119,1.718c-0.545.083-.818-0.035-0.818-0.461a2.214,2.214,0,0,1,.13-0.664,5.109,5.109,0,0,0-1.161-.154,3.094,3.094,0,0,0-3.247,3.354c0,1.777.688,2.381,2.287,2.381a3.257,3.257,0,0,0,1.41-.273l0.178-1.871-1.4.07a1.716,1.716,0,0,1,.095-0.829h2.276Z" transform="translate(-0.465 -0.279)"/><path class="d" d="M52.4,38.788C52.422,39.748,52.86,40,53.358,40a3.97,3.97,0,0,0,2.1-.889,0.49,0.49,0,0,1,.225.439c0,0.592-1.067,1.161-2.276,1.161a1.594,1.594,0,0,1-1.825-1.825c0-2.061,1.245-3.721,2.75-3.721A1.856,1.856,0,0,1,55.8,37.177C55.8,38.4,52.86,38.741,52.4,38.788Zm0.024-.581c0.687-.1,2.429-0.415,2.429-1a1.648,1.648,0,0,0-.687-1.434A2.577,2.577,0,0,0,52.422,38.208Z" transform="translate(-0.465 -0.279)"/><path class="d" d="M63.432,35.161a1.32,1.32,0,0,1,.45,1.174c0,2.358-1.813,4.373-3.022,4.373a0.52,0.52,0,0,1-.616-0.616,6.791,6.791,0,0,1,.26-1.423,3.805,3.805,0,0,1-2.666,2.039,0.545,0.545,0,0,1-.64-0.616,37.269,37.269,0,0,0,.367-4.065,2.7,2.7,0,0,1-.817.142c-0.427,0-.628-0.154-0.628-0.474a0.52,0.52,0,0,1,.071-0.3,10.528,10.528,0,0,0,2-.237,0.994,0.994,0,0,1,.3.356,37.936,37.936,0,0,1-.45,4.5,3.823,3.823,0,0,0,2.24-2.631l-0.3-2.05a1.9,1.9,0,0,1,.759-0.142,1.319,1.319,0,0,1,.45,1.173,4.349,4.349,0,0,1-.3,1.5,20.277,20.277,0,0,0,.13,2.11,3.438,3.438,0,0,0,1.944-2.632l-0.3-2.05A1.9,1.9,0,0,1,63.432,35.161Z" transform="translate(-0.465 -0.279)"/><path class="d" d="M64.57,38.753c0-2.181,1.078-3.591,2.643-3.591,0.735,0,1.683.415,1.683,2.027,0,2.181-1.042,3.591-2.607,3.591A1.741,1.741,0,0,1,64.57,38.753Zm0.912-.237c0,0.972.427,1.588,1.055,1.588,0.758,0,1.458-.818,1.458-2.725,0-1.126-.486-1.589-1.031-1.589C66.229,35.789,65.482,36.536,65.482,38.516Z" transform="translate(-0.465 -0.279)"/><path class="d" d="M69.809,38.753c0-2.181,1.078-3.591,2.643-3.591,0.735,0,1.683.415,1.683,2.027,0,2.181-1.043,3.591-2.607,3.591A1.742,1.742,0,0,1,69.809,38.753Zm0.912-.237c0,0.972.427,1.588,1.055,1.588,0.758,0,1.458-.818,1.458-2.725,0-1.126-.486-1.589-1.031-1.589C71.468,35.789,70.721,36.536,70.721,38.516Z" transform="translate(-0.465 -0.279)"/><path class="d" d="M75.77,40.684a0.89,0.89,0,0,1-.237-0.7,12.507,12.507,0,0,1,.237-1.7l0.308-2.382a1.578,1.578,0,0,1-.818.26c-0.427,0-.652-0.13-0.652-0.474a0.522,0.522,0,0,1,.071-0.3,10.6,10.6,0,0,0,2.027-.237,0.93,0.93,0,0,1,.32.356L76.481,36.88c0.379-.4,1.695-1.719,2.844-1.719,0.462,0,.664.285,0.533,1.043l-0.651,3.769a3.48,3.48,0,0,0,1.268-.758,0.481,0.481,0,0,1,.249.462,1.341,1.341,0,0,1-1.541.984c-0.687,0-.889-0.261-0.747-1.091L79.052,35.9a10.968,10.968,0,0,0-2.347,1.268l-0.355,3.378A2.4,2.4,0,0,1,75.77,40.684Z" transform="translate(-0.465 -0.279)"/><path class="d" d="M85.014,36.027a2.288,2.288,0,0,1-.794.142c-0.427,0-.652-0.13-0.652-0.474a0.521,0.521,0,0,1,.071-0.3,11.009,11.009,0,0,0,2.05-.237,1.307,1.307,0,0,1,.32.474l-0.273,1.186-0.486,3.152a3.479,3.479,0,0,0,1.268-.758,0.481,0.481,0,0,1,.249.462,1.341,1.341,0,0,1-1.54.984c-0.652,0-.865-0.238-0.758-0.984Zm0.747-3.544a0.723,0.723,0,1,1-.723.723A0.719,0.719,0,0,1,85.761,32.483Z" transform="translate(-0.465 -0.279)"/><path class="d" d="M88.155,40.684a0.891,0.891,0,0,1-.237-0.7,12.525,12.525,0,0,1,.237-1.7l0.308-2.382a1.576,1.576,0,0,1-.817.26c-0.427,0-.652-0.13-0.652-0.474a0.522,0.522,0,0,1,.071-0.3,10.612,10.612,0,0,0,2.027-.237,0.929,0.929,0,0,1,.32.356L88.866,36.88c0.379-.4,1.695-1.719,2.844-1.719,0.462,0,.664.285,0.533,1.043l-0.652,3.769a3.481,3.481,0,0,0,1.268-.758,0.481,0.481,0,0,1,.249.462,1.341,1.341,0,0,1-1.54.984c-0.687,0-.889-0.261-0.747-1.091L91.438,35.9a10.959,10.959,0,0,0-2.346,1.268l-0.356,3.378A2.4,2.4,0,0,1,88.155,40.684Z" transform="translate(-0.465 -0.279)"/><path class="d" d="M96.605,33.349c-0.427,0-.652-0.13-0.652-0.474a0.519,0.519,0,0,1,.071-0.3,11.413,11.413,0,0,0,2.074-.237,1.293,1.293,0,0,1,.32.474L98.145,34l-0.687,5.973a3.409,3.409,0,0,0,1.268-.758,0.481,0.481,0,0,1,.249.462c0,0.427-.486.984-1.636,0.984-0.7,0-.9-0.416-0.45-1.316a3.746,3.746,0,0,1-2.275,1.363c-0.557,0-1.007-.414-1.007-1.86,0-1.955,1.256-3.686,2.607-3.686a1.043,1.043,0,0,1,.9.427L97.4,33.206A2.285,2.285,0,0,1,96.605,33.349Zm0.107,5.676,0.344-2.938a2.075,2.075,0,0,0-.841-0.178c-1.019,0-1.718.877-1.718,2.749,0,1.1.189,1.209,0.415,1.209A5.583,5.583,0,0,0,96.712,39.025Z" transform="translate(-0.465 -0.279)"/><path class="d" d="M100.173,40.684a0.89,0.89,0,0,1-.237-0.7,12.494,12.494,0,0,1,.237-1.7l0.3-2.382a1.512,1.512,0,0,1-.806.26c-0.426,0-.652-0.13-0.652-0.474a0.52,0.52,0,0,1,.071-0.3,10.6,10.6,0,0,0,2.027-.237,1.3,1.3,0,0,1,.32.474l-0.474,1.257a7.9,7.9,0,0,0,1.8-1.731,0.5,0.5,0,0,1,.509.5c0,0.558-.711,1.2-2.169,1.565l-0.344,3.319A2.4,2.4,0,0,1,100.173,40.684Z" transform="translate(-0.465 -0.279)"/><path class="d" d="M107.639,39.973a3.48,3.48,0,0,0,1.269-.758,0.481,0.481,0,0,1,.248.462c0,0.5-.6.984-1.587,0.984-0.593,0-.747-0.178-0.747-0.5a1.9,1.9,0,0,1,.273-0.818,4.173,4.173,0,0,1-2.406,1.363,0.671,0.671,0,0,1-.758-0.77,37.332,37.332,0,0,1,.486-3.911,2.759,2.759,0,0,1-.841.142,0.489,0.489,0,0,1-.6-0.474,0.522,0.522,0,0,1,.071-0.3,10.605,10.605,0,0,0,2.027-.237,1.336,1.336,0,0,1,.32.474,32.745,32.745,0,0,0-.64,4.3,6.311,6.311,0,0,0,2.168-.949l0.451-3.686a3.342,3.342,0,0,1,.628-0.142,0.845,0.845,0,0,1,.249.7,10.183,10.183,0,0,1-.261,1.695Z" transform="translate(-0.465 -0.279)"/><path class="d" d="M110.152,40.684a0.891,0.891,0,0,1-.237-0.7,12.533,12.533,0,0,1,.237-1.7l0.593-5.084a2.28,2.28,0,0,1-.794.143c-0.426,0-.651-0.13-0.651-0.474a0.522,0.522,0,0,1,.07-0.3,11.417,11.417,0,0,0,2.074-.237,1.286,1.286,0,0,1,.32.474L111.491,34l-0.2,1.706a9.04,9.04,0,0,1,2.311-.486,0.617,0.617,0,0,1,.71.676c0,0.876-1.588,2.251-1.588,2.251l0.581,1.825a3.478,3.478,0,0,0,1.268-.758,0.481,0.481,0,0,1,.249.462,1.311,1.311,0,0,1-1.434.984,0.938,0.938,0,0,1-1.067-.855l-0.486-1.729s1.517-1.256,1.517-1.861a0.38,0.38,0,0,0-.083-0.261l-2.05.367-0.5,4.219A2.215,2.215,0,0,1,110.152,40.684Z" transform="translate(-0.465 -0.279)"/><path class="d" d="M122.157,35.161a1.32,1.32,0,0,1,.451,1.174c0,2.358-1.813,4.373-3.022,4.373a0.52,0.52,0,0,1-.616-0.616,6.772,6.772,0,0,1,.261-1.423,3.808,3.808,0,0,1-2.667,2.039,0.545,0.545,0,0,1-.64-0.616,37.336,37.336,0,0,0,.368-4.065,2.71,2.71,0,0,1-.818.142c-0.426,0-.628-0.154-0.628-0.474a0.519,0.519,0,0,1,.072-0.3,10.536,10.536,0,0,0,2-.237,0.991,0.991,0,0,1,.3.356,37.867,37.867,0,0,1-.451,4.5,3.825,3.825,0,0,0,2.24-2.631l-0.3-2.05a1.9,1.9,0,0,1,.758-0.142,1.318,1.318,0,0,1,.451,1.173,4.35,4.35,0,0,1-.3,1.5,20.281,20.281,0,0,0,.13,2.11,3.438,3.438,0,0,0,1.944-2.632l-0.3-2.05A1.9,1.9,0,0,1,122.157,35.161Z" transform="translate(-0.465 -0.279)"/><path class="d" d="M124.1,38.788c0.023,0.959.461,1.209,0.959,1.209a3.975,3.975,0,0,0,2.1-.889,0.49,0.49,0,0,1,.225.439c0,0.592-1.066,1.161-2.276,1.161a1.6,1.6,0,0,1-1.825-1.825c0-2.061,1.244-3.721,2.749-3.721a1.855,1.855,0,0,1,1.469,2.015C127.5,38.4,124.563,38.741,124.1,38.788Zm0.023-.581c0.687-.1,2.429-0.415,2.429-1a1.647,1.647,0,0,0-.688-1.434A2.577,2.577,0,0,0,124.125,38.208Z" transform="translate(-0.465 -0.279)"/><path class="d" d="M128.783,40.684a0.891,0.891,0,0,1-.237-0.7,12.519,12.519,0,0,1,.237-1.7l0.593-5.084a2.281,2.281,0,0,1-.794.143c-0.427,0-.652-0.13-0.652-0.474a0.519,0.519,0,0,1,.071-0.3,11.423,11.423,0,0,0,2.074-.237,1.284,1.284,0,0,1,.32.474L130.122,34l-0.2,1.706a9.048,9.048,0,0,1,2.311-.486,0.618,0.618,0,0,1,.712.676c0,0.876-1.588,2.251-1.588,2.251l0.581,1.825a3.482,3.482,0,0,0,1.268-.758,0.481,0.481,0,0,1,.25.462,1.312,1.312,0,0,1-1.435.984,0.937,0.937,0,0,1-1.066-.855l-0.486-1.729s1.517-1.256,1.517-1.861a0.381,0.381,0,0,0-.082-0.261l-2.051.367-0.5,4.219A2.207,2.207,0,0,1,128.783,40.684Z" transform="translate(-0.465 -0.279)"/><path class="d" d="M134.449,40.684a0.89,0.89,0,0,1-.237-0.7,12.494,12.494,0,0,1,.237-1.7l0.593-5.084a2.285,2.285,0,0,1-.793.143c-0.428,0-.653-0.13-0.653-0.474a0.519,0.519,0,0,1,.071-0.3,11.418,11.418,0,0,0,2.075-.237,1.3,1.3,0,0,1,.32.474L135.788,34l-0.2,1.706a9.046,9.046,0,0,1,2.311-.486,0.618,0.618,0,0,1,.711.676c0,0.876-1.588,2.251-1.588,2.251l0.581,1.825a3.481,3.481,0,0,0,1.268-.758,0.481,0.481,0,0,1,.249.462,1.311,1.311,0,0,1-1.434.984,0.937,0.937,0,0,1-1.066-.855l-0.486-1.729s1.517-1.256,1.517-1.861a0.379,0.379,0,0,0-.083-0.261l-2.05.367-0.5,4.219A2.211,2.211,0,0,1,134.449,40.684Z" transform="translate(-0.465 -0.279)"/><path class="d" d="M140.386,38.788c0.024,0.959.462,1.209,0.96,1.209a3.971,3.971,0,0,0,2.1-.889,0.49,0.49,0,0,1,.225.439c0,0.592-1.066,1.161-2.275,1.161a1.594,1.594,0,0,1-1.825-1.825c0-2.061,1.244-3.721,2.749-3.721a1.855,1.855,0,0,1,1.469,2.015C143.787,38.4,140.849,38.741,140.386,38.788Zm0.024-.581c0.687-.1,2.429-0.415,2.429-1a1.648,1.648,0,0,0-.687-1.434A2.578,2.578,0,0,0,140.41,38.208Z" transform="translate(-0.465 -0.279)"/><path class="d" d="M145.257,40.684a0.891,0.891,0,0,1-.237-0.7,12.531,12.531,0,0,1,.237-1.7l0.309-2.382a1.581,1.581,0,0,1-.818.26c-0.426,0-.652-0.13-0.652-0.474a0.518,0.518,0,0,1,.072-0.3,10.614,10.614,0,0,0,2.027-.237,0.933,0.933,0,0,1,.32.356l-0.545,1.363c0.378-.4,1.694-1.719,2.844-1.719,0.462,0,.664.285,0.533,1.043l-0.652,3.769a3.478,3.478,0,0,0,1.268-.758,0.481,0.481,0,0,1,.249.462,1.341,1.341,0,0,1-1.541.984c-0.687,0-.889-0.261-0.747-1.091L148.54,35.9a10.939,10.939,0,0,0-2.346,1.268l-0.357,3.378A2.383,2.383,0,0,1,145.257,40.684Z" transform="translate(-0.465 -0.279)"/><path class="d" d="M153.708,33.349c-0.427,0-.652-0.13-0.652-0.474a0.518,0.518,0,0,1,.071-0.3,11.417,11.417,0,0,0,2.074-.237,1.288,1.288,0,0,1,.32.474L155.248,34l-0.686,5.973a3.409,3.409,0,0,0,1.267-.758,0.481,0.481,0,0,1,.249.462c0,0.427-.486.984-1.635,0.984-0.7,0-.9-0.416-0.45-1.316a3.75,3.75,0,0,1-2.275,1.363c-0.558,0-1.007-.414-1.007-1.86,0-1.955,1.256-3.686,2.607-3.686a1.041,1.041,0,0,1,.9.427l0.285-2.382A2.285,2.285,0,0,1,153.708,33.349Zm0.107,5.676,0.343-2.938a2.076,2.076,0,0,0-.841-0.178c-1.019,0-1.718.877-1.718,2.749,0,1.1.19,1.209,0.415,1.209A5.575,5.575,0,0,0,153.814,39.025Z" transform="translate(-0.465 -0.279)"/><path class="d" d="M157.915,39.191a0.758,0.758,0,1,1-.758.759A0.749,0.749,0,0,1,157.915,39.191Zm0.569-.865a1.131,1.131,0,0,1-.4.047,0.9,0.9,0,0,1-.38-0.047l0.451-5.179a1.765,1.765,0,0,1,.533-0.059,1.54,1.54,0,0,1,.5.059Z" transform="translate(-0.465 -0.279)"/><path class="d" d="M46.709,24.063l0.145-2.008V11.662l-1.95-.116a3.6,3.6,0,0,1-.087-2.154s2.969-.146,7.918-0.146c5.415,0,6.957,2.853,6.957,5.3,0,3.29-2.765,6.113-8.849,6.259v3.26l2.795-.116a2.159,2.159,0,0,1,.175.96c0,0.874-.495,1.514-1.776,1.514H44.9a4.717,4.717,0,0,1-.087-2.154Zm4.134-5.385c3.289-.146,4.716-1.834,4.716-3.959,0-1.834-.961-3.115-3.29-3.115-0.437,0-.9.029-1.281,0.058l-0.145,2.1v4.92Z" transform="translate(-0.465 -0.279)"/><path class="d" d="M73.836,24.063l0.145-2.038V15.563a3.288,3.288,0,0,1-.786.087,1.474,1.474,0,0,1-1.6-1.659,1.665,1.665,0,0,1,.145-0.815c2.969,0,6.055-.349,6.055-0.349a1.292,1.292,0,0,1,.524.582l-0.378,3.086v7.569l1.717-.116a2.159,2.159,0,0,1,.175.96c0,0.874-.495,1.514-1.776,1.514H72.322a4.713,4.713,0,0,1-.087-2.154ZM75.874,6.6A2.245,2.245,0,0,1,78.2,8.984a2.3,2.3,0,0,1-2.387,2.358,2.27,2.27,0,0,1-2.387-2.358A2.34,2.34,0,0,1,75.874,6.6Z" transform="translate(-0.465 -0.279)"/><path class="d" d="M91.24,24.063l0.146-2.038V18.5c0-1.514-.408-2.358-2.067-2.358a5.061,5.061,0,0,0-2.387.669v7.248l1.426-.116a2.01,2.01,0,0,1,.175.96,1.421,1.421,0,0,1-1.6,1.514H81.313a4.713,4.713,0,0,1-.087-2.154l1.6-.2,0.145-2.038V15.65a2.907,2.907,0,0,1-.64.058,1.474,1.474,0,0,1-1.6-1.659,2.112,2.112,0,0,1,.146-0.873,57.314,57.314,0,0,0,5.909-.349,1.3,1.3,0,0,1,.524.611l-0.786,2.445a6,6,0,0,1,4.862-3.057c2.824,0,3.959,1.747,3.959,4.512v6.724l1.718-.116a2.01,2.01,0,0,1,.175.96,1.5,1.5,0,0,1-1.776,1.514H89.9a4.947,4.947,0,0,1-.087-2.154Z" transform="translate(-0.465 -0.279)"/><path class="d" d="M99.158,12.885l0.233-2.795a6.34,6.34,0,0,1,3.872-.146l-0.378,3.231,3.523-.262a1.558,1.558,0,0,1,.233.99c0,1.252-.757,1.921-2.707,1.8l-0.961-.058v6.521c0,1.31.408,1.63,1.543,1.63a10.012,10.012,0,0,0,2.533-.378,1.609,1.609,0,0,1,.233.96c0,1.31-.815,2.212-4.017,2.212-3,0-4.134-1.135-4.134-3.9V15.447l-1.98-.117a3.776,3.776,0,0,1,.087-2.009A15.637,15.637,0,0,0,99.158,12.885Z" transform="translate(-0.465 -0.279)"/><path class="d" d="M61.029,26.39h6.288c1.134,0,1.758-.519,1.758-1.463a2.157,2.157,0,0,0-.154-0.908l-2.276-.009c-0.035,0-.037,0-0.062,0V17.4c0.049,0,.154,0,0.2,0,1.267,0,3.887-1.067,4-2.466a1.99,1.99,0,0,0-.391-1.556,1.792,1.792,0,0,0-1.371-.489c-0.141.14-2.826,2.888-2.851,2.872s0.873-2.411.584-2.845a0.222,0.222,0,0,0-.247-0.087,59.15,59.15,0,0,1-5.922.351,2.346,2.346,0,0,0-.125.82A1.427,1.427,0,0,0,62.01,15.6a2.671,2.671,0,0,0,.633-0.058,0.494,0.494,0,0,0,.074-0.023v6.5l-0.146,2.1a0.454,0.454,0,0,1-.053.01l-1.57.2a4.792,4.792,0,0,0,.082,2.056" transform="translate(-0.465 -0.279)"/><path class="d" d="M150.507,23.755l-1.783.058V17.949c0-3.786-1.327-5.127-5.07-5.127-4.342,0-5.89,1.53-5.89,2.96a1.726,1.726,0,0,0,1.069,1.628,6.057,6.057,0,0,1,3.826-1.806c2.019,0,2.432.938,2.432,2.346v0.942h-0.061c-0.3-.014-0.6-0.021-0.883-0.021-5.785,0-7,2.4-7,4.414,0,2.225,1.387,3.4,4.016,3.4a5.447,5.447,0,0,0,4.38-2.336,1.73,1.73,0,0,0,.024,1.6,2.2,2.2,0,0,0,1.9.644c2.176,0,3.281-.632,3.281-1.874a2.055,2.055,0,0,0-.239-0.966m-5.536.1a7.542,7.542,0,0,1-2.02.339c-1.209,0-1.9-.512-1.9-1.4,0-.764.311-1.642,2.753-1.642,0.341,0,.724.018,1.17,0.053v2.654Z" transform="translate(-0.465 -0.279)"/><path class="d" d="M151.639,26.39h5.875c1.132,0,1.729-.507,1.729-1.463a2.3,2.3,0,0,0-.154-0.908s-1.667.052-1.751,0.052V9.772l0.382-3.114a0.273,0.273,0,0,0-.058-0.2,0.525,0.525,0,0,0-.411-0.132c-0.031,0-3.1.012-6.057,0.1a2.291,2.291,0,0,0-.125.82,1.426,1.426,0,0,0,1.551,1.612,3.771,3.771,0,0,0,.7-0.069c0,0.016,0,13.232,0,13.232l-0.146,2.1c-0.131.028-1.621,0.212-1.621,0.212a4.775,4.775,0,0,0,.082,2.056" transform="translate(-0.465 -0.279)"/><path class="d" d="M122.752,23.9s-1.65.057-1.67,0.056V9.772l0.381-3.026a0.352,0.352,0,0,0-.05-0.28,0.5,0.5,0,0,0-.42-0.145c-0.007,0-.669-0.018-1.656-0.018-1.112,0-2.773.023-4.4,0.128a2.283,2.283,0,0,0-.129.82,1.429,1.429,0,0,0,1.553,1.611,3.261,3.261,0,0,0,.747-0.085c0.017-.005.058-0.013,0.074-0.02v4.278c-0.122-.013-0.651-0.039-1-0.039-5.163,0-8.5,2.982-8.5,7.591,0,3.74,2.189,6.067,5.713,6.067a5.811,5.811,0,0,0,4.437-2.165,1.708,1.708,0,0,0,.1,1.52,2.4,2.4,0,0,0,1.969.586c1.985,0,3.077-.624,3.077-1.759a1.905,1.905,0,0,0-.234-0.936m-5.684-.479a4.224,4.224,0,0,1-1.642.271c-2.382,0-3.487-1.173-3.487-3.691,0-3,1.345-4.338,4.364-4.338a7.428,7.428,0,0,1,.764.025v7.733Z" transform="translate(-0.465 -0.279)"/><path class="d" d="M134.991,22.327A8.559,8.559,0,0,1,130.56,23.9c-2.24,0-3.344-.921-3.575-2.983A0.055,0.055,0,0,1,127,20.871a0.056,0.056,0,0,1,.045-0.021h8.618c0.192-2.989-.341-5.173-1.576-6.5a5.384,5.384,0,0,0-4.113-1.532c-4.066,0-6.593,2.953-6.593,7.707,0,4.006,2.382,6.212,6.712,6.212,4.124,0,5.594-1.529,5.594-2.958a1.574,1.574,0,0,0-.7-1.455m-5.221-6.9a1.8,1.8,0,0,1,1.351.525,3.729,3.729,0,0,1,.7,2.728h-4.681c0.238-2.128,1.149-3.253,2.629-3.253" transform="translate(-0.465 -0.279)"/><path class="d" d="M170.38,9.049a2.885,2.885,0,0,1-.636.058,1.464,1.464,0,0,1-1.59-1.648,2.1,2.1,0,0,1,.144-0.867c2.949,0,6.013-.289,6.013-0.289a1.285,1.285,0,0,1,.52.578l-0.376,3.064V14.8a4.448,4.448,0,0,1,3.874-1.908c3.353,0,5.492,2.313,5.492,6.042,0,4.6-3.353,7.718-8.9,7.718a17.364,17.364,0,0,1-4.828-.694L170.38,22V9.049Zm4.076,7.343V24.11a5.948,5.948,0,0,0,1.07.058c2.313,0,4.1-1.359,4.1-4.625,0-2.6-1.214-3.729-3.266-3.729A2.891,2.891,0,0,0,174.456,16.392Z" transform="translate(-0.465 -0.279)"/><path class="d" d="M196.4,22.26a1.578,1.578,0,0,1,.752,1.5c0,1.33-1.33,2.977-5.579,2.977-4.22,0-6.678-2.139-6.678-6.186,0-4.481,2.371-7.661,6.562-7.661,3.816,0,6.042,2.371,5.666,8.036h-8.557c0.231,2.052,1.33,2.891,3.469,2.891A8.371,8.371,0,0,0,196.4,22.26Zm-7.8-3.469h4.741c0.087-2.226-.665-3.324-2.081-3.324C189.776,15.467,188.822,16.594,188.591,18.791Z" transform="translate(-0.465 -0.279)"/></svg>