<?xml version="1.0" encoding="utf-8"?>
<!-- Generator: Adobe Illustrator 18.1.1, SVG Export Plug-In . SVG Version: 6.00 Build 0)  -->
<!DOCTYPE svg PUBLIC "-//W3C//DTD SVG 1.1//EN" "http://www.w3.org/Graphics/SVG/1.1/DTD/svg11.dtd">
<svg version="1.1" id="Laag_1" xmlns="http://www.w3.org/2000/svg" xmlns:xlink="http://www.w3.org/1999/xlink" x="0px" y="0px"
	 width="12px" height="12px" viewBox="0 0 12 12" enable-background="new 0 0 12 12" xml:space="preserve">
<g>
	<path fill="#FFFFFF" d="M2.3,7.4H2V5.6c0-0.1,0-0.1,0-0.2s0-0.1,0-0.2s0-0.1,0-0.2s0-0.1,0-0.2c0,0,0,0-0.1,0.1s0,0-0.1,0
		s0,0-0.1,0s0,0-0.1,0.1L1.4,5.4L1.3,5.1L2,4.5h0.3V7.4z"/>
	<path fill="#FFFFFF" d="M5.1,6c0,0.2,0,0.4,0,0.6S5,6.9,4.9,7S4.8,7.3,4.6,7.3S4.4,7.4,4.2,7.4c-0.2,0-0.3,0-0.4-0.1S3.6,7.2,3.5,7
		S3.4,6.8,3.4,6.6S3.3,6.2,3.3,6s0-0.4,0-0.6S3.4,5,3.5,4.9s0.2-0.2,0.3-0.3S4,4.5,4.2,4.5c0.2,0,0.3,0,0.4,0.1s0.2,0.2,0.3,0.3
		S5,5.2,5.1,5.3S5.1,5.7,5.1,6z M3.7,6c0,0.2,0,0.4,0,0.5s0.1,0.3,0.1,0.4S3.9,7,4,7.1s0.2,0.1,0.3,0.1s0.2,0,0.3-0.1
		s0.1-0.1,0.2-0.2s0.1-0.2,0.1-0.4s0-0.3,0-0.5c0-0.2,0-0.4,0-0.5S4.7,5.2,4.6,5.1S4.5,4.9,4.5,4.9S4.3,4.8,4.2,4.8S4,4.8,4,4.9
		S3.8,5,3.8,5.1S3.7,5.3,3.7,5.5S3.7,5.8,3.7,6z"/>
	<path fill="#FFFFFF" d="M7.3,6c0,0.2,0,0.4,0,0.6S7.2,6.9,7.1,7S7,7.3,6.8,7.3S6.6,7.4,6.4,7.4c-0.2,0-0.3,0-0.4-0.1S5.8,7.2,5.7,7
		C5.7,6.9,5.6,6.8,5.6,6.6S5.5,6.2,5.5,6s0-0.4,0-0.6S5.6,5,5.7,4.9S5.9,4.7,6,4.6s0.3-0.1,0.4-0.1c0.2,0,0.3,0,0.4,0.1
		S7,4.8,7.1,4.9C7.2,5,7.2,5.2,7.3,5.3S7.3,5.7,7.3,6z M5.9,6c0,0.2,0,0.4,0,0.5S6,6.7,6,6.8S6.1,7,6.2,7.1s0.2,0.1,0.3,0.1
		s0.2,0,0.3-0.1s0.1-0.1,0.2-0.2s0.1-0.2,0.1-0.4S7,6.2,7,6c0-0.2,0-0.4,0-0.5S6.9,5.2,6.8,5.1S6.7,4.9,6.7,4.9S6.5,4.8,6.4,4.8
		s-0.2,0-0.3,0.1S6,5,6,5.1S5.9,5.3,5.9,5.5S5.9,5.8,5.9,6z"/>
	<path fill="#FFFFFF" d="M8.9,5.6c0,0.1,0,0.2,0,0.3S8.8,6.1,8.8,6.1S8.7,6.2,8.6,6.3s-0.2,0-0.3,0c-0.1,0-0.2,0-0.2,0
		S7.9,6.2,7.9,6.1S7.8,6,7.8,5.9s0-0.2,0-0.3c0-0.1,0-0.2,0-0.3s0.1-0.2,0.1-0.2S8,4.9,8.1,4.9s0.2,0,0.3,0c0.1,0,0.2,0,0.3,0
		S8.7,5,8.8,5.1s0.1,0.1,0.1,0.2S8.9,5.5,8.9,5.6z M8,5.6c0,0.2,0,0.3,0.1,0.4s0.1,0.1,0.2,0.1c0.2,0,0.3-0.2,0.3-0.5
		S8.5,5.1,8.3,5.1c-0.1,0-0.2,0-0.2,0.1S8,5.4,8,5.6z M10.1,4.9L8.6,7.4H8.3l1.5-2.5H10.1z M10.6,6.7c0,0.1,0,0.2,0,0.3
		s-0.1,0.2-0.1,0.2s-0.1,0.1-0.2,0.1s-0.2,0-0.3,0c-0.1,0-0.2,0-0.3,0S9.6,7.3,9.6,7.2S9.5,7.1,9.5,7s0-0.2,0-0.3s0-0.2,0-0.3
		s0.1-0.2,0.1-0.2S9.7,6.1,9.8,6S9.9,6,10,6c0.1,0,0.2,0,0.3,0s0.1,0.1,0.2,0.1s0.1,0.1,0.1,0.2S10.6,6.6,10.6,6.7z M9.7,6.7
		c0,0.2,0,0.3,0.1,0.4S9.9,7.2,10,7.2c0.2,0,0.3-0.2,0.3-0.5c0-0.3-0.1-0.5-0.3-0.5c-0.1,0-0.2,0-0.2,0.1S9.7,6.6,9.7,6.7z"/>
</g>
</svg>
