<?xml version="1.0" encoding="utf-8"?>
<!-- Generator: Adobe Illustrator 18.1.1, SVG Export Plug-In . SVG Version: 6.00 Build 0)  -->
<!DOCTYPE svg PUBLIC "-//W3C//DTD SVG 1.1//EN" "http://www.w3.org/Graphics/SVG/1.1/DTD/svg11.dtd">
<svg version="1.1" id="Laag_1" xmlns="http://www.w3.org/2000/svg" xmlns:xlink="http://www.w3.org/1999/xlink" x="0px" y="0px"
	 width="12px" height="12px" viewBox="0 0 12 12" enable-background="new 0 0 12 12" xml:space="preserve">
<g>
	
		<linearGradient id="SVGID_1_" gradientUnits="userSpaceOnUse" x1="5.9791" y1="1.3794" x2="5.9791" y2="10.6222" gradientTransform="matrix(1 0 0 -1 0 12)">
		<stop  offset="0" style="stop-color:#FFFFFF"/>
		<stop  offset="1" style="stop-color:#F9F9F9"/>
	</linearGradient>
	<path fill="url(#SVGID_1_)" d="M3.6,10.6c-1.2,0-2.2-1-2.2-2.2V3.6c0-1.2,1-2.2,2.2-2.2h4.8c1.2,0,2.2,1,2.2,2.2v4.8
		c0,1.2-1,2.2-2.2,2.2H3.6z"/>
	<path fill="#AAAAAA" d="M8.4,1.6c1.1,0,2,0.9,2,2v4.8c0,1.1-0.9,2-2,2H3.6c-1.1,0-2-0.9-2-2V3.6c0-1.1,0.9-2,2-2H8.4 M8.4,1.2H3.6
		c-1.3,0-2.4,1.1-2.4,2.4v4.8c0,1.3,1.1,2.4,2.4,2.4h4.8c1.3,0,2.4-1.1,2.4-2.4V3.6C10.8,2.3,9.7,1.2,8.4,1.2L8.4,1.2z"/>
</g>
</svg>
