<?xml version="1.0" encoding="utf-8"?>
<!-- Generator: Adobe Illustrator 18.1.1, SVG Export Plug-In . SVG Version: 6.00 Build 0)  -->
<!DOCTYPE svg PUBLIC "-//W3C//DTD SVG 1.1//EN" "http://www.w3.org/Graphics/SVG/1.1/DTD/svg11.dtd">
<svg version="1.1" id="Laag_1" xmlns="http://www.w3.org/2000/svg" xmlns:xlink="http://www.w3.org/1999/xlink" x="0px" y="0px"
	 width="12px" height="12px" viewBox="0 0 12 12" enable-background="new 0 0 12 12" xml:space="preserve">
<g>
	<g>
		<g>
			<line fill="#FFFFFF" x1="6.5" y1="3.7" x2="8.4" y2="5.6"/>
			<path fill="#585858" d="M8.4,5.8c0,0-0.1,0-0.1-0.1L6.4,3.9c-0.1-0.1-0.1-0.2,0-0.3c0.1-0.1,0.2-0.1,0.3,0l1.9,1.9
				c0.1,0.1,0.1,0.2,0,0.3C8.5,5.8,8.4,5.8,8.4,5.8z"/>
		</g>
		<g>
			<line fill="#FFFFFF" x1="4.2" y1="4.2" x2="7.7" y2="7.8"/>
			<path fill="#585858" d="M7.7,8c0,0-0.1,0-0.1-0.1L4.1,4.3C4,4.3,4,4.1,4.1,4.1C4.1,4,4.3,4,4.3,4.1l3.5,3.6
				c0.1,0.1,0.1,0.2,0,0.3C7.8,7.9,7.7,8,7.7,8z"/>
		</g>
		<g>
			<line fill="#FFFFFF" x1="3.6" y1="6.6" x2="5.5" y2="8.4"/>
			<path fill="#585858" d="M5.5,8.6c0,0-0.1,0-0.1-0.1L3.5,6.7c-0.1-0.1-0.1-0.2,0-0.3c0.1-0.1,0.2-0.1,0.3,0l1.9,1.9
				c0.1,0.1,0.1,0.2,0,0.3C5.6,8.6,5.5,8.6,5.5,8.6z"/>
		</g>
	</g>
	<path fill="#585858" d="M6,10.6c-2.5,0-4.6-2-4.6-4.6c0-2.5,2-4.6,4.6-4.6c2.5,0,4.6,2,4.6,4.6C10.6,8.6,8.5,10.6,6,10.6z M6,2.2
		c-2.1,0-3.9,1.7-3.9,3.9S3.9,10,6,10c2.1,0,3.9-1.7,3.9-3.9S8.1,2.2,6,2.2z"/>
</g>
</svg>
