<?xml version="1.0" encoding="utf-8"?>
<!-- Generator: Adobe Illustrator 18.1.1, SVG Export Plug-In . SVG Version: 6.00 Build 0)  -->
<!DOCTYPE svg PUBLIC "-//W3C//DTD SVG 1.1//EN" "http://www.w3.org/Graphics/SVG/1.1/DTD/svg11.dtd">
<svg version="1.1" id="Laag_1" xmlns="http://www.w3.org/2000/svg" xmlns:xlink="http://www.w3.org/1999/xlink" x="0px" y="0px"
	 width="12px" height="12px" viewBox="0 0 12 12" enable-background="new 0 0 12 12" xml:space="preserve">
<path fill="#585858" d="M6.027,1.137c-2.714,0-4.915,2.2-4.915,4.915c0,2.714,2.201,4.915,4.915,4.915
	c2.714,0,4.915-2.201,4.915-4.915C10.942,3.336,8.741,1.137,6.027,1.137z M5.892,9.194c-0.459,0-0.788-0.321-0.788-0.778
	c0-0.43,0.321-0.788,0.806-0.788c0.495,0,0.769,0.358,0.769,0.788C6.679,8.873,6.331,9.194,5.892,9.194z M6.432,6.484L6.386,7.17
	c0,0-0.119,0.037-0.486,0.037c-0.366,0-0.485-0.037-0.485-0.037S5.241,6.95,5.241,6.594c0-0.898,1.218-0.943,1.218-1.804
	c0-0.302-0.192-0.54-0.621-0.54c-0.697,0-1.145,0.612-1.145,0.612S4.125,4.68,4.125,4.167c0-0.514,0.531-0.862,1.822-0.862
	c1.308,0,1.802,0.514,1.802,1.328C7.749,5.559,6.963,6.173,6.432,6.484z"/>
<g>
</g>
<g>
</g>
<g>
</g>
<g>
</g>
<g>
</g>
<g>
</g>
</svg>
