<?xml version="1.0" encoding="utf-8"?>
<!-- Generator: Adobe Illustrator 18.1.1, SVG Export Plug-In . SVG Version: 6.00 Build 0)  -->
<!DOCTYPE svg PUBLIC "-//W3C//DTD SVG 1.1//EN" "http://www.w3.org/Graphics/SVG/1.1/DTD/svg11.dtd">
<svg version="1.1" id="Laag_1" xmlns="http://www.w3.org/2000/svg" xmlns:xlink="http://www.w3.org/1999/xlink" x="0px" y="0px"
	 width="12px" height="12px" viewBox="0 0 12 12" enable-background="new 0 0 12 12" xml:space="preserve">
<g>
	<path fill="#585858" d="M3.8,3.6C4.4,3,5,2.9,5.5,3L4.4,1.6c0,0,4.6,1.2,4.7,1.6c0,0.4-4.4,3.1-4.4,3.1l1-2c-0.4,0-0.8,0-1.4,0.4
		C3,5.5,2.4,6.6,2.1,7.2C2,7.3,1.9,7.3,1.8,7.4C1.8,6.5,2.2,4.9,3.8,3.6z"/>
	<path fill="#585858" d="M2.9,8.9c0-0.4,4.4-3.1,4.4-3.1l-1,2c0.4,0,0.8,0,1.4-0.4c1.3-0.8,1.9-2,2.2-2.5c0.1-0.1,0.2-0.2,0.2-0.2
		c0,1-0.4,2.5-1.9,3.9C7.6,9,7,9.1,6.5,9l1.1,1.4C7.6,10.4,3,9.2,2.9,8.9z"/>
</g>
</svg>
