<?xml version="1.0" encoding="utf-8"?>
<!-- Generator: Adobe Illustrator 18.1.1, SVG Export Plug-In . SVG Version: 6.00 Build 0)  -->
<!DOCTYPE svg PUBLIC "-//W3C//DTD SVG 1.1//EN" "http://www.w3.org/Graphics/SVG/1.1/DTD/svg11.dtd">
<svg version="1.1" id="Laag_1" xmlns="http://www.w3.org/2000/svg" xmlns:xlink="http://www.w3.org/1999/xlink" x="0px" y="0px"
	 width="12px" height="12px" viewBox="0 0 12 12" enable-background="new 0 0 12 12" xml:space="preserve">
<path fill="#FFFFFF" d="M10.7,7.7C10.4,8,6.3,5.5,6.3,5.5l2.1-0.4C7.8,4.7,7,4.2,6.1,4.1c-2.6-0.3-3.4,1-3.4,1S4,2,6.6,2.4
	c1.1,0.1,2,1.1,2.6,2.1l0.9-2.3C10.1,2.1,11,7.4,10.7,7.7z"/>
<g>
	<path fill="#FFFFFF" d="M2.6,7.8c0,0.1,0,0.3,0,0.4s0,0.3-0.1,0.4S2.4,8.8,2.3,8.9S2.2,9.1,2.1,9.2S1.9,9.4,1.8,9.4
		S1.5,9.5,1.3,9.5c0,0-0.1,0-0.1,0s-0.1,0-0.1,0s-0.1,0-0.1,0S1,9.4,1,9.4V9.1c0,0,0.1,0,0.2,0s0.1,0,0.2,0c0.2,0,0.3,0,0.4-0.1
		S1.9,8.9,2,8.8s0.1-0.2,0.1-0.4s0-0.3,0.1-0.4h0c0,0-0.1,0.1-0.1,0.1S2,8.2,2,8.3S1.8,8.3,1.8,8.3s-0.1,0-0.2,0
		c-0.1,0-0.2,0-0.3-0.1S1.1,8.2,1,8.1S0.9,8,0.8,7.9S0.8,7.6,0.8,7.5c0-0.1,0-0.3,0.1-0.4S0.9,6.9,1,6.8s0.2-0.1,0.3-0.2
		s0.2-0.1,0.4-0.1c0.1,0,0.3,0,0.4,0.1s0.2,0.1,0.3,0.2s0.1,0.2,0.2,0.4S2.6,7.6,2.6,7.8z M1.6,6.8c-0.1,0-0.1,0-0.2,0
		S1.3,6.9,1.3,7S1.2,7.1,1.1,7.2s0,0.2,0,0.3c0,0.1,0,0.2,0,0.2s0.1,0.1,0.1,0.2S1.3,8,1.4,8s0.1,0,0.2,0c0.1,0,0.2,0,0.2,0
		S2,8,2,7.9s0.1-0.1,0.1-0.2s0-0.1,0-0.2c0-0.1,0-0.2,0-0.3S2.1,7.1,2.1,7.1S2,6.9,1.9,6.9S1.7,6.8,1.6,6.8z"/>
	<path fill="#FFFFFF" d="M4.8,8c0,0.2,0,0.4,0,0.6S4.6,8.9,4.6,9.1S4.4,9.3,4.3,9.4S4,9.5,3.9,9.5c-0.2,0-0.3,0-0.4-0.1
		S3.2,9.2,3.2,9.1S3,8.8,3,8.6S3,8.2,3,8c0-0.2,0-0.4,0-0.6S3.1,7,3.2,6.9s0.2-0.2,0.3-0.3s0.3-0.1,0.4-0.1c0.2,0,0.3,0,0.4,0.1
		s0.2,0.2,0.3,0.3s0.1,0.3,0.2,0.5S4.8,7.8,4.8,8z M3.3,8c0,0.2,0,0.4,0,0.5s0.1,0.3,0.1,0.4S3.5,9,3.6,9.1s0.2,0.1,0.3,0.1
		s0.2,0,0.3-0.1S4.2,9,4.3,8.9s0.1-0.2,0.1-0.4s0-0.3,0-0.5c0-0.2,0-0.4,0-0.5S4.3,7.2,4.3,7.1S4.2,6.9,4.1,6.9S4,6.8,3.9,6.8
		s-0.2,0-0.3,0.1S3.5,7,3.4,7.1S3.4,7.3,3.3,7.5S3.3,7.8,3.3,8z"/>
	<path fill="#FFFFFF" d="M5.2,7.1c0-0.2,0.1-0.3,0.2-0.4s0.3-0.2,0.4-0.2c0.2,0,0.3,0.1,0.4,0.2S6.4,7,6.4,7.1
		c0,0.2-0.1,0.3-0.2,0.4S6,7.8,5.8,7.8c-0.2,0-0.3-0.1-0.4-0.2S5.2,7.3,5.2,7.1z M5.4,7.1c0,0.1,0,0.2,0.1,0.3s0.2,0.1,0.3,0.1
		c0.1,0,0.2,0,0.3-0.1s0.1-0.2,0.1-0.3c0-0.1,0-0.2-0.1-0.3S5.9,6.8,5.8,6.8c-0.1,0-0.2,0-0.3,0.1S5.4,7,5.4,7.1z"/>
</g>
</svg>
