<?xml version="1.0" encoding="utf-8"?>
<!-- Generator: Adobe Illustrator 18.1.1, SVG Export Plug-In . SVG Version: 6.00 Build 0)  -->
<!DOCTYPE svg PUBLIC "-//W3C//DTD SVG 1.1//EN" "http://www.w3.org/Graphics/SVG/1.1/DTD/svg11.dtd">
<svg version="1.1" id="Laag_1" xmlns="http://www.w3.org/2000/svg" xmlns:xlink="http://www.w3.org/1999/xlink" x="0px" y="0px"
	 width="12px" height="12px" viewBox="0 0 12 12" enable-background="new 0 0 12 12" xml:space="preserve">
<path fill="#FFFFFF" d="M2,2.1l0.9,2.3c0.7-1,1.6-2,2.6-2.1C8.1,2,9.4,5.2,9.4,5.2s-0.8-1.4-3.4-1c-0.8,0.1-1.6,0.5-2.3,1l2.1,0.4
	c0,0-4.1,2.4-4.4,2.2C1.1,7.4,2,2.1,2,2.1z"/>
<g>
	<path fill="#FFFFFF" d="M7.1,7.8c0,0.1,0,0.3,0,0.4s0,0.3-0.1,0.4S7,8.8,6.9,8.9S6.8,9.1,6.7,9.2S6.5,9.4,6.3,9.4S6.1,9.5,5.9,9.5
		c0,0-0.1,0-0.1,0s-0.1,0-0.1,0s-0.1,0-0.1,0s-0.1,0-0.1,0V9.1c0,0,0.1,0,0.2,0s0.1,0,0.2,0c0.2,0,0.3,0,0.4-0.1s0.2-0.1,0.3-0.2
		s0.1-0.2,0.1-0.4s0-0.3,0.1-0.4h0c0,0-0.1,0.1-0.1,0.1S6.6,8.2,6.5,8.3S6.4,8.3,6.3,8.3s-0.1,0-0.2,0c-0.1,0-0.2,0-0.3-0.1
		S5.6,8.2,5.5,8.1S5.4,8,5.4,7.9S5.3,7.6,5.3,7.5c0-0.1,0-0.3,0.1-0.4s0.1-0.2,0.2-0.3s0.2-0.1,0.3-0.2s0.2-0.1,0.4-0.1
		c0.1,0,0.3,0,0.4,0.1s0.2,0.1,0.3,0.2S7,7.1,7.1,7.2S7.1,7.6,7.1,7.8z M6.2,6.8c-0.1,0-0.1,0-0.2,0S5.9,6.9,5.8,7S5.7,7.1,5.7,7.2
		s0,0.2,0,0.3c0,0.1,0,0.2,0,0.2s0.1,0.1,0.1,0.2S5.9,8,6,8s0.1,0,0.2,0c0.1,0,0.2,0,0.2,0S6.6,8,6.6,7.9s0.1-0.1,0.1-0.2
		s0-0.1,0-0.2c0-0.1,0-0.2,0-0.3S6.7,7.1,6.6,7.1S6.5,6.9,6.5,6.9S6.3,6.8,6.2,6.8z"/>
	<path fill="#FFFFFF" d="M9.3,8c0,0.2,0,0.4,0,0.6S9.2,8.9,9.1,9.1S9,9.3,8.8,9.4S8.6,9.5,8.4,9.5c-0.2,0-0.3,0-0.4-0.1
		C7.9,9.3,7.8,9.2,7.7,9.1S7.6,8.8,7.6,8.6S7.5,8.2,7.5,8c0-0.2,0-0.4,0-0.6S7.7,7,7.7,6.9S7.9,6.7,8,6.6c0.1-0.1,0.3-0.1,0.4-0.1
		c0.2,0,0.3,0,0.4,0.1S9,6.8,9.1,6.9s0.1,0.3,0.2,0.5S9.3,7.8,9.3,8z M7.9,8c0,0.2,0,0.4,0,0.5S8,8.8,8,8.9C8,9,8.1,9,8.2,9.1
		s0.2,0.1,0.3,0.1s0.2,0,0.3-0.1S8.8,9,8.9,8.9S8.9,8.7,9,8.5S9,8.2,9,8c0-0.2,0-0.4,0-0.5S8.9,7.2,8.9,7.1S8.8,6.9,8.7,6.9
		S8.5,6.8,8.4,6.8s-0.2,0-0.3,0.1S8,7,8,7.1c0,0.1-0.1,0.2-0.1,0.4S7.9,7.8,7.9,8z"/>
	<path fill="#FFFFFF" d="M9.8,7.1c0-0.2,0.1-0.3,0.2-0.4s0.3-0.2,0.4-0.2c0.2,0,0.3,0.1,0.4,0.2S11,7,11,7.1c0,0.2-0.1,0.3-0.2,0.4
		s-0.3,0.2-0.4,0.2c-0.2,0-0.3-0.1-0.4-0.2S9.8,7.3,9.8,7.1z M10,7.1c0,0.1,0,0.2,0.1,0.3s0.2,0.1,0.3,0.1c0.1,0,0.2,0,0.3-0.1
		s0.1-0.2,0.1-0.3c0-0.1,0-0.2-0.1-0.3s-0.2-0.1-0.3-0.1c-0.1,0-0.2,0-0.3,0.1S10,7,10,7.1z"/>
</g>
</svg>
