<?xml version="1.0" encoding="utf-8"?>
<!-- Generator: Adobe Illustrator 18.1.1, SVG Export Plug-In . SVG Version: 6.00 Build 0)  -->
<!DOCTYPE svg PUBLIC "-//W3C//DTD SVG 1.1//EN" "http://www.w3.org/Graphics/SVG/1.1/DTD/svg11.dtd">
<svg version="1.1" id="Laag_1" xmlns="http://www.w3.org/2000/svg" xmlns:xlink="http://www.w3.org/1999/xlink" x="0px" y="0px"
	 width="12px" height="12px" viewBox="0 0 12 12" enable-background="new 0 0 12 12" xml:space="preserve">
<g>
	<path fill="#585858" d="M6.9,5.5c0-1.3-1-2.3-2.2-2.3c-1.2,0-2.2,1.1-2.2,2.3s1,2.3,2.2,2.3c0.2,0,0.4,0,0.5-0.1v2h4.3V5.5H6.9z
		 M4.7,7.5c-1,0-1.8-0.9-1.8-1.9s0.8-1.9,1.8-1.9c1,0,1.8,0.9,1.8,1.9H5.2v1.8C5,7.4,4.8,7.5,4.7,7.5z M6.4,5.9
		C6.3,6.5,6,6.9,5.6,7.2V5.9H6.4z M9.1,9.4H5.6V7.6c0.6-0.3,1.1-0.9,1.2-1.7h2.2V9.4z"/>
	<rect x="4.4" y="3.4" transform="matrix(0.7071 0.7071 -0.7071 0.7071 4.4973 -3.687)" fill="#585858" width="4.7" height="0.4"/>
</g>
</svg>
