<?xml version="1.0" encoding="utf-8"?>
<!-- Generator: Adobe Illustrator 18.1.1, SVG Export Plug-In . SVG Version: 6.00 Build 0)  -->
<!DOCTYPE svg PUBLIC "-//W3C//DTD SVG 1.1//EN" "http://www.w3.org/Graphics/SVG/1.1/DTD/svg11.dtd">
<svg version="1.1" id="Laag_1" xmlns="http://www.w3.org/2000/svg" xmlns:xlink="http://www.w3.org/1999/xlink" x="0px" y="0px"
	 width="12px" height="12px" viewBox="0 0 12 12" enable-background="new 0 0 12 12" xml:space="preserve">
<g>
	<path fill="#585858" d="M3,2.6h2.2c1,0,1.7,0.1,2.2,0.4s0.7,0.7,0.7,1.4c0,0.4-0.1,0.8-0.3,1S7.4,5.9,7,6v0c0.5,0.1,0.8,0.3,1,0.6
		s0.3,0.6,0.3,1.1c0,0.7-0.2,1.2-0.7,1.5S6.5,9.8,5.7,9.8H3V2.6z M4.5,5.5h0.9c0.4,0,0.7-0.1,0.9-0.2s0.3-0.3,0.3-0.6
		c0-0.3-0.1-0.5-0.3-0.6S5.8,3.9,5.3,3.9H4.5V5.5z M4.5,6.7v1.9h1c0.4,0,0.7-0.1,0.9-0.2s0.3-0.4,0.3-0.7c0-0.6-0.4-0.9-1.3-0.9H4.5
		z"/>
</g>
</svg>
