<?xml version="1.0" encoding="utf-8"?>
<!-- Generator: Adobe Illustrator 18.1.1, SVG Export Plug-In . SVG Version: 6.00 Build 0)  -->
<!DOCTYPE svg PUBLIC "-//W3C//DTD SVG 1.1//EN" "http://www.w3.org/Graphics/SVG/1.1/DTD/svg11.dtd">
<svg version="1.1" id="Laag_1" xmlns="http://www.w3.org/2000/svg" xmlns:xlink="http://www.w3.org/1999/xlink" x="0px" y="0px"
	 width="12px" height="12px" viewBox="0 0 12 12" enable-background="new 0 0 12 12" xml:space="preserve">
<g>
	<path fill="#585858" d="M8.5,2.6V7c0,0.8-0.2,1.4-0.7,1.8s-1.1,0.7-2,0.7C5,9.5,4.4,9.2,3.9,8.8C3.5,8.3,3.3,7.7,3.3,7V2.6h0.9V7
		c0,0.6,0.1,1,0.4,1.3c0.3,0.3,0.7,0.5,1.3,0.5c0.6,0,1-0.2,1.3-0.5S7.7,7.5,7.7,7V2.6H8.5z"/>
	<path fill="#585858" d="M2.4,10.3V9.9h7v0.5H2.4z"/>
</g>
</svg>
