<?xml version="1.0" encoding="utf-8"?>
<!-- Generator: Adobe Illustrator 18.1.1, SVG Export Plug-In . SVG Version: 6.00 Build 0)  -->
<!DOCTYPE svg PUBLIC "-//W3C//DTD SVG 1.1//EN" "http://www.w3.org/Graphics/SVG/1.1/DTD/svg11.dtd">
<svg version="1.1" id="Laag_1" xmlns="http://www.w3.org/2000/svg" xmlns:xlink="http://www.w3.org/1999/xlink" x="0px" y="0px"
	 width="12px" height="12px" viewBox="0 0 12 12" enable-background="new 0 0 12 12" xml:space="preserve">
<g>
	<g>
		<path fill="#585858" d="M11.5,10L8.7,7.6c1.1-1.8,0.7-4.2-1-5.5C6.7,1.3,5.4,1,4.1,1.3C3.1,1.5,2.3,2,1.7,2.7
			c-0.7,0.9-1,2-0.9,3.1C0.9,7,1.5,8,2.4,8.8c1,0.8,2.3,1.1,3.6,0.8c0.7-0.2,1.4-0.5,1.9-1l2.8,2.4c0.1,0.1,0.4,0,0.6-0.2l0.2-0.2
			C11.6,10.4,11.7,10.1,11.5,10z M7.3,7.2c-0.4,0.5-1,0.9-1.6,1c-0.9,0.2-1.8,0-2.5-0.6C2,6.7,1.8,4.9,2.8,3.6c0.4-0.5,1-0.9,1.6-1
			c0.9-0.2,1.8,0,2.5,0.6C8.1,4.2,8.3,6,7.3,7.2z"/>
	</g>
	<path fill="#585858" d="M6.5,6.9H3.6V4.1h2.8V6.9z M4,6.6h2.1V4.4H4V6.6z"/>
</g>
</svg>
